<svg version="1.1" xmlns="http://www.w3.org/2000/svg" xmlns:xlink="http://www.w3.org/1999/xlink" width="600" height="600" style="width: 600px; height: 600px;"><defs><clipPath id="NFWwTRTvAgJm"><path fill="none" stroke="none" d=" M 52 203 L 570 203 L 570 555 L 52 555 L 52 203 Z"/></clipPath><clipPath id="GbavJZFZsLWr"><path fill="none" stroke="none" d=" M 52 203 L 570 203 L 570 555 L 52 555 L 52 203 Z"/></clipPath><clipPath id="XiENuNydkTOI"><path fill="none" stroke="none" d=" M 52 203 L 570 203 L 570 555 L 52 555 L 52 203 Z"/></clipPath><clipPath id="oTIHCqCnOfHw"><path fill="none" stroke="none" d=" M 52 203 L 570 203 L 570 555 L 52 555 L 52 203 Z"/></clipPath><clipPath id="QoWnWSDDpINz"><path fill="none" stroke="none" d=" M 52 203 L 570 203 L 570 555 L 52 555 L 52 203 Z"/></clipPath><clipPath id="fJIrDhuQSRah"><path fill="none" stroke="none" d=" M 52 203 L 570 203 L 570 555 L 52 555 L 52 203 Z"/></clipPath><clipPath id="nRQWsoyQgVHQ"><path fill="none" stroke="none" d=" M 52 203 L 570 203 L 570 555 L 52 555 L 52 203 Z"/></clipPath><clipPath id="kuzMvrCHizlg"><path fill="none" stroke="none" d=" M 52 203 L 570 203 L 570 555 L 52 555 L 52 203 Z"/></clipPath><clipPath id="GHgaAPpmzTMQ"><path fill="none" stroke="none" d=" M 52 203 L 570 203 L 570 555 L 52 555 L 52 203 Z"/></clipPath></defs><g><g/><g/><g/><g transform="scale(1,1) translate(0.5,0.5)"><rect fill="#FFFFFF" stroke="none" x="0" y="0" width="600" height="600"/><rect fill="#ffffff" stroke="none" x="0" y="0" width="600" height="600"/><rect fill="#FFFFFF" stroke="none" x="52" y="203" width="518" height="352"/><rect fill="#ffffff" stroke="none" x="52" y="203" width="518" height="352"/><g><rect fill="none" stroke="#e5e5e5" x="52" y="203" width="518" height="352" stroke-linejoin="bevel" stroke-miterlimit="10"/></g><g clip-path="url(#NFWwTRTvAgJm)"><g><g><path fill="none" stroke="#e5e5e5" paint-order="fill stroke markers" d=" M 76 555 L 76 203" stroke-linejoin="bevel" stroke-miterlimit="10"/><path fill="none" stroke="#e5e5e5" paint-order="fill stroke markers" d=" M 149 555 L 149 203" stroke-linejoin="bevel" stroke-miterlimit="10"/><path fill="none" stroke="#e5e5e5" paint-order="fill stroke markers" d=" M 223 555 L 223 203" stroke-linejoin="bevel" stroke-miterlimit="10"/><path fill="none" stroke="#e5e5e5" paint-order="fill stroke markers" d=" M 296 555 L 296 203" stroke-linejoin="bevel" stroke-miterlimit="10"/><path fill="none" stroke="#e5e5e5" paint-order="fill stroke markers" d=" M 370 555 L 370 203" stroke-linejoin="bevel" stroke-miterlimit="10"/><path fill="none" stroke="#e5e5e5" paint-order="fill stroke markers" d=" M 443 555 L 443 203" stroke-linejoin="bevel" stroke-miterlimit="10"/><path fill="none" stroke="#e5e5e5" paint-order="fill stroke markers" d=" M 517 555 L 517 203" stroke-linejoin="bevel" stroke-miterlimit="10"/></g></g></g><g clip-path="url(#GbavJZFZsLWr)"><g><g><path fill="none" stroke="#e5e5e5" paint-order="fill stroke markers" d=" M 52 525 L 570 525" stroke-linejoin="bevel" stroke-miterlimit="10"/><path fill="none" stroke="#e5e5e5" paint-order="fill stroke markers" d=" M 52 478 L 570 478" stroke-linejoin="bevel" stroke-miterlimit="10"/><path fill="none" stroke="#e5e5e5" paint-order="fill stroke markers" d=" M 52 432 L 570 432" stroke-linejoin="bevel" stroke-miterlimit="10"/><path fill="none" stroke="#e5e5e5" paint-order="fill stroke markers" d=" M 52 385 L 570 385" stroke-linejoin="bevel" stroke-miterlimit="10"/><path fill="none" stroke="#e5e5e5" paint-order="fill stroke markers" d=" M 52 339 L 570 339" stroke-linejoin="bevel" stroke-miterlimit="10"/><path fill="none" stroke="#e5e5e5" paint-order="fill stroke markers" d=" M 52 293 L 570 293" stroke-linejoin="bevel" stroke-miterlimit="10"/><path fill="none" stroke="#e5e5e5" paint-order="fill stroke markers" d=" M 52 246 L 570 246" stroke-linejoin="bevel" stroke-miterlimit="10"/></g></g></g><g clip-path="url(#XiENuNydkTOI)"><g><g><path fill="none" stroke="none"/><path fill="none" stroke="#1F78B4" paint-order="fill stroke markers" d=" M 75.54545454545456 457.7649151136141 L 90.26136363636363 440.8885322699701 L 104.97727272727275 451.7765212013533 L 119.69318181818181 459.3981134533216 L 134.40909090909093 443.0661300562467 L 149.125 470.83050183127403 L 163.84090909090912 446.3325267356617 L 178.5568181818182 433.81133946457095 L 193.27272727272725 468.6529040449974 L 207.98863636363637 430.54494278515597 L 222.70454545454544 436.53333669741676 L 237.42045454545456 452.86532009449166 L 252.13636363636363 385.90418816648463 L 266.85227272727275 377.19379702137803 L 281.5681818181818 458.3093145601833 L 296.2840909090909 404.95816879640535 L 311 386.9929870596229 L 325.7159090909091 453.95411898762995 L 340.4318181818182 414.2129593880811 L 355.14772727272725 436.53333669741676 L 369.8636363636364 465.93090681215153 L 384.57954545454544 463.2089095793058 L 399.2954545454545 428.36734499887933 L 414.0113636363636 467.0197057052899 L 428.72727272727275 427.27854610574104 L 443.4431818181818 409.3133643689586 L 458.1590909090909 455.0429178807683 L 472.875 421.2901521934802 L 487.59090909090907 442.52173060967755 L 502.3068181818182 428.91174444544845 L 517.0227272727273 395.1589787581604 L 531.7386363636364 480.0852924229498 L 546.4545454545454 501.86127028571633" stroke-linejoin="bevel" stroke-miterlimit="10" stroke-width="2"/></g></g></g><g clip-path="url(#oTIHCqCnOfHw)"><g><g><path fill="none" stroke="none"/><path fill="none" stroke="#33A02C" paint-order="fill stroke markers" d=" M 75.54545454545456 443.09001596342955 L 90.26136363636363 428.761301904688 L 104.97727272727275 469.30107826600545 L 119.69318181818181 444.1384584555326 L 134.40909090909093 445.53638177833665 L 149.125 464.40834663619125 L 163.84090909090912 432.95507187310017 L 178.5568181818182 424.9170127669769 L 193.27272727272725 459.8650958370781 L 207.98863636363637 440.6436501485225 L 222.70454545454544 431.5571485502961 L 237.42045454545456 465.1073082975933 L 252.13636363636363 365.15579071710386 L 266.85227272727275 359.9135782565886 L 281.5681818181818 468.95159743530445 L 296.2840909090909 403.2492012635141 L 311 389.96892969687565 L 325.7159090909091 458.11769168357307 L 340.4318181818182 408.8408945547303 L 355.14772727272725 423.5190894441729 L 369.8636363636364 454.6228833765629 L 384.57954545454544 446.58482427043964 L 399.2954545454545 438.5467651643164 L 414.0113636363636 463.35990414408826 L 428.72727272727275 414.78206867664755 L 443.4431818181818 432.95507187310017 L 458.1590909090909 468.95159743530445 L 472.875 439.59520765641946 L 487.59090909090907 438.19728433361536 L 502.3068181818182 440.6436501485225 L 517.0227272727273 422.47064695206984 L 531.7386363636364 487.4740814624581 L 546.4545454545454 500.40487219839554" stroke-linejoin="bevel" stroke-miterlimit="10" stroke-width="2"/></g></g></g><g clip-path="url(#QoWnWSDDpINz)"><g><g><path fill="none" stroke="none"/><path fill="none" stroke="#C51B7D" paint-order="fill stroke markers" d=" M 75.54545454545456 428.33707213246385 L 90.26136363636363 447.3119443118898 L 104.97727272727275 462.07017822922114 L 119.69318181818181 426.2287530014165 L 134.40909090909093 434.6620295256058 L 149.125 462.7729512729036 L 163.84090909090912 448.01471735557226 L 178.5568181818182 448.7174903992547 L 193.27272727272725 462.7729512729036 L 207.98863636363637 433.9592564819234 L 222.70454545454544 431.85093735087605 L 237.42045454545456 469.800681709728 L 252.13636363636363 365.08749820104384 L 266.85227272727275 385.4679164678347 L 281.5681818181818 464.8812704039509 L 296.2840909090909 405.14556169094317 L 311 391.0901008172943 L 325.7159090909091 449.42026344293714 L 340.4318181818182 403.7400156035783 L 355.14772727272725 426.9315260450989 L 369.8636363636364 467.6923625786807 L 384.57954545454544 447.3119443118898 L 399.2954545454545 430.44539126351117 L 414.0113636363636 468.3951356223631 L 428.72727272727275 434.6620295256058 L 443.4431818181818 429.0398451761463 L 458.1590909090909 456.4479938797616 L 472.875 422.71488778300426 L 487.59090909090907 439.5814408313829 L 502.3068181818182 429.0398451761463 L 517.0227272727273 419.20102256459205 L 531.7386363636364 492.9921921512487 L 546.4545454545454 504.2365608501678" stroke-linejoin="bevel" stroke-miterlimit="10" stroke-width="2"/></g></g></g><g clip-path="url(#fJIrDhuQSRah)"><g><g><path fill="none" stroke="none"/><path fill="none" stroke="#542788" paint-order="fill stroke markers" d=" M 75.54545454545456 453.6666666666667 L 90.26136363636363 421.66666666666674 L 104.97727272727275 432.33333333333337 L 119.69318181818181 368.33333333333337 L 134.40909090909093 443.00000000000006 L 149.125 539 L 163.84090909090912 432.33333333333337 L 178.5568181818182 421.66666666666674 L 193.27272727272725 485.6666666666667 L 207.98863636363637 411.00000000000006 L 222.70454545454544 432.33333333333337 L 237.42045454545456 453.6666666666667 L 252.13636363636363 219.00000000000006 L 266.85227272727275 400.33333333333337 L 281.5681818181818 496.33333333333337 L 296.2840909090909 400.33333333333337 L 311 379.00000000000006 L 325.7159090909091 411.00000000000006 L 340.4318181818182 421.66666666666674 L 355.14772727272725 347.00000000000006 L 369.8636363636364 464.33333333333337 L 384.57954545454544 421.66666666666674 L 399.2954545454545 432.33333333333337 L 414.0113636363636 475 L 428.72727272727275 421.66666666666674 L 443.4431818181818 389.66666666666674 L 458.1590909090909 443.00000000000006 L 472.875 357.66666666666674 L 487.59090909090907 379.00000000000006 L 502.3068181818182 421.66666666666674 L 517.0227272727273 336.33333333333337 L 531.7386363636364 464.33333333333337 L 546.4545454545454 485.6666666666667" stroke-linejoin="bevel" stroke-miterlimit="10" stroke-width="2"/></g></g></g><g clip-path="url(#nRQWsoyQgVHQ)"><g><g><path fill="none" stroke="none"/><path fill="none" stroke="#A6CEE3" paint-order="fill stroke markers" d=" M 75.54545454545456 427.984522120166 L 90.26136363636363 440.2117996182892 L 104.97727272727275 466.63145278387685 L 119.69318181818181 423.3992930583698 L 134.40909090909093 441.9585535465925 L 149.125 460.7361582758532 L 163.84090909090912 439.33842265413756 L 178.5568181818182 428.85789908431764 L 193.27272727272725 460.7361582758532 L 207.98863636363637 432.5697511819622 L 222.70454545454544 439.77511113621335 L 237.42045454545456 449.60060198291956 L 252.13636363636363 342.83026811537934 L 266.85227272727275 368.5948885578532 L 281.5681818181818 460.29946979377735 L 296.2840909090909 387.154149046076 L 311 388.9009029743793 L 325.7159090909091 456.8059619371707 L 340.4318181818182 401.5648689545783 L 355.14772727272725 426.45611243290057 L 369.8636363636364 456.150929214057 L 384.57954545454544 438.9017341720617 L 399.2954545454545 427.5478336380902 L 414.0113636363636 452.65742135745035 L 428.72727272727275 421.87088337110436 L 443.4431818181818 433.2247839050759 L 458.1590909090909 459.8627813117015 L 472.875 435.18988207441714 L 487.59090909090907 430.82299725365885 L 502.3068181818182 436.9366360027205 L 517.0227272727273 418.37737551449777 L 531.7386363636364 496.54461380607114 L 546.4545454545454 499.60143318060193" stroke-linejoin="bevel" stroke-miterlimit="10" stroke-width="2"/></g></g></g><g clip-path="url(#kuzMvrCHizlg)"><g><g><path fill="none" stroke="none"/><path fill="none" stroke="#B2DF8A" paint-order="fill stroke markers" d=" M 75.54545454545456 421.6884100174724 L 90.26136363636363 437.0935740632887 L 104.97727272727275 453.683750728014 L 119.69318181818181 431.95851938134996 L 134.40909090909093 430.378502556138 L 149.125 473.43396104316315 L 163.84090909090912 444.2036497767424 L 178.5568181818182 428.4034815246231 L 193.27272727272725 454.86876334692295 L 207.98863636363637 436.6985698569857 L 222.70454545454544 438.67359088850066 L 237.42045454545456 460.79382644146773 L 252.13636363636363 351.37766129554143 L 266.85227272727275 362.4377790720249 L 281.5681818181818 467.9039021549214 L 296.2840909090909 383.373002006083 L 311 382.18798938717407 L 325.7159090909091 446.9686792208633 L 340.4318181818182 402.3332039086262 L 355.14772727272725 430.378502556138 L 369.8636363636364 467.11389374231544 L 384.57954545454544 439.4635993011066 L 399.2954545454545 444.5986539830454 L 414.0113636363636 450.91872128389315 L 428.72727272727275 433.9335404128649 L 443.4431818181818 437.4885782695917 L 458.1590909090909 460.39882223516474 L 472.875 448.15369183977225 L 487.59090909090907 431.95851938134996 L 502.3068181818182 467.5088979486184 L 517.0227272727273 429.19348993722906 L 531.7386363636364 499.1092344528571 L 546.4545454545454 507.79932699152266" stroke-linejoin="bevel" stroke-miterlimit="10" stroke-width="2"/></g></g></g><g><g/><g><path fill="#ffffff" stroke="#e5e5e5" paint-order="fill stroke markers" d=" M 62 38 L 462.078125 38 L 462.078125 193 L 62 193 L 62 38 Z" fill-opacity="0.95" stroke-linejoin="bevel" stroke-miterlimit="10" stroke-opacity="0.5"/><text fill="#444444" stroke="none" font-family="helvetica" font-size="10pt" font-style="normal" font-weight="normal" text-decoration="normal" x="97" y="58" text-anchor="start" dominant-baseline="central">plc124_fluc_rep01_GACTAG.fastqAligned.primary.out_dedup</text><g><path fill="none" stroke="#1F78B4" paint-order="fill stroke markers" d=" M 72 58 L 92 58" stroke-linejoin="bevel" stroke-miterlimit="10" stroke-width="2"/></g><text fill="#444444" stroke="none" font-family="helvetica" font-size="10pt" font-style="normal" font-weight="normal" text-decoration="normal" x="97" y="81" text-anchor="start" dominant-baseline="central">plc124_fluc_rep02_TGCACA.fastqAligned.primary.out_dedup</text><g><path fill="none" stroke="#33A02C" paint-order="fill stroke markers" d=" M 72 81 L 92 81" stroke-linejoin="bevel" stroke-miterlimit="10" stroke-width="2"/></g><text fill="#444444" stroke="none" font-family="helvetica" font-size="10pt" font-style="normal" font-weight="normal" text-decoration="normal" x="97" y="104" text-anchor="start" dominant-baseline="central">plc124_fluc_rep03_TCCTGA.fastqAligned.primary.out_dedup</text><g><path fill="none" stroke="#C51B7D" paint-order="fill stroke markers" d=" M 72 104 L 92 104" stroke-linejoin="bevel" stroke-miterlimit="10" stroke-width="2"/></g><text fill="#444444" stroke="none" font-family="helvetica" font-size="10pt" font-style="normal" font-weight="normal" text-decoration="normal" x="97" y="127" text-anchor="start" dominant-baseline="central">plc124_ut_rep01_TAACCG.fastqAligned.primary.out_dedup</text><g><path fill="none" stroke="#542788" paint-order="fill stroke markers" d=" M 72 127 L 92 127" stroke-linejoin="bevel" stroke-miterlimit="10" stroke-width="2"/></g><text fill="#444444" stroke="none" font-family="helvetica" font-size="10pt" font-style="normal" font-weight="normal" text-decoration="normal" x="97" y="150" text-anchor="start" dominant-baseline="central">plc124_ut_rep02_AGTTAA.fastqAligned.primary.out_dedup</text><g><path fill="none" stroke="#A6CEE3" paint-order="fill stroke markers" d=" M 72 150 L 92 150" stroke-linejoin="bevel" stroke-miterlimit="10" stroke-width="2"/></g><text fill="#444444" stroke="none" font-family="helvetica" font-size="10pt" font-style="normal" font-weight="normal" text-decoration="normal" x="97" y="173" text-anchor="start" dominant-baseline="central">plc124_ut_rep03_GTTCAT.fastqAligned.primary.out_dedup</text><g><path fill="none" stroke="#B2DF8A" paint-order="fill stroke markers" d=" M 72 173 L 92 173" stroke-linejoin="bevel" stroke-miterlimit="10" stroke-width="2"/></g></g></g><g><g fill="#444444"><path fill="" stroke="none" d=""/><g transform="translate(52,23)"><path fill="none" stroke="none"/><text fill="" stroke="none" font-family="helvetica" font-size="10pt" font-style="normal" font-weight="bold" text-decoration="normal" x="0" y="0" text-anchor="start" dominant-baseline="text-after-edge">CGG(ARG)-codon_scaled</text></g></g></g><g/><g><g fill="#444444"><path fill="none" stroke="black" paint-order="fill stroke markers" d=" M 52 555 L 570 555" stroke-linejoin="bevel" stroke-miterlimit="10"/><path fill="none" stroke="black" paint-order="fill stroke markers" d=" M 76 561 L 76 553" stroke-linejoin="bevel" stroke-miterlimit="10"/><path fill="none" stroke="black" paint-order="fill stroke markers" d=" M 149 561 L 149 553" stroke-linejoin="bevel" stroke-miterlimit="10"/><path fill="none" stroke="black" paint-order="fill stroke markers" d=" M 223 561 L 223 553" stroke-linejoin="bevel" stroke-miterlimit="10"/><path fill="none" stroke="black" paint-order="fill stroke markers" d=" M 296 561 L 296 553" stroke-linejoin="bevel" stroke-miterlimit="10"/><path fill="none" stroke="black" paint-order="fill stroke markers" d=" M 370 561 L 370 553" stroke-linejoin="bevel" stroke-miterlimit="10"/><path fill="none" stroke="black" paint-order="fill stroke markers" d=" M 443 561 L 443 553" stroke-linejoin="bevel" stroke-miterlimit="10"/><path fill="none" stroke="black" paint-order="fill stroke markers" d=" M 517 561 L 517 553" stroke-linejoin="bevel" stroke-miterlimit="10"/><path fill="none" stroke="black" paint-order="fill stroke markers" d=" M 61 559 L 61 555" stroke-linejoin="bevel" stroke-miterlimit="10"/><path fill="none" stroke="black" paint-order="fill stroke markers" d=" M 76 559 L 76 555" stroke-linejoin="bevel" stroke-miterlimit="10"/><path fill="none" stroke="black" paint-order="fill stroke markers" d=" M 90 559 L 90 555" stroke-linejoin="bevel" stroke-miterlimit="10"/><path fill="none" stroke="black" paint-order="fill stroke markers" d=" M 105 559 L 105 555" stroke-linejoin="bevel" stroke-miterlimit="10"/><path fill="none" stroke="black" paint-order="fill stroke markers" d=" M 120 559 L 120 555" stroke-linejoin="bevel" stroke-miterlimit="10"/><path fill="none" stroke="black" paint-order="fill stroke markers" d=" M 134 559 L 134 555" stroke-linejoin="bevel" stroke-miterlimit="10"/><path fill="none" stroke="black" paint-order="fill stroke markers" d=" M 149 559 L 149 555" stroke-linejoin="bevel" stroke-miterlimit="10"/><path fill="none" stroke="black" paint-order="fill stroke markers" d=" M 164 559 L 164 555" stroke-linejoin="bevel" stroke-miterlimit="10"/><path fill="none" stroke="black" paint-order="fill stroke markers" d=" M 179 559 L 179 555" stroke-linejoin="bevel" stroke-miterlimit="10"/><path fill="none" stroke="black" paint-order="fill stroke markers" d=" M 193 559 L 193 555" stroke-linejoin="bevel" stroke-miterlimit="10"/><path fill="none" stroke="black" paint-order="fill stroke markers" d=" M 208 559 L 208 555" stroke-linejoin="bevel" stroke-miterlimit="10"/><path fill="none" stroke="black" paint-order="fill stroke markers" d=" M 223 559 L 223 555" stroke-linejoin="bevel" stroke-miterlimit="10"/><path fill="none" stroke="black" paint-order="fill stroke markers" d=" M 237 559 L 237 555" stroke-linejoin="bevel" stroke-miterlimit="10"/><path fill="none" stroke="black" paint-order="fill stroke markers" d=" M 252 559 L 252 555" stroke-linejoin="bevel" stroke-miterlimit="10"/><path fill="none" stroke="black" paint-order="fill stroke markers" d=" M 267 559 L 267 555" stroke-linejoin="bevel" stroke-miterlimit="10"/><path fill="none" stroke="black" paint-order="fill stroke markers" d=" M 282 559 L 282 555" stroke-linejoin="bevel" stroke-miterlimit="10"/><path fill="none" stroke="black" paint-order="fill stroke markers" d=" M 296 559 L 296 555" stroke-linejoin="bevel" stroke-miterlimit="10"/><path fill="none" stroke="black" paint-order="fill stroke markers" d=" M 311 559 L 311 555" stroke-linejoin="bevel" stroke-miterlimit="10"/><path fill="none" stroke="black" paint-order="fill stroke markers" d=" M 326 559 L 326 555" stroke-linejoin="bevel" stroke-miterlimit="10"/><path fill="none" stroke="black" paint-order="fill stroke markers" d=" M 340 559 L 340 555" stroke-linejoin="bevel" stroke-miterlimit="10"/><path fill="none" stroke="black" paint-order="fill stroke markers" d=" M 355 559 L 355 555" stroke-linejoin="bevel" stroke-miterlimit="10"/><path fill="none" stroke="black" paint-order="fill stroke markers" d=" M 370 559 L 370 555" stroke-linejoin="bevel" stroke-miterlimit="10"/><path fill="none" stroke="black" paint-order="fill stroke markers" d=" M 385 559 L 385 555" stroke-linejoin="bevel" stroke-miterlimit="10"/><path fill="none" stroke="black" paint-order="fill stroke markers" d=" M 399 559 L 399 555" stroke-linejoin="bevel" stroke-miterlimit="10"/><path fill="none" stroke="black" paint-order="fill stroke markers" d=" M 414 559 L 414 555" stroke-linejoin="bevel" stroke-miterlimit="10"/><path fill="none" stroke="black" paint-order="fill stroke markers" d=" M 429 559 L 429 555" stroke-linejoin="bevel" stroke-miterlimit="10"/><path fill="none" stroke="black" paint-order="fill stroke markers" d=" M 443 559 L 443 555" stroke-linejoin="bevel" stroke-miterlimit="10"/><path fill="none" stroke="black" paint-order="fill stroke markers" d=" M 458 559 L 458 555" stroke-linejoin="bevel" stroke-miterlimit="10"/><path fill="none" stroke="black" paint-order="fill stroke markers" d=" M 473 559 L 473 555" stroke-linejoin="bevel" stroke-miterlimit="10"/><path fill="none" stroke="black" paint-order="fill stroke markers" d=" M 488 559 L 488 555" stroke-linejoin="bevel" stroke-miterlimit="10"/><path fill="none" stroke="black" paint-order="fill stroke markers" d=" M 502 559 L 502 555" stroke-linejoin="bevel" stroke-miterlimit="10"/><path fill="none" stroke="black" paint-order="fill stroke markers" d=" M 517 559 L 517 555" stroke-linejoin="bevel" stroke-miterlimit="10"/><path fill="none" stroke="black" paint-order="fill stroke markers" d=" M 532 559 L 532 555" stroke-linejoin="bevel" stroke-miterlimit="10"/><path fill="none" stroke="black" paint-order="fill stroke markers" d=" M 546 559 L 546 555" stroke-linejoin="bevel" stroke-miterlimit="10"/><path fill="" stroke="black" paint-order="fill stroke markers" d=" M 561 559 L 561 555" stroke-linejoin="bevel" stroke-miterlimit="10"/><g transform="translate(76,566) rotate(0,0,0)"><text fill="" stroke="none" font-family="helvetica" font-size="8pt" font-style="normal" font-weight="normal" text-decoration="normal" x="0" y="0" text-anchor="middle" dominant-baseline="hanging">-30</text><g transform="rotate(0,0,0) translate(-76,-566) translate(149,566) rotate(0,0,0)"><text fill="" stroke="none" font-family="helvetica" font-size="8pt" font-style="normal" font-weight="normal" text-decoration="normal" x="0" y="0" text-anchor="middle" dominant-baseline="hanging">-25</text><g transform="rotate(0,0,0) translate(-149,-566) translate(223,566) rotate(0,0,0)"><text fill="" stroke="none" font-family="helvetica" font-size="8pt" font-style="normal" font-weight="normal" text-decoration="normal" x="0" y="0" text-anchor="middle" dominant-baseline="hanging">-20</text><g transform="rotate(0,0,0) translate(-223,-566) translate(296,566) rotate(0,0,0)"><text fill="" stroke="none" font-family="helvetica" font-size="8pt" font-style="normal" font-weight="normal" text-decoration="normal" x="0" y="0" text-anchor="middle" dominant-baseline="hanging">-15</text><g transform="rotate(0,0,0) translate(-296,-566) translate(370,566) rotate(0,0,0)"><text fill="" stroke="none" font-family="helvetica" font-size="8pt" font-style="normal" font-weight="normal" text-decoration="normal" x="0" y="0" text-anchor="middle" dominant-baseline="hanging">-10</text><g transform="rotate(0,0,0) translate(-370,-566) translate(443,566) rotate(0,0,0)"><text fill="" stroke="none" font-family="helvetica" font-size="8pt" font-style="normal" font-weight="normal" text-decoration="normal" x="0" y="0" text-anchor="middle" dominant-baseline="hanging">-5</text><g transform="rotate(0,0,0) translate(-443,-566) translate(517,566) rotate(0,0,0)"><text fill="" stroke="none" font-family="helvetica" font-size="8pt" font-style="normal" font-weight="normal" text-decoration="normal" x="0" y="0" text-anchor="middle" dominant-baseline="hanging">0</text><g transform="rotate(0,0,0) translate(-517,-566) translate(311,584) rotate(0,0,0)"><text fill="" stroke="none" font-family="helvetica" font-size="10pt" font-style="italic" font-weight="normal" text-decoration="normal" x="0" y="0" text-anchor="middle" dominant-baseline="hanging">position from codon</text><g transform="rotate(0,0,0) translate(-311,-584)"/></g></g></g></g></g></g></g></g></g></g><g><g fill="#444444"><path fill="none" stroke="black" paint-order="fill stroke markers" d=" M 52 555 L 52 203" stroke-linejoin="bevel" stroke-miterlimit="10"/><path fill="none" stroke="black" paint-order="fill stroke markers" d=" M 46 525 L 54 525" stroke-linejoin="bevel" stroke-miterlimit="10"/><path fill="none" stroke="black" paint-order="fill stroke markers" d=" M 46 478 L 54 478" stroke-linejoin="bevel" stroke-miterlimit="10"/><path fill="none" stroke="black" paint-order="fill stroke markers" d=" M 46 432 L 54 432" stroke-linejoin="bevel" stroke-miterlimit="10"/><path fill="none" stroke="black" paint-order="fill stroke markers" d=" M 46 385 L 54 385" stroke-linejoin="bevel" stroke-miterlimit="10"/><path fill="none" stroke="black" paint-order="fill stroke markers" d=" M 46 339 L 54 339" stroke-linejoin="bevel" stroke-miterlimit="10"/><path fill="none" stroke="black" paint-order="fill stroke markers" d=" M 46 293 L 54 293" stroke-linejoin="bevel" stroke-miterlimit="10"/><path fill="none" stroke="black" paint-order="fill stroke markers" d=" M 46 246 L 54 246" stroke-linejoin="bevel" stroke-miterlimit="10"/><path fill="none" stroke="black" paint-order="fill stroke markers" d=" M 48 534 L 52 534" stroke-linejoin="bevel" stroke-miterlimit="10"/><path fill="none" stroke="black" paint-order="fill stroke markers" d=" M 48 543 L 52 543" stroke-linejoin="bevel" stroke-miterlimit="10"/><path fill="none" stroke="black" paint-order="fill stroke markers" d=" M 48 552 L 52 552" stroke-linejoin="bevel" stroke-miterlimit="10"/><path fill="none" stroke="black" paint-order="fill stroke markers" d=" M 48 525 L 52 525" stroke-linejoin="bevel" stroke-miterlimit="10"/><path fill="none" stroke="black" paint-order="fill stroke markers" d=" M 48 515 L 52 515" stroke-linejoin="bevel" stroke-miterlimit="10"/><path fill="none" stroke="black" paint-order="fill stroke markers" d=" M 48 506 L 52 506" stroke-linejoin="bevel" stroke-miterlimit="10"/><path fill="none" stroke="black" paint-order="fill stroke markers" d=" M 48 497 L 52 497" stroke-linejoin="bevel" stroke-miterlimit="10"/><path fill="none" stroke="black" paint-order="fill stroke markers" d=" M 48 487 L 52 487" stroke-linejoin="bevel" stroke-miterlimit="10"/><path fill="none" stroke="black" paint-order="fill stroke markers" d=" M 48 478 L 52 478" stroke-linejoin="bevel" stroke-miterlimit="10"/><path fill="none" stroke="black" paint-order="fill stroke markers" d=" M 48 469 L 52 469" stroke-linejoin="bevel" stroke-miterlimit="10"/><path fill="none" stroke="black" paint-order="fill stroke markers" d=" M 48 460 L 52 460" stroke-linejoin="bevel" stroke-miterlimit="10"/><path fill="none" stroke="black" paint-order="fill stroke markers" d=" M 48 450 L 52 450" stroke-linejoin="bevel" stroke-miterlimit="10"/><path fill="none" stroke="black" paint-order="fill stroke markers" d=" M 48 441 L 52 441" stroke-linejoin="bevel" stroke-miterlimit="10"/><path fill="none" stroke="black" paint-order="fill stroke markers" d=" M 48 432 L 52 432" stroke-linejoin="bevel" stroke-miterlimit="10"/><path fill="none" stroke="black" paint-order="fill stroke markers" d=" M 48 423 L 52 423" stroke-linejoin="bevel" stroke-miterlimit="10"/><path fill="none" stroke="black" paint-order="fill stroke markers" d=" M 48 413 L 52 413" stroke-linejoin="bevel" stroke-miterlimit="10"/><path fill="none" stroke="black" paint-order="fill stroke markers" d=" M 48 404 L 52 404" stroke-linejoin="bevel" stroke-miterlimit="10"/><path fill="none" stroke="black" paint-order="fill stroke markers" d=" M 48 395 L 52 395" stroke-linejoin="bevel" stroke-miterlimit="10"/><path fill="none" stroke="black" paint-order="fill stroke markers" d=" M 48 385 L 52 385" stroke-linejoin="bevel" stroke-miterlimit="10"/><path fill="none" stroke="black" paint-order="fill stroke markers" d=" M 48 376 L 52 376" stroke-linejoin="bevel" stroke-miterlimit="10"/><path fill="none" stroke="black" paint-order="fill stroke markers" d=" M 48 367 L 52 367" stroke-linejoin="bevel" stroke-miterlimit="10"/><path fill="none" stroke="black" paint-order="fill stroke markers" d=" M 48 358 L 52 358" stroke-linejoin="bevel" stroke-miterlimit="10"/><path fill="none" stroke="black" paint-order="fill stroke markers" d=" M 48 348 L 52 348" stroke-linejoin="bevel" stroke-miterlimit="10"/><path fill="none" stroke="black" paint-order="fill stroke markers" d=" M 48 339 L 52 339" stroke-linejoin="bevel" stroke-miterlimit="10"/><path fill="none" stroke="black" paint-order="fill stroke markers" d=" M 48 330 L 52 330" stroke-linejoin="bevel" stroke-miterlimit="10"/><path fill="none" stroke="black" paint-order="fill stroke markers" d=" M 48 320 L 52 320" stroke-linejoin="bevel" stroke-miterlimit="10"/><path fill="none" stroke="black" paint-order="fill stroke markers" d=" M 48 311 L 52 311" stroke-linejoin="bevel" stroke-miterlimit="10"/><path fill="none" stroke="black" paint-order="fill stroke markers" d=" M 48 302 L 52 302" stroke-linejoin="bevel" stroke-miterlimit="10"/><path fill="none" stroke="black" paint-order="fill stroke markers" d=" M 48 293 L 52 293" stroke-linejoin="bevel" stroke-miterlimit="10"/><path fill="none" stroke="black" paint-order="fill stroke markers" d=" M 48 283 L 52 283" stroke-linejoin="bevel" stroke-miterlimit="10"/><path fill="none" stroke="black" paint-order="fill stroke markers" d=" M 48 274 L 52 274" stroke-linejoin="bevel" stroke-miterlimit="10"/><path fill="none" stroke="black" paint-order="fill stroke markers" d=" M 48 265 L 52 265" stroke-linejoin="bevel" stroke-miterlimit="10"/><path fill="none" stroke="black" paint-order="fill stroke markers" d=" M 48 256 L 52 256" stroke-linejoin="bevel" stroke-miterlimit="10"/><path fill="none" stroke="black" paint-order="fill stroke markers" d=" M 48 246 L 52 246" stroke-linejoin="bevel" stroke-miterlimit="10"/><path fill="none" stroke="black" paint-order="fill stroke markers" d=" M 48 237 L 52 237" stroke-linejoin="bevel" stroke-miterlimit="10"/><path fill="none" stroke="black" paint-order="fill stroke markers" d=" M 48 228 L 52 228" stroke-linejoin="bevel" stroke-miterlimit="10"/><path fill="none" stroke="black" paint-order="fill stroke markers" d=" M 48 218 L 52 218" stroke-linejoin="bevel" stroke-miterlimit="10"/><path fill="" stroke="black" paint-order="fill stroke markers" d=" M 48 209 L 52 209" stroke-linejoin="bevel" stroke-miterlimit="10"/><g transform="translate(41,525) rotate(0,0,0)"><text fill="" stroke="none" font-family="helvetica" font-size="8pt" font-style="normal" font-weight="normal" text-decoration="normal" x="0" y="0" text-anchor="end" dominant-baseline="central">100</text><g transform="rotate(0,0,0) translate(-41,-525) translate(41,478) rotate(0,0,0)"><text fill="" stroke="none" font-family="helvetica" font-size="8pt" font-style="normal" font-weight="normal" text-decoration="normal" x="0" y="0" text-anchor="end" dominant-baseline="central">200</text><g transform="rotate(0,0,0) translate(-41,-478) translate(41,432) rotate(0,0,0)"><text fill="" stroke="none" font-family="helvetica" font-size="8pt" font-style="normal" font-weight="normal" text-decoration="normal" x="0" y="0" text-anchor="end" dominant-baseline="central">300</text><g transform="rotate(0,0,0) translate(-41,-432) translate(41,385) rotate(0,0,0)"><text fill="" stroke="none" font-family="helvetica" font-size="8pt" font-style="normal" font-weight="normal" text-decoration="normal" x="0" y="0" text-anchor="end" dominant-baseline="central">400</text><g transform="rotate(0,0,0) translate(-41,-385) translate(41,339) rotate(0,0,0)"><text fill="" stroke="none" font-family="helvetica" font-size="8pt" font-style="normal" font-weight="normal" text-decoration="normal" x="0" y="0" text-anchor="end" dominant-baseline="central">500</text><g transform="rotate(0,0,0) translate(-41,-339) translate(41,293) rotate(0,0,0)"><text fill="" stroke="none" font-family="helvetica" font-size="8pt" font-style="normal" font-weight="normal" text-decoration="normal" x="0" y="0" text-anchor="end" dominant-baseline="central">600</text><g transform="rotate(0,0,0) translate(-41,-293) translate(41,246) rotate(0,0,0)"><text fill="" stroke="none" font-family="helvetica" font-size="8pt" font-style="normal" font-weight="normal" text-decoration="normal" x="0" y="0" text-anchor="end" dominant-baseline="central">700</text><g transform="rotate(0,0,0) translate(-41,-246) translate(16,379) rotate(-90,0,0)"><text fill="" stroke="none" font-family="helvetica" font-size="10pt" font-style="italic" font-weight="normal" text-decoration="normal" x="0" y="0" text-anchor="middle" dominant-baseline="alphabetic">5'seq RPM</text><g transform="rotate(90,0,0) translate(-16,-379)"/></g></g></g></g></g></g></g></g></g></g><g clip-path="url(#GHgaAPpmzTMQ)"><g/></g></g></g></svg>