<svg version="1.1" xmlns="http://www.w3.org/2000/svg" xmlns:xlink="http://www.w3.org/1999/xlink" width="600" height="600" style="width: 600px; height: 600px;"><defs><clipPath id="ZBatQiaPgKrq"><path fill="none" stroke="none" d=" M 52 203 L 570 203 L 570 555 L 52 555 L 52 203 Z"/></clipPath><clipPath id="wqiLKdvlKTlm"><path fill="none" stroke="none" d=" M 52 203 L 570 203 L 570 555 L 52 555 L 52 203 Z"/></clipPath><clipPath id="EIgeNHJUBkCW"><path fill="none" stroke="none" d=" M 52 203 L 570 203 L 570 555 L 52 555 L 52 203 Z"/></clipPath><clipPath id="LLTsCEtvxVtL"><path fill="none" stroke="none" d=" M 52 203 L 570 203 L 570 555 L 52 555 L 52 203 Z"/></clipPath><clipPath id="UdcuGPhSzpHf"><path fill="none" stroke="none" d=" M 52 203 L 570 203 L 570 555 L 52 555 L 52 203 Z"/></clipPath><clipPath id="XWNTnUkbzUMP"><path fill="none" stroke="none" d=" M 52 203 L 570 203 L 570 555 L 52 555 L 52 203 Z"/></clipPath><clipPath id="ikVaEhlNmQMs"><path fill="none" stroke="none" d=" M 52 203 L 570 203 L 570 555 L 52 555 L 52 203 Z"/></clipPath><clipPath id="pTmDCwJuLptc"><path fill="none" stroke="none" d=" M 52 203 L 570 203 L 570 555 L 52 555 L 52 203 Z"/></clipPath><clipPath id="NWledatUcoZy"><path fill="none" stroke="none" d=" M 52 203 L 570 203 L 570 555 L 52 555 L 52 203 Z"/></clipPath></defs><g><g/><g/><g/><g transform="scale(1,1) translate(0.5,0.5)"><rect fill="#FFFFFF" stroke="none" x="0" y="0" width="600" height="600"/><rect fill="#ffffff" stroke="none" x="0" y="0" width="600" height="600"/><rect fill="#FFFFFF" stroke="none" x="52" y="203" width="518" height="352"/><rect fill="#ffffff" stroke="none" x="52" y="203" width="518" height="352"/><g><rect fill="none" stroke="#e5e5e5" x="52" y="203" width="518" height="352" stroke-linejoin="bevel" stroke-miterlimit="10"/></g><g clip-path="url(#ZBatQiaPgKrq)"><g><g><path fill="none" stroke="#e5e5e5" paint-order="fill stroke markers" d=" M 76 555 L 76 203" stroke-linejoin="bevel" stroke-miterlimit="10"/><path fill="none" stroke="#e5e5e5" paint-order="fill stroke markers" d=" M 149 555 L 149 203" stroke-linejoin="bevel" stroke-miterlimit="10"/><path fill="none" stroke="#e5e5e5" paint-order="fill stroke markers" d=" M 223 555 L 223 203" stroke-linejoin="bevel" stroke-miterlimit="10"/><path fill="none" stroke="#e5e5e5" paint-order="fill stroke markers" d=" M 296 555 L 296 203" stroke-linejoin="bevel" stroke-miterlimit="10"/><path fill="none" stroke="#e5e5e5" paint-order="fill stroke markers" d=" M 370 555 L 370 203" stroke-linejoin="bevel" stroke-miterlimit="10"/><path fill="none" stroke="#e5e5e5" paint-order="fill stroke markers" d=" M 443 555 L 443 203" stroke-linejoin="bevel" stroke-miterlimit="10"/><path fill="none" stroke="#e5e5e5" paint-order="fill stroke markers" d=" M 517 555 L 517 203" stroke-linejoin="bevel" stroke-miterlimit="10"/></g></g></g><g clip-path="url(#wqiLKdvlKTlm)"><g><g><path fill="none" stroke="#e5e5e5" paint-order="fill stroke markers" d=" M 52 539 L 570 539" stroke-linejoin="bevel" stroke-miterlimit="10"/><path fill="none" stroke="#e5e5e5" paint-order="fill stroke markers" d=" M 52 486 L 570 486" stroke-linejoin="bevel" stroke-miterlimit="10"/><path fill="none" stroke="#e5e5e5" paint-order="fill stroke markers" d=" M 52 432 L 570 432" stroke-linejoin="bevel" stroke-miterlimit="10"/><path fill="none" stroke="#e5e5e5" paint-order="fill stroke markers" d=" M 52 379 L 570 379" stroke-linejoin="bevel" stroke-miterlimit="10"/><path fill="none" stroke="#e5e5e5" paint-order="fill stroke markers" d=" M 52 325 L 570 325" stroke-linejoin="bevel" stroke-miterlimit="10"/><path fill="none" stroke="#e5e5e5" paint-order="fill stroke markers" d=" M 52 272 L 570 272" stroke-linejoin="bevel" stroke-miterlimit="10"/><path fill="none" stroke="#e5e5e5" paint-order="fill stroke markers" d=" M 52 219 L 570 219" stroke-linejoin="bevel" stroke-miterlimit="10"/></g></g></g><g clip-path="url(#EIgeNHJUBkCW)"><g><g><path fill="none" stroke="none"/><path fill="none" stroke="#1F78B4" paint-order="fill stroke markers" d=" M 75.54545454545456 379 L 90.26136363636363 432.33333333333337 L 104.97727272727275 432.33333333333337 L 119.69318181818181 405.6666666666667 L 134.40909090909093 485.6666666666667 L 149.125 539 L 163.84090909090912 459 L 178.5568181818182 379 L 193.27272727272725 405.6666666666667 L 207.98863636363637 379 L 222.70454545454544 405.6666666666667 L 237.42045454545456 405.6666666666667 L 252.13636363636363 245.66666666666669 L 266.85227272727275 325.6666666666667 L 281.5681818181818 405.6666666666667 L 296.2840909090909 379 L 311 272.33333333333337 L 325.7159090909091 405.6666666666667 L 340.4318181818182 219 L 355.14772727272725 379 L 369.8636363636364 459 L 384.57954545454544 405.6666666666667 L 399.2954545454545 432.33333333333337 L 414.0113636363636 299 L 428.72727272727275 272.33333333333337 L 443.4431818181818 299 L 458.1590909090909 379 L 472.875 379 L 487.59090909090907 432.33333333333337 L 502.3068181818182 352.33333333333337 L 517.0227272727273 459 L 531.7386363636364 459 L 546.4545454545454 405.6666666666667" stroke-linejoin="bevel" stroke-miterlimit="10" stroke-width="2"/></g></g></g><g clip-path="url(#LLTsCEtvxVtL)"><g><g><path fill="none" stroke="none"/><path fill="none" stroke="#33A02C" paint-order="fill stroke markers" d=" M 75.54545454545456 383.06806058482266 L 90.26136363636363 392.66387224114123 L 104.97727272727275 398.26142904066046 L 119.69318181818181 400.6603819547401 L 134.40909090909093 390.2649193270616 L 149.125 406.25793875425927 L 163.84090909090912 367.87469212898486 L 178.5568181818182 381.4687586421029 L 193.27272727272725 397.4617780693006 L 207.98863636363637 383.86771155618254 L 222.70454545454544 356.6795785299465 L 237.42045454545456 397.4617780693006 L 252.13636363636363 288.70924596435634 L 266.85227272727275 311.0994731624331 L 281.5681818181818 411.8554955537785 L 296.2840909090909 383.06806058482266 L 311 371.0732960144244 L 325.7159090909091 408.656891668339 L 340.4318181818182 379.86945669938314 L 355.14772727272725 392.66387224114123 L 369.8636363636364 400.6603819547401 L 384.57954545454544 394.263174183861 L 399.2954545454545 395.06282515522093 L 414.0113636363636 361.4774843581058 L 428.72727272727275 349.48271978770754 L 443.4431818181818 385.4670134989023 L 458.1590909090909 410.25619361105873 L 472.875 375.07155087122385 L 487.59090909090907 395.06282515522093 L 502.3068181818182 385.4670134989023 L 517.0227272727273 383.86771155618254 L 531.7386363636364 463.03315772081106 L 546.4545454545454 475.82757326256916" stroke-linejoin="bevel" stroke-miterlimit="10" stroke-width="2"/></g></g></g><g clip-path="url(#UdcuGPhSzpHf)"><g><g><path fill="none" stroke="none"/><path fill="none" stroke="#C51B7D" paint-order="fill stroke markers" d=" M 75.54545454545456 365.229265161856 L 90.26136363636363 389.36408944493155 L 104.97727272727275 418.3258785846223 L 119.69318181818181 377.29667730339384 L 134.40909090909093 403.84498401477697 L 149.125 382.1236421600089 L 163.84090909090912 353.1618530203183 L 178.5568181818182 374.88319487508625 L 193.27272727272725 389.36408944493155 L 207.98863636363637 384.5371245883165 L 222.70454545454544 413.49891372800715 L 237.42045454545456 399.0180191581618 L 252.13636363636363 271.1034504578614 L 266.85227272727275 319.3730990240125 L 281.5681818181818 391.77757187323914 L 296.2840909090909 377.29667730339384 L 311 372.4697124467787 L 325.7159090909091 418.3258785846223 L 340.4318181818182 345.9214057353956 L 355.14772727272725 430.39329072616 L 369.8636363636364 399.0180191581618 L 384.57954545454544 396.60453672985426 L 399.2954545454545 379.71015973170137 L 414.0113636363636 415.9123961563147 L 428.72727272727275 391.77757187323914 L 443.4431818181818 374.88319487508625 L 458.1590909090909 401.4315015864694 L 472.875 394.1910543015467 L 487.59090909090907 377.29667730339384 L 502.3068181818182 420.7393610129298 L 517.0227272727273 348.33488816370317 L 531.7386363636364 420.7393610129298 L 546.4545454545454 435.22025558277517" stroke-linejoin="bevel" stroke-miterlimit="10" stroke-width="2"/></g></g></g><g clip-path="url(#XWNTnUkbzUMP)"><g><g><path fill="none" stroke="none"/><path fill="none" stroke="#542788" paint-order="fill stroke markers" d=" M 75.54545454545456 343.01951338869264 L 90.26136363636363 392.01463504151945 L 104.97727272727275 245.02927008303897 L 119.69318181818181 343.01951338869264 L 134.40909090909093 392.01463504151945 L 149.125 367.51707421510605 L 163.84090909090912 416.5121958679329 L 178.5568181818182 294.02439173586583 L 193.27272727272725 392.01463504151945 L 207.98863636363637 465.5073175207597 L 222.70454545454544 343.01951338869264 L 237.42045454545456 392.01463504151945 L 252.13636363636363 269.52683090945237 L 266.85227272727275 269.52683090945237 L 281.5681818181818 465.5073175207597 L 296.2840909090909 367.51707421510605 L 311 318.52195256227924 L 325.7159090909091 465.5073175207597 L 340.4318181818182 392.01463504151945 L 355.14772727272725 318.52195256227924 L 369.8636363636364 318.52195256227924 L 384.57954545454544 367.51707421510605 L 399.2954545454545 441.0097566943463 L 414.0113636363636 392.01463504151945 L 428.72727272727275 318.52195256227924 L 443.4431818181818 416.5121958679329 L 458.1590909090909 392.01463504151945 L 472.875 318.52195256227924 L 487.59090909090907 392.01463504151945 L 502.3068181818182 294.02439173586583 L 517.0227272727273 392.01463504151945 L 531.7386363636364 367.51707421510605 L 546.4545454545454 490.0048783471732" stroke-linejoin="bevel" stroke-miterlimit="10" stroke-width="2"/></g></g></g><g clip-path="url(#ikVaEhlNmQMs)"><g><g><path fill="none" stroke="none"/><path fill="none" stroke="#A6CEE3" paint-order="fill stroke markers" d=" M 75.54545454545456 397.5180153804115 L 90.26136363636363 399.08135222703675 L 104.97727272727275 396.7363469570988 L 119.69318181818181 406.11636803685053 L 134.40909090909093 408.46137330678846 L 149.125 421.7497365031034 L 163.84090909090912 406.11636803685053 L 178.5568181818182 383.44798376078387 L 193.27272727272725 398.29968380372407 L 207.98863636363637 400.644689073662 L 222.70454545454544 392.04633641722296 L 237.42045454545456 434.25643127610573 L 252.13636363636363 324.8228520123356 L 266.85227272727275 345.92789944177696 L 281.5681818181818 405.33469961353785 L 296.2840909090909 390.48299957059766 L 311 407.67970488347584 L 325.7159090909091 413.1513838466643 L 340.4318181818182 381.88464691415857 L 355.14772727272725 396.7363469570988 L 369.8636363636364 412.3697154233517 L 384.57954545454544 407.67970488347584 L 399.2954545454545 393.6096732638482 L 414.0113636363636 399.8630206503494 L 428.72727272727275 406.11636803685053 L 443.4431818181818 420.9680680797908 L 458.1590909090909 414.7147206932896 L 472.875 390.48299957059766 L 487.59090909090907 410.02471015341376 L 502.3068181818182 399.08135222703675 L 517.0227272727273 392.82800484053564 L 531.7386363636364 445.19978920248275 L 546.4545454545454 456.14314712885977" stroke-linejoin="bevel" stroke-miterlimit="10" stroke-width="2"/></g></g></g><g clip-path="url(#pTmDCwJuLptc)"><g><g><path fill="none" stroke="none"/><path fill="none" stroke="#B2DF8A" paint-order="fill stroke markers" d=" M 75.54545454545456 364.1856232618721 L 90.26136363636363 398.02066392086454 L 104.97727272727275 390.125821100433 L 119.69318181818181 400.2763332981308 L 134.40909090909093 423.9608617594255 L 149.125 422.8330270707924 L 163.84090909090912 385.6144823459007 L 178.5568181818182 398.02066392086454 L 193.27272727272725 386.74231703453376 L 207.98863636363637 377.7196395254691 L 222.70454545454544 394.6371598549653 L 237.42045454545456 401.4041679867638 L 252.13636363636363 287.4928644348224 L 266.85227272727275 320.2000704051818 L 281.5681818181818 408.17117611856236 L 296.2840909090909 370.9526313936706 L 311 360.80211919597286 L 325.7159090909091 412.68251487309465 L 340.4318181818182 373.2083007709367 L 355.14772727272725 388.9979864117999 L 369.8636363636364 391.2536557890661 L 384.57954545454544 392.3814904776992 L 399.2954545454545 410.4268454958285 L 414.0113636363636 405.91550674129616 L 428.72727272727275 374.33613545956985 L 443.4431818181818 384.4866476572676 L 458.1590909090909 405.91550674129616 L 472.875 356.29078044144046 L 487.59090909090907 408.17117611856236 L 502.3068181818182 396.8928292322315 L 517.0227272727273 383.35881296863454 L 531.7386363636364 461.17940648431727 L 546.4545454545454 454.4123983525187" stroke-linejoin="bevel" stroke-miterlimit="10" stroke-width="2"/></g></g></g><g><g/><g><path fill="#ffffff" stroke="#e5e5e5" paint-order="fill stroke markers" d=" M 62 38 L 470.03125 38 L 470.03125 193 L 62 193 L 62 38 Z" fill-opacity="0.95" stroke-linejoin="bevel" stroke-miterlimit="10" stroke-opacity="0.5"/><text fill="#444444" stroke="none" font-family="helvetica" font-size="10pt" font-style="normal" font-weight="normal" text-decoration="normal" x="97" y="58" text-anchor="start" dominant-baseline="central">may478_fluc_rep01_GACTAG.fastqAligned.primary.out_dedup</text><g><path fill="none" stroke="#1F78B4" paint-order="fill stroke markers" d=" M 72 58 L 92 58" stroke-linejoin="bevel" stroke-miterlimit="10" stroke-width="2"/></g><text fill="#444444" stroke="none" font-family="helvetica" font-size="10pt" font-style="normal" font-weight="normal" text-decoration="normal" x="97" y="81" text-anchor="start" dominant-baseline="central">may478_fluc_rep02_TGCACA.fastqAligned.primary.out_dedup</text><g><path fill="none" stroke="#33A02C" paint-order="fill stroke markers" d=" M 72 81 L 92 81" stroke-linejoin="bevel" stroke-miterlimit="10" stroke-width="2"/></g><text fill="#444444" stroke="none" font-family="helvetica" font-size="10pt" font-style="normal" font-weight="normal" text-decoration="normal" x="97" y="104" text-anchor="start" dominant-baseline="central">may478_fluc_rep03_TCCTGA.fastqAligned.primary.out_dedup</text><g><path fill="none" stroke="#C51B7D" paint-order="fill stroke markers" d=" M 72 104 L 92 104" stroke-linejoin="bevel" stroke-miterlimit="10" stroke-width="2"/></g><text fill="#444444" stroke="none" font-family="helvetica" font-size="10pt" font-style="normal" font-weight="normal" text-decoration="normal" x="97" y="127" text-anchor="start" dominant-baseline="central">may478_ut_rep01_TAACCG.fastqAligned.primary.out_dedup</text><g><path fill="none" stroke="#542788" paint-order="fill stroke markers" d=" M 72 127 L 92 127" stroke-linejoin="bevel" stroke-miterlimit="10" stroke-width="2"/></g><text fill="#444444" stroke="none" font-family="helvetica" font-size="10pt" font-style="normal" font-weight="normal" text-decoration="normal" x="97" y="150" text-anchor="start" dominant-baseline="central">may478_ut_rep02_AGTTAA.fastqAligned.primary.out_dedup</text><g><path fill="none" stroke="#A6CEE3" paint-order="fill stroke markers" d=" M 72 150 L 92 150" stroke-linejoin="bevel" stroke-miterlimit="10" stroke-width="2"/></g><text fill="#444444" stroke="none" font-family="helvetica" font-size="10pt" font-style="normal" font-weight="normal" text-decoration="normal" x="97" y="173" text-anchor="start" dominant-baseline="central">may478_ut_rep03_GTTCAT.fastqAligned.primary.out_dedup</text><g><path fill="none" stroke="#B2DF8A" paint-order="fill stroke markers" d=" M 72 173 L 92 173" stroke-linejoin="bevel" stroke-miterlimit="10" stroke-width="2"/></g></g></g><g><g fill="#444444"><path fill="" stroke="none" d=""/><g transform="translate(52,23)"><path fill="none" stroke="none"/><text fill="" stroke="none" font-family="helvetica" font-size="10pt" font-style="normal" font-weight="bold" text-decoration="normal" x="0" y="0" text-anchor="start" dominant-baseline="text-after-edge">CGG(ARG)-codon_scaled</text></g></g></g><g/><g><g fill="#444444"><path fill="none" stroke="black" paint-order="fill stroke markers" d=" M 52 555 L 570 555" stroke-linejoin="bevel" stroke-miterlimit="10"/><path fill="none" stroke="black" paint-order="fill stroke markers" d=" M 76 561 L 76 553" stroke-linejoin="bevel" stroke-miterlimit="10"/><path fill="none" stroke="black" paint-order="fill stroke markers" d=" M 149 561 L 149 553" stroke-linejoin="bevel" stroke-miterlimit="10"/><path fill="none" stroke="black" paint-order="fill stroke markers" d=" M 223 561 L 223 553" stroke-linejoin="bevel" stroke-miterlimit="10"/><path fill="none" stroke="black" paint-order="fill stroke markers" d=" M 296 561 L 296 553" stroke-linejoin="bevel" stroke-miterlimit="10"/><path fill="none" stroke="black" paint-order="fill stroke markers" d=" M 370 561 L 370 553" stroke-linejoin="bevel" stroke-miterlimit="10"/><path fill="none" stroke="black" paint-order="fill stroke markers" d=" M 443 561 L 443 553" stroke-linejoin="bevel" stroke-miterlimit="10"/><path fill="none" stroke="black" paint-order="fill stroke markers" d=" M 517 561 L 517 553" stroke-linejoin="bevel" stroke-miterlimit="10"/><path fill="none" stroke="black" paint-order="fill stroke markers" d=" M 61 559 L 61 555" stroke-linejoin="bevel" stroke-miterlimit="10"/><path fill="none" stroke="black" paint-order="fill stroke markers" d=" M 76 559 L 76 555" stroke-linejoin="bevel" stroke-miterlimit="10"/><path fill="none" stroke="black" paint-order="fill stroke markers" d=" M 90 559 L 90 555" stroke-linejoin="bevel" stroke-miterlimit="10"/><path fill="none" stroke="black" paint-order="fill stroke markers" d=" M 105 559 L 105 555" stroke-linejoin="bevel" stroke-miterlimit="10"/><path fill="none" stroke="black" paint-order="fill stroke markers" d=" M 120 559 L 120 555" stroke-linejoin="bevel" stroke-miterlimit="10"/><path fill="none" stroke="black" paint-order="fill stroke markers" d=" M 134 559 L 134 555" stroke-linejoin="bevel" stroke-miterlimit="10"/><path fill="none" stroke="black" paint-order="fill stroke markers" d=" M 149 559 L 149 555" stroke-linejoin="bevel" stroke-miterlimit="10"/><path fill="none" stroke="black" paint-order="fill stroke markers" d=" M 164 559 L 164 555" stroke-linejoin="bevel" stroke-miterlimit="10"/><path fill="none" stroke="black" paint-order="fill stroke markers" d=" M 179 559 L 179 555" stroke-linejoin="bevel" stroke-miterlimit="10"/><path fill="none" stroke="black" paint-order="fill stroke markers" d=" M 193 559 L 193 555" stroke-linejoin="bevel" stroke-miterlimit="10"/><path fill="none" stroke="black" paint-order="fill stroke markers" d=" M 208 559 L 208 555" stroke-linejoin="bevel" stroke-miterlimit="10"/><path fill="none" stroke="black" paint-order="fill stroke markers" d=" M 223 559 L 223 555" stroke-linejoin="bevel" stroke-miterlimit="10"/><path fill="none" stroke="black" paint-order="fill stroke markers" d=" M 237 559 L 237 555" stroke-linejoin="bevel" stroke-miterlimit="10"/><path fill="none" stroke="black" paint-order="fill stroke markers" d=" M 252 559 L 252 555" stroke-linejoin="bevel" stroke-miterlimit="10"/><path fill="none" stroke="black" paint-order="fill stroke markers" d=" M 267 559 L 267 555" stroke-linejoin="bevel" stroke-miterlimit="10"/><path fill="none" stroke="black" paint-order="fill stroke markers" d=" M 282 559 L 282 555" stroke-linejoin="bevel" stroke-miterlimit="10"/><path fill="none" stroke="black" paint-order="fill stroke markers" d=" M 296 559 L 296 555" stroke-linejoin="bevel" stroke-miterlimit="10"/><path fill="none" stroke="black" paint-order="fill stroke markers" d=" M 311 559 L 311 555" stroke-linejoin="bevel" stroke-miterlimit="10"/><path fill="none" stroke="black" paint-order="fill stroke markers" d=" M 326 559 L 326 555" stroke-linejoin="bevel" stroke-miterlimit="10"/><path fill="none" stroke="black" paint-order="fill stroke markers" d=" M 340 559 L 340 555" stroke-linejoin="bevel" stroke-miterlimit="10"/><path fill="none" stroke="black" paint-order="fill stroke markers" d=" M 355 559 L 355 555" stroke-linejoin="bevel" stroke-miterlimit="10"/><path fill="none" stroke="black" paint-order="fill stroke markers" d=" M 370 559 L 370 555" stroke-linejoin="bevel" stroke-miterlimit="10"/><path fill="none" stroke="black" paint-order="fill stroke markers" d=" M 385 559 L 385 555" stroke-linejoin="bevel" stroke-miterlimit="10"/><path fill="none" stroke="black" paint-order="fill stroke markers" d=" M 399 559 L 399 555" stroke-linejoin="bevel" stroke-miterlimit="10"/><path fill="none" stroke="black" paint-order="fill stroke markers" d=" M 414 559 L 414 555" stroke-linejoin="bevel" stroke-miterlimit="10"/><path fill="none" stroke="black" paint-order="fill stroke markers" d=" M 429 559 L 429 555" stroke-linejoin="bevel" stroke-miterlimit="10"/><path fill="none" stroke="black" paint-order="fill stroke markers" d=" M 443 559 L 443 555" stroke-linejoin="bevel" stroke-miterlimit="10"/><path fill="none" stroke="black" paint-order="fill stroke markers" d=" M 458 559 L 458 555" stroke-linejoin="bevel" stroke-miterlimit="10"/><path fill="none" stroke="black" paint-order="fill stroke markers" d=" M 473 559 L 473 555" stroke-linejoin="bevel" stroke-miterlimit="10"/><path fill="none" stroke="black" paint-order="fill stroke markers" d=" M 488 559 L 488 555" stroke-linejoin="bevel" stroke-miterlimit="10"/><path fill="none" stroke="black" paint-order="fill stroke markers" d=" M 502 559 L 502 555" stroke-linejoin="bevel" stroke-miterlimit="10"/><path fill="none" stroke="black" paint-order="fill stroke markers" d=" M 517 559 L 517 555" stroke-linejoin="bevel" stroke-miterlimit="10"/><path fill="none" stroke="black" paint-order="fill stroke markers" d=" M 532 559 L 532 555" stroke-linejoin="bevel" stroke-miterlimit="10"/><path fill="none" stroke="black" paint-order="fill stroke markers" d=" M 546 559 L 546 555" stroke-linejoin="bevel" stroke-miterlimit="10"/><path fill="" stroke="black" paint-order="fill stroke markers" d=" M 561 559 L 561 555" stroke-linejoin="bevel" stroke-miterlimit="10"/><g transform="translate(76,566) rotate(0,0,0)"><text fill="" stroke="none" font-family="helvetica" font-size="8pt" font-style="normal" font-weight="normal" text-decoration="normal" x="0" y="0" text-anchor="middle" dominant-baseline="hanging">-30</text><g transform="rotate(0,0,0) translate(-76,-566) translate(149,566) rotate(0,0,0)"><text fill="" stroke="none" font-family="helvetica" font-size="8pt" font-style="normal" font-weight="normal" text-decoration="normal" x="0" y="0" text-anchor="middle" dominant-baseline="hanging">-25</text><g transform="rotate(0,0,0) translate(-149,-566) translate(223,566) rotate(0,0,0)"><text fill="" stroke="none" font-family="helvetica" font-size="8pt" font-style="normal" font-weight="normal" text-decoration="normal" x="0" y="0" text-anchor="middle" dominant-baseline="hanging">-20</text><g transform="rotate(0,0,0) translate(-223,-566) translate(296,566) rotate(0,0,0)"><text fill="" stroke="none" font-family="helvetica" font-size="8pt" font-style="normal" font-weight="normal" text-decoration="normal" x="0" y="0" text-anchor="middle" dominant-baseline="hanging">-15</text><g transform="rotate(0,0,0) translate(-296,-566) translate(370,566) rotate(0,0,0)"><text fill="" stroke="none" font-family="helvetica" font-size="8pt" font-style="normal" font-weight="normal" text-decoration="normal" x="0" y="0" text-anchor="middle" dominant-baseline="hanging">-10</text><g transform="rotate(0,0,0) translate(-370,-566) translate(443,566) rotate(0,0,0)"><text fill="" stroke="none" font-family="helvetica" font-size="8pt" font-style="normal" font-weight="normal" text-decoration="normal" x="0" y="0" text-anchor="middle" dominant-baseline="hanging">-5</text><g transform="rotate(0,0,0) translate(-443,-566) translate(517,566) rotate(0,0,0)"><text fill="" stroke="none" font-family="helvetica" font-size="8pt" font-style="normal" font-weight="normal" text-decoration="normal" x="0" y="0" text-anchor="middle" dominant-baseline="hanging">0</text><g transform="rotate(0,0,0) translate(-517,-566) translate(311,584) rotate(0,0,0)"><text fill="" stroke="none" font-family="helvetica" font-size="10pt" font-style="italic" font-weight="normal" text-decoration="normal" x="0" y="0" text-anchor="middle" dominant-baseline="hanging">position from codon</text><g transform="rotate(0,0,0) translate(-311,-584)"/></g></g></g></g></g></g></g></g></g></g><g><g fill="#444444"><path fill="none" stroke="black" paint-order="fill stroke markers" d=" M 52 555 L 52 203" stroke-linejoin="bevel" stroke-miterlimit="10"/><path fill="none" stroke="black" paint-order="fill stroke markers" d=" M 46 539 L 54 539" stroke-linejoin="bevel" stroke-miterlimit="10"/><path fill="none" stroke="black" paint-order="fill stroke markers" d=" M 46 486 L 54 486" stroke-linejoin="bevel" stroke-miterlimit="10"/><path fill="none" stroke="black" paint-order="fill stroke markers" d=" M 46 432 L 54 432" stroke-linejoin="bevel" stroke-miterlimit="10"/><path fill="none" stroke="black" paint-order="fill stroke markers" d=" M 46 379 L 54 379" stroke-linejoin="bevel" stroke-miterlimit="10"/><path fill="none" stroke="black" paint-order="fill stroke markers" d=" M 46 325 L 54 325" stroke-linejoin="bevel" stroke-miterlimit="10"/><path fill="none" stroke="black" paint-order="fill stroke markers" d=" M 46 272 L 54 272" stroke-linejoin="bevel" stroke-miterlimit="10"/><path fill="none" stroke="black" paint-order="fill stroke markers" d=" M 46 219 L 54 219" stroke-linejoin="bevel" stroke-miterlimit="10"/><path fill="none" stroke="black" paint-order="fill stroke markers" d=" M 48 550 L 52 550" stroke-linejoin="bevel" stroke-miterlimit="10"/><path fill="none" stroke="black" paint-order="fill stroke markers" d=" M 48 539 L 52 539" stroke-linejoin="bevel" stroke-miterlimit="10"/><path fill="none" stroke="black" paint-order="fill stroke markers" d=" M 48 528 L 52 528" stroke-linejoin="bevel" stroke-miterlimit="10"/><path fill="none" stroke="black" paint-order="fill stroke markers" d=" M 48 518 L 52 518" stroke-linejoin="bevel" stroke-miterlimit="10"/><path fill="none" stroke="black" paint-order="fill stroke markers" d=" M 48 507 L 52 507" stroke-linejoin="bevel" stroke-miterlimit="10"/><path fill="none" stroke="black" paint-order="fill stroke markers" d=" M 48 496 L 52 496" stroke-linejoin="bevel" stroke-miterlimit="10"/><path fill="none" stroke="black" paint-order="fill stroke markers" d=" M 48 486 L 52 486" stroke-linejoin="bevel" stroke-miterlimit="10"/><path fill="none" stroke="black" paint-order="fill stroke markers" d=" M 48 475 L 52 475" stroke-linejoin="bevel" stroke-miterlimit="10"/><path fill="none" stroke="black" paint-order="fill stroke markers" d=" M 48 464 L 52 464" stroke-linejoin="bevel" stroke-miterlimit="10"/><path fill="none" stroke="black" paint-order="fill stroke markers" d=" M 48 454 L 52 454" stroke-linejoin="bevel" stroke-miterlimit="10"/><path fill="none" stroke="black" paint-order="fill stroke markers" d=" M 48 443 L 52 443" stroke-linejoin="bevel" stroke-miterlimit="10"/><path fill="none" stroke="black" paint-order="fill stroke markers" d=" M 48 432 L 52 432" stroke-linejoin="bevel" stroke-miterlimit="10"/><path fill="none" stroke="black" paint-order="fill stroke markers" d=" M 48 422 L 52 422" stroke-linejoin="bevel" stroke-miterlimit="10"/><path fill="none" stroke="black" paint-order="fill stroke markers" d=" M 48 411 L 52 411" stroke-linejoin="bevel" stroke-miterlimit="10"/><path fill="none" stroke="black" paint-order="fill stroke markers" d=" M 48 400 L 52 400" stroke-linejoin="bevel" stroke-miterlimit="10"/><path fill="none" stroke="black" paint-order="fill stroke markers" d=" M 48 389 L 52 389" stroke-linejoin="bevel" stroke-miterlimit="10"/><path fill="none" stroke="black" paint-order="fill stroke markers" d=" M 48 379 L 52 379" stroke-linejoin="bevel" stroke-miterlimit="10"/><path fill="none" stroke="black" paint-order="fill stroke markers" d=" M 48 368 L 52 368" stroke-linejoin="bevel" stroke-miterlimit="10"/><path fill="none" stroke="black" paint-order="fill stroke markers" d=" M 48 357 L 52 357" stroke-linejoin="bevel" stroke-miterlimit="10"/><path fill="none" stroke="black" paint-order="fill stroke markers" d=" M 48 347 L 52 347" stroke-linejoin="bevel" stroke-miterlimit="10"/><path fill="none" stroke="black" paint-order="fill stroke markers" d=" M 48 336 L 52 336" stroke-linejoin="bevel" stroke-miterlimit="10"/><path fill="none" stroke="black" paint-order="fill stroke markers" d=" M 48 325 L 52 325" stroke-linejoin="bevel" stroke-miterlimit="10"/><path fill="none" stroke="black" paint-order="fill stroke markers" d=" M 48 315 L 52 315" stroke-linejoin="bevel" stroke-miterlimit="10"/><path fill="none" stroke="black" paint-order="fill stroke markers" d=" M 48 304 L 52 304" stroke-linejoin="bevel" stroke-miterlimit="10"/><path fill="none" stroke="black" paint-order="fill stroke markers" d=" M 48 293 L 52 293" stroke-linejoin="bevel" stroke-miterlimit="10"/><path fill="none" stroke="black" paint-order="fill stroke markers" d=" M 48 283 L 52 283" stroke-linejoin="bevel" stroke-miterlimit="10"/><path fill="none" stroke="black" paint-order="fill stroke markers" d=" M 48 272 L 52 272" stroke-linejoin="bevel" stroke-miterlimit="10"/><path fill="none" stroke="black" paint-order="fill stroke markers" d=" M 48 261 L 52 261" stroke-linejoin="bevel" stroke-miterlimit="10"/><path fill="none" stroke="black" paint-order="fill stroke markers" d=" M 48 251 L 52 251" stroke-linejoin="bevel" stroke-miterlimit="10"/><path fill="none" stroke="black" paint-order="fill stroke markers" d=" M 48 240 L 52 240" stroke-linejoin="bevel" stroke-miterlimit="10"/><path fill="none" stroke="black" paint-order="fill stroke markers" d=" M 48 229 L 52 229" stroke-linejoin="bevel" stroke-miterlimit="10"/><path fill="none" stroke="black" paint-order="fill stroke markers" d=" M 48 219 L 52 219" stroke-linejoin="bevel" stroke-miterlimit="10"/><path fill="" stroke="black" paint-order="fill stroke markers" d=" M 48 208 L 52 208" stroke-linejoin="bevel" stroke-miterlimit="10"/><g transform="translate(41,539) rotate(0,0,0)"><text fill="" stroke="none" font-family="helvetica" font-size="8pt" font-style="normal" font-weight="normal" text-decoration="normal" x="0" y="0" text-anchor="end" dominant-baseline="central">0</text><g transform="rotate(0,0,0) translate(-41,-539) translate(41,486) rotate(0,0,0)"><text fill="" stroke="none" font-family="helvetica" font-size="8pt" font-style="normal" font-weight="normal" text-decoration="normal" x="0" y="0" text-anchor="end" dominant-baseline="central">100</text><g transform="rotate(0,0,0) translate(-41,-486) translate(41,432) rotate(0,0,0)"><text fill="" stroke="none" font-family="helvetica" font-size="8pt" font-style="normal" font-weight="normal" text-decoration="normal" x="0" y="0" text-anchor="end" dominant-baseline="central">200</text><g transform="rotate(0,0,0) translate(-41,-432) translate(41,379) rotate(0,0,0)"><text fill="" stroke="none" font-family="helvetica" font-size="8pt" font-style="normal" font-weight="normal" text-decoration="normal" x="0" y="0" text-anchor="end" dominant-baseline="central">300</text><g transform="rotate(0,0,0) translate(-41,-379) translate(41,325) rotate(0,0,0)"><text fill="" stroke="none" font-family="helvetica" font-size="8pt" font-style="normal" font-weight="normal" text-decoration="normal" x="0" y="0" text-anchor="end" dominant-baseline="central">400</text><g transform="rotate(0,0,0) translate(-41,-325) translate(41,272) rotate(0,0,0)"><text fill="" stroke="none" font-family="helvetica" font-size="8pt" font-style="normal" font-weight="normal" text-decoration="normal" x="0" y="0" text-anchor="end" dominant-baseline="central">500</text><g transform="rotate(0,0,0) translate(-41,-272) translate(41,219) rotate(0,0,0)"><text fill="" stroke="none" font-family="helvetica" font-size="8pt" font-style="normal" font-weight="normal" text-decoration="normal" x="0" y="0" text-anchor="end" dominant-baseline="central">600</text><g transform="rotate(0,0,0) translate(-41,-219) translate(16,379) rotate(-90,0,0)"><text fill="" stroke="none" font-family="helvetica" font-size="10pt" font-style="italic" font-weight="normal" text-decoration="normal" x="0" y="0" text-anchor="middle" dominant-baseline="alphabetic">5'seq RPM</text><g transform="rotate(90,0,0) translate(-16,-379)"/></g></g></g></g></g></g></g></g></g></g><g clip-path="url(#NWledatUcoZy)"><g/></g></g></g></svg>