<svg version="1.1" xmlns="http://www.w3.org/2000/svg" xmlns:xlink="http://www.w3.org/1999/xlink" width="600" height="600" style="width: 600px; height: 600px;"><defs><clipPath id="mgGyxPbQBVWo"><path fill="none" stroke="none" d=" M 52 28 L 570 28 L 570 555 L 52 555 L 52 28 Z"/></clipPath><clipPath id="xCKbUgWeMvIB"><path fill="none" stroke="none" d=" M 52 28 L 570 28 L 570 555 L 52 555 L 52 28 Z"/></clipPath><clipPath id="AcPaFqLliyfu"><path fill="none" stroke="none" d=" M 52 28 L 570 28 L 570 555 L 52 555 L 52 28 Z"/></clipPath><clipPath id="XvDcgimInnGt"><path fill="none" stroke="none" d=" M 52 28 L 570 28 L 570 555 L 52 555 L 52 28 Z"/></clipPath></defs><g><g transform="scale(1,1) translate(0.5,0.5)"><rect fill="#FFFFFF" stroke="none" x="0" y="0" width="600" height="600"/><rect fill="#ffffff" stroke="none" x="0" y="0" width="600" height="600"/><rect fill="#FFFFFF" stroke="none" x="52" y="28" width="518" height="527"/><rect fill="#ffffff" stroke="none" x="52" y="28" width="518" height="527"/><g><rect fill="none" stroke="#e5e5e5" x="52" y="28" width="518" height="527" stroke-linejoin="bevel" stroke-miterlimit="10"/></g><g clip-path="url(#mgGyxPbQBVWo)"><g><g><path fill="none" stroke="#e5e5e5" paint-order="fill stroke markers" d=" M 68 555 L 68 28" stroke-linejoin="bevel" stroke-miterlimit="10"/><path fill="none" stroke="#e5e5e5" paint-order="fill stroke markers" d=" M 187 555 L 187 28" stroke-linejoin="bevel" stroke-miterlimit="10"/><path fill="none" stroke="#e5e5e5" paint-order="fill stroke markers" d=" M 305 555 L 305 28" stroke-linejoin="bevel" stroke-miterlimit="10"/><path fill="none" stroke="#e5e5e5" paint-order="fill stroke markers" d=" M 423 555 L 423 28" stroke-linejoin="bevel" stroke-miterlimit="10"/><path fill="none" stroke="#e5e5e5" paint-order="fill stroke markers" d=" M 542 555 L 542 28" stroke-linejoin="bevel" stroke-miterlimit="10"/></g></g></g><g clip-path="url(#xCKbUgWeMvIB)"><g><g><path fill="none" stroke="#e5e5e5" paint-order="fill stroke markers" d=" M 52 448 L 570 448" stroke-linejoin="bevel" stroke-miterlimit="10"/><path fill="none" stroke="#e5e5e5" paint-order="fill stroke markers" d=" M 52 332 L 570 332" stroke-linejoin="bevel" stroke-miterlimit="10"/><path fill="none" stroke="#e5e5e5" paint-order="fill stroke markers" d=" M 52 215 L 570 215" stroke-linejoin="bevel" stroke-miterlimit="10"/><path fill="none" stroke="#e5e5e5" paint-order="fill stroke markers" d=" M 52 99 L 570 99" stroke-linejoin="bevel" stroke-miterlimit="10"/></g></g></g><g clip-path="url(#AcPaFqLliyfu)"><g><g><path fill="none" stroke="none"/><path fill="none" stroke="rgb(216,179,101)" paint-order="fill stroke markers" d=" M 75.54545454545459 275.2953319049609 L 77.9118318867063 262.7616498017795 L 80.278209227958 296.6152323271533 L 82.64458656920971 293.6631464169397 L 85.01096391046144 270.9072984851278 L 87.37734125171315 308.2178288343644 L 89.74371859296485 305.1748920437845 L 92.11009593421659 271.67631679461647 L 94.4764732754683 304.2687072969528 L 96.84285061672 298.5630124635477 L 99.2092279579717 289.9038937421041 L 101.57560529922341 296.76904764801156 L 103.94198264047515 271.22547084505015 L 106.30835998172685 254.62312351014896 L 108.67473732297856 288.15075064682173 L 111.04111466423029 320.81855601421927 L 113.407492005482 269.84570360616533 L 115.7738693467337 283.43669087557595 L 118.14024668798541 326.5628069179543 L 120.50662402923712 263.8518934372657 L 122.87300137048885 261.6898049028349 L 125.23937871174056 305.1792098949705 L 127.60575605299226 305.7270376565551 L 129.972133394244 313.3551301724623 L 132.3385107354957 341.6254506267346 L 134.7048880767474 317.22005574175057 L 137.07126541799911 339.8783268061362 L 139.43764275925082 330.2758102900985 L 141.80402010050256 333.76124151503546 L 144.17039744175426 341.8979186282645 L 146.53677478300597 365.19936073387873 L 148.9031521242577 332.0687686234468 L 151.2695294655094 344.618690313366 L 153.6359068067611 353.5402330660635 L 156.00228414801282 332.7093442006952 L 158.36866148926453 367.6064543641269 L 160.73503883051626 350.1396652847395 L 163.10141617176797 335.23268887785355 L 165.46779351301967 359.40277129900534 L 167.8341708542714 360.9636497274305 L 170.2005481955231 360.4038546034004 L 172.56692553677482 345.309974969915 L 174.93330287802652 360.90719995533914 L 177.29968021927823 324.6503015271361 L 179.66605756052996 372.47931904291136 L 182.03243490178167 352.605159881385 L 184.39881224303338 276.0545119575635 L 186.7651895842851 290.82500195839975 L 189.13156692553682 370.5488769018622 L 191.49794426678852 232.44890468436222 L 193.86432160804023 229.63301863882248 L 196.23069894929193 367.6369887333038 L 198.59707629054367 335.71178336770276 L 200.96345363179537 373.10209620797957 L 203.32983097304708 383.42994625370716 L 205.69620831429881 366.06748301041097 L 208.06258565555052 397.0195676310509 L 210.42896299680223 400.8543822532189 L 212.79534033805393 379.848744067065 L 215.16171767930564 400.7091756173336 L 217.52809502055737 399.4437652926962 L 219.89447236180908 401.0538152750035 L 222.26084970306079 420.87808753815665 L 224.62722704431252 400.83910015861363 L 226.99360438556423 412.0587661791768 L 229.35998172681593 415.00872746804663 L 231.72635906806764 408.4266759930322 L 234.09273640931934 393.63195665434114 L 236.45911375057108 400.5703753560425 L 238.82549109182278 416.885535812286 L 241.1918684330745 422.1613781119087 L 243.55824577432622 440.6657266747278 L 245.92462311557793 430.9068786323621 L 248.29100045682964 430.0885786814987 L 250.65737779808134 441.348803535177 L 253.02375513933305 423.19311910140925 L 255.39013248058478 422.26651615154765 L 257.7565098218365 429.63852655019616 L 260.1228871630882 434.183560429217 L 262.4892645043399 88.06014790631087 L 264.8556418455916 51.95454545454538 L 267.22201918684334 409.2540022214449 L 269.5883965280951 411.43610515529224 L 271.95477386934675 419.612028571735 L 274.3211512105985 441.48795278054587 L 276.68752855185016 447.66735084350876 L 279.0539058931019 449.743157801148 L 281.42028323435363 443.9553861277992 L 283.7866605756053 461.4862527420919 L 286.15303791685704 461.59709414342683 L 288.5194152581088 461.3746818709868 L 290.88579259936046 465.84962869358736 L 293.2521699406122 472.12323384807047 L 295.6185472818639 468.136709804788 L 297.9849246231156 465.6922645645158 L 300.35130196436734 480.3811875807203 L 302.717679305619 466.30544831086877 L 305.08405664687075 490.64638820210075 L 307.4504339881225 478.4399702059386 L 309.81681132937416 445.70495507905025 L 312.1831886706259 431.6624025918936 L 314.5495660118776 468.11347416910655 L 316.9159433531293 454.2787650742733 L 319.28232069438104 477.9800707372134 L 321.6486980356327 468.14002038904835 L 324.01507537688445 470.270391281915 L 326.3814527181362 467.41448271544397 L 328.74783005938787 468.1963333925643 L 331.1142074006396 471.4615835786306 L 333.48058474189133 476.38899750683646 L 335.846962083143 480.1780791837375 L 338.21333942439475 483.64505472259503 L 340.5797167656464 479.53428506075363 L 342.94609410689816 492.0593840389908 L 345.3124714481499 477.8315419702126 L 347.67884878940157 473.16364574103517 L 350.0452261306533 484.4279202898075 L 352.411603471905 482.5631267285934 L 354.7779808131567 483.13173591467023 L 357.14435815440845 493.896789692998 L 359.51073549566013 492.7997364398312 L 361.87711283691186 484.76454912054714 L 364.2434901781636 497.71171334378334 L 366.6098675194153 499.2883187009997 L 368.976244860667 494.3251756640736 L 371.34262220191874 497.97410665816045 L 373.7089995431704 503.10338438931365 L 376.07537688442216 503.3091580919342 L 378.4417542256739 501.7958595450696 L 380.80813156692557 496.763692322922 L 383.17450890817724 485.5908431946377 L 385.540886249429 503.8063508758808 L 387.9072635906807 511.7462936803692 L 390.2736409319324 510.33137994447384 L 392.6400182731841 505.1706271678196 L 395.00639561443586 503.5114820875059 L 397.37277295568754 510.98444697686415 L 399.7391502969393 511.4597785372059 L 402.105527638191 512.9763265708935 L 404.4719049794427 507.55402396081354 L 406.8382823206944 490.04839092445576 L 409.20465966194615 491.6711198021163 L 411.57103700319783 503.7434289233316 L 413.93741434444956 510.46698262373724 L 416.3037916857013 504.234346271779 L 418.670169026953 513.2278434203714 L 421.03654636820465 505.8680897281788 L 423.4029237094564 513.5709334452408 L 425.7693010507081 514.1198929107335 L 428.1356783919598 518.7562498580216 L 430.50205573321153 516.2937315473647 L 432.86843307446327 508.7003610974629 L 435.23481041571495 506.8087582049577 L 437.6011877569667 517.3403553120726 L 439.9675650982184 511.0534462746891 L 442.3339424394701 512.6932566505635 L 444.7003197807218 504.53472033162654 L 447.06669712197356 511.2039295991576 L 449.43307446322524 505.146719011906 L 451.799451804477 498.73840297653373 L 454.1658291457287 520.525841168172 L 456.5322064869804 511.86312307898436 L 458.89858382823206 511.6866533888898 L 461.2649611694838 512.3838140494348 L 463.63133851073553 514.520443786203 L 465.9977158519872 508.8680517023923 L 468.36409319323894 525.9706785310375 L 470.7304705344907 517.7298834251095 L 473.09684787574236 504.8711608253117 L 475.4632252169941 520.6994890535047 L 477.8296025582458 520.1654717790761 L 480.1959798994975 526.259254283367 L 482.56235724074924 497.4743015944253 L 484.92873458200097 513.4188852416388 L 487.29511192325265 499.09594383454447 L 489.6614892645044 519.542235990859 L 492.0278666057561 520.7923401182325 L 494.3942439470078 514.7768110995728 L 496.7606212882595 527.8269773063544 L 499.1269986295112 531.0454545454545 L 501.49337597076294 512.4027016775805 L 503.8597533120146 510.3192958803178 L 506.22613065326635 507.3836199570342 L 508.5925079945181 497.4064316462952 L 510.95888533576976 511.19446924953985 L 513.3252626770216 508.4759626538353 L 515.6916400182732 486.081652585595 L 518.0580173595249 508.95826346993255 L 520.4243947007767 522.9035931184832 L 522.7907720420284 504.14258531985985 L 525.1571493832801 523.9793319981356 L 527.5235267245318 520.9651565178906 L 529.8899040657835 517.1181916893868 L 532.2562814070352 514.2849724690336 L 534.6226587482869 514.1912733270336 L 536.9890360895386 528.31133503214 L 539.3554134307903 528.6001855547795 L 541.721790772042 526.2397754113966 L 544.0881681132937 519.7939428589723 L 546.4545454545455 513.0656917185314" stroke-linejoin="bevel" stroke-miterlimit="10" stroke-width="2"/></g></g></g><g><g fill="#444444"><path fill="" stroke="none" d=""/><g transform="translate(52,23)"><path fill="none" stroke="none"/><text fill="" stroke="none" font-family="helvetica" font-size="10pt" font-style="normal" font-weight="bold" text-decoration="normal" x="0" y="0" text-anchor="start" dominant-baseline="text-after-edge">combined-weighted-metagene_counts-STOP_combined_weighted_raw</text></g></g></g><g/><g><g fill="#444444"><path fill="none" stroke="black" paint-order="fill stroke markers" d=" M 52 555 L 570 555" stroke-linejoin="bevel" stroke-miterlimit="10"/><path fill="none" stroke="black" paint-order="fill stroke markers" d=" M 68 561 L 68 553" stroke-linejoin="bevel" stroke-miterlimit="10"/><path fill="none" stroke="black" paint-order="fill stroke markers" d=" M 187 561 L 187 553" stroke-linejoin="bevel" stroke-miterlimit="10"/><path fill="none" stroke="black" paint-order="fill stroke markers" d=" M 305 561 L 305 553" stroke-linejoin="bevel" stroke-miterlimit="10"/><path fill="none" stroke="black" paint-order="fill stroke markers" d=" M 423 561 L 423 553" stroke-linejoin="bevel" stroke-miterlimit="10"/><path fill="none" stroke="black" paint-order="fill stroke markers" d=" M 542 561 L 542 553" stroke-linejoin="bevel" stroke-miterlimit="10"/><path fill="none" stroke="black" paint-order="fill stroke markers" d=" M 68 559 L 68 555" stroke-linejoin="bevel" stroke-miterlimit="10"/><path fill="none" stroke="black" paint-order="fill stroke markers" d=" M 92 559 L 92 555" stroke-linejoin="bevel" stroke-miterlimit="10"/><path fill="none" stroke="black" paint-order="fill stroke markers" d=" M 116 559 L 116 555" stroke-linejoin="bevel" stroke-miterlimit="10"/><path fill="none" stroke="black" paint-order="fill stroke markers" d=" M 139 559 L 139 555" stroke-linejoin="bevel" stroke-miterlimit="10"/><path fill="none" stroke="black" paint-order="fill stroke markers" d=" M 163 559 L 163 555" stroke-linejoin="bevel" stroke-miterlimit="10"/><path fill="none" stroke="black" paint-order="fill stroke markers" d=" M 187 559 L 187 555" stroke-linejoin="bevel" stroke-miterlimit="10"/><path fill="none" stroke="black" paint-order="fill stroke markers" d=" M 210 559 L 210 555" stroke-linejoin="bevel" stroke-miterlimit="10"/><path fill="none" stroke="black" paint-order="fill stroke markers" d=" M 234 559 L 234 555" stroke-linejoin="bevel" stroke-miterlimit="10"/><path fill="none" stroke="black" paint-order="fill stroke markers" d=" M 258 559 L 258 555" stroke-linejoin="bevel" stroke-miterlimit="10"/><path fill="none" stroke="black" paint-order="fill stroke markers" d=" M 281 559 L 281 555" stroke-linejoin="bevel" stroke-miterlimit="10"/><path fill="none" stroke="black" paint-order="fill stroke markers" d=" M 305 559 L 305 555" stroke-linejoin="bevel" stroke-miterlimit="10"/><path fill="none" stroke="black" paint-order="fill stroke markers" d=" M 329 559 L 329 555" stroke-linejoin="bevel" stroke-miterlimit="10"/><path fill="none" stroke="black" paint-order="fill stroke markers" d=" M 352 559 L 352 555" stroke-linejoin="bevel" stroke-miterlimit="10"/><path fill="none" stroke="black" paint-order="fill stroke markers" d=" M 376 559 L 376 555" stroke-linejoin="bevel" stroke-miterlimit="10"/><path fill="none" stroke="black" paint-order="fill stroke markers" d=" M 400 559 L 400 555" stroke-linejoin="bevel" stroke-miterlimit="10"/><path fill="none" stroke="black" paint-order="fill stroke markers" d=" M 423 559 L 423 555" stroke-linejoin="bevel" stroke-miterlimit="10"/><path fill="none" stroke="black" paint-order="fill stroke markers" d=" M 447 559 L 447 555" stroke-linejoin="bevel" stroke-miterlimit="10"/><path fill="none" stroke="black" paint-order="fill stroke markers" d=" M 471 559 L 471 555" stroke-linejoin="bevel" stroke-miterlimit="10"/><path fill="none" stroke="black" paint-order="fill stroke markers" d=" M 494 559 L 494 555" stroke-linejoin="bevel" stroke-miterlimit="10"/><path fill="none" stroke="black" paint-order="fill stroke markers" d=" M 518 559 L 518 555" stroke-linejoin="bevel" stroke-miterlimit="10"/><path fill="none" stroke="black" paint-order="fill stroke markers" d=" M 542 559 L 542 555" stroke-linejoin="bevel" stroke-miterlimit="10"/><path fill="" stroke="black" paint-order="fill stroke markers" d=" M 565 559 L 565 555" stroke-linejoin="bevel" stroke-miterlimit="10"/><g transform="translate(68,566) rotate(0,0,0)"><text fill="" stroke="none" font-family="helvetica" font-size="8pt" font-style="normal" font-weight="normal" text-decoration="normal" x="0" y="0" text-anchor="middle" dominant-baseline="hanging">-100</text><g transform="rotate(0,0,0) translate(-68,-566) translate(187,566) rotate(0,0,0)"><text fill="" stroke="none" font-family="helvetica" font-size="8pt" font-style="normal" font-weight="normal" text-decoration="normal" x="0" y="0" text-anchor="middle" dominant-baseline="hanging">-50</text><g transform="rotate(0,0,0) translate(-187,-566) translate(305,566) rotate(0,0,0)"><text fill="" stroke="none" font-family="helvetica" font-size="8pt" font-style="normal" font-weight="normal" text-decoration="normal" x="0" y="0" text-anchor="middle" dominant-baseline="hanging">0</text><g transform="rotate(0,0,0) translate(-305,-566) translate(423,566) rotate(0,0,0)"><text fill="" stroke="none" font-family="helvetica" font-size="8pt" font-style="normal" font-weight="normal" text-decoration="normal" x="0" y="0" text-anchor="middle" dominant-baseline="hanging">50</text><g transform="rotate(0,0,0) translate(-423,-566) translate(542,566) rotate(0,0,0)"><text fill="" stroke="none" font-family="helvetica" font-size="8pt" font-style="normal" font-weight="normal" text-decoration="normal" x="0" y="0" text-anchor="middle" dominant-baseline="hanging">100</text><g transform="rotate(0,0,0) translate(-542,-566) translate(311,584) rotate(0,0,0)"><text fill="" stroke="none" font-family="helvetica" font-size="10pt" font-style="italic" font-weight="normal" text-decoration="normal" x="0" y="0" text-anchor="middle" dominant-baseline="hanging">position from STOP</text><g transform="rotate(0,0,0) translate(-311,-584)"/></g></g></g></g></g></g></g></g><g><g fill="#444444"><path fill="none" stroke="black" paint-order="fill stroke markers" d=" M 52 555 L 52 28" stroke-linejoin="bevel" stroke-miterlimit="10"/><path fill="none" stroke="black" paint-order="fill stroke markers" d=" M 46 448 L 54 448" stroke-linejoin="bevel" stroke-miterlimit="10"/><path fill="none" stroke="black" paint-order="fill stroke markers" d=" M 46 332 L 54 332" stroke-linejoin="bevel" stroke-miterlimit="10"/><path fill="none" stroke="black" paint-order="fill stroke markers" d=" M 46 215 L 54 215" stroke-linejoin="bevel" stroke-miterlimit="10"/><path fill="none" stroke="black" paint-order="fill stroke markers" d=" M 46 99 L 54 99" stroke-linejoin="bevel" stroke-miterlimit="10"/><path fill="none" stroke="black" paint-order="fill stroke markers" d=" M 48 472 L 52 472" stroke-linejoin="bevel" stroke-miterlimit="10"/><path fill="none" stroke="black" paint-order="fill stroke markers" d=" M 48 495 L 52 495" stroke-linejoin="bevel" stroke-miterlimit="10"/><path fill="none" stroke="black" paint-order="fill stroke markers" d=" M 48 518 L 52 518" stroke-linejoin="bevel" stroke-miterlimit="10"/><path fill="none" stroke="black" paint-order="fill stroke markers" d=" M 48 542 L 52 542" stroke-linejoin="bevel" stroke-miterlimit="10"/><path fill="none" stroke="black" paint-order="fill stroke markers" d=" M 48 448 L 52 448" stroke-linejoin="bevel" stroke-miterlimit="10"/><path fill="none" stroke="black" paint-order="fill stroke markers" d=" M 48 425 L 52 425" stroke-linejoin="bevel" stroke-miterlimit="10"/><path fill="none" stroke="black" paint-order="fill stroke markers" d=" M 48 402 L 52 402" stroke-linejoin="bevel" stroke-miterlimit="10"/><path fill="none" stroke="black" paint-order="fill stroke markers" d=" M 48 379 L 52 379" stroke-linejoin="bevel" stroke-miterlimit="10"/><path fill="none" stroke="black" paint-order="fill stroke markers" d=" M 48 355 L 52 355" stroke-linejoin="bevel" stroke-miterlimit="10"/><path fill="none" stroke="black" paint-order="fill stroke markers" d=" M 48 332 L 52 332" stroke-linejoin="bevel" stroke-miterlimit="10"/><path fill="none" stroke="black" paint-order="fill stroke markers" d=" M 48 309 L 52 309" stroke-linejoin="bevel" stroke-miterlimit="10"/><path fill="none" stroke="black" paint-order="fill stroke markers" d=" M 48 285 L 52 285" stroke-linejoin="bevel" stroke-miterlimit="10"/><path fill="none" stroke="black" paint-order="fill stroke markers" d=" M 48 262 L 52 262" stroke-linejoin="bevel" stroke-miterlimit="10"/><path fill="none" stroke="black" paint-order="fill stroke markers" d=" M 48 239 L 52 239" stroke-linejoin="bevel" stroke-miterlimit="10"/><path fill="none" stroke="black" paint-order="fill stroke markers" d=" M 48 215 L 52 215" stroke-linejoin="bevel" stroke-miterlimit="10"/><path fill="none" stroke="black" paint-order="fill stroke markers" d=" M 48 192 L 52 192" stroke-linejoin="bevel" stroke-miterlimit="10"/><path fill="none" stroke="black" paint-order="fill stroke markers" d=" M 48 169 L 52 169" stroke-linejoin="bevel" stroke-miterlimit="10"/><path fill="none" stroke="black" paint-order="fill stroke markers" d=" M 48 145 L 52 145" stroke-linejoin="bevel" stroke-miterlimit="10"/><path fill="none" stroke="black" paint-order="fill stroke markers" d=" M 48 122 L 52 122" stroke-linejoin="bevel" stroke-miterlimit="10"/><path fill="none" stroke="black" paint-order="fill stroke markers" d=" M 48 99 L 52 99" stroke-linejoin="bevel" stroke-miterlimit="10"/><path fill="none" stroke="black" paint-order="fill stroke markers" d=" M 48 75 L 52 75" stroke-linejoin="bevel" stroke-miterlimit="10"/><path fill="none" stroke="black" paint-order="fill stroke markers" d=" M 48 52 L 52 52" stroke-linejoin="bevel" stroke-miterlimit="10"/><path fill="" stroke="black" paint-order="fill stroke markers" d=" M 48 29 L 52 29" stroke-linejoin="bevel" stroke-miterlimit="10"/><g transform="translate(41,448) rotate(0,0,0)"><text fill="" stroke="none" font-family="helvetica" font-size="8pt" font-style="normal" font-weight="normal" text-decoration="normal" x="0" y="0" text-anchor="end" dominant-baseline="central">200</text><g transform="rotate(0,0,0) translate(-41,-448) translate(41,332) rotate(0,0,0)"><text fill="" stroke="none" font-family="helvetica" font-size="8pt" font-style="normal" font-weight="normal" text-decoration="normal" x="0" y="0" text-anchor="end" dominant-baseline="central">400</text><g transform="rotate(0,0,0) translate(-41,-332) translate(41,215) rotate(0,0,0)"><text fill="" stroke="none" font-family="helvetica" font-size="8pt" font-style="normal" font-weight="normal" text-decoration="normal" x="0" y="0" text-anchor="end" dominant-baseline="central">600</text><g transform="rotate(0,0,0) translate(-41,-215) translate(41,99) rotate(0,0,0)"><text fill="" stroke="none" font-family="helvetica" font-size="8pt" font-style="normal" font-weight="normal" text-decoration="normal" x="0" y="0" text-anchor="end" dominant-baseline="central">800</text><g transform="rotate(0,0,0) translate(-41,-99) translate(16,292) rotate(-90,0,0)"><text fill="" stroke="none" font-family="helvetica" font-size="10pt" font-style="italic" font-weight="normal" text-decoration="normal" x="0" y="0" text-anchor="middle" dominant-baseline="alphabetic">5'seq raw counts</text><g transform="rotate(90,0,0) translate(-16,-292)"/></g></g></g></g></g></g></g><g clip-path="url(#XvDcgimInnGt)"><g/></g></g></g></svg>