<svg version="1.1" xmlns="http://www.w3.org/2000/svg" xmlns:xlink="http://www.w3.org/1999/xlink" width="600" height="600" style="width: 600px; height: 600px;"><defs><clipPath id="rHhFxOoWpfAB"><path fill="none" stroke="none" d=" M 58 28 L 570 28 L 570 555 L 58 555 L 58 28 Z"/></clipPath><clipPath id="gDQpktEGLLCJ"><path fill="none" stroke="none" d=" M 58 28 L 570 28 L 570 555 L 58 555 L 58 28 Z"/></clipPath><clipPath id="UGzzFfIcfEcN"><path fill="none" stroke="none" d=" M 58 28 L 570 28 L 570 555 L 58 555 L 58 28 Z"/></clipPath><clipPath id="qXWzcpAbBQGA"><path fill="none" stroke="none" d=" M 58 28 L 570 28 L 570 555 L 58 555 L 58 28 Z"/></clipPath></defs><g><g transform="scale(1,1) translate(0.5,0.5)"><rect fill="#FFFFFF" stroke="none" x="0" y="0" width="600" height="600"/><rect fill="#ffffff" stroke="none" x="0" y="0" width="600" height="600"/><rect fill="#FFFFFF" stroke="none" x="58" y="28" width="512" height="527"/><rect fill="#ffffff" stroke="none" x="58" y="28" width="512" height="527"/><g><rect fill="none" stroke="#e5e5e5" x="58" y="28" width="512" height="527" stroke-linejoin="bevel" stroke-miterlimit="10"/></g><g clip-path="url(#rHhFxOoWpfAB)"><g><g><path fill="none" stroke="#e5e5e5" paint-order="fill stroke markers" d=" M 81 555 L 81 28" stroke-linejoin="bevel" stroke-miterlimit="10"/><path fill="none" stroke="#e5e5e5" paint-order="fill stroke markers" d=" M 198 555 L 198 28" stroke-linejoin="bevel" stroke-miterlimit="10"/><path fill="none" stroke="#e5e5e5" paint-order="fill stroke markers" d=" M 315 555 L 315 28" stroke-linejoin="bevel" stroke-miterlimit="10"/><path fill="none" stroke="#e5e5e5" paint-order="fill stroke markers" d=" M 432 555 L 432 28" stroke-linejoin="bevel" stroke-miterlimit="10"/><path fill="none" stroke="#e5e5e5" paint-order="fill stroke markers" d=" M 549 555 L 549 28" stroke-linejoin="bevel" stroke-miterlimit="10"/></g></g></g><g clip-path="url(#gDQpktEGLLCJ)"><g><g><path fill="none" stroke="#e5e5e5" paint-order="fill stroke markers" d=" M 58 432 L 570 432" stroke-linejoin="bevel" stroke-miterlimit="10"/><path fill="none" stroke="#e5e5e5" paint-order="fill stroke markers" d=" M 58 288 L 570 288" stroke-linejoin="bevel" stroke-miterlimit="10"/><path fill="none" stroke="#e5e5e5" paint-order="fill stroke markers" d=" M 58 143 L 570 143" stroke-linejoin="bevel" stroke-miterlimit="10"/></g></g></g><g clip-path="url(#UGzzFfIcfEcN)"><g><g><path fill="none" stroke="none"/><path fill="none" stroke="rgb(216,179,101)" paint-order="fill stroke markers" d=" M 81.27272727272728 531.0454545454545 L 83.6116948378255 523.9738780964193 L 85.95066240292371 523.6160758693709 L 88.28962996802193 513.6050099839221 L 90.62859753312014 512.2297433874428 L 92.96756509821836 524.6704435672468 L 95.30653266331657 507.9284875329241 L 97.64550022841479 510.5643437706031 L 99.984467793513 512.0214082530554 L 102.32343535861122 513.6161184471742 L 104.66240292370946 511.5045813533018 L 107.00137048880768 515.3203672973373 L 109.3403380539059 515.3646471162505 L 111.67930561900411 504.85397054424413 L 114.01827318410233 491.5206413222703 L 116.35724074920054 491.97916740360057 L 118.69620831429876 498.5619556548137 L 121.03517587939697 492.9462485943079 L 123.37414344449519 497.4269383200971 L 125.7131110095934 500.16641296835576 L 128.05207857469162 485.6174936137164 L 130.39104613978986 494.6355152741982 L 132.73001370488808 493.3326462616317 L 135.0689812699863 494.7520808527725 L 137.4079488350845 499.37179894411724 L 139.74691640018273 495.87171957989005 L 142.08588396528094 503.0056008094167 L 144.42485153037916 487.91132760572367 L 146.76381909547737 484.0112807365896 L 149.1027866605756 473.74872811141324 L 151.4417542256738 480.8069952105752 L 153.78072179077205 475.15443681554325 L 156.11968935587026 476.6904160901947 L 158.45865692096848 475.4984295352911 L 160.7976244860667 457.8649089027255 L 163.1365920511649 462.48188603871415 L 165.47555961626313 463.0510555415106 L 167.81452718136134 463.18166823357285 L 170.15349474645956 428.8430271498412 L 172.49246231155777 442.09577698480564 L 174.831429876656 421.2860416229246 L 177.1703974417542 433.6872786234362 L 179.50936500685245 430.95067249873046 L 181.84833257195066 433.3092461010296 L 184.18730013704888 394.0891212402246 L 186.5262677021471 406.8925766782569 L 188.8652352672453 399.2463549318518 L 191.20420283234353 413.38398104453097 L 193.54317039744174 365.3143318589008 L 195.88213796253996 378.86583924809526 L 198.2211055276382 389.7312770262688 L 200.5600730927364 377.5986779090532 L 202.89904065783463 382.73376044031215 L 205.23800822293282 379.10769513946957 L 207.57697578803106 380.72172347759397 L 209.91594335312928 328.8920935404888 L 212.2549109182275 362.6911331813615 L 214.5938784833257 352.88128398550066 L 216.93284604842393 362.880196571431 L 219.27181361352214 373.0159127463674 L 221.61078117862036 327.91215199195676 L 223.9497487437186 330.6063556253657 L 226.2887163088168 300.9590449622497 L 228.62768387391503 332.62183300079334 L 230.96665143901322 341.916069284487 L 233.30561900411146 307.91180508974753 L 235.64458656920968 305.10417446564406 L 237.9835541343079 278.38533568765143 L 240.3225216994061 309.66042978430943 L 242.66148926450433 266.7080141129729 L 245.00045682960254 251.3740993546578 L 247.33942439470076 264.3375782344096 L 249.678391959799 238.21960862221795 L 252.0173595248972 250.37293613612775 L 254.35632708999543 243.46289898453392 L 256.6952946550936 245.38599000518332 L 259.03426222019186 255.581604611336 L 261.37322978529005 201.02587598436008 L 263.7121973503883 190.33479703873866 L 266.05116491548654 192.1817829370828 L 268.3901324805847 215.0970167170937 L 270.72910004568297 189.8345504207618 L 273.06806761078116 200.25231208593146 L 275.4070351758794 214.68814691586084 L 277.7460027409776 181.61613227041022 L 280.08497030607583 232.79870754504458 L 282.423937871174 207.5698777113929 L 284.76290543627226 230.46442419819766 L 287.10187300137045 222.28349583803748 L 289.4408405664687 217.72194083611197 L 291.77980813156694 211.19680586895686 L 294.1187756966651 201.23087352141988 L 296.45774326176337 199.56364072927624 L 298.79671082686156 170.15595397673178 L 301.1356783919598 247.8961512119081 L 303.474645957058 258.591626790567 L 305.81361352215623 191.8700829634567 L 308.1525810872544 253.68239870060387 L 310.49154865235266 289.1365493354304 L 312.83051621745085 227.8821299151477 L 315.1694837825491 51.954545454545496 L 317.50845134764734 300.4755651696322 L 319.8474189127455 367.58320030525954 L 322.18638647784377 410.376400671938 L 324.52535404294196 131.52055459786624 L 326.8643216080402 409.4247630951843 L 329.2032891731384 387.1815424647382 L 331.54225673823663 362.78410126185713 L 333.8812243033348 362.5814189643336 L 336.22019186843306 343.2180436898684 L 338.55915943353125 371.3640302721975 L 340.8981269986295 359.7981372968047 L 343.23709456372774 347.4017667447611 L 345.5760621288259 344.0474612473119 L 347.91502969392417 319.6224406425821 L 350.25399725902236 336.8339005861192 L 352.5929648241206 347.36151371011414 L 354.9319323892188 324.6214782410199 L 357.27089995431703 352.27452899606703 L 359.6098675194152 348.4886021831594 L 361.94883508451346 351.6867295136592 L 364.28780264961165 349.0538854392077 L 366.6267702147099 334.8628878734156 L 368.96573777980814 354.8618444052264 L 371.3047053449063 357.13849056872573 L 373.64367291000457 361.70401794965255 L 375.98264047510276 347.69816768422095 L 378.321608040201 362.11758174853867 L 380.6605756052992 343.5977974191254 L 382.99954317039743 350.55229059188 L 385.3385107354957 362.7416144950748 L 387.67747830059386 319.74801665505294 L 390.01644586569205 352.57707429342753 L 392.3554134307903 371.06343427479806 L 394.69438099588854 365.2358926350978 L 397.0333485609867 347.25056594641137 L 399.37231612608497 356.48804587143263 L 401.71128369118316 363.9978763734929 L 404.0502512562814 349.18811994445184 L 406.3892188213796 360.8825579632015 L 408.72818638647783 346.1514780151276 L 411.0671539515761 350.17861843455415 L 413.40612151667426 348.69304673352815 L 415.74508908177245 338.48560795058313 L 418.0840566468707 326.48806491352946 L 420.42302421196894 348.4625231973513 L 422.7619917770671 349.0845142365767 L 425.10095934216537 361.3810561700193 L 427.43992690726355 374.91837758055084 L 429.7788944723618 349.87679976158563 L 432.11786203746 359.9340974360397 L 434.45682960255823 351.49495715581514 L 436.7957971676565 348.6012593746122 L 439.13476473275466 309.72933409931386 L 441.47373229785285 341.86609929305837 L 443.8126998629511 336.39279100163776 L 446.15166742804934 353.71323793959186 L 448.4906349931475 360.3013489071686 L 450.8296025582457 338.0267929917335 L 453.168570123344 325.7048459568888 L 455.5075376884422 350.399506476202 L 457.8465052535404 348.202315378553 L 460.18547281863863 346.4520835503756 L 462.5244403837369 352.66580315009185 L 464.86340794883506 345.28949684251666 L 467.20237551393325 368.55666718727934 L 469.5413430790315 358.7705061184181 L 471.88031064412974 361.2097323111408 L 474.2192782092279 354.4965395846296 L 476.5582457743261 349.44880127530746 L 478.8972133394244 342.4650102007708 L 481.2361809045226 342.48264636121417 L 483.5751484696208 347.19785608524836 L 485.91411603471903 345.1797872411229 L 488.2530835998173 346.05456913838174 L 490.59205116491546 364.5468744236139 L 492.93101873001365 341.98616641561057 L 495.2699862951119 335.3556838402402 L 497.60895386021014 363.7498609229609 L 499.9479214253083 343.3009847406496 L 502.28688899040657 337.3841376268048 L 504.6258565555048 345.2595457264309 L 506.964824120603 347.0802353416934 L 509.3037916857012 359.6551085969287 L 511.64275925079943 342.978547424805 L 513.9817268158977 350.1460235312079 L 516.3206943809959 346.0087112932438 L 518.659661946094 353.29521464411334 L 520.9986295111923 340.45443751158507 L 523.3375970762905 336.4569838398572 L 525.6765646413887 338.02954360531476 L 528.015532206487 358.1174154352191 L 530.3544997715852 334.69313778610547 L 532.6934673366834 342.73673364298406 L 535.0324349017816 333.85067572066646 L 537.3714024668798 359.7789325508389 L 539.7103700319781 354.7018170580501 L 542.0493375970763 335.22238792401555 L 544.3883051621744 351.96826664357206 L 546.7272727272727 363.5514465946097" stroke-linejoin="bevel" stroke-miterlimit="10" stroke-width="2"/></g></g></g><g><g fill="#444444"><path fill="" stroke="none" d=""/><g transform="translate(58,23)"><path fill="none" stroke="none"/><text fill="" stroke="none" font-family="helvetica" font-size="10pt" font-style="normal" font-weight="bold" text-decoration="normal" x="0" y="0" text-anchor="start" dominant-baseline="text-after-edge">combined-weighted-metagene_counts-START_combined_weighted_scaled</text></g></g></g><g/><g><g fill="#444444"><path fill="none" stroke="black" paint-order="fill stroke markers" d=" M 58 555 L 570 555" stroke-linejoin="bevel" stroke-miterlimit="10"/><path fill="none" stroke="black" paint-order="fill stroke markers" d=" M 81 561 L 81 553" stroke-linejoin="bevel" stroke-miterlimit="10"/><path fill="none" stroke="black" paint-order="fill stroke markers" d=" M 198 561 L 198 553" stroke-linejoin="bevel" stroke-miterlimit="10"/><path fill="none" stroke="black" paint-order="fill stroke markers" d=" M 315 561 L 315 553" stroke-linejoin="bevel" stroke-miterlimit="10"/><path fill="none" stroke="black" paint-order="fill stroke markers" d=" M 432 561 L 432 553" stroke-linejoin="bevel" stroke-miterlimit="10"/><path fill="none" stroke="black" paint-order="fill stroke markers" d=" M 549 561 L 549 553" stroke-linejoin="bevel" stroke-miterlimit="10"/><path fill="none" stroke="black" paint-order="fill stroke markers" d=" M 81 559 L 81 555" stroke-linejoin="bevel" stroke-miterlimit="10"/><path fill="none" stroke="black" paint-order="fill stroke markers" d=" M 105 559 L 105 555" stroke-linejoin="bevel" stroke-miterlimit="10"/><path fill="none" stroke="black" paint-order="fill stroke markers" d=" M 128 559 L 128 555" stroke-linejoin="bevel" stroke-miterlimit="10"/><path fill="none" stroke="black" paint-order="fill stroke markers" d=" M 151 559 L 151 555" stroke-linejoin="bevel" stroke-miterlimit="10"/><path fill="none" stroke="black" paint-order="fill stroke markers" d=" M 175 559 L 175 555" stroke-linejoin="bevel" stroke-miterlimit="10"/><path fill="none" stroke="black" paint-order="fill stroke markers" d=" M 198 559 L 198 555" stroke-linejoin="bevel" stroke-miterlimit="10"/><path fill="none" stroke="black" paint-order="fill stroke markers" d=" M 222 559 L 222 555" stroke-linejoin="bevel" stroke-miterlimit="10"/><path fill="none" stroke="black" paint-order="fill stroke markers" d=" M 245 559 L 245 555" stroke-linejoin="bevel" stroke-miterlimit="10"/><path fill="none" stroke="black" paint-order="fill stroke markers" d=" M 268 559 L 268 555" stroke-linejoin="bevel" stroke-miterlimit="10"/><path fill="none" stroke="black" paint-order="fill stroke markers" d=" M 292 559 L 292 555" stroke-linejoin="bevel" stroke-miterlimit="10"/><path fill="none" stroke="black" paint-order="fill stroke markers" d=" M 315 559 L 315 555" stroke-linejoin="bevel" stroke-miterlimit="10"/><path fill="none" stroke="black" paint-order="fill stroke markers" d=" M 339 559 L 339 555" stroke-linejoin="bevel" stroke-miterlimit="10"/><path fill="none" stroke="black" paint-order="fill stroke markers" d=" M 362 559 L 362 555" stroke-linejoin="bevel" stroke-miterlimit="10"/><path fill="none" stroke="black" paint-order="fill stroke markers" d=" M 385 559 L 385 555" stroke-linejoin="bevel" stroke-miterlimit="10"/><path fill="none" stroke="black" paint-order="fill stroke markers" d=" M 409 559 L 409 555" stroke-linejoin="bevel" stroke-miterlimit="10"/><path fill="none" stroke="black" paint-order="fill stroke markers" d=" M 432 559 L 432 555" stroke-linejoin="bevel" stroke-miterlimit="10"/><path fill="none" stroke="black" paint-order="fill stroke markers" d=" M 456 559 L 456 555" stroke-linejoin="bevel" stroke-miterlimit="10"/><path fill="none" stroke="black" paint-order="fill stroke markers" d=" M 479 559 L 479 555" stroke-linejoin="bevel" stroke-miterlimit="10"/><path fill="none" stroke="black" paint-order="fill stroke markers" d=" M 502 559 L 502 555" stroke-linejoin="bevel" stroke-miterlimit="10"/><path fill="none" stroke="black" paint-order="fill stroke markers" d=" M 526 559 L 526 555" stroke-linejoin="bevel" stroke-miterlimit="10"/><path fill="" stroke="black" paint-order="fill stroke markers" d=" M 549 559 L 549 555" stroke-linejoin="bevel" stroke-miterlimit="10"/><g transform="translate(81,566) rotate(0,0,0)"><text fill="" stroke="none" font-family="helvetica" font-size="8pt" font-style="normal" font-weight="normal" text-decoration="normal" x="0" y="0" text-anchor="middle" dominant-baseline="hanging">-100</text><g transform="rotate(0,0,0) translate(-81,-566) translate(198,566) rotate(0,0,0)"><text fill="" stroke="none" font-family="helvetica" font-size="8pt" font-style="normal" font-weight="normal" text-decoration="normal" x="0" y="0" text-anchor="middle" dominant-baseline="hanging">-50</text><g transform="rotate(0,0,0) translate(-198,-566) translate(315,566) rotate(0,0,0)"><text fill="" stroke="none" font-family="helvetica" font-size="8pt" font-style="normal" font-weight="normal" text-decoration="normal" x="0" y="0" text-anchor="middle" dominant-baseline="hanging">0</text><g transform="rotate(0,0,0) translate(-315,-566) translate(432,566) rotate(0,0,0)"><text fill="" stroke="none" font-family="helvetica" font-size="8pt" font-style="normal" font-weight="normal" text-decoration="normal" x="0" y="0" text-anchor="middle" dominant-baseline="hanging">50</text><g transform="rotate(0,0,0) translate(-432,-566) translate(549,566) rotate(0,0,0)"><text fill="" stroke="none" font-family="helvetica" font-size="8pt" font-style="normal" font-weight="normal" text-decoration="normal" x="0" y="0" text-anchor="middle" dominant-baseline="hanging">100</text><g transform="rotate(0,0,0) translate(-549,-566) translate(314,584) rotate(0,0,0)"><text fill="" stroke="none" font-family="helvetica" font-size="10pt" font-style="italic" font-weight="normal" text-decoration="normal" x="0" y="0" text-anchor="middle" dominant-baseline="hanging">position from START</text><g transform="rotate(0,0,0) translate(-314,-584)"/></g></g></g></g></g></g></g></g><g><g fill="#444444"><path fill="none" stroke="black" paint-order="fill stroke markers" d=" M 58 555 L 58 28" stroke-linejoin="bevel" stroke-miterlimit="10"/><path fill="none" stroke="black" paint-order="fill stroke markers" d=" M 52 432 L 60 432" stroke-linejoin="bevel" stroke-miterlimit="10"/><path fill="none" stroke="black" paint-order="fill stroke markers" d=" M 52 288 L 60 288" stroke-linejoin="bevel" stroke-miterlimit="10"/><path fill="none" stroke="black" paint-order="fill stroke markers" d=" M 52 143 L 60 143" stroke-linejoin="bevel" stroke-miterlimit="10"/><path fill="none" stroke="black" paint-order="fill stroke markers" d=" M 54 461 L 58 461" stroke-linejoin="bevel" stroke-miterlimit="10"/><path fill="none" stroke="black" paint-order="fill stroke markers" d=" M 54 490 L 58 490" stroke-linejoin="bevel" stroke-miterlimit="10"/><path fill="none" stroke="black" paint-order="fill stroke markers" d=" M 54 519 L 58 519" stroke-linejoin="bevel" stroke-miterlimit="10"/><path fill="none" stroke="black" paint-order="fill stroke markers" d=" M 54 548 L 58 548" stroke-linejoin="bevel" stroke-miterlimit="10"/><path fill="none" stroke="black" paint-order="fill stroke markers" d=" M 54 432 L 58 432" stroke-linejoin="bevel" stroke-miterlimit="10"/><path fill="none" stroke="black" paint-order="fill stroke markers" d=" M 54 404 L 58 404" stroke-linejoin="bevel" stroke-miterlimit="10"/><path fill="none" stroke="black" paint-order="fill stroke markers" d=" M 54 375 L 58 375" stroke-linejoin="bevel" stroke-miterlimit="10"/><path fill="none" stroke="black" paint-order="fill stroke markers" d=" M 54 346 L 58 346" stroke-linejoin="bevel" stroke-miterlimit="10"/><path fill="none" stroke="black" paint-order="fill stroke markers" d=" M 54 317 L 58 317" stroke-linejoin="bevel" stroke-miterlimit="10"/><path fill="none" stroke="black" paint-order="fill stroke markers" d=" M 54 288 L 58 288" stroke-linejoin="bevel" stroke-miterlimit="10"/><path fill="none" stroke="black" paint-order="fill stroke markers" d=" M 54 259 L 58 259" stroke-linejoin="bevel" stroke-miterlimit="10"/><path fill="none" stroke="black" paint-order="fill stroke markers" d=" M 54 230 L 58 230" stroke-linejoin="bevel" stroke-miterlimit="10"/><path fill="none" stroke="black" paint-order="fill stroke markers" d=" M 54 201 L 58 201" stroke-linejoin="bevel" stroke-miterlimit="10"/><path fill="none" stroke="black" paint-order="fill stroke markers" d=" M 54 172 L 58 172" stroke-linejoin="bevel" stroke-miterlimit="10"/><path fill="none" stroke="black" paint-order="fill stroke markers" d=" M 54 143 L 58 143" stroke-linejoin="bevel" stroke-miterlimit="10"/><path fill="none" stroke="black" paint-order="fill stroke markers" d=" M 54 115 L 58 115" stroke-linejoin="bevel" stroke-miterlimit="10"/><path fill="none" stroke="black" paint-order="fill stroke markers" d=" M 54 86 L 58 86" stroke-linejoin="bevel" stroke-miterlimit="10"/><path fill="" stroke="black" paint-order="fill stroke markers" d=" M 54 57 L 58 57" stroke-linejoin="bevel" stroke-miterlimit="10"/><g transform="translate(47,432) rotate(0,0,0)"><text fill="" stroke="none" font-family="helvetica" font-size="8pt" font-style="normal" font-weight="normal" text-decoration="normal" x="0" y="0" text-anchor="end" dominant-baseline="central">500</text><g transform="rotate(0,0,0) translate(-47,-432) translate(47,288) rotate(0,0,0)"><text fill="" stroke="none" font-family="helvetica" font-size="8pt" font-style="normal" font-weight="normal" text-decoration="normal" x="0" y="0" text-anchor="end" dominant-baseline="central">1000</text><g transform="rotate(0,0,0) translate(-47,-288) translate(47,143) rotate(0,0,0)"><text fill="" stroke="none" font-family="helvetica" font-size="8pt" font-style="normal" font-weight="normal" text-decoration="normal" x="0" y="0" text-anchor="end" dominant-baseline="central">1500</text><g transform="rotate(0,0,0) translate(-47,-143) translate(15,292) rotate(-90,0,0)"><text fill="" stroke="none" font-family="helvetica" font-size="10pt" font-style="italic" font-weight="normal" text-decoration="normal" x="0" y="0" text-anchor="middle" dominant-baseline="alphabetic">5'seq RPM</text><g transform="rotate(90,0,0) translate(-15,-292)"/></g></g></g></g></g></g><g clip-path="url(#qXWzcpAbBQGA)"><g/></g></g></g></svg>