<svg version="1.1" xmlns="http://www.w3.org/2000/svg" xmlns:xlink="http://www.w3.org/1999/xlink" width="600" height="600" style="width: 600px; height: 600px;"><defs><clipPath id="yuEVgzMJihTn"><path fill="none" stroke="none" d=" M 58 203 L 570 203 L 570 555 L 58 555 L 58 203 Z"/></clipPath><clipPath id="xMGeZKNARBQZ"><path fill="none" stroke="none" d=" M 58 203 L 570 203 L 570 555 L 58 555 L 58 203 Z"/></clipPath><clipPath id="QLMHlIWAEgkh"><path fill="none" stroke="none" d=" M 58 203 L 570 203 L 570 555 L 58 555 L 58 203 Z"/></clipPath><clipPath id="UulBhxZtmMdx"><path fill="none" stroke="none" d=" M 58 203 L 570 203 L 570 555 L 58 555 L 58 203 Z"/></clipPath><clipPath id="PTiekGvXdIyk"><path fill="none" stroke="none" d=" M 58 203 L 570 203 L 570 555 L 58 555 L 58 203 Z"/></clipPath><clipPath id="DVEgTNXiQeaP"><path fill="none" stroke="none" d=" M 58 203 L 570 203 L 570 555 L 58 555 L 58 203 Z"/></clipPath><clipPath id="niVVpnMafLNg"><path fill="none" stroke="none" d=" M 58 203 L 570 203 L 570 555 L 58 555 L 58 203 Z"/></clipPath><clipPath id="xbPRSQrxzsQk"><path fill="none" stroke="none" d=" M 58 203 L 570 203 L 570 555 L 58 555 L 58 203 Z"/></clipPath><clipPath id="HlOWfNgxyBve"><path fill="none" stroke="none" d=" M 58 203 L 570 203 L 570 555 L 58 555 L 58 203 Z"/></clipPath></defs><g><g/><g/><g/><g transform="scale(1,1) translate(0.5,0.5)"><rect fill="#FFFFFF" stroke="none" x="0" y="0" width="600" height="600"/><rect fill="#ffffff" stroke="none" x="0" y="0" width="600" height="600"/><rect fill="#FFFFFF" stroke="none" x="58" y="203" width="512" height="352"/><rect fill="#ffffff" stroke="none" x="58" y="203" width="512" height="352"/><g><rect fill="none" stroke="#e5e5e5" x="58" y="203" width="512" height="352" stroke-linejoin="bevel" stroke-miterlimit="10"/></g><g clip-path="url(#yuEVgzMJihTn)"><g><g><path fill="none" stroke="#e5e5e5" paint-order="fill stroke markers" d=" M 81 555 L 81 203" stroke-linejoin="bevel" stroke-miterlimit="10"/><path fill="none" stroke="#e5e5e5" paint-order="fill stroke markers" d=" M 198 555 L 198 203" stroke-linejoin="bevel" stroke-miterlimit="10"/><path fill="none" stroke="#e5e5e5" paint-order="fill stroke markers" d=" M 315 555 L 315 203" stroke-linejoin="bevel" stroke-miterlimit="10"/><path fill="none" stroke="#e5e5e5" paint-order="fill stroke markers" d=" M 432 555 L 432 203" stroke-linejoin="bevel" stroke-miterlimit="10"/><path fill="none" stroke="#e5e5e5" paint-order="fill stroke markers" d=" M 549 555 L 549 203" stroke-linejoin="bevel" stroke-miterlimit="10"/></g></g></g><g clip-path="url(#xMGeZKNARBQZ)"><g><g><path fill="none" stroke="#e5e5e5" paint-order="fill stroke markers" d=" M 58 466 L 570 466" stroke-linejoin="bevel" stroke-miterlimit="10"/><path fill="none" stroke="#e5e5e5" paint-order="fill stroke markers" d=" M 58 375 L 570 375" stroke-linejoin="bevel" stroke-miterlimit="10"/><path fill="none" stroke="#e5e5e5" paint-order="fill stroke markers" d=" M 58 284 L 570 284" stroke-linejoin="bevel" stroke-miterlimit="10"/></g></g></g><g clip-path="url(#QLMHlIWAEgkh)"><g><g><path fill="none" stroke="none"/><path fill="none" stroke="#1F78B4" paint-order="fill stroke markers" d=" M 81.27272727272728 534.4597048808173 L 83.6116948378255 530.4642451759365 L 85.95066240292371 523.3813847900115 L 88.28962996802193 519.0227014755959 L 90.62859753312014 519.9307604994325 L 92.96756509821836 526.8320090805903 L 95.30653266331657 522.8365493757094 L 97.64550022841479 516.4801362088537 L 99.984467793513 521.383654937571 L 102.32343535861122 515.5720771850171 L 104.66240292370946 518.2962542565267 L 107.00137048880768 520.8388195232691 L 109.3403380539059 524.4710556186153 L 111.67930561900411 510.85017026106703 L 114.01827318410233 509.3972758229285 L 116.35724074920054 505.583427922815 L 118.69620831429876 508.67082860385926 L 121.03517587939697 508.30760499432466 L 123.37414344449519 511.39500567536896 L 125.7131110095934 510.85017026106703 L 128.05207857469162 508.12599318955733 L 130.39104613978986 508.67082860385926 L 132.73001370488808 510.85017026106703 L 135.0689812699863 512.3030646992055 L 137.4079488350845 513.755959137344 L 139.74691640018273 515.0272417707151 L 142.08588396528094 519.2043132803633 L 144.42485153037916 505.4018161180477 L 146.76381909547737 505.2202043132804 L 149.1027866605756 502.1328036322361 L 151.4417542256738 502.1328036322361 L 153.78072179077205 501.5879682179342 L 156.11968935587026 503.4040862656073 L 158.45865692096848 500.861520998865 L 160.7976244860667 488.5119182746879 L 163.1365920511649 496.32122587968223 L 165.47555961626313 492.3257661748014 L 167.81452718136134 497.7741203178207 L 170.15349474645956 470.3507377979569 L 172.49246231155777 482.70034052213396 L 174.831429876656 473.43813847900117 L 177.1703974417542 475.98070374574354 L 179.50936500685245 473.9829738933031 L 181.84833257195066 472.53007945516464 L 184.18730013704888 448.9205448354143 L 186.5262677021471 464.9023836549376 L 188.8652352672453 458.7275822928491 L 191.20420283234353 463.99432463110105 L 193.54317039744174 438.02383654937574 L 195.88213796253996 442.5641316685585 L 198.2211055276382 455.09534619750286 L 200.5600730927364 436.9341657207719 L 202.89904065783463 450.0102156640182 L 205.23800822293282 444.7434733257662 L 207.57697578803106 449.10215664018165 L 209.91594335312928 412.23496027241777 L 212.2549109182275 433.84676503972764 L 214.5938784833257 429.8513053348468 L 216.93284604842393 434.0283768444949 L 219.27181361352214 431.30419977298527 L 221.61078117862036 411.1452894438139 L 223.9497487437186 416.23041997729854 L 226.2887163088168 401.51986379114646 L 228.62768387391503 419.68104426787744 L 230.96665143901322 420.04426787741204 L 233.30561900411146 400.7934165720772 L 235.64458656920968 404.78887627695804 L 237.9835541343079 384.9931895573212 L 240.3225216994061 404.6072644721907 L 242.66148926450433 381.1793416572077 L 245.00045682960254 377.18388195232694 L 247.33942439470076 373.91486946651537 L 249.678391959799 367.5584562996595 L 252.0173595248972 371.1906923950057 L 254.35632708999543 371.0090805902384 L 256.6952946550936 364.2894438138479 L 259.03426222019186 365.3791146424518 L 261.37322978529005 334.5051078320091 L 263.7121973503883 340.6799091940976 L 266.05116491548654 336.5028376844495 L 268.3901324805847 356.4801362088536 L 270.72910004568297 332.3257661748014 L 273.06806761078116 342.1328036322361 L 275.4070351758794 345.03859250851303 L 277.7460027409776 331.23609534619754 L 280.08497030607583 355.93530079455167 L 282.423937871174 326.8774120317821 L 284.76290543627226 342.67763904653805 L 287.10187300137045 345.76503972758235 L 289.4408405664687 341.40635641316686 L 291.77980813156694 346.3098751418843 L 294.1187756966651 341.40635641316686 L 296.45774326176337 315.07264472190695 L 298.79671082686156 321.6106696935301 L 301.1356783919598 361.9284903518729 L 303.474645957058 352.6662883087401 L 305.81361352215623 316.88876276958 L 308.1525810872544 351.75822928490356 L 310.49154865235266 366.28717366628837 L 312.83051621745085 337.41089670828603 L 315.1694837825491 237.16118047673098 L 317.50845134764734 382.2690124858116 L 319.8474189127455 429.12485811577756 L 322.18638647784377 453.4608399545971 L 324.52535404294196 282.20090805902385 L 326.8643216080402 449.283768444949 L 329.2032891731384 439.65834279228153 L 331.54225673823663 428.39841089670836 L 333.8812243033348 419.68104426787744 L 336.22019186843306 413.5062429057889 L 338.55915943353125 417.1384790011351 L 340.8981269986295 408.60272417707154 L 343.23709456372774 403.3359818388195 L 345.5760621288259 406.96821793416575 L 347.91502969392417 401.51986379114646 L 350.25399725902236 405.33371169125996 L 352.5929648241206 402.427922814983 L 354.9319323892188 402.9727582292849 L 357.27089995431703 419.1362088535755 L 359.6098675194152 416.23041997729854 L 361.94883508451346 415.6855845629966 L 364.28780264961165 421.3155505107832 L 366.6267702147099 396.25312145289445 L 368.96573777980814 414.23269012485815 L 371.3047053449063 415.6855845629966 L 373.64367291000457 422.0419977298525 L 375.98264047510276 415.6855845629966 L 378.321608040201 426.94551645856984 L 380.6605756052992 402.9727582292849 L 382.99954317039743 420.4074914869467 L 385.3385107354957 416.9568671963678 L 387.67747830059386 406.4233825198638 L 390.01644586569205 416.04880817253127 L 392.3554134307903 431.6674233825199 L 394.69438099588854 426.94551645856984 L 397.0333485609867 416.23041997729854 L 399.37231612608497 419.31782065834284 L 401.71128369118316 413.5062429057889 L 404.0502512562814 409.5107832009081 L 406.3892188213796 421.86038592508515 L 408.72818638647783 414.0510783200908 L 411.0671539515761 415.322360953462 L 413.40612151667426 414.7775255391601 L 415.74508908177245 409.32917139614074 L 418.0840566468707 400.4301929625426 L 420.42302421196894 414.7775255391601 L 422.7619917770671 422.22360953461975 L 425.10095934216537 424.2213393870602 L 427.43992690726355 427.67196367763904 L 429.7788944723618 414.23269012485815 L 432.11786203746 424.2213393870602 L 434.45682960255823 414.0510783200908 L 436.7957971676565 412.59818388195237 L 439.13476473275466 394.25539160045406 L 441.47373229785285 404.4256526674234 L 443.8126998629511 403.88081725312145 L 446.15166742804934 417.1384790011351 L 448.4906349931475 424.5845629965948 L 450.8296025582457 411.5085130533485 L 453.168570123344 394.800227014756 L 455.5075376884422 414.4143019296255 L 457.8465052535404 418.40976163450625 L 460.18547281863863 423.67650397275827 L 462.5244403837369 428.5800227014756 L 464.86340794883506 420.04426787741204 L 467.20237551393325 426.5822928490352 L 469.5413430790315 417.1384790011351 L 471.88031064412974 424.5845629965948 L 474.2192782092279 418.40976163450625 L 476.5582457743261 413.86946651532355 L 478.8972133394244 413.5062429057889 L 481.2361809045226 409.14755959137347 L 483.5751484696208 416.41203178206587 L 485.91411603471903 413.86946651532355 L 488.2530835998173 411.5085130533485 L 490.59205116491546 420.04426787741204 L 492.93101873001365 412.7797956867197 L 495.2699862951119 403.15437003405225 L 497.60895386021014 433.1203178206584 L 499.9479214253083 416.41203178206587 L 502.28688899040657 407.5130533484677 L 504.6258565555048 407.5130533484677 L 506.964824120603 416.41203178206587 L 509.3037916857012 412.41657207718504 L 511.64275925079943 414.23269012485815 L 513.9817268158977 418.7729852440409 L 516.3206943809959 419.1362088535755 L 518.659661946094 414.4143019296255 L 520.9986295111923 416.04880817253127 L 523.3375970762905 404.2440408626561 L 525.6765646413887 405.33371169125996 L 528.015532206487 420.9523269012486 L 530.3544997715852 397.70601589103296 L 532.6934673366834 406.7866061293985 L 535.0324349017816 412.23496027241777 L 537.3714024668798 416.04880817253127 L 539.7103700319781 424.2213393870602 L 542.0493375970763 406.6049943246311 L 544.3883051621744 418.7729852440409 L 546.7272727272727 425.4926220204313" stroke-linejoin="bevel" stroke-miterlimit="10" stroke-width="2"/></g></g></g><g clip-path="url(#UulBhxZtmMdx)"><g><g><path fill="none" stroke="none"/><path fill="none" stroke="#33A02C" paint-order="fill stroke markers" d=" M 81.27272727272728 530.4642451759365 L 83.6116948378255 526.1055618615211 L 85.95066240292371 529.7377979568672 L 88.28962996802193 522.1101021566402 L 90.62859753312014 520.2939841089672 L 92.96756509821836 528.6481271282634 L 95.30653266331657 522.6549375709421 L 97.64550022841479 520.8388195232691 L 99.984467793513 517.0249716231556 L 102.32343535861122 522.4733257661749 L 104.66240292370946 521.383654937571 L 107.00137048880768 523.0181611804768 L 109.3403380539059 524.8342792281499 L 111.67930561900411 513.755959137344 L 114.01827318410233 510.6685584562997 L 116.35724074920054 510.4869466515324 L 118.69620831429876 513.2111237230421 L 121.03517587939697 512.3030646992055 L 123.37414344449519 515.9353007945517 L 125.7131110095934 517.0249716231556 L 128.05207857469162 506.6730987514189 L 130.39104613978986 510.30533484676505 L 132.73001370488808 512.8479001135074 L 135.0689812699863 512.1214528944382 L 137.4079488350845 517.933030646992 L 139.74691640018273 511.21339387060164 L 142.08588396528094 515.0272417707151 L 144.42485153037916 512.1214528944382 L 146.76381909547737 509.57888762769585 L 149.1027866605756 495.9580022701476 L 151.4417542256738 503.94892167990923 L 153.78072179077205 499.77185017026113 L 156.11968935587026 501.95119182746885 L 158.45865692096848 502.31441543700345 L 160.7976244860667 498.3189557321226 L 163.1365920511649 492.1441543700341 L 165.47555961626313 493.41543700340526 L 167.81452718136134 495.7763904653803 L 170.15349474645956 469.44267877412034 L 172.49246231155777 476.34392735527814 L 174.831429876656 472.89330306469924 L 177.1703974417542 473.9829738933031 L 179.50936500685245 471.62202043132805 L 181.84833257195066 479.79455164585704 L 184.18730013704888 456.72985244040865 L 186.5262677021471 457.4562996594779 L 188.8652352672453 460.3620885357549 L 191.20420283234353 465.99205448354144 L 193.54317039744174 433.3019296254257 L 195.88213796253996 447.28603859250853 L 198.2211055276382 450.0102156640182 L 200.5600730927364 449.8286038592509 L 202.89904065783463 444.1986379114643 L 205.23800822293282 451.8263337116913 L 207.57697578803106 442.5641316685585 L 209.91594335312928 412.23496027241777 L 212.2549109182275 434.7548240635642 L 214.5938784833257 427.67196367763904 L 216.93284604842393 433.483541430193 L 219.27181361352214 438.02383654937574 L 221.61078117862036 415.50397275822934 L 223.9497487437186 410.600454029512 L 226.2887163088168 402.427922814983 L 228.62768387391503 423.67650397275827 L 230.96665143901322 431.30419977298527 L 233.30561900411146 408.60272417707154 L 235.64458656920968 401.33825198637913 L 237.9835541343079 389.3518728717367 L 240.3225216994061 403.51759364358685 L 242.66148926450433 382.8138479001135 L 245.00045682960254 375.91259931895576 L 247.33942439470076 380.08967082860386 L 249.678391959799 359.20431328036324 L 252.0173595248972 382.63223609534623 L 254.35632708999543 357.56980703745745 L 256.6952946550936 366.28717366628837 L 259.03426222019186 373.1884222474461 L 261.37322978529005 340.6799091940976 L 263.7121973503883 328.6935300794552 L 266.05116491548654 329.41997729852443 L 268.3901324805847 349.57888762769585 L 270.72910004568297 340.49829738933033 L 273.06806761078116 345.76503972758235 L 275.4070351758794 349.2156640181612 L 277.7460027409776 336.3212258796822 L 280.08497030607583 356.4801362088536 L 282.423937871174 355.57207718501706 L 284.76290543627226 361.5652667423383 L 287.10187300137045 353.0295119182747 L 289.4408405664687 344.13053348467656 L 291.77980813156694 339.22701475595915 L 294.1187756966651 349.2156640181612 L 296.45774326176337 346.1282633371169 L 298.79671082686156 331.59931895573214 L 301.1356783919598 365.1975028376845 L 303.474645957058 386.99091940976166 L 305.81361352215623 341.95119182746885 L 308.1525810872544 368.1032917139614 L 310.49154865235266 390.07832009080596 L 312.83051621745085 353.211123723042 L 315.1694837825491 241.70147559591373 L 317.50845134764734 396.25312145289445 L 319.8474189127455 431.122587968218 L 322.18638647784377 466.17366628830877 L 324.52535404294196 284.01702610669696 L 326.8643216080402 456.1850170261067 L 329.2032891731384 448.19409761634506 L 331.54225673823663 438.5686719636777 L 333.8812243033348 432.21225879682186 L 336.22019186843306 424.2213393870602 L 338.55915943353125 451.64472190692396 L 340.8981269986295 438.2054483541431 L 343.23709456372774 421.1339387060159 L 345.5760621288259 427.1271282633371 L 347.91502969392417 408.2395005675369 L 350.25399725902236 420.22587968217937 L 352.5929648241206 426.94551645856984 L 354.9319323892188 408.2395005675369 L 357.27089995431703 422.7684449489217 L 359.6098675194152 428.21679909194097 L 361.94883508451346 430.94097616345067 L 364.28780264961165 429.8513053348468 L 366.6267702147099 414.4143019296255 L 368.96573777980814 430.39614074914874 L 371.3047053449063 431.8490351872872 L 373.64367291000457 426.2190692395006 L 375.98264047510276 429.6696935300795 L 378.321608040201 431.122587968218 L 380.6605756052992 421.6787741203178 L 382.99954317039743 430.75936435868334 L 385.3385107354957 439.1135073779796 L 387.67747830059386 404.9704880817253 L 390.01644586569205 417.5017026106697 L 392.3554134307903 432.93870601589106 L 394.69438099588854 429.6696935300795 L 397.0333485609867 420.22587968217937 L 399.37231612608497 436.9341657207719 L 401.71128369118316 438.9318955732123 L 404.0502512562814 429.6696935300795 L 406.3892188213796 426.2190692395006 L 408.72818638647783 418.40976163450625 L 411.0671539515761 418.04653802497165 L 413.40612151667426 427.8535754824064 L 415.74508908177245 412.23496027241777 L 418.0840566468707 417.5017026106697 L 420.42302421196894 422.7684449489217 L 422.7619917770671 431.4858115777526 L 425.10095934216537 433.483541430193 L 427.43992690726355 440.20317820658346 L 429.7788944723618 429.48808172531216 L 432.11786203746 430.57775255391607 L 434.45682960255823 424.5845629965948 L 436.7957971676565 420.58910329171397 L 439.13476473275466 402.9727582292849 L 441.47373229785285 424.7661748013621 L 443.8126998629511 419.86265607264477 L 446.15166742804934 434.0283768444949 L 448.4906349931475 431.6674233825199 L 450.8296025582457 418.40976163450625 L 453.168570123344 404.78887627695804 L 455.5075376884422 423.3132803632236 L 457.8465052535404 419.86265607264477 L 460.18547281863863 425.1293984108967 L 462.5244403837369 424.9477866061294 L 464.86340794883506 419.86265607264477 L 467.20237551393325 434.3916004540296 L 469.5413430790315 435.48127128263343 L 471.88031064412974 432.21225879682186 L 474.2192782092279 421.1339387060159 L 476.5582457743261 425.4926220204313 L 478.8972133394244 421.3155505107832 L 481.2361809045226 420.7707150964813 L 483.5751484696208 423.13166855845634 L 485.91411603471903 419.4994324631101 L 488.2530835998173 423.67650397275827 L 490.59205116491546 433.84676503972764 L 492.93101873001365 425.31101021566406 L 495.2699862951119 416.04880817253127 L 497.60895386021014 438.750283768445 L 499.9479214253083 419.1362088535755 L 502.28688899040657 409.14755959137347 L 504.6258565555048 418.7729852440409 L 506.964824120603 419.86265607264477 L 509.3037916857012 423.3132803632236 L 511.64275925079943 413.1430192962543 L 513.9817268158977 422.7684449489217 L 516.3206943809959 419.68104426787744 L 518.659661946094 429.12485811577756 L 520.9986295111923 421.1339387060159 L 523.3375970762905 409.87400681044267 L 525.6765646413887 417.5017026106697 L 528.015532206487 430.57775255391607 L 530.3544997715852 413.1430192962543 L 532.6934673366834 424.40295119182747 L 535.0324349017816 408.9659477866062 L 537.3714024668798 436.9341657207719 L 539.7103700319781 425.67423382519866 L 542.0493375970763 415.322360953462 L 544.3883051621744 418.9545970488082 L 546.7272727272727 429.8513053348468" stroke-linejoin="bevel" stroke-miterlimit="10" stroke-width="2"/></g></g></g><g clip-path="url(#PTiekGvXdIyk)"><g><g><path fill="none" stroke="none"/><path fill="none" stroke="#C51B7D" paint-order="fill stroke markers" d=" M 81.27272727272728 533.1884222474462 L 83.6116948378255 528.1032917139614 L 85.95066240292371 529.9194097616346 L 88.28962996802193 524.8342792281499 L 90.62859753312014 523.0181611804768 L 92.96756509821836 533.0068104426788 L 95.30653266331657 520.1123723041998 L 97.64550022841479 522.6549375709421 L 99.984467793513 528.1032917139614 L 102.32343535861122 524.2894438138479 L 104.66240292370946 526.650397275823 L 107.00137048880768 525.7423382519864 L 109.3403380539059 526.650397275823 L 111.67930561900411 518.6594778660614 L 114.01827318410233 517.0249716231556 L 116.35724074920054 509.57888762769585 L 118.69620831429876 517.2065834279229 L 121.03517587939697 517.0249716231556 L 123.37414344449519 519.2043132803633 L 125.7131110095934 516.116912599319 L 128.05207857469162 511.75822928490356 L 130.39104613978986 515.2088535754824 L 132.73001370488808 510.6685584562997 L 135.0689812699863 514.4824063564132 L 137.4079488350845 517.0249716231556 L 139.74691640018273 515.3904653802498 L 142.08588396528094 517.2065834279229 L 144.42485153037916 511.57661748013624 L 146.76381909547737 504.49375709421116 L 149.1027866605756 505.2202043132804 L 151.4417542256738 505.0385925085131 L 153.78072179077205 506.49148694665155 L 156.11968935587026 505.76503972758235 L 158.45865692096848 505.4018161180477 L 160.7976244860667 498.50056753688995 L 163.1365920511649 498.86379114642455 L 165.47555961626313 498.6821793416573 L 167.81452718136134 497.7741203178207 L 170.15349474645956 482.5187287173667 L 172.49246231155777 483.7900113507378 L 174.831429876656 475.7990919409762 L 177.1703974417542 488.5119182746879 L 179.50936500685245 479.4313280363224 L 181.84833257195066 481.97389330306476 L 184.18730013704888 463.0862656072645 L 186.5262677021471 474.70942111237235 L 188.8652352672453 460.3620885357549 L 191.20420283234353 467.9897843359819 L 193.54317039744174 445.28830874006815 L 195.88213796253996 450.91827468785476 L 198.2211055276382 456.72985244040865 L 200.5600730927364 456.72985244040865 L 202.89904065783463 454.18728717366633 L 205.23800822293282 445.28830874006815 L 207.57697578803106 450.5550510783201 L 209.91594335312928 429.6696935300795 L 212.2549109182275 442.0192962542566 L 214.5938784833257 438.9318955732123 L 216.93284604842393 452.3711691259932 L 219.27181361352214 454.18728717366633 L 221.61078117862036 424.2213393870602 L 223.9497487437186 434.20998864926224 L 226.2887163088168 410.600454029512 L 228.62768387391503 428.76163450624296 L 230.96665143901322 428.0351872871737 L 233.30561900411146 417.68331441543705 L 235.64458656920968 415.322360953462 L 237.9835541343079 389.1702610669694 L 240.3225216994061 415.50397275822934 L 242.66148926450433 393.89216799091946 L 245.00045682960254 386.8093076049944 L 247.33942439470076 400.06696935300795 L 249.678391959799 372.8251986379115 L 252.0173595248972 387.71736662883086 L 254.35632708999543 376.27582292849036 L 256.6952946550936 382.8138479001135 L 259.03426222019186 390.80476730987516 L 261.37322978529005 361.9284903518729 L 263.7121973503883 352.12145289443816 L 266.05116491548654 358.84108967082864 L 268.3901324805847 364.10783200908065 L 270.72910004568297 353.0295119182747 L 273.06806761078116 351.93984108967084 L 275.4070351758794 370.28263337116914 L 277.7460027409776 350.850170261067 L 280.08497030607583 379 L 282.423937871174 369.91940976163454 L 284.76290543627226 381.36095346197504 L 287.10187300137045 367.74006810442677 L 289.4408405664687 377.18388195232694 L 291.77980813156694 371.5539160045403 L 294.1187756966651 368.1032917139614 L 296.45774326176337 365.74233825198644 L 298.79671082686156 351.75822928490356 L 301.1356783919598 386.0828603859251 L 303.474645957058 394.800227014756 L 305.81361352215623 367.19523269012484 L 308.1525810872544 399.34052213393875 L 310.49154865235266 412.05334846765044 L 312.83051621745085 379.72644721906926 L 315.1694837825491 278.9318955732123 L 317.50845134764734 418.7729852440409 L 319.8474189127455 449.283768444949 L 322.18638647784377 465.99205448354144 L 324.52535404294196 311.98524404086265 L 326.8643216080402 476.34392735527814 L 329.2032891731384 454.9137343927356 L 331.54225673823663 441.47446083995465 L 333.8812243033348 443.47219069239503 L 336.22019186843306 442.3825198637912 L 338.55915943353125 449.283768444949 L 340.8981269986295 443.2905788876277 L 343.23709456372774 434.3916004540296 L 345.5760621288259 441.2928490351873 L 347.91502969392417 414.7775255391601 L 350.25399725902236 433.6651532349603 L 352.5929648241206 441.47446083995465 L 354.9319323892188 421.6787741203178 L 357.27089995431703 444.7434733257662 L 359.6098675194152 437.8422247446084 L 361.94883508451346 438.2054483541431 L 364.28780264961165 438.38706015891034 L 366.6267702147099 433.1203178206584 L 368.96573777980814 444.1986379114643 L 371.3047053449063 444.01702610669696 L 373.64367291000457 447.64926220204313 L 375.98264047510276 437.1157775255392 L 378.321608040201 446.1963677639047 L 380.6605756052992 438.750283768445 L 382.99954317039743 438.02383654937574 L 385.3385107354957 448.738933030647 L 387.67747830059386 422.4052213393871 L 390.01644586569205 443.65380249716236 L 392.3554134307903 453.0976163450625 L 394.69438099588854 448.738933030647 L 397.0333485609867 430.2145289443814 L 399.37231612608497 443.2905788876277 L 401.71128369118316 449.46538024971625 L 404.0502512562814 433.84676503972764 L 406.3892188213796 443.10896708286043 L 408.72818638647783 441.47446083995465 L 411.0671539515761 429.12485811577756 L 413.40612151667426 438.2054483541431 L 415.74508908177245 431.4858115777526 L 418.0840566468707 426.03745743473326 L 420.42302421196894 432.0306469920545 L 422.7619917770671 432.7570942111238 L 425.10095934216537 441.83768444948925 L 427.43992690726355 449.8286038592509 L 429.7788944723618 440.20317820658346 L 432.11786203746 442.3825198637912 L 434.45682960255823 442.5641316685585 L 436.7957971676565 447.1044267877412 L 439.13476473275466 413.3246311010216 L 441.47373229785285 440.7480136208854 L 443.8126998629511 431.4858115777526 L 446.15166742804934 442.7457434733258 L 448.4906349931475 447.64926220204313 L 450.8296025582457 440.02156640181613 L 453.168570123344 429.3064699205449 L 455.5075376884422 439.1135073779796 L 457.8465052535404 444.38024971623156 L 460.18547281863863 437.1157775255392 L 462.5244403837369 436.5709421112373 L 464.86340794883506 432.39387060158913 L 467.20237551393325 447.28603859250853 L 469.5413430790315 437.66061293984114 L 471.88031064412974 448.0124858115778 L 474.2192782092279 442.5641316685585 L 476.5582457743261 443.65380249716236 L 478.8972133394244 439.29511918274693 L 481.2361809045226 436.5709421112373 L 483.5751484696208 440.3847900113508 L 485.91411603471903 441.47446083995465 L 488.2530835998173 438.2054483541431 L 490.59205116491546 450.37343927355283 L 492.93101873001365 440.02156640181613 L 495.2699862951119 428.5800227014756 L 497.60895386021014 450.73666288308743 L 499.9479214253083 435.2996594778661 L 502.28688899040657 436.9341657207719 L 504.6258565555048 433.1203178206584 L 506.964824120603 442.5641316685585 L 509.3037916857012 451.28149829738936 L 511.64275925079943 437.66061293984114 L 513.9817268158977 435.2996594778661 L 516.3206943809959 429.12485811577756 L 518.659661946094 446.1963677639047 L 520.9986295111923 436.9341657207719 L 523.3375970762905 427.8535754824064 L 525.6765646413887 438.38706015891034 L 528.015532206487 442.5641316685585 L 530.3544997715852 424.03972758229287 L 532.6934673366834 438.5686719636777 L 535.0324349017816 430.0329171396141 L 537.3714024668798 444.5618615209989 L 539.7103700319781 442.3825198637912 L 542.0493375970763 430.57775255391607 L 544.3883051621744 442.20090805902385 L 546.7272727272727 451.4631101021567" stroke-linejoin="bevel" stroke-miterlimit="10" stroke-width="2"/></g></g></g><g clip-path="url(#DVEgTNXiQeaP)"><g><g><path fill="none" stroke="none"/><path fill="none" stroke="#542788" paint-order="fill stroke markers" d=" M 81.27272727272728 539 L 83.6116948378255 533.3700340522134 L 85.95066240292371 535.7309875141884 L 88.28962996802193 528.8297389330307 L 90.62859753312014 529.7377979568672 L 92.96756509821836 535.3677639046539 L 95.30653266331657 528.6481271282634 L 97.64550022841479 529.1929625425653 L 99.984467793513 531.5539160045404 L 102.32343535861122 534.27809307605 L 104.66240292370946 526.8320090805903 L 107.00137048880768 528.6481271282634 L 109.3403380539059 531.372304199773 L 111.67930561900411 530.1010215664019 L 114.01827318410233 520.1123723041998 L 116.35724074920054 521.383654937571 L 118.69620831429876 524.2894438138479 L 121.03517587939697 515.5720771850171 L 123.37414344449519 521.383654937571 L 125.7131110095934 521.5652667423383 L 128.05207857469162 515.7536889897843 L 130.39104613978986 525.5607264472192 L 132.73001370488808 517.5698070374575 L 135.0689812699863 522.1101021566402 L 137.4079488350845 524.6526674233826 L 139.74691640018273 523.0181611804768 L 142.08588396528094 524.2894438138479 L 144.42485153037916 516.2985244040863 L 146.76381909547737 519.5675368898978 L 149.1027866605756 511.9398410896709 L 151.4417542256738 519.5675368898978 L 153.78072179077205 511.39500567536896 L 156.11968935587026 511.9398410896709 L 158.45865692096848 513.3927355278094 L 160.7976244860667 502.67763904653805 L 163.1365920511649 504.13053348467656 L 165.47555961626313 513.9375709421113 L 167.81452718136134 509.7604994324631 L 170.15349474645956 497.5925085130534 L 172.49246231155777 509.0340522133939 L 174.831429876656 487.967082860386 L 177.1703974417542 499.77185017026113 L 179.50936500685245 495.594778660613 L 181.84833257195066 497.955732122588 L 184.18730013704888 477.7968217934166 L 186.5262677021471 488.8751418842225 L 188.8652352672453 478.52326901248586 L 191.20420283234353 494.68671963677644 L 193.54317039744174 467.80817253121455 L 195.88213796253996 465.26560726447224 L 198.2211055276382 482.5187287173667 L 200.5600730927364 474.8910329171397 L 202.89904065783463 476.88876276958007 L 205.23800822293282 482.5187287173667 L 207.57697578803106 477.25198637911467 L 209.91594335312928 454.9137343927356 L 212.2549109182275 472.16685584563 L 214.5938784833257 458.00113507377984 L 216.93284604842393 465.26560726447224 L 219.27181361352214 475.7990919409762 L 221.61078117862036 454.18728717366633 L 223.9497487437186 456.1850170261067 L 226.2887163088168 428.0351872871737 L 228.62768387391503 452.18955732122595 L 230.96665143901322 461.633371169126 L 233.30561900411146 441.47446083995465 L 235.64458656920968 444.5618615209989 L 237.9835541343079 437.1157775255392 L 240.3225216994061 452.3711691259932 L 242.66148926450433 419.1362088535755 L 245.00045682960254 422.5868331441544 L 247.33942439470076 425.1293984108967 L 249.678391959799 415.50397275822934 L 252.0173595248972 413.6878547105562 L 254.35632708999543 417.3200908059024 L 256.6952946550936 426.76390465380257 L 259.03426222019186 430.39614074914874 L 261.37322978529005 401.1566401816118 L 263.7121973503883 404.78887627695804 L 266.05116491548654 404.0624290578888 L 268.3901324805847 405.33371169125996 L 270.72910004568297 390.25993189557323 L 273.06806761078116 407.149829738933 L 275.4070351758794 407.3314415437004 L 277.7460027409776 386.99091940976166 L 280.08497030607583 411.1452894438139 L 282.423937871174 407.69466515323495 L 284.76290543627226 406.6049943246311 L 287.10187300137045 415.1407491486947 L 289.4408405664687 407.87627695800234 L 291.77980813156694 399.522133938706 L 294.1187756966651 394.800227014756 L 296.45774326176337 394.61861520998866 L 298.79671082686156 388.8070374574347 L 301.1356783919598 414.23269012485815 L 303.474645957058 425.67423382519866 L 305.81361352215623 395.88989784335985 L 308.1525810872544 420.7707150964813 L 310.49154865235266 441.2928490351873 L 312.83051621745085 426.03745743473326 L 315.1694837825491 351.93984108967084 L 317.50845134764734 440.9296254256527 L 319.8474189127455 477.9784335981839 L 322.18638647784377 497.0476730987515 L 324.52535404294196 390.80476730987516 L 326.8643216080402 489.60158910329176 L 329.2032891731384 483.4267877412032 L 331.54225673823663 479.6129398410897 L 333.8812243033348 473.8013620885358 L 336.22019186843306 456.00340522133945 L 338.55915943353125 474.70942111237235 L 340.8981269986295 473.43813847900117 L 343.23709456372774 476.34392735527814 L 345.5760621288259 462.17820658342794 L 347.91502969392417 455.2769580022702 L 350.25399725902236 464.9023836549376 L 352.5929648241206 468.8978433598184 L 354.9319323892188 458.00113507377984 L 357.27089995431703 461.99659477866066 L 359.6098675194152 462.17820658342794 L 361.94883508451346 469.261066969353 L 364.28780264961165 461.2701475595914 L 366.6267702147099 471.8036322360954 L 368.96573777980814 472.3484676503973 L 371.3047053449063 475.7990919409762 L 373.64367291000457 476.34392735527814 L 375.98264047510276 463.63110102156645 L 378.321608040201 468.7162315550511 L 380.6605756052992 471.25879682179345 L 382.99954317039743 465.0839954597049 L 385.3385107354957 467.6265607264472 L 387.67747830059386 453.4608399545971 L 390.01644586569205 465.0839954597049 L 392.3554134307903 478.88649262202046 L 394.69438099588854 473.07491486946657 L 397.0333485609867 469.07945516458574 L 399.37231612608497 468.5346197502838 L 401.71128369118316 475.98070374574354 L 404.0502512562814 467.9897843359819 L 406.3892188213796 474.34619750283775 L 408.72818638647783 463.63110102156645 L 411.0671539515761 465.26560726447224 L 413.40612151667426 464.9023836549376 L 415.74508908177245 461.81498297389334 L 418.0840566468707 453.0976163450625 L 420.42302421196894 469.07945516458574 L 422.7619917770671 466.53688989784337 L 425.10095934216537 469.98751418842227 L 427.43992690726355 482.155505107832 L 429.7788944723618 473.2565266742339 L 432.11786203746 467.2633371169126 L 434.45682960255823 470.3507377979569 L 436.7957971676565 461.99659477866066 L 439.13476473275466 449.6469920544836 L 441.47373229785285 470.89557321225885 L 443.8126998629511 463.99432463110105 L 446.15166742804934 467.44494892167995 L 448.4906349931475 474.527809307605 L 450.8296025582457 458.54597048808176 L 453.168570123344 465.0839954597049 L 455.5075376884422 471.62202043132805 L 457.8465052535404 470.5323496027242 L 460.18547281863863 467.44494892167995 L 462.5244403837369 467.0817253121453 L 464.86340794883506 466.53688989784337 L 467.20237551393325 473.9829738933031 L 469.5413430790315 474.1645856980704 L 471.88031064412974 465.26560726447224 L 474.2192782092279 471.9852440408627 L 476.5582457743261 471.4404086265608 L 478.8972133394244 467.6265607264472 L 481.2361809045226 473.43813847900117 L 483.5751484696208 469.44267877412034 L 485.91411603471903 463.99432463110105 L 488.2530835998173 461.81498297389334 L 490.59205116491546 469.44267877412034 L 492.93101873001365 459.0908059023837 L 495.2699862951119 462.17820658342794 L 497.60895386021014 473.8013620885358 L 499.9479214253083 469.261066969353 L 502.28688899040657 463.63110102156645 L 504.6258565555048 472.3484676503973 L 506.964824120603 462.9046538024972 L 509.3037916857012 469.98751418842227 L 511.64275925079943 466.7185017026107 L 513.9817268158977 471.0771850170261 L 516.3206943809959 463.8127128263337 L 518.659661946094 463.0862656072645 L 520.9986295111923 462.72304199772987 L 523.3375970762905 463.63110102156645 L 525.6765646413887 460.18047673098755 L 528.015532206487 470.7139614074915 L 530.3544997715852 465.62883087400684 L 532.6934673366834 460.3620885357549 L 535.0324349017816 457.8195232690125 L 537.3714024668798 472.7116912599319 L 539.7103700319781 470.7139614074915 L 542.0493375970763 463.63110102156645 L 544.3883051621744 476.34392735527814 L 546.7272727272727 473.8013620885358" stroke-linejoin="bevel" stroke-miterlimit="10" stroke-width="2"/></g></g></g><g clip-path="url(#niVVpnMafLNg)"><g><g><path fill="none" stroke="none"/><path fill="none" stroke="#A6CEE3" paint-order="fill stroke markers" d=" M 81.27272727272728 523.1997729852441 L 83.6116948378255 521.383654937571 L 85.95066240292371 518.6594778660614 L 88.28962996802193 512.1214528944382 L 90.62859753312014 511.0317820658343 L 92.96756509821836 518.6594778660614 L 95.30653266331657 504.31214528944383 L 97.64550022841479 508.30760499432466 L 99.984467793513 510.30533484676505 L 102.32343535861122 511.75822928490356 L 104.66240292370946 509.3972758229285 L 107.00137048880768 513.755959137344 L 109.3403380539059 509.57888762769585 L 111.67930561900411 505.9466515323496 L 114.01827318410233 495.7763904653803 L 116.35724074920054 500.13507377979573 L 118.69620831429876 503.0408626560727 L 121.03517587939697 498.86379114642455 L 123.37414344449519 495.9580022701476 L 125.7131110095934 504.31214528944383 L 128.05207857469162 488.8751418842225 L 130.39104613978986 499.4086265607265 L 132.73001370488808 496.86606129398416 L 135.0689812699863 497.955732122588 L 137.4079488350845 501.7695800227015 L 139.74691640018273 500.67990919409766 L 142.08588396528094 505.583427922815 L 144.42485153037916 497.7741203178207 L 146.76381909547737 492.3257661748014 L 149.1027866605756 482.155505107832 L 151.4417542256738 483.2451759364359 L 153.78072179077205 488.14869466515324 L 156.11968935587026 482.70034052213396 L 158.45865692096848 490.32803632236096 L 160.7976244860667 477.433598183882 L 163.1365920511649 474.70942111237235 L 165.47555961626313 477.7968217934166 L 167.81452718136134 474.8910329171397 L 170.15349474645956 455.09534619750286 L 172.49246231155777 458.36435868331444 L 174.831429876656 451.28149829738936 L 177.1703974417542 456.00340522133945 L 179.50936500685245 456.72985244040865 L 181.84833257195066 454.55051078320093 L 184.18730013704888 427.8535754824064 L 186.5262677021471 429.6696935300795 L 188.8652352672453 432.7570942111238 L 191.20420283234353 445.1066969353008 L 193.54317039744174 410.9636776390466 L 195.88213796253996 432.21225879682186 L 198.2211055276382 424.40295119182747 L 200.5600730927364 418.40976163450625 L 202.89904065783463 423.85811577752554 L 205.23800822293282 410.600454029512 L 207.57697578803106 424.5845629965948 L 209.91594335312928 385.9012485811578 L 212.2549109182275 400.06696935300795 L 214.5938784833257 410.4188422247446 L 216.93284604842393 414.0510783200908 L 219.27181361352214 412.05334846765044 L 221.61078117862036 387.71736662883086 L 223.9497487437186 392.9841089670829 L 226.2887163088168 377.0022701475596 L 228.62768387391503 384.6299659477867 L 230.96665143901322 392.43927355278095 L 233.30561900411146 369.7377979568672 L 235.64458656920968 369.3745743473326 L 237.9835541343079 351.75822928490356 L 240.3225216994061 369.011350737798 L 242.66148926450433 347.94438138479006 L 245.00045682960254 321.97389330306476 L 247.33942439470076 345.58342792281496 L 249.678391959799 323.9716231555051 L 252.0173595248972 329.60158910329176 L 254.35632708999543 330.32803632236096 L 256.6952946550936 327.0590238365494 L 259.03426222019186 340.6799091940976 L 261.37322978529005 305.62883087400684 L 263.7121973503883 302.90465380249714 L 266.05116491548654 295.82179341657206 L 268.3901324805847 317.61520998864927 L 270.72910004568297 299.6356413166856 L 273.06806761078116 309.44267877412034 L 275.4070351758794 312.3484676503973 L 277.7460027409776 287.46765039727586 L 280.08497030607583 327.78547105561864 L 282.423937871174 306.53688989784337 L 284.76290543627226 333.0522133938706 L 287.10187300137045 326.3325766174802 L 289.4408405664687 313.43813847900117 L 291.77980813156694 325.78774120317826 L 294.1187756966651 311.25879682179345 L 296.45774326176337 315.9807037457435 L 298.79671082686156 280.7480136208854 L 301.1356783919598 345.2202043132804 L 303.474645957058 338.3189557321226 L 305.81361352215623 294.91373439273553 L 308.1525810872544 341.40635641316686 L 310.49154865235266 368.1032917139614 L 312.83051621745085 325.4245175936436 L 315.1694837825491 219 L 317.50845134764734 376.4574347332577 L 319.8474189127455 414.59591373439275 L 322.18638647784377 442.7457434733258 L 324.52535404294196 272.03064699205447 L 326.8643216080402 443.2905788876277 L 329.2032891731384 432.39387060158913 L 331.54225673823663 400.6118047673099 L 333.8812243033348 409.6923950056754 L 336.22019186843306 397.3427922814983 L 338.55915943353125 414.59591373439275 L 340.8981269986295 416.41203178206587 L 343.23709456372774 394.4370034052214 L 345.5760621288259 403.51759364358685 L 347.91502969392417 381.1793416572077 L 350.25399725902236 391.3496027241771 L 352.5929648241206 401.70147559591373 L 354.9319323892188 392.8024971623156 L 357.27089995431703 408.7843359818388 L 359.6098675194152 410.05561861521005 L 361.94883508451346 396.7979568671964 L 364.28780264961165 408.2395005675369 L 366.6267702147099 389.89670828603863 L 368.96573777980814 409.14755959137347 L 371.3047053449063 400.7934165720772 L 373.64367291000457 415.50397275822934 L 375.98264047510276 402.6095346197503 L 378.321608040201 415.50397275822934 L 380.6605756052992 403.88081725312145 L 382.99954317039743 394.9818388195233 L 385.3385107354957 415.50397275822934 L 387.67747830059386 379.54483541430193 L 390.01644586569205 413.5062429057889 L 392.3554134307903 416.41203178206587 L 394.69438099588854 406.06015891032916 L 397.0333485609867 402.427922814983 L 399.37231612608497 406.24177071509655 L 401.71128369118316 409.6923950056754 L 404.0502512562814 399.70374574347335 L 406.3892188213796 413.3246311010216 L 408.72818638647783 405.33371169125996 L 411.0671539515761 406.24177071509655 L 413.40612151667426 397.16118047673103 L 415.74508908177245 396.6163450624291 L 418.0840566468707 389.3518728717367 L 420.42302421196894 406.24177071509655 L 422.7619917770671 402.6095346197503 L 425.10095934216537 412.05334846765044 L 427.43992690726355 423.49489216799094 L 429.7788944723618 386.627695800227 L 432.11786203746 412.05334846765044 L 434.45682960255823 405.33371169125996 L 436.7957971676565 403.3359818388195 L 439.13476473275466 382.2690124858116 L 441.47373229785285 394.4370034052214 L 443.8126998629511 390.44154370034056 L 446.15166742804934 401.51986379114646 L 448.4906349931475 406.24177071509655 L 450.8296025582457 396.7979568671964 L 453.168570123344 387.17253121452893 L 455.5075376884422 407.69466515323495 L 457.8465052535404 385.53802497162314 L 460.18547281863863 390.25993189557323 L 462.5244403837369 399.70374574347335 L 464.86340794883506 403.3359818388195 L 467.20237551393325 419.4994324631101 L 469.5413430790315 414.59591373439275 L 471.88031064412974 406.24177071509655 L 474.2192782092279 404.78887627695804 L 476.5582457743261 396.25312145289445 L 478.8972133394244 389.89670828603863 L 481.2361809045226 386.627695800227 L 483.5751484696208 401.1566401816118 L 485.91411603471903 403.15437003405225 L 488.2530835998173 405.51532349602724 L 490.59205116491546 418.40976163450625 L 492.93101873001365 393.5289443813848 L 495.2699862951119 399.70374574347335 L 497.60895386021014 403.6992054483542 L 499.9479214253083 391.71282633371175 L 502.28688899040657 392.6208853575483 L 504.6258565555048 403.6992054483542 L 506.964824120603 397.52440408626563 L 509.3037916857012 405.51532349602724 L 511.64275925079943 399.34052213393875 L 513.9817268158977 402.9727582292849 L 516.3206943809959 408.7843359818388 L 518.659661946094 398.43246311010216 L 520.9986295111923 394.800227014756 L 523.3375970762905 398.2508513053349 L 525.6765646413887 394.61861520998866 L 528.015532206487 410.05561861521005 L 530.3544997715852 397.16118047673103 L 532.6934673366834 402.427922814983 L 535.0324349017816 393.89216799091946 L 537.3714024668798 406.7866061293985 L 539.7103700319781 397.3427922814983 L 542.0493375970763 391.894438138479 L 544.3883051621744 396.25312145289445 L 546.7272727272727 404.0624290578888" stroke-linejoin="bevel" stroke-miterlimit="10" stroke-width="2"/></g></g></g><g clip-path="url(#xbPRSQrxzsQk)"><g><g><path fill="none" stroke="none"/><path fill="none" stroke="#B2DF8A" paint-order="fill stroke markers" d=" M 81.27272727272728 529.5561861520999 L 83.6116948378255 528.4665153234961 L 85.95066240292371 527.9216799091942 L 88.28962996802193 526.1055618615211 L 90.62859753312014 524.2894438138479 L 92.96756509821836 526.4687854710556 L 95.30653266331657 516.4801362088537 L 97.64550022841479 524.8342792281499 L 99.984467793513 518.6594778660614 L 102.32343535861122 523.1997729852441 L 104.66240292370946 523.744608399546 L 107.00137048880768 527.0136208853576 L 109.3403380539059 521.7468785471056 L 111.67930561900411 523.0181611804768 L 114.01827318410233 508.489216799092 L 116.35724074920054 515.5720771850171 L 118.69620831429876 517.2065834279229 L 121.03517587939697 515.2088535754824 L 123.37414344449519 516.116912599319 L 125.7131110095934 520.2939841089672 L 128.05207857469162 510.6685584562997 L 130.39104613978986 511.21339387060164 L 132.73001370488808 519.0227014755959 L 135.0689812699863 512.8479001135074 L 137.4079488350845 512.3030646992055 L 139.74691640018273 510.6685584562997 L 142.08588396528094 518.1146424517594 L 144.42485153037916 508.30760499432466 L 146.76381909547737 506.12826333711695 L 149.1027866605756 505.2202043132804 L 151.4417542256738 509.94211123723045 L 153.78072179077205 501.7695800227015 L 156.11968935587026 507.0363223609535 L 158.45865692096848 498.50056753688995 L 160.7976244860667 489.05675368898983 L 163.1365920511649 500.861520998865 L 165.47555961626313 491.4177071509648 L 167.81452718136134 493.23382519863793 L 170.15349474645956 480.15777525539164 L 172.49246231155777 486.15096481271286 L 174.831429876656 473.2565266742339 L 177.1703974417542 477.0703745743474 L 179.50936500685245 485.6061293984109 L 181.84833257195066 483.60839954597054 L 184.18730013704888 468.3530079455165 L 186.5262677021471 466.53688989784337 L 188.8652352672453 470.5323496027242 L 191.20420283234353 467.80817253121455 L 193.54317039744174 453.2792281498298 L 195.88213796253996 459.81725312145295 L 198.2211055276382 459.0908059023837 L 200.5600730927364 452.18955732122595 L 202.89904065783463 456.911464245176 L 205.23800822293282 456.36662883087405 L 207.57697578803106 455.6401816118048 L 209.91594335312928 433.6651532349603 L 212.2549109182275 454.005675368899 L 214.5938784833257 446.1963677639047 L 216.93284604842393 443.2905788876277 L 219.27181361352214 458.90919409761636 L 221.61078117862036 433.84676503972764 L 223.9497487437186 425.67423382519866 L 226.2887163088168 424.9477866061294 L 228.62768387391503 434.20998864926224 L 230.96665143901322 438.9318955732123 L 233.30561900411146 423.85811577752554 L 235.64458656920968 417.1384790011351 L 237.9835541343079 411.8717366628831 L 240.3225216994061 419.86265607264477 L 242.66148926450433 405.33371169125996 L 245.00045682960254 391.3496027241771 L 247.33942439470076 395.52667423382525 L 249.678391959799 394.4370034052214 L 252.0173595248972 391.894438138479 L 254.35632708999543 398.06923950056756 L 256.6952946550936 387.5357548240636 L 259.03426222019186 388.9886492622021 L 261.37322978529005 368.8297389330307 L 263.7121973503883 349.3972758229285 L 266.05116491548654 357.20658342792285 L 268.3901324805847 368.8297389330307 L 270.72910004568297 363.744608399546 L 273.06806761078116 356.116912599319 L 275.4070351758794 373.0068104426788 L 277.7460027409776 358.84108967082864 L 280.08497030607583 386.8093076049944 L 282.423937871174 366.46878547105564 L 284.76290543627226 386.0828603859251 L 287.10187300137045 374.64131668558457 L 289.4408405664687 380.8161180476731 L 291.77980813156694 367.74006810442677 L 294.1187756966651 354.3007945516459 L 296.45774326176337 372.6435868331442 L 298.79671082686156 339.22701475595915 L 301.1356783919598 395.7082860385925 L 303.474645957058 400.6118047673099 L 305.81361352215623 364.6526674233826 L 308.1525810872544 401.1566401816118 L 310.49154865235266 419.31782065834284 L 312.83051621745085 374.27809307604997 L 315.1694837825491 294.3688989784336 L 317.50845134764734 422.0419977298525 L 319.8474189127455 450.73666288308743 L 322.18638647784377 468.5346197502838 L 324.52535404294196 339.4086265607265 L 326.8643216080402 475.4358683314416 L 329.2032891731384 460.7253121452895 L 331.54225673823663 447.28603859250853 L 333.8812243033348 457.0930760499433 L 336.22019186843306 442.9273552780931 L 338.55915943353125 459.0908059023837 L 340.8981269986295 449.10215664018165 L 343.23709456372774 452.18955732122595 L 345.5760621288259 437.8422247446084 L 347.91502969392417 436.02610669693536 L 350.25399725902236 436.75255391600456 L 352.5929648241206 444.7434733257662 L 354.9319323892188 431.122587968218 L 357.27089995431703 448.19409761634506 L 359.6098675194152 440.7480136208854 L 361.94883508451346 449.46538024971625 L 364.28780264961165 438.750283768445 L 366.6267702147099 436.75255391600456 L 368.96573777980814 442.0192962542566 L 371.3047053449063 448.5573212258797 L 373.64367291000457 446.1963677639047 L 375.98264047510276 442.20090805902385 L 378.321608040201 449.6469920544836 L 380.6605756052992 435.84449489216803 L 382.99954317039743 448.738933030647 L 385.3385107354957 452.18955732122595 L 387.67747830059386 430.94097616345067 L 390.01644586569205 449.8286038592509 L 392.3554134307903 451.28149829738936 L 394.69438099588854 459.272417707151 L 397.0333485609867 448.3757094211124 L 399.37231612608497 444.7434733257662 L 401.71128369118316 452.7343927355279 L 404.0502512562814 451.8263337116913 L 406.3892188213796 452.18955732122595 L 408.72818638647783 441.83768444948925 L 411.0671539515761 461.99659477866066 L 413.40612151667426 448.738933030647 L 415.74508908177245 446.377979568672 L 418.0840566468707 435.2996594778661 L 420.42302421196894 446.5595913734393 L 422.7619917770671 440.20317820658346 L 425.10095934216537 453.0976163450625 L 427.43992690726355 454.18728717366633 L 429.7788944723618 447.46765039727586 L 432.11786203746 453.82406356413173 L 434.45682960255823 443.65380249716236 L 436.7957971676565 446.377979568672 L 439.13476473275466 424.5845629965948 L 441.47373229785285 432.57548240635646 L 443.8126998629511 440.7480136208854 L 446.15166742804934 446.01475595913735 L 448.4906349931475 444.5618615209989 L 450.8296025582457 433.84676503972764 L 453.168570123344 432.39387060158913 L 455.5075376884422 441.2928490351873 L 457.8465052535404 446.7412031782066 L 460.18547281863863 440.20317820658346 L 462.5244403837369 448.3757094211124 L 464.86340794883506 440.02156640181613 L 467.20237551393325 456.00340522133945 L 469.5413430790315 447.1044267877412 L 471.88031064412974 457.0930760499433 L 474.2192782092279 450.0102156640182 L 476.5582457743261 441.47446083995465 L 478.8972133394244 438.02383654937574 L 481.2361809045226 440.3847900113508 L 483.5751484696208 436.5709421112373 L 485.91411603471903 439.4767309875142 L 488.2530835998173 444.5618615209989 L 490.59205116491546 453.2792281498298 L 492.93101873001365 440.56640181611806 L 495.2699862951119 439.4767309875142 L 497.60895386021014 441.6560726447219 L 499.9479214253083 440.3847900113508 L 502.28688899040657 442.7457434733258 L 504.6258565555048 443.47219069239503 L 506.964824120603 446.92281498297393 L 509.3037916857012 461.633371169126 L 511.64275925079943 441.11123723042 L 513.9817268158977 445.1066969353008 L 516.3206943809959 445.28830874006815 L 518.659661946094 454.9137343927356 L 520.9986295111923 434.57321225879684 L 523.3375970762905 446.7412031782066 L 525.6765646413887 440.9296254256527 L 528.015532206487 448.5573212258797 L 530.3544997715852 446.5595913734393 L 532.6934673366834 441.83768444948925 L 535.0324349017816 441.11123723042 L 537.3714024668798 450.5550510783201 L 539.7103700319781 449.283768444949 L 542.0493375970763 438.9318955732123 L 544.3883051621744 445.65153234960275 L 546.7272727272727 453.4608399545971" stroke-linejoin="bevel" stroke-miterlimit="10" stroke-width="2"/></g></g></g><g><g/><g><path fill="#ffffff" stroke="#e5e5e5" paint-order="fill stroke markers" d=" M 68 38 L 462.3125 38 L 462.3125 193 L 68 193 L 68 38 Z" fill-opacity="0.95" stroke-linejoin="bevel" stroke-miterlimit="10" stroke-opacity="0.5"/><text fill="#444444" stroke="none" font-family="helvetica" font-size="10pt" font-style="normal" font-weight="normal" text-decoration="normal" x="103" y="58" text-anchor="start" dominant-baseline="central">may7_fluc_rep01_ACGCTG.fastqAligned.primary.out_dedup</text><g><path fill="none" stroke="#1F78B4" paint-order="fill stroke markers" d=" M 78 58 L 98 58" stroke-linejoin="bevel" stroke-miterlimit="10" stroke-width="2"/></g><text fill="#444444" stroke="none" font-family="helvetica" font-size="10pt" font-style="normal" font-weight="normal" text-decoration="normal" x="103" y="81" text-anchor="start" dominant-baseline="central">may7_fluc_rep02_GTGATC.fastqAligned.primary.out_dedup</text><g><path fill="none" stroke="#33A02C" paint-order="fill stroke markers" d=" M 78 81 L 98 81" stroke-linejoin="bevel" stroke-miterlimit="10" stroke-width="2"/></g><text fill="#444444" stroke="none" font-family="helvetica" font-size="10pt" font-style="normal" font-weight="normal" text-decoration="normal" x="103" y="104" text-anchor="start" dominant-baseline="central">may7_fluc_rep03_ACTGGT.fastqAligned.primary.out_dedup</text><g><path fill="none" stroke="#C51B7D" paint-order="fill stroke markers" d=" M 78 104 L 98 104" stroke-linejoin="bevel" stroke-miterlimit="10" stroke-width="2"/></g><text fill="#444444" stroke="none" font-family="helvetica" font-size="10pt" font-style="normal" font-weight="normal" text-decoration="normal" x="103" y="127" text-anchor="start" dominant-baseline="central">may7_ut_rep01_CGTGCA.fastqAligned.primary.out_dedup</text><g><path fill="none" stroke="#542788" paint-order="fill stroke markers" d=" M 78 127 L 98 127" stroke-linejoin="bevel" stroke-miterlimit="10" stroke-width="2"/></g><text fill="#444444" stroke="none" font-family="helvetica" font-size="10pt" font-style="normal" font-weight="normal" text-decoration="normal" x="103" y="150" text-anchor="start" dominant-baseline="central">may7_ut_rep02_TAATGT.fastqAligned.primary.out_dedup</text><g><path fill="none" stroke="#A6CEE3" paint-order="fill stroke markers" d=" M 78 150 L 98 150" stroke-linejoin="bevel" stroke-miterlimit="10" stroke-width="2"/></g><text fill="#444444" stroke="none" font-family="helvetica" font-size="10pt" font-style="normal" font-weight="normal" text-decoration="normal" x="103" y="173" text-anchor="start" dominant-baseline="central">may7_ut_rep03_CTACAC.fastqAligned.primary.out_dedup</text><g><path fill="none" stroke="#B2DF8A" paint-order="fill stroke markers" d=" M 78 173 L 98 173" stroke-linejoin="bevel" stroke-miterlimit="10" stroke-width="2"/></g></g></g><g><g fill="#444444"><path fill="" stroke="none" d=""/><g transform="translate(58,23)"><path fill="none" stroke="none"/><text fill="" stroke="none" font-family="helvetica" font-size="10pt" font-style="normal" font-weight="bold" text-decoration="normal" x="0" y="0" text-anchor="start" dominant-baseline="text-after-edge">metagene_counts-START_raw</text></g></g></g><g/><g><g fill="#444444"><path fill="none" stroke="black" paint-order="fill stroke markers" d=" M 58 555 L 570 555" stroke-linejoin="bevel" stroke-miterlimit="10"/><path fill="none" stroke="black" paint-order="fill stroke markers" d=" M 81 561 L 81 553" stroke-linejoin="bevel" stroke-miterlimit="10"/><path fill="none" stroke="black" paint-order="fill stroke markers" d=" M 198 561 L 198 553" stroke-linejoin="bevel" stroke-miterlimit="10"/><path fill="none" stroke="black" paint-order="fill stroke markers" d=" M 315 561 L 315 553" stroke-linejoin="bevel" stroke-miterlimit="10"/><path fill="none" stroke="black" paint-order="fill stroke markers" d=" M 432 561 L 432 553" stroke-linejoin="bevel" stroke-miterlimit="10"/><path fill="none" stroke="black" paint-order="fill stroke markers" d=" M 549 561 L 549 553" stroke-linejoin="bevel" stroke-miterlimit="10"/><path fill="none" stroke="black" paint-order="fill stroke markers" d=" M 81 559 L 81 555" stroke-linejoin="bevel" stroke-miterlimit="10"/><path fill="none" stroke="black" paint-order="fill stroke markers" d=" M 105 559 L 105 555" stroke-linejoin="bevel" stroke-miterlimit="10"/><path fill="none" stroke="black" paint-order="fill stroke markers" d=" M 128 559 L 128 555" stroke-linejoin="bevel" stroke-miterlimit="10"/><path fill="none" stroke="black" paint-order="fill stroke markers" d=" M 151 559 L 151 555" stroke-linejoin="bevel" stroke-miterlimit="10"/><path fill="none" stroke="black" paint-order="fill stroke markers" d=" M 175 559 L 175 555" stroke-linejoin="bevel" stroke-miterlimit="10"/><path fill="none" stroke="black" paint-order="fill stroke markers" d=" M 198 559 L 198 555" stroke-linejoin="bevel" stroke-miterlimit="10"/><path fill="none" stroke="black" paint-order="fill stroke markers" d=" M 222 559 L 222 555" stroke-linejoin="bevel" stroke-miterlimit="10"/><path fill="none" stroke="black" paint-order="fill stroke markers" d=" M 245 559 L 245 555" stroke-linejoin="bevel" stroke-miterlimit="10"/><path fill="none" stroke="black" paint-order="fill stroke markers" d=" M 268 559 L 268 555" stroke-linejoin="bevel" stroke-miterlimit="10"/><path fill="none" stroke="black" paint-order="fill stroke markers" d=" M 292 559 L 292 555" stroke-linejoin="bevel" stroke-miterlimit="10"/><path fill="none" stroke="black" paint-order="fill stroke markers" d=" M 315 559 L 315 555" stroke-linejoin="bevel" stroke-miterlimit="10"/><path fill="none" stroke="black" paint-order="fill stroke markers" d=" M 339 559 L 339 555" stroke-linejoin="bevel" stroke-miterlimit="10"/><path fill="none" stroke="black" paint-order="fill stroke markers" d=" M 362 559 L 362 555" stroke-linejoin="bevel" stroke-miterlimit="10"/><path fill="none" stroke="black" paint-order="fill stroke markers" d=" M 385 559 L 385 555" stroke-linejoin="bevel" stroke-miterlimit="10"/><path fill="none" stroke="black" paint-order="fill stroke markers" d=" M 409 559 L 409 555" stroke-linejoin="bevel" stroke-miterlimit="10"/><path fill="none" stroke="black" paint-order="fill stroke markers" d=" M 432 559 L 432 555" stroke-linejoin="bevel" stroke-miterlimit="10"/><path fill="none" stroke="black" paint-order="fill stroke markers" d=" M 456 559 L 456 555" stroke-linejoin="bevel" stroke-miterlimit="10"/><path fill="none" stroke="black" paint-order="fill stroke markers" d=" M 479 559 L 479 555" stroke-linejoin="bevel" stroke-miterlimit="10"/><path fill="none" stroke="black" paint-order="fill stroke markers" d=" M 502 559 L 502 555" stroke-linejoin="bevel" stroke-miterlimit="10"/><path fill="none" stroke="black" paint-order="fill stroke markers" d=" M 526 559 L 526 555" stroke-linejoin="bevel" stroke-miterlimit="10"/><path fill="" stroke="black" paint-order="fill stroke markers" d=" M 549 559 L 549 555" stroke-linejoin="bevel" stroke-miterlimit="10"/><g transform="translate(81,566) rotate(0,0,0)"><text fill="" stroke="none" font-family="helvetica" font-size="8pt" font-style="normal" font-weight="normal" text-decoration="normal" x="0" y="0" text-anchor="middle" dominant-baseline="hanging">-100</text><g transform="rotate(0,0,0) translate(-81,-566) translate(198,566) rotate(0,0,0)"><text fill="" stroke="none" font-family="helvetica" font-size="8pt" font-style="normal" font-weight="normal" text-decoration="normal" x="0" y="0" text-anchor="middle" dominant-baseline="hanging">-50</text><g transform="rotate(0,0,0) translate(-198,-566) translate(315,566) rotate(0,0,0)"><text fill="" stroke="none" font-family="helvetica" font-size="8pt" font-style="normal" font-weight="normal" text-decoration="normal" x="0" y="0" text-anchor="middle" dominant-baseline="hanging">0</text><g transform="rotate(0,0,0) translate(-315,-566) translate(432,566) rotate(0,0,0)"><text fill="" stroke="none" font-family="helvetica" font-size="8pt" font-style="normal" font-weight="normal" text-decoration="normal" x="0" y="0" text-anchor="middle" dominant-baseline="hanging">50</text><g transform="rotate(0,0,0) translate(-432,-566) translate(549,566) rotate(0,0,0)"><text fill="" stroke="none" font-family="helvetica" font-size="8pt" font-style="normal" font-weight="normal" text-decoration="normal" x="0" y="0" text-anchor="middle" dominant-baseline="hanging">100</text><g transform="rotate(0,0,0) translate(-549,-566) translate(314,584) rotate(0,0,0)"><text fill="" stroke="none" font-family="helvetica" font-size="10pt" font-style="italic" font-weight="normal" text-decoration="normal" x="0" y="0" text-anchor="middle" dominant-baseline="hanging">position from START</text><g transform="rotate(0,0,0) translate(-314,-584)"/></g></g></g></g></g></g></g></g><g><g fill="#444444"><path fill="none" stroke="black" paint-order="fill stroke markers" d=" M 58 555 L 58 203" stroke-linejoin="bevel" stroke-miterlimit="10"/><path fill="none" stroke="black" paint-order="fill stroke markers" d=" M 52 466 L 60 466" stroke-linejoin="bevel" stroke-miterlimit="10"/><path fill="none" stroke="black" paint-order="fill stroke markers" d=" M 52 375 L 60 375" stroke-linejoin="bevel" stroke-miterlimit="10"/><path fill="none" stroke="black" paint-order="fill stroke markers" d=" M 52 284 L 60 284" stroke-linejoin="bevel" stroke-miterlimit="10"/><path fill="none" stroke="black" paint-order="fill stroke markers" d=" M 54 484 L 58 484" stroke-linejoin="bevel" stroke-miterlimit="10"/><path fill="none" stroke="black" paint-order="fill stroke markers" d=" M 54 502 L 58 502" stroke-linejoin="bevel" stroke-miterlimit="10"/><path fill="none" stroke="black" paint-order="fill stroke markers" d=" M 54 520 L 58 520" stroke-linejoin="bevel" stroke-miterlimit="10"/><path fill="none" stroke="black" paint-order="fill stroke markers" d=" M 54 538 L 58 538" stroke-linejoin="bevel" stroke-miterlimit="10"/><path fill="none" stroke="black" paint-order="fill stroke markers" d=" M 54 466 L 58 466" stroke-linejoin="bevel" stroke-miterlimit="10"/><path fill="none" stroke="black" paint-order="fill stroke markers" d=" M 54 448 L 58 448" stroke-linejoin="bevel" stroke-miterlimit="10"/><path fill="none" stroke="black" paint-order="fill stroke markers" d=" M 54 429 L 58 429" stroke-linejoin="bevel" stroke-miterlimit="10"/><path fill="none" stroke="black" paint-order="fill stroke markers" d=" M 54 411 L 58 411" stroke-linejoin="bevel" stroke-miterlimit="10"/><path fill="none" stroke="black" paint-order="fill stroke markers" d=" M 54 393 L 58 393" stroke-linejoin="bevel" stroke-miterlimit="10"/><path fill="none" stroke="black" paint-order="fill stroke markers" d=" M 54 375 L 58 375" stroke-linejoin="bevel" stroke-miterlimit="10"/><path fill="none" stroke="black" paint-order="fill stroke markers" d=" M 54 357 L 58 357" stroke-linejoin="bevel" stroke-miterlimit="10"/><path fill="none" stroke="black" paint-order="fill stroke markers" d=" M 54 339 L 58 339" stroke-linejoin="bevel" stroke-miterlimit="10"/><path fill="none" stroke="black" paint-order="fill stroke markers" d=" M 54 321 L 58 321" stroke-linejoin="bevel" stroke-miterlimit="10"/><path fill="none" stroke="black" paint-order="fill stroke markers" d=" M 54 302 L 58 302" stroke-linejoin="bevel" stroke-miterlimit="10"/><path fill="none" stroke="black" paint-order="fill stroke markers" d=" M 54 284 L 58 284" stroke-linejoin="bevel" stroke-miterlimit="10"/><path fill="none" stroke="black" paint-order="fill stroke markers" d=" M 54 266 L 58 266" stroke-linejoin="bevel" stroke-miterlimit="10"/><path fill="none" stroke="black" paint-order="fill stroke markers" d=" M 54 248 L 58 248" stroke-linejoin="bevel" stroke-miterlimit="10"/><path fill="none" stroke="black" paint-order="fill stroke markers" d=" M 54 230 L 58 230" stroke-linejoin="bevel" stroke-miterlimit="10"/><path fill="" stroke="black" paint-order="fill stroke markers" d=" M 54 212 L 58 212" stroke-linejoin="bevel" stroke-miterlimit="10"/><g transform="translate(47,466) rotate(0,0,0)"><text fill="" stroke="none" font-family="helvetica" font-size="8pt" font-style="normal" font-weight="normal" text-decoration="normal" x="0" y="0" text-anchor="end" dominant-baseline="central">500</text><g transform="rotate(0,0,0) translate(-47,-466) translate(47,375) rotate(0,0,0)"><text fill="" stroke="none" font-family="helvetica" font-size="8pt" font-style="normal" font-weight="normal" text-decoration="normal" x="0" y="0" text-anchor="end" dominant-baseline="central">1000</text><g transform="rotate(0,0,0) translate(-47,-375) translate(47,284) rotate(0,0,0)"><text fill="" stroke="none" font-family="helvetica" font-size="8pt" font-style="normal" font-weight="normal" text-decoration="normal" x="0" y="0" text-anchor="end" dominant-baseline="central">1500</text><g transform="rotate(0,0,0) translate(-47,-284) translate(15,379) rotate(-90,0,0)"><text fill="" stroke="none" font-family="helvetica" font-size="10pt" font-style="italic" font-weight="normal" text-decoration="normal" x="0" y="0" text-anchor="middle" dominant-baseline="alphabetic">5'seq raw counts</text><g transform="rotate(90,0,0) translate(-15,-379)"/></g></g></g></g></g></g><g clip-path="url(#HlOWfNgxyBve)"><g/></g></g></g></svg>