<svg version="1.1" xmlns="http://www.w3.org/2000/svg" xmlns:xlink="http://www.w3.org/1999/xlink" width="600" height="600" style="width: 600px; height: 600px;"><defs><clipPath id="dthmrhRXSzQE"><path fill="none" stroke="none" d=" M 65 203 L 570 203 L 570 555 L 65 555 L 65 203 Z"/></clipPath><clipPath id="mzvQPWEoNzmI"><path fill="none" stroke="none" d=" M 65 203 L 570 203 L 570 555 L 65 555 L 65 203 Z"/></clipPath><clipPath id="nBOibgsDzmhb"><path fill="none" stroke="none" d=" M 65 203 L 570 203 L 570 555 L 65 555 L 65 203 Z"/></clipPath><clipPath id="hTTmKGuTJgyE"><path fill="none" stroke="none" d=" M 65 203 L 570 203 L 570 555 L 65 555 L 65 203 Z"/></clipPath><clipPath id="QmoQoQFMpbXr"><path fill="none" stroke="none" d=" M 65 203 L 570 203 L 570 555 L 65 555 L 65 203 Z"/></clipPath><clipPath id="hoxyESKZnTrv"><path fill="none" stroke="none" d=" M 65 203 L 570 203 L 570 555 L 65 555 L 65 203 Z"/></clipPath><clipPath id="xthzKWpWhIgH"><path fill="none" stroke="none" d=" M 65 203 L 570 203 L 570 555 L 65 555 L 65 203 Z"/></clipPath><clipPath id="zWHTMwUmCIVr"><path fill="none" stroke="none" d=" M 65 203 L 570 203 L 570 555 L 65 555 L 65 203 Z"/></clipPath><clipPath id="qCXxGnLROWUE"><path fill="none" stroke="none" d=" M 65 203 L 570 203 L 570 555 L 65 555 L 65 203 Z"/></clipPath></defs><g><g/><g/><g/><g transform="scale(1,1) translate(0.5,0.5)"><rect fill="#FFFFFF" stroke="none" x="0" y="0" width="600" height="600"/><rect fill="#ffffff" stroke="none" x="0" y="0" width="600" height="600"/><rect fill="#FFFFFF" stroke="none" x="65" y="203" width="505" height="352"/><rect fill="#ffffff" stroke="none" x="65" y="203" width="505" height="352"/><g><rect fill="none" stroke="#e5e5e5" x="65" y="203" width="505" height="352" stroke-linejoin="bevel" stroke-miterlimit="10"/></g><g clip-path="url(#dthmrhRXSzQE)"><g><g><path fill="none" stroke="#e5e5e5" paint-order="fill stroke markers" d=" M 88 555 L 88 203" stroke-linejoin="bevel" stroke-miterlimit="10"/><path fill="none" stroke="#e5e5e5" paint-order="fill stroke markers" d=" M 160 555 L 160 203" stroke-linejoin="bevel" stroke-miterlimit="10"/><path fill="none" stroke="#e5e5e5" paint-order="fill stroke markers" d=" M 231 555 L 231 203" stroke-linejoin="bevel" stroke-miterlimit="10"/><path fill="none" stroke="#e5e5e5" paint-order="fill stroke markers" d=" M 303 555 L 303 203" stroke-linejoin="bevel" stroke-miterlimit="10"/><path fill="none" stroke="#e5e5e5" paint-order="fill stroke markers" d=" M 375 555 L 375 203" stroke-linejoin="bevel" stroke-miterlimit="10"/><path fill="none" stroke="#e5e5e5" paint-order="fill stroke markers" d=" M 447 555 L 447 203" stroke-linejoin="bevel" stroke-miterlimit="10"/><path fill="none" stroke="#e5e5e5" paint-order="fill stroke markers" d=" M 518 555 L 518 203" stroke-linejoin="bevel" stroke-miterlimit="10"/></g></g></g><g clip-path="url(#mzvQPWEoNzmI)"><g><g><path fill="none" stroke="#e5e5e5" paint-order="fill stroke markers" d=" M 65 499 L 570 499" stroke-linejoin="bevel" stroke-miterlimit="10"/><path fill="none" stroke="#e5e5e5" paint-order="fill stroke markers" d=" M 65 442 L 570 442" stroke-linejoin="bevel" stroke-miterlimit="10"/><path fill="none" stroke="#e5e5e5" paint-order="fill stroke markers" d=" M 65 386 L 570 386" stroke-linejoin="bevel" stroke-miterlimit="10"/><path fill="none" stroke="#e5e5e5" paint-order="fill stroke markers" d=" M 65 329 L 570 329" stroke-linejoin="bevel" stroke-miterlimit="10"/><path fill="none" stroke="#e5e5e5" paint-order="fill stroke markers" d=" M 65 273 L 570 273" stroke-linejoin="bevel" stroke-miterlimit="10"/><path fill="none" stroke="#e5e5e5" paint-order="fill stroke markers" d=" M 65 216 L 570 216" stroke-linejoin="bevel" stroke-miterlimit="10"/></g></g></g><g clip-path="url(#nBOibgsDzmhb)"><g><g><path fill="none" stroke="none"/><path fill="none" stroke="#1F78B4" paint-order="fill stroke markers" d=" M 87.9545454545455 441.19075879780337 L 102.30113636363643 408.4800145909294 L 116.64772727272731 455.6077164297219 L 130.99431818181824 413.5683525786653 L 145.34090909090912 406.4204492149411 L 159.68750000000006 452.942396531384 L 174.03409090909093 387.39975721316614 L 188.38068181818187 440.22155156204406 L 202.72727272727275 456.4557727610111 L 217.07386363636368 384.61328641035834 L 231.42045454545456 439.7369479441645 L 245.7670454545455 427.13725387929435 L 260.1136363636364 386.0670972639971 L 274.4602272727273 412.11454172502636 L 288.80681818181824 437.19277895029654 L 303.1534090909091 322.5840233217675 L 317.5 406.0569965015311 L 331.84659090909093 466.51129783201316 L 346.19318181818187 366.6829525488124 L 360.53977272727275 432.95249729385 L 374.8863636363636 467.1170523543626 L 389.23295454545456 421.9277649870885 L 403.5795454545455 388.2478135444553 L 417.9261363636364 428.10646111505366 L 432.2727272727273 398.3033386154575 L 446.6193181818182 391.7611897740826 L 460.9659090909091 494.49715676456094 L 475.3125 441.06960789333334 L 489.65909090909093 503.7046255042736 L 504.0056818181818 435.37551538324783 L 518.3522727272727 276.3043778142644 L 532.6988636363636 219 L 547.0454545454546 401.3321112272049" stroke-linejoin="bevel" stroke-miterlimit="10" stroke-width="2"/></g></g></g><g clip-path="url(#hTTmKGuTJgyE)"><g><g><path fill="none" stroke="none"/><path fill="none" stroke="#33A02C" paint-order="fill stroke markers" d=" M 87.9545454545455 419.25607227958153 L 102.30113636363643 411.2232013697262 L 116.64772727272731 456.04429267833996 L 130.99431818181824 406.56646461038986 L 145.34090909090912 393.87685694119773 L 159.68750000000006 479.44439489400577 L 174.03409090909093 378.3932072164041 L 188.38068181818187 430.66507733995604 L 202.72727272727275 478.16379228518815 L 217.07386363636368 374.20214413300096 L 231.42045454545456 416.6948670619465 L 245.7670454545455 445.91589022678295 L 260.1136363636364 337.53034215322623 L 274.4602272727273 381.8857597859062 L 288.80681818181824 470.480176632283 L 303.1534090909091 352.19906294513635 L 317.5 391.0828148855958 L 331.84659090909093 453.48308746070484 L 346.19318181818187 352.43189978310306 L 360.53977272727275 438.581529830828 L 374.8863636363636 457.79056896309123 L 389.23295454545456 378.0439519594536 L 403.5795454545455 409.0112514090415 L 417.9261363636364 429.0352194741881 L 432.2727272727273 387.00817022117644 L 446.6193181818182 395.8559700639157 L 460.9659090909091 492.5996762391313 L 475.3125 432.062098367757 L 489.65909090909093 465.93985829193 L 504.0056818181818 421.81727749721676 L 518.3522727272727 250.21652791566703 L 532.6988636363636 231.35674404035422 L 547.0454545454546 446.4979823217002" stroke-linejoin="bevel" stroke-miterlimit="10" stroke-width="2"/></g></g></g><g clip-path="url(#QmoQoQFMpbXr)"><g><g><path fill="none" stroke="none"/><path fill="none" stroke="#C51B7D" paint-order="fill stroke markers" d=" M 87.9545454545455 442.4889322207042 L 102.30113636363643 429.8639378891103 L 116.64772727272731 485.69446837771454 L 130.99431818181824 436.3167127697027 L 145.34090909090912 422.14866357535834 L 159.68750000000006 477.83891634916733 L 174.03409090909093 414.4333892616064 L 188.38068181818187 457.21809227423034 L 202.72727272727275 516.5555656327219 L 217.07386363636368 392.40978803871485 L 231.42045454545456 447.3986522385462 L 245.7670454545455 471.6666968981658 L 260.1136363636364 389.46395602800953 L 274.4602272727273 416.39727726874344 L 288.80681818181824 480.6444706450769 L 303.1534090909091 357.48063705463824 L 317.5 408.261169810605 L 331.84659090909093 473.7708626200981 L 346.19318181818187 376.2778508372337 L 360.53977272727275 469.7028088910289 L 374.8863636363636 475.5944729124393 L 389.23295454545456 428.74171617074626 L 403.5795454545455 411.7681126804923 L 417.9261363636364 452.16809454159295 L 432.2727272727273 417.2389435575162 L 446.6193181818182 407.980614381014 L 460.9659090909091 537.5972228520452 L 475.3125 488.35974495882886 L 489.65909090909093 539 L 504.0056818181818 506.7361255970378 L 518.3522727272727 332.37092610624586 L 532.6988636363636 257.8834595498415 L 547.0454545454546 461.0055905737087" stroke-linejoin="bevel" stroke-miterlimit="10" stroke-width="2"/></g></g></g><g clip-path="url(#hoxyESKZnTrv)"><g><g><path fill="none" stroke="none"/><path fill="none" stroke="#542788" paint-order="fill stroke markers" d=" M 87.9545454545455 392.96989437279126 L 102.30113636363643 391.78422901889144 L 116.64772727272731 469.02185778722185 L 130.99431818181824 417.36072451015866 L 145.34090909090912 415.49753609688764 L 159.68750000000006 471.22380773017846 L 174.03409090909093 349.43903780818414 L 188.38068181818187 414.65063227267365 L 202.72727272727275 469.36061931690745 L 217.07386363636368 361.63445287686795 L 231.42045454545456 425.999143517143 L 245.7670454545455 439.88836623425505 L 260.1136363636364 325.89511149503073 L 274.4602272727273 392.12299054857704 L 288.80681818181824 451.91440053809595 L 303.1534090909091 330.2990113809442 L 317.5 372.3054410619661 L 331.84659090909093 450.89811594903904 L 346.19318181818187 320.98306931458865 L 360.53977272727275 452.93068512715286 L 374.8863636363636 450.3899736545105 L 389.23295454545456 388.0578521923494 L 403.5795454545455 371.2891564729091 L 417.9261363636364 418.7157706289013 L 432.2727272727273 357.23055299095427 L 446.6193181818182 371.2891564729091 L 460.9659090909091 444.1228853553258 L 475.3125 407.8754016789603 L 489.65909090909093 481.21727285590543 L 504.0056818181818 417.19134374531586 L 518.3522727272727 229.00931400493232 L 532.6988636363636 234.0907369502172 L 547.0454545454546 437.5170355264555" stroke-linejoin="bevel" stroke-miterlimit="10" stroke-width="2"/></g></g></g><g clip-path="url(#xthzKWpWhIgH)"><g><g><path fill="none" stroke="none"/><path fill="none" stroke="#A6CEE3" paint-order="fill stroke markers" d=" M 87.9545454545455 451.9716212935127 L 102.30113636363643 444.58033521930474 L 116.64772727272731 510.1378290948883 L 130.99431818181824 446.8298570679766 L 145.34090909090912 459.79138771984856 L 159.68750000000006 499.21158011562454 L 174.03409090909093 415.12231101050475 L 188.38068181818187 468.25387467437645 L 202.72727272727275 505.8530255736083 L 217.07386363636368 396.4834156929369 L 231.42045454545456 465.14739212144866 L 245.7670454545455 505.1031849573843 L 260.1136363636364 379.66556187191304 L 274.4602272727273 405.160142823529 L 288.80681818181824 493.42709536189636 L 303.1534090909091 349.45769704688905 L 317.5 430.0120032469529 L 331.84659090909093 493.85557571402444 L 346.19318181818187 362.74058796285726 L 360.53977272727275 456.2564248147927 L 374.8863636363636 481.85812585444046 L 389.23295454545456 389.62773005888903 L 403.5795454545455 412.01582845757684 L 417.9261363636364 458.72018683952876 L 432.2727272727273 406.231343703849 L 446.6193181818182 428.19096175040886 L 460.9659090909091 507.78118715818437 L 475.3125 446.2942566278166 L 489.65909090909093 504.3533443411603 L 504.0056818181818 477.5733223331605 L 518.3522727272727 323.4275156551132 L 532.6988636363636 288.9348473088096 L 547.0454545454546 423.79903814109684" stroke-linejoin="bevel" stroke-miterlimit="10" stroke-width="2"/></g></g></g><g clip-path="url(#zWHTMwUmCIVr)"><g><g><path fill="none" stroke="none"/><path fill="none" stroke="#B2DF8A" paint-order="fill stroke markers" d=" M 87.9545454545455 424.0807662225893 L 102.30113636363643 431.8693061530689 L 116.64772727272731 484.7725962468926 L 130.99431818181824 387.63627749128864 L 145.34090909090912 457.5861832820108 L 159.68750000000006 505.19914436645206 L 174.03409090909093 380.5825054787788 L 188.38068181818187 445.9768501780884 L 202.72727272727275 511.0772877102104 L 217.07386363636368 375.58608363658436 L 231.42045454545456 448.03420034840394 L 245.7670454545455 485.5073641648622 L 260.1136363636364 384.1093914850337 L 274.4602272727273 435.6900993265117 L 288.80681818181824 501.37835119300917 L 303.1534090909091 371.61833687954777 L 317.5 416.8800406264854 L 331.84659090909093 490.3568324234627 L 346.19318181818187 345.9014597506057 L 360.53977272727275 437.01268157885727 L 374.8863636363636 486.9769000008016 L 389.23295454545456 396.0126317561442 L 403.5795454545455 404.5359396045935 L 417.9261363636364 463.61128020936303 L 432.2727272727273 386.3136952389432 L 446.6193181818182 399.098657011617 L 460.9659090909091 518.7188740570958 L 475.3125 447.8872467648099 L 489.65909090909093 514.7511273000591 L 504.0056818181818 474.92670614609756 L 518.3522727272727 338.99464132168987 L 532.6988636363636 294.6146590763158 L 547.0454545454546 437.30658874604524" stroke-linejoin="bevel" stroke-miterlimit="10" stroke-width="2"/></g></g></g><g><g/><g><path fill="#ffffff" stroke="#e5e5e5" paint-order="fill stroke markers" d=" M 75 38 L 469.3125 38 L 469.3125 193 L 75 193 L 75 38 Z" fill-opacity="0.95" stroke-linejoin="bevel" stroke-miterlimit="10" stroke-opacity="0.5"/><text fill="#444444" stroke="none" font-family="helvetica" font-size="10pt" font-style="normal" font-weight="normal" text-decoration="normal" x="110" y="58" text-anchor="start" dominant-baseline="central">may7_fluc_rep01_ACGCTG.fastqAligned.primary.out_dedup</text><g><path fill="none" stroke="#1F78B4" paint-order="fill stroke markers" d=" M 85 58 L 105 58" stroke-linejoin="bevel" stroke-miterlimit="10" stroke-width="2"/></g><text fill="#444444" stroke="none" font-family="helvetica" font-size="10pt" font-style="normal" font-weight="normal" text-decoration="normal" x="110" y="81" text-anchor="start" dominant-baseline="central">may7_fluc_rep02_GTGATC.fastqAligned.primary.out_dedup</text><g><path fill="none" stroke="#33A02C" paint-order="fill stroke markers" d=" M 85 81 L 105 81" stroke-linejoin="bevel" stroke-miterlimit="10" stroke-width="2"/></g><text fill="#444444" stroke="none" font-family="helvetica" font-size="10pt" font-style="normal" font-weight="normal" text-decoration="normal" x="110" y="104" text-anchor="start" dominant-baseline="central">may7_fluc_rep03_ACTGGT.fastqAligned.primary.out_dedup</text><g><path fill="none" stroke="#C51B7D" paint-order="fill stroke markers" d=" M 85 104 L 105 104" stroke-linejoin="bevel" stroke-miterlimit="10" stroke-width="2"/></g><text fill="#444444" stroke="none" font-family="helvetica" font-size="10pt" font-style="normal" font-weight="normal" text-decoration="normal" x="110" y="127" text-anchor="start" dominant-baseline="central">may7_ut_rep01_CGTGCA.fastqAligned.primary.out_dedup</text><g><path fill="none" stroke="#542788" paint-order="fill stroke markers" d=" M 85 127 L 105 127" stroke-linejoin="bevel" stroke-miterlimit="10" stroke-width="2"/></g><text fill="#444444" stroke="none" font-family="helvetica" font-size="10pt" font-style="normal" font-weight="normal" text-decoration="normal" x="110" y="150" text-anchor="start" dominant-baseline="central">may7_ut_rep02_TAATGT.fastqAligned.primary.out_dedup</text><g><path fill="none" stroke="#A6CEE3" paint-order="fill stroke markers" d=" M 85 150 L 105 150" stroke-linejoin="bevel" stroke-miterlimit="10" stroke-width="2"/></g><text fill="#444444" stroke="none" font-family="helvetica" font-size="10pt" font-style="normal" font-weight="normal" text-decoration="normal" x="110" y="173" text-anchor="start" dominant-baseline="central">may7_ut_rep03_CTACAC.fastqAligned.primary.out_dedup</text><g><path fill="none" stroke="#B2DF8A" paint-order="fill stroke markers" d=" M 85 173 L 105 173" stroke-linejoin="bevel" stroke-miterlimit="10" stroke-width="2"/></g></g></g><g><g fill="#444444"><path fill="" stroke="none" d=""/><g transform="translate(65,23)"><path fill="none" stroke="none"/><text fill="" stroke="none" font-family="helvetica" font-size="10pt" font-style="normal" font-weight="bold" text-decoration="normal" x="0" y="0" text-anchor="start" dominant-baseline="text-after-edge">AAG(LYS)-codon_scaled</text></g></g></g><g/><g><g fill="#444444"><path fill="none" stroke="black" paint-order="fill stroke markers" d=" M 65 555 L 570 555" stroke-linejoin="bevel" stroke-miterlimit="10"/><path fill="none" stroke="black" paint-order="fill stroke markers" d=" M 88 561 L 88 553" stroke-linejoin="bevel" stroke-miterlimit="10"/><path fill="none" stroke="black" paint-order="fill stroke markers" d=" M 160 561 L 160 553" stroke-linejoin="bevel" stroke-miterlimit="10"/><path fill="none" stroke="black" paint-order="fill stroke markers" d=" M 231 561 L 231 553" stroke-linejoin="bevel" stroke-miterlimit="10"/><path fill="none" stroke="black" paint-order="fill stroke markers" d=" M 303 561 L 303 553" stroke-linejoin="bevel" stroke-miterlimit="10"/><path fill="none" stroke="black" paint-order="fill stroke markers" d=" M 375 561 L 375 553" stroke-linejoin="bevel" stroke-miterlimit="10"/><path fill="none" stroke="black" paint-order="fill stroke markers" d=" M 447 561 L 447 553" stroke-linejoin="bevel" stroke-miterlimit="10"/><path fill="none" stroke="black" paint-order="fill stroke markers" d=" M 518 561 L 518 553" stroke-linejoin="bevel" stroke-miterlimit="10"/><path fill="none" stroke="black" paint-order="fill stroke markers" d=" M 74 559 L 74 555" stroke-linejoin="bevel" stroke-miterlimit="10"/><path fill="none" stroke="black" paint-order="fill stroke markers" d=" M 88 559 L 88 555" stroke-linejoin="bevel" stroke-miterlimit="10"/><path fill="none" stroke="black" paint-order="fill stroke markers" d=" M 102 559 L 102 555" stroke-linejoin="bevel" stroke-miterlimit="10"/><path fill="none" stroke="black" paint-order="fill stroke markers" d=" M 117 559 L 117 555" stroke-linejoin="bevel" stroke-miterlimit="10"/><path fill="none" stroke="black" paint-order="fill stroke markers" d=" M 131 559 L 131 555" stroke-linejoin="bevel" stroke-miterlimit="10"/><path fill="none" stroke="black" paint-order="fill stroke markers" d=" M 145 559 L 145 555" stroke-linejoin="bevel" stroke-miterlimit="10"/><path fill="none" stroke="black" paint-order="fill stroke markers" d=" M 160 559 L 160 555" stroke-linejoin="bevel" stroke-miterlimit="10"/><path fill="none" stroke="black" paint-order="fill stroke markers" d=" M 174 559 L 174 555" stroke-linejoin="bevel" stroke-miterlimit="10"/><path fill="none" stroke="black" paint-order="fill stroke markers" d=" M 188 559 L 188 555" stroke-linejoin="bevel" stroke-miterlimit="10"/><path fill="none" stroke="black" paint-order="fill stroke markers" d=" M 203 559 L 203 555" stroke-linejoin="bevel" stroke-miterlimit="10"/><path fill="none" stroke="black" paint-order="fill stroke markers" d=" M 217 559 L 217 555" stroke-linejoin="bevel" stroke-miterlimit="10"/><path fill="none" stroke="black" paint-order="fill stroke markers" d=" M 231 559 L 231 555" stroke-linejoin="bevel" stroke-miterlimit="10"/><path fill="none" stroke="black" paint-order="fill stroke markers" d=" M 246 559 L 246 555" stroke-linejoin="bevel" stroke-miterlimit="10"/><path fill="none" stroke="black" paint-order="fill stroke markers" d=" M 260 559 L 260 555" stroke-linejoin="bevel" stroke-miterlimit="10"/><path fill="none" stroke="black" paint-order="fill stroke markers" d=" M 274 559 L 274 555" stroke-linejoin="bevel" stroke-miterlimit="10"/><path fill="none" stroke="black" paint-order="fill stroke markers" d=" M 289 559 L 289 555" stroke-linejoin="bevel" stroke-miterlimit="10"/><path fill="none" stroke="black" paint-order="fill stroke markers" d=" M 303 559 L 303 555" stroke-linejoin="bevel" stroke-miterlimit="10"/><path fill="none" stroke="black" paint-order="fill stroke markers" d=" M 318 559 L 318 555" stroke-linejoin="bevel" stroke-miterlimit="10"/><path fill="none" stroke="black" paint-order="fill stroke markers" d=" M 332 559 L 332 555" stroke-linejoin="bevel" stroke-miterlimit="10"/><path fill="none" stroke="black" paint-order="fill stroke markers" d=" M 346 559 L 346 555" stroke-linejoin="bevel" stroke-miterlimit="10"/><path fill="none" stroke="black" paint-order="fill stroke markers" d=" M 361 559 L 361 555" stroke-linejoin="bevel" stroke-miterlimit="10"/><path fill="none" stroke="black" paint-order="fill stroke markers" d=" M 375 559 L 375 555" stroke-linejoin="bevel" stroke-miterlimit="10"/><path fill="none" stroke="black" paint-order="fill stroke markers" d=" M 389 559 L 389 555" stroke-linejoin="bevel" stroke-miterlimit="10"/><path fill="none" stroke="black" paint-order="fill stroke markers" d=" M 404 559 L 404 555" stroke-linejoin="bevel" stroke-miterlimit="10"/><path fill="none" stroke="black" paint-order="fill stroke markers" d=" M 418 559 L 418 555" stroke-linejoin="bevel" stroke-miterlimit="10"/><path fill="none" stroke="black" paint-order="fill stroke markers" d=" M 432 559 L 432 555" stroke-linejoin="bevel" stroke-miterlimit="10"/><path fill="none" stroke="black" paint-order="fill stroke markers" d=" M 447 559 L 447 555" stroke-linejoin="bevel" stroke-miterlimit="10"/><path fill="none" stroke="black" paint-order="fill stroke markers" d=" M 461 559 L 461 555" stroke-linejoin="bevel" stroke-miterlimit="10"/><path fill="none" stroke="black" paint-order="fill stroke markers" d=" M 475 559 L 475 555" stroke-linejoin="bevel" stroke-miterlimit="10"/><path fill="none" stroke="black" paint-order="fill stroke markers" d=" M 490 559 L 490 555" stroke-linejoin="bevel" stroke-miterlimit="10"/><path fill="none" stroke="black" paint-order="fill stroke markers" d=" M 504 559 L 504 555" stroke-linejoin="bevel" stroke-miterlimit="10"/><path fill="none" stroke="black" paint-order="fill stroke markers" d=" M 518 559 L 518 555" stroke-linejoin="bevel" stroke-miterlimit="10"/><path fill="none" stroke="black" paint-order="fill stroke markers" d=" M 533 559 L 533 555" stroke-linejoin="bevel" stroke-miterlimit="10"/><path fill="none" stroke="black" paint-order="fill stroke markers" d=" M 547 559 L 547 555" stroke-linejoin="bevel" stroke-miterlimit="10"/><path fill="" stroke="black" paint-order="fill stroke markers" d=" M 561 559 L 561 555" stroke-linejoin="bevel" stroke-miterlimit="10"/><g transform="translate(88,566) rotate(0,0,0)"><text fill="" stroke="none" font-family="helvetica" font-size="8pt" font-style="normal" font-weight="normal" text-decoration="normal" x="0" y="0" text-anchor="middle" dominant-baseline="hanging">-30</text><g transform="rotate(0,0,0) translate(-88,-566) translate(160,566) rotate(0,0,0)"><text fill="" stroke="none" font-family="helvetica" font-size="8pt" font-style="normal" font-weight="normal" text-decoration="normal" x="0" y="0" text-anchor="middle" dominant-baseline="hanging">-25</text><g transform="rotate(0,0,0) translate(-160,-566) translate(231,566) rotate(0,0,0)"><text fill="" stroke="none" font-family="helvetica" font-size="8pt" font-style="normal" font-weight="normal" text-decoration="normal" x="0" y="0" text-anchor="middle" dominant-baseline="hanging">-20</text><g transform="rotate(0,0,0) translate(-231,-566) translate(303,566) rotate(0,0,0)"><text fill="" stroke="none" font-family="helvetica" font-size="8pt" font-style="normal" font-weight="normal" text-decoration="normal" x="0" y="0" text-anchor="middle" dominant-baseline="hanging">-15</text><g transform="rotate(0,0,0) translate(-303,-566) translate(375,566) rotate(0,0,0)"><text fill="" stroke="none" font-family="helvetica" font-size="8pt" font-style="normal" font-weight="normal" text-decoration="normal" x="0" y="0" text-anchor="middle" dominant-baseline="hanging">-10</text><g transform="rotate(0,0,0) translate(-375,-566) translate(447,566) rotate(0,0,0)"><text fill="" stroke="none" font-family="helvetica" font-size="8pt" font-style="normal" font-weight="normal" text-decoration="normal" x="0" y="0" text-anchor="middle" dominant-baseline="hanging">-5</text><g transform="rotate(0,0,0) translate(-447,-566) translate(518,566) rotate(0,0,0)"><text fill="" stroke="none" font-family="helvetica" font-size="8pt" font-style="normal" font-weight="normal" text-decoration="normal" x="0" y="0" text-anchor="middle" dominant-baseline="hanging">0</text><g transform="rotate(0,0,0) translate(-518,-566) translate(318,584) rotate(0,0,0)"><text fill="" stroke="none" font-family="helvetica" font-size="10pt" font-style="italic" font-weight="normal" text-decoration="normal" x="0" y="0" text-anchor="middle" dominant-baseline="hanging">position from codon</text><g transform="rotate(0,0,0) translate(-318,-584)"/></g></g></g></g></g></g></g></g></g></g><g><g fill="#444444"><path fill="none" stroke="black" paint-order="fill stroke markers" d=" M 65 555 L 65 203" stroke-linejoin="bevel" stroke-miterlimit="10"/><path fill="none" stroke="black" paint-order="fill stroke markers" d=" M 59 499 L 67 499" stroke-linejoin="bevel" stroke-miterlimit="10"/><path fill="none" stroke="black" paint-order="fill stroke markers" d=" M 59 442 L 67 442" stroke-linejoin="bevel" stroke-miterlimit="10"/><path fill="none" stroke="black" paint-order="fill stroke markers" d=" M 59 386 L 67 386" stroke-linejoin="bevel" stroke-miterlimit="10"/><path fill="none" stroke="black" paint-order="fill stroke markers" d=" M 59 329 L 67 329" stroke-linejoin="bevel" stroke-miterlimit="10"/><path fill="none" stroke="black" paint-order="fill stroke markers" d=" M 59 273 L 67 273" stroke-linejoin="bevel" stroke-miterlimit="10"/><path fill="none" stroke="black" paint-order="fill stroke markers" d=" M 59 216 L 67 216" stroke-linejoin="bevel" stroke-miterlimit="10"/><path fill="none" stroke="black" paint-order="fill stroke markers" d=" M 61 510 L 65 510" stroke-linejoin="bevel" stroke-miterlimit="10"/><path fill="none" stroke="black" paint-order="fill stroke markers" d=" M 61 521 L 65 521" stroke-linejoin="bevel" stroke-miterlimit="10"/><path fill="none" stroke="black" paint-order="fill stroke markers" d=" M 61 533 L 65 533" stroke-linejoin="bevel" stroke-miterlimit="10"/><path fill="none" stroke="black" paint-order="fill stroke markers" d=" M 61 544 L 65 544" stroke-linejoin="bevel" stroke-miterlimit="10"/><path fill="none" stroke="black" paint-order="fill stroke markers" d=" M 61 499 L 65 499" stroke-linejoin="bevel" stroke-miterlimit="10"/><path fill="none" stroke="black" paint-order="fill stroke markers" d=" M 61 487 L 65 487" stroke-linejoin="bevel" stroke-miterlimit="10"/><path fill="none" stroke="black" paint-order="fill stroke markers" d=" M 61 476 L 65 476" stroke-linejoin="bevel" stroke-miterlimit="10"/><path fill="none" stroke="black" paint-order="fill stroke markers" d=" M 61 465 L 65 465" stroke-linejoin="bevel" stroke-miterlimit="10"/><path fill="none" stroke="black" paint-order="fill stroke markers" d=" M 61 454 L 65 454" stroke-linejoin="bevel" stroke-miterlimit="10"/><path fill="none" stroke="black" paint-order="fill stroke markers" d=" M 61 442 L 65 442" stroke-linejoin="bevel" stroke-miterlimit="10"/><path fill="none" stroke="black" paint-order="fill stroke markers" d=" M 61 431 L 65 431" stroke-linejoin="bevel" stroke-miterlimit="10"/><path fill="none" stroke="black" paint-order="fill stroke markers" d=" M 61 420 L 65 420" stroke-linejoin="bevel" stroke-miterlimit="10"/><path fill="none" stroke="black" paint-order="fill stroke markers" d=" M 61 408 L 65 408" stroke-linejoin="bevel" stroke-miterlimit="10"/><path fill="none" stroke="black" paint-order="fill stroke markers" d=" M 61 397 L 65 397" stroke-linejoin="bevel" stroke-miterlimit="10"/><path fill="none" stroke="black" paint-order="fill stroke markers" d=" M 61 386 L 65 386" stroke-linejoin="bevel" stroke-miterlimit="10"/><path fill="none" stroke="black" paint-order="fill stroke markers" d=" M 61 374 L 65 374" stroke-linejoin="bevel" stroke-miterlimit="10"/><path fill="none" stroke="black" paint-order="fill stroke markers" d=" M 61 363 L 65 363" stroke-linejoin="bevel" stroke-miterlimit="10"/><path fill="none" stroke="black" paint-order="fill stroke markers" d=" M 61 352 L 65 352" stroke-linejoin="bevel" stroke-miterlimit="10"/><path fill="none" stroke="black" paint-order="fill stroke markers" d=" M 61 341 L 65 341" stroke-linejoin="bevel" stroke-miterlimit="10"/><path fill="none" stroke="black" paint-order="fill stroke markers" d=" M 61 329 L 65 329" stroke-linejoin="bevel" stroke-miterlimit="10"/><path fill="none" stroke="black" paint-order="fill stroke markers" d=" M 61 318 L 65 318" stroke-linejoin="bevel" stroke-miterlimit="10"/><path fill="none" stroke="black" paint-order="fill stroke markers" d=" M 61 307 L 65 307" stroke-linejoin="bevel" stroke-miterlimit="10"/><path fill="none" stroke="black" paint-order="fill stroke markers" d=" M 61 295 L 65 295" stroke-linejoin="bevel" stroke-miterlimit="10"/><path fill="none" stroke="black" paint-order="fill stroke markers" d=" M 61 284 L 65 284" stroke-linejoin="bevel" stroke-miterlimit="10"/><path fill="none" stroke="black" paint-order="fill stroke markers" d=" M 61 273 L 65 273" stroke-linejoin="bevel" stroke-miterlimit="10"/><path fill="none" stroke="black" paint-order="fill stroke markers" d=" M 61 262 L 65 262" stroke-linejoin="bevel" stroke-miterlimit="10"/><path fill="none" stroke="black" paint-order="fill stroke markers" d=" M 61 250 L 65 250" stroke-linejoin="bevel" stroke-miterlimit="10"/><path fill="none" stroke="black" paint-order="fill stroke markers" d=" M 61 239 L 65 239" stroke-linejoin="bevel" stroke-miterlimit="10"/><path fill="none" stroke="black" paint-order="fill stroke markers" d=" M 61 228 L 65 228" stroke-linejoin="bevel" stroke-miterlimit="10"/><path fill="none" stroke="black" paint-order="fill stroke markers" d=" M 61 216 L 65 216" stroke-linejoin="bevel" stroke-miterlimit="10"/><path fill="" stroke="black" paint-order="fill stroke markers" d=" M 61 205 L 65 205" stroke-linejoin="bevel" stroke-miterlimit="10"/><g transform="translate(54,499) rotate(0,0,0)"><text fill="" stroke="none" font-family="helvetica" font-size="8pt" font-style="normal" font-weight="normal" text-decoration="normal" x="0" y="0" text-anchor="end" dominant-baseline="central">8500</text><g transform="rotate(0,0,0) translate(-54,-499) translate(54,442) rotate(0,0,0)"><text fill="" stroke="none" font-family="helvetica" font-size="8pt" font-style="normal" font-weight="normal" text-decoration="normal" x="0" y="0" text-anchor="end" dominant-baseline="central">9000</text><g transform="rotate(0,0,0) translate(-54,-442) translate(54,386) rotate(0,0,0)"><text fill="" stroke="none" font-family="helvetica" font-size="8pt" font-style="normal" font-weight="normal" text-decoration="normal" x="0" y="0" text-anchor="end" dominant-baseline="central">9500</text><g transform="rotate(0,0,0) translate(-54,-386) translate(54,329) rotate(0,0,0)"><text fill="" stroke="none" font-family="helvetica" font-size="8pt" font-style="normal" font-weight="normal" text-decoration="normal" x="0" y="0" text-anchor="end" dominant-baseline="central">10000</text><g transform="rotate(0,0,0) translate(-54,-329) translate(54,273) rotate(0,0,0)"><text fill="" stroke="none" font-family="helvetica" font-size="8pt" font-style="normal" font-weight="normal" text-decoration="normal" x="0" y="0" text-anchor="end" dominant-baseline="central">10500</text><g transform="rotate(0,0,0) translate(-54,-273) translate(54,216) rotate(0,0,0)"><text fill="" stroke="none" font-family="helvetica" font-size="8pt" font-style="normal" font-weight="normal" text-decoration="normal" x="0" y="0" text-anchor="end" dominant-baseline="central">11000</text><g transform="rotate(0,0,0) translate(-54,-216) translate(15,379) rotate(-90,0,0)"><text fill="" stroke="none" font-family="helvetica" font-size="10pt" font-style="italic" font-weight="normal" text-decoration="normal" x="0" y="0" text-anchor="middle" dominant-baseline="alphabetic">5'seq RPM</text><g transform="rotate(90,0,0) translate(-15,-379)"/></g></g></g></g></g></g></g></g></g><g clip-path="url(#qCXxGnLROWUE)"><g/></g></g></g></svg>