<svg version="1.1" xmlns="http://www.w3.org/2000/svg" xmlns:xlink="http://www.w3.org/1999/xlink" width="600" height="600" style="width: 600px; height: 600px;"><defs><clipPath id="pppFNvWfcTEm"><path fill="none" stroke="none" d=" M 45 111 L 570 111 L 570 555 L 45 555 L 45 111 Z"/></clipPath><clipPath id="WnSCyoZoyTbq"><path fill="none" stroke="none" d=" M 45 111 L 570 111 L 570 555 L 45 555 L 45 111 Z"/></clipPath><clipPath id="sRipQvmQgBMy"><path fill="none" stroke="none" d=" M 45 111 L 570 111 L 570 555 L 45 555 L 45 111 Z"/></clipPath><clipPath id="mdSNaGqEJyyg"><path fill="none" stroke="none" d=" M 45 111 L 570 111 L 570 555 L 45 555 L 45 111 Z"/></clipPath><clipPath id="umvOsTlBqJCA"><path fill="none" stroke="none" d=" M 45 111 L 570 111 L 570 555 L 45 555 L 45 111 Z"/></clipPath></defs><g><g/><g/><g/><g transform="scale(1,1) translate(0.5,0.5)"><rect fill="#FFFFFF" stroke="none" x="0" y="0" width="600" height="600"/><rect fill="#ffffff" stroke="none" x="0" y="0" width="600" height="600"/><rect fill="#FFFFFF" stroke="none" x="45" y="111" width="525" height="444"/><rect fill="#ffffff" stroke="none" x="45" y="111" width="525" height="444"/><g><rect fill="none" stroke="#e5e5e5" x="45" y="111" width="525" height="444" stroke-linejoin="bevel" stroke-miterlimit="10"/></g><g clip-path="url(#pppFNvWfcTEm)"><g><g><path fill="none" stroke="#e5e5e5" paint-order="fill stroke markers" d=" M 99 555 L 99 111" stroke-linejoin="bevel" stroke-miterlimit="10"/><path fill="none" stroke="#e5e5e5" paint-order="fill stroke markers" d=" M 173 555 L 173 111" stroke-linejoin="bevel" stroke-miterlimit="10"/><path fill="none" stroke="#e5e5e5" paint-order="fill stroke markers" d=" M 248 555 L 248 111" stroke-linejoin="bevel" stroke-miterlimit="10"/><path fill="none" stroke="#e5e5e5" paint-order="fill stroke markers" d=" M 322 555 L 322 111" stroke-linejoin="bevel" stroke-miterlimit="10"/><path fill="none" stroke="#e5e5e5" paint-order="fill stroke markers" d=" M 397 555 L 397 111" stroke-linejoin="bevel" stroke-miterlimit="10"/><path fill="none" stroke="#e5e5e5" paint-order="fill stroke markers" d=" M 472 555 L 472 111" stroke-linejoin="bevel" stroke-miterlimit="10"/><path fill="none" stroke="#e5e5e5" paint-order="fill stroke markers" d=" M 546 555 L 546 111" stroke-linejoin="bevel" stroke-miterlimit="10"/></g></g></g><g clip-path="url(#WnSCyoZoyTbq)"><g><g><path fill="none" stroke="#e5e5e5" paint-order="fill stroke markers" d=" M 45 535 L 570 535" stroke-linejoin="bevel" stroke-miterlimit="10"/><path fill="none" stroke="#e5e5e5" paint-order="fill stroke markers" d=" M 45 481 L 570 481" stroke-linejoin="bevel" stroke-miterlimit="10"/><path fill="none" stroke="#e5e5e5" paint-order="fill stroke markers" d=" M 45 427 L 570 427" stroke-linejoin="bevel" stroke-miterlimit="10"/><path fill="none" stroke="#e5e5e5" paint-order="fill stroke markers" d=" M 45 373 L 570 373" stroke-linejoin="bevel" stroke-miterlimit="10"/><path fill="none" stroke="#e5e5e5" paint-order="fill stroke markers" d=" M 45 319 L 570 319" stroke-linejoin="bevel" stroke-miterlimit="10"/><path fill="none" stroke="#e5e5e5" paint-order="fill stroke markers" d=" M 45 266 L 570 266" stroke-linejoin="bevel" stroke-miterlimit="10"/><path fill="none" stroke="#e5e5e5" paint-order="fill stroke markers" d=" M 45 212 L 570 212" stroke-linejoin="bevel" stroke-miterlimit="10"/><path fill="none" stroke="#e5e5e5" paint-order="fill stroke markers" d=" M 45 158 L 570 158" stroke-linejoin="bevel" stroke-miterlimit="10"/></g></g></g><g clip-path="url(#sRipQvmQgBMy)"><g><g><path fill="none" stroke="none"/><path fill="none" stroke="#C51B7D" paint-order="fill stroke markers" d=" M 68.86363636363637 401.1048011948051 L 83.77840909090912 534.8181818181818 L 98.69318181818181 434.53314635064925 L 113.60795454545456 401.1048011948051 L 128.5227272727273 467.9614915064934 L 143.4375 334.24811088311674 L 158.35227272727275 401.1048011948051 L 173.2670454545455 367.67645603896096 L 188.1818181818182 367.67645603896096 L 203.09659090909093 367.67645603896096 L 218.01136363636365 401.1048011948051 L 232.92613636363637 467.9614915064934 L 247.8409090909091 334.24811088311674 L 262.7556818181818 267.39142057142845 L 277.67045454545456 401.1048011948051 L 292.58522727272725 434.53314635064925 L 307.5 501.3898366623376 L 322.41477272727275 434.53314635064925 L 337.3295454545455 501.3898366623376 L 352.2443181818182 367.67645603896096 L 367.1590909090909 434.53314635064925 L 382.0738636363636 434.53314635064925 L 396.9886363636364 401.1048011948051 L 411.9034090909091 434.53314635064925 L 426.8181818181818 334.24811088311674 L 441.73295454545456 467.9614915064934 L 456.64772727272725 467.9614915064934 L 471.5625 434.53314635064925 L 486.47727272727275 501.3898366623376 L 501.39204545454544 434.53314635064925 L 516.3068181818181 367.67645603896096 L 531.2215909090909 233.96307541558429 L 546.1363636363636 334.24811088311674" stroke-linejoin="bevel" stroke-miterlimit="10" stroke-width="2"/></g></g></g><g clip-path="url(#mdSNaGqEJyyg)"><g><g><path fill="none" stroke="none"/><path fill="none" stroke="#542788" paint-order="fill stroke markers" d=" M 68.86363636363637 494.4545454545454 L 83.77840909090912 333 L 98.69318181818181 292.6363636363636 L 113.60795454545456 252.27272727272725 L 128.5227272727273 211.90909090909093 L 143.4375 292.6363636363636 L 158.35227272727275 252.27272727272725 L 173.2670454545455 534.8181818181818 L 188.1818181818182 211.90909090909093 L 203.09659090909093 454.09090909090907 L 218.01136363636365 454.09090909090907 L 232.92613636363637 534.8181818181818 L 247.8409090909091 454.09090909090907 L 262.7556818181818 131.1818181818182 L 277.67045454545456 413.7272727272727 L 292.58522727272725 373.3636363636364 L 307.5 292.6363636363636 L 322.41477272727275 494.4545454545454 L 337.3295454545455 171.54545454545456 L 352.2443181818182 373.3636363636364 L 367.1590909090909 333 L 382.0738636363636 413.7272727272727 L 396.9886363636364 373.3636363636364 L 411.9034090909091 494.4545454545454 L 426.8181818181818 333 L 441.73295454545456 454.09090909090907 L 456.64772727272725 454.09090909090907 L 471.5625 333 L 486.47727272727275 494.4545454545454 L 501.39204545454544 494.4545454545454 L 516.3068181818181 454.09090909090907 L 531.2215909090909 333 L 546.1363636363636 534.8181818181818" stroke-linejoin="bevel" stroke-miterlimit="10" stroke-width="2"/></g></g></g><g><g/><g><path fill="#ffffff" stroke="#e5e5e5" paint-order="fill stroke markers" d=" M 55 38 L 447.875 38 L 447.875 101 L 55 101 L 55 38 Z" fill-opacity="0.95" stroke-linejoin="bevel" stroke-miterlimit="10" stroke-opacity="0.5"/><text fill="#444444" stroke="none" font-family="helvetica" font-size="10pt" font-style="normal" font-weight="normal" text-decoration="normal" x="90" y="58" text-anchor="start" dominant-baseline="central">may7_fluc_rep03_ACTGGT.fastqAligned.primary.out_dedup</text><g><path fill="none" stroke="#C51B7D" paint-order="fill stroke markers" d=" M 65 58 L 85 58" stroke-linejoin="bevel" stroke-miterlimit="10" stroke-width="2"/></g><text fill="#444444" stroke="none" font-family="helvetica" font-size="10pt" font-style="normal" font-weight="normal" text-decoration="normal" x="90" y="81" text-anchor="start" dominant-baseline="central">may7_ut_rep01_CGTGCA.fastqAligned.primary.out_dedup</text><g><path fill="none" stroke="#542788" paint-order="fill stroke markers" d=" M 65 81 L 85 81" stroke-linejoin="bevel" stroke-miterlimit="10" stroke-width="2"/></g></g></g><g><g fill="#444444"><path fill="" stroke="none" d=""/><g transform="translate(45,23)"><path fill="none" stroke="none"/><text fill="" stroke="none" font-family="helvetica" font-size="10pt" font-style="normal" font-weight="bold" text-decoration="normal" x="0" y="0" text-anchor="start" dominant-baseline="text-after-edge">CYS-THR_TGCACT-dicodon_scaled</text></g></g></g><g/><g><g fill="#444444"><path fill="none" stroke="black" paint-order="fill stroke markers" d=" M 45 555 L 570 555" stroke-linejoin="bevel" stroke-miterlimit="10"/><path fill="none" stroke="black" paint-order="fill stroke markers" d=" M 99 561 L 99 553" stroke-linejoin="bevel" stroke-miterlimit="10"/><path fill="none" stroke="black" paint-order="fill stroke markers" d=" M 173 561 L 173 553" stroke-linejoin="bevel" stroke-miterlimit="10"/><path fill="none" stroke="black" paint-order="fill stroke markers" d=" M 248 561 L 248 553" stroke-linejoin="bevel" stroke-miterlimit="10"/><path fill="none" stroke="black" paint-order="fill stroke markers" d=" M 322 561 L 322 553" stroke-linejoin="bevel" stroke-miterlimit="10"/><path fill="none" stroke="black" paint-order="fill stroke markers" d=" M 397 561 L 397 553" stroke-linejoin="bevel" stroke-miterlimit="10"/><path fill="none" stroke="black" paint-order="fill stroke markers" d=" M 472 561 L 472 553" stroke-linejoin="bevel" stroke-miterlimit="10"/><path fill="none" stroke="black" paint-order="fill stroke markers" d=" M 546 561 L 546 553" stroke-linejoin="bevel" stroke-miterlimit="10"/><path fill="none" stroke="black" paint-order="fill stroke markers" d=" M 84 559 L 84 555" stroke-linejoin="bevel" stroke-miterlimit="10"/><path fill="none" stroke="black" paint-order="fill stroke markers" d=" M 69 559 L 69 555" stroke-linejoin="bevel" stroke-miterlimit="10"/><path fill="none" stroke="black" paint-order="fill stroke markers" d=" M 54 559 L 54 555" stroke-linejoin="bevel" stroke-miterlimit="10"/><path fill="none" stroke="black" paint-order="fill stroke markers" d=" M 99 559 L 99 555" stroke-linejoin="bevel" stroke-miterlimit="10"/><path fill="none" stroke="black" paint-order="fill stroke markers" d=" M 114 559 L 114 555" stroke-linejoin="bevel" stroke-miterlimit="10"/><path fill="none" stroke="black" paint-order="fill stroke markers" d=" M 129 559 L 129 555" stroke-linejoin="bevel" stroke-miterlimit="10"/><path fill="none" stroke="black" paint-order="fill stroke markers" d=" M 143 559 L 143 555" stroke-linejoin="bevel" stroke-miterlimit="10"/><path fill="none" stroke="black" paint-order="fill stroke markers" d=" M 158 559 L 158 555" stroke-linejoin="bevel" stroke-miterlimit="10"/><path fill="none" stroke="black" paint-order="fill stroke markers" d=" M 173 559 L 173 555" stroke-linejoin="bevel" stroke-miterlimit="10"/><path fill="none" stroke="black" paint-order="fill stroke markers" d=" M 188 559 L 188 555" stroke-linejoin="bevel" stroke-miterlimit="10"/><path fill="none" stroke="black" paint-order="fill stroke markers" d=" M 203 559 L 203 555" stroke-linejoin="bevel" stroke-miterlimit="10"/><path fill="none" stroke="black" paint-order="fill stroke markers" d=" M 218 559 L 218 555" stroke-linejoin="bevel" stroke-miterlimit="10"/><path fill="none" stroke="black" paint-order="fill stroke markers" d=" M 233 559 L 233 555" stroke-linejoin="bevel" stroke-miterlimit="10"/><path fill="none" stroke="black" paint-order="fill stroke markers" d=" M 248 559 L 248 555" stroke-linejoin="bevel" stroke-miterlimit="10"/><path fill="none" stroke="black" paint-order="fill stroke markers" d=" M 263 559 L 263 555" stroke-linejoin="bevel" stroke-miterlimit="10"/><path fill="none" stroke="black" paint-order="fill stroke markers" d=" M 278 559 L 278 555" stroke-linejoin="bevel" stroke-miterlimit="10"/><path fill="none" stroke="black" paint-order="fill stroke markers" d=" M 293 559 L 293 555" stroke-linejoin="bevel" stroke-miterlimit="10"/><path fill="none" stroke="black" paint-order="fill stroke markers" d=" M 308 559 L 308 555" stroke-linejoin="bevel" stroke-miterlimit="10"/><path fill="none" stroke="black" paint-order="fill stroke markers" d=" M 322 559 L 322 555" stroke-linejoin="bevel" stroke-miterlimit="10"/><path fill="none" stroke="black" paint-order="fill stroke markers" d=" M 337 559 L 337 555" stroke-linejoin="bevel" stroke-miterlimit="10"/><path fill="none" stroke="black" paint-order="fill stroke markers" d=" M 352 559 L 352 555" stroke-linejoin="bevel" stroke-miterlimit="10"/><path fill="none" stroke="black" paint-order="fill stroke markers" d=" M 367 559 L 367 555" stroke-linejoin="bevel" stroke-miterlimit="10"/><path fill="none" stroke="black" paint-order="fill stroke markers" d=" M 382 559 L 382 555" stroke-linejoin="bevel" stroke-miterlimit="10"/><path fill="none" stroke="black" paint-order="fill stroke markers" d=" M 397 559 L 397 555" stroke-linejoin="bevel" stroke-miterlimit="10"/><path fill="none" stroke="black" paint-order="fill stroke markers" d=" M 412 559 L 412 555" stroke-linejoin="bevel" stroke-miterlimit="10"/><path fill="none" stroke="black" paint-order="fill stroke markers" d=" M 427 559 L 427 555" stroke-linejoin="bevel" stroke-miterlimit="10"/><path fill="none" stroke="black" paint-order="fill stroke markers" d=" M 442 559 L 442 555" stroke-linejoin="bevel" stroke-miterlimit="10"/><path fill="none" stroke="black" paint-order="fill stroke markers" d=" M 457 559 L 457 555" stroke-linejoin="bevel" stroke-miterlimit="10"/><path fill="none" stroke="black" paint-order="fill stroke markers" d=" M 472 559 L 472 555" stroke-linejoin="bevel" stroke-miterlimit="10"/><path fill="none" stroke="black" paint-order="fill stroke markers" d=" M 486 559 L 486 555" stroke-linejoin="bevel" stroke-miterlimit="10"/><path fill="none" stroke="black" paint-order="fill stroke markers" d=" M 501 559 L 501 555" stroke-linejoin="bevel" stroke-miterlimit="10"/><path fill="none" stroke="black" paint-order="fill stroke markers" d=" M 516 559 L 516 555" stroke-linejoin="bevel" stroke-miterlimit="10"/><path fill="none" stroke="black" paint-order="fill stroke markers" d=" M 531 559 L 531 555" stroke-linejoin="bevel" stroke-miterlimit="10"/><path fill="none" stroke="black" paint-order="fill stroke markers" d=" M 546 559 L 546 555" stroke-linejoin="bevel" stroke-miterlimit="10"/><path fill="" stroke="black" paint-order="fill stroke markers" d=" M 561 559 L 561 555" stroke-linejoin="bevel" stroke-miterlimit="10"/><g transform="translate(99,566) rotate(0,0,0)"><text fill="" stroke="none" font-family="helvetica" font-size="8pt" font-style="normal" font-weight="normal" text-decoration="normal" x="0" y="0" text-anchor="middle" dominant-baseline="hanging">-25</text><g transform="rotate(0,0,0) translate(-99,-566) translate(173,566) rotate(0,0,0)"><text fill="" stroke="none" font-family="helvetica" font-size="8pt" font-style="normal" font-weight="normal" text-decoration="normal" x="0" y="0" text-anchor="middle" dominant-baseline="hanging">-20</text><g transform="rotate(0,0,0) translate(-173,-566) translate(248,566) rotate(0,0,0)"><text fill="" stroke="none" font-family="helvetica" font-size="8pt" font-style="normal" font-weight="normal" text-decoration="normal" x="0" y="0" text-anchor="middle" dominant-baseline="hanging">-15</text><g transform="rotate(0,0,0) translate(-248,-566) translate(322,566) rotate(0,0,0)"><text fill="" stroke="none" font-family="helvetica" font-size="8pt" font-style="normal" font-weight="normal" text-decoration="normal" x="0" y="0" text-anchor="middle" dominant-baseline="hanging">-10</text><g transform="rotate(0,0,0) translate(-322,-566) translate(397,566) rotate(0,0,0)"><text fill="" stroke="none" font-family="helvetica" font-size="8pt" font-style="normal" font-weight="normal" text-decoration="normal" x="0" y="0" text-anchor="middle" dominant-baseline="hanging">-5</text><g transform="rotate(0,0,0) translate(-397,-566) translate(472,566) rotate(0,0,0)"><text fill="" stroke="none" font-family="helvetica" font-size="8pt" font-style="normal" font-weight="normal" text-decoration="normal" x="0" y="0" text-anchor="middle" dominant-baseline="hanging">0</text><g transform="rotate(0,0,0) translate(-472,-566) translate(546,566) rotate(0,0,0)"><text fill="" stroke="none" font-family="helvetica" font-size="8pt" font-style="normal" font-weight="normal" text-decoration="normal" x="0" y="0" text-anchor="middle" dominant-baseline="hanging">5</text><g transform="rotate(0,0,0) translate(-546,-566) translate(308,584) rotate(0,0,0)"><text fill="" stroke="none" font-family="helvetica" font-size="10pt" font-style="italic" font-weight="normal" text-decoration="normal" x="0" y="0" text-anchor="middle" dominant-baseline="hanging">position from dicodon</text><g transform="rotate(0,0,0) translate(-308,-584)"/></g></g></g></g></g></g></g></g></g></g><g><g fill="#444444"><path fill="none" stroke="black" paint-order="fill stroke markers" d=" M 45 555 L 45 111" stroke-linejoin="bevel" stroke-miterlimit="10"/><path fill="none" stroke="black" paint-order="fill stroke markers" d=" M 39 535 L 47 535" stroke-linejoin="bevel" stroke-miterlimit="10"/><path fill="none" stroke="black" paint-order="fill stroke markers" d=" M 39 481 L 47 481" stroke-linejoin="bevel" stroke-miterlimit="10"/><path fill="none" stroke="black" paint-order="fill stroke markers" d=" M 39 427 L 47 427" stroke-linejoin="bevel" stroke-miterlimit="10"/><path fill="none" stroke="black" paint-order="fill stroke markers" d=" M 39 373 L 47 373" stroke-linejoin="bevel" stroke-miterlimit="10"/><path fill="none" stroke="black" paint-order="fill stroke markers" d=" M 39 319 L 47 319" stroke-linejoin="bevel" stroke-miterlimit="10"/><path fill="none" stroke="black" paint-order="fill stroke markers" d=" M 39 266 L 47 266" stroke-linejoin="bevel" stroke-miterlimit="10"/><path fill="none" stroke="black" paint-order="fill stroke markers" d=" M 39 212 L 47 212" stroke-linejoin="bevel" stroke-miterlimit="10"/><path fill="none" stroke="black" paint-order="fill stroke markers" d=" M 39 158 L 47 158" stroke-linejoin="bevel" stroke-miterlimit="10"/><path fill="none" stroke="black" paint-order="fill stroke markers" d=" M 41 546 L 45 546" stroke-linejoin="bevel" stroke-miterlimit="10"/><path fill="none" stroke="black" paint-order="fill stroke markers" d=" M 41 535 L 45 535" stroke-linejoin="bevel" stroke-miterlimit="10"/><path fill="none" stroke="black" paint-order="fill stroke markers" d=" M 41 524 L 45 524" stroke-linejoin="bevel" stroke-miterlimit="10"/><path fill="none" stroke="black" paint-order="fill stroke markers" d=" M 41 513 L 45 513" stroke-linejoin="bevel" stroke-miterlimit="10"/><path fill="none" stroke="black" paint-order="fill stroke markers" d=" M 41 503 L 45 503" stroke-linejoin="bevel" stroke-miterlimit="10"/><path fill="none" stroke="black" paint-order="fill stroke markers" d=" M 41 492 L 45 492" stroke-linejoin="bevel" stroke-miterlimit="10"/><path fill="none" stroke="black" paint-order="fill stroke markers" d=" M 41 481 L 45 481" stroke-linejoin="bevel" stroke-miterlimit="10"/><path fill="none" stroke="black" paint-order="fill stroke markers" d=" M 41 470 L 45 470" stroke-linejoin="bevel" stroke-miterlimit="10"/><path fill="none" stroke="black" paint-order="fill stroke markers" d=" M 41 459 L 45 459" stroke-linejoin="bevel" stroke-miterlimit="10"/><path fill="none" stroke="black" paint-order="fill stroke markers" d=" M 41 449 L 45 449" stroke-linejoin="bevel" stroke-miterlimit="10"/><path fill="none" stroke="black" paint-order="fill stroke markers" d=" M 41 438 L 45 438" stroke-linejoin="bevel" stroke-miterlimit="10"/><path fill="none" stroke="black" paint-order="fill stroke markers" d=" M 41 427 L 45 427" stroke-linejoin="bevel" stroke-miterlimit="10"/><path fill="none" stroke="black" paint-order="fill stroke markers" d=" M 41 416 L 45 416" stroke-linejoin="bevel" stroke-miterlimit="10"/><path fill="none" stroke="black" paint-order="fill stroke markers" d=" M 41 406 L 45 406" stroke-linejoin="bevel" stroke-miterlimit="10"/><path fill="none" stroke="black" paint-order="fill stroke markers" d=" M 41 395 L 45 395" stroke-linejoin="bevel" stroke-miterlimit="10"/><path fill="none" stroke="black" paint-order="fill stroke markers" d=" M 41 384 L 45 384" stroke-linejoin="bevel" stroke-miterlimit="10"/><path fill="none" stroke="black" paint-order="fill stroke markers" d=" M 41 373 L 45 373" stroke-linejoin="bevel" stroke-miterlimit="10"/><path fill="none" stroke="black" paint-order="fill stroke markers" d=" M 41 362 L 45 362" stroke-linejoin="bevel" stroke-miterlimit="10"/><path fill="none" stroke="black" paint-order="fill stroke markers" d=" M 41 352 L 45 352" stroke-linejoin="bevel" stroke-miterlimit="10"/><path fill="none" stroke="black" paint-order="fill stroke markers" d=" M 41 341 L 45 341" stroke-linejoin="bevel" stroke-miterlimit="10"/><path fill="none" stroke="black" paint-order="fill stroke markers" d=" M 41 330 L 45 330" stroke-linejoin="bevel" stroke-miterlimit="10"/><path fill="none" stroke="black" paint-order="fill stroke markers" d=" M 41 319 L 45 319" stroke-linejoin="bevel" stroke-miterlimit="10"/><path fill="none" stroke="black" paint-order="fill stroke markers" d=" M 41 309 L 45 309" stroke-linejoin="bevel" stroke-miterlimit="10"/><path fill="none" stroke="black" paint-order="fill stroke markers" d=" M 41 298 L 45 298" stroke-linejoin="bevel" stroke-miterlimit="10"/><path fill="none" stroke="black" paint-order="fill stroke markers" d=" M 41 287 L 45 287" stroke-linejoin="bevel" stroke-miterlimit="10"/><path fill="none" stroke="black" paint-order="fill stroke markers" d=" M 41 276 L 45 276" stroke-linejoin="bevel" stroke-miterlimit="10"/><path fill="none" stroke="black" paint-order="fill stroke markers" d=" M 41 266 L 45 266" stroke-linejoin="bevel" stroke-miterlimit="10"/><path fill="none" stroke="black" paint-order="fill stroke markers" d=" M 41 255 L 45 255" stroke-linejoin="bevel" stroke-miterlimit="10"/><path fill="none" stroke="black" paint-order="fill stroke markers" d=" M 41 244 L 45 244" stroke-linejoin="bevel" stroke-miterlimit="10"/><path fill="none" stroke="black" paint-order="fill stroke markers" d=" M 41 233 L 45 233" stroke-linejoin="bevel" stroke-miterlimit="10"/><path fill="none" stroke="black" paint-order="fill stroke markers" d=" M 41 222 L 45 222" stroke-linejoin="bevel" stroke-miterlimit="10"/><path fill="none" stroke="black" paint-order="fill stroke markers" d=" M 41 212 L 45 212" stroke-linejoin="bevel" stroke-miterlimit="10"/><path fill="none" stroke="black" paint-order="fill stroke markers" d=" M 41 201 L 45 201" stroke-linejoin="bevel" stroke-miterlimit="10"/><path fill="none" stroke="black" paint-order="fill stroke markers" d=" M 41 190 L 45 190" stroke-linejoin="bevel" stroke-miterlimit="10"/><path fill="none" stroke="black" paint-order="fill stroke markers" d=" M 41 179 L 45 179" stroke-linejoin="bevel" stroke-miterlimit="10"/><path fill="none" stroke="black" paint-order="fill stroke markers" d=" M 41 169 L 45 169" stroke-linejoin="bevel" stroke-miterlimit="10"/><path fill="none" stroke="black" paint-order="fill stroke markers" d=" M 41 158 L 45 158" stroke-linejoin="bevel" stroke-miterlimit="10"/><path fill="none" stroke="black" paint-order="fill stroke markers" d=" M 41 147 L 45 147" stroke-linejoin="bevel" stroke-miterlimit="10"/><path fill="none" stroke="black" paint-order="fill stroke markers" d=" M 41 136 L 45 136" stroke-linejoin="bevel" stroke-miterlimit="10"/><path fill="none" stroke="black" paint-order="fill stroke markers" d=" M 41 126 L 45 126" stroke-linejoin="bevel" stroke-miterlimit="10"/><path fill="" stroke="black" paint-order="fill stroke markers" d=" M 41 115 L 45 115" stroke-linejoin="bevel" stroke-miterlimit="10"/><g transform="translate(34,535) rotate(0,0,0)"><text fill="" stroke="none" font-family="helvetica" font-size="8pt" font-style="normal" font-weight="normal" text-decoration="normal" x="0" y="0" text-anchor="end" dominant-baseline="central">0</text><g transform="rotate(0,0,0) translate(-34,-535) translate(34,481) rotate(0,0,0)"><text fill="" stroke="none" font-family="helvetica" font-size="8pt" font-style="normal" font-weight="normal" text-decoration="normal" x="0" y="0" text-anchor="end" dominant-baseline="central">2</text><g transform="rotate(0,0,0) translate(-34,-481) translate(34,427) rotate(0,0,0)"><text fill="" stroke="none" font-family="helvetica" font-size="8pt" font-style="normal" font-weight="normal" text-decoration="normal" x="0" y="0" text-anchor="end" dominant-baseline="central">4</text><g transform="rotate(0,0,0) translate(-34,-427) translate(34,373) rotate(0,0,0)"><text fill="" stroke="none" font-family="helvetica" font-size="8pt" font-style="normal" font-weight="normal" text-decoration="normal" x="0" y="0" text-anchor="end" dominant-baseline="central">6</text><g transform="rotate(0,0,0) translate(-34,-373) translate(34,319) rotate(0,0,0)"><text fill="" stroke="none" font-family="helvetica" font-size="8pt" font-style="normal" font-weight="normal" text-decoration="normal" x="0" y="0" text-anchor="end" dominant-baseline="central">8</text><g transform="rotate(0,0,0) translate(-34,-319) translate(34,266) rotate(0,0,0)"><text fill="" stroke="none" font-family="helvetica" font-size="8pt" font-style="normal" font-weight="normal" text-decoration="normal" x="0" y="0" text-anchor="end" dominant-baseline="central">10</text><g transform="rotate(0,0,0) translate(-34,-266) translate(34,212) rotate(0,0,0)"><text fill="" stroke="none" font-family="helvetica" font-size="8pt" font-style="normal" font-weight="normal" text-decoration="normal" x="0" y="0" text-anchor="end" dominant-baseline="central">12</text><g transform="rotate(0,0,0) translate(-34,-212) translate(34,158) rotate(0,0,0)"><text fill="" stroke="none" font-family="helvetica" font-size="8pt" font-style="normal" font-weight="normal" text-decoration="normal" x="0" y="0" text-anchor="end" dominant-baseline="central">14</text><g transform="rotate(0,0,0) translate(-34,-158) translate(16,333) rotate(-90,0,0)"><text fill="" stroke="none" font-family="helvetica" font-size="10pt" font-style="italic" font-weight="normal" text-decoration="normal" x="0" y="0" text-anchor="middle" dominant-baseline="alphabetic">5'seq RPM</text><g transform="rotate(90,0,0) translate(-16,-333)"/></g></g></g></g></g></g></g></g></g></g></g><g clip-path="url(#umvOsTlBqJCA)"><g/></g></g></g></svg>