<svg version="1.1" xmlns="http://www.w3.org/2000/svg" xmlns:xlink="http://www.w3.org/1999/xlink" width="600" height="600" style="width: 600px; height: 600px;"><defs><clipPath id="ozEobiiORsVp"><path fill="none" stroke="none" d=" M 45 157 L 570 157 L 570 555 L 45 555 L 45 157 Z"/></clipPath><clipPath id="boRkpGEEfInT"><path fill="none" stroke="none" d=" M 45 157 L 570 157 L 570 555 L 45 555 L 45 157 Z"/></clipPath><clipPath id="bhzPZmqSCHdF"><path fill="none" stroke="none" d=" M 45 157 L 570 157 L 570 555 L 45 555 L 45 157 Z"/></clipPath><clipPath id="WWrMzzRhfsbB"><path fill="none" stroke="none" d=" M 45 157 L 570 157 L 570 555 L 45 555 L 45 157 Z"/></clipPath><clipPath id="XTCrlmJxTVao"><path fill="none" stroke="none" d=" M 45 157 L 570 157 L 570 555 L 45 555 L 45 157 Z"/></clipPath><clipPath id="LvzaZUEgxIgl"><path fill="none" stroke="none" d=" M 45 157 L 570 157 L 570 555 L 45 555 L 45 157 Z"/></clipPath><clipPath id="eHxwHDxIqxzg"><path fill="none" stroke="none" d=" M 45 157 L 570 157 L 570 555 L 45 555 L 45 157 Z"/></clipPath></defs><g><g/><g/><g/><g transform="scale(1,1) translate(0.5,0.5)"><rect fill="#FFFFFF" stroke="none" x="0" y="0" width="600" height="600"/><rect fill="#ffffff" stroke="none" x="0" y="0" width="600" height="600"/><rect fill="#FFFFFF" stroke="none" x="45" y="157" width="525" height="398"/><rect fill="#ffffff" stroke="none" x="45" y="157" width="525" height="398"/><g><rect fill="none" stroke="#e5e5e5" x="45" y="157" width="525" height="398" stroke-linejoin="bevel" stroke-miterlimit="10"/></g><g clip-path="url(#ozEobiiORsVp)"><g><g><path fill="none" stroke="#e5e5e5" paint-order="fill stroke markers" d=" M 54 555 L 54 157" stroke-linejoin="bevel" stroke-miterlimit="10"/><path fill="none" stroke="#e5e5e5" paint-order="fill stroke markers" d=" M 129 555 L 129 157" stroke-linejoin="bevel" stroke-miterlimit="10"/><path fill="none" stroke="#e5e5e5" paint-order="fill stroke markers" d=" M 203 555 L 203 157" stroke-linejoin="bevel" stroke-miterlimit="10"/><path fill="none" stroke="#e5e5e5" paint-order="fill stroke markers" d=" M 278 555 L 278 157" stroke-linejoin="bevel" stroke-miterlimit="10"/><path fill="none" stroke="#e5e5e5" paint-order="fill stroke markers" d=" M 352 555 L 352 157" stroke-linejoin="bevel" stroke-miterlimit="10"/><path fill="none" stroke="#e5e5e5" paint-order="fill stroke markers" d=" M 427 555 L 427 157" stroke-linejoin="bevel" stroke-miterlimit="10"/><path fill="none" stroke="#e5e5e5" paint-order="fill stroke markers" d=" M 501 555 L 501 157" stroke-linejoin="bevel" stroke-miterlimit="10"/></g></g></g><g clip-path="url(#boRkpGEEfInT)"><g><g><path fill="none" stroke="#e5e5e5" paint-order="fill stroke markers" d=" M 45 537 L 570 537" stroke-linejoin="bevel" stroke-miterlimit="10"/><path fill="none" stroke="#e5e5e5" paint-order="fill stroke markers" d=" M 45 479 L 570 479" stroke-linejoin="bevel" stroke-miterlimit="10"/><path fill="none" stroke="#e5e5e5" paint-order="fill stroke markers" d=" M 45 422 L 570 422" stroke-linejoin="bevel" stroke-miterlimit="10"/><path fill="none" stroke="#e5e5e5" paint-order="fill stroke markers" d=" M 45 365 L 570 365" stroke-linejoin="bevel" stroke-miterlimit="10"/><path fill="none" stroke="#e5e5e5" paint-order="fill stroke markers" d=" M 45 307 L 570 307" stroke-linejoin="bevel" stroke-miterlimit="10"/><path fill="none" stroke="#e5e5e5" paint-order="fill stroke markers" d=" M 45 250 L 570 250" stroke-linejoin="bevel" stroke-miterlimit="10"/><path fill="none" stroke="#e5e5e5" paint-order="fill stroke markers" d=" M 45 192 L 570 192" stroke-linejoin="bevel" stroke-miterlimit="10"/></g></g></g><g clip-path="url(#bhzPZmqSCHdF)"><g><g><path fill="none" stroke="none"/><path fill="none" stroke="#1F78B4" paint-order="fill stroke markers" d=" M 68.86363636363637 462.96816004398454 L 83.77840909090912 512.2621139540554 L 98.69318181818181 512.2621139540554 L 113.60795454545456 499.9386254765377 L 128.5227272727273 512.2621139540554 L 143.4375 512.2621139540554 L 158.35227272727275 499.9386254765377 L 173.26704545454547 512.2621139540554 L 188.1818181818182 524.5856024315732 L 203.0965909090909 487.61513699901997 L 218.01136363636363 499.9386254765377 L 232.92613636363637 475.2916485215022 L 247.8409090909091 315.08629831377175 L 262.7556818181818 290.4393213587363 L 277.67045454545456 475.2916485215022 L 292.58522727272725 487.61513699901997 L 307.5 487.61513699901997 L 322.41477272727275 536.9090909090909 L 337.32954545454544 499.9386254765377 L 352.2443181818182 487.61513699901997 L 367.1590909090909 524.5856024315732 L 382.0738636363636 499.9386254765377 L 396.9886363636364 475.2916485215022 L 411.90340909090907 512.2621139540554 L 426.8181818181818 524.5856024315732 L 441.73295454545456 536.9090909090909 L 456.64772727272725 512.2621139540554 L 471.5625 487.61513699901997 L 486.47727272727275 290.4393213587363 L 501.39204545454544 475.2916485215022 L 516.3068181818181 512.2621139540554 L 531.2215909090909 499.9386254765377 L 546.1363636363636 524.5856024315732" stroke-linejoin="bevel" stroke-miterlimit="10" stroke-width="2"/></g></g></g><g clip-path="url(#WWrMzzRhfsbB)"><g><g><path fill="none" stroke="none"/><path fill="none" stroke="#C51B7D" paint-order="fill stroke markers" d=" M 68.86363636363637 479.83280874681725 L 83.77840909090912 522.6400203685225 L 98.69318181818181 508.37094982795406 L 113.60795454545456 437.0255971251121 L 128.5227272727273 479.83280874681725 L 143.4375 508.37094982795406 L 158.35227272727275 508.37094982795406 L 173.26704545454547 451.2946676656805 L 188.1818181818182 508.37094982795406 L 203.0965909090909 465.5637382062489 L 218.01136363636363 494.10187928738566 L 232.92613636363637 522.6400203685225 L 247.8409090909091 251.52768009772285 L 262.7556818181818 237.2586095571545 L 277.67045454545456 437.0255971251121 L 292.58522727272725 451.2946676656805 L 307.5 508.37094982795406 L 322.41477272727275 508.37094982795406 L 337.32954545454544 494.10187928738566 L 352.2443181818182 522.6400203685225 L 367.1590909090909 522.6400203685225 L 382.0738636363636 479.83280874681725 L 396.9886363636364 494.10187928738566 L 411.90340909090907 508.37094982795406 L 426.8181818181818 508.37094982795406 L 441.73295454545456 522.6400203685225 L 456.64772727272725 479.83280874681725 L 471.5625 379.94931496283846 L 486.47727272727275 379.94931496283846 L 501.39204545454544 494.10187928738566 L 516.3068181818181 508.37094982795406 L 531.2215909090909 536.9090909090909 L 546.1363636363636 508.37094982795406" stroke-linejoin="bevel" stroke-miterlimit="10" stroke-width="2"/></g></g></g><g clip-path="url(#XTCrlmJxTVao)"><g><g><path fill="none" stroke="none"/><path fill="none" stroke="#542788" paint-order="fill stroke markers" d=" M 68.86363636363637 485.2207792207792 L 83.77840909090912 536.9090909090909 L 98.69318181818181 536.9090909090909 L 113.60795454545456 467.991341991342 L 128.5227272727273 416.3030303030303 L 143.4375 536.9090909090909 L 158.35227272727275 467.991341991342 L 173.26704545454547 502.45021645021643 L 188.1818181818182 502.45021645021643 L 203.0965909090909 485.2207792207792 L 218.01136363636363 450.76190476190476 L 232.92613636363637 467.991341991342 L 247.8409090909091 209.54978354978363 L 262.7556818181818 175.09090909090912 L 277.67045454545456 399.0735930735931 L 292.58522727272725 450.76190476190476 L 307.5 519.6796536796537 L 322.41477272727275 467.991341991342 L 337.32954545454544 485.2207792207792 L 352.2443181818182 502.45021645021643 L 367.1590909090909 519.6796536796537 L 382.0738636363636 450.76190476190476 L 396.9886363636364 485.2207792207792 L 411.90340909090907 467.991341991342 L 426.8181818181818 399.0735930735931 L 441.73295454545456 485.2207792207792 L 456.64772727272725 467.991341991342 L 471.5625 295.69696969696975 L 486.47727272727275 209.54978354978363 L 501.39204545454544 399.0735930735931 L 516.3068181818181 450.76190476190476 L 531.2215909090909 519.6796536796537 L 546.1363636363636 536.9090909090909" stroke-linejoin="bevel" stroke-miterlimit="10" stroke-width="2"/></g></g></g><g clip-path="url(#LvzaZUEgxIgl)"><g><g><path fill="none" stroke="none"/><path fill="none" stroke="#B2DF8A" paint-order="fill stroke markers" d=" M 68.86363636363637 507.0128090435284 L 83.77840909090912 492.0646681107472 L 98.69318181818181 521.9609499763096 L 113.60795454545456 477.11652717796596 L 128.5227272727273 507.0128090435284 L 143.4375 507.0128090435284 L 158.35227272727275 507.0128090435284 L 173.26704545454547 536.9090909090909 L 188.1818181818182 507.0128090435284 L 203.0965909090909 462.16838624518476 L 218.01136363636363 521.9609499763096 L 232.92613636363637 447.22024531240356 L 247.8409090909091 252.89441318624762 L 262.7556818181818 193.1018494551227 L 277.67045454545456 507.0128090435284 L 292.58522727272725 432.2721043796223 L 307.5 492.0646681107472 L 322.41477272727275 521.9609499763096 L 337.32954545454544 507.0128090435284 L 352.2443181818182 492.0646681107472 L 367.1590909090909 521.9609499763096 L 382.0738636363636 492.0646681107472 L 396.9886363636364 536.9090909090909 L 411.90340909090907 521.9609499763096 L 426.8181818181818 507.0128090435284 L 441.73295454545456 521.9609499763096 L 456.64772727272725 432.2721043796223 L 471.5625 297.73883598459133 L 486.47727272727275 357.5313997157162 L 501.39204545454544 492.0646681107472 L 516.3068181818181 536.9090909090909 L 531.2215909090909 507.0128090435284 L 546.1363636363636 521.9609499763096" stroke-linejoin="bevel" stroke-miterlimit="10" stroke-width="2"/></g></g></g><g><g/><g><path fill="#ffffff" stroke="#e5e5e5" paint-order="fill stroke markers" d=" M 55 38 L 449.3125 38 L 449.3125 147 L 55 147 L 55 38 Z" fill-opacity="0.95" stroke-linejoin="bevel" stroke-miterlimit="10" stroke-opacity="0.5"/><text fill="#444444" stroke="none" font-family="helvetica" font-size="10pt" font-style="normal" font-weight="normal" text-decoration="normal" x="90" y="58" text-anchor="start" dominant-baseline="central">may7_fluc_rep01_ACGCTG.fastqAligned.primary.out_dedup</text><g><path fill="none" stroke="#1F78B4" paint-order="fill stroke markers" d=" M 65 58 L 85 58" stroke-linejoin="bevel" stroke-miterlimit="10" stroke-width="2"/></g><text fill="#444444" stroke="none" font-family="helvetica" font-size="10pt" font-style="normal" font-weight="normal" text-decoration="normal" x="90" y="81" text-anchor="start" dominant-baseline="central">may7_fluc_rep03_ACTGGT.fastqAligned.primary.out_dedup</text><g><path fill="none" stroke="#C51B7D" paint-order="fill stroke markers" d=" M 65 81 L 85 81" stroke-linejoin="bevel" stroke-miterlimit="10" stroke-width="2"/></g><text fill="#444444" stroke="none" font-family="helvetica" font-size="10pt" font-style="normal" font-weight="normal" text-decoration="normal" x="90" y="104" text-anchor="start" dominant-baseline="central">may7_ut_rep01_CGTGCA.fastqAligned.primary.out_dedup</text><g><path fill="none" stroke="#542788" paint-order="fill stroke markers" d=" M 65 104 L 85 104" stroke-linejoin="bevel" stroke-miterlimit="10" stroke-width="2"/></g><text fill="#444444" stroke="none" font-family="helvetica" font-size="10pt" font-style="normal" font-weight="normal" text-decoration="normal" x="90" y="127" text-anchor="start" dominant-baseline="central">may7_ut_rep03_CTACAC.fastqAligned.primary.out_dedup</text><g><path fill="none" stroke="#B2DF8A" paint-order="fill stroke markers" d=" M 65 127 L 85 127" stroke-linejoin="bevel" stroke-miterlimit="10" stroke-width="2"/></g></g></g><g><g fill="#444444"><path fill="" stroke="none" d=""/><g transform="translate(45,23)"><path fill="none" stroke="none"/><text fill="" stroke="none" font-family="helvetica" font-size="10pt" font-style="normal" font-weight="bold" text-decoration="normal" x="0" y="0" text-anchor="start" dominant-baseline="text-after-edge">CYS-PRO-GLY_TGTCCTGGG-tricodon_scaled</text></g></g></g><g/><g><g fill="#444444"><path fill="none" stroke="black" paint-order="fill stroke markers" d=" M 45 555 L 570 555" stroke-linejoin="bevel" stroke-miterlimit="10"/><path fill="none" stroke="black" paint-order="fill stroke markers" d=" M 54 561 L 54 553" stroke-linejoin="bevel" stroke-miterlimit="10"/><path fill="none" stroke="black" paint-order="fill stroke markers" d=" M 129 561 L 129 553" stroke-linejoin="bevel" stroke-miterlimit="10"/><path fill="none" stroke="black" paint-order="fill stroke markers" d=" M 203 561 L 203 553" stroke-linejoin="bevel" stroke-miterlimit="10"/><path fill="none" stroke="black" paint-order="fill stroke markers" d=" M 278 561 L 278 553" stroke-linejoin="bevel" stroke-miterlimit="10"/><path fill="none" stroke="black" paint-order="fill stroke markers" d=" M 352 561 L 352 553" stroke-linejoin="bevel" stroke-miterlimit="10"/><path fill="none" stroke="black" paint-order="fill stroke markers" d=" M 427 561 L 427 553" stroke-linejoin="bevel" stroke-miterlimit="10"/><path fill="none" stroke="black" paint-order="fill stroke markers" d=" M 501 561 L 501 553" stroke-linejoin="bevel" stroke-miterlimit="10"/><path fill="none" stroke="black" paint-order="fill stroke markers" d=" M 54 559 L 54 555" stroke-linejoin="bevel" stroke-miterlimit="10"/><path fill="none" stroke="black" paint-order="fill stroke markers" d=" M 69 559 L 69 555" stroke-linejoin="bevel" stroke-miterlimit="10"/><path fill="none" stroke="black" paint-order="fill stroke markers" d=" M 84 559 L 84 555" stroke-linejoin="bevel" stroke-miterlimit="10"/><path fill="none" stroke="black" paint-order="fill stroke markers" d=" M 99 559 L 99 555" stroke-linejoin="bevel" stroke-miterlimit="10"/><path fill="none" stroke="black" paint-order="fill stroke markers" d=" M 114 559 L 114 555" stroke-linejoin="bevel" stroke-miterlimit="10"/><path fill="none" stroke="black" paint-order="fill stroke markers" d=" M 129 559 L 129 555" stroke-linejoin="bevel" stroke-miterlimit="10"/><path fill="none" stroke="black" paint-order="fill stroke markers" d=" M 143 559 L 143 555" stroke-linejoin="bevel" stroke-miterlimit="10"/><path fill="none" stroke="black" paint-order="fill stroke markers" d=" M 158 559 L 158 555" stroke-linejoin="bevel" stroke-miterlimit="10"/><path fill="none" stroke="black" paint-order="fill stroke markers" d=" M 173 559 L 173 555" stroke-linejoin="bevel" stroke-miterlimit="10"/><path fill="none" stroke="black" paint-order="fill stroke markers" d=" M 188 559 L 188 555" stroke-linejoin="bevel" stroke-miterlimit="10"/><path fill="none" stroke="black" paint-order="fill stroke markers" d=" M 203 559 L 203 555" stroke-linejoin="bevel" stroke-miterlimit="10"/><path fill="none" stroke="black" paint-order="fill stroke markers" d=" M 218 559 L 218 555" stroke-linejoin="bevel" stroke-miterlimit="10"/><path fill="none" stroke="black" paint-order="fill stroke markers" d=" M 233 559 L 233 555" stroke-linejoin="bevel" stroke-miterlimit="10"/><path fill="none" stroke="black" paint-order="fill stroke markers" d=" M 248 559 L 248 555" stroke-linejoin="bevel" stroke-miterlimit="10"/><path fill="none" stroke="black" paint-order="fill stroke markers" d=" M 263 559 L 263 555" stroke-linejoin="bevel" stroke-miterlimit="10"/><path fill="none" stroke="black" paint-order="fill stroke markers" d=" M 278 559 L 278 555" stroke-linejoin="bevel" stroke-miterlimit="10"/><path fill="none" stroke="black" paint-order="fill stroke markers" d=" M 293 559 L 293 555" stroke-linejoin="bevel" stroke-miterlimit="10"/><path fill="none" stroke="black" paint-order="fill stroke markers" d=" M 308 559 L 308 555" stroke-linejoin="bevel" stroke-miterlimit="10"/><path fill="none" stroke="black" paint-order="fill stroke markers" d=" M 322 559 L 322 555" stroke-linejoin="bevel" stroke-miterlimit="10"/><path fill="none" stroke="black" paint-order="fill stroke markers" d=" M 337 559 L 337 555" stroke-linejoin="bevel" stroke-miterlimit="10"/><path fill="none" stroke="black" paint-order="fill stroke markers" d=" M 352 559 L 352 555" stroke-linejoin="bevel" stroke-miterlimit="10"/><path fill="none" stroke="black" paint-order="fill stroke markers" d=" M 367 559 L 367 555" stroke-linejoin="bevel" stroke-miterlimit="10"/><path fill="none" stroke="black" paint-order="fill stroke markers" d=" M 382 559 L 382 555" stroke-linejoin="bevel" stroke-miterlimit="10"/><path fill="none" stroke="black" paint-order="fill stroke markers" d=" M 397 559 L 397 555" stroke-linejoin="bevel" stroke-miterlimit="10"/><path fill="none" stroke="black" paint-order="fill stroke markers" d=" M 412 559 L 412 555" stroke-linejoin="bevel" stroke-miterlimit="10"/><path fill="none" stroke="black" paint-order="fill stroke markers" d=" M 427 559 L 427 555" stroke-linejoin="bevel" stroke-miterlimit="10"/><path fill="none" stroke="black" paint-order="fill stroke markers" d=" M 442 559 L 442 555" stroke-linejoin="bevel" stroke-miterlimit="10"/><path fill="none" stroke="black" paint-order="fill stroke markers" d=" M 457 559 L 457 555" stroke-linejoin="bevel" stroke-miterlimit="10"/><path fill="none" stroke="black" paint-order="fill stroke markers" d=" M 472 559 L 472 555" stroke-linejoin="bevel" stroke-miterlimit="10"/><path fill="none" stroke="black" paint-order="fill stroke markers" d=" M 486 559 L 486 555" stroke-linejoin="bevel" stroke-miterlimit="10"/><path fill="none" stroke="black" paint-order="fill stroke markers" d=" M 501 559 L 501 555" stroke-linejoin="bevel" stroke-miterlimit="10"/><path fill="none" stroke="black" paint-order="fill stroke markers" d=" M 516 559 L 516 555" stroke-linejoin="bevel" stroke-miterlimit="10"/><path fill="none" stroke="black" paint-order="fill stroke markers" d=" M 531 559 L 531 555" stroke-linejoin="bevel" stroke-miterlimit="10"/><path fill="none" stroke="black" paint-order="fill stroke markers" d=" M 546 559 L 546 555" stroke-linejoin="bevel" stroke-miterlimit="10"/><path fill="" stroke="black" paint-order="fill stroke markers" d=" M 561 559 L 561 555" stroke-linejoin="bevel" stroke-miterlimit="10"/><g transform="translate(54,566) rotate(0,0,0)"><text fill="" stroke="none" font-family="helvetica" font-size="8pt" font-style="normal" font-weight="normal" text-decoration="normal" x="0" y="0" text-anchor="middle" dominant-baseline="hanging">-25</text><g transform="rotate(0,0,0) translate(-54,-566) translate(129,566) rotate(0,0,0)"><text fill="" stroke="none" font-family="helvetica" font-size="8pt" font-style="normal" font-weight="normal" text-decoration="normal" x="0" y="0" text-anchor="middle" dominant-baseline="hanging">-20</text><g transform="rotate(0,0,0) translate(-129,-566) translate(203,566) rotate(0,0,0)"><text fill="" stroke="none" font-family="helvetica" font-size="8pt" font-style="normal" font-weight="normal" text-decoration="normal" x="0" y="0" text-anchor="middle" dominant-baseline="hanging">-15</text><g transform="rotate(0,0,0) translate(-203,-566) translate(278,566) rotate(0,0,0)"><text fill="" stroke="none" font-family="helvetica" font-size="8pt" font-style="normal" font-weight="normal" text-decoration="normal" x="0" y="0" text-anchor="middle" dominant-baseline="hanging">-10</text><g transform="rotate(0,0,0) translate(-278,-566) translate(352,566) rotate(0,0,0)"><text fill="" stroke="none" font-family="helvetica" font-size="8pt" font-style="normal" font-weight="normal" text-decoration="normal" x="0" y="0" text-anchor="middle" dominant-baseline="hanging">-5</text><g transform="rotate(0,0,0) translate(-352,-566) translate(427,566) rotate(0,0,0)"><text fill="" stroke="none" font-family="helvetica" font-size="8pt" font-style="normal" font-weight="normal" text-decoration="normal" x="0" y="0" text-anchor="middle" dominant-baseline="hanging">0</text><g transform="rotate(0,0,0) translate(-427,-566) translate(501,566) rotate(0,0,0)"><text fill="" stroke="none" font-family="helvetica" font-size="8pt" font-style="normal" font-weight="normal" text-decoration="normal" x="0" y="0" text-anchor="middle" dominant-baseline="hanging">5</text><g transform="rotate(0,0,0) translate(-501,-566) translate(308,584) rotate(0,0,0)"><text fill="" stroke="none" font-family="helvetica" font-size="10pt" font-style="italic" font-weight="normal" text-decoration="normal" x="0" y="0" text-anchor="middle" dominant-baseline="hanging">position from tricodon</text><g transform="rotate(0,0,0) translate(-308,-584)"/></g></g></g></g></g></g></g></g></g></g><g><g fill="#444444"><path fill="none" stroke="black" paint-order="fill stroke markers" d=" M 45 555 L 45 157" stroke-linejoin="bevel" stroke-miterlimit="10"/><path fill="none" stroke="black" paint-order="fill stroke markers" d=" M 39 537 L 47 537" stroke-linejoin="bevel" stroke-miterlimit="10"/><path fill="none" stroke="black" paint-order="fill stroke markers" d=" M 39 479 L 47 479" stroke-linejoin="bevel" stroke-miterlimit="10"/><path fill="none" stroke="black" paint-order="fill stroke markers" d=" M 39 422 L 47 422" stroke-linejoin="bevel" stroke-miterlimit="10"/><path fill="none" stroke="black" paint-order="fill stroke markers" d=" M 39 365 L 47 365" stroke-linejoin="bevel" stroke-miterlimit="10"/><path fill="none" stroke="black" paint-order="fill stroke markers" d=" M 39 307 L 47 307" stroke-linejoin="bevel" stroke-miterlimit="10"/><path fill="none" stroke="black" paint-order="fill stroke markers" d=" M 39 250 L 47 250" stroke-linejoin="bevel" stroke-miterlimit="10"/><path fill="none" stroke="black" paint-order="fill stroke markers" d=" M 39 192 L 47 192" stroke-linejoin="bevel" stroke-miterlimit="10"/><path fill="none" stroke="black" paint-order="fill stroke markers" d=" M 41 548 L 45 548" stroke-linejoin="bevel" stroke-miterlimit="10"/><path fill="none" stroke="black" paint-order="fill stroke markers" d=" M 41 537 L 45 537" stroke-linejoin="bevel" stroke-miterlimit="10"/><path fill="none" stroke="black" paint-order="fill stroke markers" d=" M 41 525 L 45 525" stroke-linejoin="bevel" stroke-miterlimit="10"/><path fill="none" stroke="black" paint-order="fill stroke markers" d=" M 41 514 L 45 514" stroke-linejoin="bevel" stroke-miterlimit="10"/><path fill="none" stroke="black" paint-order="fill stroke markers" d=" M 41 502 L 45 502" stroke-linejoin="bevel" stroke-miterlimit="10"/><path fill="none" stroke="black" paint-order="fill stroke markers" d=" M 41 491 L 45 491" stroke-linejoin="bevel" stroke-miterlimit="10"/><path fill="none" stroke="black" paint-order="fill stroke markers" d=" M 41 479 L 45 479" stroke-linejoin="bevel" stroke-miterlimit="10"/><path fill="none" stroke="black" paint-order="fill stroke markers" d=" M 41 468 L 45 468" stroke-linejoin="bevel" stroke-miterlimit="10"/><path fill="none" stroke="black" paint-order="fill stroke markers" d=" M 41 456 L 45 456" stroke-linejoin="bevel" stroke-miterlimit="10"/><path fill="none" stroke="black" paint-order="fill stroke markers" d=" M 41 445 L 45 445" stroke-linejoin="bevel" stroke-miterlimit="10"/><path fill="none" stroke="black" paint-order="fill stroke markers" d=" M 41 433 L 45 433" stroke-linejoin="bevel" stroke-miterlimit="10"/><path fill="none" stroke="black" paint-order="fill stroke markers" d=" M 41 422 L 45 422" stroke-linejoin="bevel" stroke-miterlimit="10"/><path fill="none" stroke="black" paint-order="fill stroke markers" d=" M 41 410 L 45 410" stroke-linejoin="bevel" stroke-miterlimit="10"/><path fill="none" stroke="black" paint-order="fill stroke markers" d=" M 41 399 L 45 399" stroke-linejoin="bevel" stroke-miterlimit="10"/><path fill="none" stroke="black" paint-order="fill stroke markers" d=" M 41 387 L 45 387" stroke-linejoin="bevel" stroke-miterlimit="10"/><path fill="none" stroke="black" paint-order="fill stroke markers" d=" M 41 376 L 45 376" stroke-linejoin="bevel" stroke-miterlimit="10"/><path fill="none" stroke="black" paint-order="fill stroke markers" d=" M 41 365 L 45 365" stroke-linejoin="bevel" stroke-miterlimit="10"/><path fill="none" stroke="black" paint-order="fill stroke markers" d=" M 41 353 L 45 353" stroke-linejoin="bevel" stroke-miterlimit="10"/><path fill="none" stroke="black" paint-order="fill stroke markers" d=" M 41 342 L 45 342" stroke-linejoin="bevel" stroke-miterlimit="10"/><path fill="none" stroke="black" paint-order="fill stroke markers" d=" M 41 330 L 45 330" stroke-linejoin="bevel" stroke-miterlimit="10"/><path fill="none" stroke="black" paint-order="fill stroke markers" d=" M 41 319 L 45 319" stroke-linejoin="bevel" stroke-miterlimit="10"/><path fill="none" stroke="black" paint-order="fill stroke markers" d=" M 41 307 L 45 307" stroke-linejoin="bevel" stroke-miterlimit="10"/><path fill="none" stroke="black" paint-order="fill stroke markers" d=" M 41 296 L 45 296" stroke-linejoin="bevel" stroke-miterlimit="10"/><path fill="none" stroke="black" paint-order="fill stroke markers" d=" M 41 284 L 45 284" stroke-linejoin="bevel" stroke-miterlimit="10"/><path fill="none" stroke="black" paint-order="fill stroke markers" d=" M 41 273 L 45 273" stroke-linejoin="bevel" stroke-miterlimit="10"/><path fill="none" stroke="black" paint-order="fill stroke markers" d=" M 41 261 L 45 261" stroke-linejoin="bevel" stroke-miterlimit="10"/><path fill="none" stroke="black" paint-order="fill stroke markers" d=" M 41 250 L 45 250" stroke-linejoin="bevel" stroke-miterlimit="10"/><path fill="none" stroke="black" paint-order="fill stroke markers" d=" M 41 238 L 45 238" stroke-linejoin="bevel" stroke-miterlimit="10"/><path fill="none" stroke="black" paint-order="fill stroke markers" d=" M 41 227 L 45 227" stroke-linejoin="bevel" stroke-miterlimit="10"/><path fill="none" stroke="black" paint-order="fill stroke markers" d=" M 41 215 L 45 215" stroke-linejoin="bevel" stroke-miterlimit="10"/><path fill="none" stroke="black" paint-order="fill stroke markers" d=" M 41 204 L 45 204" stroke-linejoin="bevel" stroke-miterlimit="10"/><path fill="none" stroke="black" paint-order="fill stroke markers" d=" M 41 192 L 45 192" stroke-linejoin="bevel" stroke-miterlimit="10"/><path fill="none" stroke="black" paint-order="fill stroke markers" d=" M 41 181 L 45 181" stroke-linejoin="bevel" stroke-miterlimit="10"/><path fill="none" stroke="black" paint-order="fill stroke markers" d=" M 41 169 L 45 169" stroke-linejoin="bevel" stroke-miterlimit="10"/><path fill="" stroke="black" paint-order="fill stroke markers" d=" M 41 158 L 45 158" stroke-linejoin="bevel" stroke-miterlimit="10"/><g transform="translate(34,537) rotate(0,0,0)"><text fill="" stroke="none" font-family="helvetica" font-size="8pt" font-style="normal" font-weight="normal" text-decoration="normal" x="0" y="0" text-anchor="end" dominant-baseline="central">0</text><g transform="rotate(0,0,0) translate(-34,-537) translate(34,479) rotate(0,0,0)"><text fill="" stroke="none" font-family="helvetica" font-size="8pt" font-style="normal" font-weight="normal" text-decoration="normal" x="0" y="0" text-anchor="end" dominant-baseline="central">5</text><g transform="rotate(0,0,0) translate(-34,-479) translate(34,422) rotate(0,0,0)"><text fill="" stroke="none" font-family="helvetica" font-size="8pt" font-style="normal" font-weight="normal" text-decoration="normal" x="0" y="0" text-anchor="end" dominant-baseline="central">10</text><g transform="rotate(0,0,0) translate(-34,-422) translate(34,365) rotate(0,0,0)"><text fill="" stroke="none" font-family="helvetica" font-size="8pt" font-style="normal" font-weight="normal" text-decoration="normal" x="0" y="0" text-anchor="end" dominant-baseline="central">15</text><g transform="rotate(0,0,0) translate(-34,-365) translate(34,307) rotate(0,0,0)"><text fill="" stroke="none" font-family="helvetica" font-size="8pt" font-style="normal" font-weight="normal" text-decoration="normal" x="0" y="0" text-anchor="end" dominant-baseline="central">20</text><g transform="rotate(0,0,0) translate(-34,-307) translate(34,250) rotate(0,0,0)"><text fill="" stroke="none" font-family="helvetica" font-size="8pt" font-style="normal" font-weight="normal" text-decoration="normal" x="0" y="0" text-anchor="end" dominant-baseline="central">25</text><g transform="rotate(0,0,0) translate(-34,-250) translate(34,192) rotate(0,0,0)"><text fill="" stroke="none" font-family="helvetica" font-size="8pt" font-style="normal" font-weight="normal" text-decoration="normal" x="0" y="0" text-anchor="end" dominant-baseline="central">30</text><g transform="rotate(0,0,0) translate(-34,-192) translate(16,356) rotate(-90,0,0)"><text fill="" stroke="none" font-family="helvetica" font-size="10pt" font-style="italic" font-weight="normal" text-decoration="normal" x="0" y="0" text-anchor="middle" dominant-baseline="alphabetic">5'seq RPM</text><g transform="rotate(90,0,0) translate(-16,-356)"/></g></g></g></g></g></g></g></g></g></g><g clip-path="url(#eHxwHDxIqxzg)"><g/></g></g></g></svg>