<svg version="1.1" xmlns="http://www.w3.org/2000/svg" xmlns:xlink="http://www.w3.org/1999/xlink" width="600" height="600" style="width: 600px; height: 600px;"><defs><clipPath id="WkKNTVxrFWlI"><path fill="none" stroke="none" d=" M 65 203 L 570 203 L 570 555 L 65 555 L 65 203 Z"/></clipPath><clipPath id="lTohLrECaepW"><path fill="none" stroke="none" d=" M 65 203 L 570 203 L 570 555 L 65 555 L 65 203 Z"/></clipPath><clipPath id="kWdCPRxKeLgw"><path fill="none" stroke="none" d=" M 65 203 L 570 203 L 570 555 L 65 555 L 65 203 Z"/></clipPath><clipPath id="wtXRHTQtlDlD"><path fill="none" stroke="none" d=" M 65 203 L 570 203 L 570 555 L 65 555 L 65 203 Z"/></clipPath><clipPath id="lOeJDpITXIms"><path fill="none" stroke="none" d=" M 65 203 L 570 203 L 570 555 L 65 555 L 65 203 Z"/></clipPath><clipPath id="QWtRKadlORir"><path fill="none" stroke="none" d=" M 65 203 L 570 203 L 570 555 L 65 555 L 65 203 Z"/></clipPath><clipPath id="wKCaWQAldToL"><path fill="none" stroke="none" d=" M 65 203 L 570 203 L 570 555 L 65 555 L 65 203 Z"/></clipPath><clipPath id="IvZJbbkKLWRo"><path fill="none" stroke="none" d=" M 65 203 L 570 203 L 570 555 L 65 555 L 65 203 Z"/></clipPath><clipPath id="XMVryrIBxLIG"><path fill="none" stroke="none" d=" M 65 203 L 570 203 L 570 555 L 65 555 L 65 203 Z"/></clipPath></defs><g><g/><g/><g/><g transform="scale(1,1) translate(0.5,0.5)"><rect fill="#FFFFFF" stroke="none" x="0" y="0" width="600" height="600"/><rect fill="#ffffff" stroke="none" x="0" y="0" width="600" height="600"/><rect fill="#FFFFFF" stroke="none" x="65" y="203" width="505" height="352"/><rect fill="#ffffff" stroke="none" x="65" y="203" width="505" height="352"/><g><rect fill="none" stroke="#e5e5e5" x="65" y="203" width="505" height="352" stroke-linejoin="bevel" stroke-miterlimit="10"/></g><g clip-path="url(#WkKNTVxrFWlI)"><g><g><path fill="none" stroke="#e5e5e5" paint-order="fill stroke markers" d=" M 88 555 L 88 203" stroke-linejoin="bevel" stroke-miterlimit="10"/><path fill="none" stroke="#e5e5e5" paint-order="fill stroke markers" d=" M 160 555 L 160 203" stroke-linejoin="bevel" stroke-miterlimit="10"/><path fill="none" stroke="#e5e5e5" paint-order="fill stroke markers" d=" M 231 555 L 231 203" stroke-linejoin="bevel" stroke-miterlimit="10"/><path fill="none" stroke="#e5e5e5" paint-order="fill stroke markers" d=" M 303 555 L 303 203" stroke-linejoin="bevel" stroke-miterlimit="10"/><path fill="none" stroke="#e5e5e5" paint-order="fill stroke markers" d=" M 375 555 L 375 203" stroke-linejoin="bevel" stroke-miterlimit="10"/><path fill="none" stroke="#e5e5e5" paint-order="fill stroke markers" d=" M 447 555 L 447 203" stroke-linejoin="bevel" stroke-miterlimit="10"/><path fill="none" stroke="#e5e5e5" paint-order="fill stroke markers" d=" M 518 555 L 518 203" stroke-linejoin="bevel" stroke-miterlimit="10"/></g></g></g><g clip-path="url(#lTohLrECaepW)"><g><g><path fill="none" stroke="#e5e5e5" paint-order="fill stroke markers" d=" M 65 555 L 570 555" stroke-linejoin="bevel" stroke-miterlimit="10"/><path fill="none" stroke="#e5e5e5" paint-order="fill stroke markers" d=" M 65 475 L 570 475" stroke-linejoin="bevel" stroke-miterlimit="10"/><path fill="none" stroke="#e5e5e5" paint-order="fill stroke markers" d=" M 65 394 L 570 394" stroke-linejoin="bevel" stroke-miterlimit="10"/><path fill="none" stroke="#e5e5e5" paint-order="fill stroke markers" d=" M 65 314 L 570 314" stroke-linejoin="bevel" stroke-miterlimit="10"/><path fill="none" stroke="#e5e5e5" paint-order="fill stroke markers" d=" M 65 234 L 570 234" stroke-linejoin="bevel" stroke-miterlimit="10"/></g></g></g><g clip-path="url(#kWdCPRxKeLgw)"><g><g><path fill="none" stroke="none"/><path fill="none" stroke="#1F78B4" paint-order="fill stroke markers" d=" M 87.9545454545455 469.9651324297929 L 102.30113636363643 488.17632184634203 L 116.64772727272731 485.1095368736403 L 130.99431818181824 470.56815194689716 L 145.34090909090912 480.1475477043251 L 159.68750000000006 484.02410174285257 L 174.03409090909093 466.86388919897087 L 188.38068181818187 484.230851291574 L 202.72727272727275 478.4590930564331 L 217.07386363636368 471.7914201101658 L 231.42045454545456 483.92072696849186 L 245.7670454545455 474.0484360170418 L 260.1136363636364 472.37721049821 L 274.4602272727273 490.4505668822781 L 288.80681818181824 481.2329828351128 L 303.1534090909091 487.4010110386365 L 317.5 497.18715634478593 L 331.84659090909093 473.91060298456085 L 346.19318181818187 465.5544753904016 L 360.53977272727275 483.4038530966882 L 374.8863636363636 475.6162867615129 L 389.23295454545456 459.4209054449981 L 403.5795454545455 483.5416861291692 L 417.9261363636364 472.75625133753266 L 432.2727272727273 464.1761450655918 L 446.6193181818182 495.94665905245716 L 460.9659090909091 490.2782755916769 L 475.3125 492.4146875951321 L 489.65909090909093 496.6702824729823 L 504.0056818181818 522.5656634503459 L 518.3522727272727 478.7347591213951 L 532.6988636363636 525.8908853589496 L 547.0454545454546 241.09338199512956" stroke-linejoin="bevel" stroke-miterlimit="10" stroke-width="2"/></g></g></g><g clip-path="url(#wtXRHTQtlDlD)"><g><g><path fill="none" stroke="none"/><path fill="none" stroke="#33A02C" paint-order="fill stroke markers" d=" M 87.9545454545455 465.8073587521583 L 102.30113636363643 481.27076753235195 L 116.64772727272731 475.06222546321635 L 130.99431818181824 459.8140461414194 L 145.34090909090912 471.13842687552267 L 159.68750000000006 482.9263787507881 L 174.03409090909093 460.74118842374367 L 188.38068181818187 474.0854148443391 L 202.72727272727275 472.6284769721152 L 217.07386363636368 466.8669499319574 L 231.42045454545456 475.6085771653003 L 245.7670454545455 472.479471962456 L 260.1136363636364 465.3437876109961 L 274.4602272727273 481.6515581125923 L 288.80681818181824 475.22778658506 L 303.1534090909091 479.66482465046886 L 317.5 487.13163124561595 L 331.84659090909093 471.15498298770706 L 346.19318181818187 454.4664219058706 L 360.53977272727275 473.5059509178864 L 374.8863636363636 473.7377364884674 L 389.23295454545456 456.4697114801784 L 403.5795454545455 480.2442885769215 L 417.9261363636364 478.57212124630104 L 432.2727272727273 458.7047866250672 L 446.6193181818182 483.1250520970004 L 460.9659090909091 482.6118126192852 L 475.3125 490.04550699006353 L 489.65909090909093 485.40979557844236 L 504.0056818181818 515.1445730615555 L 518.3522727272727 481.27076753235195 L 532.6988636363636 524.2669908751388 L 547.0454545454546 228.97217395486666" stroke-linejoin="bevel" stroke-miterlimit="10" stroke-width="2"/></g></g></g><g clip-path="url(#lOeJDpITXIms)"><g><g><path fill="none" stroke="none"/><path fill="none" stroke="#C51B7D" paint-order="fill stroke markers" d=" M 87.9545454545455 481.9702705123456 L 102.30113636363643 488.094672958658 L 116.64772727272731 492.48349555862126 L 130.99431818181824 479.2372309841867 L 145.34090909090912 486.977518115031 L 159.68750000000006 495.595569765868 L 174.03409090909093 479.0177898541885 L 188.38068181818187 486.7381277913966 L 202.72727272727275 491.9648165240802 L 217.07386363636368 480.6137253450842 L 231.42045454545456 491.1468995849961 L 245.7670454545455 480.1947922787241 L 260.1136363636364 479.7359608250915 L 274.4602272727273 496.4932834794968 L 288.80681818181824 483.4864092286966 L 303.1534090909091 497.4308955803981 L 317.5 499.66520526765214 L 331.84659090909093 484.1846310059634 L 346.19318181818187 475.4468841933093 L 360.53977272727275 490.7479157122722 L 374.8863636363636 481.49148986507686 L 389.23295454545456 462.3602131679642 L 403.5795454545455 484.1048342314187 L 417.9261363636364 485.68082052867817 L 432.2727272727273 474.509272092408 L 446.6193181818182 500.18388430219323 L 460.9659090909091 495.3561794422336 L 475.3125 507.0264577194087 L 489.65909090909093 498.88718671584047 L 504.0056818181818 524.9607827983496 L 518.3522727272727 488.13457134593045 L 532.6988636363636 537.169689303702 L 547.0454545454546 219" stroke-linejoin="bevel" stroke-miterlimit="10" stroke-width="2"/></g></g></g><g clip-path="url(#QWtRKadlORir)"><g><g><path fill="none" stroke="none"/><path fill="none" stroke="#542788" paint-order="fill stroke markers" d=" M 87.9545454545455 459.0653065604102 L 102.30113636363643 476.6977229888417 L 116.64772727272731 477.66124301225324 L 130.99431818181824 455.885690483152 L 145.34090909090912 471.06113085188406 L 159.68750000000006 483.73141915974605 L 174.03409090909093 446.6840742595717 L 188.38068181818187 474.33709893148335 L 202.72727272727275 477.8780350175208 L 217.07386363636368 463.8347306762974 L 231.42045454545456 477.805771015765 L 245.7670454545455 468.26692278399054 L 260.1136363636364 456.7528585042225 L 274.4602272727273 475.9991709718683 L 288.80681818181824 472.9399948975366 L 303.1534090909091 472.8195548946102 L 317.5 483.562803155649 L 331.84659090909093 470.50710683842243 L 346.19318181818187 445.1665302226985 L 360.53977272727275 467.5924587676025 L 374.8863636363636 468.6523307933552 L 389.23295454545456 441.07157012319936 L 403.5795454545455 468.0019547775524 L 417.9261363636364 466.29170673599685 L 432.2727272727273 447.6475942829833 L 446.6193181818182 475.13200295079787 L 460.9659090909091 480.91312309126727 L 475.3125 488.88625128499785 L 489.65909090909093 487.2964432463688 L 504.0056818181818 520.3933560505558 L 518.3522727272727 452.68198640530863 L 532.6988636363636 512.323875854484 L 547.0454545454546 229.48257298202145" stroke-linejoin="bevel" stroke-miterlimit="10" stroke-width="2"/></g></g></g><g clip-path="url(#wKCaWQAldToL)"><g><g><path fill="none" stroke="none"/><path fill="none" stroke="#A6CEE3" paint-order="fill stroke markers" d=" M 87.9545454545455 479.40407632516263 L 102.30113636363643 499.0404144482384 L 116.64772727272731 505.1491588914916 L 130.99431818181824 474.3616962485621 L 145.34090909090912 492.20044872499477 L 159.68750000000006 504.95111979482755 L 174.03409090909093 472.88401991191483 L 188.38068181818187 493.83046282830674 L 202.72727272727275 497.2275950249288 L 217.07386363636368 477.7131271151848 L 231.42045454545456 500.60949344488444 L 245.7670454545455 494.9882298549582 L 260.1136363636364 472.79261725191606 L 274.4602272727273 500.5637921148851 L 288.80681818181824 493.6476575083091 L 303.1534090909091 493.3125144216469 L 317.5 515.4471919180231 L 331.84659090909093 495.65851602828275 L 346.19318181818187 471.7719542152628 L 360.53977272727275 497.45610167492583 L 374.8863636363636 496.40497108493963 L 389.23295454545456 467.30845765198796 L 403.5795454545455 498.38536205158033 L 417.9261363636364 501.9805333448665 L 432.2727272727273 483.5476635784416 L 446.6193181818182 507.63226448812566 L 460.9659090909091 514.8378408513645 L 475.3125 505.25579532815686 L 489.65909090909093 505.9260815014814 L 504.0056818181818 531.6559302911439 L 518.3522727272727 474.49880023856036 L 532.6988636363636 533.423048384454 L 547.0454545454546 268.4772046012629" stroke-linejoin="bevel" stroke-miterlimit="10" stroke-width="2"/></g></g></g><g clip-path="url(#IvZJbbkKLWRo)"><g><g><path fill="none" stroke="none"/><path fill="none" stroke="#B2DF8A" paint-order="fill stroke markers" d=" M 87.9545454545455 475.38471271989937 L 102.30113636363643 498.6030386621437 L 116.64772727272731 504.9353093736649 L 130.99431818181824 478.03883278710464 L 145.34090909090912 485.2488439932921 L 159.68750000000006 499.08370607588955 L 174.03409090909093 473.92181189545556 L 188.38068181818187 490.8705628757977 L 202.72727272727275 498.8956188270325 L 217.07386363636368 475.99077163288325 L 231.42045454545456 491.81099912008307 L 245.7670454545455 491.2676359567182 L 260.1136363636364 476.3878447138037 L 274.4602272727273 494.65320643614535 L 288.80681818181824 495.2174681827165 L 303.1534090909091 486.0638887383394 L 317.5 507.5685308576638 L 331.84659090909093 490.43169262846453 L 346.19318181818187 468.3418901793626 L 360.53977272727275 500.8182884820158 L 374.8863636363636 494.1725390223995 L 389.23295454545456 464.41295653657056 L 403.5795454545455 497.5372109186203 L 417.9261363636364 496.6803690071604 L 432.2727272727273 476.01167021608956 L 446.6193181818182 499.5016777400163 L 460.9659090909091 502.86634963623715 L 475.3125 497.62080525144574 L 489.65909090909093 501.40344881179334 L 504.0056818181818 535.5308351877475 L 518.3522727272727 477.3909767077081 L 532.6988636363636 539 L 547.0454545454546 265.7510245770974" stroke-linejoin="bevel" stroke-miterlimit="10" stroke-width="2"/></g></g></g><g><g/><g><path fill="#ffffff" stroke="#e5e5e5" paint-order="fill stroke markers" d=" M 75 38 L 469.3125 38 L 469.3125 193 L 75 193 L 75 38 Z" fill-opacity="0.95" stroke-linejoin="bevel" stroke-miterlimit="10" stroke-opacity="0.5"/><text fill="#444444" stroke="none" font-family="helvetica" font-size="10pt" font-style="normal" font-weight="normal" text-decoration="normal" x="110" y="58" text-anchor="start" dominant-baseline="central">may7_fluc_rep01_ACGCTG.fastqAligned.primary.out_dedup</text><g><path fill="none" stroke="#1F78B4" paint-order="fill stroke markers" d=" M 85 58 L 105 58" stroke-linejoin="bevel" stroke-miterlimit="10" stroke-width="2"/></g><text fill="#444444" stroke="none" font-family="helvetica" font-size="10pt" font-style="normal" font-weight="normal" text-decoration="normal" x="110" y="81" text-anchor="start" dominant-baseline="central">may7_fluc_rep02_GTGATC.fastqAligned.primary.out_dedup</text><g><path fill="none" stroke="#33A02C" paint-order="fill stroke markers" d=" M 85 81 L 105 81" stroke-linejoin="bevel" stroke-miterlimit="10" stroke-width="2"/></g><text fill="#444444" stroke="none" font-family="helvetica" font-size="10pt" font-style="normal" font-weight="normal" text-decoration="normal" x="110" y="104" text-anchor="start" dominant-baseline="central">may7_fluc_rep03_ACTGGT.fastqAligned.primary.out_dedup</text><g><path fill="none" stroke="#C51B7D" paint-order="fill stroke markers" d=" M 85 104 L 105 104" stroke-linejoin="bevel" stroke-miterlimit="10" stroke-width="2"/></g><text fill="#444444" stroke="none" font-family="helvetica" font-size="10pt" font-style="normal" font-weight="normal" text-decoration="normal" x="110" y="127" text-anchor="start" dominant-baseline="central">may7_ut_rep01_CGTGCA.fastqAligned.primary.out_dedup</text><g><path fill="none" stroke="#542788" paint-order="fill stroke markers" d=" M 85 127 L 105 127" stroke-linejoin="bevel" stroke-miterlimit="10" stroke-width="2"/></g><text fill="#444444" stroke="none" font-family="helvetica" font-size="10pt" font-style="normal" font-weight="normal" text-decoration="normal" x="110" y="150" text-anchor="start" dominant-baseline="central">may7_ut_rep02_TAATGT.fastqAligned.primary.out_dedup</text><g><path fill="none" stroke="#A6CEE3" paint-order="fill stroke markers" d=" M 85 150 L 105 150" stroke-linejoin="bevel" stroke-miterlimit="10" stroke-width="2"/></g><text fill="#444444" stroke="none" font-family="helvetica" font-size="10pt" font-style="normal" font-weight="normal" text-decoration="normal" x="110" y="173" text-anchor="start" dominant-baseline="central">may7_ut_rep03_CTACAC.fastqAligned.primary.out_dedup</text><g><path fill="none" stroke="#B2DF8A" paint-order="fill stroke markers" d=" M 85 173 L 105 173" stroke-linejoin="bevel" stroke-miterlimit="10" stroke-width="2"/></g></g></g><g><g fill="#444444"><path fill="" stroke="none" d=""/><g transform="translate(65,23)"><path fill="none" stroke="none"/><text fill="" stroke="none" font-family="helvetica" font-size="10pt" font-style="normal" font-weight="bold" text-decoration="normal" x="0" y="0" text-anchor="start" dominant-baseline="text-after-edge">GAA(GLU)-codon_scaled</text></g></g></g><g/><g><g fill="#444444"><path fill="none" stroke="black" paint-order="fill stroke markers" d=" M 65 555 L 570 555" stroke-linejoin="bevel" stroke-miterlimit="10"/><path fill="none" stroke="black" paint-order="fill stroke markers" d=" M 88 561 L 88 553" stroke-linejoin="bevel" stroke-miterlimit="10"/><path fill="none" stroke="black" paint-order="fill stroke markers" d=" M 160 561 L 160 553" stroke-linejoin="bevel" stroke-miterlimit="10"/><path fill="none" stroke="black" paint-order="fill stroke markers" d=" M 231 561 L 231 553" stroke-linejoin="bevel" stroke-miterlimit="10"/><path fill="none" stroke="black" paint-order="fill stroke markers" d=" M 303 561 L 303 553" stroke-linejoin="bevel" stroke-miterlimit="10"/><path fill="none" stroke="black" paint-order="fill stroke markers" d=" M 375 561 L 375 553" stroke-linejoin="bevel" stroke-miterlimit="10"/><path fill="none" stroke="black" paint-order="fill stroke markers" d=" M 447 561 L 447 553" stroke-linejoin="bevel" stroke-miterlimit="10"/><path fill="none" stroke="black" paint-order="fill stroke markers" d=" M 518 561 L 518 553" stroke-linejoin="bevel" stroke-miterlimit="10"/><path fill="none" stroke="black" paint-order="fill stroke markers" d=" M 74 559 L 74 555" stroke-linejoin="bevel" stroke-miterlimit="10"/><path fill="none" stroke="black" paint-order="fill stroke markers" d=" M 88 559 L 88 555" stroke-linejoin="bevel" stroke-miterlimit="10"/><path fill="none" stroke="black" paint-order="fill stroke markers" d=" M 102 559 L 102 555" stroke-linejoin="bevel" stroke-miterlimit="10"/><path fill="none" stroke="black" paint-order="fill stroke markers" d=" M 117 559 L 117 555" stroke-linejoin="bevel" stroke-miterlimit="10"/><path fill="none" stroke="black" paint-order="fill stroke markers" d=" M 131 559 L 131 555" stroke-linejoin="bevel" stroke-miterlimit="10"/><path fill="none" stroke="black" paint-order="fill stroke markers" d=" M 145 559 L 145 555" stroke-linejoin="bevel" stroke-miterlimit="10"/><path fill="none" stroke="black" paint-order="fill stroke markers" d=" M 160 559 L 160 555" stroke-linejoin="bevel" stroke-miterlimit="10"/><path fill="none" stroke="black" paint-order="fill stroke markers" d=" M 174 559 L 174 555" stroke-linejoin="bevel" stroke-miterlimit="10"/><path fill="none" stroke="black" paint-order="fill stroke markers" d=" M 188 559 L 188 555" stroke-linejoin="bevel" stroke-miterlimit="10"/><path fill="none" stroke="black" paint-order="fill stroke markers" d=" M 203 559 L 203 555" stroke-linejoin="bevel" stroke-miterlimit="10"/><path fill="none" stroke="black" paint-order="fill stroke markers" d=" M 217 559 L 217 555" stroke-linejoin="bevel" stroke-miterlimit="10"/><path fill="none" stroke="black" paint-order="fill stroke markers" d=" M 231 559 L 231 555" stroke-linejoin="bevel" stroke-miterlimit="10"/><path fill="none" stroke="black" paint-order="fill stroke markers" d=" M 246 559 L 246 555" stroke-linejoin="bevel" stroke-miterlimit="10"/><path fill="none" stroke="black" paint-order="fill stroke markers" d=" M 260 559 L 260 555" stroke-linejoin="bevel" stroke-miterlimit="10"/><path fill="none" stroke="black" paint-order="fill stroke markers" d=" M 274 559 L 274 555" stroke-linejoin="bevel" stroke-miterlimit="10"/><path fill="none" stroke="black" paint-order="fill stroke markers" d=" M 289 559 L 289 555" stroke-linejoin="bevel" stroke-miterlimit="10"/><path fill="none" stroke="black" paint-order="fill stroke markers" d=" M 303 559 L 303 555" stroke-linejoin="bevel" stroke-miterlimit="10"/><path fill="none" stroke="black" paint-order="fill stroke markers" d=" M 318 559 L 318 555" stroke-linejoin="bevel" stroke-miterlimit="10"/><path fill="none" stroke="black" paint-order="fill stroke markers" d=" M 332 559 L 332 555" stroke-linejoin="bevel" stroke-miterlimit="10"/><path fill="none" stroke="black" paint-order="fill stroke markers" d=" M 346 559 L 346 555" stroke-linejoin="bevel" stroke-miterlimit="10"/><path fill="none" stroke="black" paint-order="fill stroke markers" d=" M 361 559 L 361 555" stroke-linejoin="bevel" stroke-miterlimit="10"/><path fill="none" stroke="black" paint-order="fill stroke markers" d=" M 375 559 L 375 555" stroke-linejoin="bevel" stroke-miterlimit="10"/><path fill="none" stroke="black" paint-order="fill stroke markers" d=" M 389 559 L 389 555" stroke-linejoin="bevel" stroke-miterlimit="10"/><path fill="none" stroke="black" paint-order="fill stroke markers" d=" M 404 559 L 404 555" stroke-linejoin="bevel" stroke-miterlimit="10"/><path fill="none" stroke="black" paint-order="fill stroke markers" d=" M 418 559 L 418 555" stroke-linejoin="bevel" stroke-miterlimit="10"/><path fill="none" stroke="black" paint-order="fill stroke markers" d=" M 432 559 L 432 555" stroke-linejoin="bevel" stroke-miterlimit="10"/><path fill="none" stroke="black" paint-order="fill stroke markers" d=" M 447 559 L 447 555" stroke-linejoin="bevel" stroke-miterlimit="10"/><path fill="none" stroke="black" paint-order="fill stroke markers" d=" M 461 559 L 461 555" stroke-linejoin="bevel" stroke-miterlimit="10"/><path fill="none" stroke="black" paint-order="fill stroke markers" d=" M 475 559 L 475 555" stroke-linejoin="bevel" stroke-miterlimit="10"/><path fill="none" stroke="black" paint-order="fill stroke markers" d=" M 490 559 L 490 555" stroke-linejoin="bevel" stroke-miterlimit="10"/><path fill="none" stroke="black" paint-order="fill stroke markers" d=" M 504 559 L 504 555" stroke-linejoin="bevel" stroke-miterlimit="10"/><path fill="none" stroke="black" paint-order="fill stroke markers" d=" M 518 559 L 518 555" stroke-linejoin="bevel" stroke-miterlimit="10"/><path fill="none" stroke="black" paint-order="fill stroke markers" d=" M 533 559 L 533 555" stroke-linejoin="bevel" stroke-miterlimit="10"/><path fill="none" stroke="black" paint-order="fill stroke markers" d=" M 547 559 L 547 555" stroke-linejoin="bevel" stroke-miterlimit="10"/><path fill="" stroke="black" paint-order="fill stroke markers" d=" M 561 559 L 561 555" stroke-linejoin="bevel" stroke-miterlimit="10"/><g transform="translate(88,566) rotate(0,0,0)"><text fill="" stroke="none" font-family="helvetica" font-size="8pt" font-style="normal" font-weight="normal" text-decoration="normal" x="0" y="0" text-anchor="middle" dominant-baseline="hanging">-30</text><g transform="rotate(0,0,0) translate(-88,-566) translate(160,566) rotate(0,0,0)"><text fill="" stroke="none" font-family="helvetica" font-size="8pt" font-style="normal" font-weight="normal" text-decoration="normal" x="0" y="0" text-anchor="middle" dominant-baseline="hanging">-25</text><g transform="rotate(0,0,0) translate(-160,-566) translate(231,566) rotate(0,0,0)"><text fill="" stroke="none" font-family="helvetica" font-size="8pt" font-style="normal" font-weight="normal" text-decoration="normal" x="0" y="0" text-anchor="middle" dominant-baseline="hanging">-20</text><g transform="rotate(0,0,0) translate(-231,-566) translate(303,566) rotate(0,0,0)"><text fill="" stroke="none" font-family="helvetica" font-size="8pt" font-style="normal" font-weight="normal" text-decoration="normal" x="0" y="0" text-anchor="middle" dominant-baseline="hanging">-15</text><g transform="rotate(0,0,0) translate(-303,-566) translate(375,566) rotate(0,0,0)"><text fill="" stroke="none" font-family="helvetica" font-size="8pt" font-style="normal" font-weight="normal" text-decoration="normal" x="0" y="0" text-anchor="middle" dominant-baseline="hanging">-10</text><g transform="rotate(0,0,0) translate(-375,-566) translate(447,566) rotate(0,0,0)"><text fill="" stroke="none" font-family="helvetica" font-size="8pt" font-style="normal" font-weight="normal" text-decoration="normal" x="0" y="0" text-anchor="middle" dominant-baseline="hanging">-5</text><g transform="rotate(0,0,0) translate(-447,-566) translate(518,566) rotate(0,0,0)"><text fill="" stroke="none" font-family="helvetica" font-size="8pt" font-style="normal" font-weight="normal" text-decoration="normal" x="0" y="0" text-anchor="middle" dominant-baseline="hanging">0</text><g transform="rotate(0,0,0) translate(-518,-566) translate(318,584) rotate(0,0,0)"><text fill="" stroke="none" font-family="helvetica" font-size="10pt" font-style="italic" font-weight="normal" text-decoration="normal" x="0" y="0" text-anchor="middle" dominant-baseline="hanging">position from codon</text><g transform="rotate(0,0,0) translate(-318,-584)"/></g></g></g></g></g></g></g></g></g></g><g><g fill="#444444"><path fill="none" stroke="black" paint-order="fill stroke markers" d=" M 65 555 L 65 203" stroke-linejoin="bevel" stroke-miterlimit="10"/><path fill="none" stroke="black" paint-order="fill stroke markers" d=" M 59 555 L 67 555" stroke-linejoin="bevel" stroke-miterlimit="10"/><path fill="none" stroke="black" paint-order="fill stroke markers" d=" M 59 475 L 67 475" stroke-linejoin="bevel" stroke-miterlimit="10"/><path fill="none" stroke="black" paint-order="fill stroke markers" d=" M 59 394 L 67 394" stroke-linejoin="bevel" stroke-miterlimit="10"/><path fill="none" stroke="black" paint-order="fill stroke markers" d=" M 59 314 L 67 314" stroke-linejoin="bevel" stroke-miterlimit="10"/><path fill="none" stroke="black" paint-order="fill stroke markers" d=" M 59 234 L 67 234" stroke-linejoin="bevel" stroke-miterlimit="10"/><path fill="none" stroke="black" paint-order="fill stroke markers" d=" M 61 555 L 65 555" stroke-linejoin="bevel" stroke-miterlimit="10"/><path fill="none" stroke="black" paint-order="fill stroke markers" d=" M 61 539 L 65 539" stroke-linejoin="bevel" stroke-miterlimit="10"/><path fill="none" stroke="black" paint-order="fill stroke markers" d=" M 61 523 L 65 523" stroke-linejoin="bevel" stroke-miterlimit="10"/><path fill="none" stroke="black" paint-order="fill stroke markers" d=" M 61 507 L 65 507" stroke-linejoin="bevel" stroke-miterlimit="10"/><path fill="none" stroke="black" paint-order="fill stroke markers" d=" M 61 491 L 65 491" stroke-linejoin="bevel" stroke-miterlimit="10"/><path fill="none" stroke="black" paint-order="fill stroke markers" d=" M 61 475 L 65 475" stroke-linejoin="bevel" stroke-miterlimit="10"/><path fill="none" stroke="black" paint-order="fill stroke markers" d=" M 61 459 L 65 459" stroke-linejoin="bevel" stroke-miterlimit="10"/><path fill="none" stroke="black" paint-order="fill stroke markers" d=" M 61 443 L 65 443" stroke-linejoin="bevel" stroke-miterlimit="10"/><path fill="none" stroke="black" paint-order="fill stroke markers" d=" M 61 426 L 65 426" stroke-linejoin="bevel" stroke-miterlimit="10"/><path fill="none" stroke="black" paint-order="fill stroke markers" d=" M 61 410 L 65 410" stroke-linejoin="bevel" stroke-miterlimit="10"/><path fill="none" stroke="black" paint-order="fill stroke markers" d=" M 61 394 L 65 394" stroke-linejoin="bevel" stroke-miterlimit="10"/><path fill="none" stroke="black" paint-order="fill stroke markers" d=" M 61 378 L 65 378" stroke-linejoin="bevel" stroke-miterlimit="10"/><path fill="none" stroke="black" paint-order="fill stroke markers" d=" M 61 362 L 65 362" stroke-linejoin="bevel" stroke-miterlimit="10"/><path fill="none" stroke="black" paint-order="fill stroke markers" d=" M 61 346 L 65 346" stroke-linejoin="bevel" stroke-miterlimit="10"/><path fill="none" stroke="black" paint-order="fill stroke markers" d=" M 61 330 L 65 330" stroke-linejoin="bevel" stroke-miterlimit="10"/><path fill="none" stroke="black" paint-order="fill stroke markers" d=" M 61 314 L 65 314" stroke-linejoin="bevel" stroke-miterlimit="10"/><path fill="none" stroke="black" paint-order="fill stroke markers" d=" M 61 298 L 65 298" stroke-linejoin="bevel" stroke-miterlimit="10"/><path fill="none" stroke="black" paint-order="fill stroke markers" d=" M 61 282 L 65 282" stroke-linejoin="bevel" stroke-miterlimit="10"/><path fill="none" stroke="black" paint-order="fill stroke markers" d=" M 61 266 L 65 266" stroke-linejoin="bevel" stroke-miterlimit="10"/><path fill="none" stroke="black" paint-order="fill stroke markers" d=" M 61 250 L 65 250" stroke-linejoin="bevel" stroke-miterlimit="10"/><path fill="none" stroke="black" paint-order="fill stroke markers" d=" M 61 234 L 65 234" stroke-linejoin="bevel" stroke-miterlimit="10"/><path fill="" stroke="black" paint-order="fill stroke markers" d=" M 61 218 L 65 218" stroke-linejoin="bevel" stroke-miterlimit="10"/><g transform="translate(54,555) rotate(0,0,0)"><text fill="" stroke="none" font-family="helvetica" font-size="8pt" font-style="normal" font-weight="normal" text-decoration="normal" x="0" y="0" text-anchor="end" dominant-baseline="central">20000</text><g transform="rotate(0,0,0) translate(-54,-555) translate(54,475) rotate(0,0,0)"><text fill="" stroke="none" font-family="helvetica" font-size="8pt" font-style="normal" font-weight="normal" text-decoration="normal" x="0" y="0" text-anchor="end" dominant-baseline="central">25000</text><g transform="rotate(0,0,0) translate(-54,-475) translate(54,394) rotate(0,0,0)"><text fill="" stroke="none" font-family="helvetica" font-size="8pt" font-style="normal" font-weight="normal" text-decoration="normal" x="0" y="0" text-anchor="end" dominant-baseline="central">30000</text><g transform="rotate(0,0,0) translate(-54,-394) translate(54,314) rotate(0,0,0)"><text fill="" stroke="none" font-family="helvetica" font-size="8pt" font-style="normal" font-weight="normal" text-decoration="normal" x="0" y="0" text-anchor="end" dominant-baseline="central">35000</text><g transform="rotate(0,0,0) translate(-54,-314) translate(54,234) rotate(0,0,0)"><text fill="" stroke="none" font-family="helvetica" font-size="8pt" font-style="normal" font-weight="normal" text-decoration="normal" x="0" y="0" text-anchor="end" dominant-baseline="central">40000</text><g transform="rotate(0,0,0) translate(-54,-234) translate(15,379) rotate(-90,0,0)"><text fill="" stroke="none" font-family="helvetica" font-size="10pt" font-style="italic" font-weight="normal" text-decoration="normal" x="0" y="0" text-anchor="middle" dominant-baseline="alphabetic">5'seq RPM</text><g transform="rotate(90,0,0) translate(-15,-379)"/></g></g></g></g></g></g></g></g><g clip-path="url(#XMVryrIBxLIG)"><g/></g></g></g></svg>