<svg version="1.1" xmlns="http://www.w3.org/2000/svg" xmlns:xlink="http://www.w3.org/1999/xlink" width="600" height="600" style="width: 600px; height: 600px;"><defs><clipPath id="wrbfGTWACgrS"><path fill="none" stroke="none" d=" M 58 203 L 570 203 L 570 555 L 58 555 L 58 203 Z"/></clipPath><clipPath id="lmwZVBqrJkSr"><path fill="none" stroke="none" d=" M 58 203 L 570 203 L 570 555 L 58 555 L 58 203 Z"/></clipPath><clipPath id="AZhyvvhCPgMa"><path fill="none" stroke="none" d=" M 58 203 L 570 203 L 570 555 L 58 555 L 58 203 Z"/></clipPath><clipPath id="QvsbFDnDxLiI"><path fill="none" stroke="none" d=" M 58 203 L 570 203 L 570 555 L 58 555 L 58 203 Z"/></clipPath><clipPath id="HwfesMseJTAq"><path fill="none" stroke="none" d=" M 58 203 L 570 203 L 570 555 L 58 555 L 58 203 Z"/></clipPath><clipPath id="WoKWAEgmtDsH"><path fill="none" stroke="none" d=" M 58 203 L 570 203 L 570 555 L 58 555 L 58 203 Z"/></clipPath><clipPath id="pFdbATBTDHTr"><path fill="none" stroke="none" d=" M 58 203 L 570 203 L 570 555 L 58 555 L 58 203 Z"/></clipPath><clipPath id="gLqFHwtTdEcP"><path fill="none" stroke="none" d=" M 58 203 L 570 203 L 570 555 L 58 555 L 58 203 Z"/></clipPath><clipPath id="uekbofpRZAhu"><path fill="none" stroke="none" d=" M 58 203 L 570 203 L 570 555 L 58 555 L 58 203 Z"/></clipPath></defs><g><g/><g/><g/><g transform="scale(1,1) translate(0.5,0.5)"><rect fill="#FFFFFF" stroke="none" x="0" y="0" width="600" height="600"/><rect fill="#ffffff" stroke="none" x="0" y="0" width="600" height="600"/><rect fill="#FFFFFF" stroke="none" x="58" y="203" width="512" height="352"/><rect fill="#ffffff" stroke="none" x="58" y="203" width="512" height="352"/><g><rect fill="none" stroke="#e5e5e5" x="58" y="203" width="512" height="352" stroke-linejoin="bevel" stroke-miterlimit="10"/></g><g clip-path="url(#wrbfGTWACgrS)"><g><g><path fill="none" stroke="#e5e5e5" paint-order="fill stroke markers" d=" M 81 555 L 81 203" stroke-linejoin="bevel" stroke-miterlimit="10"/><path fill="none" stroke="#e5e5e5" paint-order="fill stroke markers" d=" M 154 555 L 154 203" stroke-linejoin="bevel" stroke-miterlimit="10"/><path fill="none" stroke="#e5e5e5" paint-order="fill stroke markers" d=" M 227 555 L 227 203" stroke-linejoin="bevel" stroke-miterlimit="10"/><path fill="none" stroke="#e5e5e5" paint-order="fill stroke markers" d=" M 299 555 L 299 203" stroke-linejoin="bevel" stroke-miterlimit="10"/><path fill="none" stroke="#e5e5e5" paint-order="fill stroke markers" d=" M 372 555 L 372 203" stroke-linejoin="bevel" stroke-miterlimit="10"/><path fill="none" stroke="#e5e5e5" paint-order="fill stroke markers" d=" M 445 555 L 445 203" stroke-linejoin="bevel" stroke-miterlimit="10"/><path fill="none" stroke="#e5e5e5" paint-order="fill stroke markers" d=" M 518 555 L 518 203" stroke-linejoin="bevel" stroke-miterlimit="10"/></g></g></g><g clip-path="url(#lmwZVBqrJkSr)"><g><g><path fill="none" stroke="#e5e5e5" paint-order="fill stroke markers" d=" M 58 493 L 570 493" stroke-linejoin="bevel" stroke-miterlimit="10"/><path fill="none" stroke="#e5e5e5" paint-order="fill stroke markers" d=" M 58 419 L 570 419" stroke-linejoin="bevel" stroke-miterlimit="10"/><path fill="none" stroke="#e5e5e5" paint-order="fill stroke markers" d=" M 58 344 L 570 344" stroke-linejoin="bevel" stroke-miterlimit="10"/><path fill="none" stroke="#e5e5e5" paint-order="fill stroke markers" d=" M 58 269 L 570 269" stroke-linejoin="bevel" stroke-miterlimit="10"/></g></g></g><g clip-path="url(#AZhyvvhCPgMa)"><g><g><path fill="none" stroke="none"/><path fill="none" stroke="#1F78B4" paint-order="fill stroke markers" d=" M 81.27272727272725 410.10836970858486 L 95.81818181818181 457.3885235815111 L 110.36363636363637 513.187624098208 L 124.90909090909093 434.24538519926796 L 139.45454545454544 476.2721886418691 L 154 487.63078416689643 L 168.54545454545456 427.8561752164401 L 183.09090909090907 447.4497524971123 L 197.63636363636363 488.1987139431478 L 212.1818181818182 386.8232488822788 L 226.72727272727275 404.71303683419694 L 241.27272727272725 486.0689772822051 L 255.8181818181818 370.9212151472407 L 270.3636363636364 420.0471407929838 L 284.9090909090909 502.9648881256833 L 299.45454545454544 415.6456850270357 L 314 439.7827005177188 L 328.5454545454545 515.885290535402 L 343.0909090909091 375.46465335725156 L 357.6363636363636 435.8071920839593 L 372.1818181818182 479.39580241125157 L 386.72727272727275 401.3054581766887 L 401.27272727272725 440.06666540584445 L 415.8181818181818 487.91474905502207 L 430.3636363636364 353.5993569715739 L 444.9090909090909 473.0065924284237 L 459.45454545454544 449.86345404618055 L 474 379.29817934694825 L 488.54545454545456 430.97978898582255 L 503.09090909090907 479.25381996718875 L 517.6363636363636 219.0000000000001 L 532.1818181818181 424.5905790029948 L 546.7272727272727 489.76052082783906" stroke-linejoin="bevel" stroke-miterlimit="10" stroke-width="2"/></g></g></g><g clip-path="url(#QvsbFDnDxLiI)"><g><g><path fill="none" stroke="none"/><path fill="none" stroke="#33A02C" paint-order="fill stroke markers" d=" M 81.27272727272725 463.1864058245186 L 95.81818181818181 469.39822305161374 L 110.36363636363637 524.9594771384089 L 124.90909090909093 446.62155988559846 L 139.45454545454544 472.15903070810054 L 154 492.6925376532205 L 168.54545454545456 432.6449711246345 L 183.09090909090907 464.73936013129253 L 197.63636363636363 468.19036970190086 L 212.1818181818182 441.96269696527713 L 226.72727272727275 427.6410072472522 L 241.27272727272725 481.1316555916824 L 255.8181818181818 403.4839402529934 L 270.3636363636364 440.4097426585033 L 284.9090909090909 474.402186928996 L 299.45454545454544 429.36651203255644 L 314 476.9904441069523 L 328.5454545454545 502.01026349386314 L 343.0909090909091 416.2526756642445 L 357.6363636363636 438.5116873946687 L 372.1818181818182 490.96703286791626 L 386.72727272727275 436.0959806952428 L 401.27272727272725 466.1197639595358 L 415.8181818181818 482.51205941992566 L 430.3636363636364 378.4641208660827 L 444.9090909090909 492.17488621762925 L 459.45454545454544 469.39822305161374 L 474 440.75484361556414 L 488.54545454545456 466.46486491659675 L 503.09090909090907 485.10031659788206 L 517.6363636363636 282.69860528169966 L 532.1818181818181 456.80203811889317 L 546.7272727272727 457.83734099007563" stroke-linejoin="bevel" stroke-miterlimit="10" stroke-width="2"/></g></g></g><g clip-path="url(#HwfesMseJTAq)"><g><g><path fill="none" stroke="none"/><path fill="none" stroke="#C51B7D" paint-order="fill stroke markers" d=" M 81.27272727272725 449.3206433986138 L 95.81818181818181 448.9599669837943 L 110.36363636363637 500.7170325103988 L 124.90909090909093 471.68258111742557 L 139.45454545454544 461.22296508765885 L 154 475.4696834730307 L 168.54545454545456 451.8453783023506 L 183.09090909090907 454.730789620907 L 197.63636363636363 482.86354997683134 L 212.1818181818182 429.1227641687194 L 226.72727272727275 431.28682265763666 L 241.27272727272725 467.7151405544106 L 255.8181818181818 428.22107313167044 L 270.3636363636364 420.1058537982308 L 284.9090909090909 472.94494856929396 L 299.45454545454544 469.3381844210985 L 314 465.1904056506737 L 328.5454545454545 483.94557922129 L 343.0909090909091 420.2861920056405 L 357.6363636363636 456.5341716950046 L 372.1818181818182 491.1591075176809 L 386.72727272727275 419.2041627611819 L 401.27272727272725 468.977508006279 L 415.8181818181818 481.42084431755325 L 430.3636363636364 406.58048824249795 L 444.9090909090909 479.256785828636 L 459.45454545454544 434.7132485984222 L 474 434.7132485984222 L 488.54545454545456 431.46716086504637 L 503.09090909090907 480.5191532805044 L 517.6363636363636 266.0970246702856 L 532.1818181818181 453.2880839616288 L 546.7272727272727 450.7633490578919" stroke-linejoin="bevel" stroke-miterlimit="10" stroke-width="2"/></g></g></g><g clip-path="url(#WoKWAEgmtDsH)"><g><g><path fill="none" stroke="none"/><path fill="none" stroke="#542788" paint-order="fill stroke markers" d=" M 81.27272727272725 445.9543264905823 L 95.81818181818181 479.46773776981024 L 110.36363636363637 539 L 124.90909090909093 458.68093836877017 L 139.45454545454544 466.4583122943293 L 154 514.1124034382104 L 168.54545454545456 451.61059843644364 L 183.09090909090907 454.01451401343456 L 197.63636363636363 511.849894659866 L 212.1818181818182 441.0050885379537 L 226.72727272727275 466.03409189838976 L 241.27272727272725 493.1841972385238 L 255.8181818181818 414.70342398969876 L 270.3636363636364 443.1261905176517 L 284.9090909090909 509.87019947881447 L 299.45454545454544 453.30748002020187 L 314 474.09427942124205 L 328.5454545454545 517.5061666057272 L 343.0909090909091 424.88471349224915 L 357.6363636363636 456.9840567850117 L 372.1818181818182 492.61857004393767 L 386.72727272727275 436.05585058532506 L 401.27272727272725 487.103704896723 L 415.8181818181818 497.2849943992733 L 430.3636363636364 413.43076280188006 L 444.9090909090909 473.9528726225956 L 459.45454545454544 479.1849241725172 L 474 426.01596788142126 L 488.54545454545456 437.0456981758508 L 503.09090909090907 461.50907434170074 L 517.6363636363636 329.2937176071937 L 532.1818181818181 463.9129899186918 L 546.7272727272727 229.88473815868213" stroke-linejoin="bevel" stroke-miterlimit="10" stroke-width="2"/></g></g></g><g clip-path="url(#pFdbATBTDHTr)"><g><g><path fill="none" stroke="none"/><path fill="none" stroke="#A6CEE3" paint-order="fill stroke markers" d=" M 81.27272727272725 419.5437097393258 L 95.81818181818181 452.07099426818854 L 110.36363636363637 496.2966881451513 L 124.90909090909093 433.5247355455914 L 139.45454545454544 436.9486602328401 L 154 474.0411776780345 L 168.54545454545456 416.6904391666186 L 183.09090909090907 421.82632619749154 L 197.63636363636363 467.7639824180786 L 212.1818181818182 402.13875924581146 L 226.72727272727275 401.2827780739992 L 241.27272727272725 468.04930947534933 L 255.8181818181818 376.4593240914461 L 270.3636363636364 410.1279168493918 L 284.9090909090909 482.60098939615636 L 299.45454545454544 403.8507215894359 L 314 443.2258554927961 L 328.5454545454545 428.95950262925976 L 343.0909090909091 350.4945618798099 L 357.6363636363636 414.69314976572343 L 372.1818181818182 422.11165325476225 L 386.72727272727275 379.597921721424 L 401.27272727272725 444.367163721879 L 415.8181818181818 448.36174252366914 L 430.3636363636364 330.2363408135884 L 444.9090909090909 427.8181944001768 L 459.45454545454544 407.84530039122603 L 474 367.3288582587828 L 488.54545454545456 428.38884851471835 L 503.09090909090907 448.36174252366914 L 517.6363636363636 242.926261288746 L 532.1818181818181 442.08454726371326 L 546.7272727272727 501.1472481187536" stroke-linejoin="bevel" stroke-miterlimit="10" stroke-width="2"/></g></g></g><g clip-path="url(#gLqFHwtTdEcP)"><g><g><path fill="none" stroke="none"/><path fill="none" stroke="#B2DF8A" paint-order="fill stroke markers" d=" M 81.27272727272725 404.4140499320664 L 95.81818181818181 444.08511518144724 L 110.36363636363637 490.3680246390584 L 124.90909090909093 423.91899034634525 L 139.45454545454544 457.639395808319 L 154 472.18545306642545 L 168.54545454545456 408.3811564570044 L 183.09090909090907 435.8203099211595 L 197.63636363636363 460.2841334916112 L 212.1818181818182 378.62785751996864 L 226.72727272727275 423.91899034634525 L 241.27272727272725 479.45848169547855 L 255.8181818181818 360.44528594733583 L 270.3636363636364 423.25780592552223 L 284.9090909090909 493.67394674317336 L 299.45454545454544 406.39760319453535 L 314 478.79729727465553 L 328.5454545454545 505.2446741075762 L 343.0909090909091 394.4962836197211 L 357.6363636363636 441.44037749815527 L 372.1818181818182 497.31046105769997 L 386.72727272727275 408.7117486674159 L 401.27272727272725 450.69695938967743 L 415.8181818181818 474.83019074971753 L 430.3636363636364 337.96501563935317 L 444.9090909090909 454.33347370420404 L 459.45454545454544 451.35814381050034 L 474 371.3548288909154 L 488.54545454545456 383.9173328865528 L 503.09090909090907 492.68217011193883 L 517.6363636363636 240.44031356795836 L 532.1818181818181 403.4222733008319 L 546.7272727272727 393.1739147780751" stroke-linejoin="bevel" stroke-miterlimit="10" stroke-width="2"/></g></g></g><g><g/><g><path fill="#ffffff" stroke="#e5e5e5" paint-order="fill stroke markers" d=" M 68 38 L 472.421875 38 L 472.421875 193 L 68 193 L 68 38 Z" fill-opacity="0.95" stroke-linejoin="bevel" stroke-miterlimit="10" stroke-opacity="0.5"/><text fill="#444444" stroke="none" font-family="helvetica" font-size="10pt" font-style="normal" font-weight="normal" text-decoration="normal" x="103" y="58" text-anchor="start" dominant-baseline="central">sc5314_fluc_rep01_ACGCTG.fastqAligned.primary.out_dedup</text><g><path fill="none" stroke="#1F78B4" paint-order="fill stroke markers" d=" M 78 58 L 98 58" stroke-linejoin="bevel" stroke-miterlimit="10" stroke-width="2"/></g><text fill="#444444" stroke="none" font-family="helvetica" font-size="10pt" font-style="normal" font-weight="normal" text-decoration="normal" x="103" y="81" text-anchor="start" dominant-baseline="central">sc5314_fluc_rep02_GTGATC.fastqAligned.primary.out_dedup</text><g><path fill="none" stroke="#33A02C" paint-order="fill stroke markers" d=" M 78 81 L 98 81" stroke-linejoin="bevel" stroke-miterlimit="10" stroke-width="2"/></g><text fill="#444444" stroke="none" font-family="helvetica" font-size="10pt" font-style="normal" font-weight="normal" text-decoration="normal" x="103" y="104" text-anchor="start" dominant-baseline="central">sc5314_fluc_rep03_ACTGGT.fastqAligned.primary.out_dedup</text><g><path fill="none" stroke="#C51B7D" paint-order="fill stroke markers" d=" M 78 104 L 98 104" stroke-linejoin="bevel" stroke-miterlimit="10" stroke-width="2"/></g><text fill="#444444" stroke="none" font-family="helvetica" font-size="10pt" font-style="normal" font-weight="normal" text-decoration="normal" x="103" y="127" text-anchor="start" dominant-baseline="central">sc5314_ut_rep01_CGTGCA.fastqAligned.primary.out_dedup</text><g><path fill="none" stroke="#542788" paint-order="fill stroke markers" d=" M 78 127 L 98 127" stroke-linejoin="bevel" stroke-miterlimit="10" stroke-width="2"/></g><text fill="#444444" stroke="none" font-family="helvetica" font-size="10pt" font-style="normal" font-weight="normal" text-decoration="normal" x="103" y="150" text-anchor="start" dominant-baseline="central">sc5314_ut_rep02_TAATGT.fastqAligned.primary.out_dedup</text><g><path fill="none" stroke="#A6CEE3" paint-order="fill stroke markers" d=" M 78 150 L 98 150" stroke-linejoin="bevel" stroke-miterlimit="10" stroke-width="2"/></g><text fill="#444444" stroke="none" font-family="helvetica" font-size="10pt" font-style="normal" font-weight="normal" text-decoration="normal" x="103" y="173" text-anchor="start" dominant-baseline="central">sc5314_ut_rep03_CTACAC.fastqAligned.primary.out_dedup</text><g><path fill="none" stroke="#B2DF8A" paint-order="fill stroke markers" d=" M 78 173 L 98 173" stroke-linejoin="bevel" stroke-miterlimit="10" stroke-width="2"/></g></g></g><g><g fill="#444444"><path fill="" stroke="none" d=""/><g transform="translate(58,23)"><path fill="none" stroke="none"/><text fill="" stroke="none" font-family="helvetica" font-size="10pt" font-style="normal" font-weight="bold" text-decoration="normal" x="0" y="0" text-anchor="start" dominant-baseline="text-after-edge">ACA(THR)-codon_scaled</text></g></g></g><g/><g><g fill="#444444"><path fill="none" stroke="black" paint-order="fill stroke markers" d=" M 58 555 L 570 555" stroke-linejoin="bevel" stroke-miterlimit="10"/><path fill="none" stroke="black" paint-order="fill stroke markers" d=" M 81 561 L 81 553" stroke-linejoin="bevel" stroke-miterlimit="10"/><path fill="none" stroke="black" paint-order="fill stroke markers" d=" M 154 561 L 154 553" stroke-linejoin="bevel" stroke-miterlimit="10"/><path fill="none" stroke="black" paint-order="fill stroke markers" d=" M 227 561 L 227 553" stroke-linejoin="bevel" stroke-miterlimit="10"/><path fill="none" stroke="black" paint-order="fill stroke markers" d=" M 299 561 L 299 553" stroke-linejoin="bevel" stroke-miterlimit="10"/><path fill="none" stroke="black" paint-order="fill stroke markers" d=" M 372 561 L 372 553" stroke-linejoin="bevel" stroke-miterlimit="10"/><path fill="none" stroke="black" paint-order="fill stroke markers" d=" M 445 561 L 445 553" stroke-linejoin="bevel" stroke-miterlimit="10"/><path fill="none" stroke="black" paint-order="fill stroke markers" d=" M 518 561 L 518 553" stroke-linejoin="bevel" stroke-miterlimit="10"/><path fill="none" stroke="black" paint-order="fill stroke markers" d=" M 67 559 L 67 555" stroke-linejoin="bevel" stroke-miterlimit="10"/><path fill="none" stroke="black" paint-order="fill stroke markers" d=" M 81 559 L 81 555" stroke-linejoin="bevel" stroke-miterlimit="10"/><path fill="none" stroke="black" paint-order="fill stroke markers" d=" M 96 559 L 96 555" stroke-linejoin="bevel" stroke-miterlimit="10"/><path fill="none" stroke="black" paint-order="fill stroke markers" d=" M 110 559 L 110 555" stroke-linejoin="bevel" stroke-miterlimit="10"/><path fill="none" stroke="black" paint-order="fill stroke markers" d=" M 125 559 L 125 555" stroke-linejoin="bevel" stroke-miterlimit="10"/><path fill="none" stroke="black" paint-order="fill stroke markers" d=" M 139 559 L 139 555" stroke-linejoin="bevel" stroke-miterlimit="10"/><path fill="none" stroke="black" paint-order="fill stroke markers" d=" M 154 559 L 154 555" stroke-linejoin="bevel" stroke-miterlimit="10"/><path fill="none" stroke="black" paint-order="fill stroke markers" d=" M 169 559 L 169 555" stroke-linejoin="bevel" stroke-miterlimit="10"/><path fill="none" stroke="black" paint-order="fill stroke markers" d=" M 183 559 L 183 555" stroke-linejoin="bevel" stroke-miterlimit="10"/><path fill="none" stroke="black" paint-order="fill stroke markers" d=" M 198 559 L 198 555" stroke-linejoin="bevel" stroke-miterlimit="10"/><path fill="none" stroke="black" paint-order="fill stroke markers" d=" M 212 559 L 212 555" stroke-linejoin="bevel" stroke-miterlimit="10"/><path fill="none" stroke="black" paint-order="fill stroke markers" d=" M 227 559 L 227 555" stroke-linejoin="bevel" stroke-miterlimit="10"/><path fill="none" stroke="black" paint-order="fill stroke markers" d=" M 241 559 L 241 555" stroke-linejoin="bevel" stroke-miterlimit="10"/><path fill="none" stroke="black" paint-order="fill stroke markers" d=" M 256 559 L 256 555" stroke-linejoin="bevel" stroke-miterlimit="10"/><path fill="none" stroke="black" paint-order="fill stroke markers" d=" M 270 559 L 270 555" stroke-linejoin="bevel" stroke-miterlimit="10"/><path fill="none" stroke="black" paint-order="fill stroke markers" d=" M 285 559 L 285 555" stroke-linejoin="bevel" stroke-miterlimit="10"/><path fill="none" stroke="black" paint-order="fill stroke markers" d=" M 299 559 L 299 555" stroke-linejoin="bevel" stroke-miterlimit="10"/><path fill="none" stroke="black" paint-order="fill stroke markers" d=" M 314 559 L 314 555" stroke-linejoin="bevel" stroke-miterlimit="10"/><path fill="none" stroke="black" paint-order="fill stroke markers" d=" M 329 559 L 329 555" stroke-linejoin="bevel" stroke-miterlimit="10"/><path fill="none" stroke="black" paint-order="fill stroke markers" d=" M 343 559 L 343 555" stroke-linejoin="bevel" stroke-miterlimit="10"/><path fill="none" stroke="black" paint-order="fill stroke markers" d=" M 358 559 L 358 555" stroke-linejoin="bevel" stroke-miterlimit="10"/><path fill="none" stroke="black" paint-order="fill stroke markers" d=" M 372 559 L 372 555" stroke-linejoin="bevel" stroke-miterlimit="10"/><path fill="none" stroke="black" paint-order="fill stroke markers" d=" M 387 559 L 387 555" stroke-linejoin="bevel" stroke-miterlimit="10"/><path fill="none" stroke="black" paint-order="fill stroke markers" d=" M 401 559 L 401 555" stroke-linejoin="bevel" stroke-miterlimit="10"/><path fill="none" stroke="black" paint-order="fill stroke markers" d=" M 416 559 L 416 555" stroke-linejoin="bevel" stroke-miterlimit="10"/><path fill="none" stroke="black" paint-order="fill stroke markers" d=" M 430 559 L 430 555" stroke-linejoin="bevel" stroke-miterlimit="10"/><path fill="none" stroke="black" paint-order="fill stroke markers" d=" M 445 559 L 445 555" stroke-linejoin="bevel" stroke-miterlimit="10"/><path fill="none" stroke="black" paint-order="fill stroke markers" d=" M 459 559 L 459 555" stroke-linejoin="bevel" stroke-miterlimit="10"/><path fill="none" stroke="black" paint-order="fill stroke markers" d=" M 474 559 L 474 555" stroke-linejoin="bevel" stroke-miterlimit="10"/><path fill="none" stroke="black" paint-order="fill stroke markers" d=" M 489 559 L 489 555" stroke-linejoin="bevel" stroke-miterlimit="10"/><path fill="none" stroke="black" paint-order="fill stroke markers" d=" M 503 559 L 503 555" stroke-linejoin="bevel" stroke-miterlimit="10"/><path fill="none" stroke="black" paint-order="fill stroke markers" d=" M 518 559 L 518 555" stroke-linejoin="bevel" stroke-miterlimit="10"/><path fill="none" stroke="black" paint-order="fill stroke markers" d=" M 532 559 L 532 555" stroke-linejoin="bevel" stroke-miterlimit="10"/><path fill="none" stroke="black" paint-order="fill stroke markers" d=" M 547 559 L 547 555" stroke-linejoin="bevel" stroke-miterlimit="10"/><path fill="" stroke="black" paint-order="fill stroke markers" d=" M 561 559 L 561 555" stroke-linejoin="bevel" stroke-miterlimit="10"/><g transform="translate(81,566) rotate(0,0,0)"><text fill="" stroke="none" font-family="helvetica" font-size="8pt" font-style="normal" font-weight="normal" text-decoration="normal" x="0" y="0" text-anchor="middle" dominant-baseline="hanging">-30</text><g transform="rotate(0,0,0) translate(-81,-566) translate(154,566) rotate(0,0,0)"><text fill="" stroke="none" font-family="helvetica" font-size="8pt" font-style="normal" font-weight="normal" text-decoration="normal" x="0" y="0" text-anchor="middle" dominant-baseline="hanging">-25</text><g transform="rotate(0,0,0) translate(-154,-566) translate(227,566) rotate(0,0,0)"><text fill="" stroke="none" font-family="helvetica" font-size="8pt" font-style="normal" font-weight="normal" text-decoration="normal" x="0" y="0" text-anchor="middle" dominant-baseline="hanging">-20</text><g transform="rotate(0,0,0) translate(-227,-566) translate(299,566) rotate(0,0,0)"><text fill="" stroke="none" font-family="helvetica" font-size="8pt" font-style="normal" font-weight="normal" text-decoration="normal" x="0" y="0" text-anchor="middle" dominant-baseline="hanging">-15</text><g transform="rotate(0,0,0) translate(-299,-566) translate(372,566) rotate(0,0,0)"><text fill="" stroke="none" font-family="helvetica" font-size="8pt" font-style="normal" font-weight="normal" text-decoration="normal" x="0" y="0" text-anchor="middle" dominant-baseline="hanging">-10</text><g transform="rotate(0,0,0) translate(-372,-566) translate(445,566) rotate(0,0,0)"><text fill="" stroke="none" font-family="helvetica" font-size="8pt" font-style="normal" font-weight="normal" text-decoration="normal" x="0" y="0" text-anchor="middle" dominant-baseline="hanging">-5</text><g transform="rotate(0,0,0) translate(-445,-566) translate(518,566) rotate(0,0,0)"><text fill="" stroke="none" font-family="helvetica" font-size="8pt" font-style="normal" font-weight="normal" text-decoration="normal" x="0" y="0" text-anchor="middle" dominant-baseline="hanging">0</text><g transform="rotate(0,0,0) translate(-518,-566) translate(314,584) rotate(0,0,0)"><text fill="" stroke="none" font-family="helvetica" font-size="10pt" font-style="italic" font-weight="normal" text-decoration="normal" x="0" y="0" text-anchor="middle" dominant-baseline="hanging">position from codon</text><g transform="rotate(0,0,0) translate(-314,-584)"/></g></g></g></g></g></g></g></g></g></g><g><g fill="#444444"><path fill="none" stroke="black" paint-order="fill stroke markers" d=" M 58 555 L 58 203" stroke-linejoin="bevel" stroke-miterlimit="10"/><path fill="none" stroke="black" paint-order="fill stroke markers" d=" M 52 493 L 60 493" stroke-linejoin="bevel" stroke-miterlimit="10"/><path fill="none" stroke="black" paint-order="fill stroke markers" d=" M 52 419 L 60 419" stroke-linejoin="bevel" stroke-miterlimit="10"/><path fill="none" stroke="black" paint-order="fill stroke markers" d=" M 52 344 L 60 344" stroke-linejoin="bevel" stroke-miterlimit="10"/><path fill="none" stroke="black" paint-order="fill stroke markers" d=" M 52 269 L 60 269" stroke-linejoin="bevel" stroke-miterlimit="10"/><path fill="none" stroke="black" paint-order="fill stroke markers" d=" M 54 508 L 58 508" stroke-linejoin="bevel" stroke-miterlimit="10"/><path fill="none" stroke="black" paint-order="fill stroke markers" d=" M 54 523 L 58 523" stroke-linejoin="bevel" stroke-miterlimit="10"/><path fill="none" stroke="black" paint-order="fill stroke markers" d=" M 54 538 L 58 538" stroke-linejoin="bevel" stroke-miterlimit="10"/><path fill="none" stroke="black" paint-order="fill stroke markers" d=" M 54 553 L 58 553" stroke-linejoin="bevel" stroke-miterlimit="10"/><path fill="none" stroke="black" paint-order="fill stroke markers" d=" M 54 493 L 58 493" stroke-linejoin="bevel" stroke-miterlimit="10"/><path fill="none" stroke="black" paint-order="fill stroke markers" d=" M 54 478 L 58 478" stroke-linejoin="bevel" stroke-miterlimit="10"/><path fill="none" stroke="black" paint-order="fill stroke markers" d=" M 54 463 L 58 463" stroke-linejoin="bevel" stroke-miterlimit="10"/><path fill="none" stroke="black" paint-order="fill stroke markers" d=" M 54 448 L 58 448" stroke-linejoin="bevel" stroke-miterlimit="10"/><path fill="none" stroke="black" paint-order="fill stroke markers" d=" M 54 434 L 58 434" stroke-linejoin="bevel" stroke-miterlimit="10"/><path fill="none" stroke="black" paint-order="fill stroke markers" d=" M 54 419 L 58 419" stroke-linejoin="bevel" stroke-miterlimit="10"/><path fill="none" stroke="black" paint-order="fill stroke markers" d=" M 54 404 L 58 404" stroke-linejoin="bevel" stroke-miterlimit="10"/><path fill="none" stroke="black" paint-order="fill stroke markers" d=" M 54 389 L 58 389" stroke-linejoin="bevel" stroke-miterlimit="10"/><path fill="none" stroke="black" paint-order="fill stroke markers" d=" M 54 374 L 58 374" stroke-linejoin="bevel" stroke-miterlimit="10"/><path fill="none" stroke="black" paint-order="fill stroke markers" d=" M 54 359 L 58 359" stroke-linejoin="bevel" stroke-miterlimit="10"/><path fill="none" stroke="black" paint-order="fill stroke markers" d=" M 54 344 L 58 344" stroke-linejoin="bevel" stroke-miterlimit="10"/><path fill="none" stroke="black" paint-order="fill stroke markers" d=" M 54 329 L 58 329" stroke-linejoin="bevel" stroke-miterlimit="10"/><path fill="none" stroke="black" paint-order="fill stroke markers" d=" M 54 314 L 58 314" stroke-linejoin="bevel" stroke-miterlimit="10"/><path fill="none" stroke="black" paint-order="fill stroke markers" d=" M 54 299 L 58 299" stroke-linejoin="bevel" stroke-miterlimit="10"/><path fill="none" stroke="black" paint-order="fill stroke markers" d=" M 54 284 L 58 284" stroke-linejoin="bevel" stroke-miterlimit="10"/><path fill="none" stroke="black" paint-order="fill stroke markers" d=" M 54 269 L 58 269" stroke-linejoin="bevel" stroke-miterlimit="10"/><path fill="none" stroke="black" paint-order="fill stroke markers" d=" M 54 255 L 58 255" stroke-linejoin="bevel" stroke-miterlimit="10"/><path fill="none" stroke="black" paint-order="fill stroke markers" d=" M 54 240 L 58 240" stroke-linejoin="bevel" stroke-miterlimit="10"/><path fill="none" stroke="black" paint-order="fill stroke markers" d=" M 54 225 L 58 225" stroke-linejoin="bevel" stroke-miterlimit="10"/><path fill="" stroke="black" paint-order="fill stroke markers" d=" M 54 210 L 58 210" stroke-linejoin="bevel" stroke-miterlimit="10"/><g transform="translate(47,493) rotate(0,0,0)"><text fill="" stroke="none" font-family="helvetica" font-size="8pt" font-style="normal" font-weight="normal" text-decoration="normal" x="0" y="0" text-anchor="end" dominant-baseline="central">4000</text><g transform="rotate(0,0,0) translate(-47,-493) translate(47,419) rotate(0,0,0)"><text fill="" stroke="none" font-family="helvetica" font-size="8pt" font-style="normal" font-weight="normal" text-decoration="normal" x="0" y="0" text-anchor="end" dominant-baseline="central">4500</text><g transform="rotate(0,0,0) translate(-47,-419) translate(47,344) rotate(0,0,0)"><text fill="" stroke="none" font-family="helvetica" font-size="8pt" font-style="normal" font-weight="normal" text-decoration="normal" x="0" y="0" text-anchor="end" dominant-baseline="central">5000</text><g transform="rotate(0,0,0) translate(-47,-344) translate(47,269) rotate(0,0,0)"><text fill="" stroke="none" font-family="helvetica" font-size="8pt" font-style="normal" font-weight="normal" text-decoration="normal" x="0" y="0" text-anchor="end" dominant-baseline="central">5500</text><g transform="rotate(0,0,0) translate(-47,-269) translate(15,379) rotate(-90,0,0)"><text fill="" stroke="none" font-family="helvetica" font-size="10pt" font-style="italic" font-weight="normal" text-decoration="normal" x="0" y="0" text-anchor="middle" dominant-baseline="alphabetic">5'seq RPM</text><g transform="rotate(90,0,0) translate(-15,-379)"/></g></g></g></g></g></g></g><g clip-path="url(#uekbofpRZAhu)"><g/></g></g></g></svg>