<svg version="1.1" xmlns="http://www.w3.org/2000/svg" xmlns:xlink="http://www.w3.org/1999/xlink" width="600" height="600" style="width: 600px; height: 600px;"><defs><clipPath id="IMunDWwDgvZD"><path fill="none" stroke="none" d=" M 52 203 L 570 203 L 570 555 L 52 555 L 52 203 Z"/></clipPath><clipPath id="fHGxkqTigcQD"><path fill="none" stroke="none" d=" M 52 203 L 570 203 L 570 555 L 52 555 L 52 203 Z"/></clipPath><clipPath id="rAlMgWDuGHaP"><path fill="none" stroke="none" d=" M 52 203 L 570 203 L 570 555 L 52 555 L 52 203 Z"/></clipPath><clipPath id="TDnInEaTwOwZ"><path fill="none" stroke="none" d=" M 52 203 L 570 203 L 570 555 L 52 555 L 52 203 Z"/></clipPath><clipPath id="dLEAwnOBkscP"><path fill="none" stroke="none" d=" M 52 203 L 570 203 L 570 555 L 52 555 L 52 203 Z"/></clipPath><clipPath id="cDaDFOIhlqwb"><path fill="none" stroke="none" d=" M 52 203 L 570 203 L 570 555 L 52 555 L 52 203 Z"/></clipPath><clipPath id="XGyIxZqxRWdM"><path fill="none" stroke="none" d=" M 52 203 L 570 203 L 570 555 L 52 555 L 52 203 Z"/></clipPath><clipPath id="odEPfzZFeDnm"><path fill="none" stroke="none" d=" M 52 203 L 570 203 L 570 555 L 52 555 L 52 203 Z"/></clipPath><clipPath id="HvTfTcSgmqIV"><path fill="none" stroke="none" d=" M 52 203 L 570 203 L 570 555 L 52 555 L 52 203 Z"/></clipPath></defs><g><g/><g/><g/><g transform="scale(1,1) translate(0.5,0.5)"><rect fill="#FFFFFF" stroke="none" x="0" y="0" width="600" height="600"/><rect fill="#ffffff" stroke="none" x="0" y="0" width="600" height="600"/><rect fill="#FFFFFF" stroke="none" x="52" y="203" width="518" height="352"/><rect fill="#ffffff" stroke="none" x="52" y="203" width="518" height="352"/><g><rect fill="none" stroke="#e5e5e5" x="52" y="203" width="518" height="352" stroke-linejoin="bevel" stroke-miterlimit="10"/></g><g clip-path="url(#IMunDWwDgvZD)"><g><g><path fill="none" stroke="#e5e5e5" paint-order="fill stroke markers" d=" M 76 555 L 76 203" stroke-linejoin="bevel" stroke-miterlimit="10"/><path fill="none" stroke="#e5e5e5" paint-order="fill stroke markers" d=" M 149 555 L 149 203" stroke-linejoin="bevel" stroke-miterlimit="10"/><path fill="none" stroke="#e5e5e5" paint-order="fill stroke markers" d=" M 223 555 L 223 203" stroke-linejoin="bevel" stroke-miterlimit="10"/><path fill="none" stroke="#e5e5e5" paint-order="fill stroke markers" d=" M 296 555 L 296 203" stroke-linejoin="bevel" stroke-miterlimit="10"/><path fill="none" stroke="#e5e5e5" paint-order="fill stroke markers" d=" M 370 555 L 370 203" stroke-linejoin="bevel" stroke-miterlimit="10"/><path fill="none" stroke="#e5e5e5" paint-order="fill stroke markers" d=" M 443 555 L 443 203" stroke-linejoin="bevel" stroke-miterlimit="10"/><path fill="none" stroke="#e5e5e5" paint-order="fill stroke markers" d=" M 517 555 L 517 203" stroke-linejoin="bevel" stroke-miterlimit="10"/></g></g></g><g clip-path="url(#fHGxkqTigcQD)"><g><g><path fill="none" stroke="#e5e5e5" paint-order="fill stroke markers" d=" M 52 522 L 570 522" stroke-linejoin="bevel" stroke-miterlimit="10"/><path fill="none" stroke="#e5e5e5" paint-order="fill stroke markers" d=" M 52 458 L 570 458" stroke-linejoin="bevel" stroke-miterlimit="10"/><path fill="none" stroke="#e5e5e5" paint-order="fill stroke markers" d=" M 52 395 L 570 395" stroke-linejoin="bevel" stroke-miterlimit="10"/><path fill="none" stroke="#e5e5e5" paint-order="fill stroke markers" d=" M 52 331 L 570 331" stroke-linejoin="bevel" stroke-miterlimit="10"/><path fill="none" stroke="#e5e5e5" paint-order="fill stroke markers" d=" M 52 267 L 570 267" stroke-linejoin="bevel" stroke-miterlimit="10"/></g></g></g><g clip-path="url(#rAlMgWDuGHaP)"><g><g><path fill="none" stroke="none"/><path fill="none" stroke="#1F78B4" paint-order="fill stroke markers" d=" M 75.54545454545456 334.6504842512692 L 90.26136363636363 343.78078563952727 L 104.97727272727275 413.17107619028866 L 119.69318181818181 295.69453166136805 L 134.40909090909093 344.99815915796165 L 149.125 365.0848222121294 L 163.84090909090912 298.73796545745404 L 178.5568181818182 353.5197737870025 L 193.27272727272725 405.8668350796822 L 207.98863636363637 316.9985682339702 L 222.70454545454544 325.5201828630111 L 237.42045454545456 341.34603860265844 L 252.13636363636363 219.0000000000001 L 266.85227272727275 300.5640257351057 L 281.5681818181818 343.78078563952727 L 296.2840909090909 280.47736268093786 L 311 299.9553389758885 L 325.7159090909091 380.30199119255957 L 340.4318181818182 231.1737351843442 L 355.14772727272725 320.65068878927343 L 369.8636363636364 371.1716898043015 L 384.57954545454544 288.9989773099787 L 399.2954545454545 287.7816037915444 L 414.0113636363636 295.0858449021508 L 428.72727272727275 294.4771581429336 L 443.4431818181818 333.43311073283473 L 458.1590909090909 416.2145099863747 L 472.875 358.3892678607402 L 487.59090909090907 332.21573721440035 L 502.3068181818182 376.6498706372563 L 517.0227272727273 260.99938638598735 L 531.7386363636364 478.90924618574684 L 546.4545454545454 535.517114792947" stroke-linejoin="bevel" stroke-miterlimit="10" stroke-width="2"/></g></g></g><g clip-path="url(#TDnInEaTwOwZ)"><g><g><path fill="none" stroke="none"/><path fill="none" stroke="#33A02C" paint-order="fill stroke markers" d=" M 75.54545454545456 362.947836258808 L 90.26136363636363 402.15371970714034 L 104.97727272727275 387.35904670776966 L 119.69318181818181 327.44062106031834 L 134.40909090909093 351.85183150928003 L 149.125 396.2358505073921 L 163.84090909090912 317.82408361072737 L 178.5568181818182 372.56437370839893 L 193.27272727272725 389.57824765767526 L 207.98863636363637 345.1942286595632 L 222.70454545454544 388.0987803577382 L 237.42045454545456 295.6320741116714 L 252.13636363636363 294.8923404617028 L 266.85227272727275 324.48168646044417 L 281.5681818181818 340.01609310978347 L 296.2840909090909 311.90621441097915 L 311 311.90621441097915 L 325.7159090909091 364.4273035587451 L 340.4318181818182 310.426747111042 L 355.14772727272725 336.3174248599408 L 369.8636363636364 296.37180776163984 L 384.57954545454544 326.7008874103499 L 399.2954545454545 292.6731395117972 L 414.0113636363636 297.851275061577 L 428.72727272727275 318.56381726069594 L 443.4431818181818 371.8246400584304 L 458.1590909090909 385.8795794078326 L 472.875 357.76970070902826 L 487.59090909090907 309.68701346107355 L 502.3068181818182 373.3041073583675 L 517.0227272727273 294.15260681173424 L 531.7386363636364 459.11321075471756 L 546.4545454545454 510.894566252515" stroke-linejoin="bevel" stroke-miterlimit="10" stroke-width="2"/></g></g></g><g clip-path="url(#dLEAwnOBkscP)"><g><g><path fill="none" stroke="none"/><path fill="none" stroke="#C51B7D" paint-order="fill stroke markers" d=" M 75.54545454545456 353.6833485689534 L 90.26136363636363 373.784470743963 L 104.97727272727275 407.0286343410944 L 119.69318181818181 317.3467046372052 L 134.40909090909093 359.095189154533 L 149.125 390.7931125843558 L 163.84090909090912 316.573584553551 L 178.5568181818182 386.92751216608474 L 193.27272727272725 454.9620795276558 L 207.98863636363637 361.41454940549556 L 222.70454545454544 356.7758289035703 L 237.42045454545456 326.62414564105575 L 252.13636363636363 320.4391849718221 L 266.85227272727275 338.99406697952327 L 281.5681818181818 344.40590756510284 L 296.2840909090909 344.40590756510284 L 311 306.5230234660462 L 325.7159090909091 399.2974335045522 L 340.4318181818182 268.6401393669895 L 355.14772727272725 325.8510255574016 L 369.8636363636364 342.08654731414015 L 384.57954545454544 338.2209468958691 L 399.2954545454545 326.62414564105575 L 414.0113636363636 314.25422430258834 L 428.72727272727275 312.70798413527984 L 443.4431818181818 364.50702974011244 L 458.1590909090909 413.9867150939823 L 472.875 403.1630339228233 L 487.59090909090907 311.9348640516257 L 502.3068181818182 364.50702974011244 L 517.0227272727273 334.35534647759795 L 531.7386363636364 436.4071975199546 L 546.4545454545454 497.4836841286378" stroke-linejoin="bevel" stroke-miterlimit="10" stroke-width="2"/></g></g></g><g clip-path="url(#cDaDFOIhlqwb)"><g><g><path fill="none" stroke="none"/><path fill="none" stroke="#542788" paint-order="fill stroke markers" d=" M 75.54545454545456 343.9832770365193 L 90.26136363636363 337.9210876885644 L 104.97727272727275 394.90566755934117 L 119.69318181818181 302.7603894704255 L 134.40909090909093 352.47034212365634 L 149.125 373.6880048414987 L 163.84090909090912 307.00392201399404 L 178.5568181818182 331.8588983406094 L 193.27272727272725 397.9367622333187 L 207.98863636363637 311.2474545575625 L 222.70454545454544 353.07656105845183 L 237.42045454545456 334.28377407979144 L 252.13636363636363 250.62556107801265 L 266.85227272727275 291.8484486441065 L 281.5681818181818 349.4392474496788 L 296.2840909090909 231.22655516455677 L 311 294.2733243832886 L 325.7159090909091 363.38228294997526 L 340.4318181818182 245.16959066485322 L 355.14772727272725 320.340738579495 L 369.8636363636364 325.79670899265443 L 384.57954545454544 294.2733243832886 L 399.2954545454545 278.51163207860554 L 414.0113636363636 291.242229709311 L 428.72727272727275 265.7810344479001 L 443.4431818181818 311.2474545575625 L 458.1590909090909 360.35118827599774 L 472.875 334.88999301458693 L 487.59090909090907 307.61014094878954 L 502.3068181818182 347.6205906452924 L 517.0227272727273 291.242229709311 L 531.7386363636364 392.48079182015914 L 546.4545454545454 465.22706399561895" stroke-linejoin="bevel" stroke-miterlimit="10" stroke-width="2"/></g></g></g><g clip-path="url(#XGyIxZqxRWdM)"><g><g><path fill="none" stroke="none"/><path fill="none" stroke="#A6CEE3" paint-order="fill stroke markers" d=" M 75.54545454545456 368.91172742030693 L 90.26136363636363 343.22424991544824 L 104.97727272727275 383.590285994512 L 119.69318181818181 279.61716276055984 L 134.40909090909093 295.5189345492819 L 149.125 355.45638206061903 L 163.84090909090912 342.0010367009311 L 178.5568181818182 375.0277934928924 L 193.27272727272725 416.61704278647323 L 207.98863636363637 311.4207063380039 L 222.70454545454544 370.13494063482403 L 237.42045454545456 355.45638206061903 L 252.13636363636363 260.0457513282864 L 266.85227272727275 296.74214776379904 L 281.5681818181818 355.45638206061903 L 296.2840909090909 225.79578132180802 L 311 256.3761116847352 L 325.7159090909091 395.82241813968284 L 340.4318181818182 280.8403759750769 L 355.14772727272725 319.9831988396236 L 369.8636363636364 370.13494063482403 L 384.57954545454544 313.86713276703813 L 399.2954545454545 282.0635891895939 L 414.0113636363636 311.4207063380039 L 428.72727272727275 304.08142705090154 L 443.4431818181818 362.79566134772153 L 458.1590909090909 399.49205778323403 L 472.875 382.3670727799949 L 487.59090909090907 372.58136706385824 L 502.3068181818182 390.9295652816145 L 517.0227272727273 322.4296252686578 L 531.7386363636364 492.4562620865325 L 546.4545454545454 504.6883942317033" stroke-linejoin="bevel" stroke-miterlimit="10" stroke-width="2"/></g></g></g><g clip-path="url(#odEPfzZFeDnm)"><g><g><path fill="none" stroke="none"/><path fill="none" stroke="#B2DF8A" paint-order="fill stroke markers" d=" M 75.54545454545456 385.9351117974337 L 90.26136363636363 417.1149964312898 L 104.97727272727275 461.0502884153598 L 119.69318181818181 273.9709806122231 L 134.40909090909093 339.16528484664957 L 149.125 456.79848596528853 L 163.84090909090912 322.1580750463644 L 178.5568181818182 410.02865901450434 L 193.27272727272725 442.6258111317175 L 207.98863636363637 323.5753425297215 L 222.70454545454544 404.35958908107597 L 237.42045454545456 415.6977289479327 L 252.13636363636363 296.64726034593673 L 266.85227272727275 315.07173762957893 L 281.5681818181818 385.9351117974337 L 296.2840909090909 323.5753425297215 L 311 307.9854002127935 L 325.7159090909091 418.53226391464693 L 340.4318181818182 317.9062725962932 L 355.14772727272725 322.1580750463644 L 369.8636363636364 373.1797044472199 L 384.57954545454544 353.33795968022054 L 399.2954545454545 324.99261001307866 L 414.0113636363636 354.7552271635776 L 428.72727272727275 334.9134823965783 L 443.4431818181818 425.6186013314324 L 458.1590909090909 442.6258111317175 L 472.875 439.7912761650034 L 487.59090909090907 367.5106345137915 L 502.3068181818182 410.02865901450434 L 517.0227272727273 340.58255233000665 L 531.7386363636364 468.1366258321453 L 546.4545454545454 539" stroke-linejoin="bevel" stroke-miterlimit="10" stroke-width="2"/></g></g></g><g><g/><g><path fill="#ffffff" stroke="#e5e5e5" paint-order="fill stroke markers" d=" M 62 38 L 466.421875 38 L 466.421875 193 L 62 193 L 62 38 Z" fill-opacity="0.95" stroke-linejoin="bevel" stroke-miterlimit="10" stroke-opacity="0.5"/><text fill="#444444" stroke="none" font-family="helvetica" font-size="10pt" font-style="normal" font-weight="normal" text-decoration="normal" x="97" y="58" text-anchor="start" dominant-baseline="central">sc5314_fluc_rep01_ACGCTG.fastqAligned.primary.out_dedup</text><g><path fill="none" stroke="#1F78B4" paint-order="fill stroke markers" d=" M 72 58 L 92 58" stroke-linejoin="bevel" stroke-miterlimit="10" stroke-width="2"/></g><text fill="#444444" stroke="none" font-family="helvetica" font-size="10pt" font-style="normal" font-weight="normal" text-decoration="normal" x="97" y="81" text-anchor="start" dominant-baseline="central">sc5314_fluc_rep02_GTGATC.fastqAligned.primary.out_dedup</text><g><path fill="none" stroke="#33A02C" paint-order="fill stroke markers" d=" M 72 81 L 92 81" stroke-linejoin="bevel" stroke-miterlimit="10" stroke-width="2"/></g><text fill="#444444" stroke="none" font-family="helvetica" font-size="10pt" font-style="normal" font-weight="normal" text-decoration="normal" x="97" y="104" text-anchor="start" dominant-baseline="central">sc5314_fluc_rep03_ACTGGT.fastqAligned.primary.out_dedup</text><g><path fill="none" stroke="#C51B7D" paint-order="fill stroke markers" d=" M 72 104 L 92 104" stroke-linejoin="bevel" stroke-miterlimit="10" stroke-width="2"/></g><text fill="#444444" stroke="none" font-family="helvetica" font-size="10pt" font-style="normal" font-weight="normal" text-decoration="normal" x="97" y="127" text-anchor="start" dominant-baseline="central">sc5314_ut_rep01_CGTGCA.fastqAligned.primary.out_dedup</text><g><path fill="none" stroke="#542788" paint-order="fill stroke markers" d=" M 72 127 L 92 127" stroke-linejoin="bevel" stroke-miterlimit="10" stroke-width="2"/></g><text fill="#444444" stroke="none" font-family="helvetica" font-size="10pt" font-style="normal" font-weight="normal" text-decoration="normal" x="97" y="150" text-anchor="start" dominant-baseline="central">sc5314_ut_rep02_TAATGT.fastqAligned.primary.out_dedup</text><g><path fill="none" stroke="#A6CEE3" paint-order="fill stroke markers" d=" M 72 150 L 92 150" stroke-linejoin="bevel" stroke-miterlimit="10" stroke-width="2"/></g><text fill="#444444" stroke="none" font-family="helvetica" font-size="10pt" font-style="normal" font-weight="normal" text-decoration="normal" x="97" y="173" text-anchor="start" dominant-baseline="central">sc5314_ut_rep03_CTACAC.fastqAligned.primary.out_dedup</text><g><path fill="none" stroke="#B2DF8A" paint-order="fill stroke markers" d=" M 72 173 L 92 173" stroke-linejoin="bevel" stroke-miterlimit="10" stroke-width="2"/></g></g></g><g><g fill="#444444"><path fill="" stroke="none" d=""/><g transform="translate(52,23)"><path fill="none" stroke="none"/><text fill="" stroke="none" font-family="helvetica" font-size="10pt" font-style="normal" font-weight="bold" text-decoration="normal" x="0" y="0" text-anchor="start" dominant-baseline="text-after-edge">AGG(ARG)-codon_scaled</text></g></g></g><g/><g><g fill="#444444"><path fill="none" stroke="black" paint-order="fill stroke markers" d=" M 52 555 L 570 555" stroke-linejoin="bevel" stroke-miterlimit="10"/><path fill="none" stroke="black" paint-order="fill stroke markers" d=" M 76 561 L 76 553" stroke-linejoin="bevel" stroke-miterlimit="10"/><path fill="none" stroke="black" paint-order="fill stroke markers" d=" M 149 561 L 149 553" stroke-linejoin="bevel" stroke-miterlimit="10"/><path fill="none" stroke="black" paint-order="fill stroke markers" d=" M 223 561 L 223 553" stroke-linejoin="bevel" stroke-miterlimit="10"/><path fill="none" stroke="black" paint-order="fill stroke markers" d=" M 296 561 L 296 553" stroke-linejoin="bevel" stroke-miterlimit="10"/><path fill="none" stroke="black" paint-order="fill stroke markers" d=" M 370 561 L 370 553" stroke-linejoin="bevel" stroke-miterlimit="10"/><path fill="none" stroke="black" paint-order="fill stroke markers" d=" M 443 561 L 443 553" stroke-linejoin="bevel" stroke-miterlimit="10"/><path fill="none" stroke="black" paint-order="fill stroke markers" d=" M 517 561 L 517 553" stroke-linejoin="bevel" stroke-miterlimit="10"/><path fill="none" stroke="black" paint-order="fill stroke markers" d=" M 61 559 L 61 555" stroke-linejoin="bevel" stroke-miterlimit="10"/><path fill="none" stroke="black" paint-order="fill stroke markers" d=" M 76 559 L 76 555" stroke-linejoin="bevel" stroke-miterlimit="10"/><path fill="none" stroke="black" paint-order="fill stroke markers" d=" M 90 559 L 90 555" stroke-linejoin="bevel" stroke-miterlimit="10"/><path fill="none" stroke="black" paint-order="fill stroke markers" d=" M 105 559 L 105 555" stroke-linejoin="bevel" stroke-miterlimit="10"/><path fill="none" stroke="black" paint-order="fill stroke markers" d=" M 120 559 L 120 555" stroke-linejoin="bevel" stroke-miterlimit="10"/><path fill="none" stroke="black" paint-order="fill stroke markers" d=" M 134 559 L 134 555" stroke-linejoin="bevel" stroke-miterlimit="10"/><path fill="none" stroke="black" paint-order="fill stroke markers" d=" M 149 559 L 149 555" stroke-linejoin="bevel" stroke-miterlimit="10"/><path fill="none" stroke="black" paint-order="fill stroke markers" d=" M 164 559 L 164 555" stroke-linejoin="bevel" stroke-miterlimit="10"/><path fill="none" stroke="black" paint-order="fill stroke markers" d=" M 179 559 L 179 555" stroke-linejoin="bevel" stroke-miterlimit="10"/><path fill="none" stroke="black" paint-order="fill stroke markers" d=" M 193 559 L 193 555" stroke-linejoin="bevel" stroke-miterlimit="10"/><path fill="none" stroke="black" paint-order="fill stroke markers" d=" M 208 559 L 208 555" stroke-linejoin="bevel" stroke-miterlimit="10"/><path fill="none" stroke="black" paint-order="fill stroke markers" d=" M 223 559 L 223 555" stroke-linejoin="bevel" stroke-miterlimit="10"/><path fill="none" stroke="black" paint-order="fill stroke markers" d=" M 237 559 L 237 555" stroke-linejoin="bevel" stroke-miterlimit="10"/><path fill="none" stroke="black" paint-order="fill stroke markers" d=" M 252 559 L 252 555" stroke-linejoin="bevel" stroke-miterlimit="10"/><path fill="none" stroke="black" paint-order="fill stroke markers" d=" M 267 559 L 267 555" stroke-linejoin="bevel" stroke-miterlimit="10"/><path fill="none" stroke="black" paint-order="fill stroke markers" d=" M 282 559 L 282 555" stroke-linejoin="bevel" stroke-miterlimit="10"/><path fill="none" stroke="black" paint-order="fill stroke markers" d=" M 296 559 L 296 555" stroke-linejoin="bevel" stroke-miterlimit="10"/><path fill="none" stroke="black" paint-order="fill stroke markers" d=" M 311 559 L 311 555" stroke-linejoin="bevel" stroke-miterlimit="10"/><path fill="none" stroke="black" paint-order="fill stroke markers" d=" M 326 559 L 326 555" stroke-linejoin="bevel" stroke-miterlimit="10"/><path fill="none" stroke="black" paint-order="fill stroke markers" d=" M 340 559 L 340 555" stroke-linejoin="bevel" stroke-miterlimit="10"/><path fill="none" stroke="black" paint-order="fill stroke markers" d=" M 355 559 L 355 555" stroke-linejoin="bevel" stroke-miterlimit="10"/><path fill="none" stroke="black" paint-order="fill stroke markers" d=" M 370 559 L 370 555" stroke-linejoin="bevel" stroke-miterlimit="10"/><path fill="none" stroke="black" paint-order="fill stroke markers" d=" M 385 559 L 385 555" stroke-linejoin="bevel" stroke-miterlimit="10"/><path fill="none" stroke="black" paint-order="fill stroke markers" d=" M 399 559 L 399 555" stroke-linejoin="bevel" stroke-miterlimit="10"/><path fill="none" stroke="black" paint-order="fill stroke markers" d=" M 414 559 L 414 555" stroke-linejoin="bevel" stroke-miterlimit="10"/><path fill="none" stroke="black" paint-order="fill stroke markers" d=" M 429 559 L 429 555" stroke-linejoin="bevel" stroke-miterlimit="10"/><path fill="none" stroke="black" paint-order="fill stroke markers" d=" M 443 559 L 443 555" stroke-linejoin="bevel" stroke-miterlimit="10"/><path fill="none" stroke="black" paint-order="fill stroke markers" d=" M 458 559 L 458 555" stroke-linejoin="bevel" stroke-miterlimit="10"/><path fill="none" stroke="black" paint-order="fill stroke markers" d=" M 473 559 L 473 555" stroke-linejoin="bevel" stroke-miterlimit="10"/><path fill="none" stroke="black" paint-order="fill stroke markers" d=" M 488 559 L 488 555" stroke-linejoin="bevel" stroke-miterlimit="10"/><path fill="none" stroke="black" paint-order="fill stroke markers" d=" M 502 559 L 502 555" stroke-linejoin="bevel" stroke-miterlimit="10"/><path fill="none" stroke="black" paint-order="fill stroke markers" d=" M 517 559 L 517 555" stroke-linejoin="bevel" stroke-miterlimit="10"/><path fill="none" stroke="black" paint-order="fill stroke markers" d=" M 532 559 L 532 555" stroke-linejoin="bevel" stroke-miterlimit="10"/><path fill="none" stroke="black" paint-order="fill stroke markers" d=" M 546 559 L 546 555" stroke-linejoin="bevel" stroke-miterlimit="10"/><path fill="" stroke="black" paint-order="fill stroke markers" d=" M 561 559 L 561 555" stroke-linejoin="bevel" stroke-miterlimit="10"/><g transform="translate(76,566) rotate(0,0,0)"><text fill="" stroke="none" font-family="helvetica" font-size="8pt" font-style="normal" font-weight="normal" text-decoration="normal" x="0" y="0" text-anchor="middle" dominant-baseline="hanging">-30</text><g transform="rotate(0,0,0) translate(-76,-566) translate(149,566) rotate(0,0,0)"><text fill="" stroke="none" font-family="helvetica" font-size="8pt" font-style="normal" font-weight="normal" text-decoration="normal" x="0" y="0" text-anchor="middle" dominant-baseline="hanging">-25</text><g transform="rotate(0,0,0) translate(-149,-566) translate(223,566) rotate(0,0,0)"><text fill="" stroke="none" font-family="helvetica" font-size="8pt" font-style="normal" font-weight="normal" text-decoration="normal" x="0" y="0" text-anchor="middle" dominant-baseline="hanging">-20</text><g transform="rotate(0,0,0) translate(-223,-566) translate(296,566) rotate(0,0,0)"><text fill="" stroke="none" font-family="helvetica" font-size="8pt" font-style="normal" font-weight="normal" text-decoration="normal" x="0" y="0" text-anchor="middle" dominant-baseline="hanging">-15</text><g transform="rotate(0,0,0) translate(-296,-566) translate(370,566) rotate(0,0,0)"><text fill="" stroke="none" font-family="helvetica" font-size="8pt" font-style="normal" font-weight="normal" text-decoration="normal" x="0" y="0" text-anchor="middle" dominant-baseline="hanging">-10</text><g transform="rotate(0,0,0) translate(-370,-566) translate(443,566) rotate(0,0,0)"><text fill="" stroke="none" font-family="helvetica" font-size="8pt" font-style="normal" font-weight="normal" text-decoration="normal" x="0" y="0" text-anchor="middle" dominant-baseline="hanging">-5</text><g transform="rotate(0,0,0) translate(-443,-566) translate(517,566) rotate(0,0,0)"><text fill="" stroke="none" font-family="helvetica" font-size="8pt" font-style="normal" font-weight="normal" text-decoration="normal" x="0" y="0" text-anchor="middle" dominant-baseline="hanging">0</text><g transform="rotate(0,0,0) translate(-517,-566) translate(311,584) rotate(0,0,0)"><text fill="" stroke="none" font-family="helvetica" font-size="10pt" font-style="italic" font-weight="normal" text-decoration="normal" x="0" y="0" text-anchor="middle" dominant-baseline="hanging">position from codon</text><g transform="rotate(0,0,0) translate(-311,-584)"/></g></g></g></g></g></g></g></g></g></g><g><g fill="#444444"><path fill="none" stroke="black" paint-order="fill stroke markers" d=" M 52 555 L 52 203" stroke-linejoin="bevel" stroke-miterlimit="10"/><path fill="none" stroke="black" paint-order="fill stroke markers" d=" M 46 522 L 54 522" stroke-linejoin="bevel" stroke-miterlimit="10"/><path fill="none" stroke="black" paint-order="fill stroke markers" d=" M 46 458 L 54 458" stroke-linejoin="bevel" stroke-miterlimit="10"/><path fill="none" stroke="black" paint-order="fill stroke markers" d=" M 46 395 L 54 395" stroke-linejoin="bevel" stroke-miterlimit="10"/><path fill="none" stroke="black" paint-order="fill stroke markers" d=" M 46 331 L 54 331" stroke-linejoin="bevel" stroke-miterlimit="10"/><path fill="none" stroke="black" paint-order="fill stroke markers" d=" M 46 267 L 54 267" stroke-linejoin="bevel" stroke-miterlimit="10"/><path fill="none" stroke="black" paint-order="fill stroke markers" d=" M 48 535 L 52 535" stroke-linejoin="bevel" stroke-miterlimit="10"/><path fill="none" stroke="black" paint-order="fill stroke markers" d=" M 48 548 L 52 548" stroke-linejoin="bevel" stroke-miterlimit="10"/><path fill="none" stroke="black" paint-order="fill stroke markers" d=" M 48 522 L 52 522" stroke-linejoin="bevel" stroke-miterlimit="10"/><path fill="none" stroke="black" paint-order="fill stroke markers" d=" M 48 510 L 52 510" stroke-linejoin="bevel" stroke-miterlimit="10"/><path fill="none" stroke="black" paint-order="fill stroke markers" d=" M 48 497 L 52 497" stroke-linejoin="bevel" stroke-miterlimit="10"/><path fill="none" stroke="black" paint-order="fill stroke markers" d=" M 48 484 L 52 484" stroke-linejoin="bevel" stroke-miterlimit="10"/><path fill="none" stroke="black" paint-order="fill stroke markers" d=" M 48 471 L 52 471" stroke-linejoin="bevel" stroke-miterlimit="10"/><path fill="none" stroke="black" paint-order="fill stroke markers" d=" M 48 458 L 52 458" stroke-linejoin="bevel" stroke-miterlimit="10"/><path fill="none" stroke="black" paint-order="fill stroke markers" d=" M 48 446 L 52 446" stroke-linejoin="bevel" stroke-miterlimit="10"/><path fill="none" stroke="black" paint-order="fill stroke markers" d=" M 48 433 L 52 433" stroke-linejoin="bevel" stroke-miterlimit="10"/><path fill="none" stroke="black" paint-order="fill stroke markers" d=" M 48 420 L 52 420" stroke-linejoin="bevel" stroke-miterlimit="10"/><path fill="none" stroke="black" paint-order="fill stroke markers" d=" M 48 407 L 52 407" stroke-linejoin="bevel" stroke-miterlimit="10"/><path fill="none" stroke="black" paint-order="fill stroke markers" d=" M 48 395 L 52 395" stroke-linejoin="bevel" stroke-miterlimit="10"/><path fill="none" stroke="black" paint-order="fill stroke markers" d=" M 48 382 L 52 382" stroke-linejoin="bevel" stroke-miterlimit="10"/><path fill="none" stroke="black" paint-order="fill stroke markers" d=" M 48 369 L 52 369" stroke-linejoin="bevel" stroke-miterlimit="10"/><path fill="none" stroke="black" paint-order="fill stroke markers" d=" M 48 356 L 52 356" stroke-linejoin="bevel" stroke-miterlimit="10"/><path fill="none" stroke="black" paint-order="fill stroke markers" d=" M 48 343 L 52 343" stroke-linejoin="bevel" stroke-miterlimit="10"/><path fill="none" stroke="black" paint-order="fill stroke markers" d=" M 48 331 L 52 331" stroke-linejoin="bevel" stroke-miterlimit="10"/><path fill="none" stroke="black" paint-order="fill stroke markers" d=" M 48 318 L 52 318" stroke-linejoin="bevel" stroke-miterlimit="10"/><path fill="none" stroke="black" paint-order="fill stroke markers" d=" M 48 305 L 52 305" stroke-linejoin="bevel" stroke-miterlimit="10"/><path fill="none" stroke="black" paint-order="fill stroke markers" d=" M 48 292 L 52 292" stroke-linejoin="bevel" stroke-miterlimit="10"/><path fill="none" stroke="black" paint-order="fill stroke markers" d=" M 48 279 L 52 279" stroke-linejoin="bevel" stroke-miterlimit="10"/><path fill="none" stroke="black" paint-order="fill stroke markers" d=" M 48 267 L 52 267" stroke-linejoin="bevel" stroke-miterlimit="10"/><path fill="none" stroke="black" paint-order="fill stroke markers" d=" M 48 254 L 52 254" stroke-linejoin="bevel" stroke-miterlimit="10"/><path fill="none" stroke="black" paint-order="fill stroke markers" d=" M 48 241 L 52 241" stroke-linejoin="bevel" stroke-miterlimit="10"/><path fill="none" stroke="black" paint-order="fill stroke markers" d=" M 48 228 L 52 228" stroke-linejoin="bevel" stroke-miterlimit="10"/><path fill="" stroke="black" paint-order="fill stroke markers" d=" M 48 215 L 52 215" stroke-linejoin="bevel" stroke-miterlimit="10"/><g transform="translate(41,522) rotate(0,0,0)"><text fill="" stroke="none" font-family="helvetica" font-size="8pt" font-style="normal" font-weight="normal" text-decoration="normal" x="0" y="0" text-anchor="end" dominant-baseline="central">500</text><g transform="rotate(0,0,0) translate(-41,-522) translate(41,458) rotate(0,0,0)"><text fill="" stroke="none" font-family="helvetica" font-size="8pt" font-style="normal" font-weight="normal" text-decoration="normal" x="0" y="0" text-anchor="end" dominant-baseline="central">600</text><g transform="rotate(0,0,0) translate(-41,-458) translate(41,395) rotate(0,0,0)"><text fill="" stroke="none" font-family="helvetica" font-size="8pt" font-style="normal" font-weight="normal" text-decoration="normal" x="0" y="0" text-anchor="end" dominant-baseline="central">700</text><g transform="rotate(0,0,0) translate(-41,-395) translate(41,331) rotate(0,0,0)"><text fill="" stroke="none" font-family="helvetica" font-size="8pt" font-style="normal" font-weight="normal" text-decoration="normal" x="0" y="0" text-anchor="end" dominant-baseline="central">800</text><g transform="rotate(0,0,0) translate(-41,-331) translate(41,267) rotate(0,0,0)"><text fill="" stroke="none" font-family="helvetica" font-size="8pt" font-style="normal" font-weight="normal" text-decoration="normal" x="0" y="0" text-anchor="end" dominant-baseline="central">900</text><g transform="rotate(0,0,0) translate(-41,-267) translate(16,379) rotate(-90,0,0)"><text fill="" stroke="none" font-family="helvetica" font-size="10pt" font-style="italic" font-weight="normal" text-decoration="normal" x="0" y="0" text-anchor="middle" dominant-baseline="alphabetic">5'seq RPM</text><g transform="rotate(90,0,0) translate(-16,-379)"/></g></g></g></g></g></g></g></g><g clip-path="url(#HvTfTcSgmqIV)"><g/></g></g></g></svg>