<svg version="1.1" xmlns="http://www.w3.org/2000/svg" xmlns:xlink="http://www.w3.org/1999/xlink" width="600" height="600" style="width: 600px; height: 600px;"><defs><clipPath id="kGxqtOrasTJG"><path fill="none" stroke="none" d=" M 58 203 L 570 203 L 570 555 L 58 555 L 58 203 Z"/></clipPath><clipPath id="ouHXWzrxnTeT"><path fill="none" stroke="none" d=" M 58 203 L 570 203 L 570 555 L 58 555 L 58 203 Z"/></clipPath><clipPath id="aKHOrSbmTfVo"><path fill="none" stroke="none" d=" M 58 203 L 570 203 L 570 555 L 58 555 L 58 203 Z"/></clipPath><clipPath id="zVcmXybDKXht"><path fill="none" stroke="none" d=" M 58 203 L 570 203 L 570 555 L 58 555 L 58 203 Z"/></clipPath><clipPath id="plUnHMWTNzeS"><path fill="none" stroke="none" d=" M 58 203 L 570 203 L 570 555 L 58 555 L 58 203 Z"/></clipPath><clipPath id="xaGVHgVrwDMl"><path fill="none" stroke="none" d=" M 58 203 L 570 203 L 570 555 L 58 555 L 58 203 Z"/></clipPath><clipPath id="vGdoBoDhvRTQ"><path fill="none" stroke="none" d=" M 58 203 L 570 203 L 570 555 L 58 555 L 58 203 Z"/></clipPath><clipPath id="UJOEdhzuucmS"><path fill="none" stroke="none" d=" M 58 203 L 570 203 L 570 555 L 58 555 L 58 203 Z"/></clipPath><clipPath id="BGXnTattNJEH"><path fill="none" stroke="none" d=" M 58 203 L 570 203 L 570 555 L 58 555 L 58 203 Z"/></clipPath></defs><g><g/><g/><g/><g transform="scale(1,1) translate(0.5,0.5)"><rect fill="#FFFFFF" stroke="none" x="0" y="0" width="600" height="600"/><rect fill="#ffffff" stroke="none" x="0" y="0" width="600" height="600"/><rect fill="#FFFFFF" stroke="none" x="58" y="203" width="512" height="352"/><rect fill="#ffffff" stroke="none" x="58" y="203" width="512" height="352"/><g><rect fill="none" stroke="#e5e5e5" x="58" y="203" width="512" height="352" stroke-linejoin="bevel" stroke-miterlimit="10"/></g><g clip-path="url(#kGxqtOrasTJG)"><g><g><path fill="none" stroke="#e5e5e5" paint-order="fill stroke markers" d=" M 81 555 L 81 203" stroke-linejoin="bevel" stroke-miterlimit="10"/><path fill="none" stroke="#e5e5e5" paint-order="fill stroke markers" d=" M 154 555 L 154 203" stroke-linejoin="bevel" stroke-miterlimit="10"/><path fill="none" stroke="#e5e5e5" paint-order="fill stroke markers" d=" M 227 555 L 227 203" stroke-linejoin="bevel" stroke-miterlimit="10"/><path fill="none" stroke="#e5e5e5" paint-order="fill stroke markers" d=" M 299 555 L 299 203" stroke-linejoin="bevel" stroke-miterlimit="10"/><path fill="none" stroke="#e5e5e5" paint-order="fill stroke markers" d=" M 372 555 L 372 203" stroke-linejoin="bevel" stroke-miterlimit="10"/><path fill="none" stroke="#e5e5e5" paint-order="fill stroke markers" d=" M 445 555 L 445 203" stroke-linejoin="bevel" stroke-miterlimit="10"/><path fill="none" stroke="#e5e5e5" paint-order="fill stroke markers" d=" M 518 555 L 518 203" stroke-linejoin="bevel" stroke-miterlimit="10"/></g></g></g><g clip-path="url(#ouHXWzrxnTeT)"><g><g><path fill="none" stroke="#e5e5e5" paint-order="fill stroke markers" d=" M 58 518 L 570 518" stroke-linejoin="bevel" stroke-miterlimit="10"/><path fill="none" stroke="#e5e5e5" paint-order="fill stroke markers" d=" M 58 477 L 570 477" stroke-linejoin="bevel" stroke-miterlimit="10"/><path fill="none" stroke="#e5e5e5" paint-order="fill stroke markers" d=" M 58 435 L 570 435" stroke-linejoin="bevel" stroke-miterlimit="10"/><path fill="none" stroke="#e5e5e5" paint-order="fill stroke markers" d=" M 58 394 L 570 394" stroke-linejoin="bevel" stroke-miterlimit="10"/><path fill="none" stroke="#e5e5e5" paint-order="fill stroke markers" d=" M 58 353 L 570 353" stroke-linejoin="bevel" stroke-miterlimit="10"/><path fill="none" stroke="#e5e5e5" paint-order="fill stroke markers" d=" M 58 311 L 570 311" stroke-linejoin="bevel" stroke-miterlimit="10"/><path fill="none" stroke="#e5e5e5" paint-order="fill stroke markers" d=" M 58 270 L 570 270" stroke-linejoin="bevel" stroke-miterlimit="10"/><path fill="none" stroke="#e5e5e5" paint-order="fill stroke markers" d=" M 58 228 L 570 228" stroke-linejoin="bevel" stroke-miterlimit="10"/></g></g></g><g clip-path="url(#aKHOrSbmTfVo)"><g><g><path fill="none" stroke="none"/><path fill="none" stroke="#1F78B4" paint-order="fill stroke markers" d=" M 81.27272727272725 381.0433253492597 L 95.81818181818181 439.57020622162486 L 110.36363636363637 523.1237331235874 L 124.90909090909093 422.2289081853686 L 139.45454545454544 424.00245002998565 L 154 506.5706759071609 L 168.54545454545456 409.41999486313375 L 183.09090909090907 441.1466878612846 L 197.63636363636363 515.241324925289 L 212.1818181818182 400.946406049963 L 226.72727272727275 444.4967113455614 L 241.27272727272725 498.68826770886244 L 255.8181818181818 368.0373518220674 L 270.3636363636364 414.5435601920277 L 284.9090909090909 448.0437950347956 L 299.45454545454544 339.46362210323593 L 314 437.00842355717793 L 328.5454545454545 497.30884627416026 L 343.0909090909091 375.52563961045087 L 357.6363636363636 448.4379154447106 L 372.1818181818182 512.4824820558846 L 386.72727272727275 425.97305207956026 L 401.27272727272725 437.00842355717793 L 415.8181818181818 481.1499094676486 L 430.3636363636364 388.7286733426006 L 444.9090909090909 450.21145728932765 L 459.45454545454544 508.1471575468205 L 474 411.9817775275807 L 488.54545454545456 410.6023560928785 L 503.09090909090907 464.20273184130724 L 517.6363636363636 223.39516138329293 L 532.1818181818181 417.8935836763044 L 546.7272727272727 429.5201357687946" stroke-linejoin="bevel" stroke-miterlimit="10" stroke-width="2"/></g></g></g><g clip-path="url(#zVcmXybDKXht)"><g><g><path fill="none" stroke="none"/><path fill="none" stroke="#33A02C" paint-order="fill stroke markers" d=" M 81.27272727272725 416.2313355726693 L 95.81818181818181 446.8855661700577 L 110.36363636363637 471.5526423538936 L 124.90909090909093 413.5969876307063 L 139.45454545454544 469.6367529415569 L 154 491.4299950068877 L 168.54545454545456 415.2733908665009 L 183.09090909090907 424.8528379281847 L 197.63636363636363 486.64027147604577 L 212.1818181818182 409.04675027640644 L 226.72727272727275 403.2990820393961 L 241.27272727272725 492.62742588959816 L 255.8181818181818 385.0981326221968 L 270.3636363636364 440.41943940342105 L 284.9090909090909 415.512877043043 L 299.45454545454544 369.2920449704184 L 314 413.3575014541642 L 328.5454545454545 439.46149469725265 L 343.0909090909091 396.11449674313315 L 357.6363636363636 420.06311439734293 L 372.1818181818182 466.7629188230517 L 386.72727272727275 419.3446558677166 L 401.27272727272725 443.7722458750104 L 415.8181818181818 431.7979370479055 L 430.3636363636364 405.69394380481697 L 444.9090909090909 409.04675027640644 L 459.45454545454544 446.1671076404315 L 474 434.43228498986866 L 488.54545454545456 447.8435108762261 L 503.09090909090907 394.9170658604228 L 517.6363636363636 253.38073552404353 L 532.1818181818181 408.80726409986437 L 546.7272727272727 401.14370645051724" stroke-linejoin="bevel" stroke-miterlimit="10" stroke-width="2"/></g></g></g><g clip-path="url(#plUnHMWTNzeS)"><g><g><path fill="none" stroke="none"/><path fill="none" stroke="#C51B7D" paint-order="fill stroke markers" d=" M 81.27272727272725 413.2561855005587 L 95.81818181818181 420.5147381061536 L 110.36363636363637 478.58315895091323 L 124.90909090909093 409.2514668216097 L 139.45454545454544 441.038921335767 L 154 483.8393522170337 L 168.54545454545456 429.5253551337887 L 183.09090909090907 441.7898060880699 L 197.63636363636363 492.59967432723454 L 212.1818181818182 425.77093137227416 L 226.72727272727275 447.7968841064933 L 241.27272727272725 460.06133506077435 L 255.8181818181818 395.4852463627227 L 270.3636363636364 428.0235856291829 L 284.9090909090909 414.2573651702959 L 299.45454545454544 371.95752412389766 L 314 414.2573651702959 L 328.5454545454545 444.2927552624129 L 343.0909090909091 407.4994023995696 L 357.6363636363636 431.2774195558288 L 372.1818181818182 467.31988766636937 L 386.72727272727275 443.0412806752414 L 401.27272727272725 451.55130786800794 L 415.8181818181818 441.038921335767 L 430.3636363636364 420.5147381061536 L 444.9090909090909 441.038921335767 L 459.45454545454544 461.0625147305117 L 474 450.5501281982707 L 488.54545454545456 415.5088397574674 L 503.09090909090907 392.23141243607677 L 517.6363636363636 295.86786922386773 L 532.1818181818181 417.76149401437624 L 546.7272727272727 367.7025105275144" stroke-linejoin="bevel" stroke-miterlimit="10" stroke-width="2"/></g></g></g><g clip-path="url(#xaGVHgVrwDMl)"><g><g><path fill="none" stroke="none"/><path fill="none" stroke="#542788" paint-order="fill stroke markers" d=" M 81.27272727272725 413.13666595033317 L 95.81818181818181 450.4263044858744 L 110.36363636363637 517.743915105299 L 124.90909090909093 409.60396335222924 L 139.45454545454544 467.6972949654936 L 154 521.8654014697536 L 168.54545454545456 443.9496830560173 L 183.09090909090907 450.0337819749741 L 197.63636363636363 503.02432094653284 L 212.1818181818182 408.62265707497806 L 226.72727272727275 452.9777008067273 L 241.27272727272725 505.5757172673856 L 255.8181818181818 421.1833774237921 L 270.3636363636364 442.3795930124155 L 284.9090909090909 471.62252007449786 L 299.45454545454544 374.86572113754073 L 314 414.90301724938513 L 328.5454545454545 496.3514382612253 L 343.0909090909091 446.8936018877705 L 357.6363636363636 456.31414214938104 L 372.1818181818182 518.3326988716497 L 386.72727272727275 454.54779085032897 L 401.27272727272725 482.6131503797101 L 415.8181818181818 492.8187356631214 L 430.3636363636364 409.60396335222924 L 444.9090909090909 465.14589864464074 L 459.45454545454544 464.1645923673897 L 474 408.81891833042835 L 488.54545454545456 421.37963867924225 L 503.09090909090907 452.9777008067273 L 517.6363636363636 332.0807674493934 L 532.1818181818181 448.65995318682246 L 546.7272727272727 460.2393672583853" stroke-linejoin="bevel" stroke-miterlimit="10" stroke-width="2"/></g></g></g><g clip-path="url(#vGdoBoDhvRTQ)"><g><g><path fill="none" stroke="none"/><path fill="none" stroke="#A6CEE3" paint-order="fill stroke markers" d=" M 81.27272727272725 410.27330867936405 L 95.81818181818181 436.41003408896654 L 110.36363636363637 451.8544627400953 L 124.90909090909093 403.54112183143604 L 139.45454545454544 443.9342429190036 L 154 509.6720674340646 L 168.54545454545456 392.8488250729623 L 183.09090909090907 437.9940780531849 L 197.63636363636363 528.6805950046846 L 212.1818181818182 377.00838543077896 L 226.72727272727275 424.9257153483836 L 241.27272727272725 458.5866495880232 L 255.8181818181818 357.20783587804976 L 270.3636363636364 402.74909984932697 L 284.9090909090909 409.08527570620026 L 299.45454545454544 304.1423630767356 L 314 405.9171877777636 L 328.5454545454545 421.3616164288924 L 343.0909090909091 407.5012317419819 L 357.6363636363636 397.60095696561734 L 372.1818181818182 482.7433200423528 L 386.72727272727275 424.529704357329 L 401.27272727272725 427.3017812947111 L 415.8181818181818 424.529704357329 L 430.3636363636364 424.529704357329 L 444.9090909090909 455.81457265064114 L 459.45454545454544 423.34167138416535 L 474 445.9142978742766 L 488.54545454545456 439.1821110263486 L 503.09090909090907 418.9855504825648 L 517.6363636363636 219 L 532.1818181818181 416.60948453623735 L 546.7272727272727 422.94566039311076" stroke-linejoin="bevel" stroke-miterlimit="10" stroke-width="2"/></g></g></g><g clip-path="url(#UJOEdhzuucmS)"><g><g><path fill="none" stroke="none"/><path fill="none" stroke="#B2DF8A" paint-order="fill stroke markers" d=" M 81.27272727272725 398.59637357748056 L 95.81818181818181 460.53914994035677 L 110.36363636363637 525.2349385860274 L 124.90909090909093 430.714850210083 L 139.45454545454544 457.7861376575622 L 154 532.5763046734794 L 168.54545454545456 439.43272243893216 L 183.09090909090907 463.75099760361695 L 197.63636363636363 516.5170663571782 L 212.1818181818182 393.54918439235723 L 226.72727272727275 483.93975434410993 L 241.27272727272725 523.8584324446302 L 255.8181818181818 390.33733672909705 L 270.3636363636364 467.4216806473429 L 284.9090909090909 485.3162604855072 L 299.45454545454544 360.9718723792889 L 314 413.27910575238445 L 328.5454545454545 498.1636511385482 L 343.0909090909091 446.77408852638416 L 357.6363636363636 472.01003445200047 L 372.1818181818182 511.01104179158926 L 386.72727272727275 431.6325209710145 L 401.27272727272725 453.19778385290465 L 415.8181818181818 539 L 430.3636363636364 422.4558133616995 L 444.9090909090909 519.7289140204384 L 459.45454545454544 512.8463833134522 L 474 444.02107624358973 L 488.54545454545456 436.6797101561376 L 503.09090909090907 440.80922858032943 L 517.6363636363636 269.20479628613907 L 532.1818181818181 481.64557744178114 L 546.7272727272727 445.85641776545265" stroke-linejoin="bevel" stroke-miterlimit="10" stroke-width="2"/></g></g></g><g><g/><g><path fill="#ffffff" stroke="#e5e5e5" paint-order="fill stroke markers" d=" M 68 38 L 472.421875 38 L 472.421875 193 L 68 193 L 68 38 Z" fill-opacity="0.95" stroke-linejoin="bevel" stroke-miterlimit="10" stroke-opacity="0.5"/><text fill="#444444" stroke="none" font-family="helvetica" font-size="10pt" font-style="normal" font-weight="normal" text-decoration="normal" x="103" y="58" text-anchor="start" dominant-baseline="central">sc5314_fluc_rep01_ACGCTG.fastqAligned.primary.out_dedup</text><g><path fill="none" stroke="#1F78B4" paint-order="fill stroke markers" d=" M 78 58 L 98 58" stroke-linejoin="bevel" stroke-miterlimit="10" stroke-width="2"/></g><text fill="#444444" stroke="none" font-family="helvetica" font-size="10pt" font-style="normal" font-weight="normal" text-decoration="normal" x="103" y="81" text-anchor="start" dominant-baseline="central">sc5314_fluc_rep02_GTGATC.fastqAligned.primary.out_dedup</text><g><path fill="none" stroke="#33A02C" paint-order="fill stroke markers" d=" M 78 81 L 98 81" stroke-linejoin="bevel" stroke-miterlimit="10" stroke-width="2"/></g><text fill="#444444" stroke="none" font-family="helvetica" font-size="10pt" font-style="normal" font-weight="normal" text-decoration="normal" x="103" y="104" text-anchor="start" dominant-baseline="central">sc5314_fluc_rep03_ACTGGT.fastqAligned.primary.out_dedup</text><g><path fill="none" stroke="#C51B7D" paint-order="fill stroke markers" d=" M 78 104 L 98 104" stroke-linejoin="bevel" stroke-miterlimit="10" stroke-width="2"/></g><text fill="#444444" stroke="none" font-family="helvetica" font-size="10pt" font-style="normal" font-weight="normal" text-decoration="normal" x="103" y="127" text-anchor="start" dominant-baseline="central">sc5314_ut_rep01_CGTGCA.fastqAligned.primary.out_dedup</text><g><path fill="none" stroke="#542788" paint-order="fill stroke markers" d=" M 78 127 L 98 127" stroke-linejoin="bevel" stroke-miterlimit="10" stroke-width="2"/></g><text fill="#444444" stroke="none" font-family="helvetica" font-size="10pt" font-style="normal" font-weight="normal" text-decoration="normal" x="103" y="150" text-anchor="start" dominant-baseline="central">sc5314_ut_rep02_TAATGT.fastqAligned.primary.out_dedup</text><g><path fill="none" stroke="#A6CEE3" paint-order="fill stroke markers" d=" M 78 150 L 98 150" stroke-linejoin="bevel" stroke-miterlimit="10" stroke-width="2"/></g><text fill="#444444" stroke="none" font-family="helvetica" font-size="10pt" font-style="normal" font-weight="normal" text-decoration="normal" x="103" y="173" text-anchor="start" dominant-baseline="central">sc5314_ut_rep03_CTACAC.fastqAligned.primary.out_dedup</text><g><path fill="none" stroke="#B2DF8A" paint-order="fill stroke markers" d=" M 78 173 L 98 173" stroke-linejoin="bevel" stroke-miterlimit="10" stroke-width="2"/></g></g></g><g><g fill="#444444"><path fill="" stroke="none" d=""/><g transform="translate(58,23)"><path fill="none" stroke="none"/><text fill="" stroke="none" font-family="helvetica" font-size="10pt" font-style="normal" font-weight="bold" text-decoration="normal" x="0" y="0" text-anchor="start" dominant-baseline="text-after-edge">ATA(ILE)-codon_scaled</text></g></g></g><g/><g><g fill="#444444"><path fill="none" stroke="black" paint-order="fill stroke markers" d=" M 58 555 L 570 555" stroke-linejoin="bevel" stroke-miterlimit="10"/><path fill="none" stroke="black" paint-order="fill stroke markers" d=" M 81 561 L 81 553" stroke-linejoin="bevel" stroke-miterlimit="10"/><path fill="none" stroke="black" paint-order="fill stroke markers" d=" M 154 561 L 154 553" stroke-linejoin="bevel" stroke-miterlimit="10"/><path fill="none" stroke="black" paint-order="fill stroke markers" d=" M 227 561 L 227 553" stroke-linejoin="bevel" stroke-miterlimit="10"/><path fill="none" stroke="black" paint-order="fill stroke markers" d=" M 299 561 L 299 553" stroke-linejoin="bevel" stroke-miterlimit="10"/><path fill="none" stroke="black" paint-order="fill stroke markers" d=" M 372 561 L 372 553" stroke-linejoin="bevel" stroke-miterlimit="10"/><path fill="none" stroke="black" paint-order="fill stroke markers" d=" M 445 561 L 445 553" stroke-linejoin="bevel" stroke-miterlimit="10"/><path fill="none" stroke="black" paint-order="fill stroke markers" d=" M 518 561 L 518 553" stroke-linejoin="bevel" stroke-miterlimit="10"/><path fill="none" stroke="black" paint-order="fill stroke markers" d=" M 67 559 L 67 555" stroke-linejoin="bevel" stroke-miterlimit="10"/><path fill="none" stroke="black" paint-order="fill stroke markers" d=" M 81 559 L 81 555" stroke-linejoin="bevel" stroke-miterlimit="10"/><path fill="none" stroke="black" paint-order="fill stroke markers" d=" M 96 559 L 96 555" stroke-linejoin="bevel" stroke-miterlimit="10"/><path fill="none" stroke="black" paint-order="fill stroke markers" d=" M 110 559 L 110 555" stroke-linejoin="bevel" stroke-miterlimit="10"/><path fill="none" stroke="black" paint-order="fill stroke markers" d=" M 125 559 L 125 555" stroke-linejoin="bevel" stroke-miterlimit="10"/><path fill="none" stroke="black" paint-order="fill stroke markers" d=" M 139 559 L 139 555" stroke-linejoin="bevel" stroke-miterlimit="10"/><path fill="none" stroke="black" paint-order="fill stroke markers" d=" M 154 559 L 154 555" stroke-linejoin="bevel" stroke-miterlimit="10"/><path fill="none" stroke="black" paint-order="fill stroke markers" d=" M 169 559 L 169 555" stroke-linejoin="bevel" stroke-miterlimit="10"/><path fill="none" stroke="black" paint-order="fill stroke markers" d=" M 183 559 L 183 555" stroke-linejoin="bevel" stroke-miterlimit="10"/><path fill="none" stroke="black" paint-order="fill stroke markers" d=" M 198 559 L 198 555" stroke-linejoin="bevel" stroke-miterlimit="10"/><path fill="none" stroke="black" paint-order="fill stroke markers" d=" M 212 559 L 212 555" stroke-linejoin="bevel" stroke-miterlimit="10"/><path fill="none" stroke="black" paint-order="fill stroke markers" d=" M 227 559 L 227 555" stroke-linejoin="bevel" stroke-miterlimit="10"/><path fill="none" stroke="black" paint-order="fill stroke markers" d=" M 241 559 L 241 555" stroke-linejoin="bevel" stroke-miterlimit="10"/><path fill="none" stroke="black" paint-order="fill stroke markers" d=" M 256 559 L 256 555" stroke-linejoin="bevel" stroke-miterlimit="10"/><path fill="none" stroke="black" paint-order="fill stroke markers" d=" M 270 559 L 270 555" stroke-linejoin="bevel" stroke-miterlimit="10"/><path fill="none" stroke="black" paint-order="fill stroke markers" d=" M 285 559 L 285 555" stroke-linejoin="bevel" stroke-miterlimit="10"/><path fill="none" stroke="black" paint-order="fill stroke markers" d=" M 299 559 L 299 555" stroke-linejoin="bevel" stroke-miterlimit="10"/><path fill="none" stroke="black" paint-order="fill stroke markers" d=" M 314 559 L 314 555" stroke-linejoin="bevel" stroke-miterlimit="10"/><path fill="none" stroke="black" paint-order="fill stroke markers" d=" M 329 559 L 329 555" stroke-linejoin="bevel" stroke-miterlimit="10"/><path fill="none" stroke="black" paint-order="fill stroke markers" d=" M 343 559 L 343 555" stroke-linejoin="bevel" stroke-miterlimit="10"/><path fill="none" stroke="black" paint-order="fill stroke markers" d=" M 358 559 L 358 555" stroke-linejoin="bevel" stroke-miterlimit="10"/><path fill="none" stroke="black" paint-order="fill stroke markers" d=" M 372 559 L 372 555" stroke-linejoin="bevel" stroke-miterlimit="10"/><path fill="none" stroke="black" paint-order="fill stroke markers" d=" M 387 559 L 387 555" stroke-linejoin="bevel" stroke-miterlimit="10"/><path fill="none" stroke="black" paint-order="fill stroke markers" d=" M 401 559 L 401 555" stroke-linejoin="bevel" stroke-miterlimit="10"/><path fill="none" stroke="black" paint-order="fill stroke markers" d=" M 416 559 L 416 555" stroke-linejoin="bevel" stroke-miterlimit="10"/><path fill="none" stroke="black" paint-order="fill stroke markers" d=" M 430 559 L 430 555" stroke-linejoin="bevel" stroke-miterlimit="10"/><path fill="none" stroke="black" paint-order="fill stroke markers" d=" M 445 559 L 445 555" stroke-linejoin="bevel" stroke-miterlimit="10"/><path fill="none" stroke="black" paint-order="fill stroke markers" d=" M 459 559 L 459 555" stroke-linejoin="bevel" stroke-miterlimit="10"/><path fill="none" stroke="black" paint-order="fill stroke markers" d=" M 474 559 L 474 555" stroke-linejoin="bevel" stroke-miterlimit="10"/><path fill="none" stroke="black" paint-order="fill stroke markers" d=" M 489 559 L 489 555" stroke-linejoin="bevel" stroke-miterlimit="10"/><path fill="none" stroke="black" paint-order="fill stroke markers" d=" M 503 559 L 503 555" stroke-linejoin="bevel" stroke-miterlimit="10"/><path fill="none" stroke="black" paint-order="fill stroke markers" d=" M 518 559 L 518 555" stroke-linejoin="bevel" stroke-miterlimit="10"/><path fill="none" stroke="black" paint-order="fill stroke markers" d=" M 532 559 L 532 555" stroke-linejoin="bevel" stroke-miterlimit="10"/><path fill="none" stroke="black" paint-order="fill stroke markers" d=" M 547 559 L 547 555" stroke-linejoin="bevel" stroke-miterlimit="10"/><path fill="" stroke="black" paint-order="fill stroke markers" d=" M 561 559 L 561 555" stroke-linejoin="bevel" stroke-miterlimit="10"/><g transform="translate(81,566) rotate(0,0,0)"><text fill="" stroke="none" font-family="helvetica" font-size="8pt" font-style="normal" font-weight="normal" text-decoration="normal" x="0" y="0" text-anchor="middle" dominant-baseline="hanging">-30</text><g transform="rotate(0,0,0) translate(-81,-566) translate(154,566) rotate(0,0,0)"><text fill="" stroke="none" font-family="helvetica" font-size="8pt" font-style="normal" font-weight="normal" text-decoration="normal" x="0" y="0" text-anchor="middle" dominant-baseline="hanging">-25</text><g transform="rotate(0,0,0) translate(-154,-566) translate(227,566) rotate(0,0,0)"><text fill="" stroke="none" font-family="helvetica" font-size="8pt" font-style="normal" font-weight="normal" text-decoration="normal" x="0" y="0" text-anchor="middle" dominant-baseline="hanging">-20</text><g transform="rotate(0,0,0) translate(-227,-566) translate(299,566) rotate(0,0,0)"><text fill="" stroke="none" font-family="helvetica" font-size="8pt" font-style="normal" font-weight="normal" text-decoration="normal" x="0" y="0" text-anchor="middle" dominant-baseline="hanging">-15</text><g transform="rotate(0,0,0) translate(-299,-566) translate(372,566) rotate(0,0,0)"><text fill="" stroke="none" font-family="helvetica" font-size="8pt" font-style="normal" font-weight="normal" text-decoration="normal" x="0" y="0" text-anchor="middle" dominant-baseline="hanging">-10</text><g transform="rotate(0,0,0) translate(-372,-566) translate(445,566) rotate(0,0,0)"><text fill="" stroke="none" font-family="helvetica" font-size="8pt" font-style="normal" font-weight="normal" text-decoration="normal" x="0" y="0" text-anchor="middle" dominant-baseline="hanging">-5</text><g transform="rotate(0,0,0) translate(-445,-566) translate(518,566) rotate(0,0,0)"><text fill="" stroke="none" font-family="helvetica" font-size="8pt" font-style="normal" font-weight="normal" text-decoration="normal" x="0" y="0" text-anchor="middle" dominant-baseline="hanging">0</text><g transform="rotate(0,0,0) translate(-518,-566) translate(314,584) rotate(0,0,0)"><text fill="" stroke="none" font-family="helvetica" font-size="10pt" font-style="italic" font-weight="normal" text-decoration="normal" x="0" y="0" text-anchor="middle" dominant-baseline="hanging">position from codon</text><g transform="rotate(0,0,0) translate(-314,-584)"/></g></g></g></g></g></g></g></g></g></g><g><g fill="#444444"><path fill="none" stroke="black" paint-order="fill stroke markers" d=" M 58 555 L 58 203" stroke-linejoin="bevel" stroke-miterlimit="10"/><path fill="none" stroke="black" paint-order="fill stroke markers" d=" M 52 518 L 60 518" stroke-linejoin="bevel" stroke-miterlimit="10"/><path fill="none" stroke="black" paint-order="fill stroke markers" d=" M 52 477 L 60 477" stroke-linejoin="bevel" stroke-miterlimit="10"/><path fill="none" stroke="black" paint-order="fill stroke markers" d=" M 52 435 L 60 435" stroke-linejoin="bevel" stroke-miterlimit="10"/><path fill="none" stroke="black" paint-order="fill stroke markers" d=" M 52 394 L 60 394" stroke-linejoin="bevel" stroke-miterlimit="10"/><path fill="none" stroke="black" paint-order="fill stroke markers" d=" M 52 353 L 60 353" stroke-linejoin="bevel" stroke-miterlimit="10"/><path fill="none" stroke="black" paint-order="fill stroke markers" d=" M 52 311 L 60 311" stroke-linejoin="bevel" stroke-miterlimit="10"/><path fill="none" stroke="black" paint-order="fill stroke markers" d=" M 52 270 L 60 270" stroke-linejoin="bevel" stroke-miterlimit="10"/><path fill="none" stroke="black" paint-order="fill stroke markers" d=" M 52 228 L 60 228" stroke-linejoin="bevel" stroke-miterlimit="10"/><path fill="none" stroke="black" paint-order="fill stroke markers" d=" M 54 527 L 58 527" stroke-linejoin="bevel" stroke-miterlimit="10"/><path fill="none" stroke="black" paint-order="fill stroke markers" d=" M 54 535 L 58 535" stroke-linejoin="bevel" stroke-miterlimit="10"/><path fill="none" stroke="black" paint-order="fill stroke markers" d=" M 54 543 L 58 543" stroke-linejoin="bevel" stroke-miterlimit="10"/><path fill="none" stroke="black" paint-order="fill stroke markers" d=" M 54 551 L 58 551" stroke-linejoin="bevel" stroke-miterlimit="10"/><path fill="none" stroke="black" paint-order="fill stroke markers" d=" M 54 518 L 58 518" stroke-linejoin="bevel" stroke-miterlimit="10"/><path fill="none" stroke="black" paint-order="fill stroke markers" d=" M 54 510 L 58 510" stroke-linejoin="bevel" stroke-miterlimit="10"/><path fill="none" stroke="black" paint-order="fill stroke markers" d=" M 54 502 L 58 502" stroke-linejoin="bevel" stroke-miterlimit="10"/><path fill="none" stroke="black" paint-order="fill stroke markers" d=" M 54 493 L 58 493" stroke-linejoin="bevel" stroke-miterlimit="10"/><path fill="none" stroke="black" paint-order="fill stroke markers" d=" M 54 485 L 58 485" stroke-linejoin="bevel" stroke-miterlimit="10"/><path fill="none" stroke="black" paint-order="fill stroke markers" d=" M 54 477 L 58 477" stroke-linejoin="bevel" stroke-miterlimit="10"/><path fill="none" stroke="black" paint-order="fill stroke markers" d=" M 54 469 L 58 469" stroke-linejoin="bevel" stroke-miterlimit="10"/><path fill="none" stroke="black" paint-order="fill stroke markers" d=" M 54 460 L 58 460" stroke-linejoin="bevel" stroke-miterlimit="10"/><path fill="none" stroke="black" paint-order="fill stroke markers" d=" M 54 452 L 58 452" stroke-linejoin="bevel" stroke-miterlimit="10"/><path fill="none" stroke="black" paint-order="fill stroke markers" d=" M 54 444 L 58 444" stroke-linejoin="bevel" stroke-miterlimit="10"/><path fill="none" stroke="black" paint-order="fill stroke markers" d=" M 54 435 L 58 435" stroke-linejoin="bevel" stroke-miterlimit="10"/><path fill="none" stroke="black" paint-order="fill stroke markers" d=" M 54 427 L 58 427" stroke-linejoin="bevel" stroke-miterlimit="10"/><path fill="none" stroke="black" paint-order="fill stroke markers" d=" M 54 419 L 58 419" stroke-linejoin="bevel" stroke-miterlimit="10"/><path fill="none" stroke="black" paint-order="fill stroke markers" d=" M 54 411 L 58 411" stroke-linejoin="bevel" stroke-miterlimit="10"/><path fill="none" stroke="black" paint-order="fill stroke markers" d=" M 54 402 L 58 402" stroke-linejoin="bevel" stroke-miterlimit="10"/><path fill="none" stroke="black" paint-order="fill stroke markers" d=" M 54 394 L 58 394" stroke-linejoin="bevel" stroke-miterlimit="10"/><path fill="none" stroke="black" paint-order="fill stroke markers" d=" M 54 386 L 58 386" stroke-linejoin="bevel" stroke-miterlimit="10"/><path fill="none" stroke="black" paint-order="fill stroke markers" d=" M 54 377 L 58 377" stroke-linejoin="bevel" stroke-miterlimit="10"/><path fill="none" stroke="black" paint-order="fill stroke markers" d=" M 54 369 L 58 369" stroke-linejoin="bevel" stroke-miterlimit="10"/><path fill="none" stroke="black" paint-order="fill stroke markers" d=" M 54 361 L 58 361" stroke-linejoin="bevel" stroke-miterlimit="10"/><path fill="none" stroke="black" paint-order="fill stroke markers" d=" M 54 353 L 58 353" stroke-linejoin="bevel" stroke-miterlimit="10"/><path fill="none" stroke="black" paint-order="fill stroke markers" d=" M 54 344 L 58 344" stroke-linejoin="bevel" stroke-miterlimit="10"/><path fill="none" stroke="black" paint-order="fill stroke markers" d=" M 54 336 L 58 336" stroke-linejoin="bevel" stroke-miterlimit="10"/><path fill="none" stroke="black" paint-order="fill stroke markers" d=" M 54 328 L 58 328" stroke-linejoin="bevel" stroke-miterlimit="10"/><path fill="none" stroke="black" paint-order="fill stroke markers" d=" M 54 319 L 58 319" stroke-linejoin="bevel" stroke-miterlimit="10"/><path fill="none" stroke="black" paint-order="fill stroke markers" d=" M 54 311 L 58 311" stroke-linejoin="bevel" stroke-miterlimit="10"/><path fill="none" stroke="black" paint-order="fill stroke markers" d=" M 54 303 L 58 303" stroke-linejoin="bevel" stroke-miterlimit="10"/><path fill="none" stroke="black" paint-order="fill stroke markers" d=" M 54 295 L 58 295" stroke-linejoin="bevel" stroke-miterlimit="10"/><path fill="none" stroke="black" paint-order="fill stroke markers" d=" M 54 286 L 58 286" stroke-linejoin="bevel" stroke-miterlimit="10"/><path fill="none" stroke="black" paint-order="fill stroke markers" d=" M 54 278 L 58 278" stroke-linejoin="bevel" stroke-miterlimit="10"/><path fill="none" stroke="black" paint-order="fill stroke markers" d=" M 54 270 L 58 270" stroke-linejoin="bevel" stroke-miterlimit="10"/><path fill="none" stroke="black" paint-order="fill stroke markers" d=" M 54 261 L 58 261" stroke-linejoin="bevel" stroke-miterlimit="10"/><path fill="none" stroke="black" paint-order="fill stroke markers" d=" M 54 253 L 58 253" stroke-linejoin="bevel" stroke-miterlimit="10"/><path fill="none" stroke="black" paint-order="fill stroke markers" d=" M 54 245 L 58 245" stroke-linejoin="bevel" stroke-miterlimit="10"/><path fill="none" stroke="black" paint-order="fill stroke markers" d=" M 54 237 L 58 237" stroke-linejoin="bevel" stroke-miterlimit="10"/><path fill="none" stroke="black" paint-order="fill stroke markers" d=" M 54 228 L 58 228" stroke-linejoin="bevel" stroke-miterlimit="10"/><path fill="none" stroke="black" paint-order="fill stroke markers" d=" M 54 220 L 58 220" stroke-linejoin="bevel" stroke-miterlimit="10"/><path fill="none" stroke="black" paint-order="fill stroke markers" d=" M 54 212 L 58 212" stroke-linejoin="bevel" stroke-miterlimit="10"/><path fill="" stroke="black" paint-order="fill stroke markers" d=" M 54 203 L 58 203" stroke-linejoin="bevel" stroke-miterlimit="10"/><g transform="translate(47,518) rotate(0,0,0)"><text fill="" stroke="none" font-family="helvetica" font-size="8pt" font-style="normal" font-weight="normal" text-decoration="normal" x="0" y="0" text-anchor="end" dominant-baseline="central">3200</text><g transform="rotate(0,0,0) translate(-47,-518) translate(47,477) rotate(0,0,0)"><text fill="" stroke="none" font-family="helvetica" font-size="8pt" font-style="normal" font-weight="normal" text-decoration="normal" x="0" y="0" text-anchor="end" dominant-baseline="central">3400</text><g transform="rotate(0,0,0) translate(-47,-477) translate(47,435) rotate(0,0,0)"><text fill="" stroke="none" font-family="helvetica" font-size="8pt" font-style="normal" font-weight="normal" text-decoration="normal" x="0" y="0" text-anchor="end" dominant-baseline="central">3600</text><g transform="rotate(0,0,0) translate(-47,-435) translate(47,394) rotate(0,0,0)"><text fill="" stroke="none" font-family="helvetica" font-size="8pt" font-style="normal" font-weight="normal" text-decoration="normal" x="0" y="0" text-anchor="end" dominant-baseline="central">3800</text><g transform="rotate(0,0,0) translate(-47,-394) translate(47,353) rotate(0,0,0)"><text fill="" stroke="none" font-family="helvetica" font-size="8pt" font-style="normal" font-weight="normal" text-decoration="normal" x="0" y="0" text-anchor="end" dominant-baseline="central">4000</text><g transform="rotate(0,0,0) translate(-47,-353) translate(47,311) rotate(0,0,0)"><text fill="" stroke="none" font-family="helvetica" font-size="8pt" font-style="normal" font-weight="normal" text-decoration="normal" x="0" y="0" text-anchor="end" dominant-baseline="central">4200</text><g transform="rotate(0,0,0) translate(-47,-311) translate(47,270) rotate(0,0,0)"><text fill="" stroke="none" font-family="helvetica" font-size="8pt" font-style="normal" font-weight="normal" text-decoration="normal" x="0" y="0" text-anchor="end" dominant-baseline="central">4400</text><g transform="rotate(0,0,0) translate(-47,-270) translate(47,228) rotate(0,0,0)"><text fill="" stroke="none" font-family="helvetica" font-size="8pt" font-style="normal" font-weight="normal" text-decoration="normal" x="0" y="0" text-anchor="end" dominant-baseline="central">4600</text><g transform="rotate(0,0,0) translate(-47,-228) translate(15,379) rotate(-90,0,0)"><text fill="" stroke="none" font-family="helvetica" font-size="10pt" font-style="italic" font-weight="normal" text-decoration="normal" x="0" y="0" text-anchor="middle" dominant-baseline="alphabetic">5'seq RPM</text><g transform="rotate(90,0,0) translate(-15,-379)"/></g></g></g></g></g></g></g></g></g></g></g><g clip-path="url(#BGXnTattNJEH)"><g/></g></g></g></svg>