<svg version="1.1" xmlns="http://www.w3.org/2000/svg" xmlns:xlink="http://www.w3.org/1999/xlink" width="600" height="600" style="width: 600px; height: 600px;"><defs><clipPath id="BNEwzKEizyiT"><path fill="none" stroke="none" d=" M 58 203 L 570 203 L 570 555 L 58 555 L 58 203 Z"/></clipPath><clipPath id="uqORqTFhIzMN"><path fill="none" stroke="none" d=" M 58 203 L 570 203 L 570 555 L 58 555 L 58 203 Z"/></clipPath><clipPath id="dzwvUysdJOPe"><path fill="none" stroke="none" d=" M 58 203 L 570 203 L 570 555 L 58 555 L 58 203 Z"/></clipPath><clipPath id="FNqvozgxhXiy"><path fill="none" stroke="none" d=" M 58 203 L 570 203 L 570 555 L 58 555 L 58 203 Z"/></clipPath><clipPath id="dXqnLWUdXoxD"><path fill="none" stroke="none" d=" M 58 203 L 570 203 L 570 555 L 58 555 L 58 203 Z"/></clipPath><clipPath id="SIQJoCtxrqmm"><path fill="none" stroke="none" d=" M 58 203 L 570 203 L 570 555 L 58 555 L 58 203 Z"/></clipPath><clipPath id="xzTPDgCZeXDK"><path fill="none" stroke="none" d=" M 58 203 L 570 203 L 570 555 L 58 555 L 58 203 Z"/></clipPath><clipPath id="RDsmeahhLEDJ"><path fill="none" stroke="none" d=" M 58 203 L 570 203 L 570 555 L 58 555 L 58 203 Z"/></clipPath><clipPath id="dlqHQwOrykau"><path fill="none" stroke="none" d=" M 58 203 L 570 203 L 570 555 L 58 555 L 58 203 Z"/></clipPath></defs><g><g/><g/><g/><g transform="scale(1,1) translate(0.5,0.5)"><rect fill="#FFFFFF" stroke="none" x="0" y="0" width="600" height="600"/><rect fill="#ffffff" stroke="none" x="0" y="0" width="600" height="600"/><rect fill="#FFFFFF" stroke="none" x="58" y="203" width="512" height="352"/><rect fill="#ffffff" stroke="none" x="58" y="203" width="512" height="352"/><g><rect fill="none" stroke="#e5e5e5" x="58" y="203" width="512" height="352" stroke-linejoin="bevel" stroke-miterlimit="10"/></g><g clip-path="url(#BNEwzKEizyiT)"><g><g><path fill="none" stroke="#e5e5e5" paint-order="fill stroke markers" d=" M 81 555 L 81 203" stroke-linejoin="bevel" stroke-miterlimit="10"/><path fill="none" stroke="#e5e5e5" paint-order="fill stroke markers" d=" M 154 555 L 154 203" stroke-linejoin="bevel" stroke-miterlimit="10"/><path fill="none" stroke="#e5e5e5" paint-order="fill stroke markers" d=" M 227 555 L 227 203" stroke-linejoin="bevel" stroke-miterlimit="10"/><path fill="none" stroke="#e5e5e5" paint-order="fill stroke markers" d=" M 299 555 L 299 203" stroke-linejoin="bevel" stroke-miterlimit="10"/><path fill="none" stroke="#e5e5e5" paint-order="fill stroke markers" d=" M 372 555 L 372 203" stroke-linejoin="bevel" stroke-miterlimit="10"/><path fill="none" stroke="#e5e5e5" paint-order="fill stroke markers" d=" M 445 555 L 445 203" stroke-linejoin="bevel" stroke-miterlimit="10"/><path fill="none" stroke="#e5e5e5" paint-order="fill stroke markers" d=" M 518 555 L 518 203" stroke-linejoin="bevel" stroke-miterlimit="10"/></g></g></g><g clip-path="url(#uqORqTFhIzMN)"><g><g><path fill="none" stroke="#e5e5e5" paint-order="fill stroke markers" d=" M 58 537 L 570 537" stroke-linejoin="bevel" stroke-miterlimit="10"/><path fill="none" stroke="#e5e5e5" paint-order="fill stroke markers" d=" M 58 470 L 570 470" stroke-linejoin="bevel" stroke-miterlimit="10"/><path fill="none" stroke="#e5e5e5" paint-order="fill stroke markers" d=" M 58 403 L 570 403" stroke-linejoin="bevel" stroke-miterlimit="10"/><path fill="none" stroke="#e5e5e5" paint-order="fill stroke markers" d=" M 58 335 L 570 335" stroke-linejoin="bevel" stroke-miterlimit="10"/><path fill="none" stroke="#e5e5e5" paint-order="fill stroke markers" d=" M 58 268 L 570 268" stroke-linejoin="bevel" stroke-miterlimit="10"/></g></g></g><g clip-path="url(#dzwvUysdJOPe)"><g><g><path fill="none" stroke="none"/><path fill="none" stroke="#1F78B4" paint-order="fill stroke markers" d=" M 81.27272727272725 355.86763216748204 L 95.81818181818181 383.04928808859415 L 110.36363636363637 424.9410166258375 L 124.90909090909093 346.59389073557327 L 139.45454545454544 399.3582816412613 L 154 517.9982151322329 L 168.54545454545456 360.98417916439723 L 183.09090909090907 392.6428137078102 L 197.63636363636363 482.5021703411336 L 212.1818181818182 349.79173260864513 L 226.72727272727275 364.5018052247765 L 241.27272727272725 454.3611618581 L 255.8181818181818 325.8079185606051 L 270.3636363636364 337.63993349097166 L 284.9090909090909 421.42339056545813 L 299.45454545454544 315.894608754082 L 314 371.537057345535 L 328.5454545454545 450.2039674231063 L 343.0909090909091 324.8485659986835 L 357.6363636363636 326.44748693521956 L 372.1818181818182 427.49929012429504 L 386.72727272727275 342.43669630057957 L 401.27272727272725 351.3906535451812 L 415.8181818181818 412.14964913354936 L 430.3636363636364 314.615472004853 L 444.9090909090909 289.03273702027695 L 459.45454545454544 392.96259789511726 L 474 219 L 488.54545454545456 380.4910145901365 L 503.09090909090907 414.7079226320071 L 517.6363636363636 374.09533084399243 L 532.1818181818181 424.6212324385302 L 546.7272727272727 528.2313091260634" stroke-linejoin="bevel" stroke-miterlimit="10" stroke-width="2"/></g></g></g><g clip-path="url(#FNqvozgxhXiy)"><g><g><path fill="none" stroke="none"/><path fill="none" stroke="#33A02C" paint-order="fill stroke markers" d=" M 81.27272727272725 475.00473299743226 L 95.81818181818181 447.80049627832943 L 110.36363636363637 476.55926080995243 L 124.90909090909093 464.51167026292103 L 139.45454545454544 490.5500111226338 L 154 534.4654218263283 L 168.54545454545456 496.7681223727144 L 183.09090909090907 476.1706288568223 L 197.63636363636363 504.9293933884453 L 212.1818181818182 439.2505933094684 L 226.72727272727275 466.45483002857134 L 241.27272727272725 473.8388371380421 L 255.8181818181818 390.67159916821333 L 270.3636363636364 424.482579090527 L 284.9090909090909 482.3887401069029 L 299.45454545454544 471.11841346613176 L 314 486.2750596382034 L 328.5454545454545 522.4178312792972 L 343.0909090909091 441.5823850282487 L 357.6363636363636 459.0708229191006 L 372.1818181818182 496.3794904195844 L 386.72727272727275 480.4455803412527 L 401.27272727272725 436.5301696375582 L 415.8181818181818 477.7251566693425 L 430.3636363636364 434.19837791877796 L 444.9090909090909 397.6669743245541 L 459.45454545454544 476.1706288568223 L 474 420.9848915123565 L 488.54545454545456 523.5837271386872 L 503.09090909090907 501.82033776340506 L 517.6363636363636 500.6544419040149 L 532.1818181818181 501.82033776340506 L 546.7272727272727 518.5315117479968" stroke-linejoin="bevel" stroke-miterlimit="10" stroke-width="2"/></g></g></g><g clip-path="url(#dXqnLWUdXoxD)"><g><g><path fill="none" stroke="none"/><path fill="none" stroke="#C51B7D" paint-order="fill stroke markers" d=" M 81.27272727272725 437.5947477015443 L 95.81818181818181 441.6564686754027 L 110.36363636363637 454.2478036943635 L 124.90909090909093 451.40459901266274 L 139.45454545454544 440.84412448063097 L 154 505.0193158675929 L 168.54545454545456 499.73907860157703 L 183.09090909090907 456.2786641812928 L 197.63636363636363 492.83415294601787 L 212.1818181818182 464.80827822639526 L 226.72727272727275 466.02679451855283 L 241.27272727272725 437.5947477015443 L 255.8181818181818 398.6022263525042 L 270.3636363636364 417.6923149296384 L 284.9090909090909 486.74157148523034 L 299.45454545454544 462.77741773946616 L 314 454.6539757917494 L 328.5454545454545 463.183589836852 L 343.0909090909091 458.3095246682219 L 357.6363636363636 424.1910684878118 L 372.1818181818182 505.42548796497874 L 386.72727272727275 479.02430163489953 L 401.27272727272725 413.6305939557801 L 415.8181818181818 418.50465912441007 L 430.3636363636364 414.44293815055175 L 444.9090909090909 368.9516632433383 L 459.45454545454544 433.9391988250718 L 474 389.66644021001594 L 488.54545454545456 455.06014788913524 L 503.09090909090907 487.553915680002 L 517.6363636363636 470.08851549241115 L 532.1818181818181 457.9033525708361 L 546.7272727272727 498.11439021203375" stroke-linejoin="bevel" stroke-miterlimit="10" stroke-width="2"/></g></g></g><g clip-path="url(#SIQJoCtxrqmm)"><g><g><path fill="none" stroke="none"/><path fill="none" stroke="#542788" paint-order="fill stroke markers" d=" M 81.27272727272725 408.42005416105724 L 95.81818181818181 432.9436049649562 L 110.36363636363637 510.33610944998816 L 124.90909090909093 447.2755502399622 L 139.45454545454544 461.60749551496804 L 154 510.01762177721014 L 168.54545454545456 412.2419062343922 L 183.09090909090907 439.31335842051453 L 197.63636363636363 513.2024985049893 L 212.1818181818182 441.86125980273766 L 226.72727272727275 459.6965694783006 L 241.27272727272725 473.71002708052856 L 255.8181818181818 409.05702950661316 L 270.3636363636364 401.7318130327212 L 284.9090909090909 524.668054724994 L 299.45454545454544 427.5293145277318 L 314 503.96635599442993 L 328.5454545454545 537.0890739633325 L 343.0909090909091 459.6965694783006 L 357.6363636363636 473.39153940775066 L 372.1818181818182 539 L 386.72727272727275 433.8990679832899 L 401.27272727272725 441.22428445718185 L 415.8181818181818 467.97724897052626 L 430.3636363636364 421.1595610721736 L 444.9090909090909 408.42005416105724 L 459.45454545454544 498.5520655572054 L 474 383.5780156843804 L 488.54545454545456 450.77891464051913 L 503.09090909090907 530.7193205077743 L 517.6363636363636 434.21755565606793 L 532.1818181818181 369.8830457549302 L 546.7272727272727 396.9544979410525" stroke-linejoin="bevel" stroke-miterlimit="10" stroke-width="2"/></g></g></g><g clip-path="url(#xzTPDgCZeXDK)"><g><g><path fill="none" stroke="none"/><path fill="none" stroke="#A6CEE3" paint-order="fill stroke markers" d=" M 81.27272727272725 415.0754406946387 L 95.81818181818181 377.159895417395 L 110.36363636363637 478.0538040365011 L 124.90909090909093 413.14753161274484 L 139.45454545454544 434.99716787420743 L 154 468.4142586270324 L 168.54545454545456 413.79016797337613 L 183.09090909090907 434.99716787420743 L 197.63636363636363 460.7026222994574 L 212.1818181818182 386.7994408268637 L 226.72727272727275 438.21034967736364 L 241.27272727272725 414.4328043340074 L 255.8181818181818 354.6676227953013 L 270.3636363636364 386.7994408268637 L 284.9090909090909 438.21034967736364 L 299.45454545454544 434.35453151357615 L 314 447.2072587262011 L 328.5454545454545 477.4111676758698 L 343.0909090909091 386.7994408268637 L 357.6363636363636 462.63053138135115 L 372.1818181818182 430.4987133497888 L 386.72727272727275 433.71189515294486 L 401.27272727272725 426.00025882537 L 415.8181818181818 401.5800771213825 L 430.3636363636364 411.2196225308512 L 444.9090909090909 359.1660773197201 L 459.45454545454544 465.84371318450735 L 474 363.66453184413876 L 488.54545454545456 474.8406222333449 L 503.09090909090907 482.5522585609199 L 517.6363636363636 451.70571325061985 L 532.1818181818181 481.2669858396574 L 546.7272727272727 510.1856220680636" stroke-linejoin="bevel" stroke-miterlimit="10" stroke-width="2"/></g></g></g><g clip-path="url(#RDsmeahhLEDJ)"><g><g><path fill="none" stroke="none"/><path fill="none" stroke="#B2DF8A" paint-order="fill stroke markers" d=" M 81.27272727272725 358.5925351820722 L 95.81818181818181 341.4670537411124 L 110.36363636363637 450.1766315837268 L 124.90909090909093 304.9823324103719 L 139.45454545454544 399.54477341045424 L 154 490.38428366250207 L 168.54545454545456 336.99953684347065 L 183.09090909090907 439.0078393396226 L 197.63636363636363 435.28490859158785 L 212.1818181818182 313.9173662056552 L 226.72727272727275 342.9562260403263 L 241.27272727272725 365.29381052853466 L 255.8181818181818 282.64474792216356 L 270.3636363636364 374.22884432381807 L 284.9090909090909 427.83904709551825 L 299.45454545454544 372.73967202460415 L 314 387.6313950167431 L 328.5454545454545 485.9167667648603 L 343.0909090909091 380.93011967028053 L 357.6363636363636 379.4409473710666 L 372.1818181818182 450.9212177333337 L 386.72727272727275 366.7829828277486 L 401.27272727272725 367.5275689773555 L 415.8181818181818 478.47090526879083 L 430.3636363636364 298.2810570639093 L 444.9090909090909 313.9173662056552 L 459.45454545454544 399.54477341045424 L 474 286.3676786701982 L 488.54545454545456 412.9473241033793 L 503.09090909090907 444.96452853647827 L 517.6363636363636 362.3154659301068 L 532.1818181818181 458.3670792294032 L 546.7272727272727 432.30656399316" stroke-linejoin="bevel" stroke-miterlimit="10" stroke-width="2"/></g></g></g><g><g/><g><path fill="#ffffff" stroke="#e5e5e5" paint-order="fill stroke markers" d=" M 68 38 L 472.421875 38 L 472.421875 193 L 68 193 L 68 38 Z" fill-opacity="0.95" stroke-linejoin="bevel" stroke-miterlimit="10" stroke-opacity="0.5"/><text fill="#444444" stroke="none" font-family="helvetica" font-size="10pt" font-style="normal" font-weight="normal" text-decoration="normal" x="103" y="58" text-anchor="start" dominant-baseline="central">sc5314_fluc_rep01_ACGCTG.fastqAligned.primary.out_dedup</text><g><path fill="none" stroke="#1F78B4" paint-order="fill stroke markers" d=" M 78 58 L 98 58" stroke-linejoin="bevel" stroke-miterlimit="10" stroke-width="2"/></g><text fill="#444444" stroke="none" font-family="helvetica" font-size="10pt" font-style="normal" font-weight="normal" text-decoration="normal" x="103" y="81" text-anchor="start" dominant-baseline="central">sc5314_fluc_rep02_GTGATC.fastqAligned.primary.out_dedup</text><g><path fill="none" stroke="#33A02C" paint-order="fill stroke markers" d=" M 78 81 L 98 81" stroke-linejoin="bevel" stroke-miterlimit="10" stroke-width="2"/></g><text fill="#444444" stroke="none" font-family="helvetica" font-size="10pt" font-style="normal" font-weight="normal" text-decoration="normal" x="103" y="104" text-anchor="start" dominant-baseline="central">sc5314_fluc_rep03_ACTGGT.fastqAligned.primary.out_dedup</text><g><path fill="none" stroke="#C51B7D" paint-order="fill stroke markers" d=" M 78 104 L 98 104" stroke-linejoin="bevel" stroke-miterlimit="10" stroke-width="2"/></g><text fill="#444444" stroke="none" font-family="helvetica" font-size="10pt" font-style="normal" font-weight="normal" text-decoration="normal" x="103" y="127" text-anchor="start" dominant-baseline="central">sc5314_ut_rep01_CGTGCA.fastqAligned.primary.out_dedup</text><g><path fill="none" stroke="#542788" paint-order="fill stroke markers" d=" M 78 127 L 98 127" stroke-linejoin="bevel" stroke-miterlimit="10" stroke-width="2"/></g><text fill="#444444" stroke="none" font-family="helvetica" font-size="10pt" font-style="normal" font-weight="normal" text-decoration="normal" x="103" y="150" text-anchor="start" dominant-baseline="central">sc5314_ut_rep02_TAATGT.fastqAligned.primary.out_dedup</text><g><path fill="none" stroke="#A6CEE3" paint-order="fill stroke markers" d=" M 78 150 L 98 150" stroke-linejoin="bevel" stroke-miterlimit="10" stroke-width="2"/></g><text fill="#444444" stroke="none" font-family="helvetica" font-size="10pt" font-style="normal" font-weight="normal" text-decoration="normal" x="103" y="173" text-anchor="start" dominant-baseline="central">sc5314_ut_rep03_CTACAC.fastqAligned.primary.out_dedup</text><g><path fill="none" stroke="#B2DF8A" paint-order="fill stroke markers" d=" M 78 173 L 98 173" stroke-linejoin="bevel" stroke-miterlimit="10" stroke-width="2"/></g></g></g><g><g fill="#444444"><path fill="" stroke="none" d=""/><g transform="translate(58,23)"><path fill="none" stroke="none"/><text fill="" stroke="none" font-family="helvetica" font-size="10pt" font-style="normal" font-weight="bold" text-decoration="normal" x="0" y="0" text-anchor="start" dominant-baseline="text-after-edge">CAG(GLN)-codon_scaled</text></g></g></g><g/><g><g fill="#444444"><path fill="none" stroke="black" paint-order="fill stroke markers" d=" M 58 555 L 570 555" stroke-linejoin="bevel" stroke-miterlimit="10"/><path fill="none" stroke="black" paint-order="fill stroke markers" d=" M 81 561 L 81 553" stroke-linejoin="bevel" stroke-miterlimit="10"/><path fill="none" stroke="black" paint-order="fill stroke markers" d=" M 154 561 L 154 553" stroke-linejoin="bevel" stroke-miterlimit="10"/><path fill="none" stroke="black" paint-order="fill stroke markers" d=" M 227 561 L 227 553" stroke-linejoin="bevel" stroke-miterlimit="10"/><path fill="none" stroke="black" paint-order="fill stroke markers" d=" M 299 561 L 299 553" stroke-linejoin="bevel" stroke-miterlimit="10"/><path fill="none" stroke="black" paint-order="fill stroke markers" d=" M 372 561 L 372 553" stroke-linejoin="bevel" stroke-miterlimit="10"/><path fill="none" stroke="black" paint-order="fill stroke markers" d=" M 445 561 L 445 553" stroke-linejoin="bevel" stroke-miterlimit="10"/><path fill="none" stroke="black" paint-order="fill stroke markers" d=" M 518 561 L 518 553" stroke-linejoin="bevel" stroke-miterlimit="10"/><path fill="none" stroke="black" paint-order="fill stroke markers" d=" M 67 559 L 67 555" stroke-linejoin="bevel" stroke-miterlimit="10"/><path fill="none" stroke="black" paint-order="fill stroke markers" d=" M 81 559 L 81 555" stroke-linejoin="bevel" stroke-miterlimit="10"/><path fill="none" stroke="black" paint-order="fill stroke markers" d=" M 96 559 L 96 555" stroke-linejoin="bevel" stroke-miterlimit="10"/><path fill="none" stroke="black" paint-order="fill stroke markers" d=" M 110 559 L 110 555" stroke-linejoin="bevel" stroke-miterlimit="10"/><path fill="none" stroke="black" paint-order="fill stroke markers" d=" M 125 559 L 125 555" stroke-linejoin="bevel" stroke-miterlimit="10"/><path fill="none" stroke="black" paint-order="fill stroke markers" d=" M 139 559 L 139 555" stroke-linejoin="bevel" stroke-miterlimit="10"/><path fill="none" stroke="black" paint-order="fill stroke markers" d=" M 154 559 L 154 555" stroke-linejoin="bevel" stroke-miterlimit="10"/><path fill="none" stroke="black" paint-order="fill stroke markers" d=" M 169 559 L 169 555" stroke-linejoin="bevel" stroke-miterlimit="10"/><path fill="none" stroke="black" paint-order="fill stroke markers" d=" M 183 559 L 183 555" stroke-linejoin="bevel" stroke-miterlimit="10"/><path fill="none" stroke="black" paint-order="fill stroke markers" d=" M 198 559 L 198 555" stroke-linejoin="bevel" stroke-miterlimit="10"/><path fill="none" stroke="black" paint-order="fill stroke markers" d=" M 212 559 L 212 555" stroke-linejoin="bevel" stroke-miterlimit="10"/><path fill="none" stroke="black" paint-order="fill stroke markers" d=" M 227 559 L 227 555" stroke-linejoin="bevel" stroke-miterlimit="10"/><path fill="none" stroke="black" paint-order="fill stroke markers" d=" M 241 559 L 241 555" stroke-linejoin="bevel" stroke-miterlimit="10"/><path fill="none" stroke="black" paint-order="fill stroke markers" d=" M 256 559 L 256 555" stroke-linejoin="bevel" stroke-miterlimit="10"/><path fill="none" stroke="black" paint-order="fill stroke markers" d=" M 270 559 L 270 555" stroke-linejoin="bevel" stroke-miterlimit="10"/><path fill="none" stroke="black" paint-order="fill stroke markers" d=" M 285 559 L 285 555" stroke-linejoin="bevel" stroke-miterlimit="10"/><path fill="none" stroke="black" paint-order="fill stroke markers" d=" M 299 559 L 299 555" stroke-linejoin="bevel" stroke-miterlimit="10"/><path fill="none" stroke="black" paint-order="fill stroke markers" d=" M 314 559 L 314 555" stroke-linejoin="bevel" stroke-miterlimit="10"/><path fill="none" stroke="black" paint-order="fill stroke markers" d=" M 329 559 L 329 555" stroke-linejoin="bevel" stroke-miterlimit="10"/><path fill="none" stroke="black" paint-order="fill stroke markers" d=" M 343 559 L 343 555" stroke-linejoin="bevel" stroke-miterlimit="10"/><path fill="none" stroke="black" paint-order="fill stroke markers" d=" M 358 559 L 358 555" stroke-linejoin="bevel" stroke-miterlimit="10"/><path fill="none" stroke="black" paint-order="fill stroke markers" d=" M 372 559 L 372 555" stroke-linejoin="bevel" stroke-miterlimit="10"/><path fill="none" stroke="black" paint-order="fill stroke markers" d=" M 387 559 L 387 555" stroke-linejoin="bevel" stroke-miterlimit="10"/><path fill="none" stroke="black" paint-order="fill stroke markers" d=" M 401 559 L 401 555" stroke-linejoin="bevel" stroke-miterlimit="10"/><path fill="none" stroke="black" paint-order="fill stroke markers" d=" M 416 559 L 416 555" stroke-linejoin="bevel" stroke-miterlimit="10"/><path fill="none" stroke="black" paint-order="fill stroke markers" d=" M 430 559 L 430 555" stroke-linejoin="bevel" stroke-miterlimit="10"/><path fill="none" stroke="black" paint-order="fill stroke markers" d=" M 445 559 L 445 555" stroke-linejoin="bevel" stroke-miterlimit="10"/><path fill="none" stroke="black" paint-order="fill stroke markers" d=" M 459 559 L 459 555" stroke-linejoin="bevel" stroke-miterlimit="10"/><path fill="none" stroke="black" paint-order="fill stroke markers" d=" M 474 559 L 474 555" stroke-linejoin="bevel" stroke-miterlimit="10"/><path fill="none" stroke="black" paint-order="fill stroke markers" d=" M 489 559 L 489 555" stroke-linejoin="bevel" stroke-miterlimit="10"/><path fill="none" stroke="black" paint-order="fill stroke markers" d=" M 503 559 L 503 555" stroke-linejoin="bevel" stroke-miterlimit="10"/><path fill="none" stroke="black" paint-order="fill stroke markers" d=" M 518 559 L 518 555" stroke-linejoin="bevel" stroke-miterlimit="10"/><path fill="none" stroke="black" paint-order="fill stroke markers" d=" M 532 559 L 532 555" stroke-linejoin="bevel" stroke-miterlimit="10"/><path fill="none" stroke="black" paint-order="fill stroke markers" d=" M 547 559 L 547 555" stroke-linejoin="bevel" stroke-miterlimit="10"/><path fill="" stroke="black" paint-order="fill stroke markers" d=" M 561 559 L 561 555" stroke-linejoin="bevel" stroke-miterlimit="10"/><g transform="translate(81,566) rotate(0,0,0)"><text fill="" stroke="none" font-family="helvetica" font-size="8pt" font-style="normal" font-weight="normal" text-decoration="normal" x="0" y="0" text-anchor="middle" dominant-baseline="hanging">-30</text><g transform="rotate(0,0,0) translate(-81,-566) translate(154,566) rotate(0,0,0)"><text fill="" stroke="none" font-family="helvetica" font-size="8pt" font-style="normal" font-weight="normal" text-decoration="normal" x="0" y="0" text-anchor="middle" dominant-baseline="hanging">-25</text><g transform="rotate(0,0,0) translate(-154,-566) translate(227,566) rotate(0,0,0)"><text fill="" stroke="none" font-family="helvetica" font-size="8pt" font-style="normal" font-weight="normal" text-decoration="normal" x="0" y="0" text-anchor="middle" dominant-baseline="hanging">-20</text><g transform="rotate(0,0,0) translate(-227,-566) translate(299,566) rotate(0,0,0)"><text fill="" stroke="none" font-family="helvetica" font-size="8pt" font-style="normal" font-weight="normal" text-decoration="normal" x="0" y="0" text-anchor="middle" dominant-baseline="hanging">-15</text><g transform="rotate(0,0,0) translate(-299,-566) translate(372,566) rotate(0,0,0)"><text fill="" stroke="none" font-family="helvetica" font-size="8pt" font-style="normal" font-weight="normal" text-decoration="normal" x="0" y="0" text-anchor="middle" dominant-baseline="hanging">-10</text><g transform="rotate(0,0,0) translate(-372,-566) translate(445,566) rotate(0,0,0)"><text fill="" stroke="none" font-family="helvetica" font-size="8pt" font-style="normal" font-weight="normal" text-decoration="normal" x="0" y="0" text-anchor="middle" dominant-baseline="hanging">-5</text><g transform="rotate(0,0,0) translate(-445,-566) translate(518,566) rotate(0,0,0)"><text fill="" stroke="none" font-family="helvetica" font-size="8pt" font-style="normal" font-weight="normal" text-decoration="normal" x="0" y="0" text-anchor="middle" dominant-baseline="hanging">0</text><g transform="rotate(0,0,0) translate(-518,-566) translate(314,584) rotate(0,0,0)"><text fill="" stroke="none" font-family="helvetica" font-size="10pt" font-style="italic" font-weight="normal" text-decoration="normal" x="0" y="0" text-anchor="middle" dominant-baseline="hanging">position from codon</text><g transform="rotate(0,0,0) translate(-314,-584)"/></g></g></g></g></g></g></g></g></g></g><g><g fill="#444444"><path fill="none" stroke="black" paint-order="fill stroke markers" d=" M 58 555 L 58 203" stroke-linejoin="bevel" stroke-miterlimit="10"/><path fill="none" stroke="black" paint-order="fill stroke markers" d=" M 52 537 L 60 537" stroke-linejoin="bevel" stroke-miterlimit="10"/><path fill="none" stroke="black" paint-order="fill stroke markers" d=" M 52 470 L 60 470" stroke-linejoin="bevel" stroke-miterlimit="10"/><path fill="none" stroke="black" paint-order="fill stroke markers" d=" M 52 403 L 60 403" stroke-linejoin="bevel" stroke-miterlimit="10"/><path fill="none" stroke="black" paint-order="fill stroke markers" d=" M 52 335 L 60 335" stroke-linejoin="bevel" stroke-miterlimit="10"/><path fill="none" stroke="black" paint-order="fill stroke markers" d=" M 52 268 L 60 268" stroke-linejoin="bevel" stroke-miterlimit="10"/><path fill="none" stroke="black" paint-order="fill stroke markers" d=" M 54 550 L 58 550" stroke-linejoin="bevel" stroke-miterlimit="10"/><path fill="none" stroke="black" paint-order="fill stroke markers" d=" M 54 537 L 58 537" stroke-linejoin="bevel" stroke-miterlimit="10"/><path fill="none" stroke="black" paint-order="fill stroke markers" d=" M 54 524 L 58 524" stroke-linejoin="bevel" stroke-miterlimit="10"/><path fill="none" stroke="black" paint-order="fill stroke markers" d=" M 54 510 L 58 510" stroke-linejoin="bevel" stroke-miterlimit="10"/><path fill="none" stroke="black" paint-order="fill stroke markers" d=" M 54 497 L 58 497" stroke-linejoin="bevel" stroke-miterlimit="10"/><path fill="none" stroke="black" paint-order="fill stroke markers" d=" M 54 483 L 58 483" stroke-linejoin="bevel" stroke-miterlimit="10"/><path fill="none" stroke="black" paint-order="fill stroke markers" d=" M 54 470 L 58 470" stroke-linejoin="bevel" stroke-miterlimit="10"/><path fill="none" stroke="black" paint-order="fill stroke markers" d=" M 54 456 L 58 456" stroke-linejoin="bevel" stroke-miterlimit="10"/><path fill="none" stroke="black" paint-order="fill stroke markers" d=" M 54 443 L 58 443" stroke-linejoin="bevel" stroke-miterlimit="10"/><path fill="none" stroke="black" paint-order="fill stroke markers" d=" M 54 429 L 58 429" stroke-linejoin="bevel" stroke-miterlimit="10"/><path fill="none" stroke="black" paint-order="fill stroke markers" d=" M 54 416 L 58 416" stroke-linejoin="bevel" stroke-miterlimit="10"/><path fill="none" stroke="black" paint-order="fill stroke markers" d=" M 54 403 L 58 403" stroke-linejoin="bevel" stroke-miterlimit="10"/><path fill="none" stroke="black" paint-order="fill stroke markers" d=" M 54 389 L 58 389" stroke-linejoin="bevel" stroke-miterlimit="10"/><path fill="none" stroke="black" paint-order="fill stroke markers" d=" M 54 376 L 58 376" stroke-linejoin="bevel" stroke-miterlimit="10"/><path fill="none" stroke="black" paint-order="fill stroke markers" d=" M 54 362 L 58 362" stroke-linejoin="bevel" stroke-miterlimit="10"/><path fill="none" stroke="black" paint-order="fill stroke markers" d=" M 54 349 L 58 349" stroke-linejoin="bevel" stroke-miterlimit="10"/><path fill="none" stroke="black" paint-order="fill stroke markers" d=" M 54 335 L 58 335" stroke-linejoin="bevel" stroke-miterlimit="10"/><path fill="none" stroke="black" paint-order="fill stroke markers" d=" M 54 322 L 58 322" stroke-linejoin="bevel" stroke-miterlimit="10"/><path fill="none" stroke="black" paint-order="fill stroke markers" d=" M 54 308 L 58 308" stroke-linejoin="bevel" stroke-miterlimit="10"/><path fill="none" stroke="black" paint-order="fill stroke markers" d=" M 54 295 L 58 295" stroke-linejoin="bevel" stroke-miterlimit="10"/><path fill="none" stroke="black" paint-order="fill stroke markers" d=" M 54 282 L 58 282" stroke-linejoin="bevel" stroke-miterlimit="10"/><path fill="none" stroke="black" paint-order="fill stroke markers" d=" M 54 268 L 58 268" stroke-linejoin="bevel" stroke-miterlimit="10"/><path fill="none" stroke="black" paint-order="fill stroke markers" d=" M 54 255 L 58 255" stroke-linejoin="bevel" stroke-miterlimit="10"/><path fill="none" stroke="black" paint-order="fill stroke markers" d=" M 54 241 L 58 241" stroke-linejoin="bevel" stroke-miterlimit="10"/><path fill="none" stroke="black" paint-order="fill stroke markers" d=" M 54 228 L 58 228" stroke-linejoin="bevel" stroke-miterlimit="10"/><path fill="" stroke="black" paint-order="fill stroke markers" d=" M 54 214 L 58 214" stroke-linejoin="bevel" stroke-miterlimit="10"/><g transform="translate(47,537) rotate(0,0,0)"><text fill="" stroke="none" font-family="helvetica" font-size="8pt" font-style="normal" font-weight="normal" text-decoration="normal" x="0" y="0" text-anchor="end" dominant-baseline="central">1800</text><g transform="rotate(0,0,0) translate(-47,-537) translate(47,470) rotate(0,0,0)"><text fill="" stroke="none" font-family="helvetica" font-size="8pt" font-style="normal" font-weight="normal" text-decoration="normal" x="0" y="0" text-anchor="end" dominant-baseline="central">2000</text><g transform="rotate(0,0,0) translate(-47,-470) translate(47,403) rotate(0,0,0)"><text fill="" stroke="none" font-family="helvetica" font-size="8pt" font-style="normal" font-weight="normal" text-decoration="normal" x="0" y="0" text-anchor="end" dominant-baseline="central">2200</text><g transform="rotate(0,0,0) translate(-47,-403) translate(47,335) rotate(0,0,0)"><text fill="" stroke="none" font-family="helvetica" font-size="8pt" font-style="normal" font-weight="normal" text-decoration="normal" x="0" y="0" text-anchor="end" dominant-baseline="central">2400</text><g transform="rotate(0,0,0) translate(-47,-335) translate(47,268) rotate(0,0,0)"><text fill="" stroke="none" font-family="helvetica" font-size="8pt" font-style="normal" font-weight="normal" text-decoration="normal" x="0" y="0" text-anchor="end" dominant-baseline="central">2600</text><g transform="rotate(0,0,0) translate(-47,-268) translate(15,379) rotate(-90,0,0)"><text fill="" stroke="none" font-family="helvetica" font-size="10pt" font-style="italic" font-weight="normal" text-decoration="normal" x="0" y="0" text-anchor="middle" dominant-baseline="alphabetic">5'seq RPM</text><g transform="rotate(90,0,0) translate(-15,-379)"/></g></g></g></g></g></g></g></g><g clip-path="url(#dlqHQwOrykau)"><g/></g></g></g></svg>