<svg version="1.1" xmlns="http://www.w3.org/2000/svg" xmlns:xlink="http://www.w3.org/1999/xlink" width="600" height="600" style="width: 600px; height: 600px;"><defs><clipPath id="AscIPWBUwvCA"><path fill="none" stroke="none" d=" M 52 203 L 570 203 L 570 555 L 52 555 L 52 203 Z"/></clipPath><clipPath id="ArRrgLgVzgTC"><path fill="none" stroke="none" d=" M 52 203 L 570 203 L 570 555 L 52 555 L 52 203 Z"/></clipPath><clipPath id="nnEgTdlqXapb"><path fill="none" stroke="none" d=" M 52 203 L 570 203 L 570 555 L 52 555 L 52 203 Z"/></clipPath><clipPath id="HvxOfgDXyyGF"><path fill="none" stroke="none" d=" M 52 203 L 570 203 L 570 555 L 52 555 L 52 203 Z"/></clipPath><clipPath id="FsxHGzOBVzwz"><path fill="none" stroke="none" d=" M 52 203 L 570 203 L 570 555 L 52 555 L 52 203 Z"/></clipPath><clipPath id="cSosyHkNgZNf"><path fill="none" stroke="none" d=" M 52 203 L 570 203 L 570 555 L 52 555 L 52 203 Z"/></clipPath><clipPath id="NHuKDBTbCqUh"><path fill="none" stroke="none" d=" M 52 203 L 570 203 L 570 555 L 52 555 L 52 203 Z"/></clipPath><clipPath id="rQtdrKCXFJbs"><path fill="none" stroke="none" d=" M 52 203 L 570 203 L 570 555 L 52 555 L 52 203 Z"/></clipPath><clipPath id="agsMlCVSoJHr"><path fill="none" stroke="none" d=" M 52 203 L 570 203 L 570 555 L 52 555 L 52 203 Z"/></clipPath></defs><g><g/><g/><g/><g transform="scale(1,1) translate(0.5,0.5)"><rect fill="#FFFFFF" stroke="none" x="0" y="0" width="600" height="600"/><rect fill="#ffffff" stroke="none" x="0" y="0" width="600" height="600"/><rect fill="#FFFFFF" stroke="none" x="52" y="203" width="518" height="352"/><rect fill="#ffffff" stroke="none" x="52" y="203" width="518" height="352"/><g><rect fill="none" stroke="#e5e5e5" x="52" y="203" width="518" height="352" stroke-linejoin="bevel" stroke-miterlimit="10"/></g><g clip-path="url(#AscIPWBUwvCA)"><g><g><path fill="none" stroke="#e5e5e5" paint-order="fill stroke markers" d=" M 76 555 L 76 203" stroke-linejoin="bevel" stroke-miterlimit="10"/><path fill="none" stroke="#e5e5e5" paint-order="fill stroke markers" d=" M 149 555 L 149 203" stroke-linejoin="bevel" stroke-miterlimit="10"/><path fill="none" stroke="#e5e5e5" paint-order="fill stroke markers" d=" M 223 555 L 223 203" stroke-linejoin="bevel" stroke-miterlimit="10"/><path fill="none" stroke="#e5e5e5" paint-order="fill stroke markers" d=" M 296 555 L 296 203" stroke-linejoin="bevel" stroke-miterlimit="10"/><path fill="none" stroke="#e5e5e5" paint-order="fill stroke markers" d=" M 370 555 L 370 203" stroke-linejoin="bevel" stroke-miterlimit="10"/><path fill="none" stroke="#e5e5e5" paint-order="fill stroke markers" d=" M 443 555 L 443 203" stroke-linejoin="bevel" stroke-miterlimit="10"/><path fill="none" stroke="#e5e5e5" paint-order="fill stroke markers" d=" M 517 555 L 517 203" stroke-linejoin="bevel" stroke-miterlimit="10"/></g></g></g><g clip-path="url(#ArRrgLgVzgTC)"><g><g><path fill="none" stroke="#e5e5e5" paint-order="fill stroke markers" d=" M 52 513 L 570 513" stroke-linejoin="bevel" stroke-miterlimit="10"/><path fill="none" stroke="#e5e5e5" paint-order="fill stroke markers" d=" M 52 461 L 570 461" stroke-linejoin="bevel" stroke-miterlimit="10"/><path fill="none" stroke="#e5e5e5" paint-order="fill stroke markers" d=" M 52 409 L 570 409" stroke-linejoin="bevel" stroke-miterlimit="10"/><path fill="none" stroke="#e5e5e5" paint-order="fill stroke markers" d=" M 52 357 L 570 357" stroke-linejoin="bevel" stroke-miterlimit="10"/><path fill="none" stroke="#e5e5e5" paint-order="fill stroke markers" d=" M 52 305 L 570 305" stroke-linejoin="bevel" stroke-miterlimit="10"/><path fill="none" stroke="#e5e5e5" paint-order="fill stroke markers" d=" M 52 253 L 570 253" stroke-linejoin="bevel" stroke-miterlimit="10"/></g></g></g><g clip-path="url(#nnEgTdlqXapb)"><g><g><path fill="none" stroke="none"/><path fill="none" stroke="#1F78B4" paint-order="fill stroke markers" d=" M 75.54545454545456 346.9752739871087 L 90.26136363636363 431.10981888966415 L 104.97727272727275 404.3847281559112 L 119.69318181818181 360.8327284416472 L 134.40909090909093 355.88363756502633 L 149.125 438.0385461169334 L 163.84090909090912 367.76145566891654 L 178.5568181818182 417.2523644351256 L 193.27272727272725 402.4050918052629 L 207.98863636363637 326.18909230530085 L 222.70454545454544 373.7003647208616 L 237.42045454545456 428.14036436369156 L 252.13636363636363 350.93454668840536 L 266.85227272727275 396.46618275331775 L 281.5681818181818 374.6901828961858 L 296.2840909090909 344.9956376364603 L 311 386.5680010000759 L 325.7159090909091 468.7229095519831 L 340.4318181818182 362.8123647922956 L 355.14772727272725 333.11781953257014 L 369.8636363636364 413.2930917338289 L 384.57954545454544 311.34181967543816 L 399.2954545454545 395.4763645779936 L 414.0113636363636 383.59854647410344 L 428.72727272727275 390.5272737013727 L 443.4431818181818 351.9243648637296 L 458.1590909090909 381.61891012345507 L 472.875 255.91200185728405 L 487.59090909090907 402.4050918052629 L 502.3068181818182 270.7592744871466 L 517.0227272727273 326.18909230530085 L 531.7386363636364 337.0770922338669 L 546.4545454545454 539" stroke-linejoin="bevel" stroke-miterlimit="10" stroke-width="2"/></g></g></g><g clip-path="url(#HvxOfgDXyyGF)"><g><g><path fill="none" stroke="none"/><path fill="none" stroke="#33A02C" paint-order="fill stroke markers" d=" M 75.54545454545456 425.2196888751894 L 90.26136363636363 414.3934039183513 L 104.97727272727275 425.2196888751894 L 119.69318181818181 421.61092722291 L 134.40909090909093 403.5671189615132 L 149.125 408.3788011645523 L 163.84090909090912 385.5233107001163 L 178.5568181818182 410.7846422660719 L 193.27272727272725 377.1028668447978 L 207.98863636363637 359.059058583401 L 222.70454545454544 398.755436758474 L 237.42045454545456 427.625529976709 L 252.13636363636363 344.6240119742836 L 266.85227272727275 371.0882640909989 L 281.5681818181818 371.0882640909989 L 296.2840909090909 375.899946294038 L 311 402.3641984107534 L 325.7159090909091 470.9306698040614 L 340.4318181818182 377.1028668447978 L 355.14772727272725 312.1451571037692 L 369.8636363636364 384.32039014935657 L 384.57954545454544 327.7831242636464 L 399.2954545454545 342.21817087276395 L 414.0113636363636 357.8561380326412 L 428.72727272727275 359.059058583401 L 443.4431818181818 324.1743626113671 L 458.1590909090909 387.9291518016359 L 472.875 273.65169947945594 L 487.59090909090907 359.059058583401 L 502.3068181818182 295.30426939313213 L 517.0227272727273 384.32039014935657 L 531.7386363636364 368.6824229894793 L 546.4545454545454 484.16279586241905" stroke-linejoin="bevel" stroke-miterlimit="10" stroke-width="2"/></g></g></g><g clip-path="url(#FsxHGzOBVzwz)"><g><g><path fill="none" stroke="none"/><path fill="none" stroke="#C51B7D" paint-order="fill stroke markers" d=" M 75.54545454545456 387.2051279004933 L 90.26136363636363 413.6065803345136 L 104.97727272727275 408.57773225184303 L 119.69318181818181 378.4046437558199 L 134.40909090909093 388.46233992116095 L 149.125 382.1762798178228 L 163.84090909090912 399.7772481071696 L 178.5568181818182 387.2051279004933 L 193.27272727272725 404.80609618984016 L 207.98863636363637 384.690703859158 L 222.70454545454544 335.65943505312043 L 237.42045454545456 422.407064479187 L 252.13636363636363 384.690703859158 L 266.85227272727275 370.8613716318141 L 281.5681818181818 350.745979301132 L 296.2840909090909 392.2339759831638 L 311 403.54888416917254 L 325.7159090909091 412.34936831384596 L 340.4318181818182 358.28925142513776 L 355.14772727272725 328.1161629291146 L 369.8636363636364 321.8301028257764 L 384.57954545454544 368.3469475904788 L 399.2954545454545 394.7484000244991 L 414.0113636363636 383.4334918384904 L 428.72727272727275 441.2652447892016 L 443.4431818181818 302.971922515762 L 458.1590909090909 340.6882831357909 L 472.875 304.22913453642957 L 487.59090909090907 315.54404272243823 L 502.3068181818182 242.62574552371552 L 517.0227272727273 433.7219726651957 L 531.7386363636364 368.3469475904788 L 546.4545454545454 484.01045349190105" stroke-linejoin="bevel" stroke-miterlimit="10" stroke-width="2"/></g></g></g><g clip-path="url(#cSosyHkNgZNf)"><g><g><path fill="none" stroke="none"/><path fill="none" stroke="#542788" paint-order="fill stroke markers" d=" M 75.54545454545456 362.92754660222613 L 90.26136363636363 426.0190738799143 L 104.97727272727275 434.8913199033392 L 119.69318181818181 377.71462330793435 L 134.40909090909093 390.5300897862147 L 149.125 461.50805797361386 L 163.84090909090912 363.91335171594005 L 178.5568181818182 435.87712501705306 L 193.27272727272725 387.5726744450731 L 207.98863636363637 355.0411056925151 L 222.70454545454544 362.92754660222613 L 237.42045454545456 462.4938630873278 L 252.13636363636363 394.4733102410702 L 266.85227272727275 364.89915682965386 L 281.5681818181818 395.4591153547841 L 296.2840909090909 402.3597511507813 L 311 398.41653069592576 L 325.7159090909091 455.5932272913306 L 340.4318181818182 338.2824187593792 L 355.14772727272725 281.1057221639743 L 369.8636363636364 386.5868693313592 L 384.57954545454544 333.3533931908098 L 399.2954545454545 374.7572079667927 L 414.0113636363636 405.3171664919229 L 428.72727272727275 402.3597511507813 L 443.4431818181818 285.04894261882987 L 458.1590909090909 354.0553005788013 L 472.875 219 L 487.59090909090907 341.23983410052085 L 502.3068181818182 335.32500341823754 L 517.0227272727273 354.0553005788013 L 531.7386363636364 259.418009662269 L 546.4545454545454 496.01123695359956" stroke-linejoin="bevel" stroke-miterlimit="10" stroke-width="2"/></g></g></g><g clip-path="url(#NHuKDBTbCqUh)"><g><g><path fill="none" stroke="none"/><path fill="none" stroke="#A6CEE3" paint-order="fill stroke markers" d=" M 75.54545454545456 302.65849642280114 L 90.26136363636363 350.39767866817715 L 104.97727272727275 366.31073941663584 L 119.69318181818181 298.6802312356865 L 134.40909090909093 412.0607890684544 L 149.125 416.0390542555691 L 163.84090909090912 358.3542090424065 L 178.5568181818182 368.29987201019316 L 193.27272727272725 360.34334163596384 L 207.98863636363637 342.4411482939479 L 222.70454545454544 340.45201570039046 L 237.42045454545456 435.93038019114243 L 252.13636363636363 278.78890530011324 L 266.85227272727275 412.0607890684544 L 281.5681818181818 314.59329198414514 L 296.2840909090909 328.51722013904646 L 311 425.98471722335574 L 325.7159090909091 398.1368609135531 L 340.4318181818182 346.4194134810624 L 355.14772727272725 346.4194134810624 L 369.8636363636364 380.2346675715371 L 384.57954545454544 314.59329198414514 L 399.2954545454545 316.58242457770257 L 414.0113636363636 294.70196604857176 L 428.72727272727275 376.2564023844224 L 443.4431818181818 260.8867119580973 L 458.1590909090909 394.1585957264385 L 472.875 338.46288310683315 L 487.59090909090907 338.46288310683315 L 502.3068181818182 336.47375051327583 L 517.0227272727273 402.1151261006678 L 531.7386363636364 282.7671704872279 L 546.4545454545454 445.87604315892906" stroke-linejoin="bevel" stroke-miterlimit="10" stroke-width="2"/></g></g></g><g clip-path="url(#rQtdrKCXFJbs)"><g><g><path fill="none" stroke="none"/><path fill="none" stroke="#B2DF8A" paint-order="fill stroke markers" d=" M 75.54545454545456 361.2662155277843 L 90.26136363636363 382.00846733089935 L 104.97727272727275 402.7507191340144 L 119.69318181818181 345.13335301425036 L 134.40909090909093 352.047436948622 L 149.125 425.79766558192 L 163.84090909090912 391.2272459100616 L 178.5568181818182 347.4380476590409 L 193.27272727272725 391.2272459100616 L 207.98863636363637 252.94556722262791 L 222.70454545454544 354.35213159341265 L 237.42045454545456 444.2352227402445 L 252.13636363636363 347.4380476590409 L 266.85227272727275 393.53194055485216 L 281.5681818181818 347.4380476590409 L 296.2840909090909 379.7037726861088 L 311 418.88358164754834 L 325.7159090909091 453.45400131940676 L 340.4318181818182 354.35213159341265 L 355.14772727272725 317.4770172767636 L 369.8636363636364 388.92255126527107 L 384.57954545454544 361.2662155277843 L 399.2954545454545 305.9535440528108 L 414.0113636363636 338.2192690798787 L 428.72727272727275 356.65682623820317 L 443.4431818181818 236.81270470909385 L 458.1590909090909 308.2582386976013 L 472.875 243.72678864346562 L 487.59090909090907 241.4220939986751 L 502.3068181818182 285.2112922496958 L 517.0227272727273 361.2662155277843 L 531.7386363636364 292.1253761840675 L 546.4545454545454 458.06339060898785" stroke-linejoin="bevel" stroke-miterlimit="10" stroke-width="2"/></g></g></g><g><g/><g><path fill="#ffffff" stroke="#e5e5e5" paint-order="fill stroke markers" d=" M 62 38 L 466.421875 38 L 466.421875 193 L 62 193 L 62 38 Z" fill-opacity="0.95" stroke-linejoin="bevel" stroke-miterlimit="10" stroke-opacity="0.5"/><text fill="#444444" stroke="none" font-family="helvetica" font-size="10pt" font-style="normal" font-weight="normal" text-decoration="normal" x="97" y="58" text-anchor="start" dominant-baseline="central">sc5314_fluc_rep01_ACGCTG.fastqAligned.primary.out_dedup</text><g><path fill="none" stroke="#1F78B4" paint-order="fill stroke markers" d=" M 72 58 L 92 58" stroke-linejoin="bevel" stroke-miterlimit="10" stroke-width="2"/></g><text fill="#444444" stroke="none" font-family="helvetica" font-size="10pt" font-style="normal" font-weight="normal" text-decoration="normal" x="97" y="81" text-anchor="start" dominant-baseline="central">sc5314_fluc_rep02_GTGATC.fastqAligned.primary.out_dedup</text><g><path fill="none" stroke="#33A02C" paint-order="fill stroke markers" d=" M 72 81 L 92 81" stroke-linejoin="bevel" stroke-miterlimit="10" stroke-width="2"/></g><text fill="#444444" stroke="none" font-family="helvetica" font-size="10pt" font-style="normal" font-weight="normal" text-decoration="normal" x="97" y="104" text-anchor="start" dominant-baseline="central">sc5314_fluc_rep03_ACTGGT.fastqAligned.primary.out_dedup</text><g><path fill="none" stroke="#C51B7D" paint-order="fill stroke markers" d=" M 72 104 L 92 104" stroke-linejoin="bevel" stroke-miterlimit="10" stroke-width="2"/></g><text fill="#444444" stroke="none" font-family="helvetica" font-size="10pt" font-style="normal" font-weight="normal" text-decoration="normal" x="97" y="127" text-anchor="start" dominant-baseline="central">sc5314_ut_rep01_CGTGCA.fastqAligned.primary.out_dedup</text><g><path fill="none" stroke="#542788" paint-order="fill stroke markers" d=" M 72 127 L 92 127" stroke-linejoin="bevel" stroke-miterlimit="10" stroke-width="2"/></g><text fill="#444444" stroke="none" font-family="helvetica" font-size="10pt" font-style="normal" font-weight="normal" text-decoration="normal" x="97" y="150" text-anchor="start" dominant-baseline="central">sc5314_ut_rep02_TAATGT.fastqAligned.primary.out_dedup</text><g><path fill="none" stroke="#A6CEE3" paint-order="fill stroke markers" d=" M 72 150 L 92 150" stroke-linejoin="bevel" stroke-miterlimit="10" stroke-width="2"/></g><text fill="#444444" stroke="none" font-family="helvetica" font-size="10pt" font-style="normal" font-weight="normal" text-decoration="normal" x="97" y="173" text-anchor="start" dominant-baseline="central">sc5314_ut_rep03_CTACAC.fastqAligned.primary.out_dedup</text><g><path fill="none" stroke="#B2DF8A" paint-order="fill stroke markers" d=" M 72 173 L 92 173" stroke-linejoin="bevel" stroke-miterlimit="10" stroke-width="2"/></g></g></g><g><g fill="#444444"><path fill="" stroke="none" d=""/><g transform="translate(52,23)"><path fill="none" stroke="none"/><text fill="" stroke="none" font-family="helvetica" font-size="10pt" font-style="normal" font-weight="bold" text-decoration="normal" x="0" y="0" text-anchor="start" dominant-baseline="text-after-edge">CTC(LEU)-codon_scaled</text></g></g></g><g/><g><g fill="#444444"><path fill="none" stroke="black" paint-order="fill stroke markers" d=" M 52 555 L 570 555" stroke-linejoin="bevel" stroke-miterlimit="10"/><path fill="none" stroke="black" paint-order="fill stroke markers" d=" M 76 561 L 76 553" stroke-linejoin="bevel" stroke-miterlimit="10"/><path fill="none" stroke="black" paint-order="fill stroke markers" d=" M 149 561 L 149 553" stroke-linejoin="bevel" stroke-miterlimit="10"/><path fill="none" stroke="black" paint-order="fill stroke markers" d=" M 223 561 L 223 553" stroke-linejoin="bevel" stroke-miterlimit="10"/><path fill="none" stroke="black" paint-order="fill stroke markers" d=" M 296 561 L 296 553" stroke-linejoin="bevel" stroke-miterlimit="10"/><path fill="none" stroke="black" paint-order="fill stroke markers" d=" M 370 561 L 370 553" stroke-linejoin="bevel" stroke-miterlimit="10"/><path fill="none" stroke="black" paint-order="fill stroke markers" d=" M 443 561 L 443 553" stroke-linejoin="bevel" stroke-miterlimit="10"/><path fill="none" stroke="black" paint-order="fill stroke markers" d=" M 517 561 L 517 553" stroke-linejoin="bevel" stroke-miterlimit="10"/><path fill="none" stroke="black" paint-order="fill stroke markers" d=" M 61 559 L 61 555" stroke-linejoin="bevel" stroke-miterlimit="10"/><path fill="none" stroke="black" paint-order="fill stroke markers" d=" M 76 559 L 76 555" stroke-linejoin="bevel" stroke-miterlimit="10"/><path fill="none" stroke="black" paint-order="fill stroke markers" d=" M 90 559 L 90 555" stroke-linejoin="bevel" stroke-miterlimit="10"/><path fill="none" stroke="black" paint-order="fill stroke markers" d=" M 105 559 L 105 555" stroke-linejoin="bevel" stroke-miterlimit="10"/><path fill="none" stroke="black" paint-order="fill stroke markers" d=" M 120 559 L 120 555" stroke-linejoin="bevel" stroke-miterlimit="10"/><path fill="none" stroke="black" paint-order="fill stroke markers" d=" M 134 559 L 134 555" stroke-linejoin="bevel" stroke-miterlimit="10"/><path fill="none" stroke="black" paint-order="fill stroke markers" d=" M 149 559 L 149 555" stroke-linejoin="bevel" stroke-miterlimit="10"/><path fill="none" stroke="black" paint-order="fill stroke markers" d=" M 164 559 L 164 555" stroke-linejoin="bevel" stroke-miterlimit="10"/><path fill="none" stroke="black" paint-order="fill stroke markers" d=" M 179 559 L 179 555" stroke-linejoin="bevel" stroke-miterlimit="10"/><path fill="none" stroke="black" paint-order="fill stroke markers" d=" M 193 559 L 193 555" stroke-linejoin="bevel" stroke-miterlimit="10"/><path fill="none" stroke="black" paint-order="fill stroke markers" d=" M 208 559 L 208 555" stroke-linejoin="bevel" stroke-miterlimit="10"/><path fill="none" stroke="black" paint-order="fill stroke markers" d=" M 223 559 L 223 555" stroke-linejoin="bevel" stroke-miterlimit="10"/><path fill="none" stroke="black" paint-order="fill stroke markers" d=" M 237 559 L 237 555" stroke-linejoin="bevel" stroke-miterlimit="10"/><path fill="none" stroke="black" paint-order="fill stroke markers" d=" M 252 559 L 252 555" stroke-linejoin="bevel" stroke-miterlimit="10"/><path fill="none" stroke="black" paint-order="fill stroke markers" d=" M 267 559 L 267 555" stroke-linejoin="bevel" stroke-miterlimit="10"/><path fill="none" stroke="black" paint-order="fill stroke markers" d=" M 282 559 L 282 555" stroke-linejoin="bevel" stroke-miterlimit="10"/><path fill="none" stroke="black" paint-order="fill stroke markers" d=" M 296 559 L 296 555" stroke-linejoin="bevel" stroke-miterlimit="10"/><path fill="none" stroke="black" paint-order="fill stroke markers" d=" M 311 559 L 311 555" stroke-linejoin="bevel" stroke-miterlimit="10"/><path fill="none" stroke="black" paint-order="fill stroke markers" d=" M 326 559 L 326 555" stroke-linejoin="bevel" stroke-miterlimit="10"/><path fill="none" stroke="black" paint-order="fill stroke markers" d=" M 340 559 L 340 555" stroke-linejoin="bevel" stroke-miterlimit="10"/><path fill="none" stroke="black" paint-order="fill stroke markers" d=" M 355 559 L 355 555" stroke-linejoin="bevel" stroke-miterlimit="10"/><path fill="none" stroke="black" paint-order="fill stroke markers" d=" M 370 559 L 370 555" stroke-linejoin="bevel" stroke-miterlimit="10"/><path fill="none" stroke="black" paint-order="fill stroke markers" d=" M 385 559 L 385 555" stroke-linejoin="bevel" stroke-miterlimit="10"/><path fill="none" stroke="black" paint-order="fill stroke markers" d=" M 399 559 L 399 555" stroke-linejoin="bevel" stroke-miterlimit="10"/><path fill="none" stroke="black" paint-order="fill stroke markers" d=" M 414 559 L 414 555" stroke-linejoin="bevel" stroke-miterlimit="10"/><path fill="none" stroke="black" paint-order="fill stroke markers" d=" M 429 559 L 429 555" stroke-linejoin="bevel" stroke-miterlimit="10"/><path fill="none" stroke="black" paint-order="fill stroke markers" d=" M 443 559 L 443 555" stroke-linejoin="bevel" stroke-miterlimit="10"/><path fill="none" stroke="black" paint-order="fill stroke markers" d=" M 458 559 L 458 555" stroke-linejoin="bevel" stroke-miterlimit="10"/><path fill="none" stroke="black" paint-order="fill stroke markers" d=" M 473 559 L 473 555" stroke-linejoin="bevel" stroke-miterlimit="10"/><path fill="none" stroke="black" paint-order="fill stroke markers" d=" M 488 559 L 488 555" stroke-linejoin="bevel" stroke-miterlimit="10"/><path fill="none" stroke="black" paint-order="fill stroke markers" d=" M 502 559 L 502 555" stroke-linejoin="bevel" stroke-miterlimit="10"/><path fill="none" stroke="black" paint-order="fill stroke markers" d=" M 517 559 L 517 555" stroke-linejoin="bevel" stroke-miterlimit="10"/><path fill="none" stroke="black" paint-order="fill stroke markers" d=" M 532 559 L 532 555" stroke-linejoin="bevel" stroke-miterlimit="10"/><path fill="none" stroke="black" paint-order="fill stroke markers" d=" M 546 559 L 546 555" stroke-linejoin="bevel" stroke-miterlimit="10"/><path fill="" stroke="black" paint-order="fill stroke markers" d=" M 561 559 L 561 555" stroke-linejoin="bevel" stroke-miterlimit="10"/><g transform="translate(76,566) rotate(0,0,0)"><text fill="" stroke="none" font-family="helvetica" font-size="8pt" font-style="normal" font-weight="normal" text-decoration="normal" x="0" y="0" text-anchor="middle" dominant-baseline="hanging">-30</text><g transform="rotate(0,0,0) translate(-76,-566) translate(149,566) rotate(0,0,0)"><text fill="" stroke="none" font-family="helvetica" font-size="8pt" font-style="normal" font-weight="normal" text-decoration="normal" x="0" y="0" text-anchor="middle" dominant-baseline="hanging">-25</text><g transform="rotate(0,0,0) translate(-149,-566) translate(223,566) rotate(0,0,0)"><text fill="" stroke="none" font-family="helvetica" font-size="8pt" font-style="normal" font-weight="normal" text-decoration="normal" x="0" y="0" text-anchor="middle" dominant-baseline="hanging">-20</text><g transform="rotate(0,0,0) translate(-223,-566) translate(296,566) rotate(0,0,0)"><text fill="" stroke="none" font-family="helvetica" font-size="8pt" font-style="normal" font-weight="normal" text-decoration="normal" x="0" y="0" text-anchor="middle" dominant-baseline="hanging">-15</text><g transform="rotate(0,0,0) translate(-296,-566) translate(370,566) rotate(0,0,0)"><text fill="" stroke="none" font-family="helvetica" font-size="8pt" font-style="normal" font-weight="normal" text-decoration="normal" x="0" y="0" text-anchor="middle" dominant-baseline="hanging">-10</text><g transform="rotate(0,0,0) translate(-370,-566) translate(443,566) rotate(0,0,0)"><text fill="" stroke="none" font-family="helvetica" font-size="8pt" font-style="normal" font-weight="normal" text-decoration="normal" x="0" y="0" text-anchor="middle" dominant-baseline="hanging">-5</text><g transform="rotate(0,0,0) translate(-443,-566) translate(517,566) rotate(0,0,0)"><text fill="" stroke="none" font-family="helvetica" font-size="8pt" font-style="normal" font-weight="normal" text-decoration="normal" x="0" y="0" text-anchor="middle" dominant-baseline="hanging">0</text><g transform="rotate(0,0,0) translate(-517,-566) translate(311,584) rotate(0,0,0)"><text fill="" stroke="none" font-family="helvetica" font-size="10pt" font-style="italic" font-weight="normal" text-decoration="normal" x="0" y="0" text-anchor="middle" dominant-baseline="hanging">position from codon</text><g transform="rotate(0,0,0) translate(-311,-584)"/></g></g></g></g></g></g></g></g></g></g><g><g fill="#444444"><path fill="none" stroke="black" paint-order="fill stroke markers" d=" M 52 555 L 52 203" stroke-linejoin="bevel" stroke-miterlimit="10"/><path fill="none" stroke="black" paint-order="fill stroke markers" d=" M 46 513 L 54 513" stroke-linejoin="bevel" stroke-miterlimit="10"/><path fill="none" stroke="black" paint-order="fill stroke markers" d=" M 46 461 L 54 461" stroke-linejoin="bevel" stroke-miterlimit="10"/><path fill="none" stroke="black" paint-order="fill stroke markers" d=" M 46 409 L 54 409" stroke-linejoin="bevel" stroke-miterlimit="10"/><path fill="none" stroke="black" paint-order="fill stroke markers" d=" M 46 357 L 54 357" stroke-linejoin="bevel" stroke-miterlimit="10"/><path fill="none" stroke="black" paint-order="fill stroke markers" d=" M 46 305 L 54 305" stroke-linejoin="bevel" stroke-miterlimit="10"/><path fill="none" stroke="black" paint-order="fill stroke markers" d=" M 46 253 L 54 253" stroke-linejoin="bevel" stroke-miterlimit="10"/><path fill="none" stroke="black" paint-order="fill stroke markers" d=" M 48 524 L 52 524" stroke-linejoin="bevel" stroke-miterlimit="10"/><path fill="none" stroke="black" paint-order="fill stroke markers" d=" M 48 534 L 52 534" stroke-linejoin="bevel" stroke-miterlimit="10"/><path fill="none" stroke="black" paint-order="fill stroke markers" d=" M 48 545 L 52 545" stroke-linejoin="bevel" stroke-miterlimit="10"/><path fill="none" stroke="black" paint-order="fill stroke markers" d=" M 48 513 L 52 513" stroke-linejoin="bevel" stroke-miterlimit="10"/><path fill="none" stroke="black" paint-order="fill stroke markers" d=" M 48 503 L 52 503" stroke-linejoin="bevel" stroke-miterlimit="10"/><path fill="none" stroke="black" paint-order="fill stroke markers" d=" M 48 493 L 52 493" stroke-linejoin="bevel" stroke-miterlimit="10"/><path fill="none" stroke="black" paint-order="fill stroke markers" d=" M 48 482 L 52 482" stroke-linejoin="bevel" stroke-miterlimit="10"/><path fill="none" stroke="black" paint-order="fill stroke markers" d=" M 48 472 L 52 472" stroke-linejoin="bevel" stroke-miterlimit="10"/><path fill="none" stroke="black" paint-order="fill stroke markers" d=" M 48 461 L 52 461" stroke-linejoin="bevel" stroke-miterlimit="10"/><path fill="none" stroke="black" paint-order="fill stroke markers" d=" M 48 451 L 52 451" stroke-linejoin="bevel" stroke-miterlimit="10"/><path fill="none" stroke="black" paint-order="fill stroke markers" d=" M 48 441 L 52 441" stroke-linejoin="bevel" stroke-miterlimit="10"/><path fill="none" stroke="black" paint-order="fill stroke markers" d=" M 48 430 L 52 430" stroke-linejoin="bevel" stroke-miterlimit="10"/><path fill="none" stroke="black" paint-order="fill stroke markers" d=" M 48 420 L 52 420" stroke-linejoin="bevel" stroke-miterlimit="10"/><path fill="none" stroke="black" paint-order="fill stroke markers" d=" M 48 409 L 52 409" stroke-linejoin="bevel" stroke-miterlimit="10"/><path fill="none" stroke="black" paint-order="fill stroke markers" d=" M 48 399 L 52 399" stroke-linejoin="bevel" stroke-miterlimit="10"/><path fill="none" stroke="black" paint-order="fill stroke markers" d=" M 48 389 L 52 389" stroke-linejoin="bevel" stroke-miterlimit="10"/><path fill="none" stroke="black" paint-order="fill stroke markers" d=" M 48 378 L 52 378" stroke-linejoin="bevel" stroke-miterlimit="10"/><path fill="none" stroke="black" paint-order="fill stroke markers" d=" M 48 368 L 52 368" stroke-linejoin="bevel" stroke-miterlimit="10"/><path fill="none" stroke="black" paint-order="fill stroke markers" d=" M 48 357 L 52 357" stroke-linejoin="bevel" stroke-miterlimit="10"/><path fill="none" stroke="black" paint-order="fill stroke markers" d=" M 48 347 L 52 347" stroke-linejoin="bevel" stroke-miterlimit="10"/><path fill="none" stroke="black" paint-order="fill stroke markers" d=" M 48 337 L 52 337" stroke-linejoin="bevel" stroke-miterlimit="10"/><path fill="none" stroke="black" paint-order="fill stroke markers" d=" M 48 326 L 52 326" stroke-linejoin="bevel" stroke-miterlimit="10"/><path fill="none" stroke="black" paint-order="fill stroke markers" d=" M 48 316 L 52 316" stroke-linejoin="bevel" stroke-miterlimit="10"/><path fill="none" stroke="black" paint-order="fill stroke markers" d=" M 48 305 L 52 305" stroke-linejoin="bevel" stroke-miterlimit="10"/><path fill="none" stroke="black" paint-order="fill stroke markers" d=" M 48 295 L 52 295" stroke-linejoin="bevel" stroke-miterlimit="10"/><path fill="none" stroke="black" paint-order="fill stroke markers" d=" M 48 285 L 52 285" stroke-linejoin="bevel" stroke-miterlimit="10"/><path fill="none" stroke="black" paint-order="fill stroke markers" d=" M 48 274 L 52 274" stroke-linejoin="bevel" stroke-miterlimit="10"/><path fill="none" stroke="black" paint-order="fill stroke markers" d=" M 48 264 L 52 264" stroke-linejoin="bevel" stroke-miterlimit="10"/><path fill="none" stroke="black" paint-order="fill stroke markers" d=" M 48 253 L 52 253" stroke-linejoin="bevel" stroke-miterlimit="10"/><path fill="none" stroke="black" paint-order="fill stroke markers" d=" M 48 243 L 52 243" stroke-linejoin="bevel" stroke-miterlimit="10"/><path fill="none" stroke="black" paint-order="fill stroke markers" d=" M 48 233 L 52 233" stroke-linejoin="bevel" stroke-miterlimit="10"/><path fill="none" stroke="black" paint-order="fill stroke markers" d=" M 48 222 L 52 222" stroke-linejoin="bevel" stroke-miterlimit="10"/><path fill="" stroke="black" paint-order="fill stroke markers" d=" M 48 212 L 52 212" stroke-linejoin="bevel" stroke-miterlimit="10"/><g transform="translate(41,513) rotate(0,0,0)"><text fill="" stroke="none" font-family="helvetica" font-size="8pt" font-style="normal" font-weight="normal" text-decoration="normal" x="0" y="0" text-anchor="end" dominant-baseline="central">350</text><g transform="rotate(0,0,0) translate(-41,-513) translate(41,461) rotate(0,0,0)"><text fill="" stroke="none" font-family="helvetica" font-size="8pt" font-style="normal" font-weight="normal" text-decoration="normal" x="0" y="0" text-anchor="end" dominant-baseline="central">400</text><g transform="rotate(0,0,0) translate(-41,-461) translate(41,409) rotate(0,0,0)"><text fill="" stroke="none" font-family="helvetica" font-size="8pt" font-style="normal" font-weight="normal" text-decoration="normal" x="0" y="0" text-anchor="end" dominant-baseline="central">450</text><g transform="rotate(0,0,0) translate(-41,-409) translate(41,357) rotate(0,0,0)"><text fill="" stroke="none" font-family="helvetica" font-size="8pt" font-style="normal" font-weight="normal" text-decoration="normal" x="0" y="0" text-anchor="end" dominant-baseline="central">500</text><g transform="rotate(0,0,0) translate(-41,-357) translate(41,305) rotate(0,0,0)"><text fill="" stroke="none" font-family="helvetica" font-size="8pt" font-style="normal" font-weight="normal" text-decoration="normal" x="0" y="0" text-anchor="end" dominant-baseline="central">550</text><g transform="rotate(0,0,0) translate(-41,-305) translate(41,253) rotate(0,0,0)"><text fill="" stroke="none" font-family="helvetica" font-size="8pt" font-style="normal" font-weight="normal" text-decoration="normal" x="0" y="0" text-anchor="end" dominant-baseline="central">600</text><g transform="rotate(0,0,0) translate(-41,-253) translate(16,379) rotate(-90,0,0)"><text fill="" stroke="none" font-family="helvetica" font-size="10pt" font-style="italic" font-weight="normal" text-decoration="normal" x="0" y="0" text-anchor="middle" dominant-baseline="alphabetic">5'seq RPM</text><g transform="rotate(90,0,0) translate(-16,-379)"/></g></g></g></g></g></g></g></g></g><g clip-path="url(#agsMlCVSoJHr)"><g/></g></g></g></svg>