<svg version="1.1" xmlns="http://www.w3.org/2000/svg" xmlns:xlink="http://www.w3.org/1999/xlink" width="600" height="600" style="width: 600px; height: 600px;"><defs><clipPath id="GHqzQuWVuPGL"><path fill="none" stroke="none" d=" M 58 203 L 570 203 L 570 555 L 58 555 L 58 203 Z"/></clipPath><clipPath id="pdcGbKaaezkH"><path fill="none" stroke="none" d=" M 58 203 L 570 203 L 570 555 L 58 555 L 58 203 Z"/></clipPath><clipPath id="ETFwZZmUtPcz"><path fill="none" stroke="none" d=" M 58 203 L 570 203 L 570 555 L 58 555 L 58 203 Z"/></clipPath><clipPath id="TIqnmLCoLlhq"><path fill="none" stroke="none" d=" M 58 203 L 570 203 L 570 555 L 58 555 L 58 203 Z"/></clipPath><clipPath id="FRCrfJMAfFpg"><path fill="none" stroke="none" d=" M 58 203 L 570 203 L 570 555 L 58 555 L 58 203 Z"/></clipPath><clipPath id="bpDUVFWAupvX"><path fill="none" stroke="none" d=" M 58 203 L 570 203 L 570 555 L 58 555 L 58 203 Z"/></clipPath><clipPath id="TXWsfcFQZUcS"><path fill="none" stroke="none" d=" M 58 203 L 570 203 L 570 555 L 58 555 L 58 203 Z"/></clipPath><clipPath id="XAZVeIarAhTn"><path fill="none" stroke="none" d=" M 58 203 L 570 203 L 570 555 L 58 555 L 58 203 Z"/></clipPath><clipPath id="LRhxQZpxnEzI"><path fill="none" stroke="none" d=" M 58 203 L 570 203 L 570 555 L 58 555 L 58 203 Z"/></clipPath></defs><g><g/><g/><g/><g transform="scale(1,1) translate(0.5,0.5)"><rect fill="#FFFFFF" stroke="none" x="0" y="0" width="600" height="600"/><rect fill="#ffffff" stroke="none" x="0" y="0" width="600" height="600"/><rect fill="#FFFFFF" stroke="none" x="58" y="203" width="512" height="352"/><rect fill="#ffffff" stroke="none" x="58" y="203" width="512" height="352"/><g><rect fill="none" stroke="#e5e5e5" x="58" y="203" width="512" height="352" stroke-linejoin="bevel" stroke-miterlimit="10"/></g><g clip-path="url(#GHqzQuWVuPGL)"><g><g><path fill="none" stroke="#e5e5e5" paint-order="fill stroke markers" d=" M 81 555 L 81 203" stroke-linejoin="bevel" stroke-miterlimit="10"/><path fill="none" stroke="#e5e5e5" paint-order="fill stroke markers" d=" M 154 555 L 154 203" stroke-linejoin="bevel" stroke-miterlimit="10"/><path fill="none" stroke="#e5e5e5" paint-order="fill stroke markers" d=" M 227 555 L 227 203" stroke-linejoin="bevel" stroke-miterlimit="10"/><path fill="none" stroke="#e5e5e5" paint-order="fill stroke markers" d=" M 299 555 L 299 203" stroke-linejoin="bevel" stroke-miterlimit="10"/><path fill="none" stroke="#e5e5e5" paint-order="fill stroke markers" d=" M 372 555 L 372 203" stroke-linejoin="bevel" stroke-miterlimit="10"/><path fill="none" stroke="#e5e5e5" paint-order="fill stroke markers" d=" M 445 555 L 445 203" stroke-linejoin="bevel" stroke-miterlimit="10"/><path fill="none" stroke="#e5e5e5" paint-order="fill stroke markers" d=" M 518 555 L 518 203" stroke-linejoin="bevel" stroke-miterlimit="10"/></g></g></g><g clip-path="url(#pdcGbKaaezkH)"><g><g><path fill="none" stroke="#e5e5e5" paint-order="fill stroke markers" d=" M 58 552 L 570 552" stroke-linejoin="bevel" stroke-miterlimit="10"/><path fill="none" stroke="#e5e5e5" paint-order="fill stroke markers" d=" M 58 475 L 570 475" stroke-linejoin="bevel" stroke-miterlimit="10"/><path fill="none" stroke="#e5e5e5" paint-order="fill stroke markers" d=" M 58 398 L 570 398" stroke-linejoin="bevel" stroke-miterlimit="10"/><path fill="none" stroke="#e5e5e5" paint-order="fill stroke markers" d=" M 58 321 L 570 321" stroke-linejoin="bevel" stroke-miterlimit="10"/><path fill="none" stroke="#e5e5e5" paint-order="fill stroke markers" d=" M 58 245 L 570 245" stroke-linejoin="bevel" stroke-miterlimit="10"/></g></g></g><g clip-path="url(#ETFwZZmUtPcz)"><g><g><path fill="none" stroke="none"/><path fill="none" stroke="#1F78B4" paint-order="fill stroke markers" d=" M 81.27272727272725 284.59460628029683 L 95.81818181818181 330.5702133018149 L 110.36363636363637 376.39986601532814 L 124.90909090909093 288.24346398041746 L 139.45454545454544 300.5036258528222 L 154 364.7235213749426 L 168.54545454545456 277.4428451880608 L 183.09090909090907 284.1567433562825 L 197.63636363636363 369.8319221551112 L 212.1818181818182 268.97749532378134 L 226.72727272727275 312.76378772522696 L 241.27272727272725 355.38244566263415 L 255.8181818181818 231.46723816654276 L 270.3636363636364 255.1118360633235 L 284.9090909090909 360.7827550588124 L 299.45454545454544 264.7448203916415 L 314 277.73475380407046 L 328.5454545454545 365.16138429895705 L 343.0909090909091 273.6480331799355 L 357.6363636363636 298.1683569247451 L 372.1818181818182 362.24229813886063 L 386.72727272727275 265.03672900765116 L 401.27272727272725 301.08744308484154 L 415.8181818181818 359.7610749027788 L 430.3636363636364 301.9631689328703 L 444.9090909090909 335.82456838998837 L 459.45454545454544 398.8768294480702 L 474 346.33327856633537 L 488.54545454545456 254.96588175531872 L 503.09090909090907 466.74558267031114 L 517.6363636363636 512.5752353838243 L 532.1818181818181 408.36385946838345 L 546.7272727272727 361.8044352148462" stroke-linejoin="bevel" stroke-miterlimit="10" stroke-width="2"/></g></g></g><g clip-path="url(#TIqnmLCoLlhq)"><g><g><path fill="none" stroke="none"/><path fill="none" stroke="#33A02C" paint-order="fill stroke markers" d=" M 81.27272727272725 328.3360799786359 L 95.81818181818181 309.1793139963894 L 110.36363636363637 350.508262828458 L 124.90909090909093 327.27181520184433 L 139.45454545454544 322.8373786318799 L 154 338.4465953581547 L 168.54545454545456 304.0353675752307 L 183.09090909090907 301.1973281704535 L 197.63636363636363 374.8089752318631 L 212.1818181818182 308.4698041451951 L 226.72727272727275 326.03017296225426 L 241.27272727272725 329.932477143823 L 255.8181818181818 223.50599946467662 L 270.3636363636364 272.816934122681 L 284.9090909090909 330.4646095322187 L 299.45454545454544 256.67558500801056 L 314 252.7732808264418 L 328.5454545454545 314.6780153431454 L 343.0909090909091 288.78090577455305 L 357.6363636363636 278.315635469437 L 372.1818181818182 295.521249360899 L 386.72727272727275 275.12284113906264 L 401.27272727272725 279.0251453206313 L 415.8181818181818 335.96331087897465 L 430.3636363636364 300.31044085646056 L 444.9090909090909 329.7550996810244 L 459.45454545454544 349.0892431260694 L 474 328.15870251583726 L 488.54545454545456 235.21291200938265 L 503.09090909090907 374.63159776906446 L 517.6363636363636 495.7804048604929 L 532.1818181818181 385.98375538817356 L 546.7272727272727 380.13029911582043" stroke-linejoin="bevel" stroke-miterlimit="10" stroke-width="2"/></g></g></g><g clip-path="url(#FRCrfJMAfFpg)"><g><g><path fill="none" stroke="none"/><path fill="none" stroke="#C51B7D" paint-order="fill stroke markers" d=" M 81.27272727272725 296.6931678440395 L 95.81818181818181 350.82501791446464 L 110.36363636363637 367.8802583476122 L 124.90909090909093 333.58439443313057 L 139.45454545454544 334.51130967406255 L 154 354.7180619263788 L 168.54545454545456 334.14054357768975 L 183.09090909090907 319.4952827709652 L 197.63636363636363 374.7394311305086 L 212.1818181818182 312.45072693988243 L 226.72727272727275 331.73056395126673 L 241.27272727272725 364.91412957663 L 255.8181818181818 256.83581248396627 L 270.3636363636364 290.2047611575159 L 284.9090909090909 336.3651401559264 L 299.45454545454544 275.374117302605 L 314 280.7502257000102 L 328.5454545454545 345.8196756134322 L 343.0909090909091 301.88389319325836 L 357.6363636363636 295.02472041036197 L 372.1818181818182 339.1458858787222 L 386.72727272727275 312.45072693988243 L 401.27272727272725 309.6699812170866 L 415.8181818181818 351.7519331553966 L 430.3636363636364 322.6467945901337 L 444.9090909090909 358.4257228901065 L 459.45454545454544 390.4969902263515 L 474 343.2243129388228 L 488.54545454545456 272.96413767618196 L 503.09090909090907 412.742956008718 L 517.6363636363636 503.58064962004767 L 532.1818181818181 367.6948752994259 L 546.7272727272727 371.2171532149672" stroke-linejoin="bevel" stroke-miterlimit="10" stroke-width="2"/></g></g></g><g clip-path="url(#bpDUVFWAupvX)"><g><g><path fill="none" stroke="none"/><path fill="none" stroke="#542788" paint-order="fill stroke markers" d=" M 81.27272727272725 287.6675262186243 L 95.81818181818181 327.64223002416327 L 110.36363636363637 372.5592608456599 L 124.90909090909093 301.4769693514469 L 139.45454545454544 321.24627741527706 L 154 333.0206447179995 L 168.54545454545456 275.16634611943755 L 183.09090909090907 314.85032480639086 L 197.63636363636363 363.83750728808775 L 212.1818181818182 281.56229872832375 L 226.72727272727275 309.4719101125546 L 241.27272727272725 350.6095143924366 L 255.8181818181818 240.42469444844187 L 270.3636363636364 282.434474084081 L 284.9090909090909 341.306310597693 L 299.45454545454544 225.45235084127626 L 314 282.8705617619596 L 328.5454545454545 348.7198011216293 L 343.0909090909091 277.78287218670914 L 357.6363636363636 292.75521579387464 L 372.1818181818182 345.08573713930764 L 386.72727272727275 252.48978686974988 L 401.27272727272725 277.928234746002 L 415.8181818181818 332.2938319215351 L 430.3636363636364 286.94071342216 L 444.9090909090909 306.12857124881873 L 459.45454545454544 369.50664710050967 L 474 344.2135617835504 L 488.54545454545456 281.7076612876167 L 503.09090909090907 393.05538170595446 L 517.6363636363636 390.72958075726854 L 532.1818181818181 341.8877608348645 L 546.7272727272727 375.03042435363864" stroke-linejoin="bevel" stroke-miterlimit="10" stroke-width="2"/></g></g></g><g clip-path="url(#TXWsfcFQZUcS)"><g><g><path fill="none" stroke="none"/><path fill="none" stroke="#A6CEE3" paint-order="fill stroke markers" d=" M 81.27272727272725 312.2722273143904 L 95.81818181818181 360.6681943171402 L 110.36363636363637 354.802016498625 L 124.90909090909093 309.92575618698436 L 139.45454545454544 318.725022914757 L 154 349.8157653528872 L 168.54545454545456 314.3253895508707 L 183.09090909090907 324.8845096241979 L 197.63636363636363 364.4812098991749 L 212.1818181818182 284.4078826764435 L 226.72727272727275 338.3767186067827 L 241.27272727272725 373.5737855178734 L 255.8181818181818 218.9999999999999 L 270.3636363636364 304.05957836846926 L 284.9090909090909 321.07149404216307 L 299.45454545454544 268.56920256645276 L 314 312.2722273143904 L 328.5454545454545 375.62694775435375 L 343.0909090909091 303.76626947754346 L 357.6363636363636 306.9926672777267 L 372.1818181818182 355.3886342804765 L 386.72727272727275 292.32722273143895 L 401.27272727272725 341.6031164069659 L 415.8181818181818 360.0815765352886 L 430.3636363636364 354.2153987167735 L 444.9090909090909 353.3354720439962 L 459.45454545454544 411.70394133822174 L 474 350.109074243813 L 488.54545454545456 274.72868927589354 L 503.09090909090907 425.1961503208065 L 517.6363636363636 538.9999999999999 L 532.1818181818181 385.3061411549037 L 546.7272727272727 380.61319890009156" stroke-linejoin="bevel" stroke-miterlimit="10" stroke-width="2"/></g></g></g><g clip-path="url(#XAZVeIarAhTn)"><g><g><path fill="none" stroke="none"/><path fill="none" stroke="#B2DF8A" paint-order="fill stroke markers" d=" M 81.27272727272725 314.75844345848077 L 95.81818181818181 364.3751282017839 L 110.36363636363637 402.77708283187474 L 124.90909090909093 330.05125724922493 L 139.45454545454544 336.16838276552255 L 154 371.1719343310036 L 168.54545454545456 325.6333332652322 L 183.09090909090907 334.4691812332177 L 197.63636363636363 397.3396379284991 L 212.1818181818182 325.29349295877114 L 226.72727272727275 354.85959962087657 L 241.27272727272725 383.40618536359887 L 255.8181818181818 229.11868623031364 L 270.3636363636364 306.2624357969563 L 284.9090909090909 383.40618536359887 L 299.45454545454544 266.50111994102156 L 314 287.23137863514137 L 328.5454545454545 381.027303218372 L 343.0909090909091 332.09029908799084 L 357.6363636363636 348.74247410457883 L 372.1818181818182 391.5623527186625 L 386.72727272727275 323.9341317329272 L 401.27272727272725 342.28550828182017 L 415.8181818181818 404.1364440577187 L 430.3636363636364 361.3165654436351 L 444.9090909090909 373.55081647623047 L 459.45454545454544 426.2260639776825 L 474 383.40618536359887 L 488.54545454545456 298.78594905481475 L 503.09090909090907 465.30769922069527 L 517.6363636363636 478.22163086621254 L 532.1818181818181 448.65552420410717 L 546.7272727272727 403.79660375125775" stroke-linejoin="bevel" stroke-miterlimit="10" stroke-width="2"/></g></g></g><g><g/><g><path fill="#ffffff" stroke="#e5e5e5" paint-order="fill stroke markers" d=" M 68 38 L 472.421875 38 L 472.421875 193 L 68 193 L 68 38 Z" fill-opacity="0.95" stroke-linejoin="bevel" stroke-miterlimit="10" stroke-opacity="0.5"/><text fill="#444444" stroke="none" font-family="helvetica" font-size="10pt" font-style="normal" font-weight="normal" text-decoration="normal" x="103" y="58" text-anchor="start" dominant-baseline="central">sc5314_fluc_rep01_ACGCTG.fastqAligned.primary.out_dedup</text><g><path fill="none" stroke="#1F78B4" paint-order="fill stroke markers" d=" M 78 58 L 98 58" stroke-linejoin="bevel" stroke-miterlimit="10" stroke-width="2"/></g><text fill="#444444" stroke="none" font-family="helvetica" font-size="10pt" font-style="normal" font-weight="normal" text-decoration="normal" x="103" y="81" text-anchor="start" dominant-baseline="central">sc5314_fluc_rep02_GTGATC.fastqAligned.primary.out_dedup</text><g><path fill="none" stroke="#33A02C" paint-order="fill stroke markers" d=" M 78 81 L 98 81" stroke-linejoin="bevel" stroke-miterlimit="10" stroke-width="2"/></g><text fill="#444444" stroke="none" font-family="helvetica" font-size="10pt" font-style="normal" font-weight="normal" text-decoration="normal" x="103" y="104" text-anchor="start" dominant-baseline="central">sc5314_fluc_rep03_ACTGGT.fastqAligned.primary.out_dedup</text><g><path fill="none" stroke="#C51B7D" paint-order="fill stroke markers" d=" M 78 104 L 98 104" stroke-linejoin="bevel" stroke-miterlimit="10" stroke-width="2"/></g><text fill="#444444" stroke="none" font-family="helvetica" font-size="10pt" font-style="normal" font-weight="normal" text-decoration="normal" x="103" y="127" text-anchor="start" dominant-baseline="central">sc5314_ut_rep01_CGTGCA.fastqAligned.primary.out_dedup</text><g><path fill="none" stroke="#542788" paint-order="fill stroke markers" d=" M 78 127 L 98 127" stroke-linejoin="bevel" stroke-miterlimit="10" stroke-width="2"/></g><text fill="#444444" stroke="none" font-family="helvetica" font-size="10pt" font-style="normal" font-weight="normal" text-decoration="normal" x="103" y="150" text-anchor="start" dominant-baseline="central">sc5314_ut_rep02_TAATGT.fastqAligned.primary.out_dedup</text><g><path fill="none" stroke="#A6CEE3" paint-order="fill stroke markers" d=" M 78 150 L 98 150" stroke-linejoin="bevel" stroke-miterlimit="10" stroke-width="2"/></g><text fill="#444444" stroke="none" font-family="helvetica" font-size="10pt" font-style="normal" font-weight="normal" text-decoration="normal" x="103" y="173" text-anchor="start" dominant-baseline="central">sc5314_ut_rep03_CTACAC.fastqAligned.primary.out_dedup</text><g><path fill="none" stroke="#B2DF8A" paint-order="fill stroke markers" d=" M 78 173 L 98 173" stroke-linejoin="bevel" stroke-miterlimit="10" stroke-width="2"/></g></g></g><g><g fill="#444444"><path fill="" stroke="none" d=""/><g transform="translate(58,23)"><path fill="none" stroke="none"/><text fill="" stroke="none" font-family="helvetica" font-size="10pt" font-style="normal" font-weight="bold" text-decoration="normal" x="0" y="0" text-anchor="start" dominant-baseline="text-after-edge">GGA(GLY)-codon_scaled</text></g></g></g><g/><g><g fill="#444444"><path fill="none" stroke="black" paint-order="fill stroke markers" d=" M 58 555 L 570 555" stroke-linejoin="bevel" stroke-miterlimit="10"/><path fill="none" stroke="black" paint-order="fill stroke markers" d=" M 81 561 L 81 553" stroke-linejoin="bevel" stroke-miterlimit="10"/><path fill="none" stroke="black" paint-order="fill stroke markers" d=" M 154 561 L 154 553" stroke-linejoin="bevel" stroke-miterlimit="10"/><path fill="none" stroke="black" paint-order="fill stroke markers" d=" M 227 561 L 227 553" stroke-linejoin="bevel" stroke-miterlimit="10"/><path fill="none" stroke="black" paint-order="fill stroke markers" d=" M 299 561 L 299 553" stroke-linejoin="bevel" stroke-miterlimit="10"/><path fill="none" stroke="black" paint-order="fill stroke markers" d=" M 372 561 L 372 553" stroke-linejoin="bevel" stroke-miterlimit="10"/><path fill="none" stroke="black" paint-order="fill stroke markers" d=" M 445 561 L 445 553" stroke-linejoin="bevel" stroke-miterlimit="10"/><path fill="none" stroke="black" paint-order="fill stroke markers" d=" M 518 561 L 518 553" stroke-linejoin="bevel" stroke-miterlimit="10"/><path fill="none" stroke="black" paint-order="fill stroke markers" d=" M 67 559 L 67 555" stroke-linejoin="bevel" stroke-miterlimit="10"/><path fill="none" stroke="black" paint-order="fill stroke markers" d=" M 81 559 L 81 555" stroke-linejoin="bevel" stroke-miterlimit="10"/><path fill="none" stroke="black" paint-order="fill stroke markers" d=" M 96 559 L 96 555" stroke-linejoin="bevel" stroke-miterlimit="10"/><path fill="none" stroke="black" paint-order="fill stroke markers" d=" M 110 559 L 110 555" stroke-linejoin="bevel" stroke-miterlimit="10"/><path fill="none" stroke="black" paint-order="fill stroke markers" d=" M 125 559 L 125 555" stroke-linejoin="bevel" stroke-miterlimit="10"/><path fill="none" stroke="black" paint-order="fill stroke markers" d=" M 139 559 L 139 555" stroke-linejoin="bevel" stroke-miterlimit="10"/><path fill="none" stroke="black" paint-order="fill stroke markers" d=" M 154 559 L 154 555" stroke-linejoin="bevel" stroke-miterlimit="10"/><path fill="none" stroke="black" paint-order="fill stroke markers" d=" M 169 559 L 169 555" stroke-linejoin="bevel" stroke-miterlimit="10"/><path fill="none" stroke="black" paint-order="fill stroke markers" d=" M 183 559 L 183 555" stroke-linejoin="bevel" stroke-miterlimit="10"/><path fill="none" stroke="black" paint-order="fill stroke markers" d=" M 198 559 L 198 555" stroke-linejoin="bevel" stroke-miterlimit="10"/><path fill="none" stroke="black" paint-order="fill stroke markers" d=" M 212 559 L 212 555" stroke-linejoin="bevel" stroke-miterlimit="10"/><path fill="none" stroke="black" paint-order="fill stroke markers" d=" M 227 559 L 227 555" stroke-linejoin="bevel" stroke-miterlimit="10"/><path fill="none" stroke="black" paint-order="fill stroke markers" d=" M 241 559 L 241 555" stroke-linejoin="bevel" stroke-miterlimit="10"/><path fill="none" stroke="black" paint-order="fill stroke markers" d=" M 256 559 L 256 555" stroke-linejoin="bevel" stroke-miterlimit="10"/><path fill="none" stroke="black" paint-order="fill stroke markers" d=" M 270 559 L 270 555" stroke-linejoin="bevel" stroke-miterlimit="10"/><path fill="none" stroke="black" paint-order="fill stroke markers" d=" M 285 559 L 285 555" stroke-linejoin="bevel" stroke-miterlimit="10"/><path fill="none" stroke="black" paint-order="fill stroke markers" d=" M 299 559 L 299 555" stroke-linejoin="bevel" stroke-miterlimit="10"/><path fill="none" stroke="black" paint-order="fill stroke markers" d=" M 314 559 L 314 555" stroke-linejoin="bevel" stroke-miterlimit="10"/><path fill="none" stroke="black" paint-order="fill stroke markers" d=" M 329 559 L 329 555" stroke-linejoin="bevel" stroke-miterlimit="10"/><path fill="none" stroke="black" paint-order="fill stroke markers" d=" M 343 559 L 343 555" stroke-linejoin="bevel" stroke-miterlimit="10"/><path fill="none" stroke="black" paint-order="fill stroke markers" d=" M 358 559 L 358 555" stroke-linejoin="bevel" stroke-miterlimit="10"/><path fill="none" stroke="black" paint-order="fill stroke markers" d=" M 372 559 L 372 555" stroke-linejoin="bevel" stroke-miterlimit="10"/><path fill="none" stroke="black" paint-order="fill stroke markers" d=" M 387 559 L 387 555" stroke-linejoin="bevel" stroke-miterlimit="10"/><path fill="none" stroke="black" paint-order="fill stroke markers" d=" M 401 559 L 401 555" stroke-linejoin="bevel" stroke-miterlimit="10"/><path fill="none" stroke="black" paint-order="fill stroke markers" d=" M 416 559 L 416 555" stroke-linejoin="bevel" stroke-miterlimit="10"/><path fill="none" stroke="black" paint-order="fill stroke markers" d=" M 430 559 L 430 555" stroke-linejoin="bevel" stroke-miterlimit="10"/><path fill="none" stroke="black" paint-order="fill stroke markers" d=" M 445 559 L 445 555" stroke-linejoin="bevel" stroke-miterlimit="10"/><path fill="none" stroke="black" paint-order="fill stroke markers" d=" M 459 559 L 459 555" stroke-linejoin="bevel" stroke-miterlimit="10"/><path fill="none" stroke="black" paint-order="fill stroke markers" d=" M 474 559 L 474 555" stroke-linejoin="bevel" stroke-miterlimit="10"/><path fill="none" stroke="black" paint-order="fill stroke markers" d=" M 489 559 L 489 555" stroke-linejoin="bevel" stroke-miterlimit="10"/><path fill="none" stroke="black" paint-order="fill stroke markers" d=" M 503 559 L 503 555" stroke-linejoin="bevel" stroke-miterlimit="10"/><path fill="none" stroke="black" paint-order="fill stroke markers" d=" M 518 559 L 518 555" stroke-linejoin="bevel" stroke-miterlimit="10"/><path fill="none" stroke="black" paint-order="fill stroke markers" d=" M 532 559 L 532 555" stroke-linejoin="bevel" stroke-miterlimit="10"/><path fill="none" stroke="black" paint-order="fill stroke markers" d=" M 547 559 L 547 555" stroke-linejoin="bevel" stroke-miterlimit="10"/><path fill="" stroke="black" paint-order="fill stroke markers" d=" M 561 559 L 561 555" stroke-linejoin="bevel" stroke-miterlimit="10"/><g transform="translate(81,566) rotate(0,0,0)"><text fill="" stroke="none" font-family="helvetica" font-size="8pt" font-style="normal" font-weight="normal" text-decoration="normal" x="0" y="0" text-anchor="middle" dominant-baseline="hanging">-30</text><g transform="rotate(0,0,0) translate(-81,-566) translate(154,566) rotate(0,0,0)"><text fill="" stroke="none" font-family="helvetica" font-size="8pt" font-style="normal" font-weight="normal" text-decoration="normal" x="0" y="0" text-anchor="middle" dominant-baseline="hanging">-25</text><g transform="rotate(0,0,0) translate(-154,-566) translate(227,566) rotate(0,0,0)"><text fill="" stroke="none" font-family="helvetica" font-size="8pt" font-style="normal" font-weight="normal" text-decoration="normal" x="0" y="0" text-anchor="middle" dominant-baseline="hanging">-20</text><g transform="rotate(0,0,0) translate(-227,-566) translate(299,566) rotate(0,0,0)"><text fill="" stroke="none" font-family="helvetica" font-size="8pt" font-style="normal" font-weight="normal" text-decoration="normal" x="0" y="0" text-anchor="middle" dominant-baseline="hanging">-15</text><g transform="rotate(0,0,0) translate(-299,-566) translate(372,566) rotate(0,0,0)"><text fill="" stroke="none" font-family="helvetica" font-size="8pt" font-style="normal" font-weight="normal" text-decoration="normal" x="0" y="0" text-anchor="middle" dominant-baseline="hanging">-10</text><g transform="rotate(0,0,0) translate(-372,-566) translate(445,566) rotate(0,0,0)"><text fill="" stroke="none" font-family="helvetica" font-size="8pt" font-style="normal" font-weight="normal" text-decoration="normal" x="0" y="0" text-anchor="middle" dominant-baseline="hanging">-5</text><g transform="rotate(0,0,0) translate(-445,-566) translate(518,566) rotate(0,0,0)"><text fill="" stroke="none" font-family="helvetica" font-size="8pt" font-style="normal" font-weight="normal" text-decoration="normal" x="0" y="0" text-anchor="middle" dominant-baseline="hanging">0</text><g transform="rotate(0,0,0) translate(-518,-566) translate(314,584) rotate(0,0,0)"><text fill="" stroke="none" font-family="helvetica" font-size="10pt" font-style="italic" font-weight="normal" text-decoration="normal" x="0" y="0" text-anchor="middle" dominant-baseline="hanging">position from codon</text><g transform="rotate(0,0,0) translate(-314,-584)"/></g></g></g></g></g></g></g></g></g></g><g><g fill="#444444"><path fill="none" stroke="black" paint-order="fill stroke markers" d=" M 58 555 L 58 203" stroke-linejoin="bevel" stroke-miterlimit="10"/><path fill="none" stroke="black" paint-order="fill stroke markers" d=" M 52 552 L 60 552" stroke-linejoin="bevel" stroke-miterlimit="10"/><path fill="none" stroke="black" paint-order="fill stroke markers" d=" M 52 475 L 60 475" stroke-linejoin="bevel" stroke-miterlimit="10"/><path fill="none" stroke="black" paint-order="fill stroke markers" d=" M 52 398 L 60 398" stroke-linejoin="bevel" stroke-miterlimit="10"/><path fill="none" stroke="black" paint-order="fill stroke markers" d=" M 52 321 L 60 321" stroke-linejoin="bevel" stroke-miterlimit="10"/><path fill="none" stroke="black" paint-order="fill stroke markers" d=" M 52 245 L 60 245" stroke-linejoin="bevel" stroke-miterlimit="10"/><path fill="none" stroke="black" paint-order="fill stroke markers" d=" M 54 552 L 58 552" stroke-linejoin="bevel" stroke-miterlimit="10"/><path fill="none" stroke="black" paint-order="fill stroke markers" d=" M 54 536 L 58 536" stroke-linejoin="bevel" stroke-miterlimit="10"/><path fill="none" stroke="black" paint-order="fill stroke markers" d=" M 54 521 L 58 521" stroke-linejoin="bevel" stroke-miterlimit="10"/><path fill="none" stroke="black" paint-order="fill stroke markers" d=" M 54 505 L 58 505" stroke-linejoin="bevel" stroke-miterlimit="10"/><path fill="none" stroke="black" paint-order="fill stroke markers" d=" M 54 490 L 58 490" stroke-linejoin="bevel" stroke-miterlimit="10"/><path fill="none" stroke="black" paint-order="fill stroke markers" d=" M 54 475 L 58 475" stroke-linejoin="bevel" stroke-miterlimit="10"/><path fill="none" stroke="black" paint-order="fill stroke markers" d=" M 54 459 L 58 459" stroke-linejoin="bevel" stroke-miterlimit="10"/><path fill="none" stroke="black" paint-order="fill stroke markers" d=" M 54 444 L 58 444" stroke-linejoin="bevel" stroke-miterlimit="10"/><path fill="none" stroke="black" paint-order="fill stroke markers" d=" M 54 429 L 58 429" stroke-linejoin="bevel" stroke-miterlimit="10"/><path fill="none" stroke="black" paint-order="fill stroke markers" d=" M 54 413 L 58 413" stroke-linejoin="bevel" stroke-miterlimit="10"/><path fill="none" stroke="black" paint-order="fill stroke markers" d=" M 54 398 L 58 398" stroke-linejoin="bevel" stroke-miterlimit="10"/><path fill="none" stroke="black" paint-order="fill stroke markers" d=" M 54 383 L 58 383" stroke-linejoin="bevel" stroke-miterlimit="10"/><path fill="none" stroke="black" paint-order="fill stroke markers" d=" M 54 367 L 58 367" stroke-linejoin="bevel" stroke-miterlimit="10"/><path fill="none" stroke="black" paint-order="fill stroke markers" d=" M 54 352 L 58 352" stroke-linejoin="bevel" stroke-miterlimit="10"/><path fill="none" stroke="black" paint-order="fill stroke markers" d=" M 54 337 L 58 337" stroke-linejoin="bevel" stroke-miterlimit="10"/><path fill="none" stroke="black" paint-order="fill stroke markers" d=" M 54 321 L 58 321" stroke-linejoin="bevel" stroke-miterlimit="10"/><path fill="none" stroke="black" paint-order="fill stroke markers" d=" M 54 306 L 58 306" stroke-linejoin="bevel" stroke-miterlimit="10"/><path fill="none" stroke="black" paint-order="fill stroke markers" d=" M 54 291 L 58 291" stroke-linejoin="bevel" stroke-miterlimit="10"/><path fill="none" stroke="black" paint-order="fill stroke markers" d=" M 54 275 L 58 275" stroke-linejoin="bevel" stroke-miterlimit="10"/><path fill="none" stroke="black" paint-order="fill stroke markers" d=" M 54 260 L 58 260" stroke-linejoin="bevel" stroke-miterlimit="10"/><path fill="none" stroke="black" paint-order="fill stroke markers" d=" M 54 245 L 58 245" stroke-linejoin="bevel" stroke-miterlimit="10"/><path fill="none" stroke="black" paint-order="fill stroke markers" d=" M 54 229 L 58 229" stroke-linejoin="bevel" stroke-miterlimit="10"/><path fill="" stroke="black" paint-order="fill stroke markers" d=" M 54 214 L 58 214" stroke-linejoin="bevel" stroke-miterlimit="10"/><g transform="translate(47,552) rotate(0,0,0)"><text fill="" stroke="none" font-family="helvetica" font-size="8pt" font-style="normal" font-weight="normal" text-decoration="normal" x="0" y="0" text-anchor="end" dominant-baseline="central">2500</text><g transform="rotate(0,0,0) translate(-47,-552) translate(47,475) rotate(0,0,0)"><text fill="" stroke="none" font-family="helvetica" font-size="8pt" font-style="normal" font-weight="normal" text-decoration="normal" x="0" y="0" text-anchor="end" dominant-baseline="central">3000</text><g transform="rotate(0,0,0) translate(-47,-475) translate(47,398) rotate(0,0,0)"><text fill="" stroke="none" font-family="helvetica" font-size="8pt" font-style="normal" font-weight="normal" text-decoration="normal" x="0" y="0" text-anchor="end" dominant-baseline="central">3500</text><g transform="rotate(0,0,0) translate(-47,-398) translate(47,321) rotate(0,0,0)"><text fill="" stroke="none" font-family="helvetica" font-size="8pt" font-style="normal" font-weight="normal" text-decoration="normal" x="0" y="0" text-anchor="end" dominant-baseline="central">4000</text><g transform="rotate(0,0,0) translate(-47,-321) translate(47,245) rotate(0,0,0)"><text fill="" stroke="none" font-family="helvetica" font-size="8pt" font-style="normal" font-weight="normal" text-decoration="normal" x="0" y="0" text-anchor="end" dominant-baseline="central">4500</text><g transform="rotate(0,0,0) translate(-47,-245) translate(15,379) rotate(-90,0,0)"><text fill="" stroke="none" font-family="helvetica" font-size="10pt" font-style="italic" font-weight="normal" text-decoration="normal" x="0" y="0" text-anchor="middle" dominant-baseline="alphabetic">5'seq RPM</text><g transform="rotate(90,0,0) translate(-15,-379)"/></g></g></g></g></g></g></g></g><g clip-path="url(#LRhxQZpxnEzI)"><g/></g></g></g></svg>