<svg version="1.1" xmlns="http://www.w3.org/2000/svg" xmlns:xlink="http://www.w3.org/1999/xlink" width="600" height="600" style="width: 600px; height: 600px;"><defs><clipPath id="yvUtXMOTgCoD"><path fill="none" stroke="none" d=" M 58 203 L 570 203 L 570 555 L 58 555 L 58 203 Z"/></clipPath><clipPath id="aTbDWqPzuprI"><path fill="none" stroke="none" d=" M 58 203 L 570 203 L 570 555 L 58 555 L 58 203 Z"/></clipPath><clipPath id="XWtVhzDUFBDS"><path fill="none" stroke="none" d=" M 58 203 L 570 203 L 570 555 L 58 555 L 58 203 Z"/></clipPath><clipPath id="QFnTlAkrwshB"><path fill="none" stroke="none" d=" M 58 203 L 570 203 L 570 555 L 58 555 L 58 203 Z"/></clipPath><clipPath id="UCeXRsDVIEEI"><path fill="none" stroke="none" d=" M 58 203 L 570 203 L 570 555 L 58 555 L 58 203 Z"/></clipPath><clipPath id="WGwkGivCLeZr"><path fill="none" stroke="none" d=" M 58 203 L 570 203 L 570 555 L 58 555 L 58 203 Z"/></clipPath><clipPath id="tbSzfRwWsbkv"><path fill="none" stroke="none" d=" M 58 203 L 570 203 L 570 555 L 58 555 L 58 203 Z"/></clipPath><clipPath id="RnrPdZXbRRli"><path fill="none" stroke="none" d=" M 58 203 L 570 203 L 570 555 L 58 555 L 58 203 Z"/></clipPath><clipPath id="JhWEuDrWAFSb"><path fill="none" stroke="none" d=" M 58 203 L 570 203 L 570 555 L 58 555 L 58 203 Z"/></clipPath></defs><g><g/><g/><g/><g transform="scale(1,1) translate(0.5,0.5)"><rect fill="#FFFFFF" stroke="none" x="0" y="0" width="600" height="600"/><rect fill="#ffffff" stroke="none" x="0" y="0" width="600" height="600"/><rect fill="#FFFFFF" stroke="none" x="58" y="203" width="512" height="352"/><rect fill="#ffffff" stroke="none" x="58" y="203" width="512" height="352"/><g><rect fill="none" stroke="#e5e5e5" x="58" y="203" width="512" height="352" stroke-linejoin="bevel" stroke-miterlimit="10"/></g><g clip-path="url(#yvUtXMOTgCoD)"><g><g><path fill="none" stroke="#e5e5e5" paint-order="fill stroke markers" d=" M 81 555 L 81 203" stroke-linejoin="bevel" stroke-miterlimit="10"/><path fill="none" stroke="#e5e5e5" paint-order="fill stroke markers" d=" M 154 555 L 154 203" stroke-linejoin="bevel" stroke-miterlimit="10"/><path fill="none" stroke="#e5e5e5" paint-order="fill stroke markers" d=" M 227 555 L 227 203" stroke-linejoin="bevel" stroke-miterlimit="10"/><path fill="none" stroke="#e5e5e5" paint-order="fill stroke markers" d=" M 299 555 L 299 203" stroke-linejoin="bevel" stroke-miterlimit="10"/><path fill="none" stroke="#e5e5e5" paint-order="fill stroke markers" d=" M 372 555 L 372 203" stroke-linejoin="bevel" stroke-miterlimit="10"/><path fill="none" stroke="#e5e5e5" paint-order="fill stroke markers" d=" M 445 555 L 445 203" stroke-linejoin="bevel" stroke-miterlimit="10"/><path fill="none" stroke="#e5e5e5" paint-order="fill stroke markers" d=" M 518 555 L 518 203" stroke-linejoin="bevel" stroke-miterlimit="10"/></g></g></g><g clip-path="url(#aTbDWqPzuprI)"><g><g><path fill="none" stroke="#e5e5e5" paint-order="fill stroke markers" d=" M 58 529 L 570 529" stroke-linejoin="bevel" stroke-miterlimit="10"/><path fill="none" stroke="#e5e5e5" paint-order="fill stroke markers" d=" M 58 477 L 570 477" stroke-linejoin="bevel" stroke-miterlimit="10"/><path fill="none" stroke="#e5e5e5" paint-order="fill stroke markers" d=" M 58 425 L 570 425" stroke-linejoin="bevel" stroke-miterlimit="10"/><path fill="none" stroke="#e5e5e5" paint-order="fill stroke markers" d=" M 58 373 L 570 373" stroke-linejoin="bevel" stroke-miterlimit="10"/><path fill="none" stroke="#e5e5e5" paint-order="fill stroke markers" d=" M 58 321 L 570 321" stroke-linejoin="bevel" stroke-miterlimit="10"/><path fill="none" stroke="#e5e5e5" paint-order="fill stroke markers" d=" M 58 269 L 570 269" stroke-linejoin="bevel" stroke-miterlimit="10"/><path fill="none" stroke="#e5e5e5" paint-order="fill stroke markers" d=" M 58 217 L 570 217" stroke-linejoin="bevel" stroke-miterlimit="10"/></g></g></g><g clip-path="url(#XWtVhzDUFBDS)"><g><g><path fill="none" stroke="none"/><path fill="none" stroke="#1F78B4" paint-order="fill stroke markers" d=" M 81.27272727272725 322.8528176705408 L 95.81818181818181 318.65338669956844 L 110.36363636363637 396.7133976894074 L 124.90909090909093 329.5225021538498 L 139.45454545454544 350.2726316574779 L 154 378.18649634688234 L 168.54545454545456 297.90325719594034 L 183.09090909090907 330.26357820755084 L 197.63636363636363 386.33833293759335 L 212.1818181818182 308.52534729898804 L 226.72727272727275 338.41541479826185 L 241.27272727272725 365.58820343396525 L 255.8181818181818 277.40015304354597 L 270.3636363636364 324.58199512917645 L 284.9090909090909 370.5287104586386 L 299.45454545454544 310.9956008113247 L 314 294.19787692743535 L 328.5454545454545 373.98706537591 L 343.0909090909091 337.42731339332715 L 357.6363636363636 341.3797190130658 L 372.1818181818182 365.0941527314979 L 386.72727272727275 302.1026881669127 L 401.27272727272725 290.2454713076966 L 415.8181818181818 355.7071893846185 L 430.3636363636364 325.0760458316438 L 444.9090909090909 351.5077584136462 L 459.45454545454544 369.29358370247024 L 474 323.34686837300814 L 488.54545454545456 219.8432462061014 L 503.09090909090907 355.7071893846185 L 517.6363636363636 483.172270621191 L 532.1818181818181 538.9999999999999 L 546.7272727272727 375.71624283454565" stroke-linejoin="bevel" stroke-miterlimit="10" stroke-width="2"/></g></g></g><g clip-path="url(#QFnTlAkrwshB)"><g><g><path fill="none" stroke="none"/><path fill="none" stroke="#33A02C" paint-order="fill stroke markers" d=" M 81.27272727272725 315.36694207879145 L 95.81818181818181 334.8804973283909 L 110.36363636363637 393.72137161949104 L 124.90909090909093 331.87841190537563 L 139.45454545454544 351.3919671549751 L 154 354.3940525779904 L 168.54545454545456 317.7686104172037 L 183.09090909090907 312.9652737403792 L 197.63636363636363 399.4253339232201 L 212.1818181818182 306.660894352047 L 226.72727272727275 339.984042547517 L 241.27272727272725 361.5990575932272 L 255.8181818181818 312.06464811347456 L 270.3636363636364 294.9527612022873 L 284.9090909090909 360.09801488171956 L 299.45454545454544 305.76026872514245 L 314 301.2571405906195 L 328.5454545454545 330.977786278471 L 343.0909090909091 319.87007021331436 L 357.6363636363636 344.4871706820399 L 372.1818181818182 370.3051053199716 L 386.72727272727275 300.9569320483179 L 401.27272727272725 292.8513014061766 L 415.8181818181818 333.37945461688327 L 430.3636363636364 307.56151997895165 L 444.9090909090909 344.1869621397384 L 459.45454545454544 351.3919671549751 L 474 339.984042547517 L 488.54545454545456 219 L 503.09090909090907 298.25505516760416 L 517.6363636363636 492.48998203669464 L 532.1818181818181 519.2085423015309 L 546.7272727272727 373.6073992852884" stroke-linejoin="bevel" stroke-miterlimit="10" stroke-width="2"/></g></g></g><g clip-path="url(#UCeXRsDVIEEI)"><g><g><path fill="none" stroke="none"/><path fill="none" stroke="#C51B7D" paint-order="fill stroke markers" d=" M 81.27272727272725 338.2530633204375 L 95.81818181818181 322.8789277595645 L 110.36363636363637 388.14056442612747 L 124.90909090909093 352.99968314413206 L 139.45454545454544 383.12043852869954 L 154 364.6087242819341 L 168.54545454545456 339.5080947947945 L 183.09090909090907 332.9191795544203 L 197.63636363636363 382.1791649229318 L 212.1818181818182 328.8403272627601 L 226.72727272727275 333.2329374230096 L 241.27272727272725 383.12043852869954 L 255.8181818181818 295.26823532371094 L 270.3636363636364 314.0937074390656 L 284.9090909090909 370.25636591654046 L 299.45454545454544 346.41076790375786 L 314 342.95943134927614 L 328.5454545454545 347.97955724670413 L 343.0909090909091 365.23624001911253 L 357.6363636363636 335.4292425031343 L 372.1818181818182 383.43419639728876 L 386.72727272727275 319.42759120508276 L 401.27272727272725 326.01650644545697 L 415.8181818181818 342.3319156120977 L 430.3636363636364 343.2731892178654 L 444.9090909090909 357.0785354357922 L 459.45454545454544 380.6103755799856 L 474 355.8235039614352 L 488.54545454545456 288.3655622147475 L 503.09090909090907 342.6456734806869 L 517.6363636363636 500.4658813810772 L 532.1818181818181 507.0547966214513 L 546.7272727272727 345.7832521665794" stroke-linejoin="bevel" stroke-miterlimit="10" stroke-width="2"/></g></g></g><g clip-path="url(#WGwkGivCLeZr)"><g><g><path fill="none" stroke="none"/><path fill="none" stroke="#542788" paint-order="fill stroke markers" d=" M 81.27272727272725 307.5190250631061 L 95.81818181818181 296.44795289649204 L 110.36363636363637 351.80331372956215 L 124.90909090909093 298.4161435038901 L 139.45454545454544 331.6293600037322 L 154 344.42259895181945 L 168.54545454545456 323.2645499222904 L 183.09090909090907 345.1606704295938 L 197.63636363636363 368.2869100665208 L 212.1818181818182 316.1298589704725 L 226.72727272727275 319.8202163593439 L 241.27272727272725 342.7004321703462 L 255.8181818181818 251.17956892633697 L 270.3636363636364 295.2178337668683 L 284.9090909090909 344.1765751258947 L 299.45454545454544 299.1542149816644 L 314 294.9718099409435 L 328.5454545454545 336.3038126963025 L 343.0909090909091 313.669620711225 L 357.6363636363636 303.09059619646047 L 372.1818181818182 349.8351231221641 L 386.72727272727275 277.99616595213536 L 401.27272727272725 289.31326194467414 L 415.8181818181818 318.59009722972013 L 430.3636363636364 288.08314281505034 L 444.9090909090909 316.1298589704725 L 459.45454545454544 308.7491441927299 L 474 290.7894049002227 L 488.54545454545456 236.41813937085158 L 503.09090909090907 343.68452747404524 L 517.6363636363636 460.0537971364548 L 532.1818181818181 497.6954425029425 L 546.7272727272727 362.62836207025146" stroke-linejoin="bevel" stroke-miterlimit="10" stroke-width="2"/></g></g></g><g clip-path="url(#tbSzfRwWsbkv)"><g><g><path fill="none" stroke="none"/><path fill="none" stroke="#A6CEE3" paint-order="fill stroke markers" d=" M 81.27272727272725 303.492634041401 L 95.81818181818181 333.77429342009174 L 110.36363636363637 362.0702702165732 L 124.90909090909093 333.77429342009174 L 139.45454545454544 361.57384957102084 L 154 396.3232947596823 L 168.54545454545456 303.98905468695335 L 183.09090909090907 334.27071406564403 L 197.63636363636363 386.8913024941885 L 212.1818181818182 341.2206031033763 L 226.72727272727275 308.9532611424764 L 241.27272727272725 387.8841437852931 L 255.8181818181818 296.54274500366876 L 270.3636363636364 333.77429342009174 L 284.9090909090909 360.58100827991626 L 299.45454545454544 330.2993489012256 L 314 309.4496817880287 L 328.5454545454545 347.6740714955563 L 343.0909090909091 315.90315018020874 L 357.6363636363636 332.78145212898715 L 372.1818181818182 386.8913024941885 L 386.72727272727275 334.27071406564403 L 401.27272727272725 330.2993489012256 L 415.8181818181818 388.8769850763977 L 430.3636363636364 321.86019792683635 L 444.9090909090909 366.04163538099164 L 459.45454545454544 366.5380560265439 L 474 331.29219019233017 L 488.54545454545456 244.91499786622887 L 503.09090909090907 344.69554762224243 L 517.6363636363636 495.11100322459123 L 532.1818181818181 511.4928845278173 L 546.7272727272727 349.1633334322132" stroke-linejoin="bevel" stroke-miterlimit="10" stroke-width="2"/></g></g></g><g clip-path="url(#RnrPdZXbRRli)"><g><g><path fill="none" stroke="none"/><path fill="none" stroke="#B2DF8A" paint-order="fill stroke markers" d=" M 81.27272727272725 377.8211343509681 L 95.81818181818181 343.8858489821906 L 110.36363636363637 389.3246209166554 L 124.90909090909093 326.63061913365976 L 139.45454545454544 392.7756668863616 L 154 410.03089673489256 L 168.54545454545456 303.0484716740008 L 183.09090909090907 365.1672991287121 L 197.63636363636363 397.9522358409209 L 212.1818181818182 339.2844543559157 L 226.72727272727275 361.71625315900593 L 241.27272727272725 378.9714830075369 L 255.8181818181818 278.8911498860575 L 270.3636363636364 319.153352865963 L 284.9090909090909 392.20049255807726 L 299.45454545454544 338.70928002763134 L 314 353.0886382347405 L 328.5454545454545 380.12183166410557 L 343.0909090909091 328.93131644679715 L 357.6363636363636 354.2389868913092 L 372.1818181818182 410.03089673489256 L 386.72727272727275 349.0624179367499 L 401.27272727272725 366.3176477852808 L 415.8181818181818 397.3770615126365 L 430.3636363636364 359.9907301741528 L 444.9090909090909 363.44177614385904 L 459.45454545454544 399.677758825774 L 474 374.9452627095463 L 488.54545454545456 260.4855713809578 L 503.09090909090907 365.7424734569965 L 517.6363636363636 476.1759444875944 L 532.1818181818181 508.38570687151883 L 546.7272727272727 378.9714830075369" stroke-linejoin="bevel" stroke-miterlimit="10" stroke-width="2"/></g></g></g><g><g/><g><path fill="#ffffff" stroke="#e5e5e5" paint-order="fill stroke markers" d=" M 68 38 L 472.421875 38 L 472.421875 193 L 68 193 L 68 38 Z" fill-opacity="0.95" stroke-linejoin="bevel" stroke-miterlimit="10" stroke-opacity="0.5"/><text fill="#444444" stroke="none" font-family="helvetica" font-size="10pt" font-style="normal" font-weight="normal" text-decoration="normal" x="103" y="58" text-anchor="start" dominant-baseline="central">sc5314_fluc_rep01_ACGCTG.fastqAligned.primary.out_dedup</text><g><path fill="none" stroke="#1F78B4" paint-order="fill stroke markers" d=" M 78 58 L 98 58" stroke-linejoin="bevel" stroke-miterlimit="10" stroke-width="2"/></g><text fill="#444444" stroke="none" font-family="helvetica" font-size="10pt" font-style="normal" font-weight="normal" text-decoration="normal" x="103" y="81" text-anchor="start" dominant-baseline="central">sc5314_fluc_rep02_GTGATC.fastqAligned.primary.out_dedup</text><g><path fill="none" stroke="#33A02C" paint-order="fill stroke markers" d=" M 78 81 L 98 81" stroke-linejoin="bevel" stroke-miterlimit="10" stroke-width="2"/></g><text fill="#444444" stroke="none" font-family="helvetica" font-size="10pt" font-style="normal" font-weight="normal" text-decoration="normal" x="103" y="104" text-anchor="start" dominant-baseline="central">sc5314_fluc_rep03_ACTGGT.fastqAligned.primary.out_dedup</text><g><path fill="none" stroke="#C51B7D" paint-order="fill stroke markers" d=" M 78 104 L 98 104" stroke-linejoin="bevel" stroke-miterlimit="10" stroke-width="2"/></g><text fill="#444444" stroke="none" font-family="helvetica" font-size="10pt" font-style="normal" font-weight="normal" text-decoration="normal" x="103" y="127" text-anchor="start" dominant-baseline="central">sc5314_ut_rep01_CGTGCA.fastqAligned.primary.out_dedup</text><g><path fill="none" stroke="#542788" paint-order="fill stroke markers" d=" M 78 127 L 98 127" stroke-linejoin="bevel" stroke-miterlimit="10" stroke-width="2"/></g><text fill="#444444" stroke="none" font-family="helvetica" font-size="10pt" font-style="normal" font-weight="normal" text-decoration="normal" x="103" y="150" text-anchor="start" dominant-baseline="central">sc5314_ut_rep02_TAATGT.fastqAligned.primary.out_dedup</text><g><path fill="none" stroke="#A6CEE3" paint-order="fill stroke markers" d=" M 78 150 L 98 150" stroke-linejoin="bevel" stroke-miterlimit="10" stroke-width="2"/></g><text fill="#444444" stroke="none" font-family="helvetica" font-size="10pt" font-style="normal" font-weight="normal" text-decoration="normal" x="103" y="173" text-anchor="start" dominant-baseline="central">sc5314_ut_rep03_CTACAC.fastqAligned.primary.out_dedup</text><g><path fill="none" stroke="#B2DF8A" paint-order="fill stroke markers" d=" M 78 173 L 98 173" stroke-linejoin="bevel" stroke-miterlimit="10" stroke-width="2"/></g></g></g><g><g fill="#444444"><path fill="" stroke="none" d=""/><g transform="translate(58,23)"><path fill="none" stroke="none"/><text fill="" stroke="none" font-family="helvetica" font-size="10pt" font-style="normal" font-weight="bold" text-decoration="normal" x="0" y="0" text-anchor="start" dominant-baseline="text-after-edge">GGG(GLY)-codon_scaled</text></g></g></g><g/><g><g fill="#444444"><path fill="none" stroke="black" paint-order="fill stroke markers" d=" M 58 555 L 570 555" stroke-linejoin="bevel" stroke-miterlimit="10"/><path fill="none" stroke="black" paint-order="fill stroke markers" d=" M 81 561 L 81 553" stroke-linejoin="bevel" stroke-miterlimit="10"/><path fill="none" stroke="black" paint-order="fill stroke markers" d=" M 154 561 L 154 553" stroke-linejoin="bevel" stroke-miterlimit="10"/><path fill="none" stroke="black" paint-order="fill stroke markers" d=" M 227 561 L 227 553" stroke-linejoin="bevel" stroke-miterlimit="10"/><path fill="none" stroke="black" paint-order="fill stroke markers" d=" M 299 561 L 299 553" stroke-linejoin="bevel" stroke-miterlimit="10"/><path fill="none" stroke="black" paint-order="fill stroke markers" d=" M 372 561 L 372 553" stroke-linejoin="bevel" stroke-miterlimit="10"/><path fill="none" stroke="black" paint-order="fill stroke markers" d=" M 445 561 L 445 553" stroke-linejoin="bevel" stroke-miterlimit="10"/><path fill="none" stroke="black" paint-order="fill stroke markers" d=" M 518 561 L 518 553" stroke-linejoin="bevel" stroke-miterlimit="10"/><path fill="none" stroke="black" paint-order="fill stroke markers" d=" M 67 559 L 67 555" stroke-linejoin="bevel" stroke-miterlimit="10"/><path fill="none" stroke="black" paint-order="fill stroke markers" d=" M 81 559 L 81 555" stroke-linejoin="bevel" stroke-miterlimit="10"/><path fill="none" stroke="black" paint-order="fill stroke markers" d=" M 96 559 L 96 555" stroke-linejoin="bevel" stroke-miterlimit="10"/><path fill="none" stroke="black" paint-order="fill stroke markers" d=" M 110 559 L 110 555" stroke-linejoin="bevel" stroke-miterlimit="10"/><path fill="none" stroke="black" paint-order="fill stroke markers" d=" M 125 559 L 125 555" stroke-linejoin="bevel" stroke-miterlimit="10"/><path fill="none" stroke="black" paint-order="fill stroke markers" d=" M 139 559 L 139 555" stroke-linejoin="bevel" stroke-miterlimit="10"/><path fill="none" stroke="black" paint-order="fill stroke markers" d=" M 154 559 L 154 555" stroke-linejoin="bevel" stroke-miterlimit="10"/><path fill="none" stroke="black" paint-order="fill stroke markers" d=" M 169 559 L 169 555" stroke-linejoin="bevel" stroke-miterlimit="10"/><path fill="none" stroke="black" paint-order="fill stroke markers" d=" M 183 559 L 183 555" stroke-linejoin="bevel" stroke-miterlimit="10"/><path fill="none" stroke="black" paint-order="fill stroke markers" d=" M 198 559 L 198 555" stroke-linejoin="bevel" stroke-miterlimit="10"/><path fill="none" stroke="black" paint-order="fill stroke markers" d=" M 212 559 L 212 555" stroke-linejoin="bevel" stroke-miterlimit="10"/><path fill="none" stroke="black" paint-order="fill stroke markers" d=" M 227 559 L 227 555" stroke-linejoin="bevel" stroke-miterlimit="10"/><path fill="none" stroke="black" paint-order="fill stroke markers" d=" M 241 559 L 241 555" stroke-linejoin="bevel" stroke-miterlimit="10"/><path fill="none" stroke="black" paint-order="fill stroke markers" d=" M 256 559 L 256 555" stroke-linejoin="bevel" stroke-miterlimit="10"/><path fill="none" stroke="black" paint-order="fill stroke markers" d=" M 270 559 L 270 555" stroke-linejoin="bevel" stroke-miterlimit="10"/><path fill="none" stroke="black" paint-order="fill stroke markers" d=" M 285 559 L 285 555" stroke-linejoin="bevel" stroke-miterlimit="10"/><path fill="none" stroke="black" paint-order="fill stroke markers" d=" M 299 559 L 299 555" stroke-linejoin="bevel" stroke-miterlimit="10"/><path fill="none" stroke="black" paint-order="fill stroke markers" d=" M 314 559 L 314 555" stroke-linejoin="bevel" stroke-miterlimit="10"/><path fill="none" stroke="black" paint-order="fill stroke markers" d=" M 329 559 L 329 555" stroke-linejoin="bevel" stroke-miterlimit="10"/><path fill="none" stroke="black" paint-order="fill stroke markers" d=" M 343 559 L 343 555" stroke-linejoin="bevel" stroke-miterlimit="10"/><path fill="none" stroke="black" paint-order="fill stroke markers" d=" M 358 559 L 358 555" stroke-linejoin="bevel" stroke-miterlimit="10"/><path fill="none" stroke="black" paint-order="fill stroke markers" d=" M 372 559 L 372 555" stroke-linejoin="bevel" stroke-miterlimit="10"/><path fill="none" stroke="black" paint-order="fill stroke markers" d=" M 387 559 L 387 555" stroke-linejoin="bevel" stroke-miterlimit="10"/><path fill="none" stroke="black" paint-order="fill stroke markers" d=" M 401 559 L 401 555" stroke-linejoin="bevel" stroke-miterlimit="10"/><path fill="none" stroke="black" paint-order="fill stroke markers" d=" M 416 559 L 416 555" stroke-linejoin="bevel" stroke-miterlimit="10"/><path fill="none" stroke="black" paint-order="fill stroke markers" d=" M 430 559 L 430 555" stroke-linejoin="bevel" stroke-miterlimit="10"/><path fill="none" stroke="black" paint-order="fill stroke markers" d=" M 445 559 L 445 555" stroke-linejoin="bevel" stroke-miterlimit="10"/><path fill="none" stroke="black" paint-order="fill stroke markers" d=" M 459 559 L 459 555" stroke-linejoin="bevel" stroke-miterlimit="10"/><path fill="none" stroke="black" paint-order="fill stroke markers" d=" M 474 559 L 474 555" stroke-linejoin="bevel" stroke-miterlimit="10"/><path fill="none" stroke="black" paint-order="fill stroke markers" d=" M 489 559 L 489 555" stroke-linejoin="bevel" stroke-miterlimit="10"/><path fill="none" stroke="black" paint-order="fill stroke markers" d=" M 503 559 L 503 555" stroke-linejoin="bevel" stroke-miterlimit="10"/><path fill="none" stroke="black" paint-order="fill stroke markers" d=" M 518 559 L 518 555" stroke-linejoin="bevel" stroke-miterlimit="10"/><path fill="none" stroke="black" paint-order="fill stroke markers" d=" M 532 559 L 532 555" stroke-linejoin="bevel" stroke-miterlimit="10"/><path fill="none" stroke="black" paint-order="fill stroke markers" d=" M 547 559 L 547 555" stroke-linejoin="bevel" stroke-miterlimit="10"/><path fill="" stroke="black" paint-order="fill stroke markers" d=" M 561 559 L 561 555" stroke-linejoin="bevel" stroke-miterlimit="10"/><g transform="translate(81,566) rotate(0,0,0)"><text fill="" stroke="none" font-family="helvetica" font-size="8pt" font-style="normal" font-weight="normal" text-decoration="normal" x="0" y="0" text-anchor="middle" dominant-baseline="hanging">-30</text><g transform="rotate(0,0,0) translate(-81,-566) translate(154,566) rotate(0,0,0)"><text fill="" stroke="none" font-family="helvetica" font-size="8pt" font-style="normal" font-weight="normal" text-decoration="normal" x="0" y="0" text-anchor="middle" dominant-baseline="hanging">-25</text><g transform="rotate(0,0,0) translate(-154,-566) translate(227,566) rotate(0,0,0)"><text fill="" stroke="none" font-family="helvetica" font-size="8pt" font-style="normal" font-weight="normal" text-decoration="normal" x="0" y="0" text-anchor="middle" dominant-baseline="hanging">-20</text><g transform="rotate(0,0,0) translate(-227,-566) translate(299,566) rotate(0,0,0)"><text fill="" stroke="none" font-family="helvetica" font-size="8pt" font-style="normal" font-weight="normal" text-decoration="normal" x="0" y="0" text-anchor="middle" dominant-baseline="hanging">-15</text><g transform="rotate(0,0,0) translate(-299,-566) translate(372,566) rotate(0,0,0)"><text fill="" stroke="none" font-family="helvetica" font-size="8pt" font-style="normal" font-weight="normal" text-decoration="normal" x="0" y="0" text-anchor="middle" dominant-baseline="hanging">-10</text><g transform="rotate(0,0,0) translate(-372,-566) translate(445,566) rotate(0,0,0)"><text fill="" stroke="none" font-family="helvetica" font-size="8pt" font-style="normal" font-weight="normal" text-decoration="normal" x="0" y="0" text-anchor="middle" dominant-baseline="hanging">-5</text><g transform="rotate(0,0,0) translate(-445,-566) translate(518,566) rotate(0,0,0)"><text fill="" stroke="none" font-family="helvetica" font-size="8pt" font-style="normal" font-weight="normal" text-decoration="normal" x="0" y="0" text-anchor="middle" dominant-baseline="hanging">0</text><g transform="rotate(0,0,0) translate(-518,-566) translate(314,584) rotate(0,0,0)"><text fill="" stroke="none" font-family="helvetica" font-size="10pt" font-style="italic" font-weight="normal" text-decoration="normal" x="0" y="0" text-anchor="middle" dominant-baseline="hanging">position from codon</text><g transform="rotate(0,0,0) translate(-314,-584)"/></g></g></g></g></g></g></g></g></g></g><g><g fill="#444444"><path fill="none" stroke="black" paint-order="fill stroke markers" d=" M 58 555 L 58 203" stroke-linejoin="bevel" stroke-miterlimit="10"/><path fill="none" stroke="black" paint-order="fill stroke markers" d=" M 52 529 L 60 529" stroke-linejoin="bevel" stroke-miterlimit="10"/><path fill="none" stroke="black" paint-order="fill stroke markers" d=" M 52 477 L 60 477" stroke-linejoin="bevel" stroke-miterlimit="10"/><path fill="none" stroke="black" paint-order="fill stroke markers" d=" M 52 425 L 60 425" stroke-linejoin="bevel" stroke-miterlimit="10"/><path fill="none" stroke="black" paint-order="fill stroke markers" d=" M 52 373 L 60 373" stroke-linejoin="bevel" stroke-miterlimit="10"/><path fill="none" stroke="black" paint-order="fill stroke markers" d=" M 52 321 L 60 321" stroke-linejoin="bevel" stroke-miterlimit="10"/><path fill="none" stroke="black" paint-order="fill stroke markers" d=" M 52 269 L 60 269" stroke-linejoin="bevel" stroke-miterlimit="10"/><path fill="none" stroke="black" paint-order="fill stroke markers" d=" M 52 217 L 60 217" stroke-linejoin="bevel" stroke-miterlimit="10"/><path fill="none" stroke="black" paint-order="fill stroke markers" d=" M 54 539 L 58 539" stroke-linejoin="bevel" stroke-miterlimit="10"/><path fill="none" stroke="black" paint-order="fill stroke markers" d=" M 54 550 L 58 550" stroke-linejoin="bevel" stroke-miterlimit="10"/><path fill="none" stroke="black" paint-order="fill stroke markers" d=" M 54 529 L 58 529" stroke-linejoin="bevel" stroke-miterlimit="10"/><path fill="none" stroke="black" paint-order="fill stroke markers" d=" M 54 519 L 58 519" stroke-linejoin="bevel" stroke-miterlimit="10"/><path fill="none" stroke="black" paint-order="fill stroke markers" d=" M 54 508 L 58 508" stroke-linejoin="bevel" stroke-miterlimit="10"/><path fill="none" stroke="black" paint-order="fill stroke markers" d=" M 54 498 L 58 498" stroke-linejoin="bevel" stroke-miterlimit="10"/><path fill="none" stroke="black" paint-order="fill stroke markers" d=" M 54 487 L 58 487" stroke-linejoin="bevel" stroke-miterlimit="10"/><path fill="none" stroke="black" paint-order="fill stroke markers" d=" M 54 477 L 58 477" stroke-linejoin="bevel" stroke-miterlimit="10"/><path fill="none" stroke="black" paint-order="fill stroke markers" d=" M 54 467 L 58 467" stroke-linejoin="bevel" stroke-miterlimit="10"/><path fill="none" stroke="black" paint-order="fill stroke markers" d=" M 54 456 L 58 456" stroke-linejoin="bevel" stroke-miterlimit="10"/><path fill="none" stroke="black" paint-order="fill stroke markers" d=" M 54 446 L 58 446" stroke-linejoin="bevel" stroke-miterlimit="10"/><path fill="none" stroke="black" paint-order="fill stroke markers" d=" M 54 435 L 58 435" stroke-linejoin="bevel" stroke-miterlimit="10"/><path fill="none" stroke="black" paint-order="fill stroke markers" d=" M 54 425 L 58 425" stroke-linejoin="bevel" stroke-miterlimit="10"/><path fill="none" stroke="black" paint-order="fill stroke markers" d=" M 54 415 L 58 415" stroke-linejoin="bevel" stroke-miterlimit="10"/><path fill="none" stroke="black" paint-order="fill stroke markers" d=" M 54 404 L 58 404" stroke-linejoin="bevel" stroke-miterlimit="10"/><path fill="none" stroke="black" paint-order="fill stroke markers" d=" M 54 394 L 58 394" stroke-linejoin="bevel" stroke-miterlimit="10"/><path fill="none" stroke="black" paint-order="fill stroke markers" d=" M 54 384 L 58 384" stroke-linejoin="bevel" stroke-miterlimit="10"/><path fill="none" stroke="black" paint-order="fill stroke markers" d=" M 54 373 L 58 373" stroke-linejoin="bevel" stroke-miterlimit="10"/><path fill="none" stroke="black" paint-order="fill stroke markers" d=" M 54 363 L 58 363" stroke-linejoin="bevel" stroke-miterlimit="10"/><path fill="none" stroke="black" paint-order="fill stroke markers" d=" M 54 352 L 58 352" stroke-linejoin="bevel" stroke-miterlimit="10"/><path fill="none" stroke="black" paint-order="fill stroke markers" d=" M 54 342 L 58 342" stroke-linejoin="bevel" stroke-miterlimit="10"/><path fill="none" stroke="black" paint-order="fill stroke markers" d=" M 54 332 L 58 332" stroke-linejoin="bevel" stroke-miterlimit="10"/><path fill="none" stroke="black" paint-order="fill stroke markers" d=" M 54 321 L 58 321" stroke-linejoin="bevel" stroke-miterlimit="10"/><path fill="none" stroke="black" paint-order="fill stroke markers" d=" M 54 311 L 58 311" stroke-linejoin="bevel" stroke-miterlimit="10"/><path fill="none" stroke="black" paint-order="fill stroke markers" d=" M 54 300 L 58 300" stroke-linejoin="bevel" stroke-miterlimit="10"/><path fill="none" stroke="black" paint-order="fill stroke markers" d=" M 54 290 L 58 290" stroke-linejoin="bevel" stroke-miterlimit="10"/><path fill="none" stroke="black" paint-order="fill stroke markers" d=" M 54 280 L 58 280" stroke-linejoin="bevel" stroke-miterlimit="10"/><path fill="none" stroke="black" paint-order="fill stroke markers" d=" M 54 269 L 58 269" stroke-linejoin="bevel" stroke-miterlimit="10"/><path fill="none" stroke="black" paint-order="fill stroke markers" d=" M 54 259 L 58 259" stroke-linejoin="bevel" stroke-miterlimit="10"/><path fill="none" stroke="black" paint-order="fill stroke markers" d=" M 54 249 L 58 249" stroke-linejoin="bevel" stroke-miterlimit="10"/><path fill="none" stroke="black" paint-order="fill stroke markers" d=" M 54 238 L 58 238" stroke-linejoin="bevel" stroke-miterlimit="10"/><path fill="none" stroke="black" paint-order="fill stroke markers" d=" M 54 228 L 58 228" stroke-linejoin="bevel" stroke-miterlimit="10"/><path fill="none" stroke="black" paint-order="fill stroke markers" d=" M 54 217 L 58 217" stroke-linejoin="bevel" stroke-miterlimit="10"/><path fill="" stroke="black" paint-order="fill stroke markers" d=" M 54 207 L 58 207" stroke-linejoin="bevel" stroke-miterlimit="10"/><g transform="translate(47,529) rotate(0,0,0)"><text fill="" stroke="none" font-family="helvetica" font-size="8pt" font-style="normal" font-weight="normal" text-decoration="normal" x="0" y="0" text-anchor="end" dominant-baseline="central">1000</text><g transform="rotate(0,0,0) translate(-47,-529) translate(47,477) rotate(0,0,0)"><text fill="" stroke="none" font-family="helvetica" font-size="8pt" font-style="normal" font-weight="normal" text-decoration="normal" x="0" y="0" text-anchor="end" dominant-baseline="central">1200</text><g transform="rotate(0,0,0) translate(-47,-477) translate(47,425) rotate(0,0,0)"><text fill="" stroke="none" font-family="helvetica" font-size="8pt" font-style="normal" font-weight="normal" text-decoration="normal" x="0" y="0" text-anchor="end" dominant-baseline="central">1400</text><g transform="rotate(0,0,0) translate(-47,-425) translate(47,373) rotate(0,0,0)"><text fill="" stroke="none" font-family="helvetica" font-size="8pt" font-style="normal" font-weight="normal" text-decoration="normal" x="0" y="0" text-anchor="end" dominant-baseline="central">1600</text><g transform="rotate(0,0,0) translate(-47,-373) translate(47,321) rotate(0,0,0)"><text fill="" stroke="none" font-family="helvetica" font-size="8pt" font-style="normal" font-weight="normal" text-decoration="normal" x="0" y="0" text-anchor="end" dominant-baseline="central">1800</text><g transform="rotate(0,0,0) translate(-47,-321) translate(47,269) rotate(0,0,0)"><text fill="" stroke="none" font-family="helvetica" font-size="8pt" font-style="normal" font-weight="normal" text-decoration="normal" x="0" y="0" text-anchor="end" dominant-baseline="central">2000</text><g transform="rotate(0,0,0) translate(-47,-269) translate(47,217) rotate(0,0,0)"><text fill="" stroke="none" font-family="helvetica" font-size="8pt" font-style="normal" font-weight="normal" text-decoration="normal" x="0" y="0" text-anchor="end" dominant-baseline="central">2200</text><g transform="rotate(0,0,0) translate(-47,-217) translate(15,379) rotate(-90,0,0)"><text fill="" stroke="none" font-family="helvetica" font-size="10pt" font-style="italic" font-weight="normal" text-decoration="normal" x="0" y="0" text-anchor="middle" dominant-baseline="alphabetic">5'seq RPM</text><g transform="rotate(90,0,0) translate(-15,-379)"/></g></g></g></g></g></g></g></g></g></g><g clip-path="url(#JhWEuDrWAFSb)"><g/></g></g></g></svg>