<svg version="1.1" xmlns="http://www.w3.org/2000/svg" xmlns:xlink="http://www.w3.org/1999/xlink" width="600" height="600" style="width: 600px; height: 600px;"><defs><clipPath id="wSoeOHOmFoec"><path fill="none" stroke="none" d=" M 65 203 L 570 203 L 570 555 L 65 555 L 65 203 Z"/></clipPath><clipPath id="AyQxtxgsXAcI"><path fill="none" stroke="none" d=" M 65 203 L 570 203 L 570 555 L 65 555 L 65 203 Z"/></clipPath><clipPath id="WGVeQmJZQHrk"><path fill="none" stroke="none" d=" M 65 203 L 570 203 L 570 555 L 65 555 L 65 203 Z"/></clipPath><clipPath id="OduAXdrlgNdz"><path fill="none" stroke="none" d=" M 65 203 L 570 203 L 570 555 L 65 555 L 65 203 Z"/></clipPath><clipPath id="QTKBDFSDzIwO"><path fill="none" stroke="none" d=" M 65 203 L 570 203 L 570 555 L 65 555 L 65 203 Z"/></clipPath><clipPath id="zVDPHwoQNXIC"><path fill="none" stroke="none" d=" M 65 203 L 570 203 L 570 555 L 65 555 L 65 203 Z"/></clipPath><clipPath id="CJlLUnDVRmGC"><path fill="none" stroke="none" d=" M 65 203 L 570 203 L 570 555 L 65 555 L 65 203 Z"/></clipPath><clipPath id="kEOcwcfWmxQV"><path fill="none" stroke="none" d=" M 65 203 L 570 203 L 570 555 L 65 555 L 65 203 Z"/></clipPath><clipPath id="aHaAhlUJnSMc"><path fill="none" stroke="none" d=" M 65 203 L 570 203 L 570 555 L 65 555 L 65 203 Z"/></clipPath></defs><g><g/><g/><g/><g transform="scale(1,1) translate(0.5,0.5)"><rect fill="#FFFFFF" stroke="none" x="0" y="0" width="600" height="600"/><rect fill="#ffffff" stroke="none" x="0" y="0" width="600" height="600"/><rect fill="#FFFFFF" stroke="none" x="65" y="203" width="505" height="352"/><rect fill="#ffffff" stroke="none" x="65" y="203" width="505" height="352"/><g><rect fill="none" stroke="#e5e5e5" x="65" y="203" width="505" height="352" stroke-linejoin="bevel" stroke-miterlimit="10"/></g><g clip-path="url(#wSoeOHOmFoec)"><g><g><path fill="none" stroke="#e5e5e5" paint-order="fill stroke markers" d=" M 88 555 L 88 203" stroke-linejoin="bevel" stroke-miterlimit="10"/><path fill="none" stroke="#e5e5e5" paint-order="fill stroke markers" d=" M 160 555 L 160 203" stroke-linejoin="bevel" stroke-miterlimit="10"/><path fill="none" stroke="#e5e5e5" paint-order="fill stroke markers" d=" M 231 555 L 231 203" stroke-linejoin="bevel" stroke-miterlimit="10"/><path fill="none" stroke="#e5e5e5" paint-order="fill stroke markers" d=" M 303 555 L 303 203" stroke-linejoin="bevel" stroke-miterlimit="10"/><path fill="none" stroke="#e5e5e5" paint-order="fill stroke markers" d=" M 375 555 L 375 203" stroke-linejoin="bevel" stroke-miterlimit="10"/><path fill="none" stroke="#e5e5e5" paint-order="fill stroke markers" d=" M 447 555 L 447 203" stroke-linejoin="bevel" stroke-miterlimit="10"/><path fill="none" stroke="#e5e5e5" paint-order="fill stroke markers" d=" M 518 555 L 518 203" stroke-linejoin="bevel" stroke-miterlimit="10"/></g></g></g><g clip-path="url(#AyQxtxgsXAcI)"><g><g><path fill="none" stroke="#e5e5e5" paint-order="fill stroke markers" d=" M 65 480 L 570 480" stroke-linejoin="bevel" stroke-miterlimit="10"/><path fill="none" stroke="#e5e5e5" paint-order="fill stroke markers" d=" M 65 393 L 570 393" stroke-linejoin="bevel" stroke-miterlimit="10"/><path fill="none" stroke="#e5e5e5" paint-order="fill stroke markers" d=" M 65 306 L 570 306" stroke-linejoin="bevel" stroke-miterlimit="10"/><path fill="none" stroke="#e5e5e5" paint-order="fill stroke markers" d=" M 65 219 L 570 219" stroke-linejoin="bevel" stroke-miterlimit="10"/></g></g></g><g clip-path="url(#WGVeQmJZQHrk)"><g><g><path fill="none" stroke="none"/><path fill="none" stroke="#1F78B4" paint-order="fill stroke markers" d=" M 87.9545454545455 281.8209531131762 L 102.30113636363643 315.5267311166249 L 116.64772727272731 372.599091416943 L 130.99431818181824 291.16758603192386 L 145.34090909090912 307.46215846549296 L 159.68750000000006 366.02336294755844 L 174.03409090909093 285.25356608776053 L 188.38068181818187 306.59366602614034 L 202.72727272727275 361.18461935687935 L 217.07386363636368 279.9185411031656 L 231.42045454545456 314.2860276318354 L 245.7670454545455 357.79336316512126 L 260.1136363636364 240.4641702868587 L 274.4602272727273 273.1773855024758 L 288.80681818181824 364.8653730284216 L 303.1534090909091 263.4998983211176 L 317.5 255.47668245281181 L 331.84659090909093 354.484820539016 L 346.19318181818187 294.2693447438977 L 360.53977272727275 294.10391761259234 L 374.8863636363636 372.43366428563775 L 389.23295454545456 268.1318579976652 L 403.5795454545455 281.1178878051287 L 417.9261363636364 372.10281002302713 L 432.2727272727273 307.91708307658246 L 446.6193181818182 315.4026607681459 L 460.9659090909091 396.1724576279439 L 475.3125 321.0271832325251 L 489.65909090909093 219 L 504.0056818181818 413.252808935213 L 518.3522727272727 526.4876803136701 L 532.6988636363636 474.8330585635997 L 547.0454545454546 494.68431432023203" stroke-linejoin="bevel" stroke-miterlimit="10" stroke-width="2"/></g></g></g><g clip-path="url(#OduAXdrlgNdz)"><g><g><path fill="none" stroke="none"/><path fill="none" stroke="#33A02C" paint-order="fill stroke markers" d=" M 87.9545454545455 301.3081408326633 L 102.30113636363643 311.46079603085286 L 116.64772727272731 349.1060373350309 L 130.99431818181824 307.64098516420734 L 145.34090909090912 318.9998964255482 L 159.68750000000006 339.90833485350277 L 174.03409090909093 300.3029274467041 L 188.38068181818187 296.03077055637686 L 202.72727272727275 357.0974837534078 L 217.07386363636368 291.0549642958779 L 231.42045454545456 317.7936403623969 L 245.7670454545455 323.82492067815315 L 260.1136363636364 241.7492477145713 L 274.4602272727273 281.25413378277415 L 288.80681818181824 348.0003026104756 L 303.1534090909091 270.4480898837111 L 317.5 246.67479330577225 L 331.84659090909093 321.1611052053606 L 346.19318181818187 304.02221697475363 L 360.53977272727275 277.5851049240225 L 374.8863636363636 322.56840394570395 L 389.23295454545456 265.673326300404 L 403.5795454545455 271.1517392538826 L 417.9261363636364 321.9150152448302 L 432.2727272727273 310.35506130629767 L 446.6193181818182 309.04828390455043 L 460.9659090909091 358.2032184779632 L 475.3125 322.76944662289566 L 489.65909090909093 223.2030607436211 L 504.0056818181818 381.82573304800803 L 518.3522727272727 514.7149426718354 L 532.6988636363636 451.78858471077945 L 547.0454545454546 509.3873117262508" stroke-linejoin="bevel" stroke-miterlimit="10" stroke-width="2"/></g></g></g><g clip-path="url(#QTKBDFSDzIwO)"><g><g><path fill="none" stroke="none"/><path fill="none" stroke="#C51B7D" paint-order="fill stroke markers" d=" M 87.9545454545455 296.2379878089372 L 102.30113636363643 336.3176807733719 L 116.64772727272731 347.19120166935886 L 130.99431818181824 304.64264164158396 L 145.34090909090912 326.80991612519017 L 159.68750000000006 330.224306744703 L 174.03409090909093 309.0025558172697 L 188.38068181818187 308.214619520459 L 202.72727272727275 347.4013180151751 L 217.07386363636368 305.5356361113028 L 231.42045454545456 321.1367747881536 L 245.7670454545455 333.1134064996753 L 260.1136363636364 272.3372534723477 L 274.4602272727273 302.3838909240601 L 288.80681818181824 333.7437555371238 L 303.1534090909091 289.04150296473324 L 317.5 274.1232424117851 L 331.84659090909093 329.4888995343464 L 346.19318181818187 325.5492180502931 L 360.53977272727275 303.1192981344168 L 374.8863636363636 351.23594132632024 L 389.23295454545456 299.33720390972564 L 403.5795454545455 297.70880222965036 L 417.9261363636364 325.81186348256347 L 432.2727272727273 340.047245911609 L 446.6193181818182 337.1581461566367 L 460.9659090909091 364.6833874585552 L 475.3125 337.5258497618149 L 489.65909090909093 254.37230590506488 L 504.0056818181818 378.2884208501523 L 518.3522727272727 487.02362981002125 L 532.6988636363636 445.84082603005163 L 547.0454545454546 492.32906754187957" stroke-linejoin="bevel" stroke-miterlimit="10" stroke-width="2"/></g></g></g><g clip-path="url(#zVDPHwoQNXIC)"><g><g><path fill="none" stroke="none"/><path fill="none" stroke="#542788" paint-order="fill stroke markers" d=" M 87.9545454545455 273.68290059826654 L 102.30113636363643 308.61126441627823 L 116.64772727272731 351.36555880672165 L 130.99431818181824 266.06291556721453 L 145.34090909090912 309.3938574735214 L 159.68750000000006 340.9035253046285 L 174.03409090909093 279.40818664862456 L 188.38068181818187 302.02100709212516 L 202.72727272727275 358.16176167225467 L 217.07386363636368 267.9164254396326 L 231.42045454545456 306.63418721903236 L 245.7670454545455 338.1850441584154 L 260.1136363636364 230.59909334161546 L 274.4602272727273 275.6599777955124 L 288.80681818181824 340.49163422186905 L 303.1534090909091 250.41105442235084 L 317.5 251.89386232028528 L 331.84659090909093 329.28819677080867 L 346.19318181818187 282.29142422794155 L 360.53977272727275 276.2778144196519 L 374.8863636363636 343.9103302087734 L 389.23295454545456 251.23483658787006 L 403.5795454545455 267.504534356873 L 417.9261363636364 336.2903451777214 L 432.2727272727273 282.2502351196657 L 446.6193181818182 298.8082566466005 L 460.9659090909091 357.9558161308747 L 475.3125 305.892783270065 L 489.65909090909093 247.40424951820592 L 504.0056818181818 364.50488434675196 L 518.3522727272727 391.36018294267603 L 532.6988636363636 409.56576880064904 L 547.0454545454546 493.9210625498091" stroke-linejoin="bevel" stroke-miterlimit="10" stroke-width="2"/></g></g></g><g clip-path="url(#CJlLUnDVRmGC)"><g><g><path fill="none" stroke="none"/><path fill="none" stroke="#A6CEE3" paint-order="fill stroke markers" d=" M 87.9545454545455 296.1515877152059 L 102.30113636363643 342.27782618819026 L 116.64772727272731 354.6612667872438 L 130.99431818181824 296.8995807715245 L 145.34090909090912 324.4922135157243 L 159.68750000000006 353.5808323725613 L 174.03409090909093 295.0711533005234 L 188.38068181818187 323.8273307989965 L 202.72727272727275 360.8945422565662 L 217.07386363636368 298.6448979029349 L 231.42045454545456 325.6557582699978 L 245.7670454545455 358.48434240842823 L 260.1136363636364 254.51330758013341 L 274.4602272727273 309.1999110309871 L 288.80681818181824 350.090198109741 L 303.1534090909091 285.0979125496078 L 317.5 291.33118801893 L 331.84659090909093 354.82748746642574 L 346.19318181818187 327.0686340430442 L 360.53977272727275 314.68519344399067 L 374.8863636363636 360.8945422565662 L 389.23295454545456 296.31780839438784 L 403.5795454545455 314.7683037835816 L 417.9261363636364 353.2483910141974 L 432.2727272727273 353.33150135378855 L 446.6193181818182 349.0928740346493 L 460.9659090909091 402.44971205204763 L 475.3125 364.21895584020467 L 489.65909090909093 276.0388855341928 L 504.0056818181818 429.37746207951966 L 518.3522727272727 538.9999999999999 L 532.6988636363636 452.2328054670345 L 547.0454545454546 500.18747141102017" stroke-linejoin="bevel" stroke-miterlimit="10" stroke-width="2"/></g></g></g><g clip-path="url(#kEOcwcfWmxQV)"><g><g><path fill="none" stroke="none"/><path fill="none" stroke="#B2DF8A" paint-order="fill stroke markers" d=" M 87.9545454545455 293.1969990669969 L 102.30113636363643 329.692886280205 L 116.64772727272731 366.47765914417744 L 130.99431818181824 299.07100729920194 L 145.34090909090912 341.53719796153655 L 159.68750000000006 365.129526107278 L 174.03409090909093 274.9009078519322 L 188.38068181818187 308.60423377442 L 202.72727272727275 373.9886860640463 L 217.07386363636368 287.3229908347919 L 231.42045454545456 340.67054100924395 L 245.7670454545455 360.3147652612083 L 260.1136363636364 225.79034722202152 L 274.4602272727273 292.9081134162327 L 288.80681818181824 368.21097304876264 L 303.1534090909091 269.21949005356987 L 317.5 265.7528622443998 L 331.84659090909093 341.0557218769296 L 346.19318181818187 277.6934691426526 L 360.53977272727275 293.1969990669969 L 374.8863636363636 332.77433322168963 L 389.23295454545456 252.94559839385454 L 403.5795454545455 302.5376351083722 L 417.9261363636364 369.9442869533476 L 432.2727272727273 324.300354132607 L 446.6193181818182 326.51514412179904 L 460.9659090909091 401.7217085374075 L 475.3125 338.64834145389466 L 489.65909090909093 261.41957748293703 L 504.0056818181818 400.37357550050797 L 518.3522727272727 480.9726720637144 L 532.6988636363636 465.27655170552737 L 547.0454545454546 532.972089201267" stroke-linejoin="bevel" stroke-miterlimit="10" stroke-width="2"/></g></g></g><g><g/><g><path fill="#ffffff" stroke="#e5e5e5" paint-order="fill stroke markers" d=" M 75 38 L 479.421875 38 L 479.421875 193 L 75 193 L 75 38 Z" fill-opacity="0.95" stroke-linejoin="bevel" stroke-miterlimit="10" stroke-opacity="0.5"/><text fill="#444444" stroke="none" font-family="helvetica" font-size="10pt" font-style="normal" font-weight="normal" text-decoration="normal" x="110" y="58" text-anchor="start" dominant-baseline="central">sc5314_fluc_rep01_ACGCTG.fastqAligned.primary.out_dedup</text><g><path fill="none" stroke="#1F78B4" paint-order="fill stroke markers" d=" M 85 58 L 105 58" stroke-linejoin="bevel" stroke-miterlimit="10" stroke-width="2"/></g><text fill="#444444" stroke="none" font-family="helvetica" font-size="10pt" font-style="normal" font-weight="normal" text-decoration="normal" x="110" y="81" text-anchor="start" dominant-baseline="central">sc5314_fluc_rep02_GTGATC.fastqAligned.primary.out_dedup</text><g><path fill="none" stroke="#33A02C" paint-order="fill stroke markers" d=" M 85 81 L 105 81" stroke-linejoin="bevel" stroke-miterlimit="10" stroke-width="2"/></g><text fill="#444444" stroke="none" font-family="helvetica" font-size="10pt" font-style="normal" font-weight="normal" text-decoration="normal" x="110" y="104" text-anchor="start" dominant-baseline="central">sc5314_fluc_rep03_ACTGGT.fastqAligned.primary.out_dedup</text><g><path fill="none" stroke="#C51B7D" paint-order="fill stroke markers" d=" M 85 104 L 105 104" stroke-linejoin="bevel" stroke-miterlimit="10" stroke-width="2"/></g><text fill="#444444" stroke="none" font-family="helvetica" font-size="10pt" font-style="normal" font-weight="normal" text-decoration="normal" x="110" y="127" text-anchor="start" dominant-baseline="central">sc5314_ut_rep01_CGTGCA.fastqAligned.primary.out_dedup</text><g><path fill="none" stroke="#542788" paint-order="fill stroke markers" d=" M 85 127 L 105 127" stroke-linejoin="bevel" stroke-miterlimit="10" stroke-width="2"/></g><text fill="#444444" stroke="none" font-family="helvetica" font-size="10pt" font-style="normal" font-weight="normal" text-decoration="normal" x="110" y="150" text-anchor="start" dominant-baseline="central">sc5314_ut_rep02_TAATGT.fastqAligned.primary.out_dedup</text><g><path fill="none" stroke="#A6CEE3" paint-order="fill stroke markers" d=" M 85 150 L 105 150" stroke-linejoin="bevel" stroke-miterlimit="10" stroke-width="2"/></g><text fill="#444444" stroke="none" font-family="helvetica" font-size="10pt" font-style="normal" font-weight="normal" text-decoration="normal" x="110" y="173" text-anchor="start" dominant-baseline="central">sc5314_ut_rep03_CTACAC.fastqAligned.primary.out_dedup</text><g><path fill="none" stroke="#B2DF8A" paint-order="fill stroke markers" d=" M 85 173 L 105 173" stroke-linejoin="bevel" stroke-miterlimit="10" stroke-width="2"/></g></g></g><g><g fill="#444444"><path fill="" stroke="none" d=""/><g transform="translate(65,23)"><path fill="none" stroke="none"/><text fill="" stroke="none" font-family="helvetica" font-size="10pt" font-style="normal" font-weight="bold" text-decoration="normal" x="0" y="0" text-anchor="start" dominant-baseline="text-after-edge">GLY-codon_scaled</text></g></g></g><g/><g><g fill="#444444"><path fill="none" stroke="black" paint-order="fill stroke markers" d=" M 65 555 L 570 555" stroke-linejoin="bevel" stroke-miterlimit="10"/><path fill="none" stroke="black" paint-order="fill stroke markers" d=" M 88 561 L 88 553" stroke-linejoin="bevel" stroke-miterlimit="10"/><path fill="none" stroke="black" paint-order="fill stroke markers" d=" M 160 561 L 160 553" stroke-linejoin="bevel" stroke-miterlimit="10"/><path fill="none" stroke="black" paint-order="fill stroke markers" d=" M 231 561 L 231 553" stroke-linejoin="bevel" stroke-miterlimit="10"/><path fill="none" stroke="black" paint-order="fill stroke markers" d=" M 303 561 L 303 553" stroke-linejoin="bevel" stroke-miterlimit="10"/><path fill="none" stroke="black" paint-order="fill stroke markers" d=" M 375 561 L 375 553" stroke-linejoin="bevel" stroke-miterlimit="10"/><path fill="none" stroke="black" paint-order="fill stroke markers" d=" M 447 561 L 447 553" stroke-linejoin="bevel" stroke-miterlimit="10"/><path fill="none" stroke="black" paint-order="fill stroke markers" d=" M 518 561 L 518 553" stroke-linejoin="bevel" stroke-miterlimit="10"/><path fill="none" stroke="black" paint-order="fill stroke markers" d=" M 74 559 L 74 555" stroke-linejoin="bevel" stroke-miterlimit="10"/><path fill="none" stroke="black" paint-order="fill stroke markers" d=" M 88 559 L 88 555" stroke-linejoin="bevel" stroke-miterlimit="10"/><path fill="none" stroke="black" paint-order="fill stroke markers" d=" M 102 559 L 102 555" stroke-linejoin="bevel" stroke-miterlimit="10"/><path fill="none" stroke="black" paint-order="fill stroke markers" d=" M 117 559 L 117 555" stroke-linejoin="bevel" stroke-miterlimit="10"/><path fill="none" stroke="black" paint-order="fill stroke markers" d=" M 131 559 L 131 555" stroke-linejoin="bevel" stroke-miterlimit="10"/><path fill="none" stroke="black" paint-order="fill stroke markers" d=" M 145 559 L 145 555" stroke-linejoin="bevel" stroke-miterlimit="10"/><path fill="none" stroke="black" paint-order="fill stroke markers" d=" M 160 559 L 160 555" stroke-linejoin="bevel" stroke-miterlimit="10"/><path fill="none" stroke="black" paint-order="fill stroke markers" d=" M 174 559 L 174 555" stroke-linejoin="bevel" stroke-miterlimit="10"/><path fill="none" stroke="black" paint-order="fill stroke markers" d=" M 188 559 L 188 555" stroke-linejoin="bevel" stroke-miterlimit="10"/><path fill="none" stroke="black" paint-order="fill stroke markers" d=" M 203 559 L 203 555" stroke-linejoin="bevel" stroke-miterlimit="10"/><path fill="none" stroke="black" paint-order="fill stroke markers" d=" M 217 559 L 217 555" stroke-linejoin="bevel" stroke-miterlimit="10"/><path fill="none" stroke="black" paint-order="fill stroke markers" d=" M 231 559 L 231 555" stroke-linejoin="bevel" stroke-miterlimit="10"/><path fill="none" stroke="black" paint-order="fill stroke markers" d=" M 246 559 L 246 555" stroke-linejoin="bevel" stroke-miterlimit="10"/><path fill="none" stroke="black" paint-order="fill stroke markers" d=" M 260 559 L 260 555" stroke-linejoin="bevel" stroke-miterlimit="10"/><path fill="none" stroke="black" paint-order="fill stroke markers" d=" M 274 559 L 274 555" stroke-linejoin="bevel" stroke-miterlimit="10"/><path fill="none" stroke="black" paint-order="fill stroke markers" d=" M 289 559 L 289 555" stroke-linejoin="bevel" stroke-miterlimit="10"/><path fill="none" stroke="black" paint-order="fill stroke markers" d=" M 303 559 L 303 555" stroke-linejoin="bevel" stroke-miterlimit="10"/><path fill="none" stroke="black" paint-order="fill stroke markers" d=" M 318 559 L 318 555" stroke-linejoin="bevel" stroke-miterlimit="10"/><path fill="none" stroke="black" paint-order="fill stroke markers" d=" M 332 559 L 332 555" stroke-linejoin="bevel" stroke-miterlimit="10"/><path fill="none" stroke="black" paint-order="fill stroke markers" d=" M 346 559 L 346 555" stroke-linejoin="bevel" stroke-miterlimit="10"/><path fill="none" stroke="black" paint-order="fill stroke markers" d=" M 361 559 L 361 555" stroke-linejoin="bevel" stroke-miterlimit="10"/><path fill="none" stroke="black" paint-order="fill stroke markers" d=" M 375 559 L 375 555" stroke-linejoin="bevel" stroke-miterlimit="10"/><path fill="none" stroke="black" paint-order="fill stroke markers" d=" M 389 559 L 389 555" stroke-linejoin="bevel" stroke-miterlimit="10"/><path fill="none" stroke="black" paint-order="fill stroke markers" d=" M 404 559 L 404 555" stroke-linejoin="bevel" stroke-miterlimit="10"/><path fill="none" stroke="black" paint-order="fill stroke markers" d=" M 418 559 L 418 555" stroke-linejoin="bevel" stroke-miterlimit="10"/><path fill="none" stroke="black" paint-order="fill stroke markers" d=" M 432 559 L 432 555" stroke-linejoin="bevel" stroke-miterlimit="10"/><path fill="none" stroke="black" paint-order="fill stroke markers" d=" M 447 559 L 447 555" stroke-linejoin="bevel" stroke-miterlimit="10"/><path fill="none" stroke="black" paint-order="fill stroke markers" d=" M 461 559 L 461 555" stroke-linejoin="bevel" stroke-miterlimit="10"/><path fill="none" stroke="black" paint-order="fill stroke markers" d=" M 475 559 L 475 555" stroke-linejoin="bevel" stroke-miterlimit="10"/><path fill="none" stroke="black" paint-order="fill stroke markers" d=" M 490 559 L 490 555" stroke-linejoin="bevel" stroke-miterlimit="10"/><path fill="none" stroke="black" paint-order="fill stroke markers" d=" M 504 559 L 504 555" stroke-linejoin="bevel" stroke-miterlimit="10"/><path fill="none" stroke="black" paint-order="fill stroke markers" d=" M 518 559 L 518 555" stroke-linejoin="bevel" stroke-miterlimit="10"/><path fill="none" stroke="black" paint-order="fill stroke markers" d=" M 533 559 L 533 555" stroke-linejoin="bevel" stroke-miterlimit="10"/><path fill="none" stroke="black" paint-order="fill stroke markers" d=" M 547 559 L 547 555" stroke-linejoin="bevel" stroke-miterlimit="10"/><path fill="" stroke="black" paint-order="fill stroke markers" d=" M 561 559 L 561 555" stroke-linejoin="bevel" stroke-miterlimit="10"/><g transform="translate(88,566) rotate(0,0,0)"><text fill="" stroke="none" font-family="helvetica" font-size="8pt" font-style="normal" font-weight="normal" text-decoration="normal" x="0" y="0" text-anchor="middle" dominant-baseline="hanging">-30</text><g transform="rotate(0,0,0) translate(-88,-566) translate(160,566) rotate(0,0,0)"><text fill="" stroke="none" font-family="helvetica" font-size="8pt" font-style="normal" font-weight="normal" text-decoration="normal" x="0" y="0" text-anchor="middle" dominant-baseline="hanging">-25</text><g transform="rotate(0,0,0) translate(-160,-566) translate(231,566) rotate(0,0,0)"><text fill="" stroke="none" font-family="helvetica" font-size="8pt" font-style="normal" font-weight="normal" text-decoration="normal" x="0" y="0" text-anchor="middle" dominant-baseline="hanging">-20</text><g transform="rotate(0,0,0) translate(-231,-566) translate(303,566) rotate(0,0,0)"><text fill="" stroke="none" font-family="helvetica" font-size="8pt" font-style="normal" font-weight="normal" text-decoration="normal" x="0" y="0" text-anchor="middle" dominant-baseline="hanging">-15</text><g transform="rotate(0,0,0) translate(-303,-566) translate(375,566) rotate(0,0,0)"><text fill="" stroke="none" font-family="helvetica" font-size="8pt" font-style="normal" font-weight="normal" text-decoration="normal" x="0" y="0" text-anchor="middle" dominant-baseline="hanging">-10</text><g transform="rotate(0,0,0) translate(-375,-566) translate(447,566) rotate(0,0,0)"><text fill="" stroke="none" font-family="helvetica" font-size="8pt" font-style="normal" font-weight="normal" text-decoration="normal" x="0" y="0" text-anchor="middle" dominant-baseline="hanging">-5</text><g transform="rotate(0,0,0) translate(-447,-566) translate(518,566) rotate(0,0,0)"><text fill="" stroke="none" font-family="helvetica" font-size="8pt" font-style="normal" font-weight="normal" text-decoration="normal" x="0" y="0" text-anchor="middle" dominant-baseline="hanging">0</text><g transform="rotate(0,0,0) translate(-518,-566) translate(318,584) rotate(0,0,0)"><text fill="" stroke="none" font-family="helvetica" font-size="10pt" font-style="italic" font-weight="normal" text-decoration="normal" x="0" y="0" text-anchor="middle" dominant-baseline="hanging">position from codon</text><g transform="rotate(0,0,0) translate(-318,-584)"/></g></g></g></g></g></g></g></g></g></g><g><g fill="#444444"><path fill="none" stroke="black" paint-order="fill stroke markers" d=" M 65 555 L 65 203" stroke-linejoin="bevel" stroke-miterlimit="10"/><path fill="none" stroke="black" paint-order="fill stroke markers" d=" M 59 480 L 67 480" stroke-linejoin="bevel" stroke-miterlimit="10"/><path fill="none" stroke="black" paint-order="fill stroke markers" d=" M 59 393 L 67 393" stroke-linejoin="bevel" stroke-miterlimit="10"/><path fill="none" stroke="black" paint-order="fill stroke markers" d=" M 59 306 L 67 306" stroke-linejoin="bevel" stroke-miterlimit="10"/><path fill="none" stroke="black" paint-order="fill stroke markers" d=" M 59 219 L 67 219" stroke-linejoin="bevel" stroke-miterlimit="10"/><path fill="none" stroke="black" paint-order="fill stroke markers" d=" M 61 498 L 65 498" stroke-linejoin="bevel" stroke-miterlimit="10"/><path fill="none" stroke="black" paint-order="fill stroke markers" d=" M 61 515 L 65 515" stroke-linejoin="bevel" stroke-miterlimit="10"/><path fill="none" stroke="black" paint-order="fill stroke markers" d=" M 61 532 L 65 532" stroke-linejoin="bevel" stroke-miterlimit="10"/><path fill="none" stroke="black" paint-order="fill stroke markers" d=" M 61 550 L 65 550" stroke-linejoin="bevel" stroke-miterlimit="10"/><path fill="none" stroke="black" paint-order="fill stroke markers" d=" M 61 480 L 65 480" stroke-linejoin="bevel" stroke-miterlimit="10"/><path fill="none" stroke="black" paint-order="fill stroke markers" d=" M 61 463 L 65 463" stroke-linejoin="bevel" stroke-miterlimit="10"/><path fill="none" stroke="black" paint-order="fill stroke markers" d=" M 61 445 L 65 445" stroke-linejoin="bevel" stroke-miterlimit="10"/><path fill="none" stroke="black" paint-order="fill stroke markers" d=" M 61 428 L 65 428" stroke-linejoin="bevel" stroke-miterlimit="10"/><path fill="none" stroke="black" paint-order="fill stroke markers" d=" M 61 411 L 65 411" stroke-linejoin="bevel" stroke-miterlimit="10"/><path fill="none" stroke="black" paint-order="fill stroke markers" d=" M 61 393 L 65 393" stroke-linejoin="bevel" stroke-miterlimit="10"/><path fill="none" stroke="black" paint-order="fill stroke markers" d=" M 61 376 L 65 376" stroke-linejoin="bevel" stroke-miterlimit="10"/><path fill="none" stroke="black" paint-order="fill stroke markers" d=" M 61 359 L 65 359" stroke-linejoin="bevel" stroke-miterlimit="10"/><path fill="none" stroke="black" paint-order="fill stroke markers" d=" M 61 341 L 65 341" stroke-linejoin="bevel" stroke-miterlimit="10"/><path fill="none" stroke="black" paint-order="fill stroke markers" d=" M 61 324 L 65 324" stroke-linejoin="bevel" stroke-miterlimit="10"/><path fill="none" stroke="black" paint-order="fill stroke markers" d=" M 61 306 L 65 306" stroke-linejoin="bevel" stroke-miterlimit="10"/><path fill="none" stroke="black" paint-order="fill stroke markers" d=" M 61 289 L 65 289" stroke-linejoin="bevel" stroke-miterlimit="10"/><path fill="none" stroke="black" paint-order="fill stroke markers" d=" M 61 272 L 65 272" stroke-linejoin="bevel" stroke-miterlimit="10"/><path fill="none" stroke="black" paint-order="fill stroke markers" d=" M 61 254 L 65 254" stroke-linejoin="bevel" stroke-miterlimit="10"/><path fill="none" stroke="black" paint-order="fill stroke markers" d=" M 61 237 L 65 237" stroke-linejoin="bevel" stroke-miterlimit="10"/><path fill="" stroke="black" paint-order="fill stroke markers" d=" M 61 219 L 65 219" stroke-linejoin="bevel" stroke-miterlimit="10"/><g transform="translate(54,480) rotate(0,0,0)"><text fill="" stroke="none" font-family="helvetica" font-size="8pt" font-style="normal" font-weight="normal" text-decoration="normal" x="0" y="0" text-anchor="end" dominant-baseline="central">14000</text><g transform="rotate(0,0,0) translate(-54,-480) translate(54,393) rotate(0,0,0)"><text fill="" stroke="none" font-family="helvetica" font-size="8pt" font-style="normal" font-weight="normal" text-decoration="normal" x="0" y="0" text-anchor="end" dominant-baseline="central">16000</text><g transform="rotate(0,0,0) translate(-54,-393) translate(54,306) rotate(0,0,0)"><text fill="" stroke="none" font-family="helvetica" font-size="8pt" font-style="normal" font-weight="normal" text-decoration="normal" x="0" y="0" text-anchor="end" dominant-baseline="central">18000</text><g transform="rotate(0,0,0) translate(-54,-306) translate(54,219) rotate(0,0,0)"><text fill="" stroke="none" font-family="helvetica" font-size="8pt" font-style="normal" font-weight="normal" text-decoration="normal" x="0" y="0" text-anchor="end" dominant-baseline="central">20000</text><g transform="rotate(0,0,0) translate(-54,-219) translate(15,379) rotate(-90,0,0)"><text fill="" stroke="none" font-family="helvetica" font-size="10pt" font-style="italic" font-weight="normal" text-decoration="normal" x="0" y="0" text-anchor="middle" dominant-baseline="alphabetic">5'seq RPM</text><g transform="rotate(90,0,0) translate(-15,-379)"/></g></g></g></g></g></g></g><g clip-path="url(#aHaAhlUJnSMc)"><g/></g></g></g></svg>