<svg version="1.1" xmlns="http://www.w3.org/2000/svg" xmlns:xlink="http://www.w3.org/1999/xlink" width="600" height="600" style="width: 600px; height: 600px;"><defs><clipPath id="ksuzQTWAMWXB"><path fill="none" stroke="none" d=" M 65 203 L 570 203 L 570 555 L 65 555 L 65 203 Z"/></clipPath><clipPath id="GvinNUxtEJkx"><path fill="none" stroke="none" d=" M 65 203 L 570 203 L 570 555 L 65 555 L 65 203 Z"/></clipPath><clipPath id="TqdwpDeZttTE"><path fill="none" stroke="none" d=" M 65 203 L 570 203 L 570 555 L 65 555 L 65 203 Z"/></clipPath><clipPath id="zeoUDFLqWzMy"><path fill="none" stroke="none" d=" M 65 203 L 570 203 L 570 555 L 65 555 L 65 203 Z"/></clipPath><clipPath id="fzVZQvIqIqQR"><path fill="none" stroke="none" d=" M 65 203 L 570 203 L 570 555 L 65 555 L 65 203 Z"/></clipPath><clipPath id="wrKopMOchgqb"><path fill="none" stroke="none" d=" M 65 203 L 570 203 L 570 555 L 65 555 L 65 203 Z"/></clipPath><clipPath id="GvxSwfwTUJkr"><path fill="none" stroke="none" d=" M 65 203 L 570 203 L 570 555 L 65 555 L 65 203 Z"/></clipPath><clipPath id="OWxlUBVbMbnW"><path fill="none" stroke="none" d=" M 65 203 L 570 203 L 570 555 L 65 555 L 65 203 Z"/></clipPath><clipPath id="hSSVbbEEbKIA"><path fill="none" stroke="none" d=" M 65 203 L 570 203 L 570 555 L 65 555 L 65 203 Z"/></clipPath></defs><g><g/><g/><g/><g transform="scale(1,1) translate(0.5,0.5)"><rect fill="#FFFFFF" stroke="none" x="0" y="0" width="600" height="600"/><rect fill="#ffffff" stroke="none" x="0" y="0" width="600" height="600"/><rect fill="#FFFFFF" stroke="none" x="65" y="203" width="505" height="352"/><rect fill="#ffffff" stroke="none" x="65" y="203" width="505" height="352"/><g><rect fill="none" stroke="#e5e5e5" x="65" y="203" width="505" height="352" stroke-linejoin="bevel" stroke-miterlimit="10"/></g><g clip-path="url(#ksuzQTWAMWXB)"><g><g><path fill="none" stroke="#e5e5e5" paint-order="fill stroke markers" d=" M 88 555 L 88 203" stroke-linejoin="bevel" stroke-miterlimit="10"/><path fill="none" stroke="#e5e5e5" paint-order="fill stroke markers" d=" M 160 555 L 160 203" stroke-linejoin="bevel" stroke-miterlimit="10"/><path fill="none" stroke="#e5e5e5" paint-order="fill stroke markers" d=" M 231 555 L 231 203" stroke-linejoin="bevel" stroke-miterlimit="10"/><path fill="none" stroke="#e5e5e5" paint-order="fill stroke markers" d=" M 303 555 L 303 203" stroke-linejoin="bevel" stroke-miterlimit="10"/><path fill="none" stroke="#e5e5e5" paint-order="fill stroke markers" d=" M 375 555 L 375 203" stroke-linejoin="bevel" stroke-miterlimit="10"/><path fill="none" stroke="#e5e5e5" paint-order="fill stroke markers" d=" M 447 555 L 447 203" stroke-linejoin="bevel" stroke-miterlimit="10"/><path fill="none" stroke="#e5e5e5" paint-order="fill stroke markers" d=" M 518 555 L 518 203" stroke-linejoin="bevel" stroke-miterlimit="10"/></g></g></g><g clip-path="url(#GvinNUxtEJkx)"><g><g><path fill="none" stroke="#e5e5e5" paint-order="fill stroke markers" d=" M 65 501 L 570 501" stroke-linejoin="bevel" stroke-miterlimit="10"/><path fill="none" stroke="#e5e5e5" paint-order="fill stroke markers" d=" M 65 438 L 570 438" stroke-linejoin="bevel" stroke-miterlimit="10"/><path fill="none" stroke="#e5e5e5" paint-order="fill stroke markers" d=" M 65 375 L 570 375" stroke-linejoin="bevel" stroke-miterlimit="10"/><path fill="none" stroke="#e5e5e5" paint-order="fill stroke markers" d=" M 65 312 L 570 312" stroke-linejoin="bevel" stroke-miterlimit="10"/><path fill="none" stroke="#e5e5e5" paint-order="fill stroke markers" d=" M 65 249 L 570 249" stroke-linejoin="bevel" stroke-miterlimit="10"/></g></g></g><g clip-path="url(#TqdwpDeZttTE)"><g><g><path fill="none" stroke="none"/><path fill="none" stroke="#1F78B4" paint-order="fill stroke markers" d=" M 87.9545454545455 296.1725477436014 L 102.30113636363643 331.91694294788135 L 116.64772727272731 389.76879602640486 L 130.99431818181824 281.5443792860516 L 145.34090909090912 322.7555643451037 L 159.68750000000006 373.09809070003905 L 174.03409090909093 289.05370600963977 L 188.38068181818187 319.78187096256283 L 202.72727272727275 374.2995829758132 L 217.07386363636368 296.89344310906597 L 231.42045454545456 339.42626967146964 L 245.7670454545455 381.0579770270426 L 260.1136363636364 299.08616651235366 L 274.4602272727273 341.9193661437008 L 288.80681818181824 364.92794322477505 L 303.1534090909091 282.9260954031919 L 317.5 341.22850808513067 L 331.84659090909093 385.7437969025616 L 346.19318181818187 304.10239676371066 L 360.53977272727275 355.2559304047935 L 374.8863636363636 366.0693608867605 L 389.23295454545456 301.90967336042286 L 403.5795454545455 342.94063457810876 L 417.9261363636364 389.10797527472914 L 432.2727272727273 298.8759053640932 L 446.6193181818182 306.8658289979911 L 460.9659090909091 367.0605920142741 L 475.3125 292.2376605404413 L 489.65909090909093 293.1988543610605 L 504.0056818181818 293.85967511273634 L 518.3522727272727 301.0085541535923 L 532.6988636363636 317.79940870753546 L 547.0454545454546 534.668764484763" stroke-linejoin="bevel" stroke-miterlimit="10" stroke-width="2"/></g></g></g><g clip-path="url(#zeoUDFLqWzMy)"><g><g><path fill="none" stroke="none"/><path fill="none" stroke="#33A02C" paint-order="fill stroke markers" d=" M 87.9545454545455 302.38762932146517 L 102.30113636363643 326.07883749494533 L 116.64772727272731 352.763387841346 L 130.99431818181824 290.8158065310288 L 145.34090909090912 329.65624643331375 L 159.68750000000006 341.739127643517 L 174.03409090909093 287.38441428402234 L 188.38068181818187 319.94613645774257 L 202.72727272727275 341.1915650509096 L 217.07386363636368 295.9263907286978 L 231.42045454545456 328.15957534685356 L 245.7670454545455 352.2158252487386 L 260.1136363636364 317.9384069515154 L 274.4602272727273 331.6274717667004 L 288.80681818181824 342.17717771760294 L 303.1534090909091 290.8888148767097 L 317.5 324.3631413714421 L 331.84659090909093 344.5134447793946 L 346.19318181818187 310.8931015933001 L 360.53977272727275 342.2866902361244 L 374.8863636363636 338.81879381627755 L 389.23295454545456 300.48941233375945 L 403.5795454545455 324.94720813689 L 417.9261363636364 367.40156115038394 L 432.2727272727273 299.4307913213852 L 446.6193181818182 305.34446732154504 L 460.9659090909091 340.2789607298972 L 475.3125 278.112354382537 L 489.65909090909093 278.62341280230396 L 504.0056818181818 246.49974070266978 L 518.3522727272727 330.4958424086451 L 532.6988636363636 320.09215314910443 L 547.0454545454546 512.1041022900998" stroke-linejoin="bevel" stroke-miterlimit="10" stroke-width="2"/></g></g></g><g clip-path="url(#fzVZQvIqIqQR)"><g><g><path fill="none" stroke="none"/><path fill="none" stroke="#C51B7D" paint-order="fill stroke markers" d=" M 87.9545454545455 316.45555111425836 L 102.30113636363643 329.96125907160933 L 116.64772727272731 343.00914642023645 L 130.99431818181824 311.3050692661161 L 145.34090909090912 336.9811750720403 L 159.68750000000006 332.67003100655825 L 174.03409090909093 312.64037937489377 L 188.38068181818187 325.5356598539464 L 202.72727272727275 329.1982247237364 L 217.07386363636368 315.1965444402681 L 231.42045454545456 344.573366833376 L 245.7670454545455 340.796346811405 L 260.1136363636364 324.12404631038135 L 274.4602272727273 334.9972857675707 L 288.80681818181824 336.2562924415611 L 303.1534090909091 305.46785650488823 L 317.5 345.1456425942806 L 331.84659090909093 354.26390305136226 L 346.19318181818187 322.6742810494228 L 360.53977272727275 348.579297159709 L 374.8863636363636 329.6178936150666 L 389.23295454545456 321.8349432667626 L 403.5795454545455 333.70012737618674 L 417.9261363636364 351.1736139424769 L 432.2727272727273 316.8752200055885 L 446.6193181818182 292.5725760258357 L 460.9659090909091 333.0133964631011 L 475.3125 293.3737620911022 L 489.65909090909093 293.18300350413404 L 504.0056818181818 248.163976979631 L 518.3522727272727 337.9731197242752 L 532.6988636363636 332.55557585437737 L 547.0454545454546 501.4913804734447" stroke-linejoin="bevel" stroke-miterlimit="10" stroke-width="2"/></g></g></g><g clip-path="url(#wrKopMOchgqb)"><g><g><path fill="none" stroke="none"/><path fill="none" stroke="#542788" paint-order="fill stroke markers" d=" M 87.9545454545455 294.74776352598917 L 102.30113636363643 329.24036428115016 L 116.64772727272731 366.0364604900384 L 130.99431818181824 289.09372923047704 L 145.34090909090912 329.5993505856271 L 159.68750000000006 366.24586916764986 L 174.03409090909093 288.6150808245078 L 188.38068181818187 322.1503847677302 L 202.72727272727275 351.19835990499075 L 217.07386363636368 282.8114689021303 L 231.42045454545456 343.3604922572438 L 245.7670454545455 365.3184878810845 L 260.1136363636364 301.1197704304551 L 274.4602272727273 335.28330040651224 L 288.80681818181824 363.85262713780344 L 303.1534090909091 292.1451128185312 L 317.5 327.1462775050345 L 331.84659090909093 369.2374217049579 L 346.19318181818187 306.9832134035787 L 360.53977272727275 336.4799214214355 L 374.8863636363636 349.52309048409825 L 389.23295454545456 295.61531376180847 L 403.5795454545455 333.54819993487365 L 417.9261363636364 385.75079171089794 L 432.2727272727273 306.0857476423864 L 446.6193181818182 305.63701476179017 L 460.9659090909091 356.0745905408028 L 475.3125 257.65251206337007 L 489.65909090909093 302.0471517170205 L 504.0056818181818 320.02638246624156 L 518.3522727272727 345.39474798261324 L 532.6988636363636 349.6726681109636 L 547.0454545454546 521.6271079554265" stroke-linejoin="bevel" stroke-miterlimit="10" stroke-width="2"/></g></g></g><g clip-path="url(#GvxSwfwTUJkr)"><g><g><path fill="none" stroke="none"/><path fill="none" stroke="#A6CEE3" paint-order="fill stroke markers" d=" M 87.9545454545455 296.9887240416672 L 102.30113636363643 319.9265840539223 L 116.64772727272731 352.1603136500911 L 130.99431818181824 286.4855986676346 L 145.34090909090912 329.70535595388355 L 159.68750000000006 325.8421374255038 L 174.03409090909093 275.92211050409605 L 188.38068181818187 329.5846303748717 L 202.72727272727275 324.69524442489103 L 217.07386363636368 273.7490500818824 L 231.42045454545456 335.8623604834888 L 245.7670454545455 338.6994115902678 L 260.1136363636364 296.0229194095722 L 274.4602272727273 330.2486210594369 L 288.80681818181824 318.4778771057797 L 303.1534090909091 265.2378967615457 L 317.5 313.1659516292576 L 331.84659090909093 327.9548350582114 L 346.19318181818187 284.1918126664091 L 360.53977272727275 339.9670301698924 L 374.8863636363636 323.48798863477225 L 389.23295454545456 306.8882215206404 L 403.5795454545455 337.7336069581728 L 417.9261363636364 353.0657554926802 L 432.2727272727273 262.9441107603201 L 446.6193181818182 298.6788821478334 L 460.9659090909091 316.3048166835662 L 475.3125 269.40292923745517 L 489.65909090909093 282.50165456024286 L 504.0056818181818 219 L 518.3522727272727 312.0794214181508 L 532.6988636363636 330.00716990141325 L 547.0454545454546 513.5100499994536" stroke-linejoin="bevel" stroke-miterlimit="10" stroke-width="2"/></g></g></g><g clip-path="url(#OWxlUBVbMbnW)"><g><g><path fill="none" stroke="none"/><path fill="none" stroke="#B2DF8A" paint-order="fill stroke markers" d=" M 87.9545454545455 288.82846088167025 L 102.30113636363643 349.74526562644667 L 116.64772727272731 387.79204149459633 L 130.99431818181824 295.54259779957897 L 145.34090909090912 356.1796468394426 L 159.68750000000006 382.96625558484936 L 174.03409090909093 284.1425528243798 L 188.38068181818187 333.09980118413114 L 202.72727272727275 363.73305087208985 L 217.07386363636368 305.1941696190729 L 231.42045454545456 352.19312804443416 L 245.7670454545455 390.44972069126857 L 260.1136363636364 302.0469179388032 L 274.4602272727273 346.66795287240507 L 288.80681818181824 363.8029897983181 L 303.1534090909091 294.35363605369935 L 317.5 363.0336616098077 L 331.84659090909093 390.58959854372506 L 346.19318181818187 305.89355888135503 L 360.53977272727275 336.9464421266831 L 374.8863636363636 384.5049119618702 L 389.23295454545456 302.18679579125956 L 403.5795454545455 353.2422119378574 L 417.9261363636364 398.9822696911109 L 432.2727272727273 301.6272843814338 L 446.6193181818182 317.2936038565542 L 460.9659090909091 379.32943142098225 L 475.3125 290.7168118898321 L 489.65909090909093 278.2676830212097 L 504.0056818181818 267.4271494558361 L 518.3522727272727 317.3635427827825 L 532.6988636363636 344.49984615933045 L 547.0454545454546 539" stroke-linejoin="bevel" stroke-miterlimit="10" stroke-width="2"/></g></g></g><g><g/><g><path fill="#ffffff" stroke="#e5e5e5" paint-order="fill stroke markers" d=" M 75 38 L 479.421875 38 L 479.421875 193 L 75 193 L 75 38 Z" fill-opacity="0.95" stroke-linejoin="bevel" stroke-miterlimit="10" stroke-opacity="0.5"/><text fill="#444444" stroke="none" font-family="helvetica" font-size="10pt" font-style="normal" font-weight="normal" text-decoration="normal" x="110" y="58" text-anchor="start" dominant-baseline="central">sc5314_fluc_rep01_ACGCTG.fastqAligned.primary.out_dedup</text><g><path fill="none" stroke="#1F78B4" paint-order="fill stroke markers" d=" M 85 58 L 105 58" stroke-linejoin="bevel" stroke-miterlimit="10" stroke-width="2"/></g><text fill="#444444" stroke="none" font-family="helvetica" font-size="10pt" font-style="normal" font-weight="normal" text-decoration="normal" x="110" y="81" text-anchor="start" dominant-baseline="central">sc5314_fluc_rep02_GTGATC.fastqAligned.primary.out_dedup</text><g><path fill="none" stroke="#33A02C" paint-order="fill stroke markers" d=" M 85 81 L 105 81" stroke-linejoin="bevel" stroke-miterlimit="10" stroke-width="2"/></g><text fill="#444444" stroke="none" font-family="helvetica" font-size="10pt" font-style="normal" font-weight="normal" text-decoration="normal" x="110" y="104" text-anchor="start" dominant-baseline="central">sc5314_fluc_rep03_ACTGGT.fastqAligned.primary.out_dedup</text><g><path fill="none" stroke="#C51B7D" paint-order="fill stroke markers" d=" M 85 104 L 105 104" stroke-linejoin="bevel" stroke-miterlimit="10" stroke-width="2"/></g><text fill="#444444" stroke="none" font-family="helvetica" font-size="10pt" font-style="normal" font-weight="normal" text-decoration="normal" x="110" y="127" text-anchor="start" dominant-baseline="central">sc5314_ut_rep01_CGTGCA.fastqAligned.primary.out_dedup</text><g><path fill="none" stroke="#542788" paint-order="fill stroke markers" d=" M 85 127 L 105 127" stroke-linejoin="bevel" stroke-miterlimit="10" stroke-width="2"/></g><text fill="#444444" stroke="none" font-family="helvetica" font-size="10pt" font-style="normal" font-weight="normal" text-decoration="normal" x="110" y="150" text-anchor="start" dominant-baseline="central">sc5314_ut_rep02_TAATGT.fastqAligned.primary.out_dedup</text><g><path fill="none" stroke="#A6CEE3" paint-order="fill stroke markers" d=" M 85 150 L 105 150" stroke-linejoin="bevel" stroke-miterlimit="10" stroke-width="2"/></g><text fill="#444444" stroke="none" font-family="helvetica" font-size="10pt" font-style="normal" font-weight="normal" text-decoration="normal" x="110" y="173" text-anchor="start" dominant-baseline="central">sc5314_ut_rep03_CTACAC.fastqAligned.primary.out_dedup</text><g><path fill="none" stroke="#B2DF8A" paint-order="fill stroke markers" d=" M 85 173 L 105 173" stroke-linejoin="bevel" stroke-miterlimit="10" stroke-width="2"/></g></g></g><g><g fill="#444444"><path fill="" stroke="none" d=""/><g transform="translate(65,23)"><path fill="none" stroke="none"/><text fill="" stroke="none" font-family="helvetica" font-size="10pt" font-style="normal" font-weight="bold" text-decoration="normal" x="0" y="0" text-anchor="start" dominant-baseline="text-after-edge">LEU-codon_scaled</text></g></g></g><g/><g><g fill="#444444"><path fill="none" stroke="black" paint-order="fill stroke markers" d=" M 65 555 L 570 555" stroke-linejoin="bevel" stroke-miterlimit="10"/><path fill="none" stroke="black" paint-order="fill stroke markers" d=" M 88 561 L 88 553" stroke-linejoin="bevel" stroke-miterlimit="10"/><path fill="none" stroke="black" paint-order="fill stroke markers" d=" M 160 561 L 160 553" stroke-linejoin="bevel" stroke-miterlimit="10"/><path fill="none" stroke="black" paint-order="fill stroke markers" d=" M 231 561 L 231 553" stroke-linejoin="bevel" stroke-miterlimit="10"/><path fill="none" stroke="black" paint-order="fill stroke markers" d=" M 303 561 L 303 553" stroke-linejoin="bevel" stroke-miterlimit="10"/><path fill="none" stroke="black" paint-order="fill stroke markers" d=" M 375 561 L 375 553" stroke-linejoin="bevel" stroke-miterlimit="10"/><path fill="none" stroke="black" paint-order="fill stroke markers" d=" M 447 561 L 447 553" stroke-linejoin="bevel" stroke-miterlimit="10"/><path fill="none" stroke="black" paint-order="fill stroke markers" d=" M 518 561 L 518 553" stroke-linejoin="bevel" stroke-miterlimit="10"/><path fill="none" stroke="black" paint-order="fill stroke markers" d=" M 74 559 L 74 555" stroke-linejoin="bevel" stroke-miterlimit="10"/><path fill="none" stroke="black" paint-order="fill stroke markers" d=" M 88 559 L 88 555" stroke-linejoin="bevel" stroke-miterlimit="10"/><path fill="none" stroke="black" paint-order="fill stroke markers" d=" M 102 559 L 102 555" stroke-linejoin="bevel" stroke-miterlimit="10"/><path fill="none" stroke="black" paint-order="fill stroke markers" d=" M 117 559 L 117 555" stroke-linejoin="bevel" stroke-miterlimit="10"/><path fill="none" stroke="black" paint-order="fill stroke markers" d=" M 131 559 L 131 555" stroke-linejoin="bevel" stroke-miterlimit="10"/><path fill="none" stroke="black" paint-order="fill stroke markers" d=" M 145 559 L 145 555" stroke-linejoin="bevel" stroke-miterlimit="10"/><path fill="none" stroke="black" paint-order="fill stroke markers" d=" M 160 559 L 160 555" stroke-linejoin="bevel" stroke-miterlimit="10"/><path fill="none" stroke="black" paint-order="fill stroke markers" d=" M 174 559 L 174 555" stroke-linejoin="bevel" stroke-miterlimit="10"/><path fill="none" stroke="black" paint-order="fill stroke markers" d=" M 188 559 L 188 555" stroke-linejoin="bevel" stroke-miterlimit="10"/><path fill="none" stroke="black" paint-order="fill stroke markers" d=" M 203 559 L 203 555" stroke-linejoin="bevel" stroke-miterlimit="10"/><path fill="none" stroke="black" paint-order="fill stroke markers" d=" M 217 559 L 217 555" stroke-linejoin="bevel" stroke-miterlimit="10"/><path fill="none" stroke="black" paint-order="fill stroke markers" d=" M 231 559 L 231 555" stroke-linejoin="bevel" stroke-miterlimit="10"/><path fill="none" stroke="black" paint-order="fill stroke markers" d=" M 246 559 L 246 555" stroke-linejoin="bevel" stroke-miterlimit="10"/><path fill="none" stroke="black" paint-order="fill stroke markers" d=" M 260 559 L 260 555" stroke-linejoin="bevel" stroke-miterlimit="10"/><path fill="none" stroke="black" paint-order="fill stroke markers" d=" M 274 559 L 274 555" stroke-linejoin="bevel" stroke-miterlimit="10"/><path fill="none" stroke="black" paint-order="fill stroke markers" d=" M 289 559 L 289 555" stroke-linejoin="bevel" stroke-miterlimit="10"/><path fill="none" stroke="black" paint-order="fill stroke markers" d=" M 303 559 L 303 555" stroke-linejoin="bevel" stroke-miterlimit="10"/><path fill="none" stroke="black" paint-order="fill stroke markers" d=" M 318 559 L 318 555" stroke-linejoin="bevel" stroke-miterlimit="10"/><path fill="none" stroke="black" paint-order="fill stroke markers" d=" M 332 559 L 332 555" stroke-linejoin="bevel" stroke-miterlimit="10"/><path fill="none" stroke="black" paint-order="fill stroke markers" d=" M 346 559 L 346 555" stroke-linejoin="bevel" stroke-miterlimit="10"/><path fill="none" stroke="black" paint-order="fill stroke markers" d=" M 361 559 L 361 555" stroke-linejoin="bevel" stroke-miterlimit="10"/><path fill="none" stroke="black" paint-order="fill stroke markers" d=" M 375 559 L 375 555" stroke-linejoin="bevel" stroke-miterlimit="10"/><path fill="none" stroke="black" paint-order="fill stroke markers" d=" M 389 559 L 389 555" stroke-linejoin="bevel" stroke-miterlimit="10"/><path fill="none" stroke="black" paint-order="fill stroke markers" d=" M 404 559 L 404 555" stroke-linejoin="bevel" stroke-miterlimit="10"/><path fill="none" stroke="black" paint-order="fill stroke markers" d=" M 418 559 L 418 555" stroke-linejoin="bevel" stroke-miterlimit="10"/><path fill="none" stroke="black" paint-order="fill stroke markers" d=" M 432 559 L 432 555" stroke-linejoin="bevel" stroke-miterlimit="10"/><path fill="none" stroke="black" paint-order="fill stroke markers" d=" M 447 559 L 447 555" stroke-linejoin="bevel" stroke-miterlimit="10"/><path fill="none" stroke="black" paint-order="fill stroke markers" d=" M 461 559 L 461 555" stroke-linejoin="bevel" stroke-miterlimit="10"/><path fill="none" stroke="black" paint-order="fill stroke markers" d=" M 475 559 L 475 555" stroke-linejoin="bevel" stroke-miterlimit="10"/><path fill="none" stroke="black" paint-order="fill stroke markers" d=" M 490 559 L 490 555" stroke-linejoin="bevel" stroke-miterlimit="10"/><path fill="none" stroke="black" paint-order="fill stroke markers" d=" M 504 559 L 504 555" stroke-linejoin="bevel" stroke-miterlimit="10"/><path fill="none" stroke="black" paint-order="fill stroke markers" d=" M 518 559 L 518 555" stroke-linejoin="bevel" stroke-miterlimit="10"/><path fill="none" stroke="black" paint-order="fill stroke markers" d=" M 533 559 L 533 555" stroke-linejoin="bevel" stroke-miterlimit="10"/><path fill="none" stroke="black" paint-order="fill stroke markers" d=" M 547 559 L 547 555" stroke-linejoin="bevel" stroke-miterlimit="10"/><path fill="" stroke="black" paint-order="fill stroke markers" d=" M 561 559 L 561 555" stroke-linejoin="bevel" stroke-miterlimit="10"/><g transform="translate(88,566) rotate(0,0,0)"><text fill="" stroke="none" font-family="helvetica" font-size="8pt" font-style="normal" font-weight="normal" text-decoration="normal" x="0" y="0" text-anchor="middle" dominant-baseline="hanging">-30</text><g transform="rotate(0,0,0) translate(-88,-566) translate(160,566) rotate(0,0,0)"><text fill="" stroke="none" font-family="helvetica" font-size="8pt" font-style="normal" font-weight="normal" text-decoration="normal" x="0" y="0" text-anchor="middle" dominant-baseline="hanging">-25</text><g transform="rotate(0,0,0) translate(-160,-566) translate(231,566) rotate(0,0,0)"><text fill="" stroke="none" font-family="helvetica" font-size="8pt" font-style="normal" font-weight="normal" text-decoration="normal" x="0" y="0" text-anchor="middle" dominant-baseline="hanging">-20</text><g transform="rotate(0,0,0) translate(-231,-566) translate(303,566) rotate(0,0,0)"><text fill="" stroke="none" font-family="helvetica" font-size="8pt" font-style="normal" font-weight="normal" text-decoration="normal" x="0" y="0" text-anchor="middle" dominant-baseline="hanging">-15</text><g transform="rotate(0,0,0) translate(-303,-566) translate(375,566) rotate(0,0,0)"><text fill="" stroke="none" font-family="helvetica" font-size="8pt" font-style="normal" font-weight="normal" text-decoration="normal" x="0" y="0" text-anchor="middle" dominant-baseline="hanging">-10</text><g transform="rotate(0,0,0) translate(-375,-566) translate(447,566) rotate(0,0,0)"><text fill="" stroke="none" font-family="helvetica" font-size="8pt" font-style="normal" font-weight="normal" text-decoration="normal" x="0" y="0" text-anchor="middle" dominant-baseline="hanging">-5</text><g transform="rotate(0,0,0) translate(-447,-566) translate(518,566) rotate(0,0,0)"><text fill="" stroke="none" font-family="helvetica" font-size="8pt" font-style="normal" font-weight="normal" text-decoration="normal" x="0" y="0" text-anchor="middle" dominant-baseline="hanging">0</text><g transform="rotate(0,0,0) translate(-518,-566) translate(318,584) rotate(0,0,0)"><text fill="" stroke="none" font-family="helvetica" font-size="10pt" font-style="italic" font-weight="normal" text-decoration="normal" x="0" y="0" text-anchor="middle" dominant-baseline="hanging">position from codon</text><g transform="rotate(0,0,0) translate(-318,-584)"/></g></g></g></g></g></g></g></g></g></g><g><g fill="#444444"><path fill="none" stroke="black" paint-order="fill stroke markers" d=" M 65 555 L 65 203" stroke-linejoin="bevel" stroke-miterlimit="10"/><path fill="none" stroke="black" paint-order="fill stroke markers" d=" M 59 501 L 67 501" stroke-linejoin="bevel" stroke-miterlimit="10"/><path fill="none" stroke="black" paint-order="fill stroke markers" d=" M 59 438 L 67 438" stroke-linejoin="bevel" stroke-miterlimit="10"/><path fill="none" stroke="black" paint-order="fill stroke markers" d=" M 59 375 L 67 375" stroke-linejoin="bevel" stroke-miterlimit="10"/><path fill="none" stroke="black" paint-order="fill stroke markers" d=" M 59 312 L 67 312" stroke-linejoin="bevel" stroke-miterlimit="10"/><path fill="none" stroke="black" paint-order="fill stroke markers" d=" M 59 249 L 67 249" stroke-linejoin="bevel" stroke-miterlimit="10"/><path fill="none" stroke="black" paint-order="fill stroke markers" d=" M 61 514 L 65 514" stroke-linejoin="bevel" stroke-miterlimit="10"/><path fill="none" stroke="black" paint-order="fill stroke markers" d=" M 61 527 L 65 527" stroke-linejoin="bevel" stroke-miterlimit="10"/><path fill="none" stroke="black" paint-order="fill stroke markers" d=" M 61 539 L 65 539" stroke-linejoin="bevel" stroke-miterlimit="10"/><path fill="none" stroke="black" paint-order="fill stroke markers" d=" M 61 552 L 65 552" stroke-linejoin="bevel" stroke-miterlimit="10"/><path fill="none" stroke="black" paint-order="fill stroke markers" d=" M 61 501 L 65 501" stroke-linejoin="bevel" stroke-miterlimit="10"/><path fill="none" stroke="black" paint-order="fill stroke markers" d=" M 61 489 L 65 489" stroke-linejoin="bevel" stroke-miterlimit="10"/><path fill="none" stroke="black" paint-order="fill stroke markers" d=" M 61 476 L 65 476" stroke-linejoin="bevel" stroke-miterlimit="10"/><path fill="none" stroke="black" paint-order="fill stroke markers" d=" M 61 464 L 65 464" stroke-linejoin="bevel" stroke-miterlimit="10"/><path fill="none" stroke="black" paint-order="fill stroke markers" d=" M 61 451 L 65 451" stroke-linejoin="bevel" stroke-miterlimit="10"/><path fill="none" stroke="black" paint-order="fill stroke markers" d=" M 61 438 L 65 438" stroke-linejoin="bevel" stroke-miterlimit="10"/><path fill="none" stroke="black" paint-order="fill stroke markers" d=" M 61 426 L 65 426" stroke-linejoin="bevel" stroke-miterlimit="10"/><path fill="none" stroke="black" paint-order="fill stroke markers" d=" M 61 413 L 65 413" stroke-linejoin="bevel" stroke-miterlimit="10"/><path fill="none" stroke="black" paint-order="fill stroke markers" d=" M 61 400 L 65 400" stroke-linejoin="bevel" stroke-miterlimit="10"/><path fill="none" stroke="black" paint-order="fill stroke markers" d=" M 61 388 L 65 388" stroke-linejoin="bevel" stroke-miterlimit="10"/><path fill="none" stroke="black" paint-order="fill stroke markers" d=" M 61 375 L 65 375" stroke-linejoin="bevel" stroke-miterlimit="10"/><path fill="none" stroke="black" paint-order="fill stroke markers" d=" M 61 363 L 65 363" stroke-linejoin="bevel" stroke-miterlimit="10"/><path fill="none" stroke="black" paint-order="fill stroke markers" d=" M 61 350 L 65 350" stroke-linejoin="bevel" stroke-miterlimit="10"/><path fill="none" stroke="black" paint-order="fill stroke markers" d=" M 61 337 L 65 337" stroke-linejoin="bevel" stroke-miterlimit="10"/><path fill="none" stroke="black" paint-order="fill stroke markers" d=" M 61 325 L 65 325" stroke-linejoin="bevel" stroke-miterlimit="10"/><path fill="none" stroke="black" paint-order="fill stroke markers" d=" M 61 312 L 65 312" stroke-linejoin="bevel" stroke-miterlimit="10"/><path fill="none" stroke="black" paint-order="fill stroke markers" d=" M 61 299 L 65 299" stroke-linejoin="bevel" stroke-miterlimit="10"/><path fill="none" stroke="black" paint-order="fill stroke markers" d=" M 61 287 L 65 287" stroke-linejoin="bevel" stroke-miterlimit="10"/><path fill="none" stroke="black" paint-order="fill stroke markers" d=" M 61 274 L 65 274" stroke-linejoin="bevel" stroke-miterlimit="10"/><path fill="none" stroke="black" paint-order="fill stroke markers" d=" M 61 261 L 65 261" stroke-linejoin="bevel" stroke-miterlimit="10"/><path fill="none" stroke="black" paint-order="fill stroke markers" d=" M 61 249 L 65 249" stroke-linejoin="bevel" stroke-miterlimit="10"/><path fill="none" stroke="black" paint-order="fill stroke markers" d=" M 61 236 L 65 236" stroke-linejoin="bevel" stroke-miterlimit="10"/><path fill="none" stroke="black" paint-order="fill stroke markers" d=" M 61 224 L 65 224" stroke-linejoin="bevel" stroke-miterlimit="10"/><path fill="" stroke="black" paint-order="fill stroke markers" d=" M 61 211 L 65 211" stroke-linejoin="bevel" stroke-miterlimit="10"/><g transform="translate(54,501) rotate(0,0,0)"><text fill="" stroke="none" font-family="helvetica" font-size="8pt" font-style="normal" font-weight="normal" text-decoration="normal" x="0" y="0" text-anchor="end" dominant-baseline="central">20000</text><g transform="rotate(0,0,0) translate(-54,-501) translate(54,438) rotate(0,0,0)"><text fill="" stroke="none" font-family="helvetica" font-size="8pt" font-style="normal" font-weight="normal" text-decoration="normal" x="0" y="0" text-anchor="end" dominant-baseline="central">22000</text><g transform="rotate(0,0,0) translate(-54,-438) translate(54,375) rotate(0,0,0)"><text fill="" stroke="none" font-family="helvetica" font-size="8pt" font-style="normal" font-weight="normal" text-decoration="normal" x="0" y="0" text-anchor="end" dominant-baseline="central">24000</text><g transform="rotate(0,0,0) translate(-54,-375) translate(54,312) rotate(0,0,0)"><text fill="" stroke="none" font-family="helvetica" font-size="8pt" font-style="normal" font-weight="normal" text-decoration="normal" x="0" y="0" text-anchor="end" dominant-baseline="central">26000</text><g transform="rotate(0,0,0) translate(-54,-312) translate(54,249) rotate(0,0,0)"><text fill="" stroke="none" font-family="helvetica" font-size="8pt" font-style="normal" font-weight="normal" text-decoration="normal" x="0" y="0" text-anchor="end" dominant-baseline="central">28000</text><g transform="rotate(0,0,0) translate(-54,-249) translate(15,379) rotate(-90,0,0)"><text fill="" stroke="none" font-family="helvetica" font-size="10pt" font-style="italic" font-weight="normal" text-decoration="normal" x="0" y="0" text-anchor="middle" dominant-baseline="alphabetic">5'seq RPM</text><g transform="rotate(90,0,0) translate(-15,-379)"/></g></g></g></g></g></g></g></g><g clip-path="url(#hSSVbbEEbKIA)"><g/></g></g></g></svg>