<svg version="1.1" xmlns="http://www.w3.org/2000/svg" xmlns:xlink="http://www.w3.org/1999/xlink" width="600" height="600" style="width: 600px; height: 600px;"><defs><clipPath id="cTuKoIpQSFWB"><path fill="none" stroke="none" d=" M 65 203 L 570 203 L 570 555 L 65 555 L 65 203 Z"/></clipPath><clipPath id="yBcJCcLOXFhi"><path fill="none" stroke="none" d=" M 65 203 L 570 203 L 570 555 L 65 555 L 65 203 Z"/></clipPath><clipPath id="yfvaDantMToP"><path fill="none" stroke="none" d=" M 65 203 L 570 203 L 570 555 L 65 555 L 65 203 Z"/></clipPath><clipPath id="UcJcxOSPXZVa"><path fill="none" stroke="none" d=" M 65 203 L 570 203 L 570 555 L 65 555 L 65 203 Z"/></clipPath><clipPath id="POdVidATCeXT"><path fill="none" stroke="none" d=" M 65 203 L 570 203 L 570 555 L 65 555 L 65 203 Z"/></clipPath><clipPath id="yUWzpnCSfBcM"><path fill="none" stroke="none" d=" M 65 203 L 570 203 L 570 555 L 65 555 L 65 203 Z"/></clipPath><clipPath id="uoXyrOJHOeTm"><path fill="none" stroke="none" d=" M 65 203 L 570 203 L 570 555 L 65 555 L 65 203 Z"/></clipPath><clipPath id="abeXTxzeBOrD"><path fill="none" stroke="none" d=" M 65 203 L 570 203 L 570 555 L 65 555 L 65 203 Z"/></clipPath><clipPath id="MQOoqkBHzGOx"><path fill="none" stroke="none" d=" M 65 203 L 570 203 L 570 555 L 65 555 L 65 203 Z"/></clipPath></defs><g><g/><g/><g/><g transform="scale(1,1) translate(0.5,0.5)"><rect fill="#FFFFFF" stroke="none" x="0" y="0" width="600" height="600"/><rect fill="#ffffff" stroke="none" x="0" y="0" width="600" height="600"/><rect fill="#FFFFFF" stroke="none" x="65" y="203" width="505" height="352"/><rect fill="#ffffff" stroke="none" x="65" y="203" width="505" height="352"/><g><rect fill="none" stroke="#e5e5e5" x="65" y="203" width="505" height="352" stroke-linejoin="bevel" stroke-miterlimit="10"/></g><g clip-path="url(#cTuKoIpQSFWB)"><g><g><path fill="none" stroke="#e5e5e5" paint-order="fill stroke markers" d=" M 88 555 L 88 203" stroke-linejoin="bevel" stroke-miterlimit="10"/><path fill="none" stroke="#e5e5e5" paint-order="fill stroke markers" d=" M 160 555 L 160 203" stroke-linejoin="bevel" stroke-miterlimit="10"/><path fill="none" stroke="#e5e5e5" paint-order="fill stroke markers" d=" M 231 555 L 231 203" stroke-linejoin="bevel" stroke-miterlimit="10"/><path fill="none" stroke="#e5e5e5" paint-order="fill stroke markers" d=" M 303 555 L 303 203" stroke-linejoin="bevel" stroke-miterlimit="10"/><path fill="none" stroke="#e5e5e5" paint-order="fill stroke markers" d=" M 375 555 L 375 203" stroke-linejoin="bevel" stroke-miterlimit="10"/><path fill="none" stroke="#e5e5e5" paint-order="fill stroke markers" d=" M 447 555 L 447 203" stroke-linejoin="bevel" stroke-miterlimit="10"/><path fill="none" stroke="#e5e5e5" paint-order="fill stroke markers" d=" M 518 555 L 518 203" stroke-linejoin="bevel" stroke-miterlimit="10"/></g></g></g><g clip-path="url(#yBcJCcLOXFhi)"><g><g><path fill="none" stroke="#e5e5e5" paint-order="fill stroke markers" d=" M 65 535 L 570 535" stroke-linejoin="bevel" stroke-miterlimit="10"/><path fill="none" stroke="#e5e5e5" paint-order="fill stroke markers" d=" M 65 483 L 570 483" stroke-linejoin="bevel" stroke-miterlimit="10"/><path fill="none" stroke="#e5e5e5" paint-order="fill stroke markers" d=" M 65 431 L 570 431" stroke-linejoin="bevel" stroke-miterlimit="10"/><path fill="none" stroke="#e5e5e5" paint-order="fill stroke markers" d=" M 65 378 L 570 378" stroke-linejoin="bevel" stroke-miterlimit="10"/><path fill="none" stroke="#e5e5e5" paint-order="fill stroke markers" d=" M 65 326 L 570 326" stroke-linejoin="bevel" stroke-miterlimit="10"/><path fill="none" stroke="#e5e5e5" paint-order="fill stroke markers" d=" M 65 274 L 570 274" stroke-linejoin="bevel" stroke-miterlimit="10"/><path fill="none" stroke="#e5e5e5" paint-order="fill stroke markers" d=" M 65 221 L 570 221" stroke-linejoin="bevel" stroke-miterlimit="10"/></g></g></g><g clip-path="url(#yfvaDantMToP)"><g><g><path fill="none" stroke="none"/><path fill="none" stroke="#1F78B4" paint-order="fill stroke markers" d=" M 87.9545454545455 409.5675047860733 L 102.30113636363643 424.6947353852328 L 116.64772727272731 469.3051374646619 L 130.99431818181824 393.81826634977733 L 145.34090909090912 433.4774860456 L 159.68750000000006 469.7281027939147 L 174.03409090909093 392.2756869136789 L 188.38068181818187 433.77604980742547 L 202.72727272727275 476.8189921372707 L 217.07386363636368 395.38572609936136 L 231.42045454545456 428.4516627215371 L 245.7670454545455 477.59028185532 L 260.1136363636364 372.8690423950203 L 274.4602272727273 416.6583941294293 L 288.80681818181824 477.5654015418345 L 303.1534090909091 398.59528653898565 L 317.5 407.90052378254745 L 331.84659090909093 467.81231865553434 L 346.19318181818187 365.18102552801327 L 360.53977272727275 427.7052533169734 L 374.8863636363636 472.1912538289753 L 389.23295454545456 416.0861469192637 L 403.5795454545455 422.4803874850269 L 417.9261363636364 458.3080389040887 L 432.2727272727273 394.91300014313754 L 446.6193181818182 420.5148427196756 L 460.9659090909091 467.19031081839785 L 475.3125 409.4182229051605 L 489.65909090909093 473.5099104437046 L 504.0056818181818 496.1758760289583 L 518.3522727272727 377.0489350605775 L 532.6988636363636 245.55647828992335 L 547.0454545454546 385.2345581972937" stroke-linejoin="bevel" stroke-miterlimit="10" stroke-width="2"/></g></g></g><g clip-path="url(#UcJcxOSPXZVa)"><g><g><path fill="none" stroke="none"/><path fill="none" stroke="#33A02C" paint-order="fill stroke markers" d=" M 87.9545454545455 415.5096604762068 L 102.30113636363643 424.7923910141658 L 116.64772727272731 446.04893683887315 L 130.99431818181824 417.0819796552747 L 145.34090909090912 419.95448584780274 L 159.68750000000006 433.56109412819865 L 174.03409090909093 409.40180520367346 L 188.38068181818187 430.5374033992217 L 202.72727272727275 444.62780219625404 L 217.07386363636368 399.272441261601 L 231.42045454545456 432.56327618763635 L 245.7670454545455 450.8566050979464 L 260.1136363636364 385.1820424645688 L 274.4602272727273 403.2032392092709 L 288.80681818181824 445.23254034204933 L 303.1534090909091 399.3026781688907 L 317.5 404.8662691102081 L 331.84659090909093 437.7942611487663 L 346.19318181818187 373.4803593434282 L 360.53977272727275 422.7060444111718 L 374.8863636363636 440.5458197121353 L 389.23295454545456 431.59569515436374 L 403.5795454545455 427.8160817431426 L 417.9261363636364 434.46820134689176 L 432.2727272727273 404.1405833352537 L 446.6193181818182 412.0626530451731 L 460.9659090909091 437.5523658904482 L 475.3125 422.76651822575116 L 489.65909090909093 453.5174529394461 L 504.0056818181818 457.02493418505924 L 518.3522727272727 374.961967800627 L 532.6988636363636 218.99999999999977 L 547.0454545454546 318.23752972502086" stroke-linejoin="bevel" stroke-miterlimit="10" stroke-width="2"/></g></g></g><g clip-path="url(#POdVidATCeXT)"><g><g><path fill="none" stroke="none"/><path fill="none" stroke="#C51B7D" paint-order="fill stroke markers" d=" M 87.9545454545455 429.54890990842273 L 102.30113636363643 439.7562238180449 L 116.64772727272731 453.4713143343794 L 130.99431818181824 422.02773123817485 L 145.34090909090912 437.16489335182496 L 159.68750000000006 440.8306779137946 L 174.03409090909093 416.1498353026029 L 188.38068181818187 449.7107249992554 L 202.72727272727275 455.5886209348273 L 217.07386363636368 424.11343624757137 L 231.42045454545456 426.83117307799705 L 245.7670454545455 450.2479520471302 L 260.1136363636364 400.75986046054106 L 274.4602272727273 418.58315781356544 L 288.80681818181824 453.62932228963655 L 303.1534090909091 412.1048316480159 L 317.5 420.13163577508715 L 331.84659090909093 449.86873295451267 L 346.19318181818187 387.8032081294417 L 360.53977272727275 442.5055622395221 L 374.8863636363636 450.69037432185064 L 389.23295454545456 442.2527495111103 L 403.5795454545455 423.0073805607701 L 417.9261363636364 424.9034760238578 L 432.2727272727273 405.5000991182603 L 446.6193181818182 428.1268383111069 L 460.9659090909091 446.07654202833726 L 475.3125 468.70328122118383 L 489.65909090909093 484.9464990216352 L 504.0056818181818 478.37336808293117 L 518.3522727272727 418.5199546314626 L 532.6988636363636 237.09522040502054 L 547.0454545454546 342.01250269587354" stroke-linejoin="bevel" stroke-miterlimit="10" stroke-width="2"/></g></g></g><g clip-path="url(#yUWzpnCSfBcM)"><g><g><path fill="none" stroke="none"/><path fill="none" stroke="#542788" paint-order="fill stroke markers" d=" M 87.9545454545455 396.8252553192449 L 102.30113636363643 424.0330806371602 L 116.64772727272731 455.65164630716004 L 130.99431818181824 395.06591506644713 L 145.34090909090912 422.71977030760684 L 159.68750000000006 452.7524518060708 L 174.03409090909093 388.5984811794016 L 188.38068181818187 427.82433498473847 L 202.72727272727275 452.8267901266115 L 217.07386363636368 391.5720140010317 L 231.42045454545456 413.9974073641587 L 245.7670454545455 453.22326116949546 L 260.1136363636364 359.5321978479676 L 274.4602272727273 399.6501114997935 L 288.80681818181824 444.87258982875096 L 303.1534090909091 386.88869980696427 L 317.5 418.68072155822597 L 331.84659090909093 460.7314315441114 L 346.19318181818187 353.4612350038062 L 360.53977272727275 425.94109753103953 L 374.8863636363636 462.0943007540252 L 389.23295454545456 401.1368779106085 L 403.5795454545455 415.50895321515395 L 417.9261363636364 440.4866289168466 L 432.2727272727273 373.43346378908825 L 446.6193181818182 402.7475415223248 L 460.9659090909091 440.8583205195504 L 475.3125 389.4905410258907 L 489.65909090909093 431.4421332510551 L 504.0056818181818 438.9998625060316 L 518.3522727272727 362.92698115266194 L 532.6988636363636 271.11915528483314 L 547.0454545454546 322.2639198168705" stroke-linejoin="bevel" stroke-miterlimit="10" stroke-width="2"/></g></g></g><g clip-path="url(#uoXyrOJHOeTm)"><g><g><path fill="none" stroke="none"/><path fill="none" stroke="#A6CEE3" paint-order="fill stroke markers" d=" M 87.9545454545455 424.803889752642 L 102.30113636363643 442.35365348470384 L 116.64772727272731 460.45340981235745 L 130.99431818181824 409.75409236417875 L 145.34090909090912 445.15361578953423 L 159.68750000000006 453.85349866525723 L 174.03409090909093 412.2040593809053 L 188.38068181818187 444.9536184820464 L 202.72727272727275 454.9034845295687 L 217.07386363636368 409.20409976858707 L 231.42045454545456 440.10368377546524 L 245.7670454545455 469.5532873030562 L 260.1136363636364 378.3545150885808 L 274.4602272727273 414.10403380204014 L 288.80681818181824 449.2035612661639 L 303.1534090909091 388.6043770973349 L 317.5 426.3038695588011 L 331.84659090909093 451.15353501417076 L 346.19318181818187 358.8047782816401 L 360.53977272727275 443.5036380027592 L 374.8863636363636 468.7532980731047 L 389.23295454545456 409.70409303730673 L 403.5795454545455 432.4537867640537 L 417.9261363636364 431.2538029191263 L 432.2727272727273 385.25442219691286 L 446.6193181818182 424.40389513766627 L 460.9659090909091 452.2035208784822 L 475.3125 439.1036972380258 L 489.65909090909093 494.2529547778099 L 504.0056818181818 503.00283698040494 L 518.3522727272727 383.15445046829007 L 532.6988636363636 245.00631032103388 L 547.0454545454546 370.75461740404126" stroke-linejoin="bevel" stroke-miterlimit="10" stroke-width="2"/></g></g></g><g clip-path="url(#abeXTxzeBOrD)"><g><g><path fill="none" stroke="none"/><path fill="none" stroke="#B2DF8A" paint-order="fill stroke markers" d=" M 87.9545454545455 423.6007063247923 L 102.30113636363643 462.4726571561498 L 116.64772727272731 485.0079609913183 L 130.99431818181824 418.7344710493318 L 145.34090909090912 457.0271081574201 L 159.68750000000006 504.5308334654875 L 174.03409090909093 417.51791223046655 L 188.38068181818187 457.72228462534304 L 202.72727272727275 496.4204413397199 L 217.07386363636368 412.30408872104454 L 231.42045454545456 457.3746963913816 L 245.7670454545455 491.95972567054775 L 260.1136363636364 400.5440201386815 L 274.4602272727273 439.87942194865445 L 288.80681818181824 491.9017942982208 L 303.1534090909091 403.0930005210656 L 317.5 441.73322586311554 L 331.84659090909093 493.3500786063936 L 346.19318181818187 379.80458884564723 L 360.53977272727275 473.3637551536092 L 374.8863636363636 500.939088381219 L 389.23295454545456 435.4187062794822 L 403.5795454545455 453.6670885624593 L 417.9261363636364 485.18175510829906 L 432.2727272727273 405.2943926694883 L 446.6193181818182 462.53058852847676 L 460.9659090909091 488.88936293722134 L 475.3125 446.42566702159536 L 489.65909090909093 498.6797648604694 L 504.0056818181818 538.9999999999998 L 518.3522727272727 426.2076180795033 L 532.6988636363636 322.0470106357167 L 547.0454545454546 397.29986328837447" stroke-linejoin="bevel" stroke-miterlimit="10" stroke-width="2"/></g></g></g><g><g/><g><path fill="#ffffff" stroke="#e5e5e5" paint-order="fill stroke markers" d=" M 75 38 L 479.421875 38 L 479.421875 193 L 75 193 L 75 38 Z" fill-opacity="0.95" stroke-linejoin="bevel" stroke-miterlimit="10" stroke-opacity="0.5"/><text fill="#444444" stroke="none" font-family="helvetica" font-size="10pt" font-style="normal" font-weight="normal" text-decoration="normal" x="110" y="58" text-anchor="start" dominant-baseline="central">sc5314_fluc_rep01_ACGCTG.fastqAligned.primary.out_dedup</text><g><path fill="none" stroke="#1F78B4" paint-order="fill stroke markers" d=" M 85 58 L 105 58" stroke-linejoin="bevel" stroke-miterlimit="10" stroke-width="2"/></g><text fill="#444444" stroke="none" font-family="helvetica" font-size="10pt" font-style="normal" font-weight="normal" text-decoration="normal" x="110" y="81" text-anchor="start" dominant-baseline="central">sc5314_fluc_rep02_GTGATC.fastqAligned.primary.out_dedup</text><g><path fill="none" stroke="#33A02C" paint-order="fill stroke markers" d=" M 85 81 L 105 81" stroke-linejoin="bevel" stroke-miterlimit="10" stroke-width="2"/></g><text fill="#444444" stroke="none" font-family="helvetica" font-size="10pt" font-style="normal" font-weight="normal" text-decoration="normal" x="110" y="104" text-anchor="start" dominant-baseline="central">sc5314_fluc_rep03_ACTGGT.fastqAligned.primary.out_dedup</text><g><path fill="none" stroke="#C51B7D" paint-order="fill stroke markers" d=" M 85 104 L 105 104" stroke-linejoin="bevel" stroke-miterlimit="10" stroke-width="2"/></g><text fill="#444444" stroke="none" font-family="helvetica" font-size="10pt" font-style="normal" font-weight="normal" text-decoration="normal" x="110" y="127" text-anchor="start" dominant-baseline="central">sc5314_ut_rep01_CGTGCA.fastqAligned.primary.out_dedup</text><g><path fill="none" stroke="#542788" paint-order="fill stroke markers" d=" M 85 127 L 105 127" stroke-linejoin="bevel" stroke-miterlimit="10" stroke-width="2"/></g><text fill="#444444" stroke="none" font-family="helvetica" font-size="10pt" font-style="normal" font-weight="normal" text-decoration="normal" x="110" y="150" text-anchor="start" dominant-baseline="central">sc5314_ut_rep02_TAATGT.fastqAligned.primary.out_dedup</text><g><path fill="none" stroke="#A6CEE3" paint-order="fill stroke markers" d=" M 85 150 L 105 150" stroke-linejoin="bevel" stroke-miterlimit="10" stroke-width="2"/></g><text fill="#444444" stroke="none" font-family="helvetica" font-size="10pt" font-style="normal" font-weight="normal" text-decoration="normal" x="110" y="173" text-anchor="start" dominant-baseline="central">sc5314_ut_rep03_CTACAC.fastqAligned.primary.out_dedup</text><g><path fill="none" stroke="#B2DF8A" paint-order="fill stroke markers" d=" M 85 173 L 105 173" stroke-linejoin="bevel" stroke-miterlimit="10" stroke-width="2"/></g></g></g><g><g fill="#444444"><path fill="" stroke="none" d=""/><g transform="translate(65,23)"><path fill="none" stroke="none"/><text fill="" stroke="none" font-family="helvetica" font-size="10pt" font-style="normal" font-weight="bold" text-decoration="normal" x="0" y="0" text-anchor="start" dominant-baseline="text-after-edge">LYS-codon_scaled</text></g></g></g><g/><g><g fill="#444444"><path fill="none" stroke="black" paint-order="fill stroke markers" d=" M 65 555 L 570 555" stroke-linejoin="bevel" stroke-miterlimit="10"/><path fill="none" stroke="black" paint-order="fill stroke markers" d=" M 88 561 L 88 553" stroke-linejoin="bevel" stroke-miterlimit="10"/><path fill="none" stroke="black" paint-order="fill stroke markers" d=" M 160 561 L 160 553" stroke-linejoin="bevel" stroke-miterlimit="10"/><path fill="none" stroke="black" paint-order="fill stroke markers" d=" M 231 561 L 231 553" stroke-linejoin="bevel" stroke-miterlimit="10"/><path fill="none" stroke="black" paint-order="fill stroke markers" d=" M 303 561 L 303 553" stroke-linejoin="bevel" stroke-miterlimit="10"/><path fill="none" stroke="black" paint-order="fill stroke markers" d=" M 375 561 L 375 553" stroke-linejoin="bevel" stroke-miterlimit="10"/><path fill="none" stroke="black" paint-order="fill stroke markers" d=" M 447 561 L 447 553" stroke-linejoin="bevel" stroke-miterlimit="10"/><path fill="none" stroke="black" paint-order="fill stroke markers" d=" M 518 561 L 518 553" stroke-linejoin="bevel" stroke-miterlimit="10"/><path fill="none" stroke="black" paint-order="fill stroke markers" d=" M 74 559 L 74 555" stroke-linejoin="bevel" stroke-miterlimit="10"/><path fill="none" stroke="black" paint-order="fill stroke markers" d=" M 88 559 L 88 555" stroke-linejoin="bevel" stroke-miterlimit="10"/><path fill="none" stroke="black" paint-order="fill stroke markers" d=" M 102 559 L 102 555" stroke-linejoin="bevel" stroke-miterlimit="10"/><path fill="none" stroke="black" paint-order="fill stroke markers" d=" M 117 559 L 117 555" stroke-linejoin="bevel" stroke-miterlimit="10"/><path fill="none" stroke="black" paint-order="fill stroke markers" d=" M 131 559 L 131 555" stroke-linejoin="bevel" stroke-miterlimit="10"/><path fill="none" stroke="black" paint-order="fill stroke markers" d=" M 145 559 L 145 555" stroke-linejoin="bevel" stroke-miterlimit="10"/><path fill="none" stroke="black" paint-order="fill stroke markers" d=" M 160 559 L 160 555" stroke-linejoin="bevel" stroke-miterlimit="10"/><path fill="none" stroke="black" paint-order="fill stroke markers" d=" M 174 559 L 174 555" stroke-linejoin="bevel" stroke-miterlimit="10"/><path fill="none" stroke="black" paint-order="fill stroke markers" d=" M 188 559 L 188 555" stroke-linejoin="bevel" stroke-miterlimit="10"/><path fill="none" stroke="black" paint-order="fill stroke markers" d=" M 203 559 L 203 555" stroke-linejoin="bevel" stroke-miterlimit="10"/><path fill="none" stroke="black" paint-order="fill stroke markers" d=" M 217 559 L 217 555" stroke-linejoin="bevel" stroke-miterlimit="10"/><path fill="none" stroke="black" paint-order="fill stroke markers" d=" M 231 559 L 231 555" stroke-linejoin="bevel" stroke-miterlimit="10"/><path fill="none" stroke="black" paint-order="fill stroke markers" d=" M 246 559 L 246 555" stroke-linejoin="bevel" stroke-miterlimit="10"/><path fill="none" stroke="black" paint-order="fill stroke markers" d=" M 260 559 L 260 555" stroke-linejoin="bevel" stroke-miterlimit="10"/><path fill="none" stroke="black" paint-order="fill stroke markers" d=" M 274 559 L 274 555" stroke-linejoin="bevel" stroke-miterlimit="10"/><path fill="none" stroke="black" paint-order="fill stroke markers" d=" M 289 559 L 289 555" stroke-linejoin="bevel" stroke-miterlimit="10"/><path fill="none" stroke="black" paint-order="fill stroke markers" d=" M 303 559 L 303 555" stroke-linejoin="bevel" stroke-miterlimit="10"/><path fill="none" stroke="black" paint-order="fill stroke markers" d=" M 318 559 L 318 555" stroke-linejoin="bevel" stroke-miterlimit="10"/><path fill="none" stroke="black" paint-order="fill stroke markers" d=" M 332 559 L 332 555" stroke-linejoin="bevel" stroke-miterlimit="10"/><path fill="none" stroke="black" paint-order="fill stroke markers" d=" M 346 559 L 346 555" stroke-linejoin="bevel" stroke-miterlimit="10"/><path fill="none" stroke="black" paint-order="fill stroke markers" d=" M 361 559 L 361 555" stroke-linejoin="bevel" stroke-miterlimit="10"/><path fill="none" stroke="black" paint-order="fill stroke markers" d=" M 375 559 L 375 555" stroke-linejoin="bevel" stroke-miterlimit="10"/><path fill="none" stroke="black" paint-order="fill stroke markers" d=" M 389 559 L 389 555" stroke-linejoin="bevel" stroke-miterlimit="10"/><path fill="none" stroke="black" paint-order="fill stroke markers" d=" M 404 559 L 404 555" stroke-linejoin="bevel" stroke-miterlimit="10"/><path fill="none" stroke="black" paint-order="fill stroke markers" d=" M 418 559 L 418 555" stroke-linejoin="bevel" stroke-miterlimit="10"/><path fill="none" stroke="black" paint-order="fill stroke markers" d=" M 432 559 L 432 555" stroke-linejoin="bevel" stroke-miterlimit="10"/><path fill="none" stroke="black" paint-order="fill stroke markers" d=" M 447 559 L 447 555" stroke-linejoin="bevel" stroke-miterlimit="10"/><path fill="none" stroke="black" paint-order="fill stroke markers" d=" M 461 559 L 461 555" stroke-linejoin="bevel" stroke-miterlimit="10"/><path fill="none" stroke="black" paint-order="fill stroke markers" d=" M 475 559 L 475 555" stroke-linejoin="bevel" stroke-miterlimit="10"/><path fill="none" stroke="black" paint-order="fill stroke markers" d=" M 490 559 L 490 555" stroke-linejoin="bevel" stroke-miterlimit="10"/><path fill="none" stroke="black" paint-order="fill stroke markers" d=" M 504 559 L 504 555" stroke-linejoin="bevel" stroke-miterlimit="10"/><path fill="none" stroke="black" paint-order="fill stroke markers" d=" M 518 559 L 518 555" stroke-linejoin="bevel" stroke-miterlimit="10"/><path fill="none" stroke="black" paint-order="fill stroke markers" d=" M 533 559 L 533 555" stroke-linejoin="bevel" stroke-miterlimit="10"/><path fill="none" stroke="black" paint-order="fill stroke markers" d=" M 547 559 L 547 555" stroke-linejoin="bevel" stroke-miterlimit="10"/><path fill="" stroke="black" paint-order="fill stroke markers" d=" M 561 559 L 561 555" stroke-linejoin="bevel" stroke-miterlimit="10"/><g transform="translate(88,566) rotate(0,0,0)"><text fill="" stroke="none" font-family="helvetica" font-size="8pt" font-style="normal" font-weight="normal" text-decoration="normal" x="0" y="0" text-anchor="middle" dominant-baseline="hanging">-30</text><g transform="rotate(0,0,0) translate(-88,-566) translate(160,566) rotate(0,0,0)"><text fill="" stroke="none" font-family="helvetica" font-size="8pt" font-style="normal" font-weight="normal" text-decoration="normal" x="0" y="0" text-anchor="middle" dominant-baseline="hanging">-25</text><g transform="rotate(0,0,0) translate(-160,-566) translate(231,566) rotate(0,0,0)"><text fill="" stroke="none" font-family="helvetica" font-size="8pt" font-style="normal" font-weight="normal" text-decoration="normal" x="0" y="0" text-anchor="middle" dominant-baseline="hanging">-20</text><g transform="rotate(0,0,0) translate(-231,-566) translate(303,566) rotate(0,0,0)"><text fill="" stroke="none" font-family="helvetica" font-size="8pt" font-style="normal" font-weight="normal" text-decoration="normal" x="0" y="0" text-anchor="middle" dominant-baseline="hanging">-15</text><g transform="rotate(0,0,0) translate(-303,-566) translate(375,566) rotate(0,0,0)"><text fill="" stroke="none" font-family="helvetica" font-size="8pt" font-style="normal" font-weight="normal" text-decoration="normal" x="0" y="0" text-anchor="middle" dominant-baseline="hanging">-10</text><g transform="rotate(0,0,0) translate(-375,-566) translate(447,566) rotate(0,0,0)"><text fill="" stroke="none" font-family="helvetica" font-size="8pt" font-style="normal" font-weight="normal" text-decoration="normal" x="0" y="0" text-anchor="middle" dominant-baseline="hanging">-5</text><g transform="rotate(0,0,0) translate(-447,-566) translate(518,566) rotate(0,0,0)"><text fill="" stroke="none" font-family="helvetica" font-size="8pt" font-style="normal" font-weight="normal" text-decoration="normal" x="0" y="0" text-anchor="middle" dominant-baseline="hanging">0</text><g transform="rotate(0,0,0) translate(-518,-566) translate(318,584) rotate(0,0,0)"><text fill="" stroke="none" font-family="helvetica" font-size="10pt" font-style="italic" font-weight="normal" text-decoration="normal" x="0" y="0" text-anchor="middle" dominant-baseline="hanging">position from codon</text><g transform="rotate(0,0,0) translate(-318,-584)"/></g></g></g></g></g></g></g></g></g></g><g><g fill="#444444"><path fill="none" stroke="black" paint-order="fill stroke markers" d=" M 65 555 L 65 203" stroke-linejoin="bevel" stroke-miterlimit="10"/><path fill="none" stroke="black" paint-order="fill stroke markers" d=" M 59 535 L 67 535" stroke-linejoin="bevel" stroke-miterlimit="10"/><path fill="none" stroke="black" paint-order="fill stroke markers" d=" M 59 483 L 67 483" stroke-linejoin="bevel" stroke-miterlimit="10"/><path fill="none" stroke="black" paint-order="fill stroke markers" d=" M 59 431 L 67 431" stroke-linejoin="bevel" stroke-miterlimit="10"/><path fill="none" stroke="black" paint-order="fill stroke markers" d=" M 59 378 L 67 378" stroke-linejoin="bevel" stroke-miterlimit="10"/><path fill="none" stroke="black" paint-order="fill stroke markers" d=" M 59 326 L 67 326" stroke-linejoin="bevel" stroke-miterlimit="10"/><path fill="none" stroke="black" paint-order="fill stroke markers" d=" M 59 274 L 67 274" stroke-linejoin="bevel" stroke-miterlimit="10"/><path fill="none" stroke="black" paint-order="fill stroke markers" d=" M 59 221 L 67 221" stroke-linejoin="bevel" stroke-miterlimit="10"/><path fill="none" stroke="black" paint-order="fill stroke markers" d=" M 61 546 L 65 546" stroke-linejoin="bevel" stroke-miterlimit="10"/><path fill="none" stroke="black" paint-order="fill stroke markers" d=" M 61 535 L 65 535" stroke-linejoin="bevel" stroke-miterlimit="10"/><path fill="none" stroke="black" paint-order="fill stroke markers" d=" M 61 525 L 65 525" stroke-linejoin="bevel" stroke-miterlimit="10"/><path fill="none" stroke="black" paint-order="fill stroke markers" d=" M 61 514 L 65 514" stroke-linejoin="bevel" stroke-miterlimit="10"/><path fill="none" stroke="black" paint-order="fill stroke markers" d=" M 61 504 L 65 504" stroke-linejoin="bevel" stroke-miterlimit="10"/><path fill="none" stroke="black" paint-order="fill stroke markers" d=" M 61 493 L 65 493" stroke-linejoin="bevel" stroke-miterlimit="10"/><path fill="none" stroke="black" paint-order="fill stroke markers" d=" M 61 483 L 65 483" stroke-linejoin="bevel" stroke-miterlimit="10"/><path fill="none" stroke="black" paint-order="fill stroke markers" d=" M 61 472 L 65 472" stroke-linejoin="bevel" stroke-miterlimit="10"/><path fill="none" stroke="black" paint-order="fill stroke markers" d=" M 61 462 L 65 462" stroke-linejoin="bevel" stroke-miterlimit="10"/><path fill="none" stroke="black" paint-order="fill stroke markers" d=" M 61 451 L 65 451" stroke-linejoin="bevel" stroke-miterlimit="10"/><path fill="none" stroke="black" paint-order="fill stroke markers" d=" M 61 441 L 65 441" stroke-linejoin="bevel" stroke-miterlimit="10"/><path fill="none" stroke="black" paint-order="fill stroke markers" d=" M 61 431 L 65 431" stroke-linejoin="bevel" stroke-miterlimit="10"/><path fill="none" stroke="black" paint-order="fill stroke markers" d=" M 61 420 L 65 420" stroke-linejoin="bevel" stroke-miterlimit="10"/><path fill="none" stroke="black" paint-order="fill stroke markers" d=" M 61 410 L 65 410" stroke-linejoin="bevel" stroke-miterlimit="10"/><path fill="none" stroke="black" paint-order="fill stroke markers" d=" M 61 399 L 65 399" stroke-linejoin="bevel" stroke-miterlimit="10"/><path fill="none" stroke="black" paint-order="fill stroke markers" d=" M 61 389 L 65 389" stroke-linejoin="bevel" stroke-miterlimit="10"/><path fill="none" stroke="black" paint-order="fill stroke markers" d=" M 61 378 L 65 378" stroke-linejoin="bevel" stroke-miterlimit="10"/><path fill="none" stroke="black" paint-order="fill stroke markers" d=" M 61 368 L 65 368" stroke-linejoin="bevel" stroke-miterlimit="10"/><path fill="none" stroke="black" paint-order="fill stroke markers" d=" M 61 357 L 65 357" stroke-linejoin="bevel" stroke-miterlimit="10"/><path fill="none" stroke="black" paint-order="fill stroke markers" d=" M 61 347 L 65 347" stroke-linejoin="bevel" stroke-miterlimit="10"/><path fill="none" stroke="black" paint-order="fill stroke markers" d=" M 61 336 L 65 336" stroke-linejoin="bevel" stroke-miterlimit="10"/><path fill="none" stroke="black" paint-order="fill stroke markers" d=" M 61 326 L 65 326" stroke-linejoin="bevel" stroke-miterlimit="10"/><path fill="none" stroke="black" paint-order="fill stroke markers" d=" M 61 316 L 65 316" stroke-linejoin="bevel" stroke-miterlimit="10"/><path fill="none" stroke="black" paint-order="fill stroke markers" d=" M 61 305 L 65 305" stroke-linejoin="bevel" stroke-miterlimit="10"/><path fill="none" stroke="black" paint-order="fill stroke markers" d=" M 61 295 L 65 295" stroke-linejoin="bevel" stroke-miterlimit="10"/><path fill="none" stroke="black" paint-order="fill stroke markers" d=" M 61 284 L 65 284" stroke-linejoin="bevel" stroke-miterlimit="10"/><path fill="none" stroke="black" paint-order="fill stroke markers" d=" M 61 274 L 65 274" stroke-linejoin="bevel" stroke-miterlimit="10"/><path fill="none" stroke="black" paint-order="fill stroke markers" d=" M 61 263 L 65 263" stroke-linejoin="bevel" stroke-miterlimit="10"/><path fill="none" stroke="black" paint-order="fill stroke markers" d=" M 61 253 L 65 253" stroke-linejoin="bevel" stroke-miterlimit="10"/><path fill="none" stroke="black" paint-order="fill stroke markers" d=" M 61 242 L 65 242" stroke-linejoin="bevel" stroke-miterlimit="10"/><path fill="none" stroke="black" paint-order="fill stroke markers" d=" M 61 232 L 65 232" stroke-linejoin="bevel" stroke-miterlimit="10"/><path fill="none" stroke="black" paint-order="fill stroke markers" d=" M 61 221 L 65 221" stroke-linejoin="bevel" stroke-miterlimit="10"/><path fill="" stroke="black" paint-order="fill stroke markers" d=" M 61 211 L 65 211" stroke-linejoin="bevel" stroke-miterlimit="10"/><g transform="translate(54,535) rotate(0,0,0)"><text fill="" stroke="none" font-family="helvetica" font-size="8pt" font-style="normal" font-weight="normal" text-decoration="normal" x="0" y="0" text-anchor="end" dominant-baseline="central">26000</text><g transform="rotate(0,0,0) translate(-54,-535) translate(54,483) rotate(0,0,0)"><text fill="" stroke="none" font-family="helvetica" font-size="8pt" font-style="normal" font-weight="normal" text-decoration="normal" x="0" y="0" text-anchor="end" dominant-baseline="central">28000</text><g transform="rotate(0,0,0) translate(-54,-483) translate(54,431) rotate(0,0,0)"><text fill="" stroke="none" font-family="helvetica" font-size="8pt" font-style="normal" font-weight="normal" text-decoration="normal" x="0" y="0" text-anchor="end" dominant-baseline="central">30000</text><g transform="rotate(0,0,0) translate(-54,-431) translate(54,378) rotate(0,0,0)"><text fill="" stroke="none" font-family="helvetica" font-size="8pt" font-style="normal" font-weight="normal" text-decoration="normal" x="0" y="0" text-anchor="end" dominant-baseline="central">32000</text><g transform="rotate(0,0,0) translate(-54,-378) translate(54,326) rotate(0,0,0)"><text fill="" stroke="none" font-family="helvetica" font-size="8pt" font-style="normal" font-weight="normal" text-decoration="normal" x="0" y="0" text-anchor="end" dominant-baseline="central">34000</text><g transform="rotate(0,0,0) translate(-54,-326) translate(54,274) rotate(0,0,0)"><text fill="" stroke="none" font-family="helvetica" font-size="8pt" font-style="normal" font-weight="normal" text-decoration="normal" x="0" y="0" text-anchor="end" dominant-baseline="central">36000</text><g transform="rotate(0,0,0) translate(-54,-274) translate(54,221) rotate(0,0,0)"><text fill="" stroke="none" font-family="helvetica" font-size="8pt" font-style="normal" font-weight="normal" text-decoration="normal" x="0" y="0" text-anchor="end" dominant-baseline="central">38000</text><g transform="rotate(0,0,0) translate(-54,-221) translate(15,379) rotate(-90,0,0)"><text fill="" stroke="none" font-family="helvetica" font-size="10pt" font-style="italic" font-weight="normal" text-decoration="normal" x="0" y="0" text-anchor="middle" dominant-baseline="alphabetic">5'seq RPM</text><g transform="rotate(90,0,0) translate(-15,-379)"/></g></g></g></g></g></g></g></g></g></g><g clip-path="url(#MQOoqkBHzGOx)"><g/></g></g></g></svg>