<svg version="1.1" xmlns="http://www.w3.org/2000/svg" xmlns:xlink="http://www.w3.org/1999/xlink" width="600" height="600" style="width: 600px; height: 600px;"><defs><clipPath id="FPgaiHHOFXBq"><path fill="none" stroke="none" d=" M 52 203 L 570 203 L 570 555 L 52 555 L 52 203 Z"/></clipPath><clipPath id="TXIOFlHTJnfN"><path fill="none" stroke="none" d=" M 52 203 L 570 203 L 570 555 L 52 555 L 52 203 Z"/></clipPath><clipPath id="wWBLtIiiLhMM"><path fill="none" stroke="none" d=" M 52 203 L 570 203 L 570 555 L 52 555 L 52 203 Z"/></clipPath><clipPath id="JKzMobSakDZv"><path fill="none" stroke="none" d=" M 52 203 L 570 203 L 570 555 L 52 555 L 52 203 Z"/></clipPath><clipPath id="nPhFeCtLrwgR"><path fill="none" stroke="none" d=" M 52 203 L 570 203 L 570 555 L 52 555 L 52 203 Z"/></clipPath><clipPath id="UKfVpspamgHm"><path fill="none" stroke="none" d=" M 52 203 L 570 203 L 570 555 L 52 555 L 52 203 Z"/></clipPath><clipPath id="unAkHNMdIkWv"><path fill="none" stroke="none" d=" M 52 203 L 570 203 L 570 555 L 52 555 L 52 203 Z"/></clipPath><clipPath id="COfWTNhbARyT"><path fill="none" stroke="none" d=" M 52 203 L 570 203 L 570 555 L 52 555 L 52 203 Z"/></clipPath><clipPath id="uqqWeLAioMTv"><path fill="none" stroke="none" d=" M 52 203 L 570 203 L 570 555 L 52 555 L 52 203 Z"/></clipPath></defs><g><g/><g/><g/><g transform="scale(1,1) translate(0.5,0.5)"><rect fill="#FFFFFF" stroke="none" x="0" y="0" width="600" height="600"/><rect fill="#ffffff" stroke="none" x="0" y="0" width="600" height="600"/><rect fill="#FFFFFF" stroke="none" x="52" y="203" width="518" height="352"/><rect fill="#ffffff" stroke="none" x="52" y="203" width="518" height="352"/><g><rect fill="none" stroke="#e5e5e5" x="52" y="203" width="518" height="352" stroke-linejoin="bevel" stroke-miterlimit="10"/></g><g clip-path="url(#FPgaiHHOFXBq)"><g><g><path fill="none" stroke="#e5e5e5" paint-order="fill stroke markers" d=" M 76 555 L 76 203" stroke-linejoin="bevel" stroke-miterlimit="10"/><path fill="none" stroke="#e5e5e5" paint-order="fill stroke markers" d=" M 149 555 L 149 203" stroke-linejoin="bevel" stroke-miterlimit="10"/><path fill="none" stroke="#e5e5e5" paint-order="fill stroke markers" d=" M 223 555 L 223 203" stroke-linejoin="bevel" stroke-miterlimit="10"/><path fill="none" stroke="#e5e5e5" paint-order="fill stroke markers" d=" M 296 555 L 296 203" stroke-linejoin="bevel" stroke-miterlimit="10"/><path fill="none" stroke="#e5e5e5" paint-order="fill stroke markers" d=" M 370 555 L 370 203" stroke-linejoin="bevel" stroke-miterlimit="10"/><path fill="none" stroke="#e5e5e5" paint-order="fill stroke markers" d=" M 443 555 L 443 203" stroke-linejoin="bevel" stroke-miterlimit="10"/><path fill="none" stroke="#e5e5e5" paint-order="fill stroke markers" d=" M 517 555 L 517 203" stroke-linejoin="bevel" stroke-miterlimit="10"/></g></g></g><g clip-path="url(#TXIOFlHTJnfN)"><g><g><path fill="none" stroke="#e5e5e5" paint-order="fill stroke markers" d=" M 52 514 L 570 514" stroke-linejoin="bevel" stroke-miterlimit="10"/><path fill="none" stroke="#e5e5e5" paint-order="fill stroke markers" d=" M 52 467 L 570 467" stroke-linejoin="bevel" stroke-miterlimit="10"/><path fill="none" stroke="#e5e5e5" paint-order="fill stroke markers" d=" M 52 420 L 570 420" stroke-linejoin="bevel" stroke-miterlimit="10"/><path fill="none" stroke="#e5e5e5" paint-order="fill stroke markers" d=" M 52 373 L 570 373" stroke-linejoin="bevel" stroke-miterlimit="10"/><path fill="none" stroke="#e5e5e5" paint-order="fill stroke markers" d=" M 52 326 L 570 326" stroke-linejoin="bevel" stroke-miterlimit="10"/><path fill="none" stroke="#e5e5e5" paint-order="fill stroke markers" d=" M 52 279 L 570 279" stroke-linejoin="bevel" stroke-miterlimit="10"/><path fill="none" stroke="#e5e5e5" paint-order="fill stroke markers" d=" M 52 232 L 570 232" stroke-linejoin="bevel" stroke-miterlimit="10"/></g></g></g><g clip-path="url(#wWBLtIiiLhMM)"><g><g><path fill="none" stroke="none"/><path fill="none" stroke="#1F78B4" paint-order="fill stroke markers" d=" M 75.54545454545456 467.47495980850414 L 90.26136363636363 465.23644665707616 L 104.97727272727275 494.33711762563973 L 119.69318181818181 480.90603871707197 L 134.40909090909093 447.3283414456524 L 149.125 462.99793350564823 L 163.84090909090912 454.04388089993637 L 178.5568181818182 474.1904992627881 L 193.27272727272725 492.09860447421175 L 207.98863636363637 460.75942035422025 L 222.70454545454544 429.4202362342287 L 237.42045454545456 449.5668545970804 L 252.13636363636363 286.15539454283896 L 266.85227272727275 219 L 281.5681818181818 447.3283414456524 L 296.2840909090909 458.5209072027923 L 311 451.8053677485084 L 325.7159090909091 496.5756307770677 L 340.4318181818182 465.23644665707616 L 355.14772727272725 494.33711762563973 L 369.8636363636364 485.38306501992787 L 384.57954545454544 467.47495980850414 L 399.2954545454545 478.667525565644 L 414.0113636363636 498.81414392849564 L 428.72727272727275 510.0067096856355 L 443.4431818181818 496.5756307770677 L 458.1590909090909 478.667525565644 L 472.875 505.5296833827796 L 487.59090909090907 498.81414392849564 L 502.3068181818182 496.5756307770677 L 517.0227272727273 525.6763017456312 L 531.7386363636364 514.4837359884914 L 546.4545454545454 523.4377885942033" stroke-linejoin="bevel" stroke-miterlimit="10" stroke-width="2"/></g></g></g><g clip-path="url(#JKzMobSakDZv)"><g><g><path fill="none" stroke="none"/><path fill="none" stroke="#33A02C" paint-order="fill stroke markers" d=" M 75.54545454545456 433.6312378596983 L 90.26136363636363 490.76074340191934 L 104.97727272727275 449.9539537289043 L 119.69318181818181 466.2766695981103 L 134.40909090909093 474.4380275327133 L 149.125 485.319838112184 L 163.84090909090912 463.55621695324265 L 178.5568181818182 490.76074340191934 L 193.27272727272725 474.4380275327133 L 207.98863636363637 447.2335010840366 L 222.70454545454544 422.7494272802276 L 237.42045454545456 447.2335010840366 L 252.13636363636363 327.5335847098592 L 266.85227272727275 311.21086884065323 L 281.5681818181818 422.7494272802276 L 296.2840909090909 444.513048439169 L 311 482.5993854673163 L 325.7159090909091 466.2766695981103 L 340.4318181818182 468.997122242978 L 355.14772727272725 471.7175748878457 L 369.8636363636364 471.7175748878457 L 384.57954545454544 490.76074340191934 L 399.2954545454545 430.91078521483064 L 414.0113636363636 474.4380275327133 L 428.72727272727275 504.3630066262577 L 443.4431818181818 468.997122242978 L 458.1590909090909 496.20164869165467 L 472.875 504.3630066262577 L 487.59090909090907 496.20164869165467 L 502.3068181818182 509.803911915993 L 517.0227272727273 523.4061751403314 L 531.7386363636364 520.6857224954637 L 546.4545454545454 512.5243645608607" stroke-linejoin="bevel" stroke-miterlimit="10" stroke-width="2"/></g></g></g><g clip-path="url(#nPhFeCtLrwgR)"><g><g><path fill="none" stroke="none"/><path fill="none" stroke="#C51B7D" paint-order="fill stroke markers" d=" M 75.54545454545456 444.91987871433946 L 90.26136363636363 470.5089933750042 L 104.97727272727275 493.2548730733728 L 119.69318181818181 470.5089933750042 L 134.40909090909093 470.5089933750042 L 149.125 479.0386982618924 L 163.84090909090912 473.3522283373003 L 178.5568181818182 461.9792884881159 L 193.27272727272725 481.8819332241885 L 207.98863636363637 473.3522283373003 L 222.70454545454544 422.1739990159708 L 237.42045454545456 467.6657584127081 L 252.13636363636363 319.817540373312 L 266.85227272727275 248.73666631591004 L 281.5681818181818 456.2928185635238 L 296.2840909090909 461.9792884881159 L 311 481.8819332241885 L 325.7159090909091 464.82252345041206 L 340.4318181818182 484.72516818648455 L 355.14772727272725 496.0981080356689 L 369.8636363636364 456.2928185635238 L 384.57954545454544 498.94134299796497 L 399.2954545454545 444.91987871433946 L 414.0113636363636 467.6657584127081 L 428.72727272727275 498.94134299796497 L 443.4431818181818 481.8819332241885 L 458.1590909090909 484.72516818648455 L 472.875 487.56840314878065 L 487.59090909090907 496.0981080356689 L 502.3068181818182 521.6872226963336 L 517.0227272727273 498.94134299796497 L 531.7386363636364 521.6872226963336 L 546.4545454545454 518.8439877340376" stroke-linejoin="bevel" stroke-miterlimit="10" stroke-width="2"/></g></g></g><g clip-path="url(#UKfVpspamgHm)"><g><g><path fill="none" stroke="none"/><path fill="none" stroke="#542788" paint-order="fill stroke markers" d=" M 75.54545454545456 418.80851517223687 L 90.26136363636363 423.26739007836943 L 104.97727272727275 445.5617646090322 L 119.69318181818181 450.02063951516476 L 134.40909090909093 467.85613913969496 L 149.125 479.00332640502637 L 163.84090909090912 463.3972642335624 L 178.5568181818182 472.3150140458275 L 193.27272727272725 467.85613913969496 L 207.98863636363637 454.4795144212973 L 222.70454545454544 409.89076535997174 L 237.42045454545456 481.23276385809265 L 252.13636363636363 369.76089120477866 L 266.85227272727275 322.9427046903868 L 281.5681818181818 447.7912020620985 L 296.2840909090909 429.9557024375682 L 311 470.08557659276124 L 325.7159090909091 454.4795144212973 L 340.4318181818182 436.64401479676707 L 355.14772727272725 470.08557659276124 L 369.8636363636364 487.9210762172915 L 384.57954545454544 494.60938857649035 L 399.2954545454545 470.08557659276124 L 414.0113636363636 492.37995112342406 L 428.72727272727275 494.60938857649035 L 443.4431818181818 485.6916387642252 L 458.1590909090909 454.4795144212973 L 472.875 492.37995112342406 L 487.59090909090907 479.00332640502637 L 502.3068181818182 485.6916387642252 L 517.0227272727273 519.1332005602194 L 531.7386363636364 490.1505136703578 L 546.4545454545454 496.83882602955657" stroke-linejoin="bevel" stroke-miterlimit="10" stroke-width="2"/></g></g></g><g clip-path="url(#unAkHNMdIkWv)"><g><g><path fill="none" stroke="none"/><path fill="none" stroke="#A6CEE3" paint-order="fill stroke markers" d=" M 75.54545454545456 462.5254586271725 L 90.26136363636363 462.5254586271725 L 104.97727272727275 471.52246349456397 L 119.69318181818181 494.01497566304266 L 134.40909090909093 467.0239610608682 L 149.125 480.51946836195543 L 163.84090909090912 489.5164732293469 L 178.5568181818182 507.51048296412984 L 193.27272727272725 462.5254586271725 L 207.98863636363637 489.5164732293469 L 222.70454545454544 372.5554099532577 L 237.42045454545456 462.5254586271725 L 252.13636363636363 336.56739048369184 L 266.85227272727275 336.56739048369184 L 281.5681818181818 467.0239610608682 L 296.2840909090909 507.51048296412984 L 311 462.5254586271725 L 325.7159090909091 485.0179707956512 L 340.4318181818182 480.51946836195543 L 355.14772727272725 503.01198053043413 L 369.8636363636364 498.51347809673837 L 384.57954545454544 498.51347809673837 L 399.2954545454545 485.0179707956512 L 414.0113636363636 498.51347809673837 L 428.72727272727275 494.01497566304266 L 443.4431818181818 507.51048296412984 L 458.1590909090909 539 L 472.875 512.0089853978255 L 487.59090909090907 525.5044926989128 L 502.3068181818182 512.0089853978255 L 517.0227272727273 512.0089853978255 L 531.7386363636364 534.5014975663042 L 546.4545454545454 525.5044926989128" stroke-linejoin="bevel" stroke-miterlimit="10" stroke-width="2"/></g></g></g><g clip-path="url(#COfWTNhbARyT)"><g><g><path fill="none" stroke="none"/><path fill="none" stroke="#B2DF8A" paint-order="fill stroke markers" d=" M 75.54545454545456 410.3399140155017 L 90.26136363636363 467.67365814249297 L 104.97727272727275 457.24934102849454 L 119.69318181818181 462.46149958549375 L 134.40909090909093 452.0371824714953 L 149.125 446.8250239144961 L 163.84090909090912 493.734450927489 L 178.5568181818182 431.18854824349853 L 193.27272727272725 493.734450927489 L 207.98863636363637 483.31013381349055 L 222.70454545454544 337.3696942175128 L 237.42045454545456 452.0371824714953 L 252.13636363636363 332.1575356605136 L 266.85227272727275 353.0061698885104 L 281.5681818181818 410.3399140155017 L 296.2840909090909 452.0371824714953 L 311 493.734450927489 L 325.7159090909091 467.67365814249297 L 340.4318181818182 452.0371824714953 L 355.14772727272725 478.0979752564914 L 369.8636363636364 493.734450927489 L 384.57954545454544 488.5222923704898 L 399.2954545454545 431.18854824349853 L 414.0113636363636 493.734450927489 L 428.72727272727275 504.1587680414874 L 443.4431818181818 478.0979752564914 L 458.1590909090909 488.5222923704898 L 472.875 498.9466094844882 L 487.59090909090907 519.795243712485 L 502.3068181818182 514.5830851554858 L 517.0227272727273 498.9466094844882 L 531.7386363636364 504.1587680414874 L 546.4545454545454 525.0074022694843" stroke-linejoin="bevel" stroke-miterlimit="10" stroke-width="2"/></g></g></g><g><g/><g><path fill="#ffffff" stroke="#e5e5e5" paint-order="fill stroke markers" d=" M 62 38 L 466.421875 38 L 466.421875 193 L 62 193 L 62 38 Z" fill-opacity="0.95" stroke-linejoin="bevel" stroke-miterlimit="10" stroke-opacity="0.5"/><text fill="#444444" stroke="none" font-family="helvetica" font-size="10pt" font-style="normal" font-weight="normal" text-decoration="normal" x="97" y="58" text-anchor="start" dominant-baseline="central">sc5314_fluc_rep01_ACGCTG.fastqAligned.primary.out_dedup</text><g><path fill="none" stroke="#1F78B4" paint-order="fill stroke markers" d=" M 72 58 L 92 58" stroke-linejoin="bevel" stroke-miterlimit="10" stroke-width="2"/></g><text fill="#444444" stroke="none" font-family="helvetica" font-size="10pt" font-style="normal" font-weight="normal" text-decoration="normal" x="97" y="81" text-anchor="start" dominant-baseline="central">sc5314_fluc_rep02_GTGATC.fastqAligned.primary.out_dedup</text><g><path fill="none" stroke="#33A02C" paint-order="fill stroke markers" d=" M 72 81 L 92 81" stroke-linejoin="bevel" stroke-miterlimit="10" stroke-width="2"/></g><text fill="#444444" stroke="none" font-family="helvetica" font-size="10pt" font-style="normal" font-weight="normal" text-decoration="normal" x="97" y="104" text-anchor="start" dominant-baseline="central">sc5314_fluc_rep03_ACTGGT.fastqAligned.primary.out_dedup</text><g><path fill="none" stroke="#C51B7D" paint-order="fill stroke markers" d=" M 72 104 L 92 104" stroke-linejoin="bevel" stroke-miterlimit="10" stroke-width="2"/></g><text fill="#444444" stroke="none" font-family="helvetica" font-size="10pt" font-style="normal" font-weight="normal" text-decoration="normal" x="97" y="127" text-anchor="start" dominant-baseline="central">sc5314_ut_rep01_CGTGCA.fastqAligned.primary.out_dedup</text><g><path fill="none" stroke="#542788" paint-order="fill stroke markers" d=" M 72 127 L 92 127" stroke-linejoin="bevel" stroke-miterlimit="10" stroke-width="2"/></g><text fill="#444444" stroke="none" font-family="helvetica" font-size="10pt" font-style="normal" font-weight="normal" text-decoration="normal" x="97" y="150" text-anchor="start" dominant-baseline="central">sc5314_ut_rep02_TAATGT.fastqAligned.primary.out_dedup</text><g><path fill="none" stroke="#A6CEE3" paint-order="fill stroke markers" d=" M 72 150 L 92 150" stroke-linejoin="bevel" stroke-miterlimit="10" stroke-width="2"/></g><text fill="#444444" stroke="none" font-family="helvetica" font-size="10pt" font-style="normal" font-weight="normal" text-decoration="normal" x="97" y="173" text-anchor="start" dominant-baseline="central">sc5314_ut_rep03_CTACAC.fastqAligned.primary.out_dedup</text><g><path fill="none" stroke="#B2DF8A" paint-order="fill stroke markers" d=" M 72 173 L 92 173" stroke-linejoin="bevel" stroke-miterlimit="10" stroke-width="2"/></g></g></g><g><g fill="#444444"><path fill="" stroke="none" d=""/><g transform="translate(52,23)"><path fill="none" stroke="none"/><text fill="" stroke="none" font-family="helvetica" font-size="10pt" font-style="normal" font-weight="bold" text-decoration="normal" x="0" y="0" text-anchor="start" dominant-baseline="text-after-edge">TGA(TERM)-codon_scaled</text></g></g></g><g/><g><g fill="#444444"><path fill="none" stroke="black" paint-order="fill stroke markers" d=" M 52 555 L 570 555" stroke-linejoin="bevel" stroke-miterlimit="10"/><path fill="none" stroke="black" paint-order="fill stroke markers" d=" M 76 561 L 76 553" stroke-linejoin="bevel" stroke-miterlimit="10"/><path fill="none" stroke="black" paint-order="fill stroke markers" d=" M 149 561 L 149 553" stroke-linejoin="bevel" stroke-miterlimit="10"/><path fill="none" stroke="black" paint-order="fill stroke markers" d=" M 223 561 L 223 553" stroke-linejoin="bevel" stroke-miterlimit="10"/><path fill="none" stroke="black" paint-order="fill stroke markers" d=" M 296 561 L 296 553" stroke-linejoin="bevel" stroke-miterlimit="10"/><path fill="none" stroke="black" paint-order="fill stroke markers" d=" M 370 561 L 370 553" stroke-linejoin="bevel" stroke-miterlimit="10"/><path fill="none" stroke="black" paint-order="fill stroke markers" d=" M 443 561 L 443 553" stroke-linejoin="bevel" stroke-miterlimit="10"/><path fill="none" stroke="black" paint-order="fill stroke markers" d=" M 517 561 L 517 553" stroke-linejoin="bevel" stroke-miterlimit="10"/><path fill="none" stroke="black" paint-order="fill stroke markers" d=" M 61 559 L 61 555" stroke-linejoin="bevel" stroke-miterlimit="10"/><path fill="none" stroke="black" paint-order="fill stroke markers" d=" M 76 559 L 76 555" stroke-linejoin="bevel" stroke-miterlimit="10"/><path fill="none" stroke="black" paint-order="fill stroke markers" d=" M 90 559 L 90 555" stroke-linejoin="bevel" stroke-miterlimit="10"/><path fill="none" stroke="black" paint-order="fill stroke markers" d=" M 105 559 L 105 555" stroke-linejoin="bevel" stroke-miterlimit="10"/><path fill="none" stroke="black" paint-order="fill stroke markers" d=" M 120 559 L 120 555" stroke-linejoin="bevel" stroke-miterlimit="10"/><path fill="none" stroke="black" paint-order="fill stroke markers" d=" M 134 559 L 134 555" stroke-linejoin="bevel" stroke-miterlimit="10"/><path fill="none" stroke="black" paint-order="fill stroke markers" d=" M 149 559 L 149 555" stroke-linejoin="bevel" stroke-miterlimit="10"/><path fill="none" stroke="black" paint-order="fill stroke markers" d=" M 164 559 L 164 555" stroke-linejoin="bevel" stroke-miterlimit="10"/><path fill="none" stroke="black" paint-order="fill stroke markers" d=" M 179 559 L 179 555" stroke-linejoin="bevel" stroke-miterlimit="10"/><path fill="none" stroke="black" paint-order="fill stroke markers" d=" M 193 559 L 193 555" stroke-linejoin="bevel" stroke-miterlimit="10"/><path fill="none" stroke="black" paint-order="fill stroke markers" d=" M 208 559 L 208 555" stroke-linejoin="bevel" stroke-miterlimit="10"/><path fill="none" stroke="black" paint-order="fill stroke markers" d=" M 223 559 L 223 555" stroke-linejoin="bevel" stroke-miterlimit="10"/><path fill="none" stroke="black" paint-order="fill stroke markers" d=" M 237 559 L 237 555" stroke-linejoin="bevel" stroke-miterlimit="10"/><path fill="none" stroke="black" paint-order="fill stroke markers" d=" M 252 559 L 252 555" stroke-linejoin="bevel" stroke-miterlimit="10"/><path fill="none" stroke="black" paint-order="fill stroke markers" d=" M 267 559 L 267 555" stroke-linejoin="bevel" stroke-miterlimit="10"/><path fill="none" stroke="black" paint-order="fill stroke markers" d=" M 282 559 L 282 555" stroke-linejoin="bevel" stroke-miterlimit="10"/><path fill="none" stroke="black" paint-order="fill stroke markers" d=" M 296 559 L 296 555" stroke-linejoin="bevel" stroke-miterlimit="10"/><path fill="none" stroke="black" paint-order="fill stroke markers" d=" M 311 559 L 311 555" stroke-linejoin="bevel" stroke-miterlimit="10"/><path fill="none" stroke="black" paint-order="fill stroke markers" d=" M 326 559 L 326 555" stroke-linejoin="bevel" stroke-miterlimit="10"/><path fill="none" stroke="black" paint-order="fill stroke markers" d=" M 340 559 L 340 555" stroke-linejoin="bevel" stroke-miterlimit="10"/><path fill="none" stroke="black" paint-order="fill stroke markers" d=" M 355 559 L 355 555" stroke-linejoin="bevel" stroke-miterlimit="10"/><path fill="none" stroke="black" paint-order="fill stroke markers" d=" M 370 559 L 370 555" stroke-linejoin="bevel" stroke-miterlimit="10"/><path fill="none" stroke="black" paint-order="fill stroke markers" d=" M 385 559 L 385 555" stroke-linejoin="bevel" stroke-miterlimit="10"/><path fill="none" stroke="black" paint-order="fill stroke markers" d=" M 399 559 L 399 555" stroke-linejoin="bevel" stroke-miterlimit="10"/><path fill="none" stroke="black" paint-order="fill stroke markers" d=" M 414 559 L 414 555" stroke-linejoin="bevel" stroke-miterlimit="10"/><path fill="none" stroke="black" paint-order="fill stroke markers" d=" M 429 559 L 429 555" stroke-linejoin="bevel" stroke-miterlimit="10"/><path fill="none" stroke="black" paint-order="fill stroke markers" d=" M 443 559 L 443 555" stroke-linejoin="bevel" stroke-miterlimit="10"/><path fill="none" stroke="black" paint-order="fill stroke markers" d=" M 458 559 L 458 555" stroke-linejoin="bevel" stroke-miterlimit="10"/><path fill="none" stroke="black" paint-order="fill stroke markers" d=" M 473 559 L 473 555" stroke-linejoin="bevel" stroke-miterlimit="10"/><path fill="none" stroke="black" paint-order="fill stroke markers" d=" M 488 559 L 488 555" stroke-linejoin="bevel" stroke-miterlimit="10"/><path fill="none" stroke="black" paint-order="fill stroke markers" d=" M 502 559 L 502 555" stroke-linejoin="bevel" stroke-miterlimit="10"/><path fill="none" stroke="black" paint-order="fill stroke markers" d=" M 517 559 L 517 555" stroke-linejoin="bevel" stroke-miterlimit="10"/><path fill="none" stroke="black" paint-order="fill stroke markers" d=" M 532 559 L 532 555" stroke-linejoin="bevel" stroke-miterlimit="10"/><path fill="none" stroke="black" paint-order="fill stroke markers" d=" M 546 559 L 546 555" stroke-linejoin="bevel" stroke-miterlimit="10"/><path fill="" stroke="black" paint-order="fill stroke markers" d=" M 561 559 L 561 555" stroke-linejoin="bevel" stroke-miterlimit="10"/><g transform="translate(76,566) rotate(0,0,0)"><text fill="" stroke="none" font-family="helvetica" font-size="8pt" font-style="normal" font-weight="normal" text-decoration="normal" x="0" y="0" text-anchor="middle" dominant-baseline="hanging">-30</text><g transform="rotate(0,0,0) translate(-76,-566) translate(149,566) rotate(0,0,0)"><text fill="" stroke="none" font-family="helvetica" font-size="8pt" font-style="normal" font-weight="normal" text-decoration="normal" x="0" y="0" text-anchor="middle" dominant-baseline="hanging">-25</text><g transform="rotate(0,0,0) translate(-149,-566) translate(223,566) rotate(0,0,0)"><text fill="" stroke="none" font-family="helvetica" font-size="8pt" font-style="normal" font-weight="normal" text-decoration="normal" x="0" y="0" text-anchor="middle" dominant-baseline="hanging">-20</text><g transform="rotate(0,0,0) translate(-223,-566) translate(296,566) rotate(0,0,0)"><text fill="" stroke="none" font-family="helvetica" font-size="8pt" font-style="normal" font-weight="normal" text-decoration="normal" x="0" y="0" text-anchor="middle" dominant-baseline="hanging">-15</text><g transform="rotate(0,0,0) translate(-296,-566) translate(370,566) rotate(0,0,0)"><text fill="" stroke="none" font-family="helvetica" font-size="8pt" font-style="normal" font-weight="normal" text-decoration="normal" x="0" y="0" text-anchor="middle" dominant-baseline="hanging">-10</text><g transform="rotate(0,0,0) translate(-370,-566) translate(443,566) rotate(0,0,0)"><text fill="" stroke="none" font-family="helvetica" font-size="8pt" font-style="normal" font-weight="normal" text-decoration="normal" x="0" y="0" text-anchor="middle" dominant-baseline="hanging">-5</text><g transform="rotate(0,0,0) translate(-443,-566) translate(517,566) rotate(0,0,0)"><text fill="" stroke="none" font-family="helvetica" font-size="8pt" font-style="normal" font-weight="normal" text-decoration="normal" x="0" y="0" text-anchor="middle" dominant-baseline="hanging">0</text><g transform="rotate(0,0,0) translate(-517,-566) translate(311,584) rotate(0,0,0)"><text fill="" stroke="none" font-family="helvetica" font-size="10pt" font-style="italic" font-weight="normal" text-decoration="normal" x="0" y="0" text-anchor="middle" dominant-baseline="hanging">position from codon</text><g transform="rotate(0,0,0) translate(-311,-584)"/></g></g></g></g></g></g></g></g></g></g><g><g fill="#444444"><path fill="none" stroke="black" paint-order="fill stroke markers" d=" M 52 555 L 52 203" stroke-linejoin="bevel" stroke-miterlimit="10"/><path fill="none" stroke="black" paint-order="fill stroke markers" d=" M 46 514 L 54 514" stroke-linejoin="bevel" stroke-miterlimit="10"/><path fill="none" stroke="black" paint-order="fill stroke markers" d=" M 46 467 L 54 467" stroke-linejoin="bevel" stroke-miterlimit="10"/><path fill="none" stroke="black" paint-order="fill stroke markers" d=" M 46 420 L 54 420" stroke-linejoin="bevel" stroke-miterlimit="10"/><path fill="none" stroke="black" paint-order="fill stroke markers" d=" M 46 373 L 54 373" stroke-linejoin="bevel" stroke-miterlimit="10"/><path fill="none" stroke="black" paint-order="fill stroke markers" d=" M 46 326 L 54 326" stroke-linejoin="bevel" stroke-miterlimit="10"/><path fill="none" stroke="black" paint-order="fill stroke markers" d=" M 46 279 L 54 279" stroke-linejoin="bevel" stroke-miterlimit="10"/><path fill="none" stroke="black" paint-order="fill stroke markers" d=" M 46 232 L 54 232" stroke-linejoin="bevel" stroke-miterlimit="10"/><path fill="none" stroke="black" paint-order="fill stroke markers" d=" M 48 524 L 52 524" stroke-linejoin="bevel" stroke-miterlimit="10"/><path fill="none" stroke="black" paint-order="fill stroke markers" d=" M 48 533 L 52 533" stroke-linejoin="bevel" stroke-miterlimit="10"/><path fill="none" stroke="black" paint-order="fill stroke markers" d=" M 48 543 L 52 543" stroke-linejoin="bevel" stroke-miterlimit="10"/><path fill="none" stroke="black" paint-order="fill stroke markers" d=" M 48 552 L 52 552" stroke-linejoin="bevel" stroke-miterlimit="10"/><path fill="none" stroke="black" paint-order="fill stroke markers" d=" M 48 514 L 52 514" stroke-linejoin="bevel" stroke-miterlimit="10"/><path fill="none" stroke="black" paint-order="fill stroke markers" d=" M 48 505 L 52 505" stroke-linejoin="bevel" stroke-miterlimit="10"/><path fill="none" stroke="black" paint-order="fill stroke markers" d=" M 48 496 L 52 496" stroke-linejoin="bevel" stroke-miterlimit="10"/><path fill="none" stroke="black" paint-order="fill stroke markers" d=" M 48 486 L 52 486" stroke-linejoin="bevel" stroke-miterlimit="10"/><path fill="none" stroke="black" paint-order="fill stroke markers" d=" M 48 477 L 52 477" stroke-linejoin="bevel" stroke-miterlimit="10"/><path fill="none" stroke="black" paint-order="fill stroke markers" d=" M 48 467 L 52 467" stroke-linejoin="bevel" stroke-miterlimit="10"/><path fill="none" stroke="black" paint-order="fill stroke markers" d=" M 48 458 L 52 458" stroke-linejoin="bevel" stroke-miterlimit="10"/><path fill="none" stroke="black" paint-order="fill stroke markers" d=" M 48 449 L 52 449" stroke-linejoin="bevel" stroke-miterlimit="10"/><path fill="none" stroke="black" paint-order="fill stroke markers" d=" M 48 439 L 52 439" stroke-linejoin="bevel" stroke-miterlimit="10"/><path fill="none" stroke="black" paint-order="fill stroke markers" d=" M 48 430 L 52 430" stroke-linejoin="bevel" stroke-miterlimit="10"/><path fill="none" stroke="black" paint-order="fill stroke markers" d=" M 48 420 L 52 420" stroke-linejoin="bevel" stroke-miterlimit="10"/><path fill="none" stroke="black" paint-order="fill stroke markers" d=" M 48 411 L 52 411" stroke-linejoin="bevel" stroke-miterlimit="10"/><path fill="none" stroke="black" paint-order="fill stroke markers" d=" M 48 402 L 52 402" stroke-linejoin="bevel" stroke-miterlimit="10"/><path fill="none" stroke="black" paint-order="fill stroke markers" d=" M 48 392 L 52 392" stroke-linejoin="bevel" stroke-miterlimit="10"/><path fill="none" stroke="black" paint-order="fill stroke markers" d=" M 48 383 L 52 383" stroke-linejoin="bevel" stroke-miterlimit="10"/><path fill="none" stroke="black" paint-order="fill stroke markers" d=" M 48 373 L 52 373" stroke-linejoin="bevel" stroke-miterlimit="10"/><path fill="none" stroke="black" paint-order="fill stroke markers" d=" M 48 364 L 52 364" stroke-linejoin="bevel" stroke-miterlimit="10"/><path fill="none" stroke="black" paint-order="fill stroke markers" d=" M 48 354 L 52 354" stroke-linejoin="bevel" stroke-miterlimit="10"/><path fill="none" stroke="black" paint-order="fill stroke markers" d=" M 48 345 L 52 345" stroke-linejoin="bevel" stroke-miterlimit="10"/><path fill="none" stroke="black" paint-order="fill stroke markers" d=" M 48 336 L 52 336" stroke-linejoin="bevel" stroke-miterlimit="10"/><path fill="none" stroke="black" paint-order="fill stroke markers" d=" M 48 326 L 52 326" stroke-linejoin="bevel" stroke-miterlimit="10"/><path fill="none" stroke="black" paint-order="fill stroke markers" d=" M 48 317 L 52 317" stroke-linejoin="bevel" stroke-miterlimit="10"/><path fill="none" stroke="black" paint-order="fill stroke markers" d=" M 48 307 L 52 307" stroke-linejoin="bevel" stroke-miterlimit="10"/><path fill="none" stroke="black" paint-order="fill stroke markers" d=" M 48 298 L 52 298" stroke-linejoin="bevel" stroke-miterlimit="10"/><path fill="none" stroke="black" paint-order="fill stroke markers" d=" M 48 289 L 52 289" stroke-linejoin="bevel" stroke-miterlimit="10"/><path fill="none" stroke="black" paint-order="fill stroke markers" d=" M 48 279 L 52 279" stroke-linejoin="bevel" stroke-miterlimit="10"/><path fill="none" stroke="black" paint-order="fill stroke markers" d=" M 48 270 L 52 270" stroke-linejoin="bevel" stroke-miterlimit="10"/><path fill="none" stroke="black" paint-order="fill stroke markers" d=" M 48 260 L 52 260" stroke-linejoin="bevel" stroke-miterlimit="10"/><path fill="none" stroke="black" paint-order="fill stroke markers" d=" M 48 251 L 52 251" stroke-linejoin="bevel" stroke-miterlimit="10"/><path fill="none" stroke="black" paint-order="fill stroke markers" d=" M 48 242 L 52 242" stroke-linejoin="bevel" stroke-miterlimit="10"/><path fill="none" stroke="black" paint-order="fill stroke markers" d=" M 48 232 L 52 232" stroke-linejoin="bevel" stroke-miterlimit="10"/><path fill="none" stroke="black" paint-order="fill stroke markers" d=" M 48 223 L 52 223" stroke-linejoin="bevel" stroke-miterlimit="10"/><path fill="none" stroke="black" paint-order="fill stroke markers" d=" M 48 213 L 52 213" stroke-linejoin="bevel" stroke-miterlimit="10"/><path fill="" stroke="black" paint-order="fill stroke markers" d=" M 48 204 L 52 204" stroke-linejoin="bevel" stroke-miterlimit="10"/><g transform="translate(41,514) rotate(0,0,0)"><text fill="" stroke="none" font-family="helvetica" font-size="8pt" font-style="normal" font-weight="normal" text-decoration="normal" x="0" y="0" text-anchor="end" dominant-baseline="central">20</text><g transform="rotate(0,0,0) translate(-41,-514) translate(41,467) rotate(0,0,0)"><text fill="" stroke="none" font-family="helvetica" font-size="8pt" font-style="normal" font-weight="normal" text-decoration="normal" x="0" y="0" text-anchor="end" dominant-baseline="central">40</text><g transform="rotate(0,0,0) translate(-41,-467) translate(41,420) rotate(0,0,0)"><text fill="" stroke="none" font-family="helvetica" font-size="8pt" font-style="normal" font-weight="normal" text-decoration="normal" x="0" y="0" text-anchor="end" dominant-baseline="central">60</text><g transform="rotate(0,0,0) translate(-41,-420) translate(41,373) rotate(0,0,0)"><text fill="" stroke="none" font-family="helvetica" font-size="8pt" font-style="normal" font-weight="normal" text-decoration="normal" x="0" y="0" text-anchor="end" dominant-baseline="central">80</text><g transform="rotate(0,0,0) translate(-41,-373) translate(41,326) rotate(0,0,0)"><text fill="" stroke="none" font-family="helvetica" font-size="8pt" font-style="normal" font-weight="normal" text-decoration="normal" x="0" y="0" text-anchor="end" dominant-baseline="central">100</text><g transform="rotate(0,0,0) translate(-41,-326) translate(41,279) rotate(0,0,0)"><text fill="" stroke="none" font-family="helvetica" font-size="8pt" font-style="normal" font-weight="normal" text-decoration="normal" x="0" y="0" text-anchor="end" dominant-baseline="central">120</text><g transform="rotate(0,0,0) translate(-41,-279) translate(41,232) rotate(0,0,0)"><text fill="" stroke="none" font-family="helvetica" font-size="8pt" font-style="normal" font-weight="normal" text-decoration="normal" x="0" y="0" text-anchor="end" dominant-baseline="central">140</text><g transform="rotate(0,0,0) translate(-41,-232) translate(16,379) rotate(-90,0,0)"><text fill="" stroke="none" font-family="helvetica" font-size="10pt" font-style="italic" font-weight="normal" text-decoration="normal" x="0" y="0" text-anchor="middle" dominant-baseline="alphabetic">5'seq RPM</text><g transform="rotate(90,0,0) translate(-16,-379)"/></g></g></g></g></g></g></g></g></g></g><g clip-path="url(#uqqWeLAioMTv)"><g/></g></g></g></svg>