<svg version="1.1" xmlns="http://www.w3.org/2000/svg" xmlns:xlink="http://www.w3.org/1999/xlink" width="600" height="600" style="width: 600px; height: 600px;"><defs><clipPath id="HLGbZRvGdWmc"><path fill="none" stroke="none" d=" M 52 28 L 570 28 L 570 555 L 52 555 L 52 28 Z"/></clipPath><clipPath id="iEvbzfOqLaCx"><path fill="none" stroke="none" d=" M 52 28 L 570 28 L 570 555 L 52 555 L 52 28 Z"/></clipPath><clipPath id="syZQhkgXKueq"><path fill="none" stroke="none" d=" M 52 28 L 570 28 L 570 555 L 52 555 L 52 28 Z"/></clipPath><clipPath id="shDVzNQuCJHq"><path fill="none" stroke="none" d=" M 52 28 L 570 28 L 570 555 L 52 555 L 52 28 Z"/></clipPath></defs><g><g transform="scale(1,1) translate(0.5,0.5)"><rect fill="#FFFFFF" stroke="none" x="0" y="0" width="600" height="600"/><rect fill="#ffffff" stroke="none" x="0" y="0" width="600" height="600"/><rect fill="#FFFFFF" stroke="none" x="52" y="28" width="518" height="527"/><rect fill="#ffffff" stroke="none" x="52" y="28" width="518" height="527"/><g><rect fill="none" stroke="#e5e5e5" x="52" y="28" width="518" height="527" stroke-linejoin="bevel" stroke-miterlimit="10"/></g><g clip-path="url(#HLGbZRvGdWmc)"><g><g><path fill="none" stroke="#e5e5e5" paint-order="fill stroke markers" d=" M 68 555 L 68 28" stroke-linejoin="bevel" stroke-miterlimit="10"/><path fill="none" stroke="#e5e5e5" paint-order="fill stroke markers" d=" M 187 555 L 187 28" stroke-linejoin="bevel" stroke-miterlimit="10"/><path fill="none" stroke="#e5e5e5" paint-order="fill stroke markers" d=" M 305 555 L 305 28" stroke-linejoin="bevel" stroke-miterlimit="10"/><path fill="none" stroke="#e5e5e5" paint-order="fill stroke markers" d=" M 423 555 L 423 28" stroke-linejoin="bevel" stroke-miterlimit="10"/><path fill="none" stroke="#e5e5e5" paint-order="fill stroke markers" d=" M 542 555 L 542 28" stroke-linejoin="bevel" stroke-miterlimit="10"/></g></g></g><g clip-path="url(#iEvbzfOqLaCx)"><g><g><path fill="none" stroke="#e5e5e5" paint-order="fill stroke markers" d=" M 52 512 L 570 512" stroke-linejoin="bevel" stroke-miterlimit="10"/><path fill="none" stroke="#e5e5e5" paint-order="fill stroke markers" d=" M 52 435 L 570 435" stroke-linejoin="bevel" stroke-miterlimit="10"/><path fill="none" stroke="#e5e5e5" paint-order="fill stroke markers" d=" M 52 357 L 570 357" stroke-linejoin="bevel" stroke-miterlimit="10"/><path fill="none" stroke="#e5e5e5" paint-order="fill stroke markers" d=" M 52 280 L 570 280" stroke-linejoin="bevel" stroke-miterlimit="10"/><path fill="none" stroke="#e5e5e5" paint-order="fill stroke markers" d=" M 52 203 L 570 203" stroke-linejoin="bevel" stroke-miterlimit="10"/><path fill="none" stroke="#e5e5e5" paint-order="fill stroke markers" d=" M 52 125 L 570 125" stroke-linejoin="bevel" stroke-miterlimit="10"/><path fill="none" stroke="#e5e5e5" paint-order="fill stroke markers" d=" M 52 48 L 570 48" stroke-linejoin="bevel" stroke-miterlimit="10"/></g></g></g><g clip-path="url(#syZQhkgXKueq)"><g><g><path fill="none" stroke="none"/><path fill="none" stroke="rgb(239,138,98)" paint-order="fill stroke markers" d=" M 75.54545454545459 55.84300734774183 L 77.9118318867063 61.189642450886936 L 80.278209227958 83.71031758231618 L 82.64458656920971 87.43676022996283 L 85.01096391046144 80.79397116241893 L 87.37734125171315 136.2045531404679 L 89.74371859296485 125.99734067082727 L 92.11009593421659 51.95454545454538 L 94.4764732754683 109.30935837919264 L 96.84285061672 119.35455160328337 L 99.2092279579717 102.99060780274846 L 101.57560529922341 124.37714821532876 L 103.94198264047515 73.5031051126756 L 106.30835998172685 85.33051003781475 L 108.67473732297856 119.51657084883323 L 111.04111466423029 141.87522673471273 L 113.407492005482 134.09830294831983 L 115.7738693467337 146.57378485565835 L 118.14024668798541 143.81945768131084 L 120.50662402923712 124.37714821532876 L 122.87300137048885 140.41705352476401 L 125.23937871174056 153.70263165985182 L 127.60575605299226 137.50070710486665 L 129.972133394244 185.78244227872221 L 132.3385107354957 178.8156147200787 L 134.7048880767474 144.95359240015983 L 137.07126541799911 188.53676945306972 L 139.43764275925082 174.7651335813324 L 141.80402010050256 162.28965167399383 L 144.17039744175426 146.57378485565835 L 146.53677478300597 194.36946229286434 L 148.9031521242577 169.0944599870876 L 151.2695294655094 158.4011897807975 L 153.6359068067611 183.35215359547453 L 156.00228414801282 159.53532449964644 L 158.36866148926453 216.56609893319393 L 160.73503883051626 181.5699418944261 L 163.10141617176797 191.61513511851683 L 165.46779351301967 219.6444645986411 L 167.8341708542714 181.40792264887625 L 170.2005481955231 204.90071325360464 L 172.56692553677482 158.887247517447 L 174.93330287802652 185.78244227872221 L 177.29968021927823 134.42234143941954 L 179.66605756052996 211.86754081224825 L 182.03243490178167 190.3189811541181 L 184.39881224303338 132.1540720017216 L 186.7651895842851 161.31753620069475 L 189.13156692553682 210.4093676022996 L 191.49794426678852 168.93244074153773 L 193.86432160804023 220.61658007194018 L 196.23069894929193 228.39350385833308 L 198.59707629054367 236.98052387247515 L 200.96345363179537 255.45071786515814 L 203.32983097304708 243.29927444891933 L 205.69620831429881 228.55552310388288 L 208.06258565555052 285.42427829188057 L 210.42896299680223 276.83725827773844 L 212.79534033805393 252.85840993636054 L 215.16171767930564 301.7882220924155 L 217.52809502055737 262.5795646693516 L 219.89447236180908 273.5968733667414 L 222.26084970306079 292.3911058505241 L 224.62722704431252 271.0045654379438 L 226.99360438556423 279.1055277154364 L 229.35998172681593 293.20120207827335 L 231.72635906806764 272.7867771389922 L 234.09273640931934 239.41081255572288 L 236.45911375057108 274.8930273311402 L 238.82549109182278 307.4588956866603 L 241.1918684330745 312.80553078980535 L 243.55824577432622 324.63293571494444 L 245.92462311557793 308.10697266885967 L 248.29100045682964 329.1694745903403 L 250.65737779808134 338.24255234113195 L 253.02375513933305 323.66082024164535 L 255.39013248058478 324.7949549604943 L 257.7565098218365 309.07908814215875 L 260.1228871630882 320.9064930672979 L 262.4892645043399 56.65310357549117 L 264.8556418455916 57.3011805576906 L 267.22201918684334 306.9728379500107 L 269.5883965280951 330.4656285547391 L 271.95477386934675 361.5733237003104 L 274.3211512105985 379.07140221969433 L 276.68752855185016 375.18294032649794 L 279.0539058931019 395.5973652657791 L 281.42028323435363 359.7911119992621 L 283.7866605756053 405.4805392443201 L 286.15303791685704 400.2959233867248 L 288.5194152581088 401.91611584222335 L 290.88579259936046 410.17909736526576 L 293.2521699406122 420.54832908045614 L 295.6185472818639 405.15650075322037 L 297.9849246231156 409.69303962861613 L 300.35130196436734 416.1738094506102 L 302.717679305619 420.54832908045614 L 305.08405664687075 446.79544685953203 L 307.4504339881225 417.79400190610875 L 309.81681132937416 373.4007286254496 L 312.1831886706259 328.1973591170412 L 314.5495660118776 422.0065022904048 L 316.9159433531293 357.68486180711403 L 319.28232069438104 437.8843883542902 L 321.6486980356327 415.03967473176124 L 324.01507537688445 417.46996341500903 L 326.3814527181362 412.77140529406336 L 328.74783005938787 421.5204445537553 L 331.1142074006396 412.93342453961316 L 333.48058474189133 417.95602115165855 L 335.846962083143 429.9454453223475 L 338.21333942439475 425.084867955852 L 340.5797167656464 410.8271743474651 L 342.94609410689816 438.2084268453899 L 345.3124714481499 412.93342453961316 L 347.67884878940157 427.51515663909976 L 350.0452261306533 435.6161189165923 L 352.411603471905 441.44881175638693 L 354.7779808131567 435.45409967104246 L 357.14435815440845 440.47669628308785 L 359.51073549566013 454.5723706459249 L 361.87711283691186 440.6387155286377 L 364.2434901781636 454.24833215482516 L 366.6098675194153 450.35987026162877 L 368.976244860667 453.6002551726258 L 371.34262220191874 459.9190057490699 L 373.7089995431704 462.67333292341743 L 376.07537688442216 457.32669782027233 L 378.4417542256739 460.24304424016964 L 380.80813156692557 457.65073631137204 L 383.17450890817724 460.7291019768192 L 385.540886249429 480.65746917945086 L 387.9072635906807 487.7863159836443 L 390.2736409319324 477.0930457773541 L 392.6400182731841 472.2324684108586 L 395.00639561443586 467.0478525532634 L 397.37277295568754 482.9257386171488 L 399.7391502969393 477.9031420051034 L 402.105527638191 475.9589110585052 L 404.4719049794427 485.5180465459464 L 406.8382823206944 471.58439142865916 L 409.20465966194615 462.5113136778675 L 411.57103700319783 490.21660466689207 L 413.93741434444956 482.6017001260491 L 416.3037916857013 470.77429520090993 L 418.670169026953 492.32285485904015 L 421.03654636820465 482.6017001260491 L 423.4029237094564 477.5791035140037 L 425.7693010507081 502.206028837581 L 428.1356783919598 490.8646816490915 L 430.50205573321153 490.21660466689207 L 432.86843307446327 490.3786239124419 L 435.23481041571495 471.9084299197589 L 437.6011877569667 492.9709318412395 L 439.9675650982184 487.6242967380945 L 442.3339424394701 492.9709318412395 L 444.7003197807218 473.69064162080724 L 447.06669712197356 491.350739385741 L 449.43307446322524 483.57381559934817 L 451.799451804477 468.3440065176622 L 454.1658291457287 500.2617978909828 L 456.5322064869804 480.98150767055057 L 458.89858382823206 494.59112429673803 L 461.2649611694838 488.27237372029384 L 463.63133851073553 508.5247794140252 L 465.9977158519872 503.34016355642996 L 468.36409319323894 501.23391336428193 L 470.7304705344907 490.7026624035416 L 473.09684787574236 489.2444891935929 L 475.4632252169941 509.17285639622463 L 477.8296025582458 510.95506809727294 L 480.1959798994975 507.2286254496264 L 482.56235724074924 481.62958465274994 L 484.92873458200097 495.0771820333876 L 487.29511192325265 486.3281427736956 L 489.6614892645044 522.1343960402127 L 492.0278666057561 505.77045223967775 L 494.3942439470078 505.9324714852276 L 496.7606212882595 518.5699726381159 L 499.1269986295112 522.1343960402127 L 501.49337597076294 501.71997110093145 L 503.8597533120146 516.1396839548681 L 506.22613065326635 497.6694899621852 L 508.5925079945181 489.2444891935929 L 510.95888533576976 503.8262212930795 L 513.3252626770216 491.51275863129086 L 515.6916400182732 477.5791035140037 L 518.0580173595249 500.5858363820825 L 520.4243947007767 523.7545884957112 L 522.7907720420284 497.9935284532849 L 525.1571493832801 524.8887232145602 L 527.5235267245318 524.4026654779105 L 529.8899040657835 516.9497801826175 L 532.2562814070352 498.6416054354843 L 534.6226587482869 513.7093952716205 L 536.9890360895386 526.5089156700586 L 539.3554134307903 531.0454545454545 L 541.721790772042 517.7598764103667 L 544.0881681132937 510.46901036062343 L 546.4545454545455 510.6310296061733" stroke-linejoin="bevel" stroke-miterlimit="10" stroke-width="2"/></g></g></g><g><g fill="#444444"><path fill="" stroke="none" d=""/><g transform="translate(52,23)"><path fill="none" stroke="none"/><text fill="" stroke="none" font-family="helvetica" font-size="10pt" font-style="normal" font-weight="bold" text-decoration="normal" x="0" y="0" text-anchor="start" dominant-baseline="text-after-edge">combined-sum-metagene_counts-STOP_combined_summed_scaled</text></g></g></g><g/><g><g fill="#444444"><path fill="none" stroke="black" paint-order="fill stroke markers" d=" M 52 555 L 570 555" stroke-linejoin="bevel" stroke-miterlimit="10"/><path fill="none" stroke="black" paint-order="fill stroke markers" d=" M 68 561 L 68 553" stroke-linejoin="bevel" stroke-miterlimit="10"/><path fill="none" stroke="black" paint-order="fill stroke markers" d=" M 187 561 L 187 553" stroke-linejoin="bevel" stroke-miterlimit="10"/><path fill="none" stroke="black" paint-order="fill stroke markers" d=" M 305 561 L 305 553" stroke-linejoin="bevel" stroke-miterlimit="10"/><path fill="none" stroke="black" paint-order="fill stroke markers" d=" M 423 561 L 423 553" stroke-linejoin="bevel" stroke-miterlimit="10"/><path fill="none" stroke="black" paint-order="fill stroke markers" d=" M 542 561 L 542 553" stroke-linejoin="bevel" stroke-miterlimit="10"/><path fill="none" stroke="black" paint-order="fill stroke markers" d=" M 68 559 L 68 555" stroke-linejoin="bevel" stroke-miterlimit="10"/><path fill="none" stroke="black" paint-order="fill stroke markers" d=" M 92 559 L 92 555" stroke-linejoin="bevel" stroke-miterlimit="10"/><path fill="none" stroke="black" paint-order="fill stroke markers" d=" M 116 559 L 116 555" stroke-linejoin="bevel" stroke-miterlimit="10"/><path fill="none" stroke="black" paint-order="fill stroke markers" d=" M 139 559 L 139 555" stroke-linejoin="bevel" stroke-miterlimit="10"/><path fill="none" stroke="black" paint-order="fill stroke markers" d=" M 163 559 L 163 555" stroke-linejoin="bevel" stroke-miterlimit="10"/><path fill="none" stroke="black" paint-order="fill stroke markers" d=" M 187 559 L 187 555" stroke-linejoin="bevel" stroke-miterlimit="10"/><path fill="none" stroke="black" paint-order="fill stroke markers" d=" M 210 559 L 210 555" stroke-linejoin="bevel" stroke-miterlimit="10"/><path fill="none" stroke="black" paint-order="fill stroke markers" d=" M 234 559 L 234 555" stroke-linejoin="bevel" stroke-miterlimit="10"/><path fill="none" stroke="black" paint-order="fill stroke markers" d=" M 258 559 L 258 555" stroke-linejoin="bevel" stroke-miterlimit="10"/><path fill="none" stroke="black" paint-order="fill stroke markers" d=" M 281 559 L 281 555" stroke-linejoin="bevel" stroke-miterlimit="10"/><path fill="none" stroke="black" paint-order="fill stroke markers" d=" M 305 559 L 305 555" stroke-linejoin="bevel" stroke-miterlimit="10"/><path fill="none" stroke="black" paint-order="fill stroke markers" d=" M 329 559 L 329 555" stroke-linejoin="bevel" stroke-miterlimit="10"/><path fill="none" stroke="black" paint-order="fill stroke markers" d=" M 352 559 L 352 555" stroke-linejoin="bevel" stroke-miterlimit="10"/><path fill="none" stroke="black" paint-order="fill stroke markers" d=" M 376 559 L 376 555" stroke-linejoin="bevel" stroke-miterlimit="10"/><path fill="none" stroke="black" paint-order="fill stroke markers" d=" M 400 559 L 400 555" stroke-linejoin="bevel" stroke-miterlimit="10"/><path fill="none" stroke="black" paint-order="fill stroke markers" d=" M 423 559 L 423 555" stroke-linejoin="bevel" stroke-miterlimit="10"/><path fill="none" stroke="black" paint-order="fill stroke markers" d=" M 447 559 L 447 555" stroke-linejoin="bevel" stroke-miterlimit="10"/><path fill="none" stroke="black" paint-order="fill stroke markers" d=" M 471 559 L 471 555" stroke-linejoin="bevel" stroke-miterlimit="10"/><path fill="none" stroke="black" paint-order="fill stroke markers" d=" M 494 559 L 494 555" stroke-linejoin="bevel" stroke-miterlimit="10"/><path fill="none" stroke="black" paint-order="fill stroke markers" d=" M 518 559 L 518 555" stroke-linejoin="bevel" stroke-miterlimit="10"/><path fill="none" stroke="black" paint-order="fill stroke markers" d=" M 542 559 L 542 555" stroke-linejoin="bevel" stroke-miterlimit="10"/><path fill="" stroke="black" paint-order="fill stroke markers" d=" M 565 559 L 565 555" stroke-linejoin="bevel" stroke-miterlimit="10"/><g transform="translate(68,566) rotate(0,0,0)"><text fill="" stroke="none" font-family="helvetica" font-size="8pt" font-style="normal" font-weight="normal" text-decoration="normal" x="0" y="0" text-anchor="middle" dominant-baseline="hanging">-100</text><g transform="rotate(0,0,0) translate(-68,-566) translate(187,566) rotate(0,0,0)"><text fill="" stroke="none" font-family="helvetica" font-size="8pt" font-style="normal" font-weight="normal" text-decoration="normal" x="0" y="0" text-anchor="middle" dominant-baseline="hanging">-50</text><g transform="rotate(0,0,0) translate(-187,-566) translate(305,566) rotate(0,0,0)"><text fill="" stroke="none" font-family="helvetica" font-size="8pt" font-style="normal" font-weight="normal" text-decoration="normal" x="0" y="0" text-anchor="middle" dominant-baseline="hanging">0</text><g transform="rotate(0,0,0) translate(-305,-566) translate(423,566) rotate(0,0,0)"><text fill="" stroke="none" font-family="helvetica" font-size="8pt" font-style="normal" font-weight="normal" text-decoration="normal" x="0" y="0" text-anchor="middle" dominant-baseline="hanging">50</text><g transform="rotate(0,0,0) translate(-423,-566) translate(542,566) rotate(0,0,0)"><text fill="" stroke="none" font-family="helvetica" font-size="8pt" font-style="normal" font-weight="normal" text-decoration="normal" x="0" y="0" text-anchor="middle" dominant-baseline="hanging">100</text><g transform="rotate(0,0,0) translate(-542,-566) translate(311,584) rotate(0,0,0)"><text fill="" stroke="none" font-family="helvetica" font-size="10pt" font-style="italic" font-weight="normal" text-decoration="normal" x="0" y="0" text-anchor="middle" dominant-baseline="hanging">position from STOP</text><g transform="rotate(0,0,0) translate(-311,-584)"/></g></g></g></g></g></g></g></g><g><g fill="#444444"><path fill="none" stroke="black" paint-order="fill stroke markers" d=" M 52 555 L 52 28" stroke-linejoin="bevel" stroke-miterlimit="10"/><path fill="none" stroke="black" paint-order="fill stroke markers" d=" M 46 512 L 54 512" stroke-linejoin="bevel" stroke-miterlimit="10"/><path fill="none" stroke="black" paint-order="fill stroke markers" d=" M 46 435 L 54 435" stroke-linejoin="bevel" stroke-miterlimit="10"/><path fill="none" stroke="black" paint-order="fill stroke markers" d=" M 46 357 L 54 357" stroke-linejoin="bevel" stroke-miterlimit="10"/><path fill="none" stroke="black" paint-order="fill stroke markers" d=" M 46 280 L 54 280" stroke-linejoin="bevel" stroke-miterlimit="10"/><path fill="none" stroke="black" paint-order="fill stroke markers" d=" M 46 203 L 54 203" stroke-linejoin="bevel" stroke-miterlimit="10"/><path fill="none" stroke="black" paint-order="fill stroke markers" d=" M 46 125 L 54 125" stroke-linejoin="bevel" stroke-miterlimit="10"/><path fill="none" stroke="black" paint-order="fill stroke markers" d=" M 46 48 L 54 48" stroke-linejoin="bevel" stroke-miterlimit="10"/><path fill="none" stroke="black" paint-order="fill stroke markers" d=" M 48 528 L 52 528" stroke-linejoin="bevel" stroke-miterlimit="10"/><path fill="none" stroke="black" paint-order="fill stroke markers" d=" M 48 543 L 52 543" stroke-linejoin="bevel" stroke-miterlimit="10"/><path fill="none" stroke="black" paint-order="fill stroke markers" d=" M 48 512 L 52 512" stroke-linejoin="bevel" stroke-miterlimit="10"/><path fill="none" stroke="black" paint-order="fill stroke markers" d=" M 48 497 L 52 497" stroke-linejoin="bevel" stroke-miterlimit="10"/><path fill="none" stroke="black" paint-order="fill stroke markers" d=" M 48 481 L 52 481" stroke-linejoin="bevel" stroke-miterlimit="10"/><path fill="none" stroke="black" paint-order="fill stroke markers" d=" M 48 466 L 52 466" stroke-linejoin="bevel" stroke-miterlimit="10"/><path fill="none" stroke="black" paint-order="fill stroke markers" d=" M 48 450 L 52 450" stroke-linejoin="bevel" stroke-miterlimit="10"/><path fill="none" stroke="black" paint-order="fill stroke markers" d=" M 48 435 L 52 435" stroke-linejoin="bevel" stroke-miterlimit="10"/><path fill="none" stroke="black" paint-order="fill stroke markers" d=" M 48 419 L 52 419" stroke-linejoin="bevel" stroke-miterlimit="10"/><path fill="none" stroke="black" paint-order="fill stroke markers" d=" M 48 404 L 52 404" stroke-linejoin="bevel" stroke-miterlimit="10"/><path fill="none" stroke="black" paint-order="fill stroke markers" d=" M 48 388 L 52 388" stroke-linejoin="bevel" stroke-miterlimit="10"/><path fill="none" stroke="black" paint-order="fill stroke markers" d=" M 48 373 L 52 373" stroke-linejoin="bevel" stroke-miterlimit="10"/><path fill="none" stroke="black" paint-order="fill stroke markers" d=" M 48 357 L 52 357" stroke-linejoin="bevel" stroke-miterlimit="10"/><path fill="none" stroke="black" paint-order="fill stroke markers" d=" M 48 342 L 52 342" stroke-linejoin="bevel" stroke-miterlimit="10"/><path fill="none" stroke="black" paint-order="fill stroke markers" d=" M 48 326 L 52 326" stroke-linejoin="bevel" stroke-miterlimit="10"/><path fill="none" stroke="black" paint-order="fill stroke markers" d=" M 48 311 L 52 311" stroke-linejoin="bevel" stroke-miterlimit="10"/><path fill="none" stroke="black" paint-order="fill stroke markers" d=" M 48 296 L 52 296" stroke-linejoin="bevel" stroke-miterlimit="10"/><path fill="none" stroke="black" paint-order="fill stroke markers" d=" M 48 280 L 52 280" stroke-linejoin="bevel" stroke-miterlimit="10"/><path fill="none" stroke="black" paint-order="fill stroke markers" d=" M 48 265 L 52 265" stroke-linejoin="bevel" stroke-miterlimit="10"/><path fill="none" stroke="black" paint-order="fill stroke markers" d=" M 48 249 L 52 249" stroke-linejoin="bevel" stroke-miterlimit="10"/><path fill="none" stroke="black" paint-order="fill stroke markers" d=" M 48 234 L 52 234" stroke-linejoin="bevel" stroke-miterlimit="10"/><path fill="none" stroke="black" paint-order="fill stroke markers" d=" M 48 218 L 52 218" stroke-linejoin="bevel" stroke-miterlimit="10"/><path fill="none" stroke="black" paint-order="fill stroke markers" d=" M 48 203 L 52 203" stroke-linejoin="bevel" stroke-miterlimit="10"/><path fill="none" stroke="black" paint-order="fill stroke markers" d=" M 48 187 L 52 187" stroke-linejoin="bevel" stroke-miterlimit="10"/><path fill="none" stroke="black" paint-order="fill stroke markers" d=" M 48 172 L 52 172" stroke-linejoin="bevel" stroke-miterlimit="10"/><path fill="none" stroke="black" paint-order="fill stroke markers" d=" M 48 156 L 52 156" stroke-linejoin="bevel" stroke-miterlimit="10"/><path fill="none" stroke="black" paint-order="fill stroke markers" d=" M 48 141 L 52 141" stroke-linejoin="bevel" stroke-miterlimit="10"/><path fill="none" stroke="black" paint-order="fill stroke markers" d=" M 48 125 L 52 125" stroke-linejoin="bevel" stroke-miterlimit="10"/><path fill="none" stroke="black" paint-order="fill stroke markers" d=" M 48 110 L 52 110" stroke-linejoin="bevel" stroke-miterlimit="10"/><path fill="none" stroke="black" paint-order="fill stroke markers" d=" M 48 95 L 52 95" stroke-linejoin="bevel" stroke-miterlimit="10"/><path fill="none" stroke="black" paint-order="fill stroke markers" d=" M 48 79 L 52 79" stroke-linejoin="bevel" stroke-miterlimit="10"/><path fill="none" stroke="black" paint-order="fill stroke markers" d=" M 48 64 L 52 64" stroke-linejoin="bevel" stroke-miterlimit="10"/><path fill="none" stroke="black" paint-order="fill stroke markers" d=" M 48 48 L 52 48" stroke-linejoin="bevel" stroke-miterlimit="10"/><path fill="" stroke="black" paint-order="fill stroke markers" d=" M 48 33 L 52 33" stroke-linejoin="bevel" stroke-miterlimit="10"/><g transform="translate(41,512) rotate(0,0,0)"><text fill="" stroke="none" font-family="helvetica" font-size="8pt" font-style="normal" font-weight="normal" text-decoration="normal" x="0" y="0" text-anchor="end" dominant-baseline="central">100</text><g transform="rotate(0,0,0) translate(-41,-512) translate(41,435) rotate(0,0,0)"><text fill="" stroke="none" font-family="helvetica" font-size="8pt" font-style="normal" font-weight="normal" text-decoration="normal" x="0" y="0" text-anchor="end" dominant-baseline="central">200</text><g transform="rotate(0,0,0) translate(-41,-435) translate(41,357) rotate(0,0,0)"><text fill="" stroke="none" font-family="helvetica" font-size="8pt" font-style="normal" font-weight="normal" text-decoration="normal" x="0" y="0" text-anchor="end" dominant-baseline="central">300</text><g transform="rotate(0,0,0) translate(-41,-357) translate(41,280) rotate(0,0,0)"><text fill="" stroke="none" font-family="helvetica" font-size="8pt" font-style="normal" font-weight="normal" text-decoration="normal" x="0" y="0" text-anchor="end" dominant-baseline="central">400</text><g transform="rotate(0,0,0) translate(-41,-280) translate(41,203) rotate(0,0,0)"><text fill="" stroke="none" font-family="helvetica" font-size="8pt" font-style="normal" font-weight="normal" text-decoration="normal" x="0" y="0" text-anchor="end" dominant-baseline="central">500</text><g transform="rotate(0,0,0) translate(-41,-203) translate(41,125) rotate(0,0,0)"><text fill="" stroke="none" font-family="helvetica" font-size="8pt" font-style="normal" font-weight="normal" text-decoration="normal" x="0" y="0" text-anchor="end" dominant-baseline="central">600</text><g transform="rotate(0,0,0) translate(-41,-125) translate(41,48) rotate(0,0,0)"><text fill="" stroke="none" font-family="helvetica" font-size="8pt" font-style="normal" font-weight="normal" text-decoration="normal" x="0" y="0" text-anchor="end" dominant-baseline="central">700</text><g transform="rotate(0,0,0) translate(-41,-48) translate(16,292) rotate(-90,0,0)"><text fill="" stroke="none" font-family="helvetica" font-size="10pt" font-style="italic" font-weight="normal" text-decoration="normal" x="0" y="0" text-anchor="middle" dominant-baseline="alphabetic">5'seq RPM</text><g transform="rotate(90,0,0) translate(-16,-292)"/></g></g></g></g></g></g></g></g></g></g><g clip-path="url(#shDVzNQuCJHq)"><g/></g></g></g></svg>