<svg version="1.1" xmlns="http://www.w3.org/2000/svg" xmlns:xlink="http://www.w3.org/1999/xlink" width="600" height="600" style="width: 600px; height: 600px;"><defs><clipPath id="rFyNnVuBSzlJ"><path fill="none" stroke="none" d=" M 52 28 L 570 28 L 570 555 L 52 555 L 52 28 Z"/></clipPath><clipPath id="zyNSgvNTubnG"><path fill="none" stroke="none" d=" M 52 28 L 570 28 L 570 555 L 52 555 L 52 28 Z"/></clipPath><clipPath id="BobtTeATkIqo"><path fill="none" stroke="none" d=" M 52 28 L 570 28 L 570 555 L 52 555 L 52 28 Z"/></clipPath><clipPath id="AOSTroLMdxqW"><path fill="none" stroke="none" d=" M 52 28 L 570 28 L 570 555 L 52 555 L 52 28 Z"/></clipPath></defs><g><g transform="scale(1,1) translate(0.5,0.5)"><rect fill="#FFFFFF" stroke="none" x="0" y="0" width="600" height="600"/><rect fill="#ffffff" stroke="none" x="0" y="0" width="600" height="600"/><rect fill="#FFFFFF" stroke="none" x="52" y="28" width="518" height="527"/><rect fill="#ffffff" stroke="none" x="52" y="28" width="518" height="527"/><g><rect fill="none" stroke="#e5e5e5" x="52" y="28" width="518" height="527" stroke-linejoin="bevel" stroke-miterlimit="10"/></g><g clip-path="url(#rFyNnVuBSzlJ)"><g><g><path fill="none" stroke="#e5e5e5" paint-order="fill stroke markers" d=" M 68 555 L 68 28" stroke-linejoin="bevel" stroke-miterlimit="10"/><path fill="none" stroke="#e5e5e5" paint-order="fill stroke markers" d=" M 187 555 L 187 28" stroke-linejoin="bevel" stroke-miterlimit="10"/><path fill="none" stroke="#e5e5e5" paint-order="fill stroke markers" d=" M 305 555 L 305 28" stroke-linejoin="bevel" stroke-miterlimit="10"/><path fill="none" stroke="#e5e5e5" paint-order="fill stroke markers" d=" M 423 555 L 423 28" stroke-linejoin="bevel" stroke-miterlimit="10"/><path fill="none" stroke="#e5e5e5" paint-order="fill stroke markers" d=" M 542 555 L 542 28" stroke-linejoin="bevel" stroke-miterlimit="10"/></g></g></g><g clip-path="url(#zyNSgvNTubnG)"><g><g><path fill="none" stroke="#e5e5e5" paint-order="fill stroke markers" d=" M 52 499 L 570 499" stroke-linejoin="bevel" stroke-miterlimit="10"/><path fill="none" stroke="#e5e5e5" paint-order="fill stroke markers" d=" M 52 411 L 570 411" stroke-linejoin="bevel" stroke-miterlimit="10"/><path fill="none" stroke="#e5e5e5" paint-order="fill stroke markers" d=" M 52 323 L 570 323" stroke-linejoin="bevel" stroke-miterlimit="10"/><path fill="none" stroke="#e5e5e5" paint-order="fill stroke markers" d=" M 52 235 L 570 235" stroke-linejoin="bevel" stroke-miterlimit="10"/><path fill="none" stroke="#e5e5e5" paint-order="fill stroke markers" d=" M 52 147 L 570 147" stroke-linejoin="bevel" stroke-miterlimit="10"/><path fill="none" stroke="#e5e5e5" paint-order="fill stroke markers" d=" M 52 59 L 570 59" stroke-linejoin="bevel" stroke-miterlimit="10"/></g></g></g><g clip-path="url(#BobtTeATkIqo)"><g><g><path fill="none" stroke="none"/><path fill="none" stroke="rgb(216,179,101)" paint-order="fill stroke markers" d=" M 75.54545454545459 57.49319449724237 L 77.9118318867063 60.77275215747784 L 80.278209227958 84.75802001044866 L 82.64458656920971 87.44783807206596 L 85.01096391046144 75.45851907716315 L 87.37734125171315 135.61812830276318 L 89.74371859296485 128.1245147736513 L 92.11009593421659 51.954545454545496 L 94.4764732754683 111.40369291396678 L 96.84285061672 121.6137994674217 L 99.2092279579717 102.20241505553815 L 101.57560529922341 129.09400126927318 L 103.94198264047515 75.96850546848947 L 106.30835998172685 91.50962742484842 L 108.67473732297856 121.32528360249353 L 111.04111466423029 142.60442182867382 L 113.407492005482 136.22792519056657 L 115.7738693467337 148.47956528502078 L 118.14024668798541 145.0761063660844 L 120.50662402923712 120.65538115130681 L 122.87300137048885 136.78587240025138 L 125.23937871174056 154.09065209778316 L 127.60575605299226 140.23104052213893 L 129.972133394244 187.8771329209722 L 132.3385107354957 181.79743684489893 L 134.7048880767474 144.6938650285449 L 137.07126541799911 187.76564051583813 L 139.43764275925082 175.9229981705069 L 141.80402010050256 162.74005428792879 L 144.17039744175426 153.53402192167312 L 146.53677478300597 198.37219836983974 L 148.9031521242577 168.29951545310485 L 151.2695294655094 162.58971576418992 L 153.6359068067611 187.15046227797632 L 156.00228414801282 162.50848207153354 L 158.36866148926453 215.89666724629694 L 160.73503883051626 182.4794799779022 L 163.10141617176797 192.79271648435338 L 165.46779351301967 220.81036400347978 L 167.8341708542714 181.6063663198138 L 170.2005481955231 203.74399656419428 L 172.56692553677482 161.91266853052701 L 174.93330287802652 186.99753678336646 L 177.29968021927823 135.7434808656053 L 179.66605756052996 212.22613271998216 L 182.03243490178167 189.43869074272345 L 184.39881224303338 129.23133457127642 L 186.7651895842851 160.3151058809459 L 189.13156692553682 209.20466709818555 L 191.49794426678852 169.44384789823522 L 193.86432160804023 216.72322540203714 L 196.23069894929193 229.06019157870725 L 198.59707629054367 234.92000584284176 L 200.96345363179537 256.5948303782539 L 203.32983097304708 246.3597692614212 L 205.69620831429881 227.04124559753865 L 208.06258565555052 283.3167874326015 L 210.42896299680223 277.316470748653 L 212.79534033805393 249.702819723262 L 215.16171767930564 302.0994165806599 L 217.52809502055737 265.66214111809455 L 219.89447236180908 272.658770337864 L 222.26084970306079 288.9126091410282 L 224.62722704431252 271.02074810658644 L 226.99360438556423 276.38154202461953 L 229.35998172681593 295.8660231850843 L 231.72635906806764 273.615959348766 L 234.09273640931934 240.43405289782953 L 236.45911375057108 275.15648194096195 L 238.82549109182278 308.22964493189465 L 241.1918684330745 309.9636115169177 L 243.55824577432622 321.1835886089542 L 245.92462311557793 309.2818987966286 L 248.29100045682964 328.89274148844174 L 250.65737779808134 337.5607915885538 L 253.02375513933305 324.8988420674492 L 255.39013248058478 325.54273666084276 L 257.7565098218365 313.89176748826935 L 260.1228871630882 321.86542765808423 L 262.4892645043399 55.85545983030022 L 264.8556418455916 57.711697219333814 L 267.22201918684334 312.63174072651157 L 269.5883965280951 331.8847287184524 L 271.95477386934675 365.2479852072952 L 274.3211512105985 380.2067744244498 L 276.68752855185016 374.7225479942048 L 279.0539058931019 396.79251178325376 L 281.42028323435363 360.9723887237275 L 283.7866605756053 404.19448962167803 L 286.15303791685704 400.7119582675373 L 288.5194152581088 401.7300167249898 L 290.88579259936046 408.80910709571583 L 293.2521699406122 419.21131179658215 L 295.6185472818639 407.4233027964623 L 297.9849246231156 410.72086619505586 L 300.35130196436734 414.07321327756927 L 302.717679305619 422.0835863816123 L 305.08405664687075 447.05387529912997 L 307.4504339881225 417.59165009562696 L 309.81681132937416 376.25907497507615 L 312.1831886706259 330.54912997547166 L 314.5495660118776 423.14402243978714 L 316.9159433531293 360.3979417484469 L 319.28232069438104 438.07132049949917 L 321.6486980356327 415.9846199859318 L 324.01507537688445 417.21630162164683 L 326.3814527181362 416.6321856880569 L 328.74783005938787 419.82974521839486 L 331.1142074006396 412.42950384746035 L 333.48058474189133 417.0210881015894 L 335.846962083143 430.0550969295262 L 338.21333942439475 425.07525742013786 L 340.5797167656464 410.3095865850696 L 342.94609410689816 436.01965073123193 L 345.3124714481499 415.5858138714631 L 347.67884878940157 429.6084960341668 L 350.0452261306533 433.79773604282286 L 352.411603471905 439.421557504584 L 354.7779808131567 438.2563301952773 L 357.14435815440845 441.46393619291723 L 359.51073549566013 454.1822787978251 L 361.87711283691186 441.41485854634016 L 364.2434901781636 453.2962419209331 L 366.6098675194153 450.7629840784733 L 368.976244860667 454.50468828447015 L 371.34262220191874 461.41408152941455 L 373.7089995431704 462.5739204703939 L 376.07537688442216 456.7985513110315 L 378.4417542256739 459.4443936382114 L 380.80813156692557 455.54679945774114 L 383.17450890817724 461.7923422156239 L 385.540886249429 479.85427936237016 L 387.9072635906807 487.35930164172436 L 390.2736409319324 478.2622711185843 L 392.6400182731841 472.2947055560452 L 395.00639561443586 465.13352803422094 L 397.37277295568754 483.21905118190097 L 399.7391502969393 478.2040608571984 L 402.105527638191 476.08235707597885 L 404.4719049794427 485.54047236492704 L 406.8382823206944 472.5996711352301 L 409.20465966194615 462.7371051966694 L 411.57103700319783 490.9596869077231 L 413.93741434444956 483.18349773957885 L 416.3037916857013 470.1652190686408 L 418.670169026953 492.03523071325617 L 421.03654636820465 483.5766384487883 L 423.4029237094564 479.4929500652967 L 425.7693010507081 501.32119026599696 L 428.1356783919598 490.9152112139691 L 430.50205573321153 491.28963660089187 L 432.86843307446327 489.8727548526808 L 435.23481041571495 471.4123359093675 L 437.6011877569667 492.89274663799927 L 439.9675650982184 488.272879868174 L 442.3339424394701 491.98279851881523 L 444.7003197807218 473.47787580867214 L 447.06669712197356 491.7841534346268 L 449.43307446322524 484.0055337291325 L 451.799451804477 468.19685245891196 L 454.1658291457287 499.82091670742926 L 456.5322064869804 480.85543893635344 L 458.89858382823206 493.78910572628627 L 461.2649611694838 488.31064461928736 L 463.63133851073553 508.27251729849866 L 465.9977158519872 501.8663160217777 L 468.36409319323894 501.5169063310491 L 470.7304705344907 491.4457096044317 L 473.09684787574236 489.06788037760793 L 475.4632252169941 508.65988381928014 L 477.8296025582458 509.45233817461775 L 480.1959798994975 508.1678545925033 L 482.56235724074924 483.07202934431206 L 484.92873458200097 498.34292929251035 L 487.29511192325265 487.2487352787082 L 489.6614892645044 520.5469357388843 L 492.0278666057561 506.97002502296544 L 494.3942439470078 505.4638768039091 L 496.7606212882595 518.6772655677833 L 499.1269986295112 521.283315418199 L 501.49337597076294 502.0902259507078 L 503.8597533120146 517.2818074549061 L 506.22613065326635 499.2834587798523 L 508.5925079945181 491.61220621488354 L 510.95888533576976 504.04072958844404 L 513.3252626770216 493.085017471765 L 515.6916400182732 478.7043769973764 L 518.0580173595249 500.3856284202283 L 520.4243947007767 522.9788098844757 L 522.7907720420284 498.9794591361037 L 525.1571493832801 523.6112909256535 L 527.5235267245318 525.4633683281162 L 529.8899040657835 514.8707969606634 L 532.2562814070352 498.88097970973917 L 534.6226587482869 514.1105342968237 L 536.9890360895386 526.3586464182946 L 539.3554134307903 531.0454545454546 L 541.721790772042 517.5839860425551 L 544.0881681132937 510.791060970735 L 546.4545454545455 510.7291360134735" stroke-linejoin="bevel" stroke-miterlimit="10" stroke-width="2"/></g></g></g><g><g fill="#444444"><path fill="" stroke="none" d=""/><g transform="translate(52,23)"><path fill="none" stroke="none"/><text fill="" stroke="none" font-family="helvetica" font-size="10pt" font-style="normal" font-weight="bold" text-decoration="normal" x="0" y="0" text-anchor="start" dominant-baseline="text-after-edge">combined-weighted-metagene_counts-STOP_combined_weighted_raw</text></g></g></g><g/><g><g fill="#444444"><path fill="none" stroke="black" paint-order="fill stroke markers" d=" M 52 555 L 570 555" stroke-linejoin="bevel" stroke-miterlimit="10"/><path fill="none" stroke="black" paint-order="fill stroke markers" d=" M 68 561 L 68 553" stroke-linejoin="bevel" stroke-miterlimit="10"/><path fill="none" stroke="black" paint-order="fill stroke markers" d=" M 187 561 L 187 553" stroke-linejoin="bevel" stroke-miterlimit="10"/><path fill="none" stroke="black" paint-order="fill stroke markers" d=" M 305 561 L 305 553" stroke-linejoin="bevel" stroke-miterlimit="10"/><path fill="none" stroke="black" paint-order="fill stroke markers" d=" M 423 561 L 423 553" stroke-linejoin="bevel" stroke-miterlimit="10"/><path fill="none" stroke="black" paint-order="fill stroke markers" d=" M 542 561 L 542 553" stroke-linejoin="bevel" stroke-miterlimit="10"/><path fill="none" stroke="black" paint-order="fill stroke markers" d=" M 68 559 L 68 555" stroke-linejoin="bevel" stroke-miterlimit="10"/><path fill="none" stroke="black" paint-order="fill stroke markers" d=" M 92 559 L 92 555" stroke-linejoin="bevel" stroke-miterlimit="10"/><path fill="none" stroke="black" paint-order="fill stroke markers" d=" M 116 559 L 116 555" stroke-linejoin="bevel" stroke-miterlimit="10"/><path fill="none" stroke="black" paint-order="fill stroke markers" d=" M 139 559 L 139 555" stroke-linejoin="bevel" stroke-miterlimit="10"/><path fill="none" stroke="black" paint-order="fill stroke markers" d=" M 163 559 L 163 555" stroke-linejoin="bevel" stroke-miterlimit="10"/><path fill="none" stroke="black" paint-order="fill stroke markers" d=" M 187 559 L 187 555" stroke-linejoin="bevel" stroke-miterlimit="10"/><path fill="none" stroke="black" paint-order="fill stroke markers" d=" M 210 559 L 210 555" stroke-linejoin="bevel" stroke-miterlimit="10"/><path fill="none" stroke="black" paint-order="fill stroke markers" d=" M 234 559 L 234 555" stroke-linejoin="bevel" stroke-miterlimit="10"/><path fill="none" stroke="black" paint-order="fill stroke markers" d=" M 258 559 L 258 555" stroke-linejoin="bevel" stroke-miterlimit="10"/><path fill="none" stroke="black" paint-order="fill stroke markers" d=" M 281 559 L 281 555" stroke-linejoin="bevel" stroke-miterlimit="10"/><path fill="none" stroke="black" paint-order="fill stroke markers" d=" M 305 559 L 305 555" stroke-linejoin="bevel" stroke-miterlimit="10"/><path fill="none" stroke="black" paint-order="fill stroke markers" d=" M 329 559 L 329 555" stroke-linejoin="bevel" stroke-miterlimit="10"/><path fill="none" stroke="black" paint-order="fill stroke markers" d=" M 352 559 L 352 555" stroke-linejoin="bevel" stroke-miterlimit="10"/><path fill="none" stroke="black" paint-order="fill stroke markers" d=" M 376 559 L 376 555" stroke-linejoin="bevel" stroke-miterlimit="10"/><path fill="none" stroke="black" paint-order="fill stroke markers" d=" M 400 559 L 400 555" stroke-linejoin="bevel" stroke-miterlimit="10"/><path fill="none" stroke="black" paint-order="fill stroke markers" d=" M 423 559 L 423 555" stroke-linejoin="bevel" stroke-miterlimit="10"/><path fill="none" stroke="black" paint-order="fill stroke markers" d=" M 447 559 L 447 555" stroke-linejoin="bevel" stroke-miterlimit="10"/><path fill="none" stroke="black" paint-order="fill stroke markers" d=" M 471 559 L 471 555" stroke-linejoin="bevel" stroke-miterlimit="10"/><path fill="none" stroke="black" paint-order="fill stroke markers" d=" M 494 559 L 494 555" stroke-linejoin="bevel" stroke-miterlimit="10"/><path fill="none" stroke="black" paint-order="fill stroke markers" d=" M 518 559 L 518 555" stroke-linejoin="bevel" stroke-miterlimit="10"/><path fill="none" stroke="black" paint-order="fill stroke markers" d=" M 542 559 L 542 555" stroke-linejoin="bevel" stroke-miterlimit="10"/><path fill="" stroke="black" paint-order="fill stroke markers" d=" M 565 559 L 565 555" stroke-linejoin="bevel" stroke-miterlimit="10"/><g transform="translate(68,566) rotate(0,0,0)"><text fill="" stroke="none" font-family="helvetica" font-size="8pt" font-style="normal" font-weight="normal" text-decoration="normal" x="0" y="0" text-anchor="middle" dominant-baseline="hanging">-100</text><g transform="rotate(0,0,0) translate(-68,-566) translate(187,566) rotate(0,0,0)"><text fill="" stroke="none" font-family="helvetica" font-size="8pt" font-style="normal" font-weight="normal" text-decoration="normal" x="0" y="0" text-anchor="middle" dominant-baseline="hanging">-50</text><g transform="rotate(0,0,0) translate(-187,-566) translate(305,566) rotate(0,0,0)"><text fill="" stroke="none" font-family="helvetica" font-size="8pt" font-style="normal" font-weight="normal" text-decoration="normal" x="0" y="0" text-anchor="middle" dominant-baseline="hanging">0</text><g transform="rotate(0,0,0) translate(-305,-566) translate(423,566) rotate(0,0,0)"><text fill="" stroke="none" font-family="helvetica" font-size="8pt" font-style="normal" font-weight="normal" text-decoration="normal" x="0" y="0" text-anchor="middle" dominant-baseline="hanging">50</text><g transform="rotate(0,0,0) translate(-423,-566) translate(542,566) rotate(0,0,0)"><text fill="" stroke="none" font-family="helvetica" font-size="8pt" font-style="normal" font-weight="normal" text-decoration="normal" x="0" y="0" text-anchor="middle" dominant-baseline="hanging">100</text><g transform="rotate(0,0,0) translate(-542,-566) translate(311,584) rotate(0,0,0)"><text fill="" stroke="none" font-family="helvetica" font-size="10pt" font-style="italic" font-weight="normal" text-decoration="normal" x="0" y="0" text-anchor="middle" dominant-baseline="hanging">position from STOP</text><g transform="rotate(0,0,0) translate(-311,-584)"/></g></g></g></g></g></g></g></g><g><g fill="#444444"><path fill="none" stroke="black" paint-order="fill stroke markers" d=" M 52 555 L 52 28" stroke-linejoin="bevel" stroke-miterlimit="10"/><path fill="none" stroke="black" paint-order="fill stroke markers" d=" M 46 499 L 54 499" stroke-linejoin="bevel" stroke-miterlimit="10"/><path fill="none" stroke="black" paint-order="fill stroke markers" d=" M 46 411 L 54 411" stroke-linejoin="bevel" stroke-miterlimit="10"/><path fill="none" stroke="black" paint-order="fill stroke markers" d=" M 46 323 L 54 323" stroke-linejoin="bevel" stroke-miterlimit="10"/><path fill="none" stroke="black" paint-order="fill stroke markers" d=" M 46 235 L 54 235" stroke-linejoin="bevel" stroke-miterlimit="10"/><path fill="none" stroke="black" paint-order="fill stroke markers" d=" M 46 147 L 54 147" stroke-linejoin="bevel" stroke-miterlimit="10"/><path fill="none" stroke="black" paint-order="fill stroke markers" d=" M 46 59 L 54 59" stroke-linejoin="bevel" stroke-miterlimit="10"/><path fill="none" stroke="black" paint-order="fill stroke markers" d=" M 48 517 L 52 517" stroke-linejoin="bevel" stroke-miterlimit="10"/><path fill="none" stroke="black" paint-order="fill stroke markers" d=" M 48 535 L 52 535" stroke-linejoin="bevel" stroke-miterlimit="10"/><path fill="none" stroke="black" paint-order="fill stroke markers" d=" M 48 552 L 52 552" stroke-linejoin="bevel" stroke-miterlimit="10"/><path fill="none" stroke="black" paint-order="fill stroke markers" d=" M 48 499 L 52 499" stroke-linejoin="bevel" stroke-miterlimit="10"/><path fill="none" stroke="black" paint-order="fill stroke markers" d=" M 48 482 L 52 482" stroke-linejoin="bevel" stroke-miterlimit="10"/><path fill="none" stroke="black" paint-order="fill stroke markers" d=" M 48 464 L 52 464" stroke-linejoin="bevel" stroke-miterlimit="10"/><path fill="none" stroke="black" paint-order="fill stroke markers" d=" M 48 446 L 52 446" stroke-linejoin="bevel" stroke-miterlimit="10"/><path fill="none" stroke="black" paint-order="fill stroke markers" d=" M 48 429 L 52 429" stroke-linejoin="bevel" stroke-miterlimit="10"/><path fill="none" stroke="black" paint-order="fill stroke markers" d=" M 48 411 L 52 411" stroke-linejoin="bevel" stroke-miterlimit="10"/><path fill="none" stroke="black" paint-order="fill stroke markers" d=" M 48 394 L 52 394" stroke-linejoin="bevel" stroke-miterlimit="10"/><path fill="none" stroke="black" paint-order="fill stroke markers" d=" M 48 376 L 52 376" stroke-linejoin="bevel" stroke-miterlimit="10"/><path fill="none" stroke="black" paint-order="fill stroke markers" d=" M 48 358 L 52 358" stroke-linejoin="bevel" stroke-miterlimit="10"/><path fill="none" stroke="black" paint-order="fill stroke markers" d=" M 48 341 L 52 341" stroke-linejoin="bevel" stroke-miterlimit="10"/><path fill="none" stroke="black" paint-order="fill stroke markers" d=" M 48 323 L 52 323" stroke-linejoin="bevel" stroke-miterlimit="10"/><path fill="none" stroke="black" paint-order="fill stroke markers" d=" M 48 305 L 52 305" stroke-linejoin="bevel" stroke-miterlimit="10"/><path fill="none" stroke="black" paint-order="fill stroke markers" d=" M 48 288 L 52 288" stroke-linejoin="bevel" stroke-miterlimit="10"/><path fill="none" stroke="black" paint-order="fill stroke markers" d=" M 48 270 L 52 270" stroke-linejoin="bevel" stroke-miterlimit="10"/><path fill="none" stroke="black" paint-order="fill stroke markers" d=" M 48 253 L 52 253" stroke-linejoin="bevel" stroke-miterlimit="10"/><path fill="none" stroke="black" paint-order="fill stroke markers" d=" M 48 235 L 52 235" stroke-linejoin="bevel" stroke-miterlimit="10"/><path fill="none" stroke="black" paint-order="fill stroke markers" d=" M 48 217 L 52 217" stroke-linejoin="bevel" stroke-miterlimit="10"/><path fill="none" stroke="black" paint-order="fill stroke markers" d=" M 48 200 L 52 200" stroke-linejoin="bevel" stroke-miterlimit="10"/><path fill="none" stroke="black" paint-order="fill stroke markers" d=" M 48 182 L 52 182" stroke-linejoin="bevel" stroke-miterlimit="10"/><path fill="none" stroke="black" paint-order="fill stroke markers" d=" M 48 164 L 52 164" stroke-linejoin="bevel" stroke-miterlimit="10"/><path fill="none" stroke="black" paint-order="fill stroke markers" d=" M 48 147 L 52 147" stroke-linejoin="bevel" stroke-miterlimit="10"/><path fill="none" stroke="black" paint-order="fill stroke markers" d=" M 48 129 L 52 129" stroke-linejoin="bevel" stroke-miterlimit="10"/><path fill="none" stroke="black" paint-order="fill stroke markers" d=" M 48 112 L 52 112" stroke-linejoin="bevel" stroke-miterlimit="10"/><path fill="none" stroke="black" paint-order="fill stroke markers" d=" M 48 94 L 52 94" stroke-linejoin="bevel" stroke-miterlimit="10"/><path fill="none" stroke="black" paint-order="fill stroke markers" d=" M 48 76 L 52 76" stroke-linejoin="bevel" stroke-miterlimit="10"/><path fill="none" stroke="black" paint-order="fill stroke markers" d=" M 48 59 L 52 59" stroke-linejoin="bevel" stroke-miterlimit="10"/><path fill="" stroke="black" paint-order="fill stroke markers" d=" M 48 41 L 52 41" stroke-linejoin="bevel" stroke-miterlimit="10"/><g transform="translate(41,499) rotate(0,0,0)"><text fill="" stroke="none" font-family="helvetica" font-size="8pt" font-style="normal" font-weight="normal" text-decoration="normal" x="0" y="0" text-anchor="end" dominant-baseline="central">100</text><g transform="rotate(0,0,0) translate(-41,-499) translate(41,411) rotate(0,0,0)"><text fill="" stroke="none" font-family="helvetica" font-size="8pt" font-style="normal" font-weight="normal" text-decoration="normal" x="0" y="0" text-anchor="end" dominant-baseline="central">200</text><g transform="rotate(0,0,0) translate(-41,-411) translate(41,323) rotate(0,0,0)"><text fill="" stroke="none" font-family="helvetica" font-size="8pt" font-style="normal" font-weight="normal" text-decoration="normal" x="0" y="0" text-anchor="end" dominant-baseline="central">300</text><g transform="rotate(0,0,0) translate(-41,-323) translate(41,235) rotate(0,0,0)"><text fill="" stroke="none" font-family="helvetica" font-size="8pt" font-style="normal" font-weight="normal" text-decoration="normal" x="0" y="0" text-anchor="end" dominant-baseline="central">400</text><g transform="rotate(0,0,0) translate(-41,-235) translate(41,147) rotate(0,0,0)"><text fill="" stroke="none" font-family="helvetica" font-size="8pt" font-style="normal" font-weight="normal" text-decoration="normal" x="0" y="0" text-anchor="end" dominant-baseline="central">500</text><g transform="rotate(0,0,0) translate(-41,-147) translate(41,59) rotate(0,0,0)"><text fill="" stroke="none" font-family="helvetica" font-size="8pt" font-style="normal" font-weight="normal" text-decoration="normal" x="0" y="0" text-anchor="end" dominant-baseline="central">600</text><g transform="rotate(0,0,0) translate(-41,-59) translate(16,292) rotate(-90,0,0)"><text fill="" stroke="none" font-family="helvetica" font-size="10pt" font-style="italic" font-weight="normal" text-decoration="normal" x="0" y="0" text-anchor="middle" dominant-baseline="alphabetic">5'seq raw counts</text><g transform="rotate(90,0,0) translate(-16,-292)"/></g></g></g></g></g></g></g></g></g><g clip-path="url(#AOSTroLMdxqW)"><g/></g></g></g></svg>