<svg version="1.1" xmlns="http://www.w3.org/2000/svg" xmlns:xlink="http://www.w3.org/1999/xlink" width="600" height="600" style="width: 600px; height: 600px;"><defs><clipPath id="hNDklszikhIz"><path fill="none" stroke="none" d=" M 58 88 L 570 88 L 570 555 L 58 555 L 58 88 Z"/></clipPath><clipPath id="smcRCpvZkNso"><path fill="none" stroke="none" d=" M 58 88 L 570 88 L 570 555 L 58 555 L 58 88 Z"/></clipPath><clipPath id="ivxaDniqpISH"><path fill="none" stroke="none" d=" M 58 88 L 570 88 L 570 555 L 58 555 L 58 88 Z"/></clipPath><clipPath id="vlHpLvamnhVz"><path fill="none" stroke="none" d=" M 58 88 L 570 88 L 570 555 L 58 555 L 58 88 Z"/></clipPath></defs><g><g/><g/><g/><g transform="scale(1,1) translate(0.5,0.5)"><rect fill="#FFFFFF" stroke="none" x="0" y="0" width="600" height="600"/><rect fill="#ffffff" stroke="none" x="0" y="0" width="600" height="600"/><rect fill="#FFFFFF" stroke="none" x="58" y="88" width="512" height="467"/><rect fill="#ffffff" stroke="none" x="58" y="88" width="512" height="467"/><g><rect fill="none" stroke="#e5e5e5" x="58" y="88" width="512" height="467" stroke-linejoin="bevel" stroke-miterlimit="10"/></g><g clip-path="url(#hNDklszikhIz)"><g><g><path fill="none" stroke="#e5e5e5" paint-order="fill stroke markers" d=" M 81 555 L 81 88" stroke-linejoin="bevel" stroke-miterlimit="10"/><path fill="none" stroke="#e5e5e5" paint-order="fill stroke markers" d=" M 198 555 L 198 88" stroke-linejoin="bevel" stroke-miterlimit="10"/><path fill="none" stroke="#e5e5e5" paint-order="fill stroke markers" d=" M 315 555 L 315 88" stroke-linejoin="bevel" stroke-miterlimit="10"/><path fill="none" stroke="#e5e5e5" paint-order="fill stroke markers" d=" M 432 555 L 432 88" stroke-linejoin="bevel" stroke-miterlimit="10"/><path fill="none" stroke="#e5e5e5" paint-order="fill stroke markers" d=" M 549 555 L 549 88" stroke-linejoin="bevel" stroke-miterlimit="10"/></g></g></g><g clip-path="url(#smcRCpvZkNso)"><g><g><path fill="none" stroke="#e5e5e5" paint-order="fill stroke markers" d=" M 58 523 L 570 523" stroke-linejoin="bevel" stroke-miterlimit="10"/><path fill="none" stroke="#e5e5e5" paint-order="fill stroke markers" d=" M 58 462 L 570 462" stroke-linejoin="bevel" stroke-miterlimit="10"/><path fill="none" stroke="#e5e5e5" paint-order="fill stroke markers" d=" M 58 401 L 570 401" stroke-linejoin="bevel" stroke-miterlimit="10"/><path fill="none" stroke="#e5e5e5" paint-order="fill stroke markers" d=" M 58 340 L 570 340" stroke-linejoin="bevel" stroke-miterlimit="10"/><path fill="none" stroke="#e5e5e5" paint-order="fill stroke markers" d=" M 58 278 L 570 278" stroke-linejoin="bevel" stroke-miterlimit="10"/><path fill="none" stroke="#e5e5e5" paint-order="fill stroke markers" d=" M 58 217 L 570 217" stroke-linejoin="bevel" stroke-miterlimit="10"/><path fill="none" stroke="#e5e5e5" paint-order="fill stroke markers" d=" M 58 156 L 570 156" stroke-linejoin="bevel" stroke-miterlimit="10"/><path fill="none" stroke="#e5e5e5" paint-order="fill stroke markers" d=" M 58 95 L 570 95" stroke-linejoin="bevel" stroke-miterlimit="10"/></g></g></g><g clip-path="url(#ivxaDniqpISH)"><g><g><path fill="none" stroke="none"/><path fill="none" stroke="rgb(239,138,98)" paint-order="fill stroke markers" d=" M 81.27272727272728 533.7727272727273 L 83.6116948378255 522.2225486475522 L 85.95066240292371 526.2559443579308 L 88.28962996802193 521.1836436918487 L 90.62859753312014 515.3779983511522 L 92.96756509821836 525.9503840768415 L 95.30653266331657 504.01115589463075 L 97.64550022841479 515.8668948008951 L 99.984467793513 517.5780323749951 L 102.32343535861122 518.8613855555701 L 104.66240292370946 512.0168352591701 L 107.00137048880768 515.0113260138451 L 109.3403380539059 514.2168692830129 L 111.67930561900411 507.3112069303951 L 114.01827318410233 496.49437297983434 L 116.35724074920054 503.8278197259772 L 118.69620831429876 505.47784524385935 L 121.03517587939697 489.16092623369144 L 123.37414344449519 495.2721318554772 L 125.7131110095934 501.9944580394415 L 128.05207857469162 485.55531491683786 L 130.39104613978986 507.92232749257363 L 132.73001370488808 497.59438999175575 L 135.0689812699863 496.7999332609236 L 137.4079488350845 503.2778112200165 L 139.74691640018273 499.06107934098435 L 142.08588396528094 498.5721828912415 L 144.42485153037916 488.36646950285933 L 146.76381909547737 487.9386851093343 L 149.1027866605756 484.3941858486986 L 151.4417542256738 488.30535744664144 L 153.78072179077205 486.1053234227986 L 156.11968935587026 487.3275645471557 L 158.45865692096848 475.8996100344164 L 160.7976244860667 476.6940667652486 L 163.1365920511649 473.82180012300927 L 165.47555961626313 471.01064553698785 L 167.81452718136134 480.1163419134486 L 170.15349474645956 445.8935904314485 L 172.49246231155777 453.0437010089378 L 174.831429876656 439.35460041613777 L 177.1703974417542 455.85485559495925 L 179.50936500685245 444.6102372508735 L 181.84833257195066 446.5047109936271 L 184.18730013704888 406.9652106206734 L 186.5262677021471 420.7154232696913 L 188.8652352672453 411.3652786683591 L 191.20420283234353 427.6210856223092 L 193.54317039744174 389.5482745985841 L 195.88213796253996 400.60955677401626 L 198.2211055276382 414.2986573668163 L 200.5600730927364 387.71491291204836 L 202.89904065783463 395.29280788306266 L 205.23800822293282 394.3761270397948 L 207.57697578803106 393.58167030896266 L 209.91594335312928 355.26441106036617 L 212.2549109182275 374.9424931625162 L 214.5938784833257 361.3756166821519 L 216.93284604842393 382.33705196487693 L 219.27181361352214 392.6649894656948 L 221.61078117862036 362.2922975254197 L 223.9497487437186 358.62557415234835 L 226.2887163088168 336.2585615766126 L 228.62768387391503 359.2978067707447 L 230.96665143901322 380.74813850321266 L 233.30561900411146 325.19727940118037 L 235.64458656920968 330.8807006294411 L 237.9835541343079 311.0192823586375 L 240.3225216994061 331.06403679809466 L 242.66148926450433 295.0079236295589 L 245.00045682960254 295.61904419173743 L 247.33942439470076 302.46359448813746 L 249.678391959799 273.4353677846553 L 252.0173595248972 279.0576769566981 L 254.35632708999543 280.03546985618385 L 256.6952946550936 269.40197207427667 L 259.03426222019186 279.72990957509455 L 261.37322978529005 237.92926312208016 L 263.7121973503883 224.0568263606266 L 266.05116491548654 249.6627779159088 L 268.3901324805847 250.45723464674091 L 270.72910004568297 235.6070049858016 L 273.06806761078116 243.55157229412305 L 275.4070351758794 252.53504455814806 L 277.7460027409776 216.66226755826585 L 280.08497030607583 277.89654788855887 L 282.423937871174 232.4902901186909 L 284.76290543627226 272.8853592786945 L 287.10187300137045 248.5016488477695 L 289.4408405664687 261.0907324286481 L 291.77980813156694 232.55140217490873 L 294.1187756966651 229.55691142023375 L 296.45774326176337 219.10674980698013 L 298.79671082686156 225.34017954120156 L 301.1356783919598 265.6130245887695 L 303.474645957058 281.0743748118874 L 305.81361352215623 234.81254825496944 L 308.1525810872544 320.1860907913161 L 310.49154865235266 333.4474069905911 L 312.83051621745085 259.0740345734588 L 315.1694837825491 150.66124684298 L 317.50845134764734 346.40316290877684 L 319.8474189127455 383.80374131410554 L 322.18638647784377 418.82094952693774 L 324.52535404294196 109.22727272727275 L 326.8643216080402 429.5766714212806 L 329.2032891731384 410.3263737126556 L 331.54225673823663 385.0259824384626 L 333.8812243033348 381.48148317782693 L 336.22019186843306 374.45359671277333 L 338.55915943353125 377.6314236361019 L 340.8981269986295 383.00928458327337 L 343.23709456372774 370.60353717104834 L 345.5760621288259 372.00911446405905 L 347.91502969392417 354.469954329534 L 350.25399725902236 356.9755486344661 L 352.5929648241206 371.5202180143162 L 354.9319323892188 354.2255061046626 L 357.27089995431703 376.47029456796264 L 359.6098675194152 381.9703796275698 L 361.94883508451346 367.73127052880903 L 364.28780264961165 383.13150869570904 L 366.6267702147099 369.5035201591269 L 368.96573777980814 369.8090804402162 L 371.3047053449063 372.9869073635448 L 373.64367291000457 373.84247615059473 L 375.98264047510276 364.5534436054804 L 378.321608040201 388.81492992396977 L 380.6605756052992 369.8090804402162 L 382.99954317039743 372.1924506327126 L 385.3385107354957 370.84798539591975 L 387.67747830059386 354.10328199222687 L 390.01644586569205 381.0536987843019 L 392.3554134307903 393.58167030896266 L 394.69438099588854 381.7259314026984 L 397.0333485609867 383.8648533703234 L 399.37231612608497 377.3869754112305 L 401.71128369118316 380.0759058848162 L 404.0502512562814 377.87587186097335 L 406.3892188213796 385.75932711307695 L 408.72818638647783 366.6312535168876 L 411.0671539515761 376.1036222306555 L 413.40612151667426 369.5035201591269 L 415.74508908177245 361.8034010756769 L 418.0840566468707 348.3587487077483 L 420.42302421196894 364.1867712681733 L 422.7619917770671 361.31450462593403 L 425.10095934216537 373.41469175706976 L 427.43992690726355 386.1259994503841 L 429.7788944723618 359.603367051834 L 432.11786203746 372.86468325110906 L 434.45682960255823 361.8034010756769 L 436.7957971676565 366.14235706714476 L 439.13476473275466 373.4758038132876 L 441.47373229785285 367.79238258502687 L 443.8126998629511 351.6587997435126 L 446.15166742804934 374.3924846565555 L 448.4906349931475 364.98122799900545 L 450.8296025582457 364.6145556616983 L 453.168570123344 365.1034521114412 L 455.5075376884422 371.3368818456626 L 457.8465052535404 378.42588036693405 L 460.18547281863863 359.42003088318046 L 462.5244403837369 362.3534095816376 L 464.86340794883506 364.2478833243912 L 467.20237551393325 380.99258672808406 L 469.5413430790315 371.2146577332269 L 471.88031064412974 378.1203200858448 L 474.2192782092279 366.6312535168876 L 476.5582457743261 378.3036562544984 L 478.8972133394244 365.8979088422733 L 481.2361809045226 366.9368137979769 L 483.5751484696208 366.5701414606698 L 485.91411603471903 356.608876297159 L 488.2530835998173 355.69219545389115 L 490.59205116491546 369.9924166088698 L 492.93101873001365 358.50335003991256 L 495.2699862951119 347.2587316958269 L 497.60895386021014 378.48699242315195 L 499.9479214253083 357.8311174215162 L 502.28688899040657 341.8808707486554 L 504.6258565555048 366.75347762932336 L 506.964824120603 363.0867542562519 L 509.3037916857012 374.33137260033766 L 511.64275925079943 356.30331601606974 L 513.9817268158977 367.9146066974626 L 516.3206943809959 358.9922464896555 L 518.659661946094 361.31450462593403 L 520.9986295111923 361.55895285080544 L 523.3375970762905 355.8755316225447 L 525.6765646413887 357.8311174215162 L 528.015532206487 369.2590719342555 L 530.3544997715852 349.27542955101615 L 532.6934673366834 367.85349464124477 L 535.0324349017816 353.79772171113757 L 537.3714024668798 371.7646662391876 L 539.7103700319781 365.4090123925305 L 542.0493375970763 355.20329900414833 L 544.3883051621744 353.43104937383043 L 546.7272727272727 372.4368988575841" stroke-linejoin="bevel" stroke-miterlimit="10" stroke-width="2"/></g></g></g><g><g/><g><path fill="#ffffff" stroke="#e5e5e5" paint-order="fill stroke markers" d=" M 68 38 L 198.171875 38 L 198.171875 78 L 68 78 L 68 38 Z" fill-opacity="0.95" stroke-linejoin="bevel" stroke-miterlimit="10" stroke-opacity="0.5"/><text fill="#444444" stroke="none" font-family="helvetica" font-size="10pt" font-style="normal" font-weight="normal" text-decoration="normal" x="103" y="58" text-anchor="start" dominant-baseline="central">combined-sum</text><g><path fill="none" stroke="rgb(239,138,98)" paint-order="fill stroke markers" d=" M 78 58 L 98 58" stroke-linejoin="bevel" stroke-miterlimit="10" stroke-width="2"/></g></g></g><g><g fill="#444444"><path fill="" stroke="none" d=""/><g transform="translate(58,23)"><path fill="none" stroke="none"/><text fill="" stroke="none" font-family="helvetica" font-size="10pt" font-style="normal" font-weight="bold" text-decoration="normal" x="0" y="0" text-anchor="start" dominant-baseline="text-after-edge">metagene_counts-START_combined_summed_raw</text></g></g></g><g/><g><g fill="#444444"><path fill="none" stroke="black" paint-order="fill stroke markers" d=" M 58 555 L 570 555" stroke-linejoin="bevel" stroke-miterlimit="10"/><path fill="none" stroke="black" paint-order="fill stroke markers" d=" M 81 561 L 81 553" stroke-linejoin="bevel" stroke-miterlimit="10"/><path fill="none" stroke="black" paint-order="fill stroke markers" d=" M 198 561 L 198 553" stroke-linejoin="bevel" stroke-miterlimit="10"/><path fill="none" stroke="black" paint-order="fill stroke markers" d=" M 315 561 L 315 553" stroke-linejoin="bevel" stroke-miterlimit="10"/><path fill="none" stroke="black" paint-order="fill stroke markers" d=" M 432 561 L 432 553" stroke-linejoin="bevel" stroke-miterlimit="10"/><path fill="none" stroke="black" paint-order="fill stroke markers" d=" M 549 561 L 549 553" stroke-linejoin="bevel" stroke-miterlimit="10"/><path fill="none" stroke="black" paint-order="fill stroke markers" d=" M 81 559 L 81 555" stroke-linejoin="bevel" stroke-miterlimit="10"/><path fill="none" stroke="black" paint-order="fill stroke markers" d=" M 105 559 L 105 555" stroke-linejoin="bevel" stroke-miterlimit="10"/><path fill="none" stroke="black" paint-order="fill stroke markers" d=" M 128 559 L 128 555" stroke-linejoin="bevel" stroke-miterlimit="10"/><path fill="none" stroke="black" paint-order="fill stroke markers" d=" M 151 559 L 151 555" stroke-linejoin="bevel" stroke-miterlimit="10"/><path fill="none" stroke="black" paint-order="fill stroke markers" d=" M 175 559 L 175 555" stroke-linejoin="bevel" stroke-miterlimit="10"/><path fill="none" stroke="black" paint-order="fill stroke markers" d=" M 198 559 L 198 555" stroke-linejoin="bevel" stroke-miterlimit="10"/><path fill="none" stroke="black" paint-order="fill stroke markers" d=" M 222 559 L 222 555" stroke-linejoin="bevel" stroke-miterlimit="10"/><path fill="none" stroke="black" paint-order="fill stroke markers" d=" M 245 559 L 245 555" stroke-linejoin="bevel" stroke-miterlimit="10"/><path fill="none" stroke="black" paint-order="fill stroke markers" d=" M 268 559 L 268 555" stroke-linejoin="bevel" stroke-miterlimit="10"/><path fill="none" stroke="black" paint-order="fill stroke markers" d=" M 292 559 L 292 555" stroke-linejoin="bevel" stroke-miterlimit="10"/><path fill="none" stroke="black" paint-order="fill stroke markers" d=" M 315 559 L 315 555" stroke-linejoin="bevel" stroke-miterlimit="10"/><path fill="none" stroke="black" paint-order="fill stroke markers" d=" M 339 559 L 339 555" stroke-linejoin="bevel" stroke-miterlimit="10"/><path fill="none" stroke="black" paint-order="fill stroke markers" d=" M 362 559 L 362 555" stroke-linejoin="bevel" stroke-miterlimit="10"/><path fill="none" stroke="black" paint-order="fill stroke markers" d=" M 385 559 L 385 555" stroke-linejoin="bevel" stroke-miterlimit="10"/><path fill="none" stroke="black" paint-order="fill stroke markers" d=" M 409 559 L 409 555" stroke-linejoin="bevel" stroke-miterlimit="10"/><path fill="none" stroke="black" paint-order="fill stroke markers" d=" M 432 559 L 432 555" stroke-linejoin="bevel" stroke-miterlimit="10"/><path fill="none" stroke="black" paint-order="fill stroke markers" d=" M 456 559 L 456 555" stroke-linejoin="bevel" stroke-miterlimit="10"/><path fill="none" stroke="black" paint-order="fill stroke markers" d=" M 479 559 L 479 555" stroke-linejoin="bevel" stroke-miterlimit="10"/><path fill="none" stroke="black" paint-order="fill stroke markers" d=" M 502 559 L 502 555" stroke-linejoin="bevel" stroke-miterlimit="10"/><path fill="none" stroke="black" paint-order="fill stroke markers" d=" M 526 559 L 526 555" stroke-linejoin="bevel" stroke-miterlimit="10"/><path fill="" stroke="black" paint-order="fill stroke markers" d=" M 549 559 L 549 555" stroke-linejoin="bevel" stroke-miterlimit="10"/><g transform="translate(81,566) rotate(0,0,0)"><text fill="" stroke="none" font-family="helvetica" font-size="8pt" font-style="normal" font-weight="normal" text-decoration="normal" x="0" y="0" text-anchor="middle" dominant-baseline="hanging">-100</text><g transform="rotate(0,0,0) translate(-81,-566) translate(198,566) rotate(0,0,0)"><text fill="" stroke="none" font-family="helvetica" font-size="8pt" font-style="normal" font-weight="normal" text-decoration="normal" x="0" y="0" text-anchor="middle" dominant-baseline="hanging">-50</text><g transform="rotate(0,0,0) translate(-198,-566) translate(315,566) rotate(0,0,0)"><text fill="" stroke="none" font-family="helvetica" font-size="8pt" font-style="normal" font-weight="normal" text-decoration="normal" x="0" y="0" text-anchor="middle" dominant-baseline="hanging">0</text><g transform="rotate(0,0,0) translate(-315,-566) translate(432,566) rotate(0,0,0)"><text fill="" stroke="none" font-family="helvetica" font-size="8pt" font-style="normal" font-weight="normal" text-decoration="normal" x="0" y="0" text-anchor="middle" dominant-baseline="hanging">50</text><g transform="rotate(0,0,0) translate(-432,-566) translate(549,566) rotate(0,0,0)"><text fill="" stroke="none" font-family="helvetica" font-size="8pt" font-style="normal" font-weight="normal" text-decoration="normal" x="0" y="0" text-anchor="middle" dominant-baseline="hanging">100</text><g transform="rotate(0,0,0) translate(-549,-566) translate(314,584) rotate(0,0,0)"><text fill="" stroke="none" font-family="helvetica" font-size="10pt" font-style="italic" font-weight="normal" text-decoration="normal" x="0" y="0" text-anchor="middle" dominant-baseline="hanging">position from START</text><g transform="rotate(0,0,0) translate(-314,-584)"/></g></g></g></g></g></g></g></g><g><g fill="#444444"><path fill="none" stroke="black" paint-order="fill stroke markers" d=" M 58 555 L 58 88" stroke-linejoin="bevel" stroke-miterlimit="10"/><path fill="none" stroke="black" paint-order="fill stroke markers" d=" M 52 523 L 60 523" stroke-linejoin="bevel" stroke-miterlimit="10"/><path fill="none" stroke="black" paint-order="fill stroke markers" d=" M 52 462 L 60 462" stroke-linejoin="bevel" stroke-miterlimit="10"/><path fill="none" stroke="black" paint-order="fill stroke markers" d=" M 52 401 L 60 401" stroke-linejoin="bevel" stroke-miterlimit="10"/><path fill="none" stroke="black" paint-order="fill stroke markers" d=" M 52 340 L 60 340" stroke-linejoin="bevel" stroke-miterlimit="10"/><path fill="none" stroke="black" paint-order="fill stroke markers" d=" M 52 278 L 60 278" stroke-linejoin="bevel" stroke-miterlimit="10"/><path fill="none" stroke="black" paint-order="fill stroke markers" d=" M 52 217 L 60 217" stroke-linejoin="bevel" stroke-miterlimit="10"/><path fill="none" stroke="black" paint-order="fill stroke markers" d=" M 52 156 L 60 156" stroke-linejoin="bevel" stroke-miterlimit="10"/><path fill="none" stroke="black" paint-order="fill stroke markers" d=" M 52 95 L 60 95" stroke-linejoin="bevel" stroke-miterlimit="10"/><path fill="none" stroke="black" paint-order="fill stroke markers" d=" M 54 535 L 58 535" stroke-linejoin="bevel" stroke-miterlimit="10"/><path fill="none" stroke="black" paint-order="fill stroke markers" d=" M 54 547 L 58 547" stroke-linejoin="bevel" stroke-miterlimit="10"/><path fill="none" stroke="black" paint-order="fill stroke markers" d=" M 54 523 L 58 523" stroke-linejoin="bevel" stroke-miterlimit="10"/><path fill="none" stroke="black" paint-order="fill stroke markers" d=" M 54 511 L 58 511" stroke-linejoin="bevel" stroke-miterlimit="10"/><path fill="none" stroke="black" paint-order="fill stroke markers" d=" M 54 498 L 58 498" stroke-linejoin="bevel" stroke-miterlimit="10"/><path fill="none" stroke="black" paint-order="fill stroke markers" d=" M 54 486 L 58 486" stroke-linejoin="bevel" stroke-miterlimit="10"/><path fill="none" stroke="black" paint-order="fill stroke markers" d=" M 54 474 L 58 474" stroke-linejoin="bevel" stroke-miterlimit="10"/><path fill="none" stroke="black" paint-order="fill stroke markers" d=" M 54 462 L 58 462" stroke-linejoin="bevel" stroke-miterlimit="10"/><path fill="none" stroke="black" paint-order="fill stroke markers" d=" M 54 450 L 58 450" stroke-linejoin="bevel" stroke-miterlimit="10"/><path fill="none" stroke="black" paint-order="fill stroke markers" d=" M 54 437 L 58 437" stroke-linejoin="bevel" stroke-miterlimit="10"/><path fill="none" stroke="black" paint-order="fill stroke markers" d=" M 54 425 L 58 425" stroke-linejoin="bevel" stroke-miterlimit="10"/><path fill="none" stroke="black" paint-order="fill stroke markers" d=" M 54 413 L 58 413" stroke-linejoin="bevel" stroke-miterlimit="10"/><path fill="none" stroke="black" paint-order="fill stroke markers" d=" M 54 401 L 58 401" stroke-linejoin="bevel" stroke-miterlimit="10"/><path fill="none" stroke="black" paint-order="fill stroke markers" d=" M 54 388 L 58 388" stroke-linejoin="bevel" stroke-miterlimit="10"/><path fill="none" stroke="black" paint-order="fill stroke markers" d=" M 54 376 L 58 376" stroke-linejoin="bevel" stroke-miterlimit="10"/><path fill="none" stroke="black" paint-order="fill stroke markers" d=" M 54 364 L 58 364" stroke-linejoin="bevel" stroke-miterlimit="10"/><path fill="none" stroke="black" paint-order="fill stroke markers" d=" M 54 352 L 58 352" stroke-linejoin="bevel" stroke-miterlimit="10"/><path fill="none" stroke="black" paint-order="fill stroke markers" d=" M 54 340 L 58 340" stroke-linejoin="bevel" stroke-miterlimit="10"/><path fill="none" stroke="black" paint-order="fill stroke markers" d=" M 54 327 L 58 327" stroke-linejoin="bevel" stroke-miterlimit="10"/><path fill="none" stroke="black" paint-order="fill stroke markers" d=" M 54 315 L 58 315" stroke-linejoin="bevel" stroke-miterlimit="10"/><path fill="none" stroke="black" paint-order="fill stroke markers" d=" M 54 303 L 58 303" stroke-linejoin="bevel" stroke-miterlimit="10"/><path fill="none" stroke="black" paint-order="fill stroke markers" d=" M 54 291 L 58 291" stroke-linejoin="bevel" stroke-miterlimit="10"/><path fill="none" stroke="black" paint-order="fill stroke markers" d=" M 54 278 L 58 278" stroke-linejoin="bevel" stroke-miterlimit="10"/><path fill="none" stroke="black" paint-order="fill stroke markers" d=" M 54 266 L 58 266" stroke-linejoin="bevel" stroke-miterlimit="10"/><path fill="none" stroke="black" paint-order="fill stroke markers" d=" M 54 254 L 58 254" stroke-linejoin="bevel" stroke-miterlimit="10"/><path fill="none" stroke="black" paint-order="fill stroke markers" d=" M 54 242 L 58 242" stroke-linejoin="bevel" stroke-miterlimit="10"/><path fill="none" stroke="black" paint-order="fill stroke markers" d=" M 54 230 L 58 230" stroke-linejoin="bevel" stroke-miterlimit="10"/><path fill="none" stroke="black" paint-order="fill stroke markers" d=" M 54 217 L 58 217" stroke-linejoin="bevel" stroke-miterlimit="10"/><path fill="none" stroke="black" paint-order="fill stroke markers" d=" M 54 205 L 58 205" stroke-linejoin="bevel" stroke-miterlimit="10"/><path fill="none" stroke="black" paint-order="fill stroke markers" d=" M 54 193 L 58 193" stroke-linejoin="bevel" stroke-miterlimit="10"/><path fill="none" stroke="black" paint-order="fill stroke markers" d=" M 54 181 L 58 181" stroke-linejoin="bevel" stroke-miterlimit="10"/><path fill="none" stroke="black" paint-order="fill stroke markers" d=" M 54 168 L 58 168" stroke-linejoin="bevel" stroke-miterlimit="10"/><path fill="none" stroke="black" paint-order="fill stroke markers" d=" M 54 156 L 58 156" stroke-linejoin="bevel" stroke-miterlimit="10"/><path fill="none" stroke="black" paint-order="fill stroke markers" d=" M 54 144 L 58 144" stroke-linejoin="bevel" stroke-miterlimit="10"/><path fill="none" stroke="black" paint-order="fill stroke markers" d=" M 54 132 L 58 132" stroke-linejoin="bevel" stroke-miterlimit="10"/><path fill="none" stroke="black" paint-order="fill stroke markers" d=" M 54 120 L 58 120" stroke-linejoin="bevel" stroke-miterlimit="10"/><path fill="none" stroke="black" paint-order="fill stroke markers" d=" M 54 107 L 58 107" stroke-linejoin="bevel" stroke-miterlimit="10"/><path fill="" stroke="black" paint-order="fill stroke markers" d=" M 54 95 L 58 95" stroke-linejoin="bevel" stroke-miterlimit="10"/><g transform="translate(47,523) rotate(0,0,0)"><text fill="" stroke="none" font-family="helvetica" font-size="8pt" font-style="normal" font-weight="normal" text-decoration="normal" x="0" y="0" text-anchor="end" dominant-baseline="central">1000</text><g transform="rotate(0,0,0) translate(-47,-523) translate(47,462) rotate(0,0,0)"><text fill="" stroke="none" font-family="helvetica" font-size="8pt" font-style="normal" font-weight="normal" text-decoration="normal" x="0" y="0" text-anchor="end" dominant-baseline="central">2000</text><g transform="rotate(0,0,0) translate(-47,-462) translate(47,401) rotate(0,0,0)"><text fill="" stroke="none" font-family="helvetica" font-size="8pt" font-style="normal" font-weight="normal" text-decoration="normal" x="0" y="0" text-anchor="end" dominant-baseline="central">3000</text><g transform="rotate(0,0,0) translate(-47,-401) translate(47,340) rotate(0,0,0)"><text fill="" stroke="none" font-family="helvetica" font-size="8pt" font-style="normal" font-weight="normal" text-decoration="normal" x="0" y="0" text-anchor="end" dominant-baseline="central">4000</text><g transform="rotate(0,0,0) translate(-47,-340) translate(47,278) rotate(0,0,0)"><text fill="" stroke="none" font-family="helvetica" font-size="8pt" font-style="normal" font-weight="normal" text-decoration="normal" x="0" y="0" text-anchor="end" dominant-baseline="central">5000</text><g transform="rotate(0,0,0) translate(-47,-278) translate(47,217) rotate(0,0,0)"><text fill="" stroke="none" font-family="helvetica" font-size="8pt" font-style="normal" font-weight="normal" text-decoration="normal" x="0" y="0" text-anchor="end" dominant-baseline="central">6000</text><g transform="rotate(0,0,0) translate(-47,-217) translate(47,156) rotate(0,0,0)"><text fill="" stroke="none" font-family="helvetica" font-size="8pt" font-style="normal" font-weight="normal" text-decoration="normal" x="0" y="0" text-anchor="end" dominant-baseline="central">7000</text><g transform="rotate(0,0,0) translate(-47,-156) translate(47,95) rotate(0,0,0)"><text fill="" stroke="none" font-family="helvetica" font-size="8pt" font-style="normal" font-weight="normal" text-decoration="normal" x="0" y="0" text-anchor="end" dominant-baseline="central">8000</text><g transform="rotate(0,0,0) translate(-47,-95) translate(15,322) rotate(-90,0,0)"><text fill="" stroke="none" font-family="helvetica" font-size="10pt" font-style="italic" font-weight="normal" text-decoration="normal" x="0" y="0" text-anchor="middle" dominant-baseline="alphabetic">5'seq raw counts</text><g transform="rotate(90,0,0) translate(-15,-322)"/></g></g></g></g></g></g></g></g></g></g></g><g clip-path="url(#vlHpLvamnhVz)"><g/></g></g></g></svg>