<svg version="1.1" xmlns="http://www.w3.org/2000/svg" xmlns:xlink="http://www.w3.org/1999/xlink" width="600" height="600" style="width: 600px; height: 600px;"><defs><clipPath id="LFNhpolfcmlH"><path fill="none" stroke="none" d=" M 58 203 L 570 203 L 570 555 L 58 555 L 58 203 Z"/></clipPath><clipPath id="dGLbmCFSosVy"><path fill="none" stroke="none" d=" M 58 203 L 570 203 L 570 555 L 58 555 L 58 203 Z"/></clipPath><clipPath id="kspNiFlXFmUh"><path fill="none" stroke="none" d=" M 58 203 L 570 203 L 570 555 L 58 555 L 58 203 Z"/></clipPath><clipPath id="DMtOCrbrFlSv"><path fill="none" stroke="none" d=" M 58 203 L 570 203 L 570 555 L 58 555 L 58 203 Z"/></clipPath><clipPath id="MMqwCAsLSCdg"><path fill="none" stroke="none" d=" M 58 203 L 570 203 L 570 555 L 58 555 L 58 203 Z"/></clipPath><clipPath id="CJxpAtseDgzZ"><path fill="none" stroke="none" d=" M 58 203 L 570 203 L 570 555 L 58 555 L 58 203 Z"/></clipPath><clipPath id="rTTuSXSKLyHT"><path fill="none" stroke="none" d=" M 58 203 L 570 203 L 570 555 L 58 555 L 58 203 Z"/></clipPath><clipPath id="nLtmgstUwgtF"><path fill="none" stroke="none" d=" M 58 203 L 570 203 L 570 555 L 58 555 L 58 203 Z"/></clipPath><clipPath id="WPceaXhrwVuK"><path fill="none" stroke="none" d=" M 58 203 L 570 203 L 570 555 L 58 555 L 58 203 Z"/></clipPath></defs><g><g/><g/><g/><g transform="scale(1,1) translate(0.5,0.5)"><rect fill="#FFFFFF" stroke="none" x="0" y="0" width="600" height="600"/><rect fill="#ffffff" stroke="none" x="0" y="0" width="600" height="600"/><rect fill="#FFFFFF" stroke="none" x="58" y="203" width="512" height="352"/><rect fill="#ffffff" stroke="none" x="58" y="203" width="512" height="352"/><g><rect fill="none" stroke="#e5e5e5" x="58" y="203" width="512" height="352" stroke-linejoin="bevel" stroke-miterlimit="10"/></g><g clip-path="url(#LFNhpolfcmlH)"><g><g><path fill="none" stroke="#e5e5e5" paint-order="fill stroke markers" d=" M 81 555 L 81 203" stroke-linejoin="bevel" stroke-miterlimit="10"/><path fill="none" stroke="#e5e5e5" paint-order="fill stroke markers" d=" M 198 555 L 198 203" stroke-linejoin="bevel" stroke-miterlimit="10"/><path fill="none" stroke="#e5e5e5" paint-order="fill stroke markers" d=" M 315 555 L 315 203" stroke-linejoin="bevel" stroke-miterlimit="10"/><path fill="none" stroke="#e5e5e5" paint-order="fill stroke markers" d=" M 432 555 L 432 203" stroke-linejoin="bevel" stroke-miterlimit="10"/><path fill="none" stroke="#e5e5e5" paint-order="fill stroke markers" d=" M 549 555 L 549 203" stroke-linejoin="bevel" stroke-miterlimit="10"/></g></g></g><g clip-path="url(#dGLbmCFSosVy)"><g><g><path fill="none" stroke="#e5e5e5" paint-order="fill stroke markers" d=" M 58 476 L 570 476" stroke-linejoin="bevel" stroke-miterlimit="10"/><path fill="none" stroke="#e5e5e5" paint-order="fill stroke markers" d=" M 58 386 L 570 386" stroke-linejoin="bevel" stroke-miterlimit="10"/><path fill="none" stroke="#e5e5e5" paint-order="fill stroke markers" d=" M 58 296 L 570 296" stroke-linejoin="bevel" stroke-miterlimit="10"/><path fill="none" stroke="#e5e5e5" paint-order="fill stroke markers" d=" M 58 206 L 570 206" stroke-linejoin="bevel" stroke-miterlimit="10"/></g></g></g><g clip-path="url(#kspNiFlXFmUh)"><g><g><path fill="none" stroke="none"/><path fill="none" stroke="#1F78B4" paint-order="fill stroke markers" d=" M 81.27272727272728 534.432587752299 L 83.6116948378255 525.521483084485 L 85.95066240292371 529.805668020934 L 88.28962996802193 530.4911376107659 L 90.62859753312014 522.0941351353257 L 92.96756509821836 530.6625050082239 L 95.30653266331657 518.1526849937925 L 97.64550022841479 523.6364417124473 L 99.984467793513 526.8924222641486 L 102.32343535861122 531.0052398031398 L 104.66240292370946 520.209093763288 L 107.00137048880768 521.7514003404098 L 109.3403380539059 524.1505439048212 L 111.67930561900411 514.8967044420912 L 114.01827318410233 514.0398674548014 L 116.35724074920054 517.6385828014186 L 118.69620831429876 516.9531132115868 L 121.03517587939697 508.7274781336045 L 123.37414344449519 509.7556825183523 L 125.7131110095934 519.5236241734563 L 128.05207857469162 510.2697847107262 L 130.39104613978986 519.6949915709142 L 132.73001370488808 511.81209128784786 L 135.0689812699863 509.92704991581024 L 137.4079488350845 513.6971326598855 L 139.74691640018273 508.55611073614654 L 142.08588396528094 515.2394392370071 L 144.42485153037916 508.2133759412306 L 146.76381909547737 511.81209128784786 L 149.1027866605756 507.1851715564828 L 151.4417542256738 504.6146605946134 L 153.78072179077205 506.15696717173506 L 156.11968935587026 510.0984173132682 L 158.45865692096848 499.8163734657904 L 160.7976244860667 501.53004744037 L 163.1365920511649 496.903127709005 L 165.47555961626313 497.24586250392093 L 167.81452718136134 497.75996469629484 L 170.15349474645956 485.93561427169533 L 172.49246231155777 485.93561427169533 L 174.831429876656 479.25228577083476 L 177.1703974417542 490.04843181068645 L 179.50936500685245 484.5646750920316 L 181.84833257195066 480.4518575530405 L 184.18730013704888 458.3454632809632 L 186.5262677021471 472.5689572699742 L 188.8652352672453 457.8313610885893 L 191.20420283234353 468.2847723335251 L 193.54317039744174 442.7510301122885 L 195.88213796253996 454.2326457419721 L 198.2211055276382 462.6296482174123 L 200.5600730927364 450.8052977928128 L 202.89904065783463 453.3758087546822 L 205.23800822293282 441.72282572754074 L 207.57697578803106 444.1219692919522 L 209.91594335312928 424.5860859817443 L 212.2549109182275 437.43864079109164 L 214.5938784833257 428.1848013283616 L 216.93284604842393 440.8659887402509 L 219.27181361352214 445.1501736767 L 221.61078117862036 424.7574533792023 L 223.9497487437186 425.6142903664921 L 226.2887163088168 415.1608791215564 L 228.62768387391503 428.1848013283616 L 230.96665143901322 440.6946213427929 L 233.30561900411146 403.8506308893308 L 235.64458656920968 414.13267473680855 L 237.9835541343079 401.9655895172931 L 240.3225216994061 412.076265967313 L 242.66148926450433 389.79850429777775 L 245.00045682960254 382.7724410020012 L 247.33942439470076 394.93952622151664 L 249.678391959799 374.54680592401894 L 252.0173595248972 382.94380839945916 L 254.35632708999543 383.972012784207 L 256.6952946550936 373.5186015392712 L 259.03426222019186 383.2865431943751 L 261.37322978529005 355.696392203643 L 263.7121973503883 352.7831464468576 L 266.05116491548654 361.86561851212963 L 268.3901324805847 361.00878152483983 L 270.72910004568297 350.21263548498814 L 273.06806761078116 359.1237401528022 L 275.4070351758794 352.44041165194164 L 277.7460027409776 335.6464067010612 L 280.08497030607583 367.34937523078446 L 282.423937871174 345.4143483561651 L 284.76290543627226 367.6921100257004 L 287.10187300137045 357.2386987807646 L 289.4408405664687 362.7224554994194 L 291.77980813156694 354.4968204214372 L 294.1187756966651 337.3600806756408 L 296.45774326176337 351.92630945956773 L 298.79671082686156 337.70281547055674 L 301.1356783919598 371.8049275646915 L 303.474645957058 376.2604798985986 L 305.81361352215623 343.87204177904346 L 308.1525810872544 406.5925092486582 L 310.49154865235266 412.5903681596869 L 312.83051621745085 373.5186015392712 L 315.1694837825491 275.15371539840004 L 317.50845134764734 410.36259199273337 L 319.8474189127455 441.72282572754074 L 322.18638647784377 466.2283635640295 L 324.52535404294196 268.9844890899133 L 326.8643216080402 470.6839158979366 L 329.2032891731384 466.2283635640295 L 331.54225673823663 448.06341943348536 L 333.8812243033348 445.83564326653186 L 336.22019186843306 437.6100081885496 L 338.55915943353125 436.0677016114279 L 340.8981269986295 441.3800909326248 L 343.23709456372774 436.75317120125976 L 345.5760621288259 445.4929084716159 L 347.91502969392417 444.1219692919522 L 350.25399725902236 435.38223202159605 L 352.5929648241206 446.8638476512796 L 354.9319323892188 429.3843731105673 L 357.27089995431703 437.0959059961757 L 359.6098675194152 449.2629912156911 L 361.94883508451346 437.2672733936337 L 364.28780264961165 449.2629912156911 L 366.6267702147099 439.8377843555031 L 368.96573777980814 445.1501736767 L 371.3047053449063 438.8095799707553 L 373.64367291000457 436.92453859871773 L 375.98264047510276 433.8399254444744 L 378.321608040201 440.523253945335 L 380.6605756052992 438.12411038092347 L 382.99954317039743 441.2087235351668 L 385.3385107354957 442.7510301122885 L 387.67747830059386 435.724966816512 L 390.01644586569205 439.15231476567124 L 392.3554134307903 452.34760436993446 L 394.69438099588854 442.57966271483053 L 397.0333485609867 438.4668451758394 L 399.37231612608497 442.40829531737256 L 401.71128369118316 441.03735613770885 L 404.0502512562814 443.43649970212033 L 406.3892188213796 455.26085012671984 L 408.72818638647783 437.0959059961757 L 411.0671539515761 439.15231476567124 L 413.40612151667426 435.38223202159605 L 415.74508908177245 435.724966816512 L 418.0840566468707 432.81172105972655 L 420.42302421196894 434.52539503430626 L 422.7619917770671 432.64035366226864 L 425.10095934216537 437.7813755860076 L 427.43992690726355 448.5775216258593 L 429.7788944723618 436.92453859871773 L 432.11786203746 449.4343586131491 L 434.45682960255823 431.78351667497884 L 436.7957971676565 436.75317120125976 L 439.13476473275466 440.523253945335 L 441.47373229785285 436.5818038038018 L 443.8126998629511 432.1262514698947 L 446.15166742804934 440.35188654787703 L 448.4906349931475 435.553599419054 L 450.8296025582457 436.5818038038018 L 453.168570123344 439.15231476567124 L 455.5075376884422 440.523253945335 L 457.8465052535404 443.2651323046624 L 460.18547281863863 443.2651323046624 L 462.5244403837369 432.64035366226864 L 464.86340794883506 435.724966816512 L 467.20237551393325 441.2087235351668 L 469.5413430790315 437.7813755860076 L 471.88031064412974 446.00701066398983 L 474.2192782092279 435.2108646241381 L 476.5582457743261 445.4929084716159 L 478.8972133394244 435.2108646241381 L 481.2361809045226 435.8963342139699 L 483.5751484696208 439.4950495605872 L 485.91411603471903 429.2130057131094 L 488.2530835998173 430.58394489277305 L 490.59205116491546 437.2672733936337 L 492.93101873001365 435.553599419054 L 495.2699862951119 425.1001881741182 L 497.60895386021014 432.1262514698947 L 499.9479214253083 431.09804708514696 L 502.28688899040657 427.67069913598766 L 504.6258565555048 432.2976188673527 L 506.964824120603 430.2412100978571 L 509.3037916857012 449.948460805523 L 511.64275925079943 426.299759956324 L 513.9817268158977 436.75317120125976 L 516.3206943809959 430.755312290231 L 518.659661946094 432.2976188673527 L 520.9986295111923 424.7574533792023 L 523.3375970762905 425.6142903664921 L 525.6765646413887 429.2130057131094 L 528.015532206487 440.523253945335 L 530.3544997715852 426.299759956324 L 532.6934673366834 446.3497454589057 L 535.0324349017816 429.3843731105673 L 537.3714024668798 440.18051915041906 L 539.7103700319781 437.0959059961757 L 542.0493375970763 433.8399254444744 L 544.3883051621744 430.2412100978571 L 546.7272727272727 438.29547777838144" stroke-linejoin="bevel" stroke-miterlimit="10" stroke-width="2"/></g></g></g><g clip-path="url(#DMtOCrbrFlSv)"><g><g><path fill="none" stroke="none"/><path fill="none" stroke="#33A02C" paint-order="fill stroke markers" d=" M 81.27272727272728 531.490300314997 L 83.6116948378255 531.2820384652234 L 85.95066240292371 533.9894425122784 L 88.28962996802193 530.8655147656765 L 90.62859753312014 524.8259211222462 L 92.96756509821836 532.3233477140908 L 95.30653266331657 518.9945893285893 L 97.64550022841479 523.1598263240585 L 99.984467793513 526.7002777702073 L 102.32343535861122 526.9085396199808 L 104.66240292370946 522.5350407747381 L 107.00137048880768 527.1168014697543 L 109.3403380539059 525.2424448217931 L 111.67930561900411 518.7863274788158 L 114.01827318410233 515.2458760326671 L 116.35724074920054 516.0789234317608 L 118.69620831429876 521.077207826324 L 121.03517587939697 508.58149683991627 L 123.37414344449519 513.9963049340263 L 125.7131110095934 515.4541378824405 L 128.05207857469162 511.7054245865182 L 130.39104613978986 518.1615419294955 L 132.73001370488808 519.2028511783627 L 135.0689812699863 515.2458760326671 L 137.4079488350845 514.2045667837997 L 139.74691640018273 515.0376141828935 L 142.08588396528094 513.7880430842528 L 144.42485153037916 512.3302101358386 L 146.76381909547737 509.4145442390101 L 149.1027866605756 515.2458760326671 L 151.4417542256738 507.9567112905959 L 153.78072179077205 508.1649731403694 L 156.11968935587026 515.8706615819874 L 158.45865692096848 504.20799799467363 L 160.7976244860667 497.5436188019229 L 163.1365920511649 501.2923320978452 L 165.47555961626313 499.0014517503371 L 167.81452718136134 504.62452169422056 L 170.15349474645956 477.7587430734442 L 172.49246231155777 484.2148604164214 L 174.831429876656 475.46786272593613 L 177.1703974417542 490.2544540598518 L 179.50936500685245 479.2165760218584 L 181.84833257195066 478.3835286227645 L 184.18730013704888 454.64167774859004 L 186.5262677021471 463.3886754390754 L 188.8652352672453 469.63653093227924 L 191.20420283234353 470.0530546318261 L 193.54317039744174 449.2268696544801 L 195.88213796253996 454.64167774859004 L 198.2211055276382 460.6812713920204 L 200.5600730927364 450.68470260289433 L 202.89904065783463 446.1029419078782 L 205.23800822293282 455.68298699745736 L 207.57697578803106 453.80863034949624 L 209.91594335312928 433.39896907169714 L 212.2549109182275 434.0237546210175 L 214.5938784833257 428.817208376681 L 216.93284604842393 436.939420517846 L 219.27181361352214 451.3094881522147 L 221.61078117862036 432.9824453721502 L 223.9497487437186 425.4850187803056 L 226.2887163088168 421.73630548438337 L 228.62768387391503 421.31978178483644 L 230.96665143901322 441.7294430626355 L 233.30561900411146 405.7001430518269 L 235.64458656920968 400.70185865726387 L 237.9835541343079 390.2887661685908 L 240.3225216994061 401.53490605635767 L 242.66148926450433 392.163122816552 L 245.00045682960254 387.9978858210828 L 247.33942439470076 392.5796465160989 L 249.678391959799 369.2543193414713 L 252.0173595248972 384.040910675387 L 254.35632708999543 381.9582921776524 L 256.6952946550936 375.0856511351283 L 259.03426222019186 369.04605749169787 L 261.37322978529005 356.1338228057433 L 263.7121973503883 349.6777054627661 L 266.05116491548654 350.3024910120864 L 268.3901324805847 363.42298754781444 L 270.72910004568297 340.51418407273377 L 273.06806761078116 355.9255609559699 L 275.4070351758794 366.1303915948694 L 277.7460027409776 344.2628973686561 L 280.08497030607583 384.45743437493394 L 282.423937871174 349.6777054627661 L 284.76290543627226 372.79477078762017 L 287.10187300137045 364.25603494690824 L 289.4408405664687 371.75346153875284 L 291.77980813156694 356.96687020483716 L 294.1187756966651 351.5520621107272 L 296.45774326176337 326.144116438365 L 298.79671082686156 350.9272765614068 L 301.1356783919598 367.3799626935102 L 303.474645957058 379.6674118301444 L 305.81361352215623 351.1355384111803 L 308.1525810872544 396.5366216617946 L 310.49154865235266 401.9514297559046 L 312.83051621745085 353.84294245823526 L 315.1694837825491 295.94614822121326 L 317.50845134764734 421.31978178483644 L 319.8474189127455 444.22858525991705 L 322.18638647784377 471.7191494300138 L 324.52535404294196 257.20944416334964 L 326.8643216080402 467.5539124345446 L 329.2032891731384 451.93427370153506 L 331.54225673823663 448.6020841051597 L 333.8812243033348 441.3129193630886 L 336.22019186843306 445.0616326590109 L 338.55915943353125 446.93598930697203 L 340.8981269986295 439.85508641467436 L 343.23709456372774 440.2716101142213 L 345.5760621288259 436.3146349685255 L 347.91502969392417 417.3628066391407 L 350.25399725902236 421.1115199350629 L 352.5929648241206 434.64854017033787 L 354.9319323892188 427.9841609775872 L 357.27089995431703 435.8981112689786 L 359.6098675194152 444.4368471096905 L 361.94883508451346 435.0650638698848 L 364.28780264961165 441.10465751331515 L 366.6267702147099 435.0650638698848 L 368.96573777980814 430.48330317486864 L 371.3047053449063 437.7724679169398 L 373.64367291000457 439.85508641467436 L 375.98264047510276 434.64854017033787 L 378.321608040201 454.64167774859004 L 380.6605756052992 437.5642060671663 L 382.99954317039743 430.27504132509523 L 385.3385107354957 436.73115866807245 L 387.67747830059386 417.98759218846106 L 390.01644586569205 448.1855604056128 L 392.3554134307903 443.60379971059666 L 394.69438099588854 438.8137771658071 L 397.0333485609867 441.10465751331515 L 399.37231612608497 441.5211812128621 L 401.71128369118316 449.8516552038005 L 404.0502512562814 441.10465751331515 L 406.3892188213796 448.3938222553863 L 408.72818638647783 426.31806617939947 L 411.0671539515761 433.39896907169714 L 413.40612151667426 436.3146349685255 L 415.74508908177245 428.1924228273606 L 418.0840566468707 426.109804329626 L 420.42302421196894 441.3129193630886 L 422.7619917770671 436.1063731187521 L 425.10095934216537 434.4402783205644 L 427.43992690726355 451.10122630244126 L 429.7788944723618 429.4419939260014 L 432.11786203746 424.65197138121175 L 434.45682960255823 433.815492771244 L 436.7957971676565 435.6898494192052 L 439.13476473275466 442.56249046172934 L 441.47373229785285 434.85680202011133 L 443.8126998629511 417.98759218846106 L 446.15166742804934 435.8981112689786 L 448.4906349931475 431.3163505739625 L 450.8296025582457 428.40068467713405 L 453.168570123344 429.02547022645444 L 455.5075376884422 440.2716101142213 L 457.8465052535404 442.97901416127627 L 460.18547281863863 432.14939797305635 L 462.5244403837369 430.48330317486864 L 464.86340794883506 432.5659216726033 L 467.20237551393325 434.23201647079094 L 469.5413430790315 435.8981112689786 L 471.88031064412974 443.18727601104973 L 474.2192782092279 424.44370953143834 L 476.5582457743261 439.0220390155805 L 478.8972133394244 430.27504132509523 L 481.2361809045226 436.939420517846 L 483.5751484696208 435.0650638698848 L 485.91411603471903 432.9824453721502 L 488.2530835998173 424.44370953143834 L 490.59205116491546 428.6089465269075 L 492.93101873001365 420.07021068619565 L 495.2699862951119 416.94628293959374 L 497.60895386021014 439.64682456490095 L 499.9479214253083 426.7345898789464 L 502.28688899040657 417.1545447893672 L 504.6258565555048 435.8981112689786 L 506.964824120603 421.31978178483644 L 509.3037916857012 430.89982687441557 L 511.64275925079943 419.8619488364222 L 513.9817268158977 427.56763727804025 L 516.3206943809959 425.4850187803056 L 518.659661946094 435.27332571965826 L 520.9986295111923 426.31806617939947 L 523.3375970762905 424.65197138121175 L 525.6765646413887 430.27504132509523 L 528.015532206487 430.89982687441557 L 530.3544997715852 422.77761473325063 L 532.6934673366834 431.3163505739625 L 535.0324349017816 428.1924228273606 L 537.3714024668798 430.89982687441557 L 539.7103700319781 424.0271858318914 L 542.0493375970763 429.65025577577484 L 544.3883051621744 428.40068467713405 L 546.7272727272727 421.9445673341568" stroke-linejoin="bevel" stroke-miterlimit="10" stroke-width="2"/></g></g></g><g clip-path="url(#MMqwCAsLSCdg)"><g><g><path fill="none" stroke="none"/><path fill="none" stroke="#C51B7D" paint-order="fill stroke markers" d=" M 81.27272727272728 537.7469939785964 L 83.6116948378255 524.68731347935 L 85.95066240292371 529.0405403124321 L 88.28962996802193 524.4696521376959 L 90.62859753312014 522.9460227461173 L 92.96756509821836 528.6052176291239 L 95.30653266331657 514.6748917632611 L 97.64550022841479 525.1226361626583 L 99.984467793513 521.8577160378467 L 102.32343535861122 524.4696521376959 L 104.66240292370946 521.2047320128844 L 107.00137048880768 523.8166681127336 L 109.3403380539059 524.0343294543877 L 111.67930561900411 521.6400546961926 L 114.01827318410233 506.18609943875106 L 116.35724074920054 514.6748917632611 L 118.69620831429876 516.416182496494 L 121.03517587939697 504.00948602221 L 123.37414344449519 510.10400358852496 L 125.7131110095934 511.40997163844963 L 128.05207857469162 504.44480870551826 L 130.39104613978986 518.8104572546891 L 132.73001370488808 516.416182496494 L 135.0689812699863 513.3689237133366 L 137.4079488350845 513.3689237133366 L 139.74691640018273 510.9746489551414 L 142.08588396528094 515.7631984715317 L 144.42485153037916 505.5331154137888 L 146.76381909547737 503.7918246805559 L 149.1027866605756 501.1798885807067 L 151.4417542256738 504.88013138882644 L 153.78072179077205 508.145051513638 L 156.11968935587026 505.09779273048053 L 158.45865692096848 501.83287260566897 L 160.7976244860667 499.6562591891279 L 163.1365920511649 498.5679524808574 L 165.47555961626313 489.2085147897309 L 167.81452718136134 498.13262979754916 L 170.15349474645956 484.2023039316864 L 172.49246231155777 479.6314157569502 L 174.831429876656 473.75455953228936 L 177.1703974417542 476.36649563213865 L 179.50936500685245 476.58415697379274 L 181.84833257195066 483.11399722341594 L 184.18730013704888 446.3292304838721 L 186.5262677021471 460.25955634973485 L 188.8652352672453 453.7297161001117 L 191.20420283234353 461.1302017163513 L 193.54317039744174 436.9697927927456 L 195.88213796253996 449.59415060868366 L 198.2211055276382 458.95358829981024 L 200.5600730927364 431.0929365680847 L 202.89904065783463 447.63519853379677 L 205.23800822293282 442.4113263340982 L 207.57697578803106 443.7172943840228 L 209.91594335312928 412.1563998441776 L 212.2549109182275 433.48721132627986 L 214.5938784833257 420.2098694853795 L 216.93284604842393 440.01705157590305 L 219.27181361352214 446.111569142218 L 221.61078117862036 427.8280164432731 L 223.9497487437186 425.21608034342387 L 226.2887163088168 402.36163946974284 L 228.62768387391503 421.29817619364997 L 230.96665143901322 437.840438159362 L 233.30561900411146 409.97978642763655 L 235.64458656920968 399.3143806865853 L 237.9835541343079 390.39026567876704 L 240.3225216994061 409.5444637443283 L 242.66148926450433 381.2484893292946 L 245.00045682960254 375.5892944462879 L 247.33942439470076 379.0718759127535 L 249.678391959799 371.45372895485986 L 252.0173595248972 371.01840627155167 L 254.35632708999543 369.05945419666466 L 256.6952946550936 352.2995308892986 L 259.03426222019186 373.1950196880927 L 261.37322978529005 346.20501332298363 L 263.7121973503883 327.9214606240388 L 266.05116491548654 352.5171922309527 L 268.3901324805847 354.4761443058396 L 270.72910004568297 350.7759014977198 L 273.06806761078116 353.6054989392232 L 275.4070351758794 353.82316028087735 L 277.7460027409776 331.6217034321586 L 280.08497030607583 378.8542145710994 L 282.423937871174 354.6938056474938 L 284.76290543627226 371.45372895485986 L 287.10187300137045 364.4885660219285 L 289.4408405664687 360.3530005305005 L 291.77980813156694 342.2871091732097 L 294.1187756966651 352.5171922309527 L 296.45774326176337 337.0632369735112 L 298.79671082686156 339.02218904839816 L 301.1356783919598 362.5296139470415 L 303.474645957058 389.95494299545885 L 305.81361352215623 348.3816267395247 L 308.1525810872544 404.1029302029757 L 310.49154865235266 405.19123691124616 L 312.83051621745085 375.3716331046338 L 315.1694837825491 293.9662913259984 L 317.50845134764734 417.16261070222197 L 319.8474189127455 448.5058439004132 L 322.18638647784377 461.78318574131356 L 324.52535404294196 257.6168472697628 L 326.8643216080402 467.87770330762856 L 329.2032891731384 453.0767320751494 L 331.54225673823663 442.4113263340982 L 333.8812243033348 437.40511547605377 L 336.22019186843306 423.69245095184516 L 338.55915943353125 423.2571282685369 L 340.8981269986295 436.7521314510915 L 343.23709456372774 429.7869685181601 L 345.5760621288259 433.0518886429717 L 347.91502969392417 423.474789610191 L 350.25399725902236 421.0805148519959 L 352.5929648241206 434.1401953512422 L 354.9319323892188 425.21608034342387 L 357.27089995431703 439.1464062092866 L 359.6098675194152 438.4934221843243 L 361.94883508451346 421.7334988769582 L 364.28780264961165 434.57551803455044 L 366.6267702147099 434.57551803455044 L 368.96573777980814 423.474789610191 L 371.3047053449063 435.4461634011668 L 373.64367291000457 437.40511547605377 L 375.98264047510276 411.72107716086936 L 378.321608040201 444.15261706733105 L 380.6605756052992 437.840438159362 L 382.99954317039743 432.8342273013176 L 385.3385107354957 427.1750324183108 L 387.67747830059386 418.68624009380073 L 390.01644586569205 435.66382474282096 L 392.3554134307903 453.51205475845757 L 394.69438099588854 438.71108352597844 L 397.0333485609867 445.89390780056385 L 399.37231612608497 428.4810004682355 L 401.71128369118316 440.6700356008654 L 404.0502512562814 428.6986618098896 L 406.3892188213796 435.4461634011668 L 408.72818638647783 428.04567778492725 L 411.0671539515761 431.0929365680847 L 413.40612151667426 435.0108407178586 L 415.74508908177245 428.04567778492725 L 418.0840566468707 403.8852688613216 L 420.42302421196894 429.35164583485187 L 422.7619917770671 431.5282592513929 L 425.10095934216537 435.88148608447506 L 427.43992690726355 443.93495572567696 L 429.7788944723618 418.25091741049255 L 432.11786203746 434.35785669289635 L 434.45682960255823 430.22229120146835 L 436.7957971676565 416.9449493605679 L 439.13476473275466 428.6986618098896 L 441.47373229785285 424.9984190017698 L 443.8126998629511 416.5096266772597 L 446.15166742804934 436.31680876778324 L 448.4906349931475 431.5282592513929 L 450.8296025582457 426.9573710766567 L 453.168570123344 421.5158375353041 L 455.5075376884422 425.43374168507796 L 457.8465052535404 431.74592059304706 L 460.18547281863863 418.03325606883845 L 462.5244403837369 417.38027204387606 L 464.86340794883506 433.9225340095881 L 467.20237551393325 440.8876969425195 L 469.5413430790315 431.5282592513929 L 471.88031064412974 429.1339844931978 L 474.2192782092279 428.6986618098896 L 476.5582457743261 431.96358193470115 L 478.8972133394244 422.82180558522873 L 481.2361809045226 420.4275308270336 L 483.5751484696208 423.474789610191 L 485.91411603471903 419.5568854604171 L 488.2530835998173 413.027045210794 L 490.59205116491546 430.22229120146835 L 492.93101873001365 434.57551803455044 L 495.2699862951119 416.7272880189138 L 497.60895386021014 445.67624645890976 L 499.9479214253083 424.9984190017698 L 502.28688899040657 405.19123691124616 L 504.6258565555048 425.8690643683862 L 506.964824120603 428.4810004682355 L 509.3037916857012 428.6986618098896 L 511.64275925079943 423.0394669268828 L 513.9817268158977 434.79317937620453 L 516.3206943809959 426.73970973500263 L 518.659661946094 425.8690643683862 L 520.9986295111923 430.65761388477654 L 523.3375970762905 414.33301326071864 L 525.6765646413887 424.7807576601157 L 528.015532206487 431.0929365680847 L 530.3544997715852 411.93873850252345 L 532.6934673366834 426.9573710766567 L 535.0324349017816 415.85664265229735 L 537.3714024668798 440.01705157590305 L 539.7103700319781 435.0108407178586 L 542.0493375970763 418.25091741049255 L 544.3883051621744 419.5568854604171 L 546.7272727272727 441.1053582841736" stroke-linejoin="bevel" stroke-miterlimit="10" stroke-width="2"/></g></g></g><g clip-path="url(#CJxpAtseDgzZ)"><g><g><path fill="none" stroke="none"/><path fill="none" stroke="#542788" paint-order="fill stroke markers" d=" M 81.27272727272728 539 L 83.6116948378255 533.0264584615352 L 85.95066240292371 532.6851132307658 L 88.28962996802193 528.7596430769174 L 90.62859753312014 529.4423335384563 L 92.96756509821836 533.5384763076893 L 95.30653266331657 522.615428923068 L 97.64550022841479 526.0288812307621 L 99.984467793513 531.8317501538422 L 102.32343535861122 529.7836787692257 L 104.66240292370946 529.9543513846104 L 107.00137048880768 529.1009883076869 L 109.3403380539059 522.9567741538373 L 111.67930561900411 522.7861015384526 L 114.01827318410233 518.0072683076808 L 116.35724074920054 522.615428923068 L 118.69620831429876 522.615428923068 L 121.03517587939697 512.8870898461395 L 123.37414344449519 521.9327384615291 L 125.7131110095934 517.836595692296 L 128.05207857469162 507.7669113845982 L 130.39104613978986 525.6875359999926 L 132.73001370488808 520.0553396922973 L 135.0689812699863 518.5192861538349 L 137.4079488350845 526.0288812307621 L 139.74691640018273 520.7380301538361 L 142.08588396528094 515.7885243076795 L 144.42485153037916 507.0842209230593 L 146.76381909547737 513.3991076922936 L 149.1027866605756 506.4015304615205 L 151.4417542256738 515.4471790769101 L 153.78072179077205 508.6202744615217 L 156.11968935587026 512.033726769216 L 158.45865692096848 501.2813519999792 L 160.7976244860667 506.2308578461358 L 163.1365920511649 505.71883999998164 L 165.47555961626313 511.00969107690764 L 167.81452718136134 511.18036369229236 L 170.15349474645956 488.9929236922801 L 172.49246231155777 499.4039532307474 L 174.831429876656 484.72610830766234 L 177.1703974417542 497.01453661536146 L 179.50936500685245 495.30781046151435 L 181.84833257195066 493.4304116922826 L 184.18730013704888 475.33911446150336 L 186.5262677021471 482.16601907689176 L 188.8652352672453 477.04584061535047 L 191.20420283234353 482.5073643076612 L 193.54317039744174 471.2429716922703 L 195.88213796253996 462.1973230768807 L 198.2211055276382 475.8511323076575 L 200.5600730927364 466.6348110768831 L 202.89904065783463 457.41848984610886 L 205.23800822293282 469.1949003076538 L 207.57697578803106 471.58431692303975 L 209.91594335312928 447.8608233845651 L 212.2549109182275 457.93050769226295 L 214.5938784833257 450.9329304614899 L 216.93284604842393 456.73579938457 L 219.27181361352214 466.12279323072903 L 221.61078117862036 449.90889476918164 L 223.9497487437186 449.3968769230275 L 226.2887163088168 427.0387643076306 L 228.62768387391503 453.83436492302997 L 230.96665143901322 458.2718529230324 L 233.30561900411146 428.4041452307082 L 235.64458656920968 435.91374030763546 L 237.9835541343079 428.06279999993876 L 240.3225216994061 435.74306769225075 L 242.66148926450433 411.50755630762194 L 245.00045682960254 419.01715138454915 L 247.33942439470076 423.9666572307058 L 249.678391959799 407.92343138454305 L 252.0173595248972 405.7046873845419 L 254.35632708999543 406.5580504614654 L 256.6952946550936 414.4089907691621 L 259.03426222019186 412.70226461531496 L 261.37322978529005 393.24558646145806 L 263.7121973503883 389.66146153837917 L 266.05116491548654 399.3898006153076 L 268.3901324805847 390.17347938453327 L 270.72910004568297 382.66388430760605 L 273.06806761078116 384.02926523068373 L 275.4070351758794 399.04845538453816 L 277.7460027409776 369.01007507682925 L 280.08497030607583 404.6806516922336 L 282.423937871174 368.49805723067516 L 284.76290543627226 397.00038399992167 L 287.10187300137045 372.93554523067763 L 289.4408405664687 394.2696221537663 L 291.77980813156694 374.1302535383706 L 294.1187756966651 378.567741538373 L 296.45774326176337 372.93554523067763 L 298.79671082686156 375.4956344614483 L 301.1356783919598 384.88262830760726 L 303.474645957058 393.07491384607334 L 305.81361352215623 369.52209292298346 L 308.1525810872544 411.16621107685256 L 310.49154865235266 426.3560738460917 L 312.83051621745085 371.57016430759995 L 315.1694837825491 333.16882584604025 L 317.50845134764734 426.5267464614764 L 319.8474189127455 431.6469249230177 L 322.18638647784377 464.75741230765135 L 324.52535404294196 332.3154627691167 L 326.8643216080402 470.56028123073145 L 329.2032891731384 464.24539446149726 L 331.54225673823663 440.6925735384073 L 333.8812243033348 436.42575815378956 L 336.22019186843306 431.6469249230177 L 338.55915943353125 448.7141864614887 L 340.8981269986295 447.1781329230263 L 343.23709456372774 439.1565199999449 L 345.5760621288259 430.9642344614789 L 347.91502969392417 420.55320492301155 L 350.25399725902236 426.69741907686114 L 352.5929648241206 426.01472861532227 L 354.9319323892188 437.6204664614826 L 357.27089995431703 442.2286270768697 L 359.6098675194152 434.8897046153272 L 361.94883508451346 440.00988307686845 L 364.28780264961165 443.25266276917796 L 366.6267702147099 426.01472861532227 L 368.96573777980814 435.91374030763546 L 371.3047053449063 438.64450215379077 L 373.64367291000457 429.76952615378593 L 375.98264047510276 433.8656689230189 L 378.321608040201 440.3512283076379 L 380.6605756052992 429.76952615378593 L 382.99954317039743 442.2286270768697 L 385.3385107354957 431.8175975384024 L 387.67747830059386 424.990692923014 L 390.01644586569205 444.1060258461015 L 392.3554134307903 447.348805538411 L 394.69438099588854 437.96181169225196 L 397.0333485609867 444.4473710768709 L 399.37231612608497 440.6925735384073 L 401.71128369118316 431.6469249230177 L 404.0502512562814 444.4473710768709 L 406.3892188213796 437.79113907686724 L 408.72818638647783 434.8897046153272 L 411.0671539515761 445.9834246153333 L 413.40612151667426 433.5243236922495 L 415.74508908177245 426.01472861532227 L 418.0840566468707 427.8921273845541 L 420.42302421196894 415.2623538460856 L 422.7619917770671 418.6758061537798 L 425.10095934216537 439.1565199999449 L 427.43992690726355 440.18055569225317 L 429.7788944723618 430.28154399994 L 432.11786203746 444.78871630764036 L 434.45682960255823 424.990692923014 L 436.7957971676565 434.71903199994244 L 439.13476473275466 440.86324615379203 L 441.47373229785285 431.8175975384024 L 443.8126998629511 427.0387643076306 L 446.15166742804934 435.2310498460966 L 448.4906349931475 430.45221661532474 L 450.8296025582457 433.0123058460954 L 453.168570123344 431.13490707686356 L 455.5075376884422 436.5964307691743 L 457.8465052535404 432.67096061532595 L 460.18547281863863 432.3296153845565 L 462.5244403837369 432.67096061532595 L 464.86340794883506 424.990692923014 L 467.20237551393325 443.08199015379324 L 469.5413430790315 434.8897046153272 L 471.88031064412974 436.0844129230202 L 474.2192782092279 440.5219009230226 L 476.5582457743261 441.3752639999461 L 478.8972133394244 434.71903199994244 L 481.2361809045226 428.91616307686235 L 483.5751484696208 433.69499630763426 L 485.91411603471903 425.5027107691682 L 488.2530835998173 429.08683569224706 L 490.59205116491546 433.0123058460954 L 492.93101873001365 419.1878239999339 L 495.2699862951119 419.01715138454915 L 497.60895386021014 435.57239507686603 L 499.9479214253083 421.57724061531985 L 502.28688899040657 426.5267464614764 L 504.6258565555048 428.57481784609297 L 506.964824120603 432.15894276917186 L 509.3037916857012 435.2310498460966 L 511.64275925079943 431.6469249230177 L 513.9817268158977 430.28154399994 L 516.3206943809959 429.59885353840116 L 518.659661946094 420.55320492301155 L 520.9986295111923 429.2575083076317 L 523.3375970762905 425.5027107691682 L 525.6765646413887 426.5267464614764 L 528.015532206487 436.767103384559 L 530.3544997715852 421.40656799993513 L 532.6934673366834 430.1108713845553 L 535.0324349017816 422.4306036922434 L 537.3714024668798 425.33203815378346 L 539.7103700319781 425.33203815378346 L 542.0493375970763 422.6012763076281 L 544.3883051621744 422.08925846147395 L 546.7272727272727 438.4738295384061" stroke-linejoin="bevel" stroke-miterlimit="10" stroke-width="2"/></g></g></g><g clip-path="url(#rTTuSXSKLyHT)"><g><g><path fill="none" stroke="none"/><path fill="none" stroke="#A6CEE3" paint-order="fill stroke markers" d=" M 81.27272727272728 537.5504650606223 L 83.6116948378255 532.0404029622764 L 85.95066240292371 528.9409930319569 L 88.28962996802193 529.2853719131034 L 90.62859753312014 524.1196886959042 L 92.96756509821836 531.0072663188365 L 95.30653266331657 514.4770800237989 L 97.64550022841479 525.8415831016373 L 99.984467793513 522.3977942901711 L 102.32343535861122 522.7421731713176 L 104.66240292370946 515.1658377860921 L 107.00137048880768 523.430930933611 L 109.3403380539059 521.3646576467312 L 111.67930561900411 522.3977942901711 L 114.01827318410233 509.6557756877462 L 116.35724074920054 511.72204897462586 L 118.69620831429876 510.68891233118603 L 121.03517587939697 508.2782601631597 L 123.37414344449519 505.52322911398676 L 125.7131110095934 517.9208688352651 L 128.05207857469162 500.7019247779341 L 130.39104613978986 515.1658377860921 L 132.73001370488808 503.1125769459604 L 135.0689812699863 511.03329121233264 L 137.4079488350845 518.9540054787049 L 139.74691640018273 516.8877321918252 L 142.08588396528094 510.68891233118603 L 144.42485153037916 510.0001545688928 L 146.76381909547737 504.14571358940026 L 149.1027866605756 498.6356514910544 L 151.4417542256738 509.31139680659953 L 153.78072179077205 510.0001545688928 L 156.11968935587026 488.99304281894905 L 158.45865692096848 495.5362415607348 L 160.7976244860667 502.07944030252054 L 163.1365920511649 491.4036949869754 L 165.47555961626313 489.68180058124227 L 167.81452718136134 503.1125769459604 L 170.15349474645956 472.46285652391134 L 172.49246231155777 478.3172975034039 L 174.831429876656 474.18475092964445 L 177.1703974417542 483.8273596017498 L 179.50936500685245 472.46285652391134 L 181.84833257195066 479.3504341468437 L 184.18730013704888 444.9125460321818 L 186.5262677021471 453.1776391797007 L 188.8652352672453 447.6675770813548 L 191.20420283234353 466.2640366632722 L 193.54317039744174 436.9918317658096 L 195.88213796253996 452.48888141740747 L 198.2211055276382 451.11136589282097 L 200.5600730927364 429.415496380584 L 202.89904065783463 446.9788193190616 L 205.23800822293282 434.58117959778326 L 207.57697578803106 437.33621064695626 L 209.91594335312928 411.85217344210645 L 212.2549109182275 431.1373907863171 L 214.5938784833257 413.57406784783956 L 216.93284604842393 440.0912416961292 L 219.27181361352214 437.33621064695626 L 221.61078117862036 424.93857092567794 L 223.9497487437186 414.2628256101328 L 226.2887163088168 402.55394365114773 L 228.62768387391503 409.4415212740801 L 230.96665143901322 434.92555847892993 L 233.30561900411146 385.6793784749634 L 235.64458656920968 402.55394365114773 L 237.9835541343079 380.85807413891075 L 240.3225216994061 395.66636602821535 L 242.66148926450433 378.4474219708844 L 245.00045682960254 376.0367698028581 L 247.33942439470076 375.00363315941826 L 249.678391959799 339.8769872824631 L 252.0173595248972 353.6521425283279 L 254.35632708999543 355.02965805291433 L 256.6952946550936 350.55273259800833 L 259.03426222019186 354.6852791717677 L 261.37322978529005 324.7243165120119 L 263.7121973503883 317.14798112678625 L 266.05116491548654 336.77757735214357 L 268.3901324805847 349.1752170734218 L 270.72910004568297 329.8899997292112 L 273.06806761078116 341.94326056934284 L 275.4070351758794 344.35391273736917 L 277.7460027409776 326.10183203659835 L 280.08497030607583 371.2154654668054 L 282.423937871174 341.59888168819623 L 284.76290543627226 370.8710865856588 L 287.10187300137045 353.9965214094745 L 289.4408405664687 361.5728567947001 L 291.77980813156694 345.387049380809 L 294.1187756966651 359.850962388967 L 296.45774326176337 347.1089437865421 L 298.79671082686156 353.6521425283279 L 301.1356783919598 384.301862950377 L 303.474645957058 384.6462418315235 L 305.81361352215623 368.1160555364859 L 308.1525810872544 417.70661442159894 L 310.49154865235266 425.9717075691178 L 312.83051621745085 375.00363315941826 L 315.1694837825491 316.8036022456397 L 317.50845134764734 427.69360197485094 L 319.8474189127455 472.80723540505795 L 322.18638647784377 460.4095956837797 L 324.52535404294196 218.99999999999994 L 326.8643216080402 484.8604962451896 L 329.2032891731384 469.7078254747384 L 331.54225673823663 443.19065162644875 L 333.8812243033348 447.6675770813548 L 336.22019186843306 447.3231982002082 L 338.55915943353125 442.1575149830089 L 340.8981269986295 445.2569249133285 L 343.23709456372774 428.38235973714416 L 345.5760621288259 440.0912416961292 L 347.91502969392417 424.5941920445314 L 350.25399725902236 441.46875722071564 L 352.5929648241206 443.53503050759537 L 354.9319323892188 416.3290988970125 L 357.27089995431703 446.2900615567683 L 359.6098675194152 448.356334843648 L 361.94883508451346 434.92555847892993 L 364.28780264961165 462.1314900895128 L 366.6267702147099 452.1445025362608 L 368.96573777980814 435.95869512236976 L 371.3047053449063 428.38235973714416 L 373.64367291000457 454.2107758231406 L 375.98264047510276 442.84627274530214 L 378.321608040201 458.6877012780466 L 380.6605756052992 439.4024839338359 L 382.99954317039743 441.81313610186226 L 385.3385107354957 448.356334843648 L 387.67747830059386 422.5279187576516 L 390.01644586569205 443.19065162644875 L 392.3554134307903 461.4427323272196 L 394.69438099588854 446.2900615567683 L 397.0333485609867 440.7799994584224 L 399.37231612608497 436.9918317658096 L 401.71128369118316 434.92555847892993 L 404.0502512562814 435.61431624122315 L 406.3892188213796 455.588291347727 L 408.72818638647783 440.4356205772758 L 411.0671539515761 438.0249684092495 L 413.40612151667426 441.12437833956903 L 415.74508908177245 429.7598752617306 L 418.0840566468707 408.75276351178684 L 420.42302421196894 436.9918317658096 L 422.7619917770671 442.84627274530214 L 425.10095934216537 440.4356205772758 L 427.43992690726355 440.7799994584224 L 429.7788944723618 425.2829498068246 L 432.11786203746 431.1373907863171 L 434.45682960255823 439.0581050526893 L 436.7957971676565 440.7799994584224 L 439.13476473275466 441.12437833956903 L 441.47373229785285 442.50189386415553 L 443.8126998629511 425.2829498068246 L 446.15166742804934 440.7799994584224 L 448.4906349931475 435.95869512236976 L 450.8296025582457 435.61431624122315 L 453.168570123344 431.8261485486104 L 455.5075376884422 435.95869512236976 L 457.8465052535404 442.84627274530214 L 460.18547281863863 409.0971423929335 L 462.5244403837369 440.4356205772758 L 464.86340794883506 425.9717075691178 L 467.20237551393325 442.1575149830089 L 469.5413430790315 442.84627274530214 L 471.88031064412974 446.9788193190616 L 474.2192782092279 425.2829498068246 L 476.5582457743261 451.4557447739676 L 478.8972133394244 435.61431624122315 L 481.2361809045226 446.2900615567683 L 483.5751484696208 439.7468628149826 L 485.91411603471903 432.5149063109036 L 488.2530835998173 423.5610554010915 L 490.59205116491546 453.8663969419939 L 492.93101873001365 433.89242183549004 L 495.2699862951119 428.0379808559975 L 497.60895386021014 453.8663969419939 L 499.9479214253083 436.647452884663 L 502.28688899040657 413.57406784783956 L 504.6258565555048 439.0581050526893 L 506.964824120603 438.3693472903961 L 509.3037916857012 439.0581050526893 L 511.64275925079943 433.2036640731968 L 513.9817268158977 450.76698701167436 L 516.3206943809959 429.415496380584 L 518.659661946094 441.46875722071564 L 520.9986295111923 446.2900615567683 L 523.3375970762905 429.0711174994374 L 525.6765646413887 429.7598752617306 L 528.015532206487 433.2036640731968 L 530.3544997715852 431.4817696674637 L 532.6934673366834 439.4024839338359 L 535.0324349017816 437.33621064695626 L 537.3714024668798 449.38947148708786 L 539.7103700319781 441.81313610186226 L 542.0493375970763 424.2498131633847 L 544.3883051621744 428.0379808559975 L 546.7272727272727 449.38947148708786" stroke-linejoin="bevel" stroke-miterlimit="10" stroke-width="2"/></g></g></g><g clip-path="url(#nLtmgstUwgtF)"><g><g><path fill="none" stroke="none"/><path fill="none" stroke="#B2DF8A" paint-order="fill stroke markers" d=" M 81.27272727272728 530.5671934881977 L 83.6116948378255 520.5918886024364 L 85.95066240292371 528.1731203156149 L 88.28962996802193 516.601766648132 L 90.62859753312014 517.0007788435623 L 92.96756509821836 523.78398616588 L 95.30653266331657 505.4294251760793 L 97.64550022841479 521.7889251887277 L 99.984467793513 515.0057178664101 L 102.32343535861122 513.0106568892579 L 104.66240292370946 516.2027544527015 L 107.00137048880768 511.0155959121056 L 109.3403380539059 520.192876407006 L 111.67930561900411 512.6116446938274 L 114.01827318410233 505.03041298064886 L 116.35724074920054 514.2076934755493 L 118.69620831429876 515.0057178664101 L 121.03517587939697 499.843254440053 L 123.37414344449519 497.8481934629007 L 125.7131110095934 509.02053493495333 L 128.05207857469162 486.6758519908481 L 130.39104613978986 513.4096690846883 L 132.73001370488808 493.8580715085962 L 135.0689812699863 500.6412788309139 L 137.4079488350845 509.4195471303838 L 139.74691640018273 511.4146081075361 L 142.08588396528094 505.03041298064886 L 144.42485153037916 497.4491812674703 L 146.76381909547737 487.07486418627855 L 149.1027866605756 491.0649861405831 L 151.4417542256738 496.25214468117895 L 153.78072179077205 487.07486418627855 L 156.11968935587026 493.06004711773534 L 158.45865692096848 488.2719007725699 L 160.7976244860667 487.07486418627855 L 163.1365920511649 487.47387638170903 L 165.47555961626313 479.4936324731 L 167.81452718136134 494.6560958994571 L 170.15349474645956 463.1341324604515 L 172.49246231155777 474.7054861279346 L 174.831429876656 467.52326661018645 L 177.1703974417542 477.0995593005173 L 179.50936500685245 454.3558641609816 L 181.84833257195066 462.33610806959064 L 184.18730013704888 450.76475440210754 L 186.5262677021471 439.59241293005493 L 188.8652352672453 431.21315682601545 L 191.20420283234353 464.33116904674284 L 193.54317039744174 419.6418031585324 L 195.88213796253996 434.80426658488955 L 198.2211055276382 445.57759586151167 L 200.5600730927364 416.44970559508874 L 202.89904065783463 439.59241293005493 L 205.23800822293282 438.794388539194 L 207.57697578803106 420.43982754939327 L 209.91594335312928 397.69613240985757 L 212.2549109182275 410.0655104682015 L 214.5938784833257 414.05563242250605 L 216.93284604842393 425.22797389455866 L 219.27181361352214 425.22797389455866 L 221.61078117862036 395.3020592372749 L 223.9497487437186 402.0852665595926 L 226.2887163088168 395.3020592372749 L 228.62768387391503 410.8635348590625 L 230.96665143901322 412.4595836407842 L 233.30561900411146 382.53366898350043 L 235.64458656920968 387.7208275240963 L 237.9835541343079 366.17416897085195 L 240.3225216994061 381.7356445926396 L 242.66148926450433 344.6275104176076 L 245.00045682960254 368.56824214343465 L 247.33942439470076 359.3909616485343 L 249.678391959799 354.2038031079385 L 252.0173595248972 333.0561567501246 L 254.35632708999543 341.03640065873356 L 256.6952946550936 326.67196162323734 L 259.03426222019186 343.82948602674674 L 261.37322978529005 289.5638274482054 L 263.7121973503883 268.815193285822 L 266.05116491548654 323.08085186436324 L 268.3901324805847 308.716412828867 L 270.72910004568297 327.46998601409825 L 273.06806761078116 306.7213518517148 L 275.4070351758794 323.08085186436324 L 277.7460027409776 301.93320550654937 L 280.08497030607583 328.6670226003896 L 282.423937871174 313.105546978602 L 284.76290543627226 349.41565676277304 L 287.10187300137045 319.4897421054892 L 289.4408405664687 323.4798640597937 L 291.77980813156694 283.5786445167486 L 294.1187756966651 268.4161810903915 L 296.45774326176337 271.2092664584047 L 298.79671082686156 280.38654695330507 L 301.1356783919598 331.8591201638332 L 303.474645957058 329.0660347958201 L 305.81361352215623 307.51937624257573 L 308.1525810872544 374.95243727032187 L 310.49154865235266 390.114900696679 L 312.83051621745085 329.4650469912505 L 315.1694837825491 268.01716889496106 L 317.50845134764734 418.44476657224106 L 319.8474189127455 424.0309373082673 L 322.18638647784377 455.55290074727293 L 324.52535404294196 268.01716889496106 L 326.8643216080402 470.31635197819963 L 329.2032891731384 444.3805592752203 L 331.54225673823663 433.2082178031677 L 333.8812243033348 443.183522688929 L 336.22019186843306 445.97660805694215 L 338.55915943353125 433.60722999859814 L 340.8981269986295 445.17858366608124 L 343.23709456372774 425.22797389455866 L 345.5760621288259 421.23785194025413 L 347.91502969392417 406.07538851389705 L 350.25399725902236 406.07538851389705 L 352.5929648241206 423.6319251128369 L 354.9319323892188 384.9277421560831 L 357.27089995431703 426.02599828541963 L 359.6098675194152 433.2082178031677 L 361.94883508451346 420.43982754939327 L 364.28780264961165 418.8437787676715 L 366.6267702147099 415.2526690087974 L 368.96573777980814 429.6171080442937 L 371.3047053449063 431.6121690214459 L 373.64367291000457 424.82896169912823 L 375.98264047510276 432.01118121687637 L 378.321608040201 443.5825348843594 L 380.6605756052992 416.44970559508874 L 382.99954317039743 416.0506933996583 L 385.3385107354957 418.44476657224106 L 387.67747830059386 422.83390072197597 L 390.01644586569205 433.2082178031677 L 392.3554134307903 431.6121690214459 L 394.69438099588854 452.7598153792598 L 397.0333485609867 449.9667300112466 L 399.37231612608497 442.7845104934985 L 401.71128369118316 448.7696934249553 L 404.0502512562814 436.79932756204175 L 406.3892188213796 426.8240226762805 L 408.72818638647783 424.4299495036978 L 411.0671539515761 439.19340073462445 L 413.40612151667426 417.6467421813801 L 415.74508908177245 425.62698608998915 L 418.0840566468707 412.8585958362147 L 420.42302421196894 433.2082178031677 L 422.7619917770671 410.0655104682015 L 425.10095934216537 427.223034871711 L 427.43992690726355 435.6022909757504 L 429.7788944723618 419.2427909631019 L 432.11786203746 415.6516812042279 L 434.45682960255823 411.66155924992336 L 436.7957971676565 424.4299495036978 L 439.13476473275466 414.05563242250605 L 441.47373229785285 427.223034871711 L 443.8126998629511 411.2625470544929 L 446.15166742804934 432.8092056077372 L 448.4906349931475 416.84871779051923 L 450.8296025582457 420.43982754939327 L 453.168570123344 435.20327878032 L 455.5075376884422 426.42501048085 L 457.8465052535404 450.76475440210754 L 460.18547281863863 412.4595836407842 L 462.5244403837369 423.6319251128369 L 464.86340794883506 429.2180958488632 L 467.20237551393325 448.7696934249553 L 469.5413430790315 425.22797389455866 L 471.88031064412974 434.0062421940286 L 474.2192782092279 435.6022909757504 L 476.5582457743261 421.6368641356846 L 478.8972133394244 432.01118121687637 L 481.2361809045226 430.01612023972405 L 483.5751484696208 413.65662022707556 L 485.91411603471903 411.2625470544929 L 488.2530835998173 432.4101934123068 L 490.59205116491546 426.42501048085 L 492.93101873001365 419.2427909631019 L 495.2699862951119 416.0506933996583 L 497.60895386021014 438.3953763437636 L 499.9479214253083 421.23785194025413 L 502.28688899040657 394.9030470418444 L 504.6258565555048 438.3953763437636 L 506.964824120603 434.80426658488955 L 509.3037916857012 435.6022909757504 L 511.64275925079943 419.6418031585324 L 513.9817268158977 417.6467421813801 L 516.3206943809959 418.44476657224106 L 518.659661946094 420.0408153539628 L 520.9986295111923 421.6368641356846 L 523.3375970762905 444.3805592752203 L 525.6765646413887 415.6516812042279 L 528.015532206487 423.23291291740645 L 530.3544997715852 414.45464461793654 L 532.6934673366834 415.6516812042279 L 535.0324349017816 410.0655104682015 L 537.3714024668798 432.01118121687637 L 539.7103700319781 428.8190836534327 L 542.0493375970763 416.44970559508874 L 544.3883051621744 410.0655104682015 L 546.7272727272727 425.22797389455866" stroke-linejoin="bevel" stroke-miterlimit="10" stroke-width="2"/></g></g></g><g><g/><g><path fill="#ffffff" stroke="#e5e5e5" paint-order="fill stroke markers" d=" M 68 38 L 472.421875 38 L 472.421875 193 L 68 193 L 68 38 Z" fill-opacity="0.95" stroke-linejoin="bevel" stroke-miterlimit="10" stroke-opacity="0.5"/><text fill="#444444" stroke="none" font-family="helvetica" font-size="10pt" font-style="normal" font-weight="normal" text-decoration="normal" x="103" y="58" text-anchor="start" dominant-baseline="central">sc5314_fluc_rep01_ACGCTG.fastqAligned.primary.out_dedup</text><g><path fill="none" stroke="#1F78B4" paint-order="fill stroke markers" d=" M 78 58 L 98 58" stroke-linejoin="bevel" stroke-miterlimit="10" stroke-width="2"/></g><text fill="#444444" stroke="none" font-family="helvetica" font-size="10pt" font-style="normal" font-weight="normal" text-decoration="normal" x="103" y="81" text-anchor="start" dominant-baseline="central">sc5314_fluc_rep02_GTGATC.fastqAligned.primary.out_dedup</text><g><path fill="none" stroke="#33A02C" paint-order="fill stroke markers" d=" M 78 81 L 98 81" stroke-linejoin="bevel" stroke-miterlimit="10" stroke-width="2"/></g><text fill="#444444" stroke="none" font-family="helvetica" font-size="10pt" font-style="normal" font-weight="normal" text-decoration="normal" x="103" y="104" text-anchor="start" dominant-baseline="central">sc5314_fluc_rep03_ACTGGT.fastqAligned.primary.out_dedup</text><g><path fill="none" stroke="#C51B7D" paint-order="fill stroke markers" d=" M 78 104 L 98 104" stroke-linejoin="bevel" stroke-miterlimit="10" stroke-width="2"/></g><text fill="#444444" stroke="none" font-family="helvetica" font-size="10pt" font-style="normal" font-weight="normal" text-decoration="normal" x="103" y="127" text-anchor="start" dominant-baseline="central">sc5314_ut_rep01_CGTGCA.fastqAligned.primary.out_dedup</text><g><path fill="none" stroke="#542788" paint-order="fill stroke markers" d=" M 78 127 L 98 127" stroke-linejoin="bevel" stroke-miterlimit="10" stroke-width="2"/></g><text fill="#444444" stroke="none" font-family="helvetica" font-size="10pt" font-style="normal" font-weight="normal" text-decoration="normal" x="103" y="150" text-anchor="start" dominant-baseline="central">sc5314_ut_rep02_TAATGT.fastqAligned.primary.out_dedup</text><g><path fill="none" stroke="#A6CEE3" paint-order="fill stroke markers" d=" M 78 150 L 98 150" stroke-linejoin="bevel" stroke-miterlimit="10" stroke-width="2"/></g><text fill="#444444" stroke="none" font-family="helvetica" font-size="10pt" font-style="normal" font-weight="normal" text-decoration="normal" x="103" y="173" text-anchor="start" dominant-baseline="central">sc5314_ut_rep03_CTACAC.fastqAligned.primary.out_dedup</text><g><path fill="none" stroke="#B2DF8A" paint-order="fill stroke markers" d=" M 78 173 L 98 173" stroke-linejoin="bevel" stroke-miterlimit="10" stroke-width="2"/></g></g></g><g><g fill="#444444"><path fill="" stroke="none" d=""/><g transform="translate(58,23)"><path fill="none" stroke="none"/><text fill="" stroke="none" font-family="helvetica" font-size="10pt" font-style="normal" font-weight="bold" text-decoration="normal" x="0" y="0" text-anchor="start" dominant-baseline="text-after-edge">metagene_counts-START_scaled</text></g></g></g><g/><g><g fill="#444444"><path fill="none" stroke="black" paint-order="fill stroke markers" d=" M 58 555 L 570 555" stroke-linejoin="bevel" stroke-miterlimit="10"/><path fill="none" stroke="black" paint-order="fill stroke markers" d=" M 81 561 L 81 553" stroke-linejoin="bevel" stroke-miterlimit="10"/><path fill="none" stroke="black" paint-order="fill stroke markers" d=" M 198 561 L 198 553" stroke-linejoin="bevel" stroke-miterlimit="10"/><path fill="none" stroke="black" paint-order="fill stroke markers" d=" M 315 561 L 315 553" stroke-linejoin="bevel" stroke-miterlimit="10"/><path fill="none" stroke="black" paint-order="fill stroke markers" d=" M 432 561 L 432 553" stroke-linejoin="bevel" stroke-miterlimit="10"/><path fill="none" stroke="black" paint-order="fill stroke markers" d=" M 549 561 L 549 553" stroke-linejoin="bevel" stroke-miterlimit="10"/><path fill="none" stroke="black" paint-order="fill stroke markers" d=" M 81 559 L 81 555" stroke-linejoin="bevel" stroke-miterlimit="10"/><path fill="none" stroke="black" paint-order="fill stroke markers" d=" M 105 559 L 105 555" stroke-linejoin="bevel" stroke-miterlimit="10"/><path fill="none" stroke="black" paint-order="fill stroke markers" d=" M 128 559 L 128 555" stroke-linejoin="bevel" stroke-miterlimit="10"/><path fill="none" stroke="black" paint-order="fill stroke markers" d=" M 151 559 L 151 555" stroke-linejoin="bevel" stroke-miterlimit="10"/><path fill="none" stroke="black" paint-order="fill stroke markers" d=" M 175 559 L 175 555" stroke-linejoin="bevel" stroke-miterlimit="10"/><path fill="none" stroke="black" paint-order="fill stroke markers" d=" M 198 559 L 198 555" stroke-linejoin="bevel" stroke-miterlimit="10"/><path fill="none" stroke="black" paint-order="fill stroke markers" d=" M 222 559 L 222 555" stroke-linejoin="bevel" stroke-miterlimit="10"/><path fill="none" stroke="black" paint-order="fill stroke markers" d=" M 245 559 L 245 555" stroke-linejoin="bevel" stroke-miterlimit="10"/><path fill="none" stroke="black" paint-order="fill stroke markers" d=" M 268 559 L 268 555" stroke-linejoin="bevel" stroke-miterlimit="10"/><path fill="none" stroke="black" paint-order="fill stroke markers" d=" M 292 559 L 292 555" stroke-linejoin="bevel" stroke-miterlimit="10"/><path fill="none" stroke="black" paint-order="fill stroke markers" d=" M 315 559 L 315 555" stroke-linejoin="bevel" stroke-miterlimit="10"/><path fill="none" stroke="black" paint-order="fill stroke markers" d=" M 339 559 L 339 555" stroke-linejoin="bevel" stroke-miterlimit="10"/><path fill="none" stroke="black" paint-order="fill stroke markers" d=" M 362 559 L 362 555" stroke-linejoin="bevel" stroke-miterlimit="10"/><path fill="none" stroke="black" paint-order="fill stroke markers" d=" M 385 559 L 385 555" stroke-linejoin="bevel" stroke-miterlimit="10"/><path fill="none" stroke="black" paint-order="fill stroke markers" d=" M 409 559 L 409 555" stroke-linejoin="bevel" stroke-miterlimit="10"/><path fill="none" stroke="black" paint-order="fill stroke markers" d=" M 432 559 L 432 555" stroke-linejoin="bevel" stroke-miterlimit="10"/><path fill="none" stroke="black" paint-order="fill stroke markers" d=" M 456 559 L 456 555" stroke-linejoin="bevel" stroke-miterlimit="10"/><path fill="none" stroke="black" paint-order="fill stroke markers" d=" M 479 559 L 479 555" stroke-linejoin="bevel" stroke-miterlimit="10"/><path fill="none" stroke="black" paint-order="fill stroke markers" d=" M 502 559 L 502 555" stroke-linejoin="bevel" stroke-miterlimit="10"/><path fill="none" stroke="black" paint-order="fill stroke markers" d=" M 526 559 L 526 555" stroke-linejoin="bevel" stroke-miterlimit="10"/><path fill="" stroke="black" paint-order="fill stroke markers" d=" M 549 559 L 549 555" stroke-linejoin="bevel" stroke-miterlimit="10"/><g transform="translate(81,566) rotate(0,0,0)"><text fill="" stroke="none" font-family="helvetica" font-size="8pt" font-style="normal" font-weight="normal" text-decoration="normal" x="0" y="0" text-anchor="middle" dominant-baseline="hanging">-100</text><g transform="rotate(0,0,0) translate(-81,-566) translate(198,566) rotate(0,0,0)"><text fill="" stroke="none" font-family="helvetica" font-size="8pt" font-style="normal" font-weight="normal" text-decoration="normal" x="0" y="0" text-anchor="middle" dominant-baseline="hanging">-50</text><g transform="rotate(0,0,0) translate(-198,-566) translate(315,566) rotate(0,0,0)"><text fill="" stroke="none" font-family="helvetica" font-size="8pt" font-style="normal" font-weight="normal" text-decoration="normal" x="0" y="0" text-anchor="middle" dominant-baseline="hanging">0</text><g transform="rotate(0,0,0) translate(-315,-566) translate(432,566) rotate(0,0,0)"><text fill="" stroke="none" font-family="helvetica" font-size="8pt" font-style="normal" font-weight="normal" text-decoration="normal" x="0" y="0" text-anchor="middle" dominant-baseline="hanging">50</text><g transform="rotate(0,0,0) translate(-432,-566) translate(549,566) rotate(0,0,0)"><text fill="" stroke="none" font-family="helvetica" font-size="8pt" font-style="normal" font-weight="normal" text-decoration="normal" x="0" y="0" text-anchor="middle" dominant-baseline="hanging">100</text><g transform="rotate(0,0,0) translate(-549,-566) translate(314,584) rotate(0,0,0)"><text fill="" stroke="none" font-family="helvetica" font-size="10pt" font-style="italic" font-weight="normal" text-decoration="normal" x="0" y="0" text-anchor="middle" dominant-baseline="hanging">position from START</text><g transform="rotate(0,0,0) translate(-314,-584)"/></g></g></g></g></g></g></g></g><g><g fill="#444444"><path fill="none" stroke="black" paint-order="fill stroke markers" d=" M 58 555 L 58 203" stroke-linejoin="bevel" stroke-miterlimit="10"/><path fill="none" stroke="black" paint-order="fill stroke markers" d=" M 52 476 L 60 476" stroke-linejoin="bevel" stroke-miterlimit="10"/><path fill="none" stroke="black" paint-order="fill stroke markers" d=" M 52 386 L 60 386" stroke-linejoin="bevel" stroke-miterlimit="10"/><path fill="none" stroke="black" paint-order="fill stroke markers" d=" M 52 296 L 60 296" stroke-linejoin="bevel" stroke-miterlimit="10"/><path fill="none" stroke="black" paint-order="fill stroke markers" d=" M 52 206 L 60 206" stroke-linejoin="bevel" stroke-miterlimit="10"/><path fill="none" stroke="black" paint-order="fill stroke markers" d=" M 54 494 L 58 494" stroke-linejoin="bevel" stroke-miterlimit="10"/><path fill="none" stroke="black" paint-order="fill stroke markers" d=" M 54 512 L 58 512" stroke-linejoin="bevel" stroke-miterlimit="10"/><path fill="none" stroke="black" paint-order="fill stroke markers" d=" M 54 530 L 58 530" stroke-linejoin="bevel" stroke-miterlimit="10"/><path fill="none" stroke="black" paint-order="fill stroke markers" d=" M 54 548 L 58 548" stroke-linejoin="bevel" stroke-miterlimit="10"/><path fill="none" stroke="black" paint-order="fill stroke markers" d=" M 54 476 L 58 476" stroke-linejoin="bevel" stroke-miterlimit="10"/><path fill="none" stroke="black" paint-order="fill stroke markers" d=" M 54 458 L 58 458" stroke-linejoin="bevel" stroke-miterlimit="10"/><path fill="none" stroke="black" paint-order="fill stroke markers" d=" M 54 440 L 58 440" stroke-linejoin="bevel" stroke-miterlimit="10"/><path fill="none" stroke="black" paint-order="fill stroke markers" d=" M 54 422 L 58 422" stroke-linejoin="bevel" stroke-miterlimit="10"/><path fill="none" stroke="black" paint-order="fill stroke markers" d=" M 54 404 L 58 404" stroke-linejoin="bevel" stroke-miterlimit="10"/><path fill="none" stroke="black" paint-order="fill stroke markers" d=" M 54 386 L 58 386" stroke-linejoin="bevel" stroke-miterlimit="10"/><path fill="none" stroke="black" paint-order="fill stroke markers" d=" M 54 368 L 58 368" stroke-linejoin="bevel" stroke-miterlimit="10"/><path fill="none" stroke="black" paint-order="fill stroke markers" d=" M 54 350 L 58 350" stroke-linejoin="bevel" stroke-miterlimit="10"/><path fill="none" stroke="black" paint-order="fill stroke markers" d=" M 54 332 L 58 332" stroke-linejoin="bevel" stroke-miterlimit="10"/><path fill="none" stroke="black" paint-order="fill stroke markers" d=" M 54 314 L 58 314" stroke-linejoin="bevel" stroke-miterlimit="10"/><path fill="none" stroke="black" paint-order="fill stroke markers" d=" M 54 296 L 58 296" stroke-linejoin="bevel" stroke-miterlimit="10"/><path fill="none" stroke="black" paint-order="fill stroke markers" d=" M 54 278 L 58 278" stroke-linejoin="bevel" stroke-miterlimit="10"/><path fill="none" stroke="black" paint-order="fill stroke markers" d=" M 54 260 L 58 260" stroke-linejoin="bevel" stroke-miterlimit="10"/><path fill="none" stroke="black" paint-order="fill stroke markers" d=" M 54 242 L 58 242" stroke-linejoin="bevel" stroke-miterlimit="10"/><path fill="none" stroke="black" paint-order="fill stroke markers" d=" M 54 224 L 58 224" stroke-linejoin="bevel" stroke-miterlimit="10"/><path fill="" stroke="black" paint-order="fill stroke markers" d=" M 54 206 L 58 206" stroke-linejoin="bevel" stroke-miterlimit="10"/><g transform="translate(47,476) rotate(0,0,0)"><text fill="" stroke="none" font-family="helvetica" font-size="8pt" font-style="normal" font-weight="normal" text-decoration="normal" x="0" y="0" text-anchor="end" dominant-baseline="central">500</text><g transform="rotate(0,0,0) translate(-47,-476) translate(47,386) rotate(0,0,0)"><text fill="" stroke="none" font-family="helvetica" font-size="8pt" font-style="normal" font-weight="normal" text-decoration="normal" x="0" y="0" text-anchor="end" dominant-baseline="central">1000</text><g transform="rotate(0,0,0) translate(-47,-386) translate(47,296) rotate(0,0,0)"><text fill="" stroke="none" font-family="helvetica" font-size="8pt" font-style="normal" font-weight="normal" text-decoration="normal" x="0" y="0" text-anchor="end" dominant-baseline="central">1500</text><g transform="rotate(0,0,0) translate(-47,-296) translate(47,206) rotate(0,0,0)"><text fill="" stroke="none" font-family="helvetica" font-size="8pt" font-style="normal" font-weight="normal" text-decoration="normal" x="0" y="0" text-anchor="end" dominant-baseline="central">2000</text><g transform="rotate(0,0,0) translate(-47,-206) translate(15,379) rotate(-90,0,0)"><text fill="" stroke="none" font-family="helvetica" font-size="10pt" font-style="italic" font-weight="normal" text-decoration="normal" x="0" y="0" text-anchor="middle" dominant-baseline="alphabetic">5'seq RPM</text><g transform="rotate(90,0,0) translate(-15,-379)"/></g></g></g></g></g></g></g><g clip-path="url(#WPceaXhrwVuK)"><g/></g></g></g></svg>