<svg version="1.1" xmlns="http://www.w3.org/2000/svg" xmlns:xlink="http://www.w3.org/1999/xlink" width="600" height="600" style="width: 600px; height: 600px;"><defs><clipPath id="MdeqbHxCfcLE"><path fill="none" stroke="none" d=" M 52 28 L 570 28 L 570 555 L 52 555 L 52 28 Z"/></clipPath><clipPath id="IZcVKwqZuVqh"><path fill="none" stroke="none" d=" M 52 28 L 570 28 L 570 555 L 52 555 L 52 28 Z"/></clipPath><clipPath id="MqAppdQpqqaq"><path fill="none" stroke="none" d=" M 52 28 L 570 28 L 570 555 L 52 555 L 52 28 Z"/></clipPath><clipPath id="utlOIKZSgkgb"><path fill="none" stroke="none" d=" M 52 28 L 570 28 L 570 555 L 52 555 L 52 28 Z"/></clipPath></defs><g><g transform="scale(1,1) translate(0.5,0.5)"><rect fill="#FFFFFF" stroke="none" x="0" y="0" width="600" height="600"/><rect fill="#ffffff" stroke="none" x="0" y="0" width="600" height="600"/><rect fill="#FFFFFF" stroke="none" x="52" y="28" width="518" height="527"/><rect fill="#ffffff" stroke="none" x="52" y="28" width="518" height="527"/><g><rect fill="none" stroke="#e5e5e5" x="52" y="28" width="518" height="527" stroke-linejoin="bevel" stroke-miterlimit="10"/></g><g clip-path="url(#MdeqbHxCfcLE)"><g><g><path fill="none" stroke="#e5e5e5" paint-order="fill stroke markers" d=" M 68 555 L 68 28" stroke-linejoin="bevel" stroke-miterlimit="10"/><path fill="none" stroke="#e5e5e5" paint-order="fill stroke markers" d=" M 187 555 L 187 28" stroke-linejoin="bevel" stroke-miterlimit="10"/><path fill="none" stroke="#e5e5e5" paint-order="fill stroke markers" d=" M 305 555 L 305 28" stroke-linejoin="bevel" stroke-miterlimit="10"/><path fill="none" stroke="#e5e5e5" paint-order="fill stroke markers" d=" M 423 555 L 423 28" stroke-linejoin="bevel" stroke-miterlimit="10"/><path fill="none" stroke="#e5e5e5" paint-order="fill stroke markers" d=" M 542 555 L 542 28" stroke-linejoin="bevel" stroke-miterlimit="10"/></g></g></g><g clip-path="url(#IZcVKwqZuVqh)"><g><g><path fill="none" stroke="#e5e5e5" paint-order="fill stroke markers" d=" M 52 457 L 570 457" stroke-linejoin="bevel" stroke-miterlimit="10"/><path fill="none" stroke="#e5e5e5" paint-order="fill stroke markers" d=" M 52 337 L 570 337" stroke-linejoin="bevel" stroke-miterlimit="10"/><path fill="none" stroke="#e5e5e5" paint-order="fill stroke markers" d=" M 52 217 L 570 217" stroke-linejoin="bevel" stroke-miterlimit="10"/><path fill="none" stroke="#e5e5e5" paint-order="fill stroke markers" d=" M 52 97 L 570 97" stroke-linejoin="bevel" stroke-miterlimit="10"/></g></g></g><g clip-path="url(#MqAppdQpqqaq)"><g><g><path fill="none" stroke="none"/><path fill="none" stroke="rgb(239,138,98)" paint-order="fill stroke markers" d=" M 75.54545454545459 241.5159150705599 L 77.9118318867063 200.01603466357568 L 80.278209227958 210.58492944012073 L 82.64458656920971 244.6187098673438 L 85.01096391046144 212.81506320030917 L 87.37734125171315 226.29282809883904 L 89.74371859296485 267.11397214402683 L 92.11009593421659 192.74385935861352 L 94.4764732754683 209.13049437912832 L 96.84285061672 259.45394748946666 L 99.2092279579717 214.1725359239021 L 101.57560529922341 220.18420084267086 L 103.94198264047515 248.6911280381226 L 106.30835998172685 192.06512299681708 L 108.67473732297856 203.60364114735705 L 111.04111466423029 283.1127578149436 L 113.407492005482 226.58371511103758 L 115.7738693467337 214.85127228569854 L 118.14024668798541 294.2634266158857 L 120.50662402923712 229.29866055822345 L 122.87300137048885 221.92952291586175 L 125.23937871174056 284.95504222553404 L 127.60575605299226 231.52879431841188 L 129.972133394244 257.6116630788763 L 132.3385107354957 303.86269801843576 L 134.7048880767474 254.9936799690899 L 137.07126541799911 279.0403396441648 L 139.43764275925082 285.924665599529 L 141.80402010050256 276.32539419697895 L 144.17039744175426 270.0228422660117 L 146.53677478300597 309.0017019006091 L 148.9031521242577 273.0286747253961 L 151.2695294655094 271.6712020018031 L 153.6359068067611 302.3113006200438 L 156.00228414801282 274.4831097863885 L 158.36866148926453 292.1302551930968 L 160.73503883051626 303.1839616566393 L 163.10141617176797 288.7365733841144 L 165.46779351301967 296.4935603760741 L 167.8341708542714 325.9701109455208 L 170.2005481955231 301.53560192084785 L 172.56692553677482 280.3008500303583 L 174.93330287802652 303.2809239940388 L 177.29968021927823 248.40024102592412 L 179.66605756052996 303.1839616566393 L 182.03243490178167 304.7353590550312 L 184.39881224303338 206.6094736067414 L 186.7651895842851 205.73681257014596 L 189.13156692553682 331.49696417729206 L 191.49794426678852 244.03693584294683 L 193.86432160804023 270.7985409652077 L 196.23069894929193 342.2597836286361 L 198.59707629054367 323.15820316093544 L 200.96345363179537 322.091617449541 L 203.32983097304708 351.18031866938975 L 205.69620831429881 327.13365899431477 L 208.06258565555052 363.8823848687237 L 210.42896299680223 365.62770694191465 L 212.79534033805393 351.2772810067892 L 215.16171767930564 359.5190796857464 L 217.52809502055737 356.12539787676405 L 219.89447236180908 361.9431381207338 L 222.26084970306079 381.33560560063296 L 224.62722704431252 380.2690198892385 L 226.99360438556423 360.39174072234186 L 229.35998172681593 373.6755809460728 L 231.72635906806764 381.62649261283144 L 234.09273640931934 360.5856653971408 L 236.45911375057108 361.9431381207338 L 238.82549109182278 387.9290445437987 L 241.1918684330745 375.0330536696657 L 243.55824577432622 392.874123751173 L 245.92462311557793 397.1404665967508 L 248.29100045682964 400.0493367187357 L 250.65737779808134 407.51543669849684 L 253.02375513933305 408.96987175948925 L 255.39013248058478 390.5470276535851 L 257.7565098218365 382.5961159868264 L 260.1228871630882 407.8063237106953 L 262.4892645043399 72.70448565803764 L 264.8556418455916 51.954545454545496 L 267.22201918684334 382.6930783242259 L 269.5883965280951 388.02600688119816 L 271.95477386934675 414.787612003459 L 274.3211512105985 416.33900940185094 L 276.68752855185016 429.4289249507829 L 279.0539058931019 434.7618535077552 L 281.42028323435363 417.6964821254439 L 283.7866605756053 447.9487313940866 L 286.15303791685704 452.3120365770639 L 288.5194152581088 446.30037165829515 L 290.88579259936046 453.0877352762599 L 293.2521699406122 451.53633787786794 L 295.6185472818639 445.7185976338982 L 297.9849246231156 450.0819028168755 L 300.35130196436734 458.4206638332322 L 302.717679305619 452.9907729388604 L 305.08405664687075 475.48603521554344 L 307.4504339881225 461.23257161781754 L 309.81681132937416 427.19879119059453 L 312.1831886706259 404.89745358871045 L 314.5495660118776 456.19053007304376 L 316.9159433531293 421.96282497102175 L 319.28232069438104 468.9895586097772 L 321.6486980356327 449.79101580467704 L 324.01507537688445 455.6087560486468 L 326.3814527181362 462.3961196666115 L 328.74783005938787 449.984940479476 L 331.1142074006396 451.43937554046846 L 333.48058474189133 462.299157329212 L 335.846962083143 473.9346378171515 L 338.21333942439475 463.9475170650034 L 340.5797167656464 466.2746131625913 L 342.94609410689816 481.20681312211366 L 345.3124714481499 470.25006899597065 L 347.67884878940157 461.71738330481503 L 350.0452261306533 469.4743702967747 L 352.411603471905 477.9100936505308 L 354.7779808131567 473.5467884675535 L 357.14435815440845 477.9100936505308 L 359.51073549566013 484.01872090669906 L 361.87711283691186 480.7220014351162 L 364.2434901781636 491.77570789865877 L 366.6098675194153 492.84229361005316 L 368.976244860667 480.23718974811874 L 371.34262220191874 473.5467884675535 L 373.7089995431704 499.0478832036209 L 376.07537688442216 492.2605195856562 L 378.4417542256739 493.4240676344502 L 380.80813156692557 487.60632739048043 L 383.17450890817724 482.4673235083071 L 385.540886249429 494.3936910084451 L 387.9072635906807 507.58056889477655 L 390.2736409319324 487.31544037828195 L 392.6400182731841 498.56307151662344 L 395.00639561443586 486.63670401648545 L 397.37277295568754 493.6179923092492 L 399.7391502969393 494.2967286710456 L 402.105527638191 497.3995234678295 L 404.4719049794427 500.7932052768119 L 406.8382823206944 496.62382476863354 L 409.20465966194615 489.54557413847033 L 411.57103700319783 505.7382844841861 L 413.93741434444956 503.99296241099523 L 416.3037916857013 491.9696325734577 L 418.670169026953 504.6716987727917 L 421.03654636820465 496.33293775643506 L 423.4029237094564 494.8785026954426 L 425.7693010507081 503.6051130613972 L 428.1356783919598 508.5501922687715 L 430.50205573321153 506.0291714963846 L 432.86843307446327 502.2476403378043 L 435.23481041571495 497.01167411823155 L 437.6011877569667 516.1132545859322 L 439.9675650982184 507.58056889477655 L 442.3339424394701 513.4952714761458 L 444.7003197807218 503.02333903700026 L 447.06669712197356 508.25930525657304 L 449.43307446322524 497.3995234678295 L 451.799451804477 506.5139831833821 L 454.1658291457287 513.4952714761458 L 456.5322064869804 494.19976633364615 L 458.89858382823206 508.5501922687715 L 461.2649611694838 503.6051130613972 L 463.63133851073553 510.87728836635944 L 465.9977158519872 507.96841824437456 L 468.36409319323894 512.8165351143493 L 470.7304705344907 500.0175065776159 L 473.09684787574236 500.21143125241485 L 475.4632252169941 508.93804161836954 L 477.8296025582458 516.4041415981306 L 480.1959798994975 518.5373130209196 L 482.56235724074924 496.8177494434325 L 484.92873458200097 512.7195727769498 L 487.29511192325265 500.40535592721386 L 489.6614892645044 515.8223675737337 L 492.0278666057561 514.9497065371382 L 494.3942439470078 513.1074221265478 L 496.7606212882595 524.8398649518869 L 499.1269986295112 527.1669610494747 L 501.49337597076294 503.1203013743998 L 503.8597533120146 511.84691174035436 L 506.22613065326635 503.31422604919874 L 508.5925079945181 499.8235819028169 L 510.95888533576976 505.7382844841861 L 513.3252626770216 502.8294143622013 L 515.6916400182732 486.2488546668875 L 518.0580173595249 501.08409228901036 L 520.4243947007767 524.2580909274899 L 522.7907720420284 507.0957572077791 L 525.1571493832801 523.4823922282939 L 527.5235267245318 513.2043844639473 L 529.8899040657835 521.2522584681055 L 532.2562814070352 510.10158966716347 L 534.6226587482869 504.6716987727917 L 536.9890360895386 531.0454545454545 L 539.3554134307903 522.6097311916984 L 541.721790772042 521.9309948299019 L 544.0881681132937 518.1494636713217 L 546.4545454545455 516.7919909477287" stroke-linejoin="bevel" stroke-miterlimit="10" stroke-width="2"/></g></g></g><g><g fill="#444444"><path fill="" stroke="none" d=""/><g transform="translate(52,23)"><path fill="none" stroke="none"/><text fill="" stroke="none" font-family="helvetica" font-size="10pt" font-style="normal" font-weight="bold" text-decoration="normal" x="0" y="0" text-anchor="start" dominant-baseline="text-after-edge">combined-sum-metagene_counts-STOP_combined_summed_scaled</text></g></g></g><g/><g><g fill="#444444"><path fill="none" stroke="black" paint-order="fill stroke markers" d=" M 52 555 L 570 555" stroke-linejoin="bevel" stroke-miterlimit="10"/><path fill="none" stroke="black" paint-order="fill stroke markers" d=" M 68 561 L 68 553" stroke-linejoin="bevel" stroke-miterlimit="10"/><path fill="none" stroke="black" paint-order="fill stroke markers" d=" M 187 561 L 187 553" stroke-linejoin="bevel" stroke-miterlimit="10"/><path fill="none" stroke="black" paint-order="fill stroke markers" d=" M 305 561 L 305 553" stroke-linejoin="bevel" stroke-miterlimit="10"/><path fill="none" stroke="black" paint-order="fill stroke markers" d=" M 423 561 L 423 553" stroke-linejoin="bevel" stroke-miterlimit="10"/><path fill="none" stroke="black" paint-order="fill stroke markers" d=" M 542 561 L 542 553" stroke-linejoin="bevel" stroke-miterlimit="10"/><path fill="none" stroke="black" paint-order="fill stroke markers" d=" M 68 559 L 68 555" stroke-linejoin="bevel" stroke-miterlimit="10"/><path fill="none" stroke="black" paint-order="fill stroke markers" d=" M 92 559 L 92 555" stroke-linejoin="bevel" stroke-miterlimit="10"/><path fill="none" stroke="black" paint-order="fill stroke markers" d=" M 116 559 L 116 555" stroke-linejoin="bevel" stroke-miterlimit="10"/><path fill="none" stroke="black" paint-order="fill stroke markers" d=" M 139 559 L 139 555" stroke-linejoin="bevel" stroke-miterlimit="10"/><path fill="none" stroke="black" paint-order="fill stroke markers" d=" M 163 559 L 163 555" stroke-linejoin="bevel" stroke-miterlimit="10"/><path fill="none" stroke="black" paint-order="fill stroke markers" d=" M 187 559 L 187 555" stroke-linejoin="bevel" stroke-miterlimit="10"/><path fill="none" stroke="black" paint-order="fill stroke markers" d=" M 210 559 L 210 555" stroke-linejoin="bevel" stroke-miterlimit="10"/><path fill="none" stroke="black" paint-order="fill stroke markers" d=" M 234 559 L 234 555" stroke-linejoin="bevel" stroke-miterlimit="10"/><path fill="none" stroke="black" paint-order="fill stroke markers" d=" M 258 559 L 258 555" stroke-linejoin="bevel" stroke-miterlimit="10"/><path fill="none" stroke="black" paint-order="fill stroke markers" d=" M 281 559 L 281 555" stroke-linejoin="bevel" stroke-miterlimit="10"/><path fill="none" stroke="black" paint-order="fill stroke markers" d=" M 305 559 L 305 555" stroke-linejoin="bevel" stroke-miterlimit="10"/><path fill="none" stroke="black" paint-order="fill stroke markers" d=" M 329 559 L 329 555" stroke-linejoin="bevel" stroke-miterlimit="10"/><path fill="none" stroke="black" paint-order="fill stroke markers" d=" M 352 559 L 352 555" stroke-linejoin="bevel" stroke-miterlimit="10"/><path fill="none" stroke="black" paint-order="fill stroke markers" d=" M 376 559 L 376 555" stroke-linejoin="bevel" stroke-miterlimit="10"/><path fill="none" stroke="black" paint-order="fill stroke markers" d=" M 400 559 L 400 555" stroke-linejoin="bevel" stroke-miterlimit="10"/><path fill="none" stroke="black" paint-order="fill stroke markers" d=" M 423 559 L 423 555" stroke-linejoin="bevel" stroke-miterlimit="10"/><path fill="none" stroke="black" paint-order="fill stroke markers" d=" M 447 559 L 447 555" stroke-linejoin="bevel" stroke-miterlimit="10"/><path fill="none" stroke="black" paint-order="fill stroke markers" d=" M 471 559 L 471 555" stroke-linejoin="bevel" stroke-miterlimit="10"/><path fill="none" stroke="black" paint-order="fill stroke markers" d=" M 494 559 L 494 555" stroke-linejoin="bevel" stroke-miterlimit="10"/><path fill="none" stroke="black" paint-order="fill stroke markers" d=" M 518 559 L 518 555" stroke-linejoin="bevel" stroke-miterlimit="10"/><path fill="none" stroke="black" paint-order="fill stroke markers" d=" M 542 559 L 542 555" stroke-linejoin="bevel" stroke-miterlimit="10"/><path fill="" stroke="black" paint-order="fill stroke markers" d=" M 565 559 L 565 555" stroke-linejoin="bevel" stroke-miterlimit="10"/><g transform="translate(68,566) rotate(0,0,0)"><text fill="" stroke="none" font-family="helvetica" font-size="8pt" font-style="normal" font-weight="normal" text-decoration="normal" x="0" y="0" text-anchor="middle" dominant-baseline="hanging">-100</text><g transform="rotate(0,0,0) translate(-68,-566) translate(187,566) rotate(0,0,0)"><text fill="" stroke="none" font-family="helvetica" font-size="8pt" font-style="normal" font-weight="normal" text-decoration="normal" x="0" y="0" text-anchor="middle" dominant-baseline="hanging">-50</text><g transform="rotate(0,0,0) translate(-187,-566) translate(305,566) rotate(0,0,0)"><text fill="" stroke="none" font-family="helvetica" font-size="8pt" font-style="normal" font-weight="normal" text-decoration="normal" x="0" y="0" text-anchor="middle" dominant-baseline="hanging">0</text><g transform="rotate(0,0,0) translate(-305,-566) translate(423,566) rotate(0,0,0)"><text fill="" stroke="none" font-family="helvetica" font-size="8pt" font-style="normal" font-weight="normal" text-decoration="normal" x="0" y="0" text-anchor="middle" dominant-baseline="hanging">50</text><g transform="rotate(0,0,0) translate(-423,-566) translate(542,566) rotate(0,0,0)"><text fill="" stroke="none" font-family="helvetica" font-size="8pt" font-style="normal" font-weight="normal" text-decoration="normal" x="0" y="0" text-anchor="middle" dominant-baseline="hanging">100</text><g transform="rotate(0,0,0) translate(-542,-566) translate(311,584) rotate(0,0,0)"><text fill="" stroke="none" font-family="helvetica" font-size="10pt" font-style="italic" font-weight="normal" text-decoration="normal" x="0" y="0" text-anchor="middle" dominant-baseline="hanging">position from STOP</text><g transform="rotate(0,0,0) translate(-311,-584)"/></g></g></g></g></g></g></g></g><g><g fill="#444444"><path fill="none" stroke="black" paint-order="fill stroke markers" d=" M 52 555 L 52 28" stroke-linejoin="bevel" stroke-miterlimit="10"/><path fill="none" stroke="black" paint-order="fill stroke markers" d=" M 46 457 L 54 457" stroke-linejoin="bevel" stroke-miterlimit="10"/><path fill="none" stroke="black" paint-order="fill stroke markers" d=" M 46 337 L 54 337" stroke-linejoin="bevel" stroke-miterlimit="10"/><path fill="none" stroke="black" paint-order="fill stroke markers" d=" M 46 217 L 54 217" stroke-linejoin="bevel" stroke-miterlimit="10"/><path fill="none" stroke="black" paint-order="fill stroke markers" d=" M 46 97 L 54 97" stroke-linejoin="bevel" stroke-miterlimit="10"/><path fill="none" stroke="black" paint-order="fill stroke markers" d=" M 48 481 L 52 481" stroke-linejoin="bevel" stroke-miterlimit="10"/><path fill="none" stroke="black" paint-order="fill stroke markers" d=" M 48 505 L 52 505" stroke-linejoin="bevel" stroke-miterlimit="10"/><path fill="none" stroke="black" paint-order="fill stroke markers" d=" M 48 529 L 52 529" stroke-linejoin="bevel" stroke-miterlimit="10"/><path fill="none" stroke="black" paint-order="fill stroke markers" d=" M 48 553 L 52 553" stroke-linejoin="bevel" stroke-miterlimit="10"/><path fill="none" stroke="black" paint-order="fill stroke markers" d=" M 48 457 L 52 457" stroke-linejoin="bevel" stroke-miterlimit="10"/><path fill="none" stroke="black" paint-order="fill stroke markers" d=" M 48 433 L 52 433" stroke-linejoin="bevel" stroke-miterlimit="10"/><path fill="none" stroke="black" paint-order="fill stroke markers" d=" M 48 409 L 52 409" stroke-linejoin="bevel" stroke-miterlimit="10"/><path fill="none" stroke="black" paint-order="fill stroke markers" d=" M 48 385 L 52 385" stroke-linejoin="bevel" stroke-miterlimit="10"/><path fill="none" stroke="black" paint-order="fill stroke markers" d=" M 48 361 L 52 361" stroke-linejoin="bevel" stroke-miterlimit="10"/><path fill="none" stroke="black" paint-order="fill stroke markers" d=" M 48 337 L 52 337" stroke-linejoin="bevel" stroke-miterlimit="10"/><path fill="none" stroke="black" paint-order="fill stroke markers" d=" M 48 313 L 52 313" stroke-linejoin="bevel" stroke-miterlimit="10"/><path fill="none" stroke="black" paint-order="fill stroke markers" d=" M 48 289 L 52 289" stroke-linejoin="bevel" stroke-miterlimit="10"/><path fill="none" stroke="black" paint-order="fill stroke markers" d=" M 48 265 L 52 265" stroke-linejoin="bevel" stroke-miterlimit="10"/><path fill="none" stroke="black" paint-order="fill stroke markers" d=" M 48 241 L 52 241" stroke-linejoin="bevel" stroke-miterlimit="10"/><path fill="none" stroke="black" paint-order="fill stroke markers" d=" M 48 217 L 52 217" stroke-linejoin="bevel" stroke-miterlimit="10"/><path fill="none" stroke="black" paint-order="fill stroke markers" d=" M 48 193 L 52 193" stroke-linejoin="bevel" stroke-miterlimit="10"/><path fill="none" stroke="black" paint-order="fill stroke markers" d=" M 48 169 L 52 169" stroke-linejoin="bevel" stroke-miterlimit="10"/><path fill="none" stroke="black" paint-order="fill stroke markers" d=" M 48 145 L 52 145" stroke-linejoin="bevel" stroke-miterlimit="10"/><path fill="none" stroke="black" paint-order="fill stroke markers" d=" M 48 121 L 52 121" stroke-linejoin="bevel" stroke-miterlimit="10"/><path fill="none" stroke="black" paint-order="fill stroke markers" d=" M 48 97 L 52 97" stroke-linejoin="bevel" stroke-miterlimit="10"/><path fill="none" stroke="black" paint-order="fill stroke markers" d=" M 48 73 L 52 73" stroke-linejoin="bevel" stroke-miterlimit="10"/><path fill="" stroke="black" paint-order="fill stroke markers" d=" M 48 49 L 52 49" stroke-linejoin="bevel" stroke-miterlimit="10"/><g transform="translate(41,457) rotate(0,0,0)"><text fill="" stroke="none" font-family="helvetica" font-size="8pt" font-style="normal" font-weight="normal" text-decoration="normal" x="0" y="0" text-anchor="end" dominant-baseline="central">200</text><g transform="rotate(0,0,0) translate(-41,-457) translate(41,337) rotate(0,0,0)"><text fill="" stroke="none" font-family="helvetica" font-size="8pt" font-style="normal" font-weight="normal" text-decoration="normal" x="0" y="0" text-anchor="end" dominant-baseline="central">400</text><g transform="rotate(0,0,0) translate(-41,-337) translate(41,217) rotate(0,0,0)"><text fill="" stroke="none" font-family="helvetica" font-size="8pt" font-style="normal" font-weight="normal" text-decoration="normal" x="0" y="0" text-anchor="end" dominant-baseline="central">600</text><g transform="rotate(0,0,0) translate(-41,-217) translate(41,97) rotate(0,0,0)"><text fill="" stroke="none" font-family="helvetica" font-size="8pt" font-style="normal" font-weight="normal" text-decoration="normal" x="0" y="0" text-anchor="end" dominant-baseline="central">800</text><g transform="rotate(0,0,0) translate(-41,-97) translate(16,292) rotate(-90,0,0)"><text fill="" stroke="none" font-family="helvetica" font-size="10pt" font-style="italic" font-weight="normal" text-decoration="normal" x="0" y="0" text-anchor="middle" dominant-baseline="alphabetic">5'seq RPM</text><g transform="rotate(90,0,0) translate(-16,-292)"/></g></g></g></g></g></g></g><g clip-path="url(#utlOIKZSgkgb)"><g/></g></g></g></svg>