<svg version="1.1" xmlns="http://www.w3.org/2000/svg" xmlns:xlink="http://www.w3.org/1999/xlink" width="600" height="600" style="width: 600px; height: 600px;"><defs><clipPath id="IOhdyHIqWHof"><path fill="none" stroke="none" d=" M 58 28 L 570 28 L 570 555 L 58 555 L 58 28 Z"/></clipPath><clipPath id="QBhaTgAuihok"><path fill="none" stroke="none" d=" M 58 28 L 570 28 L 570 555 L 58 555 L 58 28 Z"/></clipPath><clipPath id="sVXezhvQNuAJ"><path fill="none" stroke="none" d=" M 58 28 L 570 28 L 570 555 L 58 555 L 58 28 Z"/></clipPath><clipPath id="KGTSxuVZvHPX"><path fill="none" stroke="none" d=" M 58 28 L 570 28 L 570 555 L 58 555 L 58 28 Z"/></clipPath></defs><g><g transform="scale(1,1) translate(0.5,0.5)"><rect fill="#FFFFFF" stroke="none" x="0" y="0" width="600" height="600"/><rect fill="#ffffff" stroke="none" x="0" y="0" width="600" height="600"/><rect fill="#FFFFFF" stroke="none" x="58" y="28" width="512" height="527"/><rect fill="#ffffff" stroke="none" x="58" y="28" width="512" height="527"/><g><rect fill="none" stroke="#e5e5e5" x="58" y="28" width="512" height="527" stroke-linejoin="bevel" stroke-miterlimit="10"/></g><g clip-path="url(#IOhdyHIqWHof)"><g><g><path fill="none" stroke="#e5e5e5" paint-order="fill stroke markers" d=" M 81 555 L 81 28" stroke-linejoin="bevel" stroke-miterlimit="10"/><path fill="none" stroke="#e5e5e5" paint-order="fill stroke markers" d=" M 198 555 L 198 28" stroke-linejoin="bevel" stroke-miterlimit="10"/><path fill="none" stroke="#e5e5e5" paint-order="fill stroke markers" d=" M 315 555 L 315 28" stroke-linejoin="bevel" stroke-miterlimit="10"/><path fill="none" stroke="#e5e5e5" paint-order="fill stroke markers" d=" M 432 555 L 432 28" stroke-linejoin="bevel" stroke-miterlimit="10"/><path fill="none" stroke="#e5e5e5" paint-order="fill stroke markers" d=" M 549 555 L 549 28" stroke-linejoin="bevel" stroke-miterlimit="10"/></g></g></g><g clip-path="url(#QBhaTgAuihok)"><g><g><path fill="none" stroke="#e5e5e5" paint-order="fill stroke markers" d=" M 58 517 L 570 517" stroke-linejoin="bevel" stroke-miterlimit="10"/><path fill="none" stroke="#e5e5e5" paint-order="fill stroke markers" d=" M 58 450 L 570 450" stroke-linejoin="bevel" stroke-miterlimit="10"/><path fill="none" stroke="#e5e5e5" paint-order="fill stroke markers" d=" M 58 383 L 570 383" stroke-linejoin="bevel" stroke-miterlimit="10"/><path fill="none" stroke="#e5e5e5" paint-order="fill stroke markers" d=" M 58 317 L 570 317" stroke-linejoin="bevel" stroke-miterlimit="10"/><path fill="none" stroke="#e5e5e5" paint-order="fill stroke markers" d=" M 58 250 L 570 250" stroke-linejoin="bevel" stroke-miterlimit="10"/><path fill="none" stroke="#e5e5e5" paint-order="fill stroke markers" d=" M 58 183 L 570 183" stroke-linejoin="bevel" stroke-miterlimit="10"/><path fill="none" stroke="#e5e5e5" paint-order="fill stroke markers" d=" M 58 117 L 570 117" stroke-linejoin="bevel" stroke-miterlimit="10"/><path fill="none" stroke="#e5e5e5" paint-order="fill stroke markers" d=" M 58 50 L 570 50" stroke-linejoin="bevel" stroke-miterlimit="10"/></g></g></g><g clip-path="url(#sVXezhvQNuAJ)"><g><g><path fill="none" stroke="none"/><path fill="none" stroke="rgb(216,179,101)" paint-order="fill stroke markers" d=" M 81.27272727272728 531.0454545454545 L 83.6116948378255 516.2486310882639 L 85.95066240292371 521.7425403785227 L 88.28962996802193 504.6248915090033 L 90.62859753312014 511.7660749407107 L 92.96756509821836 514.3808956692609 L 95.30653266331657 506.9363134172877 L 97.64550022841479 500.9518593570324 L 99.984467793513 505.3969742544179 L 102.32343535861122 503.14546264252834 L 104.66240292370946 508.2175378950284 L 107.00137048880768 489.0167869470521 L 109.3403380539059 499.6211709338222 L 111.67930561900411 495.85675436906547 L 114.01827318410233 480.51107187647176 L 116.35724074920054 493.47246256471044 L 118.69620831429876 487.5616129890658 L 121.03517587939697 483.6875142462014 L 123.37414344449519 472.51915865914475 L 125.7131110095934 468.74933703713447 L 128.05207857469162 443.766576192511 L 130.39104613978986 501.39501091320517 L 132.73001370488808 483.5231769849696 L 135.0689812699863 476.46717042987893 L 137.4079488350845 489.79557764067494 L 139.74691640018273 471.3742301712101 L 142.08588396528094 489.28777260282914 L 144.42485153037916 467.6669978020775 L 146.76381909547737 474.6158909789663 L 149.1027866605756 460.3656448595343 L 151.4417542256738 483.2270220000438 L 153.78072179077205 467.25646658733734 L 156.11968935587026 461.8826461310982 L 158.45865692096848 473.19240002142845 L 160.7976244860667 446.2382279069168 L 163.1365920511649 453.47940785167026 L 165.47555961626313 461.33051109255206 L 167.81452718136134 473.3239197891123 L 170.15349474645956 419.7149839712672 L 172.49246231155777 430.08894987273277 L 174.831429876656 416.613679640505 L 177.1703974417542 417.6034675041499 L 179.50936500685245 406.7198424664466 L 181.84833257195066 405.63026219939627 L 184.18730013704888 388.5269714047462 L 186.5262677021471 398.2908775549545 L 188.8652352672453 388.4660582149619 L 191.20420283234353 379.9896839769725 L 193.54317039744174 345.404133637492 L 195.88213796253996 366.12988710113075 L 198.2211055276382 375.1843463866693 L 200.5600730927364 366.6365037534757 L 202.89904065783463 360.34202733912 L 205.23800822293282 356.89676001716833 L 207.57697578803106 344.39607705433275 L 209.91594335312928 313.46169600608965 L 212.2549109182275 327.44506314822945 L 214.5938784833257 308.1633482132004 L 216.93284604842393 331.8928066169566 L 219.27181361352214 337.5262588223287 L 221.61078117862036 332.13029022586386 L 223.9497487437186 315.5143890449385 L 226.2887163088168 276.30832962897733 L 228.62768387391503 297.34775677301815 L 230.96665143901322 318.85250262657274 L 233.30561900411146 296.46969273745293 L 235.64458656920968 288.5804706801932 L 237.9835541343079 250.86573676817898 L 240.3225216994061 293.89485506137356 L 242.66148926450433 252.35446838069447 L 245.00045682960254 220.09450175550916 L 247.33942439470076 240.90688789601916 L 249.678391959799 215.4642945790115 L 252.0173595248972 235.37871282738922 L 254.35632708999543 255.44854557271077 L 256.6952946550936 249.4004842061172 L 259.03426222019186 247.07219715914027 L 261.37322978529005 198.83753960661005 L 263.7121973503883 184.76579799315306 L 266.05116491548654 196.7421371013997 L 268.3901324805847 233.16170903037755 L 270.72910004568297 203.0410944090376 L 273.06806761078116 207.52945202501888 L 275.4070351758794 213.08338034167576 L 277.7460027409776 162.6905620956988 L 280.08497030607583 259.7882596436747 L 282.423937871174 218.55663254437792 L 284.76290543627226 228.29731571867364 L 287.10187300137045 211.0531650558451 L 289.4408405664687 225.0150194394251 L 291.77980813156694 215.02496067423073 L 294.1187756966651 188.66789146350737 L 296.45774326176337 220.92337273317412 L 298.79671082686156 175.53626289068768 L 301.1356783919598 259.7057071942003 L 303.474645957058 280.8857758295296 L 305.81361352215623 218.26866564544366 L 308.1525810872544 284.73149773893033 L 310.49154865235266 343.92566812730126 L 312.83051621745085 272.4602645438071 L 315.1694837825491 51.95454545454538 L 317.50845134764734 344.2476993749236 L 319.8474189127455 356.7013711881468 L 322.18638647784377 410.19991921485683 L 324.52535404294196 109.30034394425223 L 326.8643216080402 428.06925260885185 L 329.2032891731384 401.2607413856455 L 331.54225673823663 368.55783488121983 L 333.8812243033348 382.71433491430855 L 336.22019186843306 358.4593237626568 L 338.55915943353125 384.47952669860626 L 340.8981269986295 376.2316637675245 L 343.23709456372774 383.65923622688155 L 345.5760621288259 368.8745478021791 L 347.91502969392417 367.4031405549001 L 350.25399725902236 373.1547536939217 L 352.5929648241206 372.1993749052605 L 354.9319323892188 374.6535772378711 L 357.27089995431703 374.1699061171999 L 359.6098675194152 380.06656865108016 L 361.94883508451346 384.0933003350316 L 364.28780264961165 375.5640013808483 L 366.6267702147099 349.2178264026977 L 368.96573777980814 383.1007149805851 L 371.3047053449063 363.87130510126667 L 373.64367291000457 379.30690636687234 L 375.98264047510276 377.98797304342963 L 378.321608040201 385.2645705705741 L 380.6605756052992 340.6388690764468 L 382.99954317039743 370.87384800225374 L 385.3385107354957 381.4394535781462 L 387.67747830059386 266.6609821185304 L 390.01644586569205 359.36814051792953 L 392.3554134307903 371.5656234446732 L 394.69438099588854 372.3129806092768 L 397.0333485609867 391.5216815656726 L 399.37231612608497 374.33211625726585 L 401.71128369118316 382.24768729093404 L 404.0502512562814 375.47261551681237 L 406.3892188213796 404.35318516454805 L 408.72818638647783 359.5810437554917 L 411.0671539515761 407.71979231095156 L 413.40612151667426 389.6623566277175 L 415.74508908177245 358.0949145779801 L 418.0840566468707 355.6140324031882 L 420.42302421196894 377.11522658735834 L 422.7619917770671 344.74905224482205 L 425.10095934216537 382.35737716580985 L 427.43992690726355 387.0433217572674 L 429.7788944723618 352.1619441821096 L 432.11786203746 369.8852266387265 L 434.45682960255823 341.9135982631359 L 436.7957971676565 351.6107861751418 L 439.13476473275466 289.3451284933529 L 441.47373229785285 375.1989602510272 L 443.8126998629511 331.2930626411932 L 446.15166742804934 381.72388161226854 L 448.4906349931475 369.22355484318996 L 450.8296025582457 333.13260191667655 L 453.168570123344 337.365161925361 L 455.5075376884422 362.21720299701786 L 457.8465052535404 366.1700925705745 L 460.18547281863863 371.494760451145 L 462.5244403837369 366.36842567225835 L 464.86340794883506 354.0033860572748 L 467.20237551393325 400.75647791026796 L 469.5413430790315 367.6080777793294 L 471.88031064412974 371.41804705840525 L 474.2192782092279 389.9699069138537 L 476.5582457743261 374.3295629265989 L 478.8972133394244 333.20644831078243 L 481.2361809045226 385.36420645869555 L 483.5751484696208 369.42915010723414 L 485.91411603471903 319.5678304043897 L 488.2530835998173 356.7773379637904 L 490.59205116491546 370.86519486117345 L 492.93101873001365 354.17056946420394 L 495.2699862951119 345.5229334218008 L 497.60895386021014 383.28404893491955 L 499.9479214253083 348.95148534967484 L 502.28688899040657 347.6234688930573 L 504.6258565555048 369.3068536019372 L 506.964824120603 362.57612751788207 L 509.3037916857012 367.2858835930089 L 511.64275925079943 352.9570233229724 L 513.9817268158977 357.8922506016731 L 516.3206943809959 364.413531287946 L 518.659661946094 370.60910608128887 L 520.9986295111923 336.66590441069457 L 523.3375970762905 359.53788902389715 L 525.6765646413887 347.4522020728916 L 528.015532206487 355.202047167597 L 530.3544997715852 372.24103090493014 L 532.6934673366834 361.71502652108313 L 535.0324349017816 339.35259512924125 L 537.3714024668798 385.43612942363995 L 539.7103700319781 361.68035869149844 L 542.0493375970763 322.10662295349806 L 544.3883051621744 356.3415002562411 L 546.7272727272727 362.50051119413666" stroke-linejoin="bevel" stroke-miterlimit="10" stroke-width="2"/></g></g></g><g><g fill="#444444"><path fill="" stroke="none" d=""/><g transform="translate(58,23)"><path fill="none" stroke="none"/><text fill="" stroke="none" font-family="helvetica" font-size="10pt" font-style="normal" font-weight="bold" text-decoration="normal" x="0" y="0" text-anchor="start" dominant-baseline="text-after-edge">combined-weighted-metagene_counts-START_combined_weighted_scaled</text></g></g></g><g/><g><g fill="#444444"><path fill="none" stroke="black" paint-order="fill stroke markers" d=" M 58 555 L 570 555" stroke-linejoin="bevel" stroke-miterlimit="10"/><path fill="none" stroke="black" paint-order="fill stroke markers" d=" M 81 561 L 81 553" stroke-linejoin="bevel" stroke-miterlimit="10"/><path fill="none" stroke="black" paint-order="fill stroke markers" d=" M 198 561 L 198 553" stroke-linejoin="bevel" stroke-miterlimit="10"/><path fill="none" stroke="black" paint-order="fill stroke markers" d=" M 315 561 L 315 553" stroke-linejoin="bevel" stroke-miterlimit="10"/><path fill="none" stroke="black" paint-order="fill stroke markers" d=" M 432 561 L 432 553" stroke-linejoin="bevel" stroke-miterlimit="10"/><path fill="none" stroke="black" paint-order="fill stroke markers" d=" M 549 561 L 549 553" stroke-linejoin="bevel" stroke-miterlimit="10"/><path fill="none" stroke="black" paint-order="fill stroke markers" d=" M 81 559 L 81 555" stroke-linejoin="bevel" stroke-miterlimit="10"/><path fill="none" stroke="black" paint-order="fill stroke markers" d=" M 105 559 L 105 555" stroke-linejoin="bevel" stroke-miterlimit="10"/><path fill="none" stroke="black" paint-order="fill stroke markers" d=" M 128 559 L 128 555" stroke-linejoin="bevel" stroke-miterlimit="10"/><path fill="none" stroke="black" paint-order="fill stroke markers" d=" M 151 559 L 151 555" stroke-linejoin="bevel" stroke-miterlimit="10"/><path fill="none" stroke="black" paint-order="fill stroke markers" d=" M 175 559 L 175 555" stroke-linejoin="bevel" stroke-miterlimit="10"/><path fill="none" stroke="black" paint-order="fill stroke markers" d=" M 198 559 L 198 555" stroke-linejoin="bevel" stroke-miterlimit="10"/><path fill="none" stroke="black" paint-order="fill stroke markers" d=" M 222 559 L 222 555" stroke-linejoin="bevel" stroke-miterlimit="10"/><path fill="none" stroke="black" paint-order="fill stroke markers" d=" M 245 559 L 245 555" stroke-linejoin="bevel" stroke-miterlimit="10"/><path fill="none" stroke="black" paint-order="fill stroke markers" d=" M 268 559 L 268 555" stroke-linejoin="bevel" stroke-miterlimit="10"/><path fill="none" stroke="black" paint-order="fill stroke markers" d=" M 292 559 L 292 555" stroke-linejoin="bevel" stroke-miterlimit="10"/><path fill="none" stroke="black" paint-order="fill stroke markers" d=" M 315 559 L 315 555" stroke-linejoin="bevel" stroke-miterlimit="10"/><path fill="none" stroke="black" paint-order="fill stroke markers" d=" M 339 559 L 339 555" stroke-linejoin="bevel" stroke-miterlimit="10"/><path fill="none" stroke="black" paint-order="fill stroke markers" d=" M 362 559 L 362 555" stroke-linejoin="bevel" stroke-miterlimit="10"/><path fill="none" stroke="black" paint-order="fill stroke markers" d=" M 385 559 L 385 555" stroke-linejoin="bevel" stroke-miterlimit="10"/><path fill="none" stroke="black" paint-order="fill stroke markers" d=" M 409 559 L 409 555" stroke-linejoin="bevel" stroke-miterlimit="10"/><path fill="none" stroke="black" paint-order="fill stroke markers" d=" M 432 559 L 432 555" stroke-linejoin="bevel" stroke-miterlimit="10"/><path fill="none" stroke="black" paint-order="fill stroke markers" d=" M 456 559 L 456 555" stroke-linejoin="bevel" stroke-miterlimit="10"/><path fill="none" stroke="black" paint-order="fill stroke markers" d=" M 479 559 L 479 555" stroke-linejoin="bevel" stroke-miterlimit="10"/><path fill="none" stroke="black" paint-order="fill stroke markers" d=" M 502 559 L 502 555" stroke-linejoin="bevel" stroke-miterlimit="10"/><path fill="none" stroke="black" paint-order="fill stroke markers" d=" M 526 559 L 526 555" stroke-linejoin="bevel" stroke-miterlimit="10"/><path fill="" stroke="black" paint-order="fill stroke markers" d=" M 549 559 L 549 555" stroke-linejoin="bevel" stroke-miterlimit="10"/><g transform="translate(81,566) rotate(0,0,0)"><text fill="" stroke="none" font-family="helvetica" font-size="8pt" font-style="normal" font-weight="normal" text-decoration="normal" x="0" y="0" text-anchor="middle" dominant-baseline="hanging">-100</text><g transform="rotate(0,0,0) translate(-81,-566) translate(198,566) rotate(0,0,0)"><text fill="" stroke="none" font-family="helvetica" font-size="8pt" font-style="normal" font-weight="normal" text-decoration="normal" x="0" y="0" text-anchor="middle" dominant-baseline="hanging">-50</text><g transform="rotate(0,0,0) translate(-198,-566) translate(315,566) rotate(0,0,0)"><text fill="" stroke="none" font-family="helvetica" font-size="8pt" font-style="normal" font-weight="normal" text-decoration="normal" x="0" y="0" text-anchor="middle" dominant-baseline="hanging">0</text><g transform="rotate(0,0,0) translate(-315,-566) translate(432,566) rotate(0,0,0)"><text fill="" stroke="none" font-family="helvetica" font-size="8pt" font-style="normal" font-weight="normal" text-decoration="normal" x="0" y="0" text-anchor="middle" dominant-baseline="hanging">50</text><g transform="rotate(0,0,0) translate(-432,-566) translate(549,566) rotate(0,0,0)"><text fill="" stroke="none" font-family="helvetica" font-size="8pt" font-style="normal" font-weight="normal" text-decoration="normal" x="0" y="0" text-anchor="middle" dominant-baseline="hanging">100</text><g transform="rotate(0,0,0) translate(-549,-566) translate(314,584) rotate(0,0,0)"><text fill="" stroke="none" font-family="helvetica" font-size="10pt" font-style="italic" font-weight="normal" text-decoration="normal" x="0" y="0" text-anchor="middle" dominant-baseline="hanging">position from START</text><g transform="rotate(0,0,0) translate(-314,-584)"/></g></g></g></g></g></g></g></g><g><g fill="#444444"><path fill="none" stroke="black" paint-order="fill stroke markers" d=" M 58 555 L 58 28" stroke-linejoin="bevel" stroke-miterlimit="10"/><path fill="none" stroke="black" paint-order="fill stroke markers" d=" M 52 517 L 60 517" stroke-linejoin="bevel" stroke-miterlimit="10"/><path fill="none" stroke="black" paint-order="fill stroke markers" d=" M 52 450 L 60 450" stroke-linejoin="bevel" stroke-miterlimit="10"/><path fill="none" stroke="black" paint-order="fill stroke markers" d=" M 52 383 L 60 383" stroke-linejoin="bevel" stroke-miterlimit="10"/><path fill="none" stroke="black" paint-order="fill stroke markers" d=" M 52 317 L 60 317" stroke-linejoin="bevel" stroke-miterlimit="10"/><path fill="none" stroke="black" paint-order="fill stroke markers" d=" M 52 250 L 60 250" stroke-linejoin="bevel" stroke-miterlimit="10"/><path fill="none" stroke="black" paint-order="fill stroke markers" d=" M 52 183 L 60 183" stroke-linejoin="bevel" stroke-miterlimit="10"/><path fill="none" stroke="black" paint-order="fill stroke markers" d=" M 52 117 L 60 117" stroke-linejoin="bevel" stroke-miterlimit="10"/><path fill="none" stroke="black" paint-order="fill stroke markers" d=" M 52 50 L 60 50" stroke-linejoin="bevel" stroke-miterlimit="10"/><path fill="none" stroke="black" paint-order="fill stroke markers" d=" M 54 530 L 58 530" stroke-linejoin="bevel" stroke-miterlimit="10"/><path fill="none" stroke="black" paint-order="fill stroke markers" d=" M 54 543 L 58 543" stroke-linejoin="bevel" stroke-miterlimit="10"/><path fill="none" stroke="black" paint-order="fill stroke markers" d=" M 54 517 L 58 517" stroke-linejoin="bevel" stroke-miterlimit="10"/><path fill="none" stroke="black" paint-order="fill stroke markers" d=" M 54 503 L 58 503" stroke-linejoin="bevel" stroke-miterlimit="10"/><path fill="none" stroke="black" paint-order="fill stroke markers" d=" M 54 490 L 58 490" stroke-linejoin="bevel" stroke-miterlimit="10"/><path fill="none" stroke="black" paint-order="fill stroke markers" d=" M 54 477 L 58 477" stroke-linejoin="bevel" stroke-miterlimit="10"/><path fill="none" stroke="black" paint-order="fill stroke markers" d=" M 54 463 L 58 463" stroke-linejoin="bevel" stroke-miterlimit="10"/><path fill="none" stroke="black" paint-order="fill stroke markers" d=" M 54 450 L 58 450" stroke-linejoin="bevel" stroke-miterlimit="10"/><path fill="none" stroke="black" paint-order="fill stroke markers" d=" M 54 437 L 58 437" stroke-linejoin="bevel" stroke-miterlimit="10"/><path fill="none" stroke="black" paint-order="fill stroke markers" d=" M 54 423 L 58 423" stroke-linejoin="bevel" stroke-miterlimit="10"/><path fill="none" stroke="black" paint-order="fill stroke markers" d=" M 54 410 L 58 410" stroke-linejoin="bevel" stroke-miterlimit="10"/><path fill="none" stroke="black" paint-order="fill stroke markers" d=" M 54 397 L 58 397" stroke-linejoin="bevel" stroke-miterlimit="10"/><path fill="none" stroke="black" paint-order="fill stroke markers" d=" M 54 383 L 58 383" stroke-linejoin="bevel" stroke-miterlimit="10"/><path fill="none" stroke="black" paint-order="fill stroke markers" d=" M 54 370 L 58 370" stroke-linejoin="bevel" stroke-miterlimit="10"/><path fill="none" stroke="black" paint-order="fill stroke markers" d=" M 54 357 L 58 357" stroke-linejoin="bevel" stroke-miterlimit="10"/><path fill="none" stroke="black" paint-order="fill stroke markers" d=" M 54 343 L 58 343" stroke-linejoin="bevel" stroke-miterlimit="10"/><path fill="none" stroke="black" paint-order="fill stroke markers" d=" M 54 330 L 58 330" stroke-linejoin="bevel" stroke-miterlimit="10"/><path fill="none" stroke="black" paint-order="fill stroke markers" d=" M 54 317 L 58 317" stroke-linejoin="bevel" stroke-miterlimit="10"/><path fill="none" stroke="black" paint-order="fill stroke markers" d=" M 54 303 L 58 303" stroke-linejoin="bevel" stroke-miterlimit="10"/><path fill="none" stroke="black" paint-order="fill stroke markers" d=" M 54 290 L 58 290" stroke-linejoin="bevel" stroke-miterlimit="10"/><path fill="none" stroke="black" paint-order="fill stroke markers" d=" M 54 277 L 58 277" stroke-linejoin="bevel" stroke-miterlimit="10"/><path fill="none" stroke="black" paint-order="fill stroke markers" d=" M 54 263 L 58 263" stroke-linejoin="bevel" stroke-miterlimit="10"/><path fill="none" stroke="black" paint-order="fill stroke markers" d=" M 54 250 L 58 250" stroke-linejoin="bevel" stroke-miterlimit="10"/><path fill="none" stroke="black" paint-order="fill stroke markers" d=" M 54 237 L 58 237" stroke-linejoin="bevel" stroke-miterlimit="10"/><path fill="none" stroke="black" paint-order="fill stroke markers" d=" M 54 223 L 58 223" stroke-linejoin="bevel" stroke-miterlimit="10"/><path fill="none" stroke="black" paint-order="fill stroke markers" d=" M 54 210 L 58 210" stroke-linejoin="bevel" stroke-miterlimit="10"/><path fill="none" stroke="black" paint-order="fill stroke markers" d=" M 54 197 L 58 197" stroke-linejoin="bevel" stroke-miterlimit="10"/><path fill="none" stroke="black" paint-order="fill stroke markers" d=" M 54 183 L 58 183" stroke-linejoin="bevel" stroke-miterlimit="10"/><path fill="none" stroke="black" paint-order="fill stroke markers" d=" M 54 170 L 58 170" stroke-linejoin="bevel" stroke-miterlimit="10"/><path fill="none" stroke="black" paint-order="fill stroke markers" d=" M 54 157 L 58 157" stroke-linejoin="bevel" stroke-miterlimit="10"/><path fill="none" stroke="black" paint-order="fill stroke markers" d=" M 54 143 L 58 143" stroke-linejoin="bevel" stroke-miterlimit="10"/><path fill="none" stroke="black" paint-order="fill stroke markers" d=" M 54 130 L 58 130" stroke-linejoin="bevel" stroke-miterlimit="10"/><path fill="none" stroke="black" paint-order="fill stroke markers" d=" M 54 117 L 58 117" stroke-linejoin="bevel" stroke-miterlimit="10"/><path fill="none" stroke="black" paint-order="fill stroke markers" d=" M 54 103 L 58 103" stroke-linejoin="bevel" stroke-miterlimit="10"/><path fill="none" stroke="black" paint-order="fill stroke markers" d=" M 54 90 L 58 90" stroke-linejoin="bevel" stroke-miterlimit="10"/><path fill="none" stroke="black" paint-order="fill stroke markers" d=" M 54 77 L 58 77" stroke-linejoin="bevel" stroke-miterlimit="10"/><path fill="none" stroke="black" paint-order="fill stroke markers" d=" M 54 63 L 58 63" stroke-linejoin="bevel" stroke-miterlimit="10"/><path fill="none" stroke="black" paint-order="fill stroke markers" d=" M 54 50 L 58 50" stroke-linejoin="bevel" stroke-miterlimit="10"/><path fill="" stroke="black" paint-order="fill stroke markers" d=" M 54 37 L 58 37" stroke-linejoin="bevel" stroke-miterlimit="10"/><g transform="translate(47,517) rotate(0,0,0)"><text fill="" stroke="none" font-family="helvetica" font-size="8pt" font-style="normal" font-weight="normal" text-decoration="normal" x="0" y="0" text-anchor="end" dominant-baseline="central">200</text><g transform="rotate(0,0,0) translate(-47,-517) translate(47,450) rotate(0,0,0)"><text fill="" stroke="none" font-family="helvetica" font-size="8pt" font-style="normal" font-weight="normal" text-decoration="normal" x="0" y="0" text-anchor="end" dominant-baseline="central">400</text><g transform="rotate(0,0,0) translate(-47,-450) translate(47,383) rotate(0,0,0)"><text fill="" stroke="none" font-family="helvetica" font-size="8pt" font-style="normal" font-weight="normal" text-decoration="normal" x="0" y="0" text-anchor="end" dominant-baseline="central">600</text><g transform="rotate(0,0,0) translate(-47,-383) translate(47,317) rotate(0,0,0)"><text fill="" stroke="none" font-family="helvetica" font-size="8pt" font-style="normal" font-weight="normal" text-decoration="normal" x="0" y="0" text-anchor="end" dominant-baseline="central">800</text><g transform="rotate(0,0,0) translate(-47,-317) translate(47,250) rotate(0,0,0)"><text fill="" stroke="none" font-family="helvetica" font-size="8pt" font-style="normal" font-weight="normal" text-decoration="normal" x="0" y="0" text-anchor="end" dominant-baseline="central">1000</text><g transform="rotate(0,0,0) translate(-47,-250) translate(47,183) rotate(0,0,0)"><text fill="" stroke="none" font-family="helvetica" font-size="8pt" font-style="normal" font-weight="normal" text-decoration="normal" x="0" y="0" text-anchor="end" dominant-baseline="central">1200</text><g transform="rotate(0,0,0) translate(-47,-183) translate(47,117) rotate(0,0,0)"><text fill="" stroke="none" font-family="helvetica" font-size="8pt" font-style="normal" font-weight="normal" text-decoration="normal" x="0" y="0" text-anchor="end" dominant-baseline="central">1400</text><g transform="rotate(0,0,0) translate(-47,-117) translate(47,50) rotate(0,0,0)"><text fill="" stroke="none" font-family="helvetica" font-size="8pt" font-style="normal" font-weight="normal" text-decoration="normal" x="0" y="0" text-anchor="end" dominant-baseline="central">1600</text><g transform="rotate(0,0,0) translate(-47,-50) translate(15,292) rotate(-90,0,0)"><text fill="" stroke="none" font-family="helvetica" font-size="10pt" font-style="italic" font-weight="normal" text-decoration="normal" x="0" y="0" text-anchor="middle" dominant-baseline="alphabetic">5'seq RPM</text><g transform="rotate(90,0,0) translate(-15,-292)"/></g></g></g></g></g></g></g></g></g></g></g><g clip-path="url(#KGTSxuVZvHPX)"><g/></g></g></g></svg>