<svg version="1.1" xmlns="http://www.w3.org/2000/svg" xmlns:xlink="http://www.w3.org/1999/xlink" width="600" height="600" style="width: 600px; height: 600px;"><defs><clipPath id="BGXNVFFXncGp"><path fill="none" stroke="none" d=" M 58 88 L 570 88 L 570 555 L 58 555 L 58 88 Z"/></clipPath><clipPath id="VhuZTOeFTlqL"><path fill="none" stroke="none" d=" M 58 88 L 570 88 L 570 555 L 58 555 L 58 88 Z"/></clipPath><clipPath id="bbwMgTXRkOsb"><path fill="none" stroke="none" d=" M 58 88 L 570 88 L 570 555 L 58 555 L 58 88 Z"/></clipPath><clipPath id="lppvSxiBdqHB"><path fill="none" stroke="none" d=" M 58 88 L 570 88 L 570 555 L 58 555 L 58 88 Z"/></clipPath></defs><g><g/><g/><g/><g transform="scale(1,1) translate(0.5,0.5)"><rect fill="#FFFFFF" stroke="none" x="0" y="0" width="600" height="600"/><rect fill="#ffffff" stroke="none" x="0" y="0" width="600" height="600"/><rect fill="#FFFFFF" stroke="none" x="58" y="88" width="512" height="467"/><rect fill="#ffffff" stroke="none" x="58" y="88" width="512" height="467"/><g><rect fill="none" stroke="#e5e5e5" x="58" y="88" width="512" height="467" stroke-linejoin="bevel" stroke-miterlimit="10"/></g><g clip-path="url(#BGXNVFFXncGp)"><g><g><path fill="none" stroke="#e5e5e5" paint-order="fill stroke markers" d=" M 81 555 L 81 88" stroke-linejoin="bevel" stroke-miterlimit="10"/><path fill="none" stroke="#e5e5e5" paint-order="fill stroke markers" d=" M 198 555 L 198 88" stroke-linejoin="bevel" stroke-miterlimit="10"/><path fill="none" stroke="#e5e5e5" paint-order="fill stroke markers" d=" M 315 555 L 315 88" stroke-linejoin="bevel" stroke-miterlimit="10"/><path fill="none" stroke="#e5e5e5" paint-order="fill stroke markers" d=" M 432 555 L 432 88" stroke-linejoin="bevel" stroke-miterlimit="10"/><path fill="none" stroke="#e5e5e5" paint-order="fill stroke markers" d=" M 549 555 L 549 88" stroke-linejoin="bevel" stroke-miterlimit="10"/></g></g></g><g clip-path="url(#VhuZTOeFTlqL)"><g><g><path fill="none" stroke="#e5e5e5" paint-order="fill stroke markers" d=" M 58 521 L 570 521" stroke-linejoin="bevel" stroke-miterlimit="10"/><path fill="none" stroke="#e5e5e5" paint-order="fill stroke markers" d=" M 58 462 L 570 462" stroke-linejoin="bevel" stroke-miterlimit="10"/><path fill="none" stroke="#e5e5e5" paint-order="fill stroke markers" d=" M 58 403 L 570 403" stroke-linejoin="bevel" stroke-miterlimit="10"/><path fill="none" stroke="#e5e5e5" paint-order="fill stroke markers" d=" M 58 344 L 570 344" stroke-linejoin="bevel" stroke-miterlimit="10"/><path fill="none" stroke="#e5e5e5" paint-order="fill stroke markers" d=" M 58 285 L 570 285" stroke-linejoin="bevel" stroke-miterlimit="10"/><path fill="none" stroke="#e5e5e5" paint-order="fill stroke markers" d=" M 58 226 L 570 226" stroke-linejoin="bevel" stroke-miterlimit="10"/><path fill="none" stroke="#e5e5e5" paint-order="fill stroke markers" d=" M 58 167 L 570 167" stroke-linejoin="bevel" stroke-miterlimit="10"/><path fill="none" stroke="#e5e5e5" paint-order="fill stroke markers" d=" M 58 108 L 570 108" stroke-linejoin="bevel" stroke-miterlimit="10"/></g></g></g><g clip-path="url(#bbwMgTXRkOsb)"><g><g><path fill="none" stroke="none"/><path fill="none" stroke="rgb(216,179,101)" paint-order="fill stroke markers" d=" M 81.27272727272728 533.7727272727273 L 83.6116948378255 520.6605516474748 L 85.95066240292371 525.5289684189186 L 88.28962996802193 510.3601979785665 L 90.62859753312014 516.6883434484097 L 92.96756509821836 519.0054616272198 L 95.30653266331657 512.4084598972929 L 97.64550022841479 507.105347855283 L 99.984467793513 511.0443775651104 L 102.32343535861122 509.0492050361684 L 104.66240292370946 513.5438144155186 L 107.00137048880768 496.52910721873496 L 109.3403380539059 505.926160960332 L 111.67930561900411 502.59033072173355 L 114.01827318410233 488.9917847558109 L 116.35724074920054 500.47749528979085 L 118.69620831429876 495.2396077151684 L 121.03517587939697 491.8065828329716 L 123.37414344449519 481.9097667814433 L 125.7131110095934 478.56914686212866 L 128.05207857469162 456.43072311556483 L 130.39104613978986 507.49804572384596 L 132.73001370488808 491.6609556963583 L 135.0689812699863 485.40828954602176 L 137.4079488350845 497.2192310402186 L 139.74691640018273 480.89519068302684 L 142.08588396528094 496.76924061768733 L 144.42485153037916 477.6100341054463 L 146.76381909547737 483.767781949103 L 149.1027866605756 471.1399547426993 L 151.4417542256738 491.3985185465284 L 153.78072179077205 477.2462426874508 L 156.11968935587026 472.4842423970074 L 158.45865692096848 482.5063582732583 L 160.7976244860667 458.62097235774223 L 163.1365920511649 465.0377295383871 L 165.47555961626313 471.99496903267897 L 167.81452718136134 482.62290425335004 L 170.15349474645956 435.1174525893392 L 172.49246231155777 444.310321803731 L 174.831429876656 432.3692379357037 L 177.1703974417542 433.2463364790095 L 179.50936500685245 423.60183383649064 L 181.84833257195066 422.63630445373445 L 184.18730013704888 407.48025739282065 L 186.5262677021471 416.13252337412473 L 188.8652352672453 407.4262792910573 L 191.20420283234353 399.91495714847474 L 193.54317039744174 369.2670406237358 L 195.88213796253996 387.63312576134365 L 198.2211055276382 395.6567168170295 L 200.5600730927364 388.08206309843104 L 202.89904065783463 382.5042253650266 L 205.23800822293282 379.4512085920638 L 207.57697578803106 368.37375329103116 L 209.91594335312928 340.96131315909656 L 212.2549109182275 353.3526460915051 L 214.5938784833257 336.2661928189081 L 216.93284604842393 357.29400510458964 L 219.27181361352214 362.28607755223436 L 221.61078117862036 357.5044507314581 L 223.9497487437186 342.7803030056666 L 226.2887163088168 308.03793156875224 L 228.62768387391503 326.68197801328176 L 230.96665143901322 345.73836570514135 L 233.30561900411146 325.90388331762904 L 235.64458656920968 318.9128649101522 L 237.9835541343079 285.4920285972288 L 240.3225216994061 323.62219604110334 L 242.66148926450433 286.8112651494959 L 245.00045682960254 258.2241599996637 L 247.33942439470076 276.6670145112732 L 249.678391959799 254.12111113548076 L 252.0173595248972 271.76823318859726 L 254.35632708999543 289.5530754885312 L 256.6952946550936 284.1935979587414 L 259.03426222019186 282.1303910309649 L 261.37322978529005 239.38734534399788 L 263.7121973503883 226.91769954990986 L 266.05116491548654 237.5305085889064 L 268.3901324805847 269.80363969105565 L 270.72910004568297 243.11231705696503 L 273.06806761078116 247.0896662157188 L 275.4070351758794 252.01126872782277 L 277.7460027409776 207.35577324229854 L 280.08497030607583 293.3987044660267 L 282.423937871174 256.8613802622856 L 284.76290543627226 265.49306724975446 L 287.10187300137045 250.21219749730489 L 289.4408405664687 262.58446694157783 L 291.77980813156694 253.7317962710925 L 294.1187756966651 230.37553190409477 L 296.45774326176337 258.9586623650708 L 298.79671082686156 218.73896540787695 L 301.1356783919598 293.3255507774033 L 303.474645957058 312.09422639922263 L 305.81361352215623 256.6061989685431 L 308.1525810872544 315.5021052069838 L 310.49154865235266 367.9569013575896 L 312.83051621745085 304.6279763604515 L 315.1694837825491 109.22727272727269 L 317.50845134764734 368.2422687060519 L 319.8474189127455 379.278065170521 L 322.18638647784377 426.6856969133552 L 324.52535404294196 160.04413780259165 L 326.8643216080402 442.52057109740764 L 329.2032891731384 418.7642622905056 L 331.54225673823663 389.78464684920243 L 333.8812243033348 402.3294011479736 L 336.22019186843306 380.835871341861 L 338.55915943353125 403.89362233064355 L 340.8981269986295 396.5847950273889 L 343.23709456372774 403.16672356347954 L 345.5760621288259 390.06530137308846 L 347.91502969392417 388.7614167725586 L 350.25399725902236 393.8581972961318 L 352.5929648241206 393.0115902860658 L 354.9319323892188 395.1863767933317 L 357.27089995431703 394.75777259342004 L 359.6098675194152 399.98308834924944 L 361.94883508451346 403.55136860808307 L 364.28780264961165 395.99314733369295 L 366.6267702147099 372.6465368691837 L 368.96573777980814 402.67179107387716 L 371.3047053449063 385.6316878221851 L 373.64367291000457 399.30991512965727 L 375.98264047510276 398.1411449929443 L 378.321608040201 404.58928739365865 L 380.6605756052992 365.0443109273257 L 382.99954317039743 391.8369772619592 L 385.3385107354957 401.1996675920195 L 387.67747830059386 299.48895379384004 L 390.01644586569205 381.6412174988104 L 392.3554134307903 392.449992691959 L 394.69438099588854 393.1122617543307 L 397.0333485609867 410.1340138352355 L 399.37231612608497 394.9015147858504 L 401.71128369118316 401.91588228627364 L 404.0502512562814 395.9121659323556 L 406.3892188213796 421.50462518376463 L 408.72818638647783 381.8298812785856 L 411.0671539515761 424.4879373988888 L 413.40612151667426 408.4863767460039 L 415.74508908177245 380.5129508689122 L 418.0840566468707 378.3145220726544 L 420.42302421196894 397.36776245976534 L 422.7619917770671 368.68654155281195 L 425.10095934216537 402.0130837503476 L 427.43992690726355 406.16552421374547 L 429.7788944723618 375.2554609735203 L 432.11786203746 390.9609124104086 L 434.45682960255823 366.1739096563273 L 436.7957971676565 374.7670534037784 L 439.13476473275466 319.59046490777195 L 441.47373229785285 395.6696668638135 L 443.8126998629511 356.7625431754027 L 446.15166742804934 401.4517129277598 L 448.4906349931475 390.37457326711524 L 450.8296025582457 358.39264723925606 L 453.168570123344 362.14332185795746 L 455.5075376884422 384.1659085381544 L 457.8465052535404 387.6687537579854 L 460.18547281863863 392.38719759143214 L 462.5244403837369 387.84450624088174 L 464.86340794883506 376.8872510222909 L 467.20237551393325 418.31741021649935 L 469.5413430790315 388.94302148566766 L 471.88031064412974 392.31921817130035 L 474.2192782092279 408.75891181929734 L 476.5582457743261 394.8992521569671 L 478.8972133394244 358.4580860742608 L 481.2361809045226 404.6775795374019 L 483.5751484696208 390.55676110071795 L 485.91411603471903 346.3722519902277 L 488.2530835998173 379.3453829774006 L 490.59205116491546 391.8293092982316 L 492.93101873001365 377.0354002652434 L 495.2699862951119 369.3723148159032 L 497.60895386021014 402.83425209223424 L 499.9479214253083 372.41051927570805 L 502.28688899040657 371.2337001386295 L 504.6258565555048 390.4483882962138 L 506.964824120603 384.4839687871935 L 509.3037916857012 388.6575097494026 L 511.64275925079943 375.9600187700724 L 513.9817268158977 380.3333605900974 L 516.3206943809959 386.1121804771742 L 518.659661946094 391.60237673617064 L 520.9986295111923 361.52367620454334 L 523.3375970762905 381.79163979916507 L 525.6765646413887 371.0819323871734 L 528.015532206487 377.9494421769788 L 530.3544997715852 393.0485036671772 L 532.6934673366834 383.72090585454623 L 535.0324349017816 363.90448183179444 L 537.3714024668798 404.7413139294874 L 539.7103700319781 383.69018502643223 L 542.0493375970763 348.6219979493047 L 544.3883051621744 378.9591662612231 L 546.7272727272727 384.4169615325651" stroke-linejoin="bevel" stroke-miterlimit="10" stroke-width="2"/></g></g></g><g><g/><g><path fill="#ffffff" stroke="#e5e5e5" paint-order="fill stroke markers" d=" M 68 38 L 225.578125 38 L 225.578125 78 L 68 78 L 68 38 Z" fill-opacity="0.95" stroke-linejoin="bevel" stroke-miterlimit="10" stroke-opacity="0.5"/><text fill="#444444" stroke="none" font-family="helvetica" font-size="10pt" font-style="normal" font-weight="normal" text-decoration="normal" x="103" y="58" text-anchor="start" dominant-baseline="central">combined-weighted</text><g><path fill="none" stroke="rgb(216,179,101)" paint-order="fill stroke markers" d=" M 78 58 L 98 58" stroke-linejoin="bevel" stroke-miterlimit="10" stroke-width="2"/></g></g></g><g><g fill="#444444"><path fill="" stroke="none" d=""/><g transform="translate(58,23)"><path fill="none" stroke="none"/><text fill="" stroke="none" font-family="helvetica" font-size="10pt" font-style="normal" font-weight="bold" text-decoration="normal" x="0" y="0" text-anchor="start" dominant-baseline="text-after-edge">metagene_counts-START_combined_weighted_scaled</text></g></g></g><g/><g><g fill="#444444"><path fill="none" stroke="black" paint-order="fill stroke markers" d=" M 58 555 L 570 555" stroke-linejoin="bevel" stroke-miterlimit="10"/><path fill="none" stroke="black" paint-order="fill stroke markers" d=" M 81 561 L 81 553" stroke-linejoin="bevel" stroke-miterlimit="10"/><path fill="none" stroke="black" paint-order="fill stroke markers" d=" M 198 561 L 198 553" stroke-linejoin="bevel" stroke-miterlimit="10"/><path fill="none" stroke="black" paint-order="fill stroke markers" d=" M 315 561 L 315 553" stroke-linejoin="bevel" stroke-miterlimit="10"/><path fill="none" stroke="black" paint-order="fill stroke markers" d=" M 432 561 L 432 553" stroke-linejoin="bevel" stroke-miterlimit="10"/><path fill="none" stroke="black" paint-order="fill stroke markers" d=" M 549 561 L 549 553" stroke-linejoin="bevel" stroke-miterlimit="10"/><path fill="none" stroke="black" paint-order="fill stroke markers" d=" M 81 559 L 81 555" stroke-linejoin="bevel" stroke-miterlimit="10"/><path fill="none" stroke="black" paint-order="fill stroke markers" d=" M 105 559 L 105 555" stroke-linejoin="bevel" stroke-miterlimit="10"/><path fill="none" stroke="black" paint-order="fill stroke markers" d=" M 128 559 L 128 555" stroke-linejoin="bevel" stroke-miterlimit="10"/><path fill="none" stroke="black" paint-order="fill stroke markers" d=" M 151 559 L 151 555" stroke-linejoin="bevel" stroke-miterlimit="10"/><path fill="none" stroke="black" paint-order="fill stroke markers" d=" M 175 559 L 175 555" stroke-linejoin="bevel" stroke-miterlimit="10"/><path fill="none" stroke="black" paint-order="fill stroke markers" d=" M 198 559 L 198 555" stroke-linejoin="bevel" stroke-miterlimit="10"/><path fill="none" stroke="black" paint-order="fill stroke markers" d=" M 222 559 L 222 555" stroke-linejoin="bevel" stroke-miterlimit="10"/><path fill="none" stroke="black" paint-order="fill stroke markers" d=" M 245 559 L 245 555" stroke-linejoin="bevel" stroke-miterlimit="10"/><path fill="none" stroke="black" paint-order="fill stroke markers" d=" M 268 559 L 268 555" stroke-linejoin="bevel" stroke-miterlimit="10"/><path fill="none" stroke="black" paint-order="fill stroke markers" d=" M 292 559 L 292 555" stroke-linejoin="bevel" stroke-miterlimit="10"/><path fill="none" stroke="black" paint-order="fill stroke markers" d=" M 315 559 L 315 555" stroke-linejoin="bevel" stroke-miterlimit="10"/><path fill="none" stroke="black" paint-order="fill stroke markers" d=" M 339 559 L 339 555" stroke-linejoin="bevel" stroke-miterlimit="10"/><path fill="none" stroke="black" paint-order="fill stroke markers" d=" M 362 559 L 362 555" stroke-linejoin="bevel" stroke-miterlimit="10"/><path fill="none" stroke="black" paint-order="fill stroke markers" d=" M 385 559 L 385 555" stroke-linejoin="bevel" stroke-miterlimit="10"/><path fill="none" stroke="black" paint-order="fill stroke markers" d=" M 409 559 L 409 555" stroke-linejoin="bevel" stroke-miterlimit="10"/><path fill="none" stroke="black" paint-order="fill stroke markers" d=" M 432 559 L 432 555" stroke-linejoin="bevel" stroke-miterlimit="10"/><path fill="none" stroke="black" paint-order="fill stroke markers" d=" M 456 559 L 456 555" stroke-linejoin="bevel" stroke-miterlimit="10"/><path fill="none" stroke="black" paint-order="fill stroke markers" d=" M 479 559 L 479 555" stroke-linejoin="bevel" stroke-miterlimit="10"/><path fill="none" stroke="black" paint-order="fill stroke markers" d=" M 502 559 L 502 555" stroke-linejoin="bevel" stroke-miterlimit="10"/><path fill="none" stroke="black" paint-order="fill stroke markers" d=" M 526 559 L 526 555" stroke-linejoin="bevel" stroke-miterlimit="10"/><path fill="" stroke="black" paint-order="fill stroke markers" d=" M 549 559 L 549 555" stroke-linejoin="bevel" stroke-miterlimit="10"/><g transform="translate(81,566) rotate(0,0,0)"><text fill="" stroke="none" font-family="helvetica" font-size="8pt" font-style="normal" font-weight="normal" text-decoration="normal" x="0" y="0" text-anchor="middle" dominant-baseline="hanging">-100</text><g transform="rotate(0,0,0) translate(-81,-566) translate(198,566) rotate(0,0,0)"><text fill="" stroke="none" font-family="helvetica" font-size="8pt" font-style="normal" font-weight="normal" text-decoration="normal" x="0" y="0" text-anchor="middle" dominant-baseline="hanging">-50</text><g transform="rotate(0,0,0) translate(-198,-566) translate(315,566) rotate(0,0,0)"><text fill="" stroke="none" font-family="helvetica" font-size="8pt" font-style="normal" font-weight="normal" text-decoration="normal" x="0" y="0" text-anchor="middle" dominant-baseline="hanging">0</text><g transform="rotate(0,0,0) translate(-315,-566) translate(432,566) rotate(0,0,0)"><text fill="" stroke="none" font-family="helvetica" font-size="8pt" font-style="normal" font-weight="normal" text-decoration="normal" x="0" y="0" text-anchor="middle" dominant-baseline="hanging">50</text><g transform="rotate(0,0,0) translate(-432,-566) translate(549,566) rotate(0,0,0)"><text fill="" stroke="none" font-family="helvetica" font-size="8pt" font-style="normal" font-weight="normal" text-decoration="normal" x="0" y="0" text-anchor="middle" dominant-baseline="hanging">100</text><g transform="rotate(0,0,0) translate(-549,-566) translate(314,584) rotate(0,0,0)"><text fill="" stroke="none" font-family="helvetica" font-size="10pt" font-style="italic" font-weight="normal" text-decoration="normal" x="0" y="0" text-anchor="middle" dominant-baseline="hanging">position from START</text><g transform="rotate(0,0,0) translate(-314,-584)"/></g></g></g></g></g></g></g></g><g><g fill="#444444"><path fill="none" stroke="black" paint-order="fill stroke markers" d=" M 58 555 L 58 88" stroke-linejoin="bevel" stroke-miterlimit="10"/><path fill="none" stroke="black" paint-order="fill stroke markers" d=" M 52 521 L 60 521" stroke-linejoin="bevel" stroke-miterlimit="10"/><path fill="none" stroke="black" paint-order="fill stroke markers" d=" M 52 462 L 60 462" stroke-linejoin="bevel" stroke-miterlimit="10"/><path fill="none" stroke="black" paint-order="fill stroke markers" d=" M 52 403 L 60 403" stroke-linejoin="bevel" stroke-miterlimit="10"/><path fill="none" stroke="black" paint-order="fill stroke markers" d=" M 52 344 L 60 344" stroke-linejoin="bevel" stroke-miterlimit="10"/><path fill="none" stroke="black" paint-order="fill stroke markers" d=" M 52 285 L 60 285" stroke-linejoin="bevel" stroke-miterlimit="10"/><path fill="none" stroke="black" paint-order="fill stroke markers" d=" M 52 226 L 60 226" stroke-linejoin="bevel" stroke-miterlimit="10"/><path fill="none" stroke="black" paint-order="fill stroke markers" d=" M 52 167 L 60 167" stroke-linejoin="bevel" stroke-miterlimit="10"/><path fill="none" stroke="black" paint-order="fill stroke markers" d=" M 52 108 L 60 108" stroke-linejoin="bevel" stroke-miterlimit="10"/><path fill="none" stroke="black" paint-order="fill stroke markers" d=" M 54 533 L 58 533" stroke-linejoin="bevel" stroke-miterlimit="10"/><path fill="none" stroke="black" paint-order="fill stroke markers" d=" M 54 545 L 58 545" stroke-linejoin="bevel" stroke-miterlimit="10"/><path fill="none" stroke="black" paint-order="fill stroke markers" d=" M 54 521 L 58 521" stroke-linejoin="bevel" stroke-miterlimit="10"/><path fill="none" stroke="black" paint-order="fill stroke markers" d=" M 54 509 L 58 509" stroke-linejoin="bevel" stroke-miterlimit="10"/><path fill="none" stroke="black" paint-order="fill stroke markers" d=" M 54 497 L 58 497" stroke-linejoin="bevel" stroke-miterlimit="10"/><path fill="none" stroke="black" paint-order="fill stroke markers" d=" M 54 486 L 58 486" stroke-linejoin="bevel" stroke-miterlimit="10"/><path fill="none" stroke="black" paint-order="fill stroke markers" d=" M 54 474 L 58 474" stroke-linejoin="bevel" stroke-miterlimit="10"/><path fill="none" stroke="black" paint-order="fill stroke markers" d=" M 54 462 L 58 462" stroke-linejoin="bevel" stroke-miterlimit="10"/><path fill="none" stroke="black" paint-order="fill stroke markers" d=" M 54 450 L 58 450" stroke-linejoin="bevel" stroke-miterlimit="10"/><path fill="none" stroke="black" paint-order="fill stroke markers" d=" M 54 438 L 58 438" stroke-linejoin="bevel" stroke-miterlimit="10"/><path fill="none" stroke="black" paint-order="fill stroke markers" d=" M 54 427 L 58 427" stroke-linejoin="bevel" stroke-miterlimit="10"/><path fill="none" stroke="black" paint-order="fill stroke markers" d=" M 54 415 L 58 415" stroke-linejoin="bevel" stroke-miterlimit="10"/><path fill="none" stroke="black" paint-order="fill stroke markers" d=" M 54 403 L 58 403" stroke-linejoin="bevel" stroke-miterlimit="10"/><path fill="none" stroke="black" paint-order="fill stroke markers" d=" M 54 391 L 58 391" stroke-linejoin="bevel" stroke-miterlimit="10"/><path fill="none" stroke="black" paint-order="fill stroke markers" d=" M 54 379 L 58 379" stroke-linejoin="bevel" stroke-miterlimit="10"/><path fill="none" stroke="black" paint-order="fill stroke markers" d=" M 54 368 L 58 368" stroke-linejoin="bevel" stroke-miterlimit="10"/><path fill="none" stroke="black" paint-order="fill stroke markers" d=" M 54 356 L 58 356" stroke-linejoin="bevel" stroke-miterlimit="10"/><path fill="none" stroke="black" paint-order="fill stroke markers" d=" M 54 344 L 58 344" stroke-linejoin="bevel" stroke-miterlimit="10"/><path fill="none" stroke="black" paint-order="fill stroke markers" d=" M 54 332 L 58 332" stroke-linejoin="bevel" stroke-miterlimit="10"/><path fill="none" stroke="black" paint-order="fill stroke markers" d=" M 54 320 L 58 320" stroke-linejoin="bevel" stroke-miterlimit="10"/><path fill="none" stroke="black" paint-order="fill stroke markers" d=" M 54 308 L 58 308" stroke-linejoin="bevel" stroke-miterlimit="10"/><path fill="none" stroke="black" paint-order="fill stroke markers" d=" M 54 297 L 58 297" stroke-linejoin="bevel" stroke-miterlimit="10"/><path fill="none" stroke="black" paint-order="fill stroke markers" d=" M 54 285 L 58 285" stroke-linejoin="bevel" stroke-miterlimit="10"/><path fill="none" stroke="black" paint-order="fill stroke markers" d=" M 54 273 L 58 273" stroke-linejoin="bevel" stroke-miterlimit="10"/><path fill="none" stroke="black" paint-order="fill stroke markers" d=" M 54 261 L 58 261" stroke-linejoin="bevel" stroke-miterlimit="10"/><path fill="none" stroke="black" paint-order="fill stroke markers" d=" M 54 249 L 58 249" stroke-linejoin="bevel" stroke-miterlimit="10"/><path fill="none" stroke="black" paint-order="fill stroke markers" d=" M 54 238 L 58 238" stroke-linejoin="bevel" stroke-miterlimit="10"/><path fill="none" stroke="black" paint-order="fill stroke markers" d=" M 54 226 L 58 226" stroke-linejoin="bevel" stroke-miterlimit="10"/><path fill="none" stroke="black" paint-order="fill stroke markers" d=" M 54 214 L 58 214" stroke-linejoin="bevel" stroke-miterlimit="10"/><path fill="none" stroke="black" paint-order="fill stroke markers" d=" M 54 202 L 58 202" stroke-linejoin="bevel" stroke-miterlimit="10"/><path fill="none" stroke="black" paint-order="fill stroke markers" d=" M 54 190 L 58 190" stroke-linejoin="bevel" stroke-miterlimit="10"/><path fill="none" stroke="black" paint-order="fill stroke markers" d=" M 54 179 L 58 179" stroke-linejoin="bevel" stroke-miterlimit="10"/><path fill="none" stroke="black" paint-order="fill stroke markers" d=" M 54 167 L 58 167" stroke-linejoin="bevel" stroke-miterlimit="10"/><path fill="none" stroke="black" paint-order="fill stroke markers" d=" M 54 155 L 58 155" stroke-linejoin="bevel" stroke-miterlimit="10"/><path fill="none" stroke="black" paint-order="fill stroke markers" d=" M 54 143 L 58 143" stroke-linejoin="bevel" stroke-miterlimit="10"/><path fill="none" stroke="black" paint-order="fill stroke markers" d=" M 54 131 L 58 131" stroke-linejoin="bevel" stroke-miterlimit="10"/><path fill="none" stroke="black" paint-order="fill stroke markers" d=" M 54 119 L 58 119" stroke-linejoin="bevel" stroke-miterlimit="10"/><path fill="none" stroke="black" paint-order="fill stroke markers" d=" M 54 108 L 58 108" stroke-linejoin="bevel" stroke-miterlimit="10"/><path fill="" stroke="black" paint-order="fill stroke markers" d=" M 54 96 L 58 96" stroke-linejoin="bevel" stroke-miterlimit="10"/><g transform="translate(47,521) rotate(0,0,0)"><text fill="" stroke="none" font-family="helvetica" font-size="8pt" font-style="normal" font-weight="normal" text-decoration="normal" x="0" y="0" text-anchor="end" dominant-baseline="central">200</text><g transform="rotate(0,0,0) translate(-47,-521) translate(47,462) rotate(0,0,0)"><text fill="" stroke="none" font-family="helvetica" font-size="8pt" font-style="normal" font-weight="normal" text-decoration="normal" x="0" y="0" text-anchor="end" dominant-baseline="central">400</text><g transform="rotate(0,0,0) translate(-47,-462) translate(47,403) rotate(0,0,0)"><text fill="" stroke="none" font-family="helvetica" font-size="8pt" font-style="normal" font-weight="normal" text-decoration="normal" x="0" y="0" text-anchor="end" dominant-baseline="central">600</text><g transform="rotate(0,0,0) translate(-47,-403) translate(47,344) rotate(0,0,0)"><text fill="" stroke="none" font-family="helvetica" font-size="8pt" font-style="normal" font-weight="normal" text-decoration="normal" x="0" y="0" text-anchor="end" dominant-baseline="central">800</text><g transform="rotate(0,0,0) translate(-47,-344) translate(47,285) rotate(0,0,0)"><text fill="" stroke="none" font-family="helvetica" font-size="8pt" font-style="normal" font-weight="normal" text-decoration="normal" x="0" y="0" text-anchor="end" dominant-baseline="central">1000</text><g transform="rotate(0,0,0) translate(-47,-285) translate(47,226) rotate(0,0,0)"><text fill="" stroke="none" font-family="helvetica" font-size="8pt" font-style="normal" font-weight="normal" text-decoration="normal" x="0" y="0" text-anchor="end" dominant-baseline="central">1200</text><g transform="rotate(0,0,0) translate(-47,-226) translate(47,167) rotate(0,0,0)"><text fill="" stroke="none" font-family="helvetica" font-size="8pt" font-style="normal" font-weight="normal" text-decoration="normal" x="0" y="0" text-anchor="end" dominant-baseline="central">1400</text><g transform="rotate(0,0,0) translate(-47,-167) translate(47,108) rotate(0,0,0)"><text fill="" stroke="none" font-family="helvetica" font-size="8pt" font-style="normal" font-weight="normal" text-decoration="normal" x="0" y="0" text-anchor="end" dominant-baseline="central">1600</text><g transform="rotate(0,0,0) translate(-47,-108) translate(15,322) rotate(-90,0,0)"><text fill="" stroke="none" font-family="helvetica" font-size="10pt" font-style="italic" font-weight="normal" text-decoration="normal" x="0" y="0" text-anchor="middle" dominant-baseline="alphabetic">5'seq RPM</text><g transform="rotate(90,0,0) translate(-15,-322)"/></g></g></g></g></g></g></g></g></g></g></g><g clip-path="url(#lppvSxiBdqHB)"><g/></g></g></g></svg>