<svg version="1.1" xmlns="http://www.w3.org/2000/svg" xmlns:xlink="http://www.w3.org/1999/xlink" width="600" height="600" style="width: 600px; height: 600px;"><defs><clipPath id="HintBihTLGlW"><path fill="none" stroke="none" d=" M 58 203 L 570 203 L 570 555 L 58 555 L 58 203 Z"/></clipPath><clipPath id="enCJluGevbSc"><path fill="none" stroke="none" d=" M 58 203 L 570 203 L 570 555 L 58 555 L 58 203 Z"/></clipPath><clipPath id="yDeqPfcdkZRD"><path fill="none" stroke="none" d=" M 58 203 L 570 203 L 570 555 L 58 555 L 58 203 Z"/></clipPath><clipPath id="wStdvTuwzrVI"><path fill="none" stroke="none" d=" M 58 203 L 570 203 L 570 555 L 58 555 L 58 203 Z"/></clipPath><clipPath id="hFdtIBWKcqfE"><path fill="none" stroke="none" d=" M 58 203 L 570 203 L 570 555 L 58 555 L 58 203 Z"/></clipPath><clipPath id="UxEnKSXBMSDk"><path fill="none" stroke="none" d=" M 58 203 L 570 203 L 570 555 L 58 555 L 58 203 Z"/></clipPath><clipPath id="IoNHUUTeuUGG"><path fill="none" stroke="none" d=" M 58 203 L 570 203 L 570 555 L 58 555 L 58 203 Z"/></clipPath><clipPath id="IXKKTSoMVnBM"><path fill="none" stroke="none" d=" M 58 203 L 570 203 L 570 555 L 58 555 L 58 203 Z"/></clipPath><clipPath id="oDbeXAAlMpCB"><path fill="none" stroke="none" d=" M 58 203 L 570 203 L 570 555 L 58 555 L 58 203 Z"/></clipPath></defs><g><g/><g/><g/><g transform="scale(1,1) translate(0.5,0.5)"><rect fill="#FFFFFF" stroke="none" x="0" y="0" width="600" height="600"/><rect fill="#ffffff" stroke="none" x="0" y="0" width="600" height="600"/><rect fill="#FFFFFF" stroke="none" x="58" y="203" width="512" height="352"/><rect fill="#ffffff" stroke="none" x="58" y="203" width="512" height="352"/><g><rect fill="none" stroke="#e5e5e5" x="58" y="203" width="512" height="352" stroke-linejoin="bevel" stroke-miterlimit="10"/></g><g clip-path="url(#HintBihTLGlW)"><g><g><path fill="none" stroke="#e5e5e5" paint-order="fill stroke markers" d=" M 74 555 L 74 203" stroke-linejoin="bevel" stroke-miterlimit="10"/><path fill="none" stroke="#e5e5e5" paint-order="fill stroke markers" d=" M 191 555 L 191 203" stroke-linejoin="bevel" stroke-miterlimit="10"/><path fill="none" stroke="#e5e5e5" paint-order="fill stroke markers" d=" M 308 555 L 308 203" stroke-linejoin="bevel" stroke-miterlimit="10"/><path fill="none" stroke="#e5e5e5" paint-order="fill stroke markers" d=" M 425 555 L 425 203" stroke-linejoin="bevel" stroke-miterlimit="10"/><path fill="none" stroke="#e5e5e5" paint-order="fill stroke markers" d=" M 542 555 L 542 203" stroke-linejoin="bevel" stroke-miterlimit="10"/></g></g></g><g clip-path="url(#enCJluGevbSc)"><g><g><path fill="none" stroke="#e5e5e5" paint-order="fill stroke markers" d=" M 58 539 L 570 539" stroke-linejoin="bevel" stroke-miterlimit="10"/><path fill="none" stroke="#e5e5e5" paint-order="fill stroke markers" d=" M 58 443 L 570 443" stroke-linejoin="bevel" stroke-miterlimit="10"/><path fill="none" stroke="#e5e5e5" paint-order="fill stroke markers" d=" M 58 348 L 570 348" stroke-linejoin="bevel" stroke-miterlimit="10"/><path fill="none" stroke="#e5e5e5" paint-order="fill stroke markers" d=" M 58 252 L 570 252" stroke-linejoin="bevel" stroke-miterlimit="10"/></g></g></g><g clip-path="url(#yDeqPfcdkZRD)"><g><g><path fill="none" stroke="none"/><path fill="none" stroke="#1F78B4" paint-order="fill stroke markers" d=" M 81.27272727272731 445.52329749103944 L 83.61169483782552 433.8626045400239 L 85.95066240292374 438.25925925925924 L 88.28962996802196 450.1111111111111 L 90.62859753312017 439.4062126642772 L 92.96756509821839 449.9199522102748 L 95.3065326633166 445.90561529271207 L 97.64550022841485 429.27479091995224 L 99.98446779351306 437.11230585424136 L 102.32343535861128 446.2879330943847 L 104.6624029237095 432.14217443249703 L 107.00137048880771 439.02389486260455 L 109.34033805390592 445.1409796893668 L 111.67930561900414 422.2019115890084 L 114.01827318410236 435.20071684587816 L 116.35724074920057 454.31660692951016 L 118.69620831429879 434.81839904420553 L 121.035175879397 439.97968936678615 L 123.37414344449525 462.72759856630825 L 125.71311100959346 439.4062126642772 L 128.05207857469168 445.3321385902031 L 130.3910461397899 456.61051373954604 L 132.7300137048881 448.39068100358423 L 135.06898126998632 448.39068100358423 L 137.40794883508454 462.72759856630825 L 139.74691640018276 450.8757467144564 L 142.08588396528097 457.7574671445639 L 144.4248515303792 457.18399044205495 L 146.76381909547743 450.49342891278377 L 149.10278666057565 457.94862604540026 L 151.44175422567386 458.7132616487455 L 153.78072179077208 454.31660692951016 L 156.1196893558703 446.0967741935484 L 158.4586569209685 463.3010752688172 L 160.79762448606672 455.8458781362007 L 163.13659205116494 457.7574671445639 L 165.47555961626315 464.44802867383515 L 167.81452718136137 461.389486260454 L 170.1534947464596 458.7132616487455 L 172.49246231155783 469.60931899641577 L 174.83142987665605 463.1099163679809 L 177.17039744175426 460.4336917562724 L 179.50936500685248 465.59498207885304 L 181.8483325719507 444.3763440860215 L 184.1873001370489 461.1983273596177 L 186.52626770214712 465.02150537634407 L 188.86523526724534 439.02389486260455 L 191.20420283234358 435.7741935483871 L 193.54317039744177 467.50657108721623 L 195.88213796254 445.71445639187573 L 198.2211055276382 458.7132616487455 L 200.56007309273645 478.78494623655916 L 202.89904065783466 467.50657108721623 L 205.23800822293288 469.22700119474314 L 207.5769757880311 474.19713261648747 L 209.9159433531293 471.7120669056153 L 212.25491091822752 477.06451612903226 L 214.59387848332574 473.81481481481484 L 216.93284604842398 476.299880525687 L 219.27181361352217 482.0346475507766 L 221.6107811786204 477.82915173237757 L 223.9497487437186 480.1230585424134 L 226.28871630881684 485.0931899641577 L 228.62768387391506 478.5937873357228 L 230.96665143901328 474.9617682198327 L 233.3056190041115 483.7550776583035 L 235.6445865692097 487.5782556750299 L 237.98355413430792 475.9175627240144 L 240.32252169940614 477.4468339307049 L 242.66148926450438 488.15173237753885 L 245.00045682960257 482.7992831541219 L 247.3394243947008 492.5483870967742 L 249.67839195979903 487.7694145758662 L 252.01735952489724 486.81362007168457 L 254.35632708999546 500.57706093189967 L 256.6952946550937 493.1218637992832 L 259.03426222019186 487.38709677419354 L 261.3732297852901 486.0489844683393 L 263.71219735038835 492.5483870967742 L 266.05116491548654 396.58661887694143 L 268.3901324805848 374.60334528076464 L 270.72910004568297 485.47550776583034 L 273.0680676107812 490.2544802867384 L 275.4070351758794 490.8279569892473 L 277.74600274097764 490.2544802867384 L 280.08497030607583 500.57706093189967 L 282.4239378711741 498.2831541218638 L 284.76290543627226 497.3273596176822 L 287.1018730013705 501.3416965352449 L 289.44084056646875 501.72401433691755 L 291.77980813156694 504.7825567502987 L 294.1187756966652 506.31182795698925 L 296.45774326176337 508.22341696535244 L 298.7967108268616 504.7825567502987 L 301.1356783919598 503.63560334528074 L 303.47464595705804 509.5615292712067 L 305.81361352215623 505.7383512544803 L 308.1525810872545 512.0465949820789 L 310.4915486523527 504.40023894862605 L 312.8305162174509 493.1218637992832 L 315.16948378254915 491.5925925925926 L 317.50845134764734 509.752688172043 L 319.8474189127456 494.0776583034648 L 322.18638647784377 509.752688172043 L 324.525354042942 504.7825567502987 L 326.8643216080402 505.7383512544803 L 329.20328917313844 508.03225806451616 L 331.5422567382367 505.1648745519713 L 333.8812243033349 501.1505376344086 L 336.2201918684331 508.98805256869775 L 338.5591594335313 510.326164874552 L 340.89812699862955 508.03225806451616 L 343.23709456372774 512.0465949820789 L 345.576062128826 513.3847072879331 L 347.91502969392417 506.1206690561529 L 350.2539972590224 507.6499402628435 L 352.5929648241206 508.7968936678614 L 354.93193238921884 513.1935483870968 L 357.2708999543171 508.22341696535244 L 359.6098675194153 511.6642771804062 L 361.9488350845135 511.4731182795699 L 364.2878026496117 512.8112305854241 L 366.62677021470995 515.678614097969 L 368.96573777980814 517.7813620071685 L 371.3047053449064 514.531660692951 L 373.64367291000457 508.60573476702507 L 375.9826404751028 517.3990442054958 L 378.321608040201 515.4874551971326 L 380.66057560529924 513.7670250896058 L 382.9995431703975 518.3548387096774 L 385.3385107354957 514.531660692951 L 387.67747830059386 520.0752688172043 L 390.0164458656921 518.1636798088412 L 392.35541343079035 514.9139784946236 L 394.69438099588854 517.5902031063322 L 397.0333485609868 513.9581839904421 L 399.37231612608497 518.73715651135 L 401.7112836911832 514.531660692951 L 404.0502512562814 520.0752688172043 L 406.38921882137964 517.5902031063322 L 408.7281863864779 517.0167264038232 L 411.0671539515761 512.8112305854241 L 413.40612151667426 519.310633213859 L 415.7450890817725 517.7813620071685 L 418.08405664687075 517.2078853046595 L 420.42302421196894 515.8697729988053 L 422.7619917770672 514.9139784946236 L 425.10095934216537 516.8255675029868 L 427.4399269072636 517.3990442054958 L 429.7788944723618 519.884109916368 L 432.11786203746004 519.1194743130227 L 434.4568296025583 523.8984468339307 L 436.7957971676565 516.4432497013142 L 439.13476473275466 523.3249701314218 L 441.4737322978529 521.6045400238949 L 443.81269986295115 524.2807646356033 L 446.15166742804934 519.1194743130227 L 448.4906349931476 525.0454002389487 L 450.8296025582458 518.1636798088412 L 453.168570123344 521.7956989247311 L 455.5075376884422 523.3249701314218 L 457.84650525354044 515.678614097969 L 460.1854728186387 519.310633213859 L 462.5244403837369 519.310633213859 L 464.86340794883506 523.1338112305855 L 467.2023755139333 520.2664277180406 L 469.54134307903155 521.2222222222222 L 471.88031064412974 517.5902031063322 L 474.219278209228 518.3548387096774 L 476.5582457743262 519.884109916368 L 478.8972133394244 526.7658303464755 L 481.2361809045226 522.3691756272401 L 483.57514846962084 512.8112305854241 L 485.9141160347191 520.2664277180406 L 488.2530835998173 515.10513739546 L 490.59205116491546 522.5603345280765 L 492.9310187300137 519.5017921146954 L 495.26998629511195 521.2222222222222 L 497.60895386021014 522.1780167264038 L 499.9479214253084 527.9127837514934 L 502.2868889904066 519.884109916368 L 504.6258565555048 524.089605734767 L 506.964824120603 518.3548387096774 L 509.30379168570124 516.2520908004778 L 511.6427592507995 521.9868578255675 L 513.9817268158977 517.3990442054958 L 516.3206943809959 514.1493428912784 L 518.659661946094 518.9283154121864 L 520.9986295111923 524.4719235364397 L 523.3375970762905 517.9725209080048 L 525.6765646413887 524.2807646356033 L 528.015532206487 521.0310633213859 L 530.3544997715852 521.6045400238949 L 532.6934673366834 519.1194743130227 L 535.0324349017817 519.310633213859 L 537.3714024668799 528.6774193548387 L 539.7103700319781 524.663082437276 L 542.0493375970763 523.3249701314218 L 544.3883051621744 523.516129032258 L 546.7272727272727 522.7514934289128" stroke-linejoin="bevel" stroke-miterlimit="10" stroke-width="2"/></g></g></g><g clip-path="url(#wStdvTuwzrVI)"><g><g><path fill="none" stroke="none"/><path fill="none" stroke="#33A02C" paint-order="fill stroke markers" d=" M 81.27272727272731 391.0430107526882 L 83.61169483782552 367.7216248506571 L 85.95066240292374 378.6176821983274 L 88.28962996802196 406.7180406212665 L 90.62859753312017 387.02867383512546 L 92.96756509821839 385.8817204301075 L 95.3065326633166 409.77658303464756 L 97.64550022841485 380.7204301075269 L 99.98446779351306 385.8817204301075 L 102.32343535861128 409.9677419354839 L 104.6624029237095 389.5137395459976 L 107.00137048880771 386.8375149342892 L 109.34033805390592 397.9247311827957 L 111.67930561900414 389.131421744325 L 114.01827318410236 379.19115890083634 L 116.35724074920057 411.68817204301075 L 118.69620831429879 397.5424133811231 L 121.035175879397 384.16129032258067 L 123.37414344449525 412.45280764635606 L 125.71311100959346 388.557945041816 L 128.05207857469168 389.5137395459976 L 130.3910461397899 416.46714456391874 L 132.7300137048881 384.16129032258067 L 135.06898126998632 402.1302270011947 L 137.40794883508454 421.6284348864994 L 139.74691640018276 398.8805256869773 L 142.08588396528097 419.7168458781362 L 144.4248515303792 422.2019115890084 L 146.76381909547743 417.99641577060936 L 149.10278666057565 403.85065710872163 L 151.44175422567386 424.8781362007169 L 153.78072179077208 408.43847072879333 L 156.1196893558703 409.20310633213865 L 158.4586569209685 425.2604540023895 L 160.79762448606672 412.0704898446834 L 163.13659205116494 418.378733572282 L 165.47555961626315 423.73118279569894 L 167.81452718136137 413.59976105137395 L 170.1534947464596 418.5698924731183 L 172.49246231155783 434.81839904420553 L 174.83142987665605 417.805256869773 L 177.17039744175426 400.7921146953405 L 179.50936500685248 419.7168458781362 L 181.8483325719507 404.2329749103943 L 184.1873001370489 424.11350059737157 L 186.52626770214712 424.8781362007169 L 188.86523526724534 378.6176821983274 L 191.20420283234358 383.9701314217443 L 193.54317039744177 439.4062126642772 L 195.88213796254 401.55675029868576 L 198.2211055276382 424.11350059737157 L 200.56007309273645 438.8327359617682 L 202.89904065783466 435.39187574671445 L 205.23800822293288 435.5830346475508 L 207.5769757880311 443.0382317801673 L 209.9159433531293 434.81839904420553 L 212.25491091822752 454.31660692951016 L 214.59387848332574 446.6702508960574 L 216.93284604842398 447.24372759856635 L 219.27181361352217 449.9199522102748 L 221.6107811786204 450.3022700119474 L 223.9497487437186 449.34647550776583 L 226.28871630881684 460.81600955794505 L 228.62768387391506 456.99283154121866 L 230.96665143901328 453.5519713261649 L 233.3056190041115 450.8757467144564 L 235.6445865692097 459.86021505376345 L 237.98355413430792 451.6403823178017 L 240.32252169940614 450.1111111111111 L 242.66148926450438 461.77180406212665 L 245.00045682960257 448.77299880525686 L 247.3394243947008 461.58064516129036 L 249.67839195979903 463.68339307048984 L 252.01735952489724 464.0657108721625 L 254.35632708999546 466.5507765830347 L 256.6952946550937 466.35961768219835 L 259.03426222019186 464.0657108721625 L 261.3732297852901 457.18399044205495 L 263.71219735038835 470.94743130227005 L 266.05116491548654 334.45997610513746 L 268.3901324805848 313.24133811230587 L 270.72910004568297 454.31660692951016 L 273.0680676107812 464.63918757467144 L 275.4070351758794 465.7861409796894 L 277.74600274097764 471.52090800477896 L 280.08497030607583 481.078853046595 L 282.4239378711741 485.0931899641577 L 284.76290543627226 474.77060931899643 L 287.1018730013705 492.35722819593786 L 289.44084056646875 492.93070489844683 L 291.77980813156694 486.81362007168457 L 294.1187756966652 485.85782556750297 L 296.45774326176337 490.8279569892473 L 298.7967108268616 484.1373954599761 L 301.1356783919598 494.0776583034648 L 303.47464595705804 495.415770609319 L 305.81361352215623 488.5340501792115 L 308.1525810872545 498.47431302270013 L 310.4915486523527 500.76821983273595 L 312.8305162174509 480.88769414575864 L 315.16948378254915 465.02150537634407 L 317.50845134764734 496.94504181600956 L 319.8474189127456 479.1672640382318 L 322.18638647784377 493.5041816009558 L 324.525354042942 484.3285543608124 L 326.8643216080402 487.38709677419354 L 329.20328917313844 490.636798088411 L 331.5422567382367 489.29868578255673 L 333.8812243033349 490.8279569892473 L 336.2201918684331 491.40143369175627 L 338.5591594335313 496.56272401433694 L 340.89812699862955 491.5925925925926 L 343.23709456372774 494.65113500597374 L 345.576062128826 504.7825567502987 L 347.91502969392417 495.03345280764637 L 350.2539972590224 488.15173237753885 L 352.5929648241206 497.1362007168459 L 354.93193238921884 495.415770609319 L 357.2708999543171 501.9151732377539 L 359.6098675194153 505.7383512544803 L 361.9488350845135 503.8267622461171 L 364.2878026496117 503.63560334528074 L 366.62677021470995 502.10633213859023 L 368.96573777980814 504.2090800477897 L 371.3047053449064 496.18040621266425 L 373.64367291000457 501.3416965352449 L 375.9826404751028 510.5173237753883 L 378.321608040201 505.7383512544803 L 380.66057560529924 505.1648745519713 L 382.9995431703975 501.9151732377539 L 385.3385107354957 502.8709677419355 L 387.67747830059386 507.07646356033456 L 390.0164458656921 514.3405017921147 L 392.35541343079035 501.9151732377539 L 394.69438099588854 509.752688172043 L 397.0333485609868 501.3416965352449 L 399.37231612608497 506.8853046594982 L 401.7112836911832 508.4145758661888 L 404.0502512562814 507.07646356033456 L 406.38921882137964 509.94384707287935 L 408.7281863864779 507.07646356033456 L 411.0671539515761 507.07646356033456 L 413.40612151667426 510.7084826762246 L 415.7450890817725 512.4289127837515 L 418.08405664687075 506.5029868578256 L 420.42302421196894 516.2520908004778 L 422.7619917770672 508.98805256869775 L 425.10095934216537 508.7968936678614 L 427.4399269072636 514.9139784946236 L 429.7788944723618 514.3405017921147 L 432.11786203746004 515.2962962962963 L 434.4568296025583 509.752688172043 L 436.7957971676565 510.7084826762246 L 439.13476473275466 517.3990442054958 L 441.4737322978529 514.3405017921147 L 443.81269986295115 513.0023894862604 L 446.15166742804934 508.4145758661888 L 448.4906349931476 510.89964157706095 L 450.8296025582458 510.326164874552 L 453.168570123344 510.7084826762246 L 455.5075376884422 518.73715651135 L 457.84650525354044 508.60573476702507 L 460.1854728186387 511.6642771804062 L 462.5244403837369 507.6499402628435 L 464.86340794883506 512.8112305854241 L 467.2023755139333 512.2377538829152 L 469.54134307903155 511.6642771804062 L 471.88031064412974 508.4145758661888 L 474.219278209228 513.3847072879331 L 476.5582457743262 512.8112305854241 L 478.8972133394244 513.0023894862604 L 481.2361809045226 516.0609318996416 L 483.57514846962084 510.7084826762246 L 485.9141160347191 513.1935483870968 L 488.2530835998173 506.6941457586619 L 490.59205116491546 515.4874551971326 L 492.9310187300137 514.531660692951 L 495.26998629511195 517.0167264038232 L 497.60895386021014 521.0310633213859 L 499.9479214253084 521.0310633213859 L 502.2868889904066 509.5615292712067 L 504.6258565555048 513.3847072879331 L 506.964824120603 511.85543608124254 L 509.30379168570124 506.6941457586619 L 511.6427592507995 509.17921146953404 L 513.9817268158977 512.8112305854241 L 516.3206943809959 497.1362007168459 L 518.659661946094 508.60573476702507 L 520.9986295111923 518.5459976105137 L 523.3375970762905 510.7084826762246 L 525.6765646413887 517.9725209080048 L 528.015532206487 515.10513739546 L 530.3544997715852 518.5459976105137 L 532.6934673366834 512.6200716845879 L 535.0324349017817 506.6941457586619 L 537.3714024668799 521.7956989247311 L 539.7103700319781 516.0609318996416 L 542.0493375970763 514.7228195937873 L 544.3883051621744 516.8255675029868 L 546.7272727272727 512.4289127837515" stroke-linejoin="bevel" stroke-miterlimit="10" stroke-width="2"/></g></g></g><g clip-path="url(#hFdtIBWKcqfE)"><g><g><path fill="none" stroke="none"/><path fill="none" stroke="#C51B7D" paint-order="fill stroke markers" d=" M 81.27272727272731 470.18279569892474 L 83.61169483782552 463.8745519713262 L 85.95066240292374 474.77060931899643 L 88.28962996802196 472.47670250896056 L 90.62859753312017 476.299880525687 L 92.96756509821839 464.44802867383515 L 95.3065326633166 476.299880525687 L 97.64550022841485 467.50657108721623 L 99.98446779351306 469.60931899641577 L 102.32343535861128 472.85902031063324 L 104.6624029237095 476.68219832735963 L 107.00137048880771 469.4181600955794 L 109.34033805390592 465.7861409796894 L 111.67930561900414 461.389486260454 L 114.01827318410236 466.168458781362 L 116.35724074920057 482.9904420549582 L 118.69620831429879 465.2126642771804 L 121.035175879397 461.962962962963 L 123.37414344449525 481.65232974910396 L 125.71311100959346 474.77060931899643 L 128.05207857469168 467.1242532855436 L 130.3910461397899 483.3727598566308 L 132.7300137048881 477.82915173237757 L 135.06898126998632 479.1672640382318 L 137.40794883508454 482.60812425328555 L 139.74691640018276 479.5495818399044 L 142.08588396528097 476.8733572281959 L 144.4248515303792 480.88769414575864 L 146.76381909547743 482.60812425328555 L 149.10278666057565 475.5352449223417 L 151.44175422567386 485.85782556750297 L 153.78072179077208 481.65232974910396 L 156.1196893558703 479.5495818399044 L 158.4586569209685 483.56391875746715 L 160.79762448606672 477.4468339307049 L 163.13659205116494 485.6666666666667 L 165.47555961626315 490.636798088411 L 167.81452718136137 484.3285543608124 L 170.1534947464596 484.51971326164875 L 172.49246231155783 489.29868578255673 L 174.83142987665605 480.31421744324973 L 177.17039744175426 484.9020310633214 L 179.50936500685248 485.28434886499406 L 181.8483325719507 482.9904420549582 L 184.1873001370489 484.3285543608124 L 186.52626770214712 485.6666666666667 L 188.86523526724534 473.6236559139785 L 191.20420283234358 468.27120669056154 L 193.54317039744177 487.38709677419354 L 195.88213796254 469.9916367980884 L 198.2211055276382 474.9617682198327 L 200.56007309273645 498.0919952210275 L 202.89904065783466 490.44563918757467 L 205.23800822293288 485.28434886499406 L 207.5769757880311 499.0477897252091 L 209.9159433531293 490.06332138590204 L 212.25491091822752 498.2831541218638 L 214.59387848332574 500.57706093189967 L 216.93284604842398 499.0477897252091 L 219.27181361352217 500.76821983273595 L 221.6107811786204 503.63560334528074 L 223.9497487437186 492.73954599761055 L 226.28871630881684 502.8709677419355 L 228.62768387391506 503.06212664277183 L 230.96665143901328 500.76821983273595 L 233.3056190041115 499.62126642771807 L 235.6445865692097 503.2532855436081 L 237.98355413430792 499.2389486260454 L 240.32252169940614 496.56272401433694 L 242.66148926450438 505.9295101553166 L 245.00045682960257 498.2831541218638 L 247.3394243947008 508.4145758661888 L 249.67839195979903 507.6499402628435 L 252.01735952489724 508.22341696535244 L 254.35632708999546 508.7968936678614 L 256.6952946550937 507.26762246117084 L 259.03426222019186 510.5173237753883 L 261.3732297852901 499.81242532855435 L 263.71219735038835 508.4145758661888 L 266.05116491548654 426.59856630824373 L 268.3901324805848 431.56869772998806 L 270.72910004568297 499.4301075268817 L 273.0680676107812 503.44444444444446 L 275.4070351758794 512.2377538829152 L 277.74600274097764 510.13500597371564 L 280.08497030607583 511.85543608124254 L 282.4239378711741 513.5758661887694 L 284.76290543627226 506.31182795698925 L 287.1018730013705 515.4874551971326 L 289.44084056646875 515.2962962962963 L 291.77980813156694 517.5902031063322 L 294.1187756966652 519.6929510155317 L 296.45774326176337 515.8697729988053 L 298.7967108268616 517.0167264038232 L 301.1356783919598 512.2377538829152 L 303.47464595705804 518.5459976105137 L 305.81361352215623 517.2078853046595 L 308.1525810872545 519.1194743130227 L 310.4915486523527 513.1935483870968 L 312.8305162174509 514.1493428912784 L 315.16948378254915 508.7968936678614 L 317.50845134764734 514.1493428912784 L 319.8474189127456 510.5173237753883 L 322.18638647784377 522.5603345280765 L 324.525354042942 512.4289127837515 L 326.8643216080402 516.6344086021505 L 329.20328917313844 515.2962962962963 L 331.5422567382367 517.5902031063322 L 333.8812243033349 515.10513739546 L 336.2201918684331 512.2377538829152 L 338.5591594335313 518.3548387096774 L 340.89812699862955 515.678614097969 L 343.23709456372774 513.1935483870968 L 345.576062128826 521.0310633213859 L 347.91502969392417 517.5902031063322 L 350.2539972590224 517.9725209080048 L 352.5929648241206 519.884109916368 L 354.93193238921884 519.6929510155317 L 357.2708999543171 523.7072879330943 L 359.6098675194153 520.0752688172043 L 361.9488350845135 521.9868578255675 L 364.2878026496117 522.3691756272401 L 366.62677021470995 521.7956989247311 L 368.96573777980814 521.4133811230586 L 371.3047053449064 522.7514934289128 L 373.64367291000457 516.8255675029868 L 375.9826404751028 522.3691756272401 L 378.321608040201 520.0752688172043 L 380.66057560529924 524.2807646356033 L 382.9995431703975 521.9868578255675 L 385.3385107354957 516.2520908004778 L 387.67747830059386 521.7956989247311 L 390.0164458656921 526.9569892473119 L 392.35541343079035 522.9426523297491 L 394.69438099588854 527.3393070489844 L 397.0333485609868 523.1338112305855 L 399.37231612608497 523.516129032258 L 401.7112836911832 522.7514934289128 L 404.0502512562814 521.9868578255675 L 406.38921882137964 525.236559139785 L 408.7281863864779 525.8100358422939 L 411.0671539515761 518.3548387096774 L 413.40612151667426 526.0011947431302 L 415.7450890817725 526.5746714456392 L 418.08405664687075 522.7514934289128 L 420.42302421196894 523.3249701314218 L 422.7619917770672 523.1338112305855 L 425.10095934216537 522.5603345280765 L 427.4399269072636 524.4719235364397 L 429.7788944723618 523.516129032258 L 432.11786203746004 523.7072879330943 L 434.4568296025583 523.3249701314218 L 436.7957971676565 519.6929510155317 L 439.13476473275466 525.236559139785 L 441.4737322978529 524.2807646356033 L 443.81269986295115 526.1923536439665 L 446.15166742804934 522.9426523297491 L 448.4906349931476 525.6188769414576 L 450.8296025582458 522.1780167264038 L 453.168570123344 525.6188769414576 L 455.5075376884422 525.0454002389487 L 457.84650525354044 522.9426523297491 L 460.1854728186387 524.4719235364397 L 462.5244403837369 526.1923536439665 L 464.86340794883506 526.9569892473119 L 467.2023755139333 523.3249701314218 L 469.54134307903155 525.8100358422939 L 471.88031064412974 520.4575866188769 L 474.219278209228 520.6487455197133 L 476.5582457743262 521.7956989247311 L 478.8972133394244 525.4277180406212 L 481.2361809045226 528.6774193548387 L 483.57514846962084 518.9283154121864 L 485.9141160347191 527.5304659498208 L 488.2530835998173 521.7956989247311 L 490.59205116491546 527.9127837514934 L 492.9310187300137 529.442054958184 L 495.26998629511195 524.8542413381123 L 497.60895386021014 529.6332138590203 L 499.9479214253084 526.7658303464755 L 502.2868889904066 521.7956989247311 L 504.6258565555048 526.0011947431302 L 506.964824120603 523.7072879330943 L 509.30379168570124 523.7072879330943 L 511.6427592507995 526.3835125448029 L 513.9817268158977 520.4575866188769 L 516.3206943809959 518.5459976105137 L 518.659661946094 521.2222222222222 L 520.9986295111923 530.7801672640383 L 523.3375970762905 523.1338112305855 L 525.6765646413887 528.4862604540024 L 528.015532206487 524.663082437276 L 530.3544997715852 530.5890083632019 L 532.6934673366834 523.516129032258 L 535.0324349017817 521.7956989247311 L 537.3714024668799 529.0597371565113 L 539.7103700319781 527.1481481481482 L 542.0493375970763 526.1923536439665 L 544.3883051621744 525.4277180406212 L 546.7272727272727 525.4277180406212" stroke-linejoin="bevel" stroke-miterlimit="10" stroke-width="2"/></g></g></g><g clip-path="url(#UxEnKSXBMSDk)"><g><g><path fill="none" stroke="none"/><path fill="none" stroke="#542788" paint-order="fill stroke markers" d=" M 81.27272727272731 536.1326164874552 L 83.61169483782552 535.7502986857826 L 85.95066240292374 532.6917562724014 L 88.28962996802196 535.7502986857826 L 90.62859753312017 535.9414575866189 L 92.96756509821839 535.7502986857826 L 95.3065326633166 535.9414575866189 L 97.64550022841485 535.9414575866189 L 99.98446779351306 535.7502986857826 L 102.32343535861128 535.3679808841099 L 104.6624029237095 535.9414575866189 L 107.00137048880771 536.1326164874552 L 109.34033805390592 534.4121863799284 L 111.67930561900414 533.8387096774194 L 114.01827318410236 535.5591397849462 L 116.35724074920057 536.1326164874552 L 118.69620831429879 534.6033452807646 L 121.035175879397 536.7060931899641 L 123.37414344449525 536.8972520908005 L 125.71311100959346 535.9414575866189 L 128.05207857469168 536.5149342891278 L 130.3910461397899 536.7060931899641 L 132.7300137048881 537.4707287933095 L 135.06898126998632 537.0884109916368 L 137.40794883508454 537.4707287933095 L 139.74691640018276 536.5149342891278 L 142.08588396528097 536.7060931899641 L 144.4248515303792 537.4707287933095 L 146.76381909547743 536.3237753882916 L 149.10278666057565 536.3237753882916 L 151.44175422567386 536.7060931899641 L 153.78072179077208 536.3237753882916 L 156.1196893558703 538.0442054958183 L 158.4586569209685 538.2353643966547 L 160.79762448606672 535.7502986857826 L 163.13659205116494 537.2795698924731 L 165.47555961626315 537.2795698924731 L 167.81452718136137 536.1326164874552 L 170.1534947464596 535.9414575866189 L 172.49246231155783 536.3237753882916 L 174.83142987665605 536.5149342891278 L 177.17039744175426 536.3237753882916 L 179.50936500685248 536.8972520908005 L 181.8483325719507 535.7502986857826 L 184.1873001370489 537.0884109916368 L 186.52626770214712 536.3237753882916 L 188.86523526724534 536.1326164874552 L 191.20420283234358 535.7502986857826 L 193.54317039744177 537.4707287933095 L 195.88213796254 536.5149342891278 L 198.2211055276382 536.7060931899641 L 200.56007309273645 537.8530465949821 L 202.89904065783466 537.0884109916368 L 205.23800822293288 538.6176821983273 L 207.5769757880311 536.5149342891278 L 209.9159433531293 537.2795698924731 L 212.25491091822752 537.4707287933095 L 214.59387848332574 538.0442054958183 L 216.93284604842398 536.8972520908005 L 219.27181361352217 536.5149342891278 L 221.6107811786204 537.8530465949821 L 223.9497487437186 537.0884109916368 L 226.28871630881684 537.4707287933095 L 228.62768387391506 536.5149342891278 L 230.96665143901328 537.4707287933095 L 233.3056190041115 537.0884109916368 L 235.6445865692097 537.8530465949821 L 237.98355413430792 538.0442054958183 L 240.32252169940614 536.5149342891278 L 242.66148926450438 537.4707287933095 L 245.00045682960257 537.6618876941458 L 247.3394243947008 537.0884109916368 L 249.67839195979903 537.4707287933095 L 252.01735952489724 536.3237753882916 L 254.35632708999546 537.6618876941458 L 256.6952946550937 538.0442054958183 L 259.03426222019186 537.6618876941458 L 261.3732297852901 537.8530465949821 L 263.71219735038835 537.8530465949821 L 266.05116491548654 534.7945041816009 L 268.3901324805848 535.9414575866189 L 270.72910004568297 537.2795698924731 L 273.0680676107812 537.4707287933095 L 275.4070351758794 536.8972520908005 L 277.74600274097764 538.0442054958183 L 280.08497030607583 537.6618876941458 L 282.4239378711741 537.8530465949821 L 284.76290543627226 537.8530465949821 L 287.1018730013705 538.6176821983273 L 289.44084056646875 538.2353643966547 L 291.77980813156694 538.426523297491 L 294.1187756966652 537.4707287933095 L 296.45774326176337 538.2353643966547 L 298.7967108268616 537.4707287933095 L 301.1356783919598 538.6176821983273 L 303.47464595705804 538.8088410991637 L 305.81361352215623 537.4707287933095 L 308.1525810872545 537.4707287933095 L 310.4915486523527 538.0442054958183 L 312.8305162174509 538.0442054958183 L 315.16948378254915 536.7060931899641 L 317.50845134764734 538.426523297491 L 319.8474189127456 538.426523297491 L 322.18638647784377 538.2353643966547 L 324.525354042942 538.426523297491 L 326.8643216080402 537.8530465949821 L 329.20328917313844 538.8088410991637 L 331.5422567382367 538.426523297491 L 333.8812243033349 538.426523297491 L 336.2201918684331 538.426523297491 L 338.5591594335313 538.426523297491 L 340.89812699862955 538.6176821983273 L 343.23709456372774 538.426523297491 L 345.576062128826 538.426523297491 L 347.91502969392417 537.6618876941458 L 350.2539972590224 538.8088410991637 L 352.5929648241206 538.426523297491 L 354.93193238921884 538.8088410991637 L 357.2708999543171 537.2795698924731 L 359.6098675194153 538.8088410991637 L 361.9488350845135 537.6618876941458 L 364.2878026496117 538.6176821983273 L 366.62677021470995 538.8088410991637 L 368.96573777980814 539 L 371.3047053449064 538.2353643966547 L 373.64367291000457 537.8530465949821 L 375.9826404751028 538.426523297491 L 378.321608040201 538.6176821983273 L 380.66057560529924 538.2353643966547 L 382.9995431703975 538.2353643966547 L 385.3385107354957 538.8088410991637 L 387.67747830059386 538.0442054958183 L 390.0164458656921 538.6176821983273 L 392.35541343079035 537.8530465949821 L 394.69438099588854 539 L 397.0333485609868 538.6176821983273 L 399.37231612608497 538.8088410991637 L 401.7112836911832 538.2353643966547 L 404.0502512562814 538.0442054958183 L 406.38921882137964 538.426523297491 L 408.7281863864779 538.426523297491 L 411.0671539515761 538.0442054958183 L 413.40612151667426 538.6176821983273 L 415.7450890817725 538.426523297491 L 418.08405664687075 538.2353643966547 L 420.42302421196894 539 L 422.7619917770672 538.6176821983273 L 425.10095934216537 538.0442054958183 L 427.4399269072636 538.8088410991637 L 429.7788944723618 538.0442054958183 L 432.11786203746004 537.8530465949821 L 434.4568296025583 538.0442054958183 L 436.7957971676565 538.426523297491 L 439.13476473275466 538.6176821983273 L 441.4737322978529 538.6176821983273 L 443.81269986295115 538.426523297491 L 446.15166742804934 538.8088410991637 L 448.4906349931476 538.6176821983273 L 450.8296025582458 539 L 453.168570123344 538.8088410991637 L 455.5075376884422 538.0442054958183 L 457.84650525354044 538.2353643966547 L 460.1854728186387 538.2353643966547 L 462.5244403837369 537.8530465949821 L 464.86340794883506 538.8088410991637 L 467.2023755139333 537.6618876941458 L 469.54134307903155 539 L 471.88031064412974 537.6618876941458 L 474.219278209228 538.0442054958183 L 476.5582457743262 537.8530465949821 L 478.8972133394244 537.6618876941458 L 481.2361809045226 538.6176821983273 L 483.57514846962084 536.5149342891278 L 485.9141160347191 538.6176821983273 L 488.2530835998173 537.0884109916368 L 490.59205116491546 538.2353643966547 L 492.9310187300137 538.0442054958183 L 495.26998629511195 536.3237753882916 L 497.60895386021014 538.2353643966547 L 499.9479214253084 538.6176821983273 L 502.2868889904066 538.426523297491 L 504.6258565555048 538.6176821983273 L 506.964824120603 538.2353643966547 L 509.30379168570124 537.8530465949821 L 511.6427592507995 537.8530465949821 L 513.9817268158977 537.2795698924731 L 516.3206943809959 537.8530465949821 L 518.659661946094 537.8530465949821 L 520.9986295111923 538.2353643966547 L 523.3375970762905 537.0884109916368 L 525.6765646413887 538.6176821983273 L 528.015532206487 538.6176821983273 L 530.3544997715852 538.2353643966547 L 532.6934673366834 535.5591397849462 L 535.0324349017817 538.0442054958183 L 537.3714024668799 538.8088410991637 L 539.7103700319781 538.6176821983273 L 542.0493375970763 538.426523297491 L 544.3883051621744 538.2353643966547 L 546.7272727272727 536.5149342891278" stroke-linejoin="bevel" stroke-miterlimit="10" stroke-width="2"/></g></g></g><g clip-path="url(#IoNHUUTeuUGG)"><g><g><path fill="none" stroke="none"/><path fill="none" stroke="#A6CEE3" paint-order="fill stroke markers" d=" M 81.27272727272731 318.5937873357228 L 83.61169483782552 302.7275985663083 L 85.95066240292374 291.6403823178017 L 88.28962996802196 310.3739545997611 L 90.62859753312017 280.93548387096774 L 92.96756509821839 301.0071684587814 L 95.3065326633166 341.53285543608126 L 97.64550022841485 285.7144563918758 L 99.98446779351306 295.4635603345281 L 102.32343535861128 335.60692951015534 L 104.6624029237095 291.831541218638 L 107.00137048880771 298.90442054958186 L 109.34033805390592 335.60692951015534 L 111.67930561900414 285.9056152927121 L 114.01827318410236 287.43488649940264 L 116.35724074920057 346.8853046594982 L 118.69620831429879 304.8303464755078 L 121.035175879397 295.2724014336918 L 123.37414344449525 351.28195937873363 L 125.71311100959346 301.77180406212665 L 128.05207857469168 300.0513739545998 L 130.3910461397899 341.72401433691755 L 132.7300137048881 302.53643966547196 L 135.06898126998632 319.93189964157705 L 137.40794883508454 359.69295101553166 L 139.74691640018276 315.5352449223417 L 142.08588396528097 337.1362007168459 L 144.4248515303792 331.5925925925926 L 146.76381909547743 329.29868578255673 L 149.10278666057565 331.5925925925926 L 151.44175422567386 358.9283154121864 L 153.78072179077208 330.82795698924735 L 156.1196893558703 331.21027479092 L 158.4586569209685 353.9581839904421 L 160.79762448606672 338.6654719235365 L 163.13659205116494 348.98805256869775 L 165.47555961626315 352.81123058542414 L 167.81452718136137 343.06212664277183 L 170.1534947464596 352.62007168458786 L 172.49246231155783 370.78016726403825 L 174.83142987665605 357.5902031063322 L 177.17039744175426 341.341696535245 L 179.50936500685248 353.5758661887694 L 181.8483325719507 310.1827956989248 L 184.1873001370489 354.14934289127837 L 186.52626770214712 357.5902031063322 L 188.86523526724534 288.1995221027479 L 191.20420283234358 295.2724014336918 L 193.54317039744177 382.4408602150538 L 195.88213796254 318.9761051373955 L 198.2211055276382 335.03345280764637 L 200.56007309273645 377.27956989247315 L 202.89904065783466 363.7072879330944 L 205.23800822293288 370.2066905615293 L 207.5769757880311 388.1756272401434 L 209.9159433531293 368.86857825567506 L 212.25491091822752 388.557945041816 L 214.59387848332574 403.468339307049 L 216.93284604842398 382.8231780167264 L 219.27181361352217 386.07287933094386 L 221.6107811786204 376.8972520908005 L 223.9497487437186 392.76344086021504 L 226.28871630881684 401.74790919952216 L 228.62768387391506 417.99641577060936 L 230.96665143901328 387.41099163679814 L 233.3056190041115 401.1744324970132 L 235.6445865692097 398.4982078853047 L 237.98355413430792 385.11708482676227 L 240.32252169940614 392.1899641577061 L 242.66148926450438 406.3357228195938 L 245.00045682960257 411.11469534050184 L 247.3394243947008 409.9677419354839 L 249.67839195979903 415.8936678614098 L 252.01735952489724 412.0704898446834 L 254.35632708999546 420.09916367980884 L 256.6952946550937 422.77538829151734 L 259.03426222019186 400.6009557945042 L 261.3732297852901 412.2616487455197 L 263.71219735038835 419.52568697729987 L 266.05116491548654 219.00000000000006 L 268.3901324805848 231.23416965352453 L 270.72910004568297 410.3500597371565 L 273.0680676107812 399.26284348865 L 275.4070351758794 434.43608124253285 L 277.74600274097764 433.6714456391876 L 280.08497030607583 427.1720430107527 L 282.4239378711741 434.0537634408602 L 284.76290543627226 428.5101553166069 L 287.1018730013705 445.1409796893668 L 289.44084056646875 449.34647550776583 L 291.77980813156694 444.3763440860215 L 294.1187756966652 451.44922341696537 L 296.45774326176337 448.1995221027479 L 298.7967108268616 441.70011947431306 L 301.1356783919598 447.05256869773 L 303.47464595705804 447.43488649940264 L 305.81361352215623 447.81720430107526 L 308.1525810872545 467.50657108721623 L 310.4915486523527 460.05137395459974 L 312.8305162174509 432.9068100358423 L 315.16948378254915 421.6284348864994 L 317.50845134764734 443.9940262843489 L 319.8474189127456 433.2891278375149 L 322.18638647784377 457.18399044205495 L 324.525354042942 448.39068100358423 L 326.8643216080402 454.6989247311828 L 329.20328917313844 457.18399044205495 L 331.5422567382367 439.97968936678615 L 333.8812243033349 447.6260454002389 L 336.2201918684331 461.77180406212665 L 338.5591594335313 469.22700119474314 L 340.89812699862955 461.77180406212665 L 343.23709456372774 463.68339307048984 L 345.576062128826 470.18279569892474 L 347.91502969392417 467.6977299880526 L 350.2539972590224 458.52210274790923 L 352.5929648241206 460.05137395459974 L 354.93193238921884 469.22700119474314 L 357.2708999543171 467.1242532855436 L 359.6098675194153 461.77180406212665 L 361.9488350845135 475.9175627240144 L 364.2878026496117 468.65352449223417 L 366.62677021470995 480.69653524492236 L 368.96573777980814 482.60812425328555 L 371.3047053449064 472.47670250896056 L 373.64367291000457 464.8303464755078 L 375.9826404751028 482.0346475507766 L 378.321608040201 477.6379928315412 L 380.66057560529924 479.1672640382318 L 382.9995431703975 468.8446833930705 L 385.3385107354957 474.77060931899643 L 387.67747830059386 481.078853046595 L 390.0164458656921 493.5041816009558 L 392.35541343079035 476.299880525687 L 394.69438099588854 478.97610513739545 L 397.0333485609868 474.5794504181601 L 399.37231612608497 478.02031063321385 L 401.7112836911832 480.31421744324973 L 404.0502512562814 489.4898446833931 L 406.38921882137964 483.56391875746715 L 408.7281863864779 481.4611708482676 L 411.0671539515761 482.4169653524492 L 413.40612151667426 488.5340501792115 L 415.7450890817725 483.9462365591398 L 418.08405664687075 480.31421744324973 L 420.42302421196894 488.7252090800478 L 422.7619917770672 483.1816009557945 L 425.10095934216537 480.1230585424134 L 427.4399269072636 485.0931899641577 L 429.7788944723618 488.9163679808841 L 432.11786203746004 486.81362007168457 L 434.4568296025583 486.43130227001194 L 436.7957971676565 482.60812425328555 L 439.13476473275466 495.03345280764637 L 441.4737322978529 488.9163679808841 L 443.81269986295115 492.1660692951016 L 446.15166742804934 488.7252090800478 L 448.4906349931476 487.38709677419354 L 450.8296025582458 481.84348864994024 L 453.168570123344 487.38709677419354 L 455.5075376884422 490.636798088411 L 457.84650525354044 477.4468339307049 L 460.1854728186387 494.0776583034648 L 462.5244403837369 488.7252090800478 L 464.86340794883506 493.1218637992832 L 467.2023755139333 489.8721624850657 L 469.54134307903155 494.0776583034648 L 471.88031064412974 489.10752688172045 L 474.219278209228 484.1373954599761 L 476.5582457743262 495.03345280764637 L 478.8972133394244 495.60692951015534 L 481.2361809045226 495.7980884109916 L 483.57514846962084 488.34289127837513 L 485.9141160347191 496.56272401433694 L 488.2530835998173 492.35722819593786 L 490.59205116491546 496.3715651135006 L 492.9310187300137 497.1362007168459 L 495.26998629511195 495.60692951015534 L 497.60895386021014 501.1505376344086 L 499.9479214253084 503.06212664277183 L 502.2868889904066 487.0047789725209 L 504.6258565555048 492.5483870967742 L 506.964824120603 487.0047789725209 L 509.30379168570124 488.5340501792115 L 511.6427592507995 485.85782556750297 L 513.9817268158977 491.2102747909199 L 516.3206943809959 480.88769414575864 L 518.659661946094 488.7252090800478 L 520.9986295111923 501.1505376344086 L 523.3375970762905 496.7538829151732 L 525.6765646413887 500.194743130227 L 528.015532206487 498.6654719235364 L 530.3544997715852 497.51851851851853 L 532.6934673366834 497.7096774193548 L 535.0324349017817 492.35722819593786 L 537.3714024668799 506.5029868578256 L 539.7103700319781 499.62126642771807 L 542.0493375970763 500.9593787335723 L 544.3883051621744 496.7538829151732 L 546.7272727272727 497.90083632019116" stroke-linejoin="bevel" stroke-miterlimit="10" stroke-width="2"/></g></g></g><g clip-path="url(#IXKKTSoMVnBM)"><g><g><path fill="none" stroke="none"/><path fill="none" stroke="#B2DF8A" paint-order="fill stroke markers" d=" M 81.27272727272731 412.0704898446834 L 83.61169483782552 387.7933094384707 L 85.95066240292374 396.58661887694143 L 88.28962996802196 404.2329749103943 L 90.62859753312017 397.35125448028674 L 92.96756509821839 406.5268817204301 L 95.3065326633166 414.55555555555554 L 97.64550022841485 378.23536439665475 L 99.98446779351306 385.8817204301075 L 102.32343535861128 408.82078853046596 L 104.6624029237095 393.52807646356035 L 107.00137048880771 401.1744324970132 L 109.34033805390592 408.82078853046596 L 111.67930561900414 383.5878136200717 L 114.01827318410236 395.2485065710872 L 116.35724074920057 423.5400238948626 L 118.69620831429879 407.10035842293905 L 121.035175879397 402.89486260454004 L 123.37414344449525 432.52449223416966 L 125.71311100959346 409.01194743130225 L 128.05207857469168 396.39545997610514 L 130.3910461397899 424.3046594982079 L 132.7300137048881 403.468339307049 L 135.06898126998632 418.5698924731183 L 137.40794883508454 432.33333333333337 L 139.74691640018276 418.7610513739546 L 142.08588396528097 419.3345280764636 L 144.4248515303792 431.7598566308244 L 146.76381909547743 425.45161290322585 L 149.10278666057565 424.4958183990442 L 151.44175422567386 441.5089605734767 L 153.78072179077208 424.11350059737157 L 156.1196893558703 428.89247311827955 L 158.4586569209685 429.0836320191159 L 160.79762448606672 418.7610513739546 L 163.13659205116494 425.2604540023895 L 165.47555961626315 426.2162485065711 L 167.81452718136137 428.1278375149343 L 170.1534947464596 431.56869772998806 L 172.49246231155783 439.2150537634409 L 174.83142987665605 436.5388291517324 L 177.17039744175426 426.2162485065711 L 179.50936500685248 434.24492234169657 L 181.8483325719507 409.5854241338112 L 184.1873001370489 434.24492234169657 L 186.52626770214712 428.70131421744327 L 188.86523526724534 389.131421744325 L 191.20420283234358 383.9701314217443 L 193.54317039744177 436.72998805256873 L 195.88213796254 405.7622461170848 L 198.2211055276382 401.74790919952216 L 200.56007309273645 441.31780167264037 L 202.89904065783466 440.3620071684588 L 205.23800822293288 433.48028673835125 L 207.5769757880311 448.77299880525686 L 209.9159433531293 439.5973715651135 L 212.25491091822752 459.0955794504182 L 214.59387848332574 455.6547192353644 L 216.93284604842398 447.6260454002389 L 219.27181361352217 450.8757467144564 L 221.6107811786204 452.97849462365593 L 223.9497487437186 458.90442054958186 L 226.28871630881684 461.1983273596177 L 228.62768387391506 453.93428912783753 L 230.96665143901328 453.7431302270012 L 233.3056190041115 461.58064516129036 L 235.6445865692097 462.72759856630825 L 237.98355413430792 458.3309438470729 L 240.32252169940614 458.13978494623655 L 242.66148926450438 462.5364396654719 L 245.00045682960257 458.13978494623655 L 247.3394243947008 462.3452807646356 L 249.67839195979903 467.8888888888889 L 252.01735952489724 478.5937873357228 L 254.35632708999546 467.1242532855436 L 256.6952946550937 476.10872162485066 L 259.03426222019186 467.1242532855436 L 261.3732297852901 458.52210274790923 L 263.71219735038835 472.09438470728793 L 266.05116491548654 329.29868578255673 L 268.3901324805848 313.24133811230587 L 270.72910004568297 465.02150537634407 L 273.0680676107812 467.31541218637994 L 275.4070351758794 474.9617682198327 L 277.74600274097764 474.5794504181601 L 280.08497030607583 485.6666666666667 L 282.4239378711741 485.6666666666667 L 284.76290543627226 476.10872162485066 L 287.1018730013705 487.5782556750299 L 289.44084056646875 491.5925925925926 L 291.77980813156694 485.28434886499406 L 294.1187756966652 489.8721624850657 L 296.45774326176337 486.24014336917566 L 298.7967108268616 491.01911589008364 L 301.1356783919598 489.10752688172045 L 303.47464595705804 491.40143369175627 L 305.81361352215623 493.6953405017921 L 308.1525810872545 500.194743130227 L 310.4915486523527 490.2544802867384 L 312.8305162174509 480.505376344086 L 315.16948378254915 471.9032258064516 L 317.50845134764734 493.5041816009558 L 319.8474189127456 473.81481481481484 L 322.18638647784377 500.76821983273595 L 324.525354042942 495.7980884109916 L 326.8643216080402 493.31302270011946 L 329.20328917313844 499.0477897252091 L 331.5422567382367 494.0776583034648 L 333.8812243033349 494.26881720430106 L 336.2201918684331 495.98924731182797 L 338.5591594335313 498.85663082437276 L 340.89812699862955 496.3715651135006 L 343.23709456372774 494.65113500597374 L 345.576062128826 498.2831541218638 L 347.91502969392417 500.3859020310633 L 350.2539972590224 496.56272401433694 L 352.5929648241206 498.6654719235364 L 354.93193238921884 503.2532855436081 L 357.2708999543171 492.73954599761055 L 359.6098675194153 501.53285543608126 L 361.9488350845135 500.76821983273595 L 364.2878026496117 499.0477897252091 L 366.62677021470995 507.8410991636798 L 368.96573777980814 504.0179211469534 L 371.3047053449064 500.0035842293907 L 373.64367291000457 501.53285543608126 L 375.9826404751028 510.5173237753883 L 378.321608040201 510.326164874552 L 380.66057560529924 509.5615292712067 L 382.9995431703975 509.3703703703704 L 385.3385107354957 501.3416965352449 L 387.67747830059386 504.0179211469534 L 390.0164458656921 506.5029868578256 L 392.35541343079035 504.2090800477897 L 394.69438099588854 507.6499402628435 L 397.0333485609868 505.1648745519713 L 399.37231612608497 504.5913978494624 L 401.7112836911832 507.6499402628435 L 404.0502512562814 501.3416965352449 L 406.38921882137964 509.94384707287935 L 408.7281863864779 506.6941457586619 L 411.0671539515761 503.8267622461171 L 413.40612151667426 511.2819593787336 L 415.7450890817725 511.85543608124254 L 418.08405664687075 502.2974910394265 L 420.42302421196894 509.17921146953404 L 422.7619917770672 507.07646356033456 L 425.10095934216537 506.6941457586619 L 427.4399269072636 509.5615292712067 L 429.7788944723618 515.2962962962963 L 432.11786203746004 512.2377538829152 L 434.4568296025583 506.1206690561529 L 436.7957971676565 509.3703703703704 L 439.13476473275466 515.2962962962963 L 441.4737322978529 510.326164874552 L 443.81269986295115 515.678614097969 L 446.15166742804934 511.09080047789723 L 448.4906349931476 511.85543608124254 L 450.8296025582458 506.5029868578256 L 453.168570123344 511.6642771804062 L 455.5075376884422 513.9581839904421 L 457.84650525354044 508.7968936678614 L 460.1854728186387 512.2377538829152 L 462.5244403837369 510.5173237753883 L 464.86340794883506 509.752688172043 L 467.2023755139333 515.4874551971326 L 469.54134307903155 516.6344086021505 L 471.88031064412974 509.94384707287935 L 474.219278209228 508.98805256869775 L 476.5582457743262 513.3847072879331 L 478.8972133394244 517.0167264038232 L 481.2361809045226 518.1636798088412 L 483.57514846962084 509.5615292712067 L 485.9141160347191 512.0465949820789 L 488.2530835998173 510.89964157706095 L 490.59205116491546 513.7670250896058 L 492.9310187300137 513.9581839904421 L 495.26998629511195 513.9581839904421 L 497.60895386021014 519.884109916368 L 499.9479214253084 519.310633213859 L 502.2868889904066 512.6200716845879 L 504.6258565555048 511.85543608124254 L 506.964824120603 510.5173237753883 L 509.30379168570124 509.752688172043 L 511.6427592507995 513.1935483870968 L 513.9817268158977 509.5615292712067 L 516.3206943809959 507.4587813620072 L 518.659661946094 509.94384707287935 L 520.9986295111923 517.7813620071685 L 523.3375970762905 511.4731182795699 L 525.6765646413887 519.884109916368 L 528.015532206487 511.09080047789723 L 530.3544997715852 518.5459976105137 L 532.6934673366834 514.531660692951 L 535.0324349017817 514.1493428912784 L 537.3714024668799 519.5017921146954 L 539.7103700319781 521.6045400238949 L 542.0493375970763 522.7514934289128 L 544.3883051621744 518.1636798088412 L 546.7272727272727 521.2222222222222" stroke-linejoin="bevel" stroke-miterlimit="10" stroke-width="2"/></g></g></g><g><g/><g><path fill="#ffffff" stroke="#e5e5e5" paint-order="fill stroke markers" d=" M 68 38 L 468.078125 38 L 468.078125 193 L 68 193 L 68 38 Z" fill-opacity="0.95" stroke-linejoin="bevel" stroke-miterlimit="10" stroke-opacity="0.5"/><text fill="#444444" stroke="none" font-family="helvetica" font-size="10pt" font-style="normal" font-weight="normal" text-decoration="normal" x="103" y="58" text-anchor="start" dominant-baseline="central">plc124_fluc_rep01_GACTAG.fastqAligned.primary.out_dedup</text><g><path fill="none" stroke="#1F78B4" paint-order="fill stroke markers" d=" M 78 58 L 98 58" stroke-linejoin="bevel" stroke-miterlimit="10" stroke-width="2"/></g><text fill="#444444" stroke="none" font-family="helvetica" font-size="10pt" font-style="normal" font-weight="normal" text-decoration="normal" x="103" y="81" text-anchor="start" dominant-baseline="central">plc124_fluc_rep02_TGCACA.fastqAligned.primary.out_dedup</text><g><path fill="none" stroke="#33A02C" paint-order="fill stroke markers" d=" M 78 81 L 98 81" stroke-linejoin="bevel" stroke-miterlimit="10" stroke-width="2"/></g><text fill="#444444" stroke="none" font-family="helvetica" font-size="10pt" font-style="normal" font-weight="normal" text-decoration="normal" x="103" y="104" text-anchor="start" dominant-baseline="central">plc124_fluc_rep03_TCCTGA.fastqAligned.primary.out_dedup</text><g><path fill="none" stroke="#C51B7D" paint-order="fill stroke markers" d=" M 78 104 L 98 104" stroke-linejoin="bevel" stroke-miterlimit="10" stroke-width="2"/></g><text fill="#444444" stroke="none" font-family="helvetica" font-size="10pt" font-style="normal" font-weight="normal" text-decoration="normal" x="103" y="127" text-anchor="start" dominant-baseline="central">plc124_ut_rep01_TAACCG.fastqAligned.primary.out_dedup</text><g><path fill="none" stroke="#542788" paint-order="fill stroke markers" d=" M 78 127 L 98 127" stroke-linejoin="bevel" stroke-miterlimit="10" stroke-width="2"/></g><text fill="#444444" stroke="none" font-family="helvetica" font-size="10pt" font-style="normal" font-weight="normal" text-decoration="normal" x="103" y="150" text-anchor="start" dominant-baseline="central">plc124_ut_rep02_AGTTAA.fastqAligned.primary.out_dedup</text><g><path fill="none" stroke="#A6CEE3" paint-order="fill stroke markers" d=" M 78 150 L 98 150" stroke-linejoin="bevel" stroke-miterlimit="10" stroke-width="2"/></g><text fill="#444444" stroke="none" font-family="helvetica" font-size="10pt" font-style="normal" font-weight="normal" text-decoration="normal" x="103" y="173" text-anchor="start" dominant-baseline="central">plc124_ut_rep03_GTTCAT.fastqAligned.primary.out_dedup</text><g><path fill="none" stroke="#B2DF8A" paint-order="fill stroke markers" d=" M 78 173 L 98 173" stroke-linejoin="bevel" stroke-miterlimit="10" stroke-width="2"/></g></g></g><g><g fill="#444444"><path fill="" stroke="none" d=""/><g transform="translate(58,23)"><path fill="none" stroke="none"/><text fill="" stroke="none" font-family="helvetica" font-size="10pt" font-style="normal" font-weight="bold" text-decoration="normal" x="0" y="0" text-anchor="start" dominant-baseline="text-after-edge">metagene_counts-STOP_raw</text></g></g></g><g/><g><g fill="#444444"><path fill="none" stroke="black" paint-order="fill stroke markers" d=" M 58 555 L 570 555" stroke-linejoin="bevel" stroke-miterlimit="10"/><path fill="none" stroke="black" paint-order="fill stroke markers" d=" M 74 561 L 74 553" stroke-linejoin="bevel" stroke-miterlimit="10"/><path fill="none" stroke="black" paint-order="fill stroke markers" d=" M 191 561 L 191 553" stroke-linejoin="bevel" stroke-miterlimit="10"/><path fill="none" stroke="black" paint-order="fill stroke markers" d=" M 308 561 L 308 553" stroke-linejoin="bevel" stroke-miterlimit="10"/><path fill="none" stroke="black" paint-order="fill stroke markers" d=" M 425 561 L 425 553" stroke-linejoin="bevel" stroke-miterlimit="10"/><path fill="none" stroke="black" paint-order="fill stroke markers" d=" M 542 561 L 542 553" stroke-linejoin="bevel" stroke-miterlimit="10"/><path fill="none" stroke="black" paint-order="fill stroke markers" d=" M 74 559 L 74 555" stroke-linejoin="bevel" stroke-miterlimit="10"/><path fill="none" stroke="black" paint-order="fill stroke markers" d=" M 98 559 L 98 555" stroke-linejoin="bevel" stroke-miterlimit="10"/><path fill="none" stroke="black" paint-order="fill stroke markers" d=" M 121 559 L 121 555" stroke-linejoin="bevel" stroke-miterlimit="10"/><path fill="none" stroke="black" paint-order="fill stroke markers" d=" M 144 559 L 144 555" stroke-linejoin="bevel" stroke-miterlimit="10"/><path fill="none" stroke="black" paint-order="fill stroke markers" d=" M 168 559 L 168 555" stroke-linejoin="bevel" stroke-miterlimit="10"/><path fill="none" stroke="black" paint-order="fill stroke markers" d=" M 191 559 L 191 555" stroke-linejoin="bevel" stroke-miterlimit="10"/><path fill="none" stroke="black" paint-order="fill stroke markers" d=" M 215 559 L 215 555" stroke-linejoin="bevel" stroke-miterlimit="10"/><path fill="none" stroke="black" paint-order="fill stroke markers" d=" M 238 559 L 238 555" stroke-linejoin="bevel" stroke-miterlimit="10"/><path fill="none" stroke="black" paint-order="fill stroke markers" d=" M 261 559 L 261 555" stroke-linejoin="bevel" stroke-miterlimit="10"/><path fill="none" stroke="black" paint-order="fill stroke markers" d=" M 285 559 L 285 555" stroke-linejoin="bevel" stroke-miterlimit="10"/><path fill="none" stroke="black" paint-order="fill stroke markers" d=" M 308 559 L 308 555" stroke-linejoin="bevel" stroke-miterlimit="10"/><path fill="none" stroke="black" paint-order="fill stroke markers" d=" M 332 559 L 332 555" stroke-linejoin="bevel" stroke-miterlimit="10"/><path fill="none" stroke="black" paint-order="fill stroke markers" d=" M 355 559 L 355 555" stroke-linejoin="bevel" stroke-miterlimit="10"/><path fill="none" stroke="black" paint-order="fill stroke markers" d=" M 378 559 L 378 555" stroke-linejoin="bevel" stroke-miterlimit="10"/><path fill="none" stroke="black" paint-order="fill stroke markers" d=" M 402 559 L 402 555" stroke-linejoin="bevel" stroke-miterlimit="10"/><path fill="none" stroke="black" paint-order="fill stroke markers" d=" M 425 559 L 425 555" stroke-linejoin="bevel" stroke-miterlimit="10"/><path fill="none" stroke="black" paint-order="fill stroke markers" d=" M 448 559 L 448 555" stroke-linejoin="bevel" stroke-miterlimit="10"/><path fill="none" stroke="black" paint-order="fill stroke markers" d=" M 472 559 L 472 555" stroke-linejoin="bevel" stroke-miterlimit="10"/><path fill="none" stroke="black" paint-order="fill stroke markers" d=" M 495 559 L 495 555" stroke-linejoin="bevel" stroke-miterlimit="10"/><path fill="none" stroke="black" paint-order="fill stroke markers" d=" M 519 559 L 519 555" stroke-linejoin="bevel" stroke-miterlimit="10"/><path fill="none" stroke="black" paint-order="fill stroke markers" d=" M 542 559 L 542 555" stroke-linejoin="bevel" stroke-miterlimit="10"/><path fill="" stroke="black" paint-order="fill stroke markers" d=" M 565 559 L 565 555" stroke-linejoin="bevel" stroke-miterlimit="10"/><g transform="translate(74,566) rotate(0,0,0)"><text fill="" stroke="none" font-family="helvetica" font-size="8pt" font-style="normal" font-weight="normal" text-decoration="normal" x="0" y="0" text-anchor="middle" dominant-baseline="hanging">-100</text><g transform="rotate(0,0,0) translate(-74,-566) translate(191,566) rotate(0,0,0)"><text fill="" stroke="none" font-family="helvetica" font-size="8pt" font-style="normal" font-weight="normal" text-decoration="normal" x="0" y="0" text-anchor="middle" dominant-baseline="hanging">-50</text><g transform="rotate(0,0,0) translate(-191,-566) translate(308,566) rotate(0,0,0)"><text fill="" stroke="none" font-family="helvetica" font-size="8pt" font-style="normal" font-weight="normal" text-decoration="normal" x="0" y="0" text-anchor="middle" dominant-baseline="hanging">0</text><g transform="rotate(0,0,0) translate(-308,-566) translate(425,566) rotate(0,0,0)"><text fill="" stroke="none" font-family="helvetica" font-size="8pt" font-style="normal" font-weight="normal" text-decoration="normal" x="0" y="0" text-anchor="middle" dominant-baseline="hanging">50</text><g transform="rotate(0,0,0) translate(-425,-566) translate(542,566) rotate(0,0,0)"><text fill="" stroke="none" font-family="helvetica" font-size="8pt" font-style="normal" font-weight="normal" text-decoration="normal" x="0" y="0" text-anchor="middle" dominant-baseline="hanging">100</text><g transform="rotate(0,0,0) translate(-542,-566) translate(314,584) rotate(0,0,0)"><text fill="" stroke="none" font-family="helvetica" font-size="10pt" font-style="italic" font-weight="normal" text-decoration="normal" x="0" y="0" text-anchor="middle" dominant-baseline="hanging">position from STOP</text><g transform="rotate(0,0,0) translate(-314,-584)"/></g></g></g></g></g></g></g></g><g><g fill="#444444"><path fill="none" stroke="black" paint-order="fill stroke markers" d=" M 58 555 L 58 203" stroke-linejoin="bevel" stroke-miterlimit="10"/><path fill="none" stroke="black" paint-order="fill stroke markers" d=" M 52 539 L 60 539" stroke-linejoin="bevel" stroke-miterlimit="10"/><path fill="none" stroke="black" paint-order="fill stroke markers" d=" M 52 443 L 60 443" stroke-linejoin="bevel" stroke-miterlimit="10"/><path fill="none" stroke="black" paint-order="fill stroke markers" d=" M 52 348 L 60 348" stroke-linejoin="bevel" stroke-miterlimit="10"/><path fill="none" stroke="black" paint-order="fill stroke markers" d=" M 52 252 L 60 252" stroke-linejoin="bevel" stroke-miterlimit="10"/><path fill="none" stroke="black" paint-order="fill stroke markers" d=" M 54 539 L 58 539" stroke-linejoin="bevel" stroke-miterlimit="10"/><path fill="none" stroke="black" paint-order="fill stroke markers" d=" M 54 520 L 58 520" stroke-linejoin="bevel" stroke-miterlimit="10"/><path fill="none" stroke="black" paint-order="fill stroke markers" d=" M 54 501 L 58 501" stroke-linejoin="bevel" stroke-miterlimit="10"/><path fill="none" stroke="black" paint-order="fill stroke markers" d=" M 54 482 L 58 482" stroke-linejoin="bevel" stroke-miterlimit="10"/><path fill="none" stroke="black" paint-order="fill stroke markers" d=" M 54 463 L 58 463" stroke-linejoin="bevel" stroke-miterlimit="10"/><path fill="none" stroke="black" paint-order="fill stroke markers" d=" M 54 443 L 58 443" stroke-linejoin="bevel" stroke-miterlimit="10"/><path fill="none" stroke="black" paint-order="fill stroke markers" d=" M 54 424 L 58 424" stroke-linejoin="bevel" stroke-miterlimit="10"/><path fill="none" stroke="black" paint-order="fill stroke markers" d=" M 54 405 L 58 405" stroke-linejoin="bevel" stroke-miterlimit="10"/><path fill="none" stroke="black" paint-order="fill stroke markers" d=" M 54 386 L 58 386" stroke-linejoin="bevel" stroke-miterlimit="10"/><path fill="none" stroke="black" paint-order="fill stroke markers" d=" M 54 367 L 58 367" stroke-linejoin="bevel" stroke-miterlimit="10"/><path fill="none" stroke="black" paint-order="fill stroke markers" d=" M 54 348 L 58 348" stroke-linejoin="bevel" stroke-miterlimit="10"/><path fill="none" stroke="black" paint-order="fill stroke markers" d=" M 54 329 L 58 329" stroke-linejoin="bevel" stroke-miterlimit="10"/><path fill="none" stroke="black" paint-order="fill stroke markers" d=" M 54 310 L 58 310" stroke-linejoin="bevel" stroke-miterlimit="10"/><path fill="none" stroke="black" paint-order="fill stroke markers" d=" M 54 290 L 58 290" stroke-linejoin="bevel" stroke-miterlimit="10"/><path fill="none" stroke="black" paint-order="fill stroke markers" d=" M 54 271 L 58 271" stroke-linejoin="bevel" stroke-miterlimit="10"/><path fill="none" stroke="black" paint-order="fill stroke markers" d=" M 54 252 L 58 252" stroke-linejoin="bevel" stroke-miterlimit="10"/><path fill="none" stroke="black" paint-order="fill stroke markers" d=" M 54 233 L 58 233" stroke-linejoin="bevel" stroke-miterlimit="10"/><path fill="" stroke="black" paint-order="fill stroke markers" d=" M 54 214 L 58 214" stroke-linejoin="bevel" stroke-miterlimit="10"/><g transform="translate(47,539) rotate(0,0,0)"><text fill="" stroke="none" font-family="helvetica" font-size="8pt" font-style="normal" font-weight="normal" text-decoration="normal" x="0" y="0" text-anchor="end" dominant-baseline="central">0</text><g transform="rotate(0,0,0) translate(-47,-539) translate(47,443) rotate(0,0,0)"><text fill="" stroke="none" font-family="helvetica" font-size="8pt" font-style="normal" font-weight="normal" text-decoration="normal" x="0" y="0" text-anchor="end" dominant-baseline="central">500</text><g transform="rotate(0,0,0) translate(-47,-443) translate(47,348) rotate(0,0,0)"><text fill="" stroke="none" font-family="helvetica" font-size="8pt" font-style="normal" font-weight="normal" text-decoration="normal" x="0" y="0" text-anchor="end" dominant-baseline="central">1000</text><g transform="rotate(0,0,0) translate(-47,-348) translate(47,252) rotate(0,0,0)"><text fill="" stroke="none" font-family="helvetica" font-size="8pt" font-style="normal" font-weight="normal" text-decoration="normal" x="0" y="0" text-anchor="end" dominant-baseline="central">1500</text><g transform="rotate(0,0,0) translate(-47,-252) translate(15,379) rotate(-90,0,0)"><text fill="" stroke="none" font-family="helvetica" font-size="10pt" font-style="italic" font-weight="normal" text-decoration="normal" x="0" y="0" text-anchor="middle" dominant-baseline="alphabetic">5'seq raw counts</text><g transform="rotate(90,0,0) translate(-15,-379)"/></g></g></g></g></g></g></g><g clip-path="url(#oDbeXAAlMpCB)"><g/></g></g></g></svg>