<svg version="1.1" xmlns="http://www.w3.org/2000/svg" xmlns:xlink="http://www.w3.org/1999/xlink" width="600" height="600" style="width: 600px; height: 600px;"><defs><clipPath id="XTTlGomEmwGR"><path fill="none" stroke="none" d=" M 58 203 L 570 203 L 570 555 L 58 555 L 58 203 Z"/></clipPath><clipPath id="qxpzbcUrdaEX"><path fill="none" stroke="none" d=" M 58 203 L 570 203 L 570 555 L 58 555 L 58 203 Z"/></clipPath><clipPath id="IeEiTxSaTdKh"><path fill="none" stroke="none" d=" M 58 203 L 570 203 L 570 555 L 58 555 L 58 203 Z"/></clipPath><clipPath id="OQTfydbGiqaV"><path fill="none" stroke="none" d=" M 58 203 L 570 203 L 570 555 L 58 555 L 58 203 Z"/></clipPath><clipPath id="IGnkWNFZbiKO"><path fill="none" stroke="none" d=" M 58 203 L 570 203 L 570 555 L 58 555 L 58 203 Z"/></clipPath><clipPath id="iDxZkWgROMET"><path fill="none" stroke="none" d=" M 58 203 L 570 203 L 570 555 L 58 555 L 58 203 Z"/></clipPath><clipPath id="DHnpkCMMsKBA"><path fill="none" stroke="none" d=" M 58 203 L 570 203 L 570 555 L 58 555 L 58 203 Z"/></clipPath><clipPath id="WrziXixcZCch"><path fill="none" stroke="none" d=" M 58 203 L 570 203 L 570 555 L 58 555 L 58 203 Z"/></clipPath><clipPath id="RPXsnuCtOQmQ"><path fill="none" stroke="none" d=" M 58 203 L 570 203 L 570 555 L 58 555 L 58 203 Z"/></clipPath></defs><g><g/><g/><g/><g transform="scale(1,1) translate(0.5,0.5)"><rect fill="#FFFFFF" stroke="none" x="0" y="0" width="600" height="600"/><rect fill="#ffffff" stroke="none" x="0" y="0" width="600" height="600"/><rect fill="#FFFFFF" stroke="none" x="58" y="203" width="512" height="352"/><rect fill="#ffffff" stroke="none" x="58" y="203" width="512" height="352"/><g><rect fill="none" stroke="#e5e5e5" x="58" y="203" width="512" height="352" stroke-linejoin="bevel" stroke-miterlimit="10"/></g><g clip-path="url(#XTTlGomEmwGR)"><g><g><path fill="none" stroke="#e5e5e5" paint-order="fill stroke markers" d=" M 81 555 L 81 203" stroke-linejoin="bevel" stroke-miterlimit="10"/><path fill="none" stroke="#e5e5e5" paint-order="fill stroke markers" d=" M 198 555 L 198 203" stroke-linejoin="bevel" stroke-miterlimit="10"/><path fill="none" stroke="#e5e5e5" paint-order="fill stroke markers" d=" M 315 555 L 315 203" stroke-linejoin="bevel" stroke-miterlimit="10"/><path fill="none" stroke="#e5e5e5" paint-order="fill stroke markers" d=" M 432 555 L 432 203" stroke-linejoin="bevel" stroke-miterlimit="10"/><path fill="none" stroke="#e5e5e5" paint-order="fill stroke markers" d=" M 549 555 L 549 203" stroke-linejoin="bevel" stroke-miterlimit="10"/></g></g></g><g clip-path="url(#qxpzbcUrdaEX)"><g><g><path fill="none" stroke="#e5e5e5" paint-order="fill stroke markers" d=" M 58 539 L 570 539" stroke-linejoin="bevel" stroke-miterlimit="10"/><path fill="none" stroke="#e5e5e5" paint-order="fill stroke markers" d=" M 58 489 L 570 489" stroke-linejoin="bevel" stroke-miterlimit="10"/><path fill="none" stroke="#e5e5e5" paint-order="fill stroke markers" d=" M 58 438 L 570 438" stroke-linejoin="bevel" stroke-miterlimit="10"/><path fill="none" stroke="#e5e5e5" paint-order="fill stroke markers" d=" M 58 387 L 570 387" stroke-linejoin="bevel" stroke-miterlimit="10"/><path fill="none" stroke="#e5e5e5" paint-order="fill stroke markers" d=" M 58 337 L 570 337" stroke-linejoin="bevel" stroke-miterlimit="10"/><path fill="none" stroke="#e5e5e5" paint-order="fill stroke markers" d=" M 58 286 L 570 286" stroke-linejoin="bevel" stroke-miterlimit="10"/><path fill="none" stroke="#e5e5e5" paint-order="fill stroke markers" d=" M 58 236 L 570 236" stroke-linejoin="bevel" stroke-miterlimit="10"/></g></g></g><g clip-path="url(#IeEiTxSaTdKh)"><g><g><path fill="none" stroke="none"/><path fill="none" stroke="#1F78B4" paint-order="fill stroke markers" d=" M 81.27272727272728 525.7551342812006 L 83.6116948378255 523.7330173775672 L 85.95066240292371 520.5987361769353 L 88.28962996802193 522.7219589257504 L 90.62859753312014 518.7788309636651 L 92.96756509821836 522.3175355450237 L 95.30653266331657 518.8799368088468 L 97.64550022841479 518.172195892575 L 99.984467793513 517.0600315955767 L 102.32343535861122 517.26224328594 L 104.66240292370946 518.9810426540284 L 107.00137048880768 518.3744075829384 L 109.3403380539059 522.1153238546603 L 111.67930561900411 516.0489731437599 L 114.01827318410233 515.6445497630332 L 116.35724074920054 517.6666666666666 L 118.69620831429876 515.3412322274881 L 121.03517587939697 514.6334913112164 L 123.37414344449519 514.7345971563981 L 125.7131110095934 516.65560821485 L 128.05207857469162 510.2859399684044 L 130.39104613978986 519.4865718799368 L 132.73001370488808 512.0047393364929 L 135.0689812699863 515.2401263823065 L 137.4079488350845 516.958925750395 L 139.74691640018273 510.7914691943128 L 142.08588396528094 520.4976303317536 L 144.42485153037916 508.16271721958924 L 146.76381909547737 512.1058451816746 L 149.1027866605756 509.47709320695105 L 151.4417542256738 515.7456556082149 L 153.78072179077205 509.57819905213273 L 156.11968935587026 508.2638230647709 L 158.45865692096848 510.18483412322274 L 160.7976244860667 505.5339652448657 L 163.1365920511649 506.6461295418641 L 165.47555961626313 506.1406003159558 L 167.81452718136134 509.8815165876777 L 170.15349474645956 498.8609794628752 L 172.49246231155777 506.34281200631915 L 174.831429876656 500.8830963665087 L 177.1703974417542 497.14218009478674 L 179.50936500685245 493.6034755134281 L 181.84833257195066 499.56872037914695 L 184.18730013704888 489.15481832543446 L 186.5262677021471 495.7266982622433 L 188.8652352672453 490.5703001579779 L 191.20420283234353 490.26698262243286 L 193.54317039744174 482.07740916271723 L 195.88213796253996 488.5481832543444 L 198.2211055276382 485.11058451816746 L 200.5600730927364 486.32385466034754 L 202.89904065783463 483.99842022116906 L 205.23800822293282 487.23380726698264 L 207.57697578803106 482.785150078989 L 209.91594335312928 472.06793048973145 L 212.2549109182275 479.44865718799366 L 214.5938784833257 471.15797788309635 L 216.93284604842393 475.9099526066351 L 219.27181361352214 484.70616113744074 L 221.61078117862036 471.3601895734597 L 223.9497487437186 471.66350710900474 L 226.2887163088168 466.50710900473933 L 228.62768387391503 470.1469194312796 L 230.96665143901322 478.2353870458136 L 233.30561900411146 473.18009478672985 L 235.64458656920968 467.7203791469194 L 237.9835541343079 458.8230647709321 L 240.3225216994061 470.2480252764613 L 242.66148926450433 454.98104265402844 L 245.00045682960254 448.20695102685625 L 247.33942439470076 458.01421800947867 L 249.678391959799 452.5545023696683 L 252.0173595248972 449.72353870458136 L 254.35632708999543 461.3507109004739 L 256.6952946550936 453.36334913112165 L 259.03426222019186 458.51974723538706 L 261.37322978529005 446.8925750394945 L 263.7121973503883 442.4439178515008 L 266.05116491548654 446.99368088467617 L 268.3901324805847 455.2843601895735 L 270.72910004568297 443.6571879936809 L 273.06806761078116 446.2859399684044 L 275.4070351758794 455.78988941548187 L 277.7460027409776 448.20695102685625 L 280.08497030607583 459.9352290679305 L 282.423937871174 452.25118483412325 L 284.76290543627226 455.48657187993683 L 287.10187300137045 454.3744075829384 L 289.4408405664687 453.36334913112165 L 291.77980813156694 453.0600315955766 L 294.1187756966651 453.46445497630333 L 296.45774326176337 451.9478672985782 L 298.79671082686156 445.07266982622434 L 301.1356783919598 456.49763033175356 L 303.474645957058 461.4518167456556 L 305.81361352215623 452.95892575039494 L 308.1525810872544 469.2369668246446 L 310.49154865235266 480.35860979462876 L 312.83051621745085 457.1042654028436 L 315.1694837825491 409.58451816745657 L 317.50845134764734 472.3712480252765 L 319.8474189127455 484.30173775671403 L 322.18638647784377 496.13112164297 L 324.52535404294196 414.0331753554502 L 326.8643216080402 498.25434439178514 L 329.2032891731384 491.88467614533965 L 331.54225673823663 479.044233807267 L 333.8812243033348 482.38072669826227 L 336.22019186843306 480.6619273301738 L 338.55915943353125 488.4470774091627 L 340.8981269986295 489.96366508688783 L 343.23709456372774 489.4581358609795 L 345.5760621288259 488.24486571879936 L 347.91502969392417 483.695102685624 L 350.25399725902236 484.60505529225907 L 352.5929648241206 487.84044233807265 L 354.9319323892188 484.60505529225907 L 357.27089995431703 488.24486571879936 L 359.6098675194152 491.783570300158 L 361.94883508451346 488.4470774091627 L 364.28780264961165 486.72827804107425 L 366.6267702147099 478.84202211690365 L 368.96573777980814 489.7614533965245 L 371.3047053449063 484.09952606635073 L 373.64367291000457 482.9873617693523 L 375.98264047510276 487.23380726698264 L 378.321608040201 489.6603475513428 L 380.6605756052992 477.4265402843602 L 382.99954317039743 485.0094786729858 L 385.3385107354957 484.60505529225907 L 387.67747830059386 476.71879936808847 L 390.01644586569205 488.6492890995261 L 392.3554134307903 486.5260663507109 L 394.69438099588854 488.6492890995261 L 397.0333485609867 494.4123222748815 L 399.37231612608497 483.59399684044234 L 401.71128369118316 488.4470774091627 L 404.0502512562814 488.042654028436 L 406.3892188213796 496.2322274881517 L 408.72818638647783 481.16745655608213 L 411.0671539515761 490.26698262243286 L 413.40612151667426 487.3349131121643 L 415.74508908177245 479.24644549763036 L 418.0840566468707 480.1563981042654 L 420.42302421196894 486.22274881516586 L 422.7619917770671 485.0094786729858 L 425.10095934216537 487.23380726698264 L 427.43992690726355 491.783570300158 L 429.7788944723618 485.21169036334913 L 432.11786203746 487.436018957346 L 434.45682960255823 479.34755134281204 L 436.7957971676565 482.6840442338073 L 439.13476473275466 477.6287519747235 L 441.47373229785285 484.8072669826224 L 443.8126998629511 473.4834123222749 L 446.15166742804934 490.36808846761454 L 448.4906349931475 486.8293838862559 L 450.8296025582457 472.3712480252765 L 453.168570123344 482.2796208530806 L 455.5075376884422 487.63823064770935 L 457.8465052535404 484.4028436018957 L 460.18547281863863 482.07740916271723 L 462.5244403837369 485.51500789889417 L 464.86340794883506 484.5039494470774 L 467.20237551393325 485.61611374407585 L 469.5413430790315 482.38072669826227 L 471.88031064412974 488.24486571879936 L 474.2192782092279 490.1658767772512 L 476.5582457743261 487.0315955766193 L 478.8972133394244 476.31437598736176 L 481.2361809045226 485.11058451816746 L 483.5751484696208 480.6619273301738 L 485.91411603471903 474.69668246445497 L 488.2530835998173 487.23380726698264 L 490.59205116491546 486.62717219589257 L 492.93101873001365 476.41548183254343 L 495.2699862951119 477.4265402843602 L 497.60895386021014 485.7172195892575 L 499.9479214253083 477.4265402843602 L 502.28688899040657 475.70774091627175 L 504.6258565555048 483.18957345971563 L 506.964824120603 481.97630331753555 L 509.3037916857012 487.53712480252767 L 511.64275925079943 477.22432859399686 L 513.9817268158977 481.6729857819905 L 516.3206943809959 485.7172195892575 L 518.659661946094 483.695102685624 L 520.9986295111923 478.0331753554502 L 523.3375970762905 480.35860979462876 L 525.6765646413887 476.71879936808847 L 528.015532206487 484.2006319115324 L 530.3544997715852 482.48183254344394 L 532.6934673366834 482.48183254344394 L 535.0324349017816 480.0552922590837 L 537.3714024668798 481.57187993680884 L 539.7103700319781 478.2353870458136 L 542.0493375970763 477.5276461295419 L 544.3883051621744 479.8530805687204 L 546.7272727272727 482.5829383886256" stroke-linejoin="bevel" stroke-miterlimit="10" stroke-width="2"/></g></g></g><g clip-path="url(#OQTfydbGiqaV)"><g><g><path fill="none" stroke="none"/><path fill="none" stroke="#33A02C" paint-order="fill stroke markers" d=" M 81.27272727272728 519.4865718799368 L 83.6116948378255 512.4091627172196 L 85.95066240292371 515.8467614533965 L 88.28962996802193 509.3759873617694 L 90.62859753312014 509.07266982622434 L 92.96756509821836 514.2290679304897 L 95.30653266331657 509.57819905213273 L 97.64550022841479 509.78041074249603 L 99.984467793513 511.9036334913112 L 102.32343535861122 508.66824644549763 L 104.66240292370946 507.6571879936809 L 107.00137048880768 508.3649289099526 L 109.3403380539059 504.92733017377566 L 111.67930561900411 506.7472353870458 L 114.01827318410233 500.68088467614535 L 116.35724074920054 506.6461295418641 L 118.69620831429876 507.55608214849923 L 121.03517587939697 501.89415481832543 L 123.37414344449519 504.32069510268565 L 125.7131110095934 502.80410742496053 L 128.05207857469162 500.8830963665087 L 130.39104613978986 507.85939968404426 L 132.73001370488808 503.0063191153239 L 135.0689812699863 498.3554502369668 L 137.4079488350845 502.5007898894155 L 139.74691640018273 502.19747235387047 L 142.08588396528094 503.81516587677726 L 144.42485153037916 495.827804107425 L 146.76381909547737 497.9510268562401 L 149.1027866605756 494.2101105845182 L 151.4417542256738 499.6698262243286 L 153.78072179077205 495.12006319115324 L 156.11968935587026 496.73775671406 L 158.45865692096848 495.01895734597156 L 160.7976244860667 494.1090047393365 L 163.1365920511649 494.4123222748815 L 165.47555961626313 491.48025276461294 L 167.81452718136134 493.8056872037915 L 170.15349474645956 481.47077409162716 L 172.49246231155777 485.4139020537125 L 174.831429876656 477.93206951026855 L 177.1703974417542 476.9210110584518 L 179.50936500685245 474.8988941548183 L 181.84833257195066 476.0110584518168 L 184.18730013704888 465.69826224328597 L 186.5262677021471 463.97946287519744 L 188.8652352672453 466.304897314376 L 191.20420283234353 473.18009478672985 L 193.54317039744174 453.96998420221166 L 195.88213796253996 460.2385466034755 L 198.2211055276382 462.86729857819904 L 200.5600730927364 457.5086887835703 L 202.89904065783463 460.13744075829385 L 205.23800822293282 459.02527646129545 L 207.57697578803106 454.2733017377567 L 209.91594335312928 447.6003159557662 L 212.2549109182275 449.6224328593997 L 214.5938784833257 449.4202211690363 L 216.93284604842393 443.6571879936809 L 219.27181361352214 449.11690363349135 L 221.61078117862036 444.97156398104266 L 223.9497487437186 433.6477093206951 L 226.2887163088168 432.13112164297 L 228.62768387391503 443.1516587677725 L 230.96665143901322 445.2748815165877 L 233.30561900411146 431.7266982622433 L 235.64458656920968 432.2322274881517 L 237.9835541343079 426.77251184834125 L 240.3225216994061 433.54660347551345 L 242.66148926450433 421.3127962085308 L 245.00045682960254 415.34755134281204 L 247.33942439470076 426.6714060031596 L 249.678391959799 411.1011058451817 L 252.0173595248972 420.70616113744074 L 254.35632708999543 434.8609794628752 L 256.6952946550936 419.391785150079 L 259.03426222019186 421.8183254344392 L 261.37322978529005 406.955766192733 L 263.7121973503883 400.5860979462875 L 266.05116491548654 402.91153238546605 L 268.3901324805847 415.95418641390205 L 270.72910004568297 403.214849921011 L 273.06806761078116 407.9668246445498 L 275.4070351758794 411.5055292259084 L 277.7460027409776 399.1706161137441 L 280.08497030607583 421.61611374407585 L 282.423937871174 406.955766192733 L 284.76290543627226 415.1453396524487 L 287.10187300137045 403.7203791469194 L 289.4408405664687 410.79778830963664 L 291.77980813156694 406.5513428120063 L 294.1187756966651 404.1248025276461 L 296.45774326176337 403.8214849921011 L 298.79671082686156 395.63191153238546 L 301.1356783919598 428.89573459715643 L 303.474645957058 436.5797788309637 L 305.81361352215623 405.2369668246446 L 308.1525810872544 434.25434439178514 L 310.49154865235266 452.35229067930493 L 312.83051621745085 432.63665086887835 L 315.1694837825491 345.8878357030016 L 317.50845134764734 437.89415481832543 L 319.8474189127455 458.7219589257504 L 322.18638647784377 472.06793048973145 L 324.52535404294196 340.02369668246445 L 326.8643216080402 477.1232227488152 L 329.2032891731384 464.6872037914692 L 331.54225673823663 462.3617693522907 L 333.8812243033348 457.71090047393363 L 336.22019186843306 459.8341232227488 L 338.55915943353125 466.40600315955766 L 340.8981269986295 468.7314375987362 L 343.23709456372774 461.65402843601896 L 345.5760621288259 461.0473933649289 L 347.91502969392417 458.92417061611377 L 350.25399725902236 460.4407582938389 L 352.5929648241206 451.74565560821486 L 354.9319323892188 458.11532385466035 L 357.27089995431703 457.5086887835703 L 359.6098675194152 454.172195892575 L 361.94883508451346 463.37282780410743 L 364.28780264961165 461.3507109004739 L 366.6267702147099 459.1263823064771 L 368.96573777980814 458.11532385466035 L 371.3047053449063 465.1927330173776 L 373.64367291000457 456.59873617693523 L 375.98264047510276 456.49763033175356 L 378.321608040201 465.29383886255926 L 380.6605756052992 452.5545023696683 L 382.99954317039743 460.4407582938389 L 385.3385107354957 467.0126382306477 L 387.67747830059386 441.93838862559244 L 390.01644586569205 462.0584518167457 L 392.3554134307903 462.4628751974724 L 394.69438099588854 462.4628751974724 L 397.0333485609867 464.1816745655608 L 399.37231612608497 461.3507109004739 L 401.71128369118316 455.78988941548187 L 404.0502512562814 468.7314375987362 L 406.3892188213796 464.2827804107425 L 408.72818638647783 454.7788309636651 L 411.0671539515761 468.6303317535545 L 413.40612151667426 463.0695102685624 L 415.74508908177245 455.38546603475515 L 418.0840566468707 454.57661927330173 L 420.42302421196894 457.00315955766195 L 422.7619917770671 448.61137440758296 L 425.10095934216537 463.0695102685624 L 427.43992690726355 464.1816745655608 L 429.7788944723618 455.5876777251185 L 432.11786203746 452.1500789889416 L 434.45682960255823 454.172195892575 L 436.7957971676565 457.8120063191153 L 439.13476473275466 450.93680884676144 L 441.47373229785285 457.71090047393363 L 443.8126998629511 448.5102685624013 L 446.15166742804934 460.84518167456554 L 448.4906349931475 457.00315955766195 L 450.8296025582457 446.8925750394945 L 453.168570123344 451.84676145339654 L 455.5075376884422 455.99210110584517 L 457.8465052535404 457.5086887835703 L 460.18547281863863 456.49763033175356 L 462.5244403837369 453.1611374407583 L 464.86340794883506 449.31911532385465 L 467.20237551393325 463.4739336492891 L 469.5413430790315 461.0473933649289 L 471.88031064412974 458.01421800947867 L 474.2192782092279 458.216429699842 L 476.5582457743261 462.4628751974724 L 478.8972133394244 453.565560821485 L 481.2361809045226 458.7219589257504 L 483.5751484696208 451.0379146919431 L 485.91411603471903 446.8925750394945 L 488.2530835998173 452.85781990521326 L 490.59205116491546 458.7219589257504 L 492.93101873001365 448.20695102685625 L 495.2699862951119 447.4992101105845 L 497.60895386021014 456.49763033175356 L 499.9479214253083 442.8483412322275 L 502.28688899040657 450.12796208530807 L 504.6258565555048 457.1042654028436 L 506.964824120603 450.12796208530807 L 509.3037916857012 456.8009478672986 L 511.64275925079943 451.0379146919431 L 513.9817268158977 452.95892575039494 L 516.3206943809959 459.1263823064771 L 518.659661946094 459.4296998420221 L 520.9986295111923 451.4423380726698 L 523.3375970762905 452.4533965244866 L 525.6765646413887 447.9036334913112 L 528.015532206487 452.6556082148499 L 530.3544997715852 449.218009478673 L 532.6934673366834 452.0489731437599 L 535.0324349017816 446.08372827804106 L 537.3714024668798 460.2385466034755 L 539.7103700319781 451.34123222748815 L 542.0493375970763 439.30963665086887 L 544.3883051621744 456.90205371248027 L 546.7272727272727 461.4518167456556" stroke-linejoin="bevel" stroke-miterlimit="10" stroke-width="2"/></g></g></g><g clip-path="url(#IGnkWNFZbiKO)"><g><g><path fill="none" stroke="none"/><path fill="none" stroke="#C51B7D" paint-order="fill stroke markers" d=" M 81.27272727272728 524.2385466034755 L 83.6116948378255 521.4075829383886 L 85.95066240292371 522.216429699842 L 88.28962996802193 521.7109004739336 L 90.62859753312014 523.7330173775672 L 92.96756509821836 524.5418641390205 L 95.30653266331657 518.0710900473933 L 97.64550022841479 519.5876777251185 L 99.984467793513 519.5876777251185 L 102.32343535861122 519.4865718799368 L 104.66240292370946 520.3965244865719 L 107.00137048880768 519.4865718799368 L 109.3403380539059 519.0821484992101 L 111.67930561900411 520.3965244865719 L 114.01827318410233 514.3301737756714 L 116.35724074920054 518.5766192733017 L 118.69620831429876 517.26224328594 L 121.03517587939697 510.2859399684044 L 123.37414344449519 515.6445497630332 L 125.7131110095934 513.9257503949447 L 128.05207857469162 511.80252764612953 L 130.39104613978986 517.1611374407584 L 132.73001370488808 518.172195892575 L 135.0689812699863 513.3191153238547 L 137.4079488350845 514.3301737756714 L 139.74691640018273 515.3412322274881 L 142.08588396528094 516.7567140600316 L 144.42485153037916 516.5545023696683 L 146.76381909547737 510.18483412322274 L 149.1027866605756 507.1516587677725 L 151.4417542256738 515.6445497630332 L 153.78072179077205 514.2290679304897 L 156.11968935587026 510.4881516587678 L 158.45865692096848 515.4423380726698 L 160.7976244860667 506.34281200631915 L 163.1365920511649 506.94944707740916 L 165.47555961626313 508.66824644549763 L 167.81452718136134 513.6224328593997 L 170.15349474645956 500.478672985782 L 172.49246231155777 505.43285939968405 L 174.831429876656 499.9731437598736 L 177.1703974417542 501.08530805687207 L 179.50936500685245 498.9620853080569 L 181.84833257195066 500.0742496050553 L 184.18730013704888 494.61453396524485 L 186.5262677021471 495.6255924170616 L 188.8652352672453 494.51342812006317 L 191.20420283234353 495.12006319115324 L 193.54317039744174 486.62717219589257 L 195.88213796253996 493.90679304897316 L 198.2211055276382 494.61453396524485 L 200.5600730927364 486.72827804107425 L 202.89904065783463 488.34597156398104 L 205.23800822293282 484.5039494470774 L 207.57697578803106 489.15481832543446 L 209.91594335312928 477.93206951026855 L 212.2549109182275 486.22274881516586 L 214.5938784833257 481.06635071090045 L 216.93284604842393 485.7172195892575 L 219.27181361352214 488.34597156398104 L 221.61078117862036 482.2796208530806 L 223.9497487437186 473.3823064770932 L 226.2887163088168 473.0789889415482 L 228.62768387391503 477.1232227488152 L 230.96665143901322 483.2906793048973 L 233.30561900411146 467.0126382306477 L 235.64458656920968 480.1563981042654 L 237.9835541343079 465.5971563981043 L 240.3225216994061 477.0221169036335 L 242.66148926450433 463.37282780410743 L 245.00045682960254 461.4518167456556 L 247.33942439470076 463.67614533965246 L 249.678391959799 456.90205371248027 L 252.0173595248972 463.1706161137441 L 254.35632708999543 462.9684044233807 L 256.6952946550936 455.78988941548187 L 259.03426222019186 459.02527646129545 L 261.37322978529005 452.85781990521326 L 263.7121973503883 448.914691943128 L 266.05116491548654 450.93680884676144 L 268.3901324805847 453.76777251184836 L 270.72910004568297 450.12796208530807 L 273.06806761078116 454.7788309636651 L 275.4070351758794 457.00315955766195 L 277.7460027409776 445.07266982622434 L 280.08497030607583 463.8783570300158 L 282.423937871174 459.3285939968405 L 284.76290543627226 456.1943127962085 L 287.10187300137045 454.87993680884676 L 289.4408405664687 460.9462875197472 L 291.77980813156694 449.9257503949447 L 294.1187756966651 450.0268562401264 L 296.45774326176337 448.71248025276464 L 298.79671082686156 446.58925750394945 L 301.1356783919598 467.2148499210111 L 303.474645957058 461.957345971564 L 305.81361352215623 446.2859399684044 L 308.1525810872544 473.28120063191153 L 310.49154865235266 484.8072669826224 L 312.83051621745085 460.6429699842022 L 315.1694837825491 417.16745655608213 L 317.50845134764734 479.54976303317534 L 319.8474189127455 485.9194312796209 L 322.18638647784377 500.78199052132703 L 324.52535404294196 439.91627172195894 L 326.8643216080402 503.5118483412322 L 329.2032891731384 501.79304897314375 L 331.54225673823663 494.31121642969987 L 333.8812243033348 497.6477093206951 L 336.22019186843306 485.7172195892575 L 338.55915943353125 493.1990521327014 L 340.8981269986295 496.53554502369667 L 343.23709456372774 493.3001579778831 L 345.5760621288259 493.7045813586098 L 347.91502969392417 491.37914691943126 L 350.25399725902236 492.89573459715643 L 352.5929648241206 490.36808846761454 L 354.9319323892188 488.8515007898894 L 357.27089995431703 492.79462875197476 L 359.6098675194152 491.783570300158 L 361.94883508451346 498.8609794628752 L 364.28780264961165 494.8167456556082 L 366.6267702147099 490.5703001579779 L 368.96573777980814 491.07582938388623 L 371.3047053449063 494.61453396524485 L 373.64367291000457 489.96366508688783 L 375.98264047510276 489.7614533965245 L 378.321608040201 493.40126382306477 L 380.6605756052992 483.18957345971563 L 382.99954317039743 494.61453396524485 L 385.3385107354957 492.99684044233805 L 387.67747830059386 479.044233807267 L 390.01644586569205 491.07582938388623 L 392.3554134307903 495.827804107425 L 394.69438099588854 492.6935229067931 L 397.0333485609867 495.3222748815166 L 399.37231612608497 495.12006319115324 L 401.71128369118316 493.50236966824644 L 404.0502512562814 492.28909952606637 L 406.3892188213796 497.8499210110584 L 408.72818638647783 493.6034755134281 L 411.0671539515761 496.3333333333333 L 413.40612151667426 495.7266982622433 L 415.74508908177245 489.0537124802528 L 418.0840566468707 487.0315955766193 L 420.42302421196894 491.6824644549763 L 422.7619917770671 487.73933649289097 L 425.10095934216537 496.53554502369667 L 427.43992690726355 500.478672985782 L 429.7788944723618 490.9747235387046 L 432.11786203746 488.042654028436 L 434.45682960255823 488.5481832543444 L 436.7957971676565 486.72827804107425 L 439.13476473275466 484.4028436018957 L 441.47373229785285 490.5703001579779 L 443.8126998629511 487.23380726698264 L 446.15166742804934 495.12006319115324 L 448.4906349931475 492.6935229067931 L 450.8296025582457 486.8293838862559 L 453.168570123344 487.3349131121643 L 455.5075376884422 491.5813586097946 L 457.8465052535404 492.086887835703 L 460.18547281863863 490.26698262243286 L 462.5244403837369 492.086887835703 L 464.86340794883506 494.00789889415483 L 467.20237551393325 501.1864139020537 L 469.5413430790315 495.827804107425 L 471.88031064412974 492.28909952606637 L 474.2192782092279 498.65876777251185 L 476.5582457743261 497.7488151658768 L 478.8972133394244 489.4581358609795 L 481.2361809045226 495.01895734597156 L 483.5751484696208 489.25592417061614 L 485.91411603471903 486.02053712480256 L 488.2530835998173 490.9747235387046 L 490.59205116491546 492.6935229067931 L 492.93101873001365 488.6492890995261 L 495.2699862951119 486.12164296998424 L 497.60895386021014 493.50236966824644 L 499.9479214253083 490.5703001579779 L 502.28688899040657 490.1658767772512 L 504.6258565555048 491.88467614533965 L 506.964824120603 488.1437598736177 L 509.3037916857012 493.50236966824644 L 511.64275925079943 490.9747235387046 L 513.9817268158977 490.4691943127962 L 516.3206943809959 489.7614533965245 L 518.659661946094 491.5813586097946 L 520.9986295111923 489.96366508688783 L 523.3375970762905 491.48025276461294 L 525.6765646413887 492.89573459715643 L 528.015532206487 493.09794628751973 L 530.3544997715852 492.99684044233805 L 532.6934673366834 487.23380726698264 L 535.0324349017816 486.72827804107425 L 537.3714024668798 495.2211690363349 L 539.7103700319781 493.6034755134281 L 542.0493375970763 487.63823064770935 L 544.3883051621744 496.03001579778834 L 546.7272727272727 488.8515007898894" stroke-linejoin="bevel" stroke-miterlimit="10" stroke-width="2"/></g></g></g><g clip-path="url(#iDxZkWgROMET)"><g><g><path fill="none" stroke="none"/><path fill="none" stroke="#542788" paint-order="fill stroke markers" d=" M 81.27272727272728 539 L 83.6116948378255 538.4944707740916 L 85.95066240292371 538.8988941548183 L 88.28962996802193 537.7867298578199 L 90.62859753312014 538.5955766192733 L 92.96756509821836 537.9889415481832 L 95.30653266331657 538.4944707740916 L 97.64550022841479 537.8878357030015 L 99.984467793513 538.2922590837283 L 102.32343535861122 538.2922590837283 L 104.66240292370946 538.5955766192733 L 107.00137048880768 537.1800947867299 L 109.3403380539059 537.8878357030015 L 111.67930561900411 538.0900473933649 L 114.01827318410233 537.8878357030015 L 116.35724074920054 537.8878357030015 L 118.69620831429876 537.7867298578199 L 121.03517587939697 538.1911532385466 L 123.37414344449519 536.9778830963666 L 125.7131110095934 536.6745655608215 L 128.05207857469162 535.4612954186414 L 130.39104613978986 538.4944707740916 L 132.73001370488808 537.8878357030015 L 135.0689812699863 537.5845181674565 L 137.4079488350845 538.0900473933649 L 139.74691640018273 537.2812006319116 L 142.08588396528094 538.0900473933649 L 144.42485153037916 537.4834123222748 L 146.76381909547737 538.2922590837283 L 149.1027866605756 538.0900473933649 L 151.4417542256738 538.0900473933649 L 153.78072179077205 537.6856240126382 L 156.11968935587026 537.6856240126382 L 158.45865692096848 537.9889415481832 L 160.7976244860667 537.0789889415482 L 163.1365920511649 537.4834123222748 L 165.47555961626313 538.2922590837283 L 167.81452718136134 538.4944707740916 L 170.15349474645956 536.8767772511849 L 172.49246231155777 536.5734597156398 L 174.831429876656 536.8767772511849 L 177.1703974417542 537.0789889415482 L 179.50936500685245 536.6745655608215 L 181.84833257195066 535.9668246445498 L 184.18730013704888 537.0789889415482 L 186.5262677021471 537.1800947867299 L 188.8652352672453 536.7756714060032 L 191.20420283234353 535.7646129541864 L 193.54317039744174 535.5624012638231 L 195.88213796253996 535.7646129541864 L 198.2211055276382 536.1690363349131 L 200.5600730927364 536.2701421800948 L 202.89904065783463 536.0679304897315 L 205.23800822293282 535.7646129541864 L 207.57697578803106 535.0568720379147 L 209.91594335312928 534.955766192733 L 212.2549109182275 534.652448657188 L 214.5938784833257 534.5513428120063 L 216.93284604842393 535.5624012638231 L 219.27181361352214 535.1579778830964 L 221.61078117862036 536.4723538704582 L 223.9497487437186 536.5734597156398 L 226.2887163088168 534.1469194312796 L 228.62768387391503 534.4502369668246 L 230.96665143901322 534.7535545023696 L 233.30561900411146 535.3601895734597 L 235.64458656920968 534.4502369668246 L 237.9835541343079 533.1358609794629 L 240.3225216994061 534.7535545023696 L 242.66148926450433 534.1469194312796 L 245.00045682960254 533.6413902053713 L 247.33942439470076 533.3380726698263 L 249.678391959799 533.0347551342812 L 252.0173595248972 534.2480252764612 L 254.35632708999543 533.8436018957347 L 256.6952946550936 535.5624012638231 L 259.03426222019186 534.3491311216429 L 261.37322978529005 533.2369668246446 L 263.7121973503883 533.0347551342812 L 266.05116491548654 533.4391785150079 L 268.3901324805847 534.7535545023696 L 270.72910004568297 533.9447077409163 L 273.06806761078116 533.8436018957347 L 275.4070351758794 533.4391785150079 L 277.7460027409776 531.9225908372828 L 280.08497030607583 535.259083728278 L 282.423937871174 534.0458135860979 L 284.76290543627226 533.8436018957347 L 287.10187300137045 533.742496050553 L 289.4408405664687 534.2480252764612 L 291.77980813156694 534.1469194312796 L 294.1187756966651 532.5292259083728 L 296.45774326176337 534.652448657188 L 298.79671082686156 532.7314375987362 L 301.1356783919598 534.2480252764612 L 303.474645957058 535.3601895734597 L 305.81361352215623 533.9447077409163 L 308.1525810872544 534.4502369668246 L 310.49154865235266 535.7646129541864 L 312.83051621745085 535.4612954186414 L 315.1694837825491 531.214849921011 L 317.50845134764734 537.1800947867299 L 319.8474189127455 535.7646129541864 L 322.18638647784377 536.9778830963666 L 324.52535404294196 533.9447077409163 L 326.8643216080402 537.3823064770933 L 329.2032891731384 536.8767772511849 L 331.54225673823663 536.5734597156398 L 333.8812243033348 536.7756714060032 L 336.22019186843306 535.8657187993681 L 338.55915943353125 537.1800947867299 L 340.8981269986295 535.5624012638231 L 343.23709456372774 536.7756714060032 L 345.5760621288259 535.7646129541864 L 347.91502969392417 536.5734597156398 L 350.25399725902236 536.6745655608215 L 352.5929648241206 536.8767772511849 L 354.9319323892188 537.0789889415482 L 357.27089995431703 536.2701421800948 L 359.6098675194152 536.8767772511849 L 361.94883508451346 536.2701421800948 L 364.28780264961165 536.5734597156398 L 366.6267702147099 535.1579778830964 L 368.96573777980814 536.9778830963666 L 371.3047053449063 535.4612954186414 L 373.64367291000457 537.3823064770933 L 375.98264047510276 537.1800947867299 L 378.321608040201 536.8767772511849 L 380.6605756052992 535.9668246445498 L 382.99954317039743 535.8657187993681 L 385.3385107354957 536.6745655608215 L 387.67747830059386 530.911532385466 L 390.01644586569205 534.955766192733 L 392.3554134307903 535.4612954186414 L 394.69438099588854 536.0679304897315 L 397.0333485609867 536.7756714060032 L 399.37231612608497 536.2701421800948 L 401.71128369118316 536.7756714060032 L 404.0502512562814 535.8657187993681 L 406.3892188213796 537.3823064770933 L 408.72818638647783 535.9668246445498 L 411.0671539515761 537.7867298578199 L 413.40612151667426 536.9778830963666 L 415.74508908177245 536.0679304897315 L 418.0840566468707 535.8657187993681 L 420.42302421196894 536.6745655608215 L 422.7619917770671 535.1579778830964 L 425.10095934216537 536.5734597156398 L 427.43992690726355 535.9668246445498 L 429.7788944723618 535.4612954186414 L 432.11786203746 536.9778830963666 L 434.45682960255823 534.652448657188 L 436.7957971676565 535.3601895734597 L 439.13476473275466 531.1137440758293 L 441.47373229785285 536.7756714060032 L 443.8126998629511 535.1579778830964 L 446.15166742804934 536.3712480252765 L 448.4906349931475 536.0679304897315 L 450.8296025582457 535.4612954186414 L 453.168570123344 535.0568720379147 L 455.5075376884422 535.7646129541864 L 457.8465052535404 536.3712480252765 L 460.18547281863863 536.7756714060032 L 462.5244403837369 536.1690363349131 L 464.86340794883506 535.6635071090047 L 467.20237551393325 537.4834123222748 L 469.5413430790315 536.0679304897315 L 471.88031064412974 536.2701421800948 L 474.2192782092279 537.2812006319116 L 476.5582457743261 536.1690363349131 L 478.8972133394244 534.652448657188 L 481.2361809045226 537.0789889415482 L 483.5751484696208 537.0789889415482 L 485.91411603471903 534.4502369668246 L 488.2530835998173 535.6635071090047 L 490.59205116491546 536.5734597156398 L 492.93101873001365 536.5734597156398 L 495.2699862951119 536.2701421800948 L 497.60895386021014 537.0789889415482 L 499.9479214253083 536.2701421800948 L 502.28688899040657 535.7646129541864 L 504.6258565555048 536.3712480252765 L 506.964824120603 536.8767772511849 L 509.3037916857012 536.1690363349131 L 511.64275925079943 536.2701421800948 L 513.9817268158977 536.1690363349131 L 516.3206943809959 536.0679304897315 L 518.659661946094 536.4723538704582 L 520.9986295111923 535.1579778830964 L 523.3375970762905 536.3712480252765 L 525.6765646413887 535.8657187993681 L 528.015532206487 535.3601895734597 L 530.3544997715852 537.0789889415482 L 532.6934673366834 536.5734597156398 L 535.0324349017816 535.3601895734597 L 537.3714024668798 537.1800947867299 L 539.7103700319781 536.3712480252765 L 542.0493375970763 534.8546603475513 L 544.3883051621744 535.5624012638231 L 546.7272727272727 536.1690363349131" stroke-linejoin="bevel" stroke-miterlimit="10" stroke-width="2"/></g></g></g><g clip-path="url(#DHnpkCMMsKBA)"><g><g><path fill="none" stroke="none"/><path fill="none" stroke="#A6CEE3" paint-order="fill stroke markers" d=" M 81.27272727272728 494.61453396524485 L 83.6116948378255 489.7614533965245 L 85.95066240292371 493.7045813586098 L 88.28962996802193 493.09794628751973 L 90.62859753312014 488.8515007898894 L 92.96756509821836 495.01895734597156 L 95.30653266331657 491.1769352290679 L 97.64550022841479 486.72827804107425 L 99.984467793513 486.8293838862559 L 102.32343535861122 480.5608214849921 L 104.66240292370946 485.61611374407585 L 107.00137048880768 487.84044233807265 L 109.3403380539059 489.5592417061611 L 111.67930561900411 476.2132701421801 L 114.01827318410233 468.3270142180095 L 116.35724074920054 479.95418641390205 L 118.69620831429876 475.9099526066351 L 121.03517587939697 475 L 123.37414344449519 471.15797788309635 L 125.7131110095934 472.3712480252765 L 128.05207857469162 467.2148499210111 L 130.39104613978986 480.86413902053715 L 132.73001370488808 471.8657187993681 L 135.0689812699863 470.55134281200634 L 137.4079488350845 479.7519747235387 L 139.74691640018273 471.0568720379147 L 142.08588396528094 466.001579778831 L 144.42485153037916 461.1484992101106 L 146.76381909547737 457.60979462875196 L 149.1027866605756 446.3870458135861 L 151.4417542256738 464.9905213270142 L 153.78072179077205 460.4407582938389 L 156.11968935587026 453.6666666666667 L 158.45865692096848 460.9462875197472 L 160.7976244860667 455.38546603475515 L 163.1365920511649 453.6666666666667 L 165.47555961626313 443.6571879936809 L 167.81452718136134 449.521327014218 L 170.15349474645956 433.2432859399684 L 172.49246231155777 436.478672985782 L 174.831429876656 423.13270142180096 L 177.1703974417542 428.28909952606637 L 179.50936500685245 429.6034755134281 L 181.84833257195066 432.2322274881517 L 184.18730013704888 406.5513428120063 L 186.5262677021471 410.5955766192733 L 188.8652352672453 410.1911532385466 L 191.20420283234353 414.2353870458136 L 193.54317039744174 389.1611374407583 L 195.88213796253996 395.02527646129545 L 198.2211055276382 409.0789889415482 L 200.5600730927364 403.1137440758294 L 202.89904065783463 393.8120063191153 L 205.23800822293282 399.37282780410743 L 207.57697578803106 391.89099526066354 L 209.91594335312928 371.56872037914695 L 212.2549109182275 378.2417061611375 L 214.5938784833257 368.33333333333337 L 216.93284604842393 377.93838862559244 L 219.27181361352214 383.0947867298578 L 221.61078117862036 374.0963665086888 L 223.9497487437186 359.13270142180096 L 226.2887163088168 350.5387045813586 L 228.62768387391503 368.03001579778834 L 230.96665143901322 372.478672985782 L 233.30561900411146 366.00789889415483 L 235.64458656920968 356.30173775671403 L 237.9835541343079 353.16745655608213 L 240.3225216994061 356.4028436018957 L 242.66148926450433 346.8988941548183 L 245.00045682960254 321.521327014218 L 247.33942439470076 336.1816745655608 L 249.678391959799 322.6334913112164 L 252.0173595248972 317.3759873617694 L 254.35632708999543 332.84518167456554 L 256.6952946550936 322.5323854660347 L 259.03426222019186 337.5971563981043 L 261.37322978529005 304.5355450236967 L 263.7121973503883 307.872037914692 L 266.05116491548654 306.4565560821485 L 268.3901324805847 320.914691943128 L 270.72910004568297 298.26698262243286 L 273.06806761078116 311.0063191153239 L 275.4070351758794 310.6018957345972 L 277.7460027409776 293.9194312796209 L 280.08497030607583 328.8009478672986 L 282.423937871174 304.5355450236967 L 284.76290543627226 332.03633491311217 L 287.10187300137045 312.21958925750397 L 289.4408405664687 313.7361769352291 L 291.77980813156694 330.01421800947867 L 294.1187756966651 308.3775671406003 L 296.45774326176337 322.5323854660347 L 298.79671082686156 296.9526066350711 L 301.1356783919598 350.33649289099526 L 303.474645957058 355.18957345971563 L 305.81361352215623 327.1832543443918 L 308.1525810872544 351.95418641390205 L 310.49154865235266 388.85781990521326 L 312.83051621745085 340.3270142180095 L 315.1694837825491 219 L 317.50845134764734 376.7251184834123 L 319.8474189127455 402.40600315955766 L 322.18638647784377 426.4691943127962 L 324.52535404294196 234.87361769352293 L 326.8643216080402 441.02843601895734 L 329.2032891731384 418.1785150078989 L 331.54225673823663 397.24960505529225 L 333.8812243033348 403.61927330173773 L 336.22019186843306 404.52922590837284 L 338.55915943353125 398.4628751974724 L 340.8981269986295 408.8767772511849 L 343.23709456372774 405.5402843601896 L 345.5760621288259 407.7646129541864 L 347.91502969392417 394.11532385466035 L 350.25399725902236 401.29383886255926 L 352.5929648241206 396.03633491311217 L 354.9319323892188 406.45023696682466 L 357.27089995431703 410.4944707740916 L 359.6098675194152 399.77725118483414 L 361.94883508451346 410.4944707740916 L 364.28780264961165 400.78830963665087 L 366.6267702147099 396.3396524486572 L 368.96573777980814 403.92259083728277 L 371.3047053449063 403.8214849921011 L 373.64367291000457 405.7424960505529 L 375.98264047510276 401.29383886255926 L 378.321608040201 405.6413902053713 L 380.6605756052992 391.0821484992101 L 382.99954317039743 415.7519747235387 L 385.3385107354957 413.52764612954184 L 387.67747830059386 385.3191153238547 L 390.01644586569205 410.4944707740916 L 392.3554134307903 418.48183254344394 L 394.69438099588854 410.79778830963664 L 397.0333485609867 413.22432859399686 L 399.37231612608497 408.16903633491313 L 401.71128369118316 412.6176935229068 L 404.0502512562814 414.33649289099526 L 406.3892188213796 421.11058451816746 L 408.72818638647783 402.20379146919436 L 411.0671539515761 416.5608214849921 L 413.40612151667426 417.57187993680884 L 415.74508908177245 411.8088467614534 L 418.0840566468707 406.65244865718796 L 420.42302421196894 413.0221169036335 L 422.7619917770671 402.608214849921 L 425.10095934216537 412.2132701421801 L 427.43992690726355 425.5592417061612 L 429.7788944723618 394.92417061611377 L 432.11786203746 405.5402843601896 L 434.45682960255823 409.9889415481832 L 436.7957971676565 404.6303317535545 L 439.13476473275466 406.75355450236964 L 441.47373229785285 407.56240126382306 L 443.8126998629511 392.8009478672986 L 446.15166742804934 410.79778830963664 L 448.4906349931475 409.3823064770932 L 450.8296025582457 393.4075829383886 L 453.168570123344 402.40600315955766 L 455.5075376884422 407.9668246445498 L 457.8465052535404 402.20379146919436 L 460.18547281863863 409.18009478672985 L 462.5244403837369 407.15797788309635 L 464.86340794883506 396.9462875197472 L 467.20237551393325 420.2006319115324 L 469.5413430790315 403.51816745655606 L 471.88031064412974 408.16903633491313 L 474.2192782092279 405.6413902053713 L 476.5582457743261 404.52922590837284 L 478.8972133394244 398.56398104265406 L 481.2361809045226 407.8657187993681 L 483.5751484696208 402.81042654028437 L 485.91411603471903 390.07109004739334 L 488.2530835998173 402.40600315955766 L 490.59205116491546 398.66508688783574 L 492.93101873001365 392.6998420221169 L 495.2699862951119 394.7219589257504 L 497.60895386021014 411.5055292259084 L 499.9479214253083 385.9257503949447 L 502.28688899040657 401.79936808846765 L 504.6258565555048 411.70774091627175 L 506.964824120603 392.6998420221169 L 509.3037916857012 404.42812006319116 L 511.64275925079943 393.913112164297 L 513.9817268158977 401.1927330173776 L 516.3206943809959 408.3712480252765 L 518.659661946094 409.0789889415482 L 520.9986295111923 388.75671406003164 L 523.3375970762905 397.0473933649289 L 525.6765646413887 397.0473933649289 L 528.015532206487 409.9889415481832 L 530.3544997715852 408.06793048973145 L 532.6934673366834 400.5860979462875 L 535.0324349017816 394.62085308056874 L 537.3714024668798 410.5955766192733 L 539.7103700319781 403.0126382306477 L 542.0493375970763 383.29699842022114 L 544.3883051621744 400.5860979462875 L 546.7272727272727 398.66508688783574" stroke-linejoin="bevel" stroke-miterlimit="10" stroke-width="2"/></g></g></g><g clip-path="url(#WrziXixcZCch)"><g><g><path fill="none" stroke="none"/><path fill="none" stroke="#B2DF8A" paint-order="fill stroke markers" d=" M 81.27272727272728 516.7567140600316 L 83.6116948378255 515.5434439178515 L 85.95066240292371 514.0268562401263 L 88.28962996802193 511.4992101105845 L 90.62859753312014 509.3759873617694 L 92.96756509821836 517.0600315955767 L 95.30653266331657 509.9826224328594 L 97.64550022841479 514.127962085308 L 99.984467793513 512.3080568720379 L 102.32343535861122 513.7235387045814 L 104.66240292370946 510.4881516587678 L 107.00137048880768 508.2638230647709 L 109.3403380539059 509.47709320695105 L 111.67930561900411 507.7582938388626 L 114.01827318410233 501.4897314375987 L 116.35724074920054 507.1516587677725 L 118.69620831429876 504.21958925750397 L 121.03517587939697 503.91627172195894 L 123.37414344449519 503.1074249605055 L 125.7131110095934 504.32069510268565 L 128.05207857469162 500.78199052132703 L 130.39104613978986 506.1406003159558 L 132.73001370488808 502.0963665086888 L 135.0689812699863 504.21958925750397 L 137.4079488350845 506.1406003159558 L 139.74691640018273 500.3775671406003 L 142.08588396528094 502.29857819905214 L 144.42485153037916 499.56872037914695 L 146.76381909547737 498.5576619273302 L 149.1027866605756 492.086887835703 L 151.4417542256738 502.0963665086888 L 153.78072179077205 496.434439178515 L 156.11968935587026 495.7266982622433 L 158.45865692096848 497.7488151658768 L 160.7976244860667 491.1769352290679 L 163.1365920511649 493.8056872037915 L 165.47555961626313 494.51342812006317 L 167.81452718136134 495.42338072669827 L 170.15349474645956 482.9873617693523 L 172.49246231155777 488.9526066350711 L 174.831429876656 483.18957345971563 L 177.1703974417542 481.06635071090045 L 179.50936500685245 478.43759873617694 L 181.84833257195066 482.5829383886256 L 184.18730013704888 463.37282780410743 L 186.5262677021471 469.9447077409163 L 188.8652352672453 467.1137440758294 L 191.20420283234353 467.31595576619276 L 193.54317039744174 456.09320695102684 L 195.88213796253996 464.2827804107425 L 198.2211055276382 466.1026856240126 L 200.5600730927364 465.4960505529226 L 202.89904065783463 460.6429699842022 L 205.23800822293282 461.75513428120064 L 207.57697578803106 460.3396524486572 L 209.91594335312928 448.8135860979463 L 212.2549109182275 456.49763033175356 L 214.5938784833257 444.2638230647709 L 216.93284604842393 452.6556082148499 L 219.27181361352214 451.1390205371248 L 221.61078117862036 441.93838862559244 L 223.9497487437186 437.38862559241704 L 226.2887163088168 432.8388625592417 L 228.62768387391503 437.9952606635071 L 230.96665143901322 449.31911532385465 L 233.30561900411146 436.5797788309637 L 235.64458656920968 433.3443917851501 L 237.9835541343079 432.9399684044234 L 240.3225216994061 437.38862559241704 L 242.66148926450433 426.36808846761454 L 245.00045682960254 403.1137440758294 L 247.33942439470076 420.2006319115324 L 249.678391959799 414.84202211690365 L 252.0173595248972 411.8088467614534 L 254.35632708999543 428.89573459715643 L 256.6952946550936 412.71879936808847 L 259.03426222019186 417.16745655608213 L 261.37322978529005 402.50710900473933 L 263.7121973503883 394.8230647709321 L 266.05116491548654 398.3617693522907 L 268.3901324805847 404.7314375987362 L 270.72910004568297 408.47235387045816 L 273.06806761078116 397.65402843601896 L 275.4070351758794 400.48499210110583 L 277.7460027409776 385.521327014218 L 280.08497030607583 414.2353870458136 L 282.423937871174 403.92259083728277 L 284.76290543627226 408.8767772511849 L 287.10187300137045 399.67614533965246 L 289.4408405664687 399.37282780410743 L 291.77980813156694 395.53080568720384 L 294.1187756966651 396.2385466034755 L 296.45774326176337 404.7314375987362 L 298.79671082686156 394.216429699842 L 301.1356783919598 421.8183254344392 L 303.474645957058 430.1090047393365 L 305.81361352215623 417.2685624012638 L 308.1525810872544 435.87203791469193 L 310.49154865235266 454.6777251184834 L 312.83051621745085 429.40126382306477 L 315.1694837825491 359.3349131121643 L 317.50845134764734 457.00315955766195 L 319.8474189127455 461.4518167456556 L 322.18638647784377 475.20221169036336 L 324.52535404294196 358.02053712480256 L 326.8643216080402 482.1785150078989 L 329.2032891731384 473.9889415481833 L 331.54225673823663 456.90205371248027 L 333.8812243033348 471.7646129541864 L 336.22019186843306 465.69826224328597 L 338.55915943353125 459.3285939968405 L 340.8981269986295 469.54028436018956 L 343.23709456372774 467.2148499210111 L 345.5760621288259 463.1706161137441 L 347.91502969392417 458.01421800947867 L 350.25399725902236 458.3175355450237 L 352.5929648241206 461.4518167456556 L 354.9319323892188 457.00315955766195 L 357.27089995431703 464.0805687203791 L 359.6098675194152 466.1026856240126 L 361.94883508451346 469.0347551342812 L 364.28780264961165 459.3285939968405 L 366.6267702147099 464.0805687203791 L 368.96573777980814 468.1248025276461 L 371.3047053449063 463.27172195892575 L 373.64367291000457 460.74407582938386 L 375.98264047510276 460.4407582938389 L 378.321608040201 464.1816745655608 L 380.6605756052992 447.70142180094786 L 382.99954317039743 463.67614533965246 L 385.3385107354957 463.27172195892575 L 387.67747830059386 446.99368088467617 L 390.01644586569205 466.40600315955766 L 392.3554134307903 468.52922590837284 L 394.69438099588854 460.6429699842022 L 397.0333485609867 467.1137440758294 L 399.37231612608497 464.5860979462875 L 401.71128369118316 466.50710900473933 L 404.0502512562814 466.91153238546605 L 406.3892188213796 466.7093206951027 L 408.72818638647783 456.3965244865719 L 411.0671539515761 472.57345971563984 L 413.40612151667426 465.29383886255926 L 415.74508908177245 455.38546603475515 L 418.0840566468707 461.4518167456556 L 420.42302421196894 463.27172195892575 L 422.7619917770671 456.90205371248027 L 425.10095934216537 462.26066350710903 L 427.43992690726355 467.0126382306477 L 429.7788944723618 456.59873617693523 L 432.11786203746 452.85781990521326 L 434.45682960255823 461.8562401263823 L 436.7957971676565 461.8562401263823 L 439.13476473275466 459.4296998420221 L 441.47373229785285 462.76619273301736 L 443.8126998629511 450.4312796208531 L 446.15166742804934 467.31595576619276 L 448.4906349931475 462.15955766192735 L 450.8296025582457 449.521327014218 L 453.168570123344 445.57819905213273 L 455.5075376884422 457.913112164297 L 457.8465052535404 455.38546603475515 L 460.18547281863863 459.3285939968405 L 462.5244403837369 460.84518167456554 L 464.86340794883506 455.0821484992101 L 467.20237551393325 466.2037914691943 L 469.5413430790315 458.92417061611377 L 471.88031064412974 459.9352290679305 L 474.2192782092279 459.5308056872038 L 476.5582457743261 458.92417061611377 L 478.8972133394244 452.6556082148499 L 481.2361809045226 466.91153238546605 L 483.5751484696208 458.8230647709321 L 485.91411603471903 447.9036334913112 L 488.2530835998173 456.49763033175356 L 490.59205116491546 456.6998420221169 L 492.93101873001365 454.87993680884676 L 495.2699862951119 447.19589257503947 L 497.60895386021014 464.2827804107425 L 499.9479214253083 455.5876777251185 L 502.28688899040657 454.2733017377567 L 504.6258565555048 459.2274881516588 L 506.964824120603 456.1943127962085 L 509.3037916857012 455.78988941548187 L 511.64275925079943 452.0489731437599 L 513.9817268158977 454.3744075829384 L 516.3206943809959 457.3064770932069 L 518.659661946094 458.51974723538706 L 520.9986295111923 450.4312796208531 L 523.3375970762905 455.1832543443918 L 525.6765646413887 449.521327014218 L 528.015532206487 457.71090047393363 L 530.3544997715852 454.3744075829384 L 532.6934673366834 457.4075829383886 L 535.0324349017816 455.1832543443918 L 537.3714024668798 466.001579778831 L 539.7103700319781 456.59873617693523 L 542.0493375970763 446.08372827804106 L 544.3883051621744 456.90205371248027 L 546.7272727272727 459.73301737756714" stroke-linejoin="bevel" stroke-miterlimit="10" stroke-width="2"/></g></g></g><g><g/><g><path fill="#ffffff" stroke="#e5e5e5" paint-order="fill stroke markers" d=" M 68 38 L 468.078125 38 L 468.078125 193 L 68 193 L 68 38 Z" fill-opacity="0.95" stroke-linejoin="bevel" stroke-miterlimit="10" stroke-opacity="0.5"/><text fill="#444444" stroke="none" font-family="helvetica" font-size="10pt" font-style="normal" font-weight="normal" text-decoration="normal" x="103" y="58" text-anchor="start" dominant-baseline="central">plc124_fluc_rep01_GACTAG.fastqAligned.primary.out_dedup</text><g><path fill="none" stroke="#1F78B4" paint-order="fill stroke markers" d=" M 78 58 L 98 58" stroke-linejoin="bevel" stroke-miterlimit="10" stroke-width="2"/></g><text fill="#444444" stroke="none" font-family="helvetica" font-size="10pt" font-style="normal" font-weight="normal" text-decoration="normal" x="103" y="81" text-anchor="start" dominant-baseline="central">plc124_fluc_rep02_TGCACA.fastqAligned.primary.out_dedup</text><g><path fill="none" stroke="#33A02C" paint-order="fill stroke markers" d=" M 78 81 L 98 81" stroke-linejoin="bevel" stroke-miterlimit="10" stroke-width="2"/></g><text fill="#444444" stroke="none" font-family="helvetica" font-size="10pt" font-style="normal" font-weight="normal" text-decoration="normal" x="103" y="104" text-anchor="start" dominant-baseline="central">plc124_fluc_rep03_TCCTGA.fastqAligned.primary.out_dedup</text><g><path fill="none" stroke="#C51B7D" paint-order="fill stroke markers" d=" M 78 104 L 98 104" stroke-linejoin="bevel" stroke-miterlimit="10" stroke-width="2"/></g><text fill="#444444" stroke="none" font-family="helvetica" font-size="10pt" font-style="normal" font-weight="normal" text-decoration="normal" x="103" y="127" text-anchor="start" dominant-baseline="central">plc124_ut_rep01_TAACCG.fastqAligned.primary.out_dedup</text><g><path fill="none" stroke="#542788" paint-order="fill stroke markers" d=" M 78 127 L 98 127" stroke-linejoin="bevel" stroke-miterlimit="10" stroke-width="2"/></g><text fill="#444444" stroke="none" font-family="helvetica" font-size="10pt" font-style="normal" font-weight="normal" text-decoration="normal" x="103" y="150" text-anchor="start" dominant-baseline="central">plc124_ut_rep02_AGTTAA.fastqAligned.primary.out_dedup</text><g><path fill="none" stroke="#A6CEE3" paint-order="fill stroke markers" d=" M 78 150 L 98 150" stroke-linejoin="bevel" stroke-miterlimit="10" stroke-width="2"/></g><text fill="#444444" stroke="none" font-family="helvetica" font-size="10pt" font-style="normal" font-weight="normal" text-decoration="normal" x="103" y="173" text-anchor="start" dominant-baseline="central">plc124_ut_rep03_GTTCAT.fastqAligned.primary.out_dedup</text><g><path fill="none" stroke="#B2DF8A" paint-order="fill stroke markers" d=" M 78 173 L 98 173" stroke-linejoin="bevel" stroke-miterlimit="10" stroke-width="2"/></g></g></g><g><g fill="#444444"><path fill="" stroke="none" d=""/><g transform="translate(58,23)"><path fill="none" stroke="none"/><text fill="" stroke="none" font-family="helvetica" font-size="10pt" font-style="normal" font-weight="bold" text-decoration="normal" x="0" y="0" text-anchor="start" dominant-baseline="text-after-edge">metagene_counts-START_raw</text></g></g></g><g/><g><g fill="#444444"><path fill="none" stroke="black" paint-order="fill stroke markers" d=" M 58 555 L 570 555" stroke-linejoin="bevel" stroke-miterlimit="10"/><path fill="none" stroke="black" paint-order="fill stroke markers" d=" M 81 561 L 81 553" stroke-linejoin="bevel" stroke-miterlimit="10"/><path fill="none" stroke="black" paint-order="fill stroke markers" d=" M 198 561 L 198 553" stroke-linejoin="bevel" stroke-miterlimit="10"/><path fill="none" stroke="black" paint-order="fill stroke markers" d=" M 315 561 L 315 553" stroke-linejoin="bevel" stroke-miterlimit="10"/><path fill="none" stroke="black" paint-order="fill stroke markers" d=" M 432 561 L 432 553" stroke-linejoin="bevel" stroke-miterlimit="10"/><path fill="none" stroke="black" paint-order="fill stroke markers" d=" M 549 561 L 549 553" stroke-linejoin="bevel" stroke-miterlimit="10"/><path fill="none" stroke="black" paint-order="fill stroke markers" d=" M 81 559 L 81 555" stroke-linejoin="bevel" stroke-miterlimit="10"/><path fill="none" stroke="black" paint-order="fill stroke markers" d=" M 105 559 L 105 555" stroke-linejoin="bevel" stroke-miterlimit="10"/><path fill="none" stroke="black" paint-order="fill stroke markers" d=" M 128 559 L 128 555" stroke-linejoin="bevel" stroke-miterlimit="10"/><path fill="none" stroke="black" paint-order="fill stroke markers" d=" M 151 559 L 151 555" stroke-linejoin="bevel" stroke-miterlimit="10"/><path fill="none" stroke="black" paint-order="fill stroke markers" d=" M 175 559 L 175 555" stroke-linejoin="bevel" stroke-miterlimit="10"/><path fill="none" stroke="black" paint-order="fill stroke markers" d=" M 198 559 L 198 555" stroke-linejoin="bevel" stroke-miterlimit="10"/><path fill="none" stroke="black" paint-order="fill stroke markers" d=" M 222 559 L 222 555" stroke-linejoin="bevel" stroke-miterlimit="10"/><path fill="none" stroke="black" paint-order="fill stroke markers" d=" M 245 559 L 245 555" stroke-linejoin="bevel" stroke-miterlimit="10"/><path fill="none" stroke="black" paint-order="fill stroke markers" d=" M 268 559 L 268 555" stroke-linejoin="bevel" stroke-miterlimit="10"/><path fill="none" stroke="black" paint-order="fill stroke markers" d=" M 292 559 L 292 555" stroke-linejoin="bevel" stroke-miterlimit="10"/><path fill="none" stroke="black" paint-order="fill stroke markers" d=" M 315 559 L 315 555" stroke-linejoin="bevel" stroke-miterlimit="10"/><path fill="none" stroke="black" paint-order="fill stroke markers" d=" M 339 559 L 339 555" stroke-linejoin="bevel" stroke-miterlimit="10"/><path fill="none" stroke="black" paint-order="fill stroke markers" d=" M 362 559 L 362 555" stroke-linejoin="bevel" stroke-miterlimit="10"/><path fill="none" stroke="black" paint-order="fill stroke markers" d=" M 385 559 L 385 555" stroke-linejoin="bevel" stroke-miterlimit="10"/><path fill="none" stroke="black" paint-order="fill stroke markers" d=" M 409 559 L 409 555" stroke-linejoin="bevel" stroke-miterlimit="10"/><path fill="none" stroke="black" paint-order="fill stroke markers" d=" M 432 559 L 432 555" stroke-linejoin="bevel" stroke-miterlimit="10"/><path fill="none" stroke="black" paint-order="fill stroke markers" d=" M 456 559 L 456 555" stroke-linejoin="bevel" stroke-miterlimit="10"/><path fill="none" stroke="black" paint-order="fill stroke markers" d=" M 479 559 L 479 555" stroke-linejoin="bevel" stroke-miterlimit="10"/><path fill="none" stroke="black" paint-order="fill stroke markers" d=" M 502 559 L 502 555" stroke-linejoin="bevel" stroke-miterlimit="10"/><path fill="none" stroke="black" paint-order="fill stroke markers" d=" M 526 559 L 526 555" stroke-linejoin="bevel" stroke-miterlimit="10"/><path fill="" stroke="black" paint-order="fill stroke markers" d=" M 549 559 L 549 555" stroke-linejoin="bevel" stroke-miterlimit="10"/><g transform="translate(81,566) rotate(0,0,0)"><text fill="" stroke="none" font-family="helvetica" font-size="8pt" font-style="normal" font-weight="normal" text-decoration="normal" x="0" y="0" text-anchor="middle" dominant-baseline="hanging">-100</text><g transform="rotate(0,0,0) translate(-81,-566) translate(198,566) rotate(0,0,0)"><text fill="" stroke="none" font-family="helvetica" font-size="8pt" font-style="normal" font-weight="normal" text-decoration="normal" x="0" y="0" text-anchor="middle" dominant-baseline="hanging">-50</text><g transform="rotate(0,0,0) translate(-198,-566) translate(315,566) rotate(0,0,0)"><text fill="" stroke="none" font-family="helvetica" font-size="8pt" font-style="normal" font-weight="normal" text-decoration="normal" x="0" y="0" text-anchor="middle" dominant-baseline="hanging">0</text><g transform="rotate(0,0,0) translate(-315,-566) translate(432,566) rotate(0,0,0)"><text fill="" stroke="none" font-family="helvetica" font-size="8pt" font-style="normal" font-weight="normal" text-decoration="normal" x="0" y="0" text-anchor="middle" dominant-baseline="hanging">50</text><g transform="rotate(0,0,0) translate(-432,-566) translate(549,566) rotate(0,0,0)"><text fill="" stroke="none" font-family="helvetica" font-size="8pt" font-style="normal" font-weight="normal" text-decoration="normal" x="0" y="0" text-anchor="middle" dominant-baseline="hanging">100</text><g transform="rotate(0,0,0) translate(-549,-566) translate(314,584) rotate(0,0,0)"><text fill="" stroke="none" font-family="helvetica" font-size="10pt" font-style="italic" font-weight="normal" text-decoration="normal" x="0" y="0" text-anchor="middle" dominant-baseline="hanging">position from START</text><g transform="rotate(0,0,0) translate(-314,-584)"/></g></g></g></g></g></g></g></g><g><g fill="#444444"><path fill="none" stroke="black" paint-order="fill stroke markers" d=" M 58 555 L 58 203" stroke-linejoin="bevel" stroke-miterlimit="10"/><path fill="none" stroke="black" paint-order="fill stroke markers" d=" M 52 539 L 60 539" stroke-linejoin="bevel" stroke-miterlimit="10"/><path fill="none" stroke="black" paint-order="fill stroke markers" d=" M 52 489 L 60 489" stroke-linejoin="bevel" stroke-miterlimit="10"/><path fill="none" stroke="black" paint-order="fill stroke markers" d=" M 52 438 L 60 438" stroke-linejoin="bevel" stroke-miterlimit="10"/><path fill="none" stroke="black" paint-order="fill stroke markers" d=" M 52 387 L 60 387" stroke-linejoin="bevel" stroke-miterlimit="10"/><path fill="none" stroke="black" paint-order="fill stroke markers" d=" M 52 337 L 60 337" stroke-linejoin="bevel" stroke-miterlimit="10"/><path fill="none" stroke="black" paint-order="fill stroke markers" d=" M 52 286 L 60 286" stroke-linejoin="bevel" stroke-miterlimit="10"/><path fill="none" stroke="black" paint-order="fill stroke markers" d=" M 52 236 L 60 236" stroke-linejoin="bevel" stroke-miterlimit="10"/><path fill="none" stroke="black" paint-order="fill stroke markers" d=" M 54 549 L 58 549" stroke-linejoin="bevel" stroke-miterlimit="10"/><path fill="none" stroke="black" paint-order="fill stroke markers" d=" M 54 539 L 58 539" stroke-linejoin="bevel" stroke-miterlimit="10"/><path fill="none" stroke="black" paint-order="fill stroke markers" d=" M 54 529 L 58 529" stroke-linejoin="bevel" stroke-miterlimit="10"/><path fill="none" stroke="black" paint-order="fill stroke markers" d=" M 54 519 L 58 519" stroke-linejoin="bevel" stroke-miterlimit="10"/><path fill="none" stroke="black" paint-order="fill stroke markers" d=" M 54 509 L 58 509" stroke-linejoin="bevel" stroke-miterlimit="10"/><path fill="none" stroke="black" paint-order="fill stroke markers" d=" M 54 499 L 58 499" stroke-linejoin="bevel" stroke-miterlimit="10"/><path fill="none" stroke="black" paint-order="fill stroke markers" d=" M 54 489 L 58 489" stroke-linejoin="bevel" stroke-miterlimit="10"/><path fill="none" stroke="black" paint-order="fill stroke markers" d=" M 54 478 L 58 478" stroke-linejoin="bevel" stroke-miterlimit="10"/><path fill="none" stroke="black" paint-order="fill stroke markers" d=" M 54 468 L 58 468" stroke-linejoin="bevel" stroke-miterlimit="10"/><path fill="none" stroke="black" paint-order="fill stroke markers" d=" M 54 458 L 58 458" stroke-linejoin="bevel" stroke-miterlimit="10"/><path fill="none" stroke="black" paint-order="fill stroke markers" d=" M 54 448 L 58 448" stroke-linejoin="bevel" stroke-miterlimit="10"/><path fill="none" stroke="black" paint-order="fill stroke markers" d=" M 54 438 L 58 438" stroke-linejoin="bevel" stroke-miterlimit="10"/><path fill="none" stroke="black" paint-order="fill stroke markers" d=" M 54 428 L 58 428" stroke-linejoin="bevel" stroke-miterlimit="10"/><path fill="none" stroke="black" paint-order="fill stroke markers" d=" M 54 418 L 58 418" stroke-linejoin="bevel" stroke-miterlimit="10"/><path fill="none" stroke="black" paint-order="fill stroke markers" d=" M 54 408 L 58 408" stroke-linejoin="bevel" stroke-miterlimit="10"/><path fill="none" stroke="black" paint-order="fill stroke markers" d=" M 54 398 L 58 398" stroke-linejoin="bevel" stroke-miterlimit="10"/><path fill="none" stroke="black" paint-order="fill stroke markers" d=" M 54 387 L 58 387" stroke-linejoin="bevel" stroke-miterlimit="10"/><path fill="none" stroke="black" paint-order="fill stroke markers" d=" M 54 377 L 58 377" stroke-linejoin="bevel" stroke-miterlimit="10"/><path fill="none" stroke="black" paint-order="fill stroke markers" d=" M 54 367 L 58 367" stroke-linejoin="bevel" stroke-miterlimit="10"/><path fill="none" stroke="black" paint-order="fill stroke markers" d=" M 54 357 L 58 357" stroke-linejoin="bevel" stroke-miterlimit="10"/><path fill="none" stroke="black" paint-order="fill stroke markers" d=" M 54 347 L 58 347" stroke-linejoin="bevel" stroke-miterlimit="10"/><path fill="none" stroke="black" paint-order="fill stroke markers" d=" M 54 337 L 58 337" stroke-linejoin="bevel" stroke-miterlimit="10"/><path fill="none" stroke="black" paint-order="fill stroke markers" d=" M 54 327 L 58 327" stroke-linejoin="bevel" stroke-miterlimit="10"/><path fill="none" stroke="black" paint-order="fill stroke markers" d=" M 54 317 L 58 317" stroke-linejoin="bevel" stroke-miterlimit="10"/><path fill="none" stroke="black" paint-order="fill stroke markers" d=" M 54 307 L 58 307" stroke-linejoin="bevel" stroke-miterlimit="10"/><path fill="none" stroke="black" paint-order="fill stroke markers" d=" M 54 296 L 58 296" stroke-linejoin="bevel" stroke-miterlimit="10"/><path fill="none" stroke="black" paint-order="fill stroke markers" d=" M 54 286 L 58 286" stroke-linejoin="bevel" stroke-miterlimit="10"/><path fill="none" stroke="black" paint-order="fill stroke markers" d=" M 54 276 L 58 276" stroke-linejoin="bevel" stroke-miterlimit="10"/><path fill="none" stroke="black" paint-order="fill stroke markers" d=" M 54 266 L 58 266" stroke-linejoin="bevel" stroke-miterlimit="10"/><path fill="none" stroke="black" paint-order="fill stroke markers" d=" M 54 256 L 58 256" stroke-linejoin="bevel" stroke-miterlimit="10"/><path fill="none" stroke="black" paint-order="fill stroke markers" d=" M 54 246 L 58 246" stroke-linejoin="bevel" stroke-miterlimit="10"/><path fill="none" stroke="black" paint-order="fill stroke markers" d=" M 54 236 L 58 236" stroke-linejoin="bevel" stroke-miterlimit="10"/><path fill="none" stroke="black" paint-order="fill stroke markers" d=" M 54 226 L 58 226" stroke-linejoin="bevel" stroke-miterlimit="10"/><path fill="none" stroke="black" paint-order="fill stroke markers" d=" M 54 216 L 58 216" stroke-linejoin="bevel" stroke-miterlimit="10"/><path fill="" stroke="black" paint-order="fill stroke markers" d=" M 54 205 L 58 205" stroke-linejoin="bevel" stroke-miterlimit="10"/><g transform="translate(47,539) rotate(0,0,0)"><text fill="" stroke="none" font-family="helvetica" font-size="8pt" font-style="normal" font-weight="normal" text-decoration="normal" x="0" y="0" text-anchor="end" dominant-baseline="central">0</text><g transform="rotate(0,0,0) translate(-47,-539) translate(47,489) rotate(0,0,0)"><text fill="" stroke="none" font-family="helvetica" font-size="8pt" font-style="normal" font-weight="normal" text-decoration="normal" x="0" y="0" text-anchor="end" dominant-baseline="central">500</text><g transform="rotate(0,0,0) translate(-47,-489) translate(47,438) rotate(0,0,0)"><text fill="" stroke="none" font-family="helvetica" font-size="8pt" font-style="normal" font-weight="normal" text-decoration="normal" x="0" y="0" text-anchor="end" dominant-baseline="central">1000</text><g transform="rotate(0,0,0) translate(-47,-438) translate(47,387) rotate(0,0,0)"><text fill="" stroke="none" font-family="helvetica" font-size="8pt" font-style="normal" font-weight="normal" text-decoration="normal" x="0" y="0" text-anchor="end" dominant-baseline="central">1500</text><g transform="rotate(0,0,0) translate(-47,-387) translate(47,337) rotate(0,0,0)"><text fill="" stroke="none" font-family="helvetica" font-size="8pt" font-style="normal" font-weight="normal" text-decoration="normal" x="0" y="0" text-anchor="end" dominant-baseline="central">2000</text><g transform="rotate(0,0,0) translate(-47,-337) translate(47,286) rotate(0,0,0)"><text fill="" stroke="none" font-family="helvetica" font-size="8pt" font-style="normal" font-weight="normal" text-decoration="normal" x="0" y="0" text-anchor="end" dominant-baseline="central">2500</text><g transform="rotate(0,0,0) translate(-47,-286) translate(47,236) rotate(0,0,0)"><text fill="" stroke="none" font-family="helvetica" font-size="8pt" font-style="normal" font-weight="normal" text-decoration="normal" x="0" y="0" text-anchor="end" dominant-baseline="central">3000</text><g transform="rotate(0,0,0) translate(-47,-236) translate(15,379) rotate(-90,0,0)"><text fill="" stroke="none" font-family="helvetica" font-size="10pt" font-style="italic" font-weight="normal" text-decoration="normal" x="0" y="0" text-anchor="middle" dominant-baseline="alphabetic">5'seq raw counts</text><g transform="rotate(90,0,0) translate(-15,-379)"/></g></g></g></g></g></g></g></g></g></g><g clip-path="url(#RPXsnuCtOQmQ)"><g/></g></g></g></svg>